# 3ds Max Wavefront OBJ Exporter v0.99 - (c)2007 guruware
# File Created: 28.08.2021 12:58:29

mtllib acc5.mtl

#
# object acc5
#

v  -0.4523 5.0757 -59.9391
v  0.4523 5.0757 -59.9391
v  0.4523 5.0778 -58.4968
v  -0.4523 5.0778 -58.4968
v  0.4523 7.6483 -58.5006
v  0.4523 7.5980 -99.1907
v  -0.4523 7.5980 -99.1907
v  -0.4523 7.6483 -58.5006
v  -0.4523 6.0276 -99.1879
v  0.4523 6.0276 -99.1879
v  -0.4523 5.6187 -99.5859
v  0.4523 5.6187 -99.5859
v  -0.4523 5.6187 -100.3354
v  0.4523 5.6187 -100.3354
v  -0.4523 5.0190 -100.3354
v  0.4523 5.0190 -100.3354
v  -0.4523 4.9636 -62.4591
v  -0.4523 2.1187 -62.2100
v  -0.4523 2.5646 -61.7504
v  -0.4523 3.7959 -61.7043
v  0.4523 2.1187 -62.2100
v  0.4523 2.5646 -61.7504
v  0.4523 3.7959 -61.7043
v  0.4523 4.4369 -61.2467
v  -0.4523 4.4369 -61.2467
v  0.4523 4.9636 -62.4591
v  1.2528 2.2634 -102.1327
v  0.7044 2.8147 -103.1011
v  0.9665 3.5249 -103.1011
v  1.7164 3.0615 -102.1327
v  1.7189 3.9844 -102.1327
v  0.7081 4.2365 -103.1011
v  1.2595 4.7850 -102.1327
v  -0.0020 4.4986 -103.1011
v  0.4614 5.2486 -102.1327
v  0.4523 1.8040 -102.1327
v  -0.0072 2.5564 -103.1011
v  0.4614 1.8064 -62.3739
v  1.2595 2.2701 -62.3739
v  1.7189 3.0706 -62.3739
v  1.7164 3.9936 -62.3739
v  1.2528 4.7917 -62.3739
v  0.4523 5.2510 -62.3739
v  -0.0084 4.9549 -61.9970
v  -1.0523 4.5697 -61.9970
v  -1.4320 3.5237 -61.9970
v  1.0375 4.5752 -61.9970
v  -0.0008 2.1001 -61.9970
v  1.0431 2.4854 -61.9970
v  -1.0468 2.4798 -61.9970
v  -1.2621 2.2634 -62.3739
v  -1.7257 3.0615 -62.3739
v  -1.7281 3.9844 -62.3739
v  -1.2688 4.7850 -62.3739
v  1.4228 3.5313 -61.9970
v  -0.4615 1.8040 -62.3739
v  -0.4707 5.2486 -62.3739
v  -1.7281 3.0706 -102.1327
v  -0.9757 3.5301 -103.1011
v  -0.7174 2.8185 -103.1011
v  -1.2688 2.2701 -102.1327
v  -0.4707 1.8064 -102.1327
v  -1.7257 3.9936 -102.1327
v  -1.2621 4.7917 -102.1327
v  -0.4615 5.2510 -102.1327
v  -0.7136 4.2403 -103.1011
# 66 vertices

vn 0.0000 -1.0000 0.0015
vn 0.0000 -0.7061 0.7081
vn 0.0000 0.7081 0.7062
vn 0.0000 0.7061 -0.7081
vn 0.0000 0.7060 -0.7082
vn 0.0000 0.3756 -0.9268
vn 0.0000 0.9213 -0.3889
vn 0.0000 0.7071 -0.7071
vn 0.0000 0.0000 -1.0000
vn -1.0000 0.0000 -0.0000
vn -0.4921 -0.6248 0.6061
vn -0.6321 -0.3153 0.7079
vn -0.7778 -0.2029 0.5949
vn 0.7071 -0.5075 0.4924
vn 0.7072 -0.2877 0.6459
vn 0.7072 -0.2283 0.6692
vn 0.7071 -0.5396 0.4570
vn -0.7668 -0.4898 0.4148
vn -0.9163 -0.3598 0.1758
vn -1.0000 -0.0000 0.0000
vn 0.7071 -0.6353 0.3105
vn -1.0000 -0.0000 -0.0000
vn 1.0000 0.0000 0.0000
vn 1.0000 -0.0000 0.0000
vn 1.0000 0.0000 -0.0000
vn 0.6732 -0.6631 -0.3271
vn 0.5602 -0.5136 -0.6499
vn 0.7487 -0.0274 -0.6623
vn 0.9066 -0.2564 -0.3351
vn 0.9155 0.2430 -0.3207
vn 0.5136 0.5602 -0.6499
vn 0.6631 0.6732 -0.3271
vn 0.0770 0.7468 -0.6606
vn 0.2429 0.9112 -0.3327
vn 0.2289 -0.9197 -0.3189
vn 0.0198 -0.7450 -0.6668
vn 0.2703 -0.9212 0.2800
vn 0.6479 -0.6747 0.3536
vn 0.8935 -0.2422 0.3780
vn 0.8699 0.2665 0.4150
vn 0.6747 0.6479 0.3536
vn 0.2511 0.9335 0.2560
vn -0.0154 0.4507 0.8926
vn -0.3273 0.3788 0.8657
vn -0.4507 -0.0154 0.8926
vn 0.3788 0.3273 0.8657
vn 0.0154 -0.4507 0.8926
vn 0.3273 -0.3788 0.8657
vn -0.3788 -0.3273 0.8657
vn -0.6747 -0.6479 0.3536
vn -0.8699 -0.2665 0.4150
vn -0.8935 0.2422 0.3780
vn -0.6479 0.6747 0.3536
vn 0.4507 0.0154 0.8926
vn -0.2422 -0.8935 0.3780
vn -0.2665 0.8699 0.4150
vn -0.9155 -0.2430 -0.3207
vn -0.7487 0.0274 -0.6623
vn -0.5136 -0.5602 -0.6499
vn -0.6631 -0.6732 -0.3271
vn -0.2564 -0.9066 -0.3351
vn -0.9066 0.2564 -0.3351
vn -0.6732 0.6631 -0.3271
vn -0.2430 0.9155 -0.3207
vn -0.5602 0.5136 -0.6499
# 65 vertex normals

vt 0.4897 0.3169 0.3169
vt 0.4922 0.3145 0.3145
vt 0.4976 0.3145 0.3145
vt 0.4949 0.3169 0.3169
vt 0.4983 0.3296 0.3296
vt 0.3464 0.3296 0.3296
vt 0.3433 0.3262 0.3262
vt 0.4949 0.3267 0.3267
vt 0.4983 0.3203 0.3203
vt 0.3433 0.3208 0.3208
vt 0.3398 0.3276 0.3276
vt 0.3398 0.3218 0.3218
vt 0.3418 0.3188 0.3188
vt 0.3381 0.3208 0.3208
vt 0.3389 0.3188 0.3188
vt 0.3354 0.3208 0.3208
vt 0.3389 0.3169 0.3169
vt 0.3354 0.3188 0.3188
vt 0.4802 0.3164 0.3164
vt 0.4812 0.3062 0.3062
vt 0.4829 0.3076 0.3076
vt 0.4829 0.3120 0.3120
vt 0.4839 0.3032 0.3032
vt 0.4856 0.3052 0.3052
vt 0.4858 0.3096 0.3096
vt 0.4875 0.3120 0.3120
vt 0.4846 0.3145 0.3145
vt 1.3428 0.3262 0.3262
vt 1.4941 0.3267 0.3267
vt 1.4795 0.3164 0.3164
vt 1.3428 0.3203 0.3203
vt 1.3418 0.3188 0.3188
vt 1.3389 0.3169 0.3169
vt 1.3389 0.3188 0.3188
vt 1.4893 0.3169 0.3169
vt 1.4941 0.3169 0.3169
vt 1.4844 0.3145 0.3145
vt 1.4824 0.3120 0.3120
vt 1.4824 0.3076 0.3076
vt 1.4805 0.3062 0.3062
vt 1.2666 0.3267 0.3267
vt 1.2666 0.3320 0.3320
vt 1.2715 0.3320 0.3320
vt 1.2695 0.3267 0.3267
vt 1.2725 0.3267 0.3267
vt 1.2764 0.3320 0.3320
vt 1.2764 0.3267 0.3267
vt 1.2813 0.3320 0.3320
vt 1.2793 0.3267 0.3267
vt 1.2627 0.3267 0.3267
vt 1.2617 0.3320 0.3320
vt 1.2627 0.1816 0.1816
vt 1.2666 0.1816 0.1816
vt 1.2695 0.1816 0.1816
vt 1.2725 0.1816 0.1816
vt 1.2764 0.1816 0.1816
vt 1.2793 0.1816 0.1816
vt 0.3970 0.0391 0.0391
vt 0.3955 0.0430 0.0430
vt 0.3916 0.0444 0.0444
vt 0.3955 0.0352 0.0352
vt 0.3862 0.0391 0.0391
vt 0.3877 0.0352 0.0352
vt 0.3877 0.0430 0.0430
vt 0.3862 0.0444 0.0444
vt 0.3899 0.0464 0.0464
vt 0.3933 0.0464 0.0464
vt 0.3970 0.0444 0.0444
vt 0.3916 0.0337 0.0337
vt 0.3843 0.0371 0.0371
vt 0.3862 0.0337 0.0337
vt 0.3843 0.0405 0.0405
vt 0.3989 0.0410 0.0410
vt 0.3989 0.0376 0.0376
vt 0.3970 0.0337 0.0337
vt 0.3933 0.0317 0.0317
vt 0.3899 0.0317 0.0317
vt 0.2698 0.3267 0.3267
vt 0.2715 0.3320 0.3320
vt 0.2666 0.3320 0.3320
vt 0.2666 0.3267 0.3267
vt 0.2617 0.3320 0.3320
vt 0.2634 0.3267 0.3267
vt 0.2600 0.3267 0.3267
vt 0.2600 0.1816 0.1816
vt 0.2634 0.1816 0.1816
vt 0.2666 0.1816 0.1816
vt 0.2698 0.1816 0.1816
vt 0.2732 0.1816 0.1816
vt 0.2732 0.3267 0.3267
vt 0.2764 0.1816 0.1816
vt 0.2764 0.3267 0.3267
vt 0.2795 0.1816 0.1816
vt 0.2795 0.3267 0.3267
vt 0.2830 0.1816 0.1816
vt 0.2830 0.3267 0.3267
vt 0.2813 0.3320 0.3320
vt 0.2764 0.3320 0.3320
vt 1.3867 0.0200 0.0200
vt 1.3887 0.0161 0.0161
vt 1.3926 0.0146 0.0146
vt 1.3965 0.0161 0.0161
vt 1.3975 0.0200 0.0200
vt 1.3887 0.0239 0.0239
vt 1.3965 0.0239 0.0239
vt 1.3926 0.0254 0.0254
# 106 texture coords

o acc5
g acc5
usemtl mat_sniper_rifle_INST
s 1
f 1/1/1 2/2/1 3/3/2 
f 3/3/2 4/4/2 1/1/1 
f 5/5/3 6/6/4 7/7/5 
f 7/7/5 8/8/3 5/5/3 
f 3/9/2 5/5/3 8/8/3 
f 8/8/3 4/4/2 3/9/2 
f 9/10/6 7/7/5 6/11/4 
f 6/11/4 10/12/6 9/10/6 
f 11/13/7 9/10/6 10/12/6 
f 10/12/6 12/14/7 11/13/7 
f 13/15/8 11/13/7 12/14/7 
f 12/14/7 14/16/8 13/15/8 
f 15/17/9 13/15/8 14/16/8 
f 14/16/8 16/18/9 15/17/9 
f 17/19/10 18/20/11 19/21/12 
f 19/21/12 20/22/13 17/19/10 
f 18/20/11 21/23/14 22/24/15 
f 22/24/15 19/21/12 18/20/11 
f 19/21/12 22/24/15 23/25/16 
f 23/25/16 20/22/13 19/21/12 
f 20/22/13 23/25/16 24/26/17 
f 24/26/17 25/27/18 20/22/13 
f 17/19/10 20/22/13 25/27/18 
f 17/19/10 25/27/18 1/1/19 
f 17/19/10 1/1/19 8/8/10 
f 8/8/10 1/1/19 4/4/20 
f 2/2/21 1/1/19 25/27/18 
f 25/27/18 24/26/17 2/2/21 
f 11/13/22 13/15/10 15/17/10 
f 11/13/22 15/17/10 17/19/10 
f 11/13/22 17/19/10 9/10/22 
f 7/7/22 9/10/22 17/19/10 
f 17/19/10 8/8/10 7/7/22 
f 6/28/23 5/29/23 26/30/24 
f 26/30/24 10/31/23 6/28/23 
f 12/32/23 10/31/23 26/30/24 
f 12/32/23 26/30/24 16/33/23 
f 12/32/23 16/33/23 14/34/23 
f 2/35/21 5/29/23 3/36/25 
f 26/30/24 5/29/23 2/35/21 
f 26/30/24 2/35/21 24/37/17 
f 26/30/24 24/37/17 23/38/16 
f 26/30/24 23/38/16 22/39/15 
f 22/39/15 21/40/14 26/30/24 
f 27/41/26 28/42/27 29/43/28 
f 29/43/28 30/44/29 27/41/26 
f 30/44/29 29/43/28 31/45/30 
f 31/45/30 29/43/28 32/46/31 
f 32/46/31 33/47/32 31/45/30 
f 33/47/32 32/46/31 34/48/33 
f 34/48/33 35/49/34 33/47/32 
f 36/50/35 37/51/36 28/42/27 
f 28/42/27 27/41/26 36/50/35 
f 38/52/37 36/50/35 27/41/26 
f 27/41/26 39/53/38 38/52/37 
f 39/53/38 27/41/26 30/44/29 
f 30/44/29 40/54/39 39/53/38 
f 40/54/39 30/44/29 31/45/30 
f 31/45/30 41/55/40 40/54/39 
f 41/55/40 31/45/30 33/47/32 
f 33/47/32 42/56/41 41/55/40 
f 42/56/41 33/47/32 35/49/34 
f 35/49/34 43/57/42 42/56/41 
f 44/58/43 45/59/44 46/60/45 
f 47/61/46 48/62/47 49/63/48 
f 47/61/46 44/58/43 48/62/47 
f 48/62/47 44/58/43 50/64/49 
f 44/58/43 46/60/45 50/64/49 
f 51/65/50 50/64/49 46/60/45 
f 46/60/45 52/66/51 51/65/50 
f 52/66/51 46/60/45 53/67/52 
f 53/67/52 46/60/45 45/59/44 
f 45/59/44 54/68/53 53/67/52 
f 54/68/53 45/59/44 44/58/43 
f 55/69/54 47/61/46 49/63/48 
f 48/62/47 38/70/37 39/71/38 
f 38/70/37 48/62/47 56/72/55 
f 56/72/55 48/62/47 50/64/49 
f 50/64/49 51/65/50 56/72/55 
f 44/58/43 57/73/56 54/68/53 
f 57/73/56 44/58/43 43/74/42 
f 43/74/42 44/58/43 47/61/46 
f 47/61/46 42/75/41 43/74/42 
f 42/75/41 47/61/46 55/69/54 
f 55/69/54 41/76/40 42/75/41 
f 41/76/40 55/69/54 40/77/39 
f 40/77/39 55/69/54 49/63/48 
f 49/63/48 39/71/38 40/77/39 
f 39/71/38 49/63/48 48/62/47 
f 58/78/57 59/79/58 60/80/59 
f 60/80/59 61/81/60 58/78/57 
f 61/81/60 60/80/59 37/82/36 
f 37/82/36 62/83/61 61/81/60 
f 62/83/61 37/82/36 36/84/35 
f 36/84/35 38/85/37 56/86/55 
f 56/86/55 62/83/61 36/84/35 
f 62/83/61 56/86/55 51/87/50 
f 51/87/50 61/81/60 62/83/61 
f 61/81/60 51/87/50 52/88/51 
f 52/88/51 58/78/57 61/81/60 
f 58/78/57 52/88/51 53/89/52 
f 53/89/52 63/90/62 58/78/57 
f 63/90/62 53/89/52 54/91/53 
f 54/91/53 64/92/63 63/90/62 
f 64/92/63 54/91/53 57/93/56 
f 57/93/56 65/94/64 64/92/63 
f 65/94/64 57/93/56 43/95/42 
f 43/95/42 35/96/34 65/94/64 
f 35/96/34 34/97/33 65/94/64 
f 65/94/64 34/97/33 66/98/65 
f 66/98/65 64/92/63 65/94/64 
f 64/92/63 66/98/65 59/79/58 
f 59/79/58 63/90/62 64/92/63 
f 63/90/62 59/79/58 58/78/57 
f 34/99/9 32/100/9 29/101/9 
f 34/99/9 29/101/9 28/102/9 
f 37/103/9 34/99/9 28/102/9 
f 66/104/9 34/99/9 37/103/9 
f 66/104/9 37/103/9 60/105/9 
f 59/106/9 66/104/9 60/105/9 
# 0 polygons - 120 triangles

