# 3ds Max Wavefront OBJ Exporter v0.99 - (c)2007 guruware
# File Created: 28.08.2021 13:03:46

mtllib grip4.mtl

#
# object grip4
#

v  1.5405 -7.5694 5.0052
v  -1.5405 -7.5694 5.0052
v  -1.0722 -7.1346 6.5798
v  1.0722 -7.1346 6.5798
v  -1.5071 1.8962 7.2024
v  -1.5071 1.8962 4.4133
v  -1.5071 -0.1033 5.2900
v  -0.6452 1.8962 3.1583
v  -0.6452 -0.3147 3.1693
v  -0.5349 -0.6366 3.9343
v  0.0000 -0.6037 3.8401
v  0.6452 -0.3147 3.1693
v  -1.3056 -1.0197 5.9542
v  -0.4428 -1.6598 4.3840
v  0.0000 -1.6356 4.2633
v  0.0000 -2.4108 4.0111
v  -0.3195 -2.3215 4.1912
v  -0.3461 -2.9516 4.3851
v  -0.5312 -3.0218 4.8812
v  -1.5071 -2.9299 7.1043
v  -1.4372 -2.3200 8.8932
v  -1.2736 -0.5814 7.7523
v  -1.5071 -4.6655 10.4189
v  -1.5071 -5.4581 7.7883
v  -0.5771 -5.1906 5.8505
v  -0.9657 -6.4638 6.0992
v  -1.5507 -6.7974 7.8586
v  -1.5511 -5.9055 11.2488
v  -0.9167 -4.9860 12.1247
v  -1.0330 -3.4618 11.6486
v  -0.9556 -2.2545 10.7922
v  -0.6639 -1.3671 9.8110
v  -0.8333 -5.4437 12.9911
v  -0.0000 -5.1901 13.6034
v  -0.0000 -4.6391 13.2949
v  -0.8671 -4.9459 12.5888
v  -0.0000 -4.8141 12.5994
v  -0.0000 -3.1521 12.3973
v  -0.0000 -2.0573 11.7027
v  -0.0000 -0.9440 10.5913
v  -0.0000 -0.0359 9.6310
v  -0.6425 -0.2196 8.9082
v  -0.0000 1.2660 9.0439
v  -0.7316 0.8764 8.4116
v  -0.0000 1.8962 8.5109
v  -0.8485 1.8962 8.2855
v  -1.4788 0.4523 6.9997
v  -0.5717 -4.2415 5.4389
v  -0.3755 -4.6140 5.2164
v  -0.3772 -5.1335 5.4582
v  0.0000 -4.6253 5.0758
v  0.0000 -5.1378 5.3053
v  0.0000 -5.2942 5.7531
v  0.0000 -4.2479 5.2245
v  0.0000 -3.1887 4.7239
v  0.0000 -2.9936 4.2024
v  0.9657 -6.4638 6.0992
v  1.4460 0.3540 -32.8212
v  -1.4460 0.3540 -32.8212
v  -1.4261 1.7933 -56.4136
v  1.4261 1.7933 -56.4136
v  0.6452 1.8962 3.1583
v  -0.0000 -4.8989 14.6724
v  -1.1878 -5.1470 14.1928
v  -2.2069 -5.8077 11.7002
v  -2.2069 -7.0791 6.8687
v  0.5349 -0.6366 3.9343
v  1.5071 -0.1033 5.2900
v  1.5071 1.8962 4.4133
v  1.5071 1.8962 7.2024
v  1.3056 -1.0197 5.9542
v  1.4788 0.4523 6.9997
v  0.4428 -1.6598 4.3840
v  0.3195 -2.3215 4.1912
v  0.3461 -2.9516 4.3851
v  0.5312 -3.0218 4.8812
v  0.5717 -4.2415 5.4389
v  0.3755 -4.6140 5.2164
v  1.5071 -2.9299 7.1043
v  0.5771 -5.1906 5.8505
v  0.3772 -5.1335 5.4582
v  1.2736 -0.5814 7.7523
v  1.4372 -2.3200 8.8932
v  1.5071 -5.4581 7.7883
v  1.5071 -4.6655 10.4189
v  0.9556 -2.2545 10.7922
v  0.6639 -1.3671 9.8110
v  0.6425 -0.2196 8.9082
v  0.7316 0.8764 8.4116
v  1.0330 -3.4618 11.6486
v  0.8485 1.8962 8.2855
v  2.5164 4.2189 -32.1000
v  2.2199 4.9187 -32.1000
v  -2.2199 4.9187 -32.1000
v  -1.3759 0.6793 -32.1000
v  1.3759 0.6793 -32.1000
v  2.1240 1.6534 -32.1000
v  -2.1240 1.6534 -32.1000
v  2.5779 3.2097 -32.1000
v  -2.5779 3.2097 -32.1000
v  -2.5164 4.2189 -32.1000
v  -2.4978 5.1890 -32.8212
v  2.4979 5.1890 -32.8212
v  -1.6882 0.4809 -32.8212
v  -2.4008 1.5225 -32.8212
v  -2.9107 3.2717 -32.8212
v  -2.8340 4.4061 -32.8212
v  2.8340 4.4061 -32.8212
v  2.9107 3.2717 -32.8212
v  2.4008 1.5225 -32.8212
v  1.6882 0.4809 -32.8212
v  0.9167 -4.9860 12.1247
v  0.8333 -5.4437 12.9911
v  1.5511 -5.9055 11.2488
v  0.8671 -4.9459 12.5888
v  1.5507 -6.7974 7.8586
v  -1.8423 5.1890 -56.8406
v  1.8423 5.1890 -56.8406
v  2.1591 4.7429 -57.0212
v  -2.1591 4.7429 -57.0212
v  2.4349 3.9445 -57.0740
v  -2.4349 3.9445 -57.0740
v  2.0873 2.7098 -56.8934
v  -2.0873 2.7098 -56.8934
v  1.6552 1.9306 -56.4855
v  -1.6552 1.9306 -56.4855
v  -1.5405 -8.4309 5.2483
v  -2.2069 -9.1659 7.4577
v  -2.2069 -7.8946 12.2892
v  -1.1878 -7.2338 14.7818
v  -0.0000 -7.0982 15.1575
v  1.1878 -5.1470 14.1928
v  1.1878 -7.2338 14.7818
v  2.2069 -7.8946 12.2892
v  2.2069 -5.8077 11.7002
v  2.2069 -9.1659 7.4577
v  2.2069 -7.0791 6.8687
v  1.5405 -8.4309 5.2483
# 138 vertices

vn 0.3741 0.6085 -0.6998
vn -0.3741 0.6085 -0.6998
vn -0.3340 0.7592 -0.5587
vn 0.4183 0.5682 -0.7086
vn -0.9581 -0.0418 0.2832
vn -0.9526 -0.0517 -0.2997
vn -0.9536 -0.2396 -0.1826
vn -0.4658 -0.0044 -0.8849
vn -0.3520 -0.3869 -0.8523
vn -0.5086 -0.6862 -0.5201
vn 0.0194 -0.7270 -0.6863
vn 0.3093 -0.5837 -0.7507
vn -0.9670 -0.1664 -0.1931
vn -0.7058 -0.1409 -0.6942
vn 0.0000 -0.0523 -0.9986
vn 0.0000 -0.0549 -0.9985
vn -0.7157 -0.0286 -0.6978
vn -0.6651 -0.5273 -0.5288
vn -0.7936 -0.3137 -0.5214
vn -0.9812 -0.0283 -0.1908
vn -0.9673 0.1994 0.1565
vn -0.9664 0.1141 0.2306
vn -0.9847 0.0965 0.1453
vn -0.9816 0.0046 -0.1908
vn -0.7364 -0.2430 -0.6314
vn -0.5805 -0.2414 -0.7776
vn -0.6785 0.6655 -0.3111
vn -0.6475 0.7614 -0.0309
vn -0.8364 0.3548 0.4178
vn -0.8247 0.2441 0.5102
vn -0.8253 0.4183 0.3793
vn -0.8146 0.4628 0.3497
vn -0.5261 0.8375 0.1478
vn -0.0000 0.9538 0.3004
vn -0.0000 0.8619 0.5071
vn -0.7423 0.6484 0.1692
vn -0.0000 0.9021 0.4315
vn -0.0000 0.3714 0.9285
vn -0.0000 0.6310 0.7758
vn -0.0000 0.7746 0.6325
vn -0.0000 0.5668 0.8239
vn -0.8182 0.2850 0.4993
vn -0.0000 0.5168 0.8561
vn -0.7774 0.1475 0.6115
vn -0.0000 0.3441 0.9389
vn -0.6297 0.0238 0.7764
vn -0.9775 -0.0463 0.2058
vn -0.7637 -0.1509 -0.6277
vn -0.5803 -0.0578 -0.8123
vn -0.5284 -0.6389 -0.5592
vn 0.0000 -0.0293 -0.9996
vn 0.0000 -0.6929 -0.7210
vn 0.0365 -0.6804 -0.7319
vn 0.0000 -0.0335 -0.9994
vn 0.0000 -0.7468 -0.6650
vn 0.0000 -0.6494 -0.7605
vn 0.5415 -0.2654 -0.7977
vn 0.2373 -0.9656 0.1060
vn -0.2374 -0.9656 0.1060
vn -0.1941 -0.9012 -0.3876
vn 0.1940 -0.9012 -0.3876
vn 0.4658 -0.0044 -0.8849
vn -0.0000 0.8781 0.4786
vn -0.5396 0.7876 0.2975
vn -0.7033 0.7092 -0.0494
vn -0.7057 0.6442 -0.2950
vn 0.5086 -0.6862 -0.5201
vn 0.9536 -0.2396 -0.1826
vn 0.9526 -0.0517 -0.2997
vn 0.9581 -0.0418 0.2832
vn 0.9670 -0.1664 -0.1931
vn 0.9775 -0.0463 0.2058
vn 0.7058 -0.1409 -0.6942
vn 0.7157 -0.0286 -0.6978
vn 0.6651 -0.5273 -0.5288
vn 0.7936 -0.3137 -0.5214
vn 0.7637 -0.1509 -0.6277
vn 0.5803 -0.0578 -0.8123
vn 0.9812 -0.0283 -0.1908
vn 0.7364 -0.2430 -0.6314
vn 0.5284 -0.6389 -0.5592
vn 0.9663 0.1141 0.2306
vn 0.9673 0.1994 0.1565
vn 0.9816 0.0046 -0.1908
vn 0.9847 0.0965 0.1453
vn 0.8253 0.4183 0.3793
vn 0.8146 0.4628 0.3497
vn 0.8182 0.2850 0.4993
vn 0.7774 0.1475 0.6115
vn 0.8247 0.2441 0.5102
vn 0.6297 0.0238 0.7764
vn 0.5552 0.1227 0.8226
vn 0.3234 0.5435 0.7746
vn -0.3244 0.5433 0.7743
vn -0.2591 -0.5537 0.7914
vn 0.2591 -0.5537 0.7914
vn 0.5294 -0.2568 0.8086
vn -0.5294 -0.2568 0.8086
vn 0.5787 -0.0733 0.8122
vn -0.5794 -0.0722 0.8118
vn -0.5565 0.1223 0.8218
vn -0.5496 0.8020 0.2338
vn 0.5503 0.8174 0.1705
vn -0.6494 -0.7346 0.1968
vn -0.8879 -0.4217 0.1839
vn -0.9747 -0.1012 0.1995
vn -0.9476 0.2352 0.2163
vn 0.9478 0.2355 0.2151
vn 0.9748 -0.1021 0.1984
vn 0.8879 -0.4217 0.1839
vn 0.6494 -0.7345 0.1968
vn 0.8364 0.3548 0.4178
vn 0.5261 0.8375 0.1478
vn 0.6475 0.7614 -0.0309
vn 0.7423 0.6484 0.1692
vn 0.6785 0.6655 -0.3111
vn -0.3026 0.7617 -0.5729
vn 0.3516 0.8434 -0.4063
vn 0.6047 0.4181 -0.6779
vn -0.6047 0.4181 -0.6779
vn 0.6982 -0.0030 -0.7159
vn -0.6982 -0.0030 -0.7159
vn 0.6201 -0.4213 -0.6618
vn -0.6201 -0.4213 -0.6618
vn 0.4566 -0.6857 -0.5669
vn -0.4565 -0.6858 -0.5668
vn -0.5902 -0.5058 -0.6291
vn -0.6893 -0.7192 -0.0877
vn -0.6955 -0.6484 0.3097
vn -0.4878 -0.5427 0.6838
vn -0.0000 -0.2115 0.9774
vn 0.5396 0.7876 0.2975
vn 0.4878 -0.5427 0.6838
vn 0.6955 -0.6484 0.3097
vn 0.7033 0.7092 -0.0494
vn 0.6893 -0.7192 -0.0877
vn 0.7057 0.6442 -0.2950
vn 0.5902 -0.5058 -0.6291
# 138 vertex normals

vt 0.9761 0.4644 0.4644
vt 0.9761 0.4487 0.4487
vt 0.9678 0.4512 0.4512
vt 0.9678 0.4619 0.4619
vt 0.9512 0.4033 0.4033
vt 0.9644 0.4033 0.4033
vt 0.9600 0.4126 0.4126
vt 0.9702 0.4033 0.4033
vt 0.9702 0.4141 0.4141
vt 0.9663 0.4155 0.4155
vt 0.9697 0.4170 0.4170
vt 0.9731 0.4170 0.4170
vt 0.9570 0.4170 0.4170
vt 0.9644 0.4199 0.4199
vt 0.9683 0.4219 0.4219
vt 0.9673 0.4253 0.4253
vt 0.9653 0.4233 0.4233
vt 0.9644 0.4263 0.4263
vt 0.9619 0.4263 0.4263
vt 0.9517 0.4263 0.4263
vt 0.9434 0.4233 0.4233
vt 0.9487 0.4150 0.4150
vt 0.9360 0.4341 0.4341
vt 0.9482 0.4380 0.4380
vt 0.9575 0.4365 0.4365
vt 0.9565 0.4424 0.4424
vt 0.9541 0.4458 0.4458
vt 0.9482 0.4443 0.4443
vt 0.9321 0.4399 0.4399
vt 0.9282 0.4355 0.4355
vt 0.9302 0.4287 0.4287
vt 0.9346 0.4229 0.4229
vt 0.9390 0.4189 0.4189
vt 0.9243 0.4380 0.4380
vt 0.9204 0.4365 0.4365
vt 0.9219 0.4341 0.4341
vt 0.9258 0.4355 0.4355
vt 0.9238 0.4336 0.4336
vt 0.9258 0.4268 0.4268
vt 0.9292 0.4219 0.4219
vt 0.9351 0.4170 0.4170
vt 0.9399 0.4121 0.4121
vt 0.9434 0.4136 0.4136
vt 0.9424 0.4067 0.4067
vt 0.9453 0.4082 0.4082
vt 0.9424 0.4019 0.4019
vt 0.9463 0.4033 0.4033
vt 0.9521 0.4102 0.4102
vt 0.9595 0.4321 0.4321
vt 0.9604 0.4341 0.4341
vt 0.9595 0.4365 0.4365
vt 0.9639 0.4351 0.4351
vt 0.9629 0.4375 0.4375
vt 0.9629 0.4380 0.4380
vt 0.9644 0.4331 0.4331
vt 0.9658 0.4287 0.4287
vt 0.9663 0.4277 0.4277
vt 0.9653 0.4448 0.4448
vt 0.9653 0.4482 0.4482
vt 1.8809 0.6414 0.6414
vt 1.8809 0.6179 0.6179
vt 1.7686 0.6240 0.6240
vt 1.7686 0.6414 0.6414
vt 0.9258 0.4565 0.4565
vt 0.9312 0.4565 0.4565
vt 0.9346 0.4604 0.4604
vt 0.9282 0.4624 0.4624
vt 0.9414 0.4678 0.4678
vt 0.9434 0.4644 0.4644
vt 0.9663 0.4678 0.4678
vt 0.9609 0.4644 0.4644
vt 1.9658 0.4155 0.4155
vt 1.9697 0.4170 0.4170
vt 1.9697 0.4141 0.4141
vt 1.9600 0.4126 0.4126
vt 1.9639 0.4033 0.4033
vt 1.9512 0.4033 0.4033
vt 1.9697 0.4033 0.4033
vt 1.9570 0.4170 0.4170
vt 1.9521 0.4102 0.4102
vt 1.9639 0.4199 0.4199
vt 1.9678 0.4219 0.4219
vt 1.9668 0.4253 0.4253
vt 1.9648 0.4233 0.4233
vt 1.9639 0.4263 0.4263
vt 1.9619 0.4263 0.4263
vt 1.9590 0.4321 0.4321
vt 1.9600 0.4341 0.4341
vt 1.9639 0.4351 0.4351
vt 1.9639 0.4331 0.4331
vt 1.9658 0.4287 0.4287
vt 1.9658 0.4277 0.4277
vt 1.9512 0.4263 0.4263
vt 1.9570 0.4365 0.4365
vt 1.9590 0.4365 0.4365
vt 1.9629 0.4375 0.4375
vt 1.9629 0.4380 0.4380
vt 1.9561 0.4424 0.4424
vt 1.9482 0.4150 0.4150
vt 1.9434 0.4233 0.4233
vt 1.9482 0.4380 0.4380
vt 1.9355 0.4341 0.4341
vt 1.9346 0.4229 0.4229
vt 1.9385 0.4189 0.4189
vt 1.9434 0.4136 0.4136
vt 1.9453 0.4082 0.4082
vt 1.9297 0.4287 0.4287
vt 1.9346 0.4170 0.4170
vt 1.9395 0.4121 0.4121
vt 1.9424 0.4067 0.4067
vt 1.9424 0.4019 0.4019
vt 1.9463 0.4033 0.4033
vt 0.7305 0.6169 0.6169
vt 0.7324 0.6125 0.6125
vt 0.7603 0.6125 0.6125
vt 0.7549 0.6392 0.6392
vt 0.7378 0.6392 0.6392
vt 0.7329 0.6331 0.6331
vt 0.7598 0.6331 0.6331
vt 0.7300 0.6233 0.6233
vt 0.7627 0.6233 0.6233
vt 0.7622 0.6169 0.6169
vt 0.7637 0.6091 0.6091
vt 0.7290 0.6091 0.6091
vt 0.7563 0.6426 0.6426
vt 0.7578 0.6416 0.6416
vt 0.7627 0.6345 0.6345
vt 0.7666 0.6223 0.6223
vt 0.7661 0.6145 0.6145
vt 0.7266 0.6145 0.6145
vt 0.7261 0.6223 0.6223
vt 0.7300 0.6345 0.6345
vt 0.7349 0.6416 0.6416
vt 0.7363 0.6426 0.6426
vt 1.9277 0.4355 0.4355
vt 1.9238 0.4380 0.4380
vt 1.9316 0.4399 0.4399
vt 1.9258 0.4355 0.4355
vt 1.9238 0.4336 0.4336
vt 1.9219 0.4341 0.4341
vt 1.9199 0.4365 0.4365
vt 1.9258 0.4268 0.4268
vt 1.9541 0.4458 0.4458
vt 1.9482 0.4443 0.4443
vt 1.9287 0.4219 0.4219
vt 1.7637 0.6091 0.6091
vt 1.7285 0.6091 0.6091
vt 1.7266 0.6145 0.6145
vt 1.7656 0.6145 0.6145
vt 1.7256 0.6223 0.6223
vt 1.7666 0.6223 0.6223
vt 1.7295 0.6345 0.6345
vt 1.7627 0.6345 0.6345
vt 1.7344 0.6416 0.6416
vt 1.7578 0.6416 0.6416
vt 1.7363 0.6426 0.6426
vt 1.7559 0.6426 0.6426
vt 1.8809 0.6633 0.6633
vt 1.8809 0.6641 0.6641
vt 1.7705 0.6572 0.6572
vt 1.7705 0.6565 0.6565
vt 1.8809 0.6584 0.6584
vt 1.7686 0.6528 0.6528
vt 1.8809 0.6504 0.6504
vt 1.7676 0.6472 0.6472
vt 1.8809 0.6450 0.6450
vt 1.7676 0.6433 0.6433
vt 0.7705 0.6565 0.6565
vt 0.7710 0.6572 0.6572
vt 0.8813 0.6641 0.6641
vt 0.8813 0.6633 0.6633
vt 0.8813 0.6584 0.6584
vt 0.7686 0.6528 0.6528
vt 0.8813 0.6504 0.6504
vt 0.7681 0.6472 0.6472
vt 0.8813 0.6450 0.6450
vt 0.7681 0.6433 0.6433
vt 0.7690 0.6414 0.6414
vt 0.8813 0.6414 0.6414
vt 0.8809 0.6179 0.6179
vt 0.7686 0.6238 0.6238
vt 0.9526 0.4453 0.4453
vt 0.9614 0.4478 0.4478
vt 0.9604 0.4517 0.4517
vt 0.9502 0.4551 0.4551
vt 0.9302 0.4395 0.4395
vt 0.9272 0.4492 0.4492
vt 0.9185 0.4365 0.4365
vt 0.9155 0.4463 0.4463
vt 0.9102 0.4448 0.4448
vt 0.9136 0.4360 0.4360
vt 1.9180 0.4365 0.4365
vt 1.9131 0.4360 0.4360
vt 1.9102 0.4448 0.4448
vt 1.9150 0.4463 0.4463
vt 1.9268 0.4492 0.4492
vt 1.9297 0.4395 0.4395
vt 1.9502 0.4551 0.4551
vt 1.9521 0.4453 0.4453
vt 1.9600 0.4517 0.4517
vt 1.9609 0.4478 0.4478
vt 1.9658 0.4678 0.4678
vt 1.9756 0.4644 0.4644
vt 1.9678 0.4619 0.4619
vt 1.9609 0.4644 0.4644
vt 1.9434 0.4644 0.4644
vt 1.9414 0.4678 0.4678
vt 1.9346 0.4604 0.4604
vt 1.9277 0.4624 0.4624
vt 1.9258 0.4565 0.4565
vt 1.9307 0.4565 0.4565
vt 0.8813 0.4419 0.4419
vt 0.8823 0.4385 0.4385
vt 0.8823 0.4448 0.4448
vt 0.8887 0.4360 0.4360
vt 0.8887 0.4473 0.4473
vt 0.9014 0.4473 0.4473
vt 0.9014 0.4360 0.4360
vt 0.9058 0.4453 0.4453
vt 0.9058 0.4380 0.4380
vt 0.9082 0.4380 0.4380
vt 0.9082 0.4453 0.4453
# 222 texture coords

o grip4
g grip4
usemtl mat_sniper_rifle_INST
s 1
f 1/1/1 2/2/2 3/3/3 
f 3/3/3 4/4/4 1/1/1 
f 5/5/5 6/6/6 7/7/7 
f 6/6/6 8/8/8 9/9/9 
f 9/9/9 7/7/7 6/6/6 
f 7/7/7 9/9/9 10/10/10 
f 11/11/11 10/10/10 9/9/9 
f 11/11/11 9/9/9 12/12/12 
f 13/13/13 7/7/7 10/10/10 
f 10/10/10 14/14/14 13/13/13 
f 14/14/14 10/10/10 11/11/11 
f 11/11/11 15/15/15 14/14/14 
f 14/14/14 15/15/15 16/16/16 
f 16/16/16 17/17/17 14/14/14 
f 18/18/18 17/17/17 16/16/16 
f 14/14/14 17/17/17 18/18/18 
f 18/18/18 19/19/19 14/14/14 
f 14/14/14 19/19/19 20/20/20 
f 20/20/20 21/21/21 22/22/22 
f 23/23/23 21/21/21 20/20/20 
f 20/20/20 24/24/24 23/23/23 
f 25/25/25 24/24/24 20/20/20 
f 24/24/24 26/26/26 3/27/3 
f 3/27/3 27/28/27 24/24/24 
f 24/24/24 27/28/27 28/29/28 
f 28/29/28 23/23/23 24/24/24 
f 29/30/29 23/23/23 28/29/28 
f 29/30/29 30/31/30 23/23/23 
f 23/23/23 30/31/30 31/32/31 
f 31/32/31 21/21/21 23/23/23 
f 21/21/21 31/32/31 32/33/32 
f 22/22/22 21/21/21 32/33/32 
f 28/29/28 33/34/33 29/30/29 
f 33/34/33 34/35/34 35/36/35 
f 35/36/35 36/37/36 33/34/33 
f 29/30/29 33/34/33 36/37/36 
f 37/38/37 29/30/29 36/37/36 
f 29/30/29 37/38/37 38/39/38 
f 38/39/38 30/31/30 29/30/29 
f 30/31/30 38/39/38 39/40/39 
f 39/40/39 31/32/31 30/31/30 
f 31/32/31 39/40/39 40/41/40 
f 40/41/40 32/33/32 31/32/31 
f 36/37/36 35/36/35 37/38/37 
f 32/33/32 40/41/40 41/42/41 
f 41/42/41 42/43/42 32/33/32 
f 42/43/42 41/42/41 43/44/43 
f 43/44/43 44/45/44 42/43/42 
f 44/45/44 43/44/43 45/46/45 
f 45/46/45 46/47/46 44/45/44 
f 44/45/44 46/47/46 5/5/5 
f 5/5/5 47/48/47 44/45/44 
f 7/7/7 47/48/47 5/5/5 
f 47/48/47 7/7/7 13/13/13 
f 32/33/32 42/43/42 22/22/22 
f 22/22/22 42/43/42 44/45/44 
f 44/45/44 47/48/47 22/22/22 
f 13/13/13 22/22/22 47/48/47 
f 22/22/22 13/13/13 20/20/20 
f 20/20/20 13/13/13 14/14/14 
f 20/20/20 19/19/19 48/49/48 
f 20/20/20 48/49/48 25/25/25 
f 25/25/25 48/49/48 49/50/49 
f 49/50/49 50/51/50 25/25/25 
f 50/51/50 49/50/49 51/52/51 
f 51/52/51 52/53/52 50/51/50 
f 50/51/50 52/53/52 53/54/53 
f 53/54/53 25/25/25 50/51/50 
f 26/26/26 25/25/25 53/54/53 
f 26/26/26 24/24/24 25/25/25 
f 51/52/51 49/50/49 48/49/48 
f 48/49/48 54/55/54 51/52/51 
f 55/56/55 54/55/54 48/49/48 
f 48/49/48 19/19/19 55/56/55 
f 55/56/55 19/19/19 18/18/18 
f 18/18/18 56/57/56 55/56/55 
f 16/16/16 56/57/56 18/18/18 
f 26/26/26 53/54/53 57/58/57 
f 3/27/3 26/26/26 57/58/57 
f 57/58/57 4/59/4 3/27/3 
f 58/60/58 59/61/59 60/62/60 
f 60/62/60 61/63/61 58/60/58 
f 9/7/9 8/6/8 62/8/62 
f 62/8/62 12/9/12 9/7/9 
f 63/64/63 34/65/34 33/66/33 
f 33/66/33 64/67/64 63/64/63 
f 65/68/65 64/67/64 33/66/33 
f 33/66/33 28/69/28 65/68/65 
f 66/70/66 65/68/65 28/69/28 
f 28/69/28 27/71/27 66/70/66 
f 66/70/66 27/71/27 3/4/3 
f 3/4/3 2/1/2 66/70/66 
f 67/72/67 11/73/11 12/74/12 
f 68/75/68 67/72/67 12/74/12 
f 69/76/69 68/75/68 12/74/12 
f 68/75/68 69/76/69 70/77/70 
f 12/74/12 62/78/62 69/76/69 
f 71/79/71 68/75/68 72/80/72 
f 67/72/67 68/75/68 71/79/71 
f 71/79/71 73/81/73 67/72/67 
f 11/73/11 67/72/67 73/81/73 
f 73/81/73 15/82/15 11/73/11 
f 16/83/16 15/82/15 73/81/73 
f 73/81/73 74/84/74 16/83/16 
f 16/83/16 74/84/74 75/85/75 
f 75/85/75 74/84/74 73/81/73 
f 73/81/73 76/86/76 75/85/75 
f 77/87/77 78/88/78 51/89/51 
f 51/89/51 54/90/54 77/87/77 
f 77/87/77 54/90/54 55/91/55 
f 55/91/55 76/86/76 77/87/77 
f 75/85/75 76/86/76 55/91/55 
f 55/91/55 56/92/56 75/85/75 
f 75/85/75 56/92/56 16/83/16 
f 79/93/79 76/86/76 73/81/73 
f 79/93/79 77/87/77 76/86/76 
f 80/94/80 77/87/77 79/93/79 
f 78/88/78 77/87/77 80/94/80 
f 80/94/80 81/95/81 78/88/78 
f 51/89/51 78/88/78 81/95/81 
f 81/95/81 52/96/52 51/89/51 
f 53/97/53 52/96/52 81/95/81 
f 81/95/81 80/94/80 53/97/53 
f 53/97/53 80/94/80 57/98/57 
f 82/99/82 83/100/83 79/93/79 
f 57/98/57 80/94/80 84/101/84 
f 79/93/79 84/101/84 80/94/80 
f 85/102/85 84/101/84 79/93/79 
f 79/93/79 83/100/83 85/102/85 
f 85/102/85 83/100/83 86/103/86 
f 83/100/83 87/104/87 86/103/86 
f 87/104/87 83/100/83 82/99/82 
f 82/99/82 88/105/88 87/104/87 
f 89/106/89 88/105/88 82/99/82 
f 82/99/82 72/80/72 89/106/89 
f 72/80/72 82/99/82 71/79/71 
f 79/93/79 71/79/71 82/99/82 
f 73/81/73 71/79/71 79/93/79 
f 86/103/86 90/107/90 85/102/85 
f 86/103/86 87/104/87 40/108/40 
f 41/109/41 40/108/40 87/104/87 
f 87/104/87 88/105/88 41/109/41 
f 43/110/43 41/109/41 88/105/88 
f 88/105/88 89/106/89 43/110/43 
f 45/111/45 43/110/43 89/106/89 
f 89/106/89 91/112/91 45/111/45 
f 70/77/70 91/112/91 89/106/89 
f 89/106/89 72/80/72 70/77/70 
f 70/77/70 72/80/72 68/75/68 
f 92/113/92 93/114/93 94/115/94 
f 95/116/95 96/117/96 97/118/97 
f 97/118/97 98/119/98 95/116/95 
f 98/119/98 97/118/97 99/120/99 
f 99/120/99 100/121/100 98/119/98 
f 100/121/100 99/120/99 92/113/92 
f 92/113/92 101/122/101 100/121/100 
f 94/115/94 101/122/101 92/113/92 
f 101/122/101 94/115/94 102/123/102 
f 103/124/103 102/123/102 94/115/94 
f 94/115/94 93/114/93 103/124/103 
f 96/117/96 95/116/95 59/125/59 
f 104/126/104 59/125/59 95/116/95 
f 104/126/104 95/116/95 98/119/98 
f 98/119/98 105/127/105 104/126/104 
f 105/127/105 98/119/98 100/121/100 
f 100/121/100 106/128/106 105/127/105 
f 107/129/107 106/128/106 100/121/100 
f 100/121/100 101/122/101 107/129/107 
f 102/123/102 107/129/107 101/122/101 
f 108/130/108 103/124/103 93/114/93 
f 93/114/93 92/113/92 108/130/108 
f 109/131/109 108/130/108 92/113/92 
f 92/113/92 99/120/99 109/131/109 
f 110/132/110 109/131/109 99/120/99 
f 99/120/99 97/118/97 110/132/110 
f 111/133/111 110/132/110 97/118/97 
f 97/118/97 96/117/96 111/133/111 
f 96/117/96 58/134/58 111/133/111 
f 59/125/59 58/134/58 96/117/96 
f 112/135/112 113/136/113 114/137/114 
f 112/135/112 115/138/115 113/136/113 
f 115/138/115 112/135/112 37/139/37 
f 37/139/37 35/140/35 115/138/115 
f 113/136/113 115/138/115 35/140/35 
f 35/140/35 34/141/34 113/136/113 
f 38/142/38 37/139/37 112/135/112 
f 4/143/4 57/98/57 84/101/84 
f 84/101/84 116/144/116 4/143/4 
f 114/137/114 116/144/116 84/101/84 
f 84/101/84 85/102/85 114/137/114 
f 114/137/114 85/102/85 112/135/112 
f 112/135/112 85/102/85 90/107/90 
f 112/135/112 90/107/90 38/142/38 
f 39/145/39 38/142/38 90/107/90 
f 90/107/90 86/103/86 39/145/39 
f 40/108/40 39/145/39 86/103/86 
f 117/146/117 118/147/118 119/148/119 
f 119/148/119 120/149/120 117/146/117 
f 120/149/120 119/148/119 121/150/121 
f 121/150/121 122/151/122 120/149/120 
f 122/151/122 121/150/121 123/152/123 
f 123/152/123 124/153/124 122/151/122 
f 124/153/124 123/152/123 125/154/125 
f 125/154/125 126/155/126 124/153/124 
f 126/155/126 125/154/125 61/156/61 
f 61/156/61 60/157/60 126/155/126 
f 111/158/111 58/159/58 61/160/61 
f 61/160/61 125/161/125 111/158/111 
f 110/162/110 111/158/111 125/161/125 
f 125/161/125 123/163/123 110/162/110 
f 109/164/109 110/162/110 123/163/123 
f 123/163/123 121/165/121 109/164/109 
f 108/166/108 109/164/109 121/165/121 
f 121/165/121 119/167/119 108/166/108 
f 108/166/108 119/167/119 118/63/118 
f 118/63/118 103/60/103 108/166/108 
f 126/168/126 60/169/60 59/170/59 
f 59/170/59 104/171/104 126/168/126 
f 126/168/126 104/171/104 105/172/105 
f 105/172/105 124/173/124 126/168/126 
f 124/173/124 105/172/105 106/174/106 
f 106/174/106 122/175/122 124/173/124 
f 122/175/122 106/174/106 107/176/107 
f 107/176/107 120/177/120 122/175/122 
f 117/178/117 120/177/120 107/176/107 
f 107/176/107 102/179/102 117/178/117 
f 117/178/117 102/179/102 103/180/103 
f 103/180/103 118/181/118 117/178/117 
f 66/182/66 2/183/2 127/184/127 
f 127/184/127 128/185/128 66/182/66 
f 65/186/65 66/182/66 128/185/128 
f 128/185/128 129/187/129 65/186/65 
f 64/188/64 65/186/65 129/187/129 
f 129/187/129 130/189/130 64/188/64 
f 64/188/64 130/189/130 131/190/131 
f 131/190/131 63/191/63 64/188/64 
f 132/192/132 63/193/63 131/194/131 
f 131/194/131 133/195/133 132/192/132 
f 132/192/132 133/195/133 134/196/134 
f 134/196/134 135/197/135 132/192/132 
f 135/197/135 134/196/134 136/198/136 
f 136/198/136 137/199/137 135/197/135 
f 137/199/137 136/198/136 138/200/138 
f 138/200/138 1/201/1 137/199/137 
f 137/202/137 1/203/1 4/204/4 
f 4/204/4 116/205/116 137/202/137 
f 137/202/137 116/205/116 114/206/114 
f 114/206/114 135/207/135 137/202/137 
f 135/207/135 114/206/114 113/208/113 
f 113/208/113 132/209/132 135/207/135 
f 63/210/63 132/209/132 113/208/113 
f 113/208/113 34/211/34 63/210/63 
f 131/212/131 130/213/130 133/214/133 
f 133/214/133 130/213/130 129/215/129 
f 129/215/129 134/216/134 133/214/133 
f 136/217/136 134/216/134 129/215/129 
f 129/215/129 128/218/128 136/217/136 
f 138/219/138 136/217/136 128/218/128 
f 128/218/128 127/220/127 138/219/138 
f 138/219/138 127/220/127 2/221/2 
f 2/221/2 1/222/1 138/219/138 
# 0 polygons - 261 triangles

