# 3ds Max Wavefront OBJ Exporter v0.99 - (c)2007 guruware
# File Created: 28.08.2021 13:03:05

mtllib grip3.mtl

#
# object grip3
#

v  -0.3561 1.7446 -45.6301
v  0.5725 1.7446 -45.6301
v  0.5725 1.7446 -34.4761
v  -1.7742 4.4326 -39.5006
v  -1.7742 4.4326 -57.0505
v  -1.7742 3.4501 -57.0505
v  -1.7742 3.4501 -37.5119
v  -1.6800 2.8139 -56.3792
v  -1.6800 2.8139 -32.6107
v  -1.4743 2.3751 -54.7739
v  -1.4743 2.3751 -32.4509
v  -1.0371 1.9367 -51.4974
v  -1.0371 1.9367 -32.4509
v  -0.3561 1.7446 -34.4761
v  1.2536 1.9367 -32.4509
v  1.6907 2.3751 -32.4509
v  1.8965 2.8139 -32.6107
v  1.9906 3.4501 -33.8633
v  -1.7742 3.4501 -33.8633
v  1.9906 3.4501 -37.5119
v  1.9906 4.4326 -39.5006
v  1.9906 4.4326 -57.0505
v  1.9906 3.4501 -57.0505
v  1.8965 2.8139 -56.3792
v  1.6907 2.3751 -54.7739
v  1.2536 1.9367 -51.4974
v  -0.0046 -1.1625 8.8423
v  -0.0046 -2.1655 9.7793
v  1.2093 -2.4766 8.9415
v  -0.0046 0.0418 8.4426
v  1.1215 -0.9166 8.2132
v  1.1953 -1.8724 7.4221
v  1.2561 -3.7981 9.2142
v  1.1091 -4.4341 10.6337
v  -0.0046 -4.0528 11.1015
v  -0.0046 -6.1650 11.5585
v  0.2091 -3.5536 6.0973
v  0.7222 -1.5760 6.2375
v  0.2425 -4.9538 6.5563
v  1.2555 -4.8498 10.2057
v  1.0680 -6.2070 11.1226
v  -0.0046 -7.6708 11.0833
v  0.8366 -7.8942 10.3123
v  1.2565 -6.4830 10.4665
v  0.7524 -8.1451 7.6886
v  0.3984 -8.3031 5.4820
v  0.4456 -7.9514 5.4589
v  0.2752 -6.6332 6.3600
v  1.2510 -7.4596 9.6777
v  0.6979 -8.3140 7.8055
v  -0.7071 -8.3140 7.8055
v  -0.8457 -7.8942 10.3123
v  -1.2601 -7.4596 9.6777
v  -0.7616 -8.1451 7.6886
v  -1.0893 -7.3522 9.4305
v  -1.1391 -6.3757 10.2193
v  -1.2656 -6.4830 10.4665
v  -1.0771 -6.2070 11.1226
v  -1.1182 -4.4341 10.6337
v  -1.2646 -4.8498 10.2057
v  -1.2652 -3.7981 9.2142
v  -1.2185 -2.4766 8.9415
v  -0.4547 -7.9514 5.4589
v  -0.4075 -8.3031 5.4820
v  -0.2843 -6.6332 6.3600
v  -1.1223 -5.0775 9.9667
v  -0.2516 -4.9538 6.5563
v  -1.0421 -4.0259 8.9752
v  -0.8769 -3.3951 7.1980
v  -0.2183 -3.5536 6.0973
v  -0.7706 -3.1489 6.2127
v  -0.3965 -2.5816 5.0753
v  -0.3416 -1.2503 5.5201
v  -0.7313 -1.5760 6.2375
v  -1.2845 -0.1716 4.5953
v  -1.0820 -3.0272 7.1063
v  -1.2044 -1.8724 7.4221
v  -1.4352 -0.7545 7.0012
v  -1.1771 -0.3633 5.3791
v  -1.0647 -0.0811 5.4743
v  -1.2196 -0.5585 6.9474
v  -1.1306 -0.9166 8.2132
v  -1.0105 0.0038 4.8547
v  -1.1205 0.4369 5.1823
v  -1.3140 0.9629 6.8676
v  -1.2234 0.1143 7.8769
v  -1.2838 1.2563 8.2186
v  -1.3045 -0.1716 3.1290
v  -1.3039 0.6521 5.0684
v  -1.3194 1.2907 6.7519
v  -1.3566 1.8478 8.0751
v  -0.0046 1.4225 8.7416
v  -0.7499 1.6420 8.9828
v  -0.7903 2.0465 8.8992
v  -1.2615 2.0460 7.9952
v  -1.3239 2.0457 6.6238
v  -1.3045 2.0454 3.1290
v  0.7408 1.6420 8.9828
v  0.7811 2.0465 8.8992
v  1.2948 0.6521 5.0684
v  1.2754 -0.1716 4.5953
v  1.2954 -0.1716 3.1290
v  1.2142 0.1143 7.8769
v  1.2747 1.2563 8.2186
v  1.3103 1.2907 6.7519
v  0.3325 -1.2503 5.5201
v  0.3874 -2.5816 5.0753
v  1.3475 1.8478 8.0751
v  1.2954 2.0454 3.1290
v  1.3148 2.0457 6.6238
v  1.2523 2.0460 7.9952
# 111 vertices

vn -0.1801 -0.9836 -0.0000
vn 0.1370 -0.9906 -0.0000
vn 0.1370 -0.9902 0.0259
vn -0.6593 0.7322 0.1710
vn -0.7071 0.7071 -0.0000
vn -0.9988 -0.0480 -0.0000
vn -0.8066 0.5697 0.1574
vn -0.9841 -0.1776 -0.0000
vn -0.7242 0.3269 0.6072
vn -0.8963 -0.4434 -0.0000
vn -0.6228 -0.2666 0.7356
vn -0.6944 -0.7196 -0.0000
vn -0.3137 -0.6973 0.6445
vn -0.1227 -0.9920 0.0288
vn 0.2963 -0.8113 0.5040
vn 0.6179 -0.2615 0.7415
vn 0.7655 0.2813 0.5786
vn 0.4810 0.8486 0.2201
vn -0.7107 0.6791 0.1834
vn 0.7495 0.6393 0.1720
vn 0.7071 0.6885 0.1610
vn 0.7071 0.7071 -0.0000
vn 0.9988 -0.0480 0.0000
vn 0.9841 -0.1776 0.0000
vn 0.8963 -0.4434 0.0000
vn 0.6944 -0.7196 0.0000
vn -0.0000 0.4650 0.8853
vn -0.0000 0.6454 0.7638
vn 0.8812 0.2925 0.3714
vn 0.0000 0.0324 0.9995
vn 0.8191 0.1925 0.5404
vn 0.9775 -0.1188 -0.1744
vn 0.9938 -0.0824 -0.0742
vn 0.7629 0.2672 0.5888
vn 0.0000 0.4141 0.9102
vn 0.0000 -0.0244 0.9997
vn 0.9123 -0.1766 -0.3694
vn 0.8743 -0.3006 -0.3812
vn 0.9483 -0.0777 -0.3078
vn 0.9991 0.0211 0.0381
vn 0.7107 -0.0651 0.7005
vn 0.0000 -0.4321 0.9018
vn 0.7779 -0.4554 0.4330
vn 0.9857 -0.1063 0.1304
vn 0.9785 -0.1511 -0.1407
vn 0.9790 -0.1412 -0.1470
vn 0.9847 -0.0088 -0.1741
vn 0.9526 0.1802 -0.2450
vn 0.9794 -0.2003 -0.0260
vn 0.9052 -0.4179 -0.0767
vn 0.0000 0.0000 -1.0000
vn 0.0000 -0.3951 -0.9186
vn 0.0000 -0.3818 -0.9242
vn 0.0000 -0.8624 -0.5062
vn -0.0000 -0.8624 -0.5062
vn -0.0000 -0.9790 -0.2039
vn -0.0000 -0.9962 -0.0867
vn 0.0000 -0.9962 -0.0867
vn 0.0000 -0.9995 -0.0327
vn -0.9052 -0.4179 -0.0767
vn -0.7779 -0.4554 0.4330
vn -0.9848 -0.1562 -0.0753
vn -0.9832 -0.1160 -0.1409
vn -0.8919 0.3027 -0.3360
vn -0.9333 0.0663 -0.3528
vn -0.9949 -0.0789 0.0628
vn -0.7107 -0.0651 0.7005
vn -0.7629 0.2672 0.5888
vn -0.9997 -0.0231 -0.0106
vn -0.9816 -0.1532 -0.1141
vn -0.8955 0.2769 0.3484
vn -0.9854 -0.0074 -0.1698
vn -0.9790 -0.1412 -0.1470
vn -0.9558 0.1805 -0.2321
vn -0.9354 -0.1220 -0.3320
vn -0.9514 -0.0920 -0.2938
vn -0.8896 -0.3459 -0.2982
vn -0.8566 -0.4364 -0.2753
vn -0.7365 -0.4949 -0.4611
vn -0.8275 -0.4113 -0.3822
vn -0.9403 -0.0539 -0.3361
vn -0.6883 -0.4806 -0.5435
vn -0.8770 -0.2447 -0.4136
vn -0.9775 -0.0619 0.2015
vn -0.9433 -0.2419 -0.2273
vn -0.9880 -0.0843 -0.1294
vn -0.9757 0.2179 0.0210
vn -0.9990 0.0438 -0.0098
vn -0.9906 0.0959 -0.0977
vn -0.9110 0.3960 0.1149
vn -0.8060 0.1971 0.5581
vn -0.8931 0.0289 0.4489
vn -0.9115 -0.3974 0.1060
vn -0.9979 -0.0643 -0.0072
vn -0.8821 -0.0707 0.4658
vn -0.8323 -0.2097 0.5131
vn -1.0000 -0.0080 0.0037
vn -0.9650 -0.2322 0.1217
vn -0.9998 -0.0145 -0.0121
vn -0.9408 0.2070 0.2683
vn 0.0000 -0.5891 0.8080
vn -0.3710 -0.3244 0.8701
vn -0.5173 0.1630 0.8401
vn -0.8502 0.4880 0.1976
vn -0.9998 0.0137 -0.0108
vn -1.0000 -0.0032 -0.0021
vn 0.3123 -0.2700 0.9108
vn 0.4710 0.1692 0.8657
vn 0.9982 -0.0582 0.0112
vn 0.9876 -0.1491 0.0490
vn 1.0000 -0.0080 0.0037
vn 0.8893 -0.0761 0.4510
vn 0.8369 -0.2091 0.5059
vn 0.9995 -0.0310 0.0047
vn 0.6885 -0.4423 -0.5747
vn 0.9771 -0.1322 -0.1670
vn 0.9427 0.2023 0.2653
vn 1.0000 -0.0032 -0.0021
vn 0.9998 0.0137 -0.0108
vn 0.8502 0.4880 0.1976
vn 0.0000 -0.9605 0.2783
vn 0.0000 -0.9791 0.2033
vn 0.0000 -0.9059 -0.4235
vn 0.0000 -0.9107 -0.4131
vn 0.0000 -0.7587 -0.6514
vn 0.0000 -0.7539 -0.6570
vn 0.0000 -0.0971 -0.9953
vn 0.0000 0.3594 -0.9332
vn 0.0000 0.2670 -0.9637
vn 0.0000 -0.7040 -0.7102
vn 0.0000 -0.7071 -0.7071
vn 0.0000 -0.9479 -0.3185
vn 0.0000 -0.2717 -0.9624
vn 0.0000 -0.2236 -0.9747
vn 0.0000 -0.5409 -0.8411
vn 0.0000 1.0000 -0.0004
vn 0.0000 1.0000 -0.0006
vn 0.0000 1.0000 -0.0001
vn 0.0000 0.7083 -0.7059
# 139 vertex normals

vt 0.3149 0.6379 0.6379
vt 0.3149 0.6348 0.6348
vt 0.3545 0.6360 0.6360
vt 0.3367 0.6528 0.6528
vt 0.2744 0.6509 0.6509
vt 0.2744 0.6465 0.6465
vt 0.3438 0.6487 0.6487
vt 0.2769 0.6436 0.6436
vt 0.3611 0.6453 0.6453
vt 0.2825 0.6418 0.6418
vt 0.3618 0.6443 0.6443
vt 0.2942 0.6396 0.6396
vt 0.3618 0.6418 0.6418
vt 0.3545 0.6392 0.6392
vt 0.3616 0.6338 0.6338
vt 0.3704 0.6445 0.6445
vt 0.3691 0.6418 0.6418
vt 0.3711 0.6465 0.6465
vt 0.3687 0.6504 0.6504
vt 0.3567 0.6489 0.6489
vt 0.3564 0.6597 0.6597
vt 0.3435 0.6592 0.6592
vt 0.3364 0.6636 0.6636
vt 0.2742 0.6616 0.6616
vt 0.4497 0.4561 0.4561
vt 0.4539 0.4517 0.4517
vt 0.4465 0.4512 0.4512
vt 0.4482 0.4614 0.4614
vt 0.4436 0.4585 0.4585
vt 0.4399 0.4546 0.4546
vt 0.4475 0.4458 0.4458
vt 0.4536 0.4424 0.4424
vt 0.4590 0.4424 0.4424
vt 0.4604 0.4331 0.4331
vt 0.4338 0.4478 0.4478
vt 0.4348 0.4561 0.4561
vt 0.4355 0.4419 0.4419
vt 0.4517 0.4409 0.4409
vt 0.4553 0.4351 0.4351
vt 0.4583 0.4272 0.4272
vt 0.4517 0.4282 0.4282
vt 0.4524 0.4341 0.4341
vt 0.4395 0.4277 0.4277
vt 0.4302 0.4282 0.4282
vt 0.4302 0.4297 0.4297
vt 0.4343 0.4346 0.4346
vt 0.4490 0.4302 0.4302
vt 0.4404 0.4272 0.4272
vt 0.2620 0.6509 0.6509
vt 0.2622 0.6462 0.6462
vt 0.2727 0.6340 0.6340
vt 0.2769 0.6348 0.6348
vt 0.2825 0.6343 0.6343
vt 0.2942 0.6338 0.6338
vt 0.4478 0.4307 0.4307
vt 0.4514 0.4346 0.4346
vt 0.4504 0.4399 0.4399
vt 0.4463 0.4448 0.4448
vt 0.4387 0.4482 0.4482
vt 0.4343 0.4497 0.4497
vt 0.4294 0.4526 0.4526
vt 0.4316 0.4580 0.4580
vt 0.4277 0.4629 0.4629
vt 0.4382 0.4497 0.4497
vt 0.4382 0.4595 0.4595
vt 0.4312 0.4614 0.4614
vt 0.4316 0.4629 0.4629
vt 0.4380 0.4604 0.4604
vt 0.4290 0.4634 0.4634
vt 0.4304 0.4653 0.4653
vt 0.4380 0.4668 0.4668
vt 0.4424 0.4629 0.4629
vt 0.4441 0.4673 0.4673
vt 0.4214 0.4634 0.4634
vt 0.4299 0.4658 0.4658
vt 0.4375 0.4683 0.4683
vt 0.4436 0.4702 0.4702
vt 0.4514 0.4663 0.4663
vt 0.4509 0.4683 0.4683
vt 0.4507 0.4697 0.4697
vt 0.4431 0.4707 0.4707
vt 0.4373 0.4712 0.4712
vt 0.4219 0.4727 0.4727
vt 0.4565 0.4668 0.4668
vt 0.4563 0.4688 0.4688
vt 0.4536 0.4663 0.4663
vt 0.4573 0.4214 0.4214
vt 0.4441 0.4194 0.4194
vt 0.4431 0.4199 0.4199
vt 0.4312 0.4219 0.4219
vt 0.4302 0.4429 0.4429
vt 0.4299 0.4351 0.4351
vt 0.4231 0.4307 0.4307
vt 0.4231 0.4292 0.4292
vt 0.4131 0.4619 0.4619
vt 0.4221 0.4580 0.4580
vt 0.4265 0.4565 0.4565
vt 0.4255 0.4531 0.4531
vt 0.4297 0.4482 0.4482
vt 0.4363 0.4785 0.4785
vt 0.4324 0.4790 0.4790
vt 0.4263 0.4795 0.4795
vt 0.4109 0.4810 0.4810
vt 0.4104 0.4712 0.4712
# 104 texture coords

o grip3
g grip3
usemtl mat_sniper_rifle_INST
s 1
f 1/1/1 2/2/2 3/3/3 
f 4/4/4 5/5/5 6/6/6 
f 6/6/6 7/7/7 4/4/4 
f 7/7/7 6/6/6 8/8/8 
f 8/8/8 9/9/9 7/7/7 
f 9/9/9 8/8/8 10/10/10 
f 10/10/10 11/11/11 9/9/9 
f 11/11/11 10/10/10 12/12/12 
f 12/12/12 13/13/13 11/11/11 
f 13/13/13 12/12/12 1/1/1 
f 1/1/1 14/14/14 13/13/13 
f 3/3/3 14/14/14 1/1/1 
f 14/14/14 3/3/3 15/15/15 
f 15/15/15 13/13/13 14/14/14 
f 9/9/9 11/11/11 16/16/16 
f 15/17/15 16/16/16 11/11/11 
f 11/11/11 13/13/13 15/17/15 
f 16/16/16 17/18/17 9/9/9 
f 9/9/9 17/18/17 18/19/18 
f 18/19/18 19/20/19 9/9/9 
f 7/7/7 9/9/9 19/20/19 
f 7/7/7 19/20/19 18/21/18 
f 18/21/18 20/22/20 7/7/7 
f 4/4/4 7/7/7 20/22/20 
f 20/22/20 21/23/21 4/4/4 
f 4/4/4 21/23/21 22/24/22 
f 22/24/22 5/5/5 4/4/4 
f 20/7/20 18/20/18 17/9/17 
f 23/6/23 22/5/22 21/4/21 
f 21/4/21 20/7/20 23/6/23 
f 24/8/24 23/6/23 20/7/20 
f 20/7/20 17/9/17 24/8/24 
f 25/10/25 24/8/24 17/9/17 
f 17/9/17 16/11/16 25/10/25 
f 25/10/25 16/11/16 15/13/15 
f 15/13/15 26/12/26 25/10/25 
f 2/1/2 26/12/26 15/13/15 
f 15/13/15 3/14/3 2/1/2 
f 27/25/27 28/26/28 29/27/29 
f 30/28/30 27/25/27 31/29/31 
f 29/27/29 31/29/31 27/25/27 
f 32/30/32 31/29/31 29/27/29 
f 32/30/32 29/27/29 33/31/33 
f 33/31/33 29/27/29 34/32/34 
f 34/32/34 29/27/29 28/26/28 
f 28/26/28 35/33/35 34/32/34 
f 34/32/34 35/33/35 36/34/36 
f 32/30/32 37/35/37 38/36/38 
f 39/37/39 37/35/37 32/30/32 
f 32/30/32 33/31/33 39/37/39 
f 39/37/39 33/31/33 40/38/40 
f 34/32/34 40/38/40 33/31/33 
f 40/38/40 34/32/34 41/39/41 
f 36/34/36 41/39/41 34/32/34 
f 41/39/41 36/34/36 42/40/42 
f 42/40/42 43/41/43 41/39/41 
f 44/42/44 41/39/41 43/41/43 
f 41/39/41 44/42/44 40/38/40 
f 45/43/45 46/44/46 47/45/47 
f 45/43/45 47/45/47 44/42/44 
f 44/42/44 47/45/47 48/46/48 
f 48/46/48 40/38/40 44/42/44 
f 40/38/40 48/46/48 39/37/39 
f 43/41/43 49/47/49 44/42/44 
f 44/42/44 49/47/49 45/43/45 
f 45/43/45 49/47/49 50/48/50 
f 50/48/50 49/47/49 43/41/43 
f 5/5/51 22/49/51 23/50/52 
f 23/50/52 6/6/53 5/5/51 
f 8/8/54 6/6/53 23/51/52 
f 23/51/52 24/52/55 8/8/54 
f 10/10/56 8/8/54 24/52/55 
f 24/52/55 25/53/56 10/10/56 
f 10/10/56 25/53/56 26/54/57 
f 26/54/57 12/12/58 10/10/56 
f 12/12/58 26/54/57 2/2/59 
f 2/2/59 1/1/59 12/12/58 
f 51/48/60 52/41/61 53/47/62 
f 54/43/63 51/48/60 53/47/62 
f 53/47/62 55/55/64 54/43/63 
f 54/43/63 55/55/64 56/56/65 
f 56/56/65 55/55/64 53/47/62 
f 53/47/62 57/42/66 56/56/65 
f 57/42/66 53/47/62 52/41/61 
f 52/41/61 58/39/67 57/42/66 
f 58/39/67 52/41/61 42/40/42 
f 42/40/42 36/34/36 58/39/67 
f 59/32/68 58/39/67 36/34/36 
f 58/39/67 59/32/68 60/38/69 
f 61/31/70 60/38/69 59/32/68 
f 59/32/68 62/27/71 61/31/70 
f 54/43/63 63/45/72 64/44/73 
f 56/56/65 63/45/72 54/43/63 
f 65/46/74 63/45/72 56/56/65 
f 56/56/65 66/57/75 65/46/74 
f 66/57/75 56/56/65 57/42/66 
f 57/42/66 60/38/69 66/57/75 
f 60/38/69 57/42/66 58/39/67 
f 67/37/76 65/46/74 66/57/75 
f 66/57/75 60/38/69 61/31/70 
f 61/31/70 68/58/77 66/57/75 
f 66/57/75 68/58/77 67/37/76 
f 67/37/76 68/58/77 69/59/78 
f 69/59/78 70/35/79 67/37/76 
f 71/60/80 70/35/79 69/59/78 
f 71/60/80 72/61/81 70/35/79 
f 73/62/82 72/61/81 71/60/80 
f 71/60/80 74/36/83 73/62/82 
f 75/63/84 73/62/82 74/36/83 
f 69/59/78 76/64/85 71/60/80 
f 71/60/80 76/64/85 77/30/86 
f 77/30/86 74/36/83 71/60/80 
f 74/36/83 77/30/86 78/65/87 
f 78/65/87 79/66/88 74/36/83 
f 80/67/89 79/66/88 78/65/87 
f 78/65/87 81/68/90 80/67/89 
f 78/65/87 82/29/91 81/68/90 
f 82/29/91 78/65/87 77/30/86 
f 77/30/86 62/27/71 82/29/91 
f 62/27/71 77/30/86 76/64/85 
f 76/64/85 61/31/70 62/27/71 
f 61/31/70 76/64/85 69/59/78 
f 69/59/78 68/58/77 61/31/70 
f 74/36/83 79/66/88 75/63/84 
f 83/69/92 75/63/84 79/66/88 
f 79/66/88 80/67/89 83/69/92 
f 80/67/89 84/70/93 83/69/92 
f 84/70/93 80/67/89 81/68/90 
f 81/68/90 85/71/94 84/70/93 
f 85/71/94 81/68/90 82/29/91 
f 82/29/91 86/72/95 85/71/94 
f 30/28/30 86/72/95 82/29/91 
f 87/73/96 86/72/95 30/28/30 
f 88/74/97 75/63/84 89/75/98 
f 89/75/98 75/63/84 83/69/92 
f 83/69/92 84/70/93 89/75/98 
f 89/75/98 84/70/93 85/71/94 
f 85/71/94 90/76/99 89/75/98 
f 91/77/100 90/76/99 85/71/94 
f 85/71/94 87/73/96 91/77/100 
f 86/72/95 87/73/96 85/71/94 
f 30/28/30 92/78/101 87/73/96 
f 93/79/102 87/73/96 92/78/101 
f 91/77/100 87/73/96 93/79/102 
f 93/79/102 94/80/103 91/77/100 
f 91/77/100 94/80/103 95/81/104 
f 91/77/100 95/81/104 96/82/105 
f 96/82/105 90/76/99 91/77/100 
f 90/76/99 96/82/105 97/83/106 
f 97/83/106 89/75/98 90/76/99 
f 89/75/98 97/83/106 88/74/97 
f 98/84/107 99/85/108 94/80/103 
f 94/80/103 93/79/102 98/84/107 
f 98/84/107 93/79/102 92/86/101 
f 100/75/109 101/63/110 102/74/111 
f 30/28/30 103/72/112 104/73/113 
f 31/29/31 103/72/112 30/28/30 
f 105/76/114 103/72/112 31/29/31 
f 31/29/31 32/30/32 105/76/114 
f 105/76/114 32/30/32 100/75/109 
f 32/30/32 38/36/38 100/75/109 
f 101/63/110 100/75/109 38/36/38 
f 38/36/38 106/62/115 101/63/110 
f 38/36/38 107/61/116 106/62/115 
f 38/36/38 37/35/37 107/61/116 
f 103/72/112 105/76/114 104/73/113 
f 104/73/113 105/76/114 108/77/117 
f 102/74/111 109/83/118 100/75/109 
f 105/76/114 100/75/109 109/83/118 
f 109/83/118 110/82/119 105/76/114 
f 108/77/117 105/76/114 110/82/119 
f 110/82/119 111/81/120 108/77/117 
f 108/77/117 111/81/120 99/80/108 
f 108/77/117 99/80/108 98/79/107 
f 98/79/107 104/73/113 108/77/117 
f 104/73/113 98/79/107 92/78/101 
f 104/73/113 92/78/101 30/28/30 
f 42/40/121 52/41/122 43/87/122 
f 50/88/123 43/87/122 52/41/122 
f 52/41/122 51/48/123 50/88/123 
f 45/89/124 50/88/123 51/48/123 
f 51/48/123 54/43/124 45/89/124 
f 45/89/124 54/43/124 64/44/125 
f 64/44/125 46/90/126 45/89/124 
f 67/37/127 39/91/127 48/92/128 
f 48/92/128 65/46/128 67/37/127 
f 63/45/129 65/46/128 48/92/128 
f 48/92/128 47/93/129 63/45/129 
f 63/45/129 47/93/129 46/94/126 
f 46/94/126 64/44/125 63/45/129 
f 88/74/130 102/95/131 101/96/132 
f 101/96/132 75/63/132 88/74/130 
f 75/63/132 101/96/132 106/97/133 
f 106/97/133 73/62/133 75/63/132 
f 73/62/133 106/97/133 107/98/134 
f 107/98/134 72/61/134 73/62/133 
f 70/35/135 72/61/134 107/98/134 
f 107/98/134 37/99/135 70/35/135 
f 70/35/135 37/99/135 39/91/127 
f 39/91/127 67/37/127 70/35/135 
f 95/81/136 94/80/137 99/100/137 
f 99/100/137 111/101/136 95/81/136 
f 96/82/138 95/81/136 111/101/136 
f 111/101/136 110/102/138 96/82/138 
f 96/82/138 110/102/138 109/103/139 
f 109/103/139 97/83/139 96/82/138 
f 97/83/139 109/103/139 102/104/131 
f 102/104/131 88/74/130 97/83/139 
f 36/34/36 35/33/35 59/32/68 
f 59/32/68 35/33/35 28/26/28 
f 28/26/28 62/27/71 59/32/68 
f 62/27/71 28/26/28 27/25/27 
f 27/25/27 82/29/91 62/27/71 
f 82/29/91 27/25/27 30/28/30 
# 0 polygons - 214 triangles

