# 3ds Max Wavefront OBJ Exporter v0.99 - (c)2007 guruware
# File Created: 28.08.2021 13:05:44

mtllib mag5.mtl

#
# object mag5
#

v  -1.0211 7.4737 -15.6124
v  -1.0211 4.8603 -5.8593
v  -1.0211 3.6431 -6.1855
v  1.0211 3.6431 -6.1855
v  1.0211 6.2564 -15.9385
v  -1.0211 6.2564 -15.9385
v  -0.9981 7.0317 -16.6709
v  -0.9981 7.3779 -16.2044
v  0.9981 7.3779 -16.2044
v  0.9981 7.0317 -16.6709
v  0.9981 -6.5320 -20.3053
v  -0.9981 -6.5320 -20.3053
v  -1.3686 7.2387 -15.6849
v  -1.3419 6.9529 -16.3769
v  -1.3419 -6.6108 -20.0113
v  -0.9981 -7.1433 -20.1188
v  0.9981 -7.1433 -20.1188
v  1.3419 -6.6108 -20.0113
v  -1.2232 -7.1874 -19.9542
v  1.3419 6.9529 -16.3769
v  1.3686 7.2387 -15.6849
v  1.6793 6.7990 -15.8027
v  1.6792 -6.7646 -19.4371
v  1.3686 -7.2825 -19.5992
v  1.2232 -7.1874 -19.9542
v  1.6792 -9.3827 -9.6661
v  1.3686 -9.9006 -9.8283
v  1.6792 4.1809 -6.0318
v  1.3686 4.6206 -5.9140
v  1.0211 4.8603 -5.8593
v  1.0211 7.4737 -15.6124
v  1.2232 -9.9957 -9.4733
v  0.9981 -10.0398 -9.3088
v  -0.9981 -10.0398 -9.3088
v  -1.3686 -9.9006 -9.8283
v  -1.3686 -7.2825 -19.5992
v  -1.2232 -9.9957 -9.4733
v  -0.9981 -9.6153 -8.7980
v  -1.3419 -9.5366 -9.0919
v  -1.6792 -9.3827 -9.6661
v  -1.6792 -6.7646 -19.4371
v  -1.6792 6.7990 -15.8027
v  -1.6792 4.1809 -6.0318
v  -1.3686 4.6206 -5.9140
v  -1.3419 4.0271 -5.4576
v  1.3419 -9.5366 -9.0919
v  0.9981 -9.6153 -8.7980
v  -0.9981 3.9483 -5.1636
v  -0.9981 4.4814 -5.3944
v  1.3419 4.0271 -5.4576
v  0.9981 3.9483 -5.1636
v  0.9981 4.4814 -5.3944
# 52 vertices

vn 1.0000 0.0000 0.0000
vn -0.0000 0.9659 0.2588
vn 0.0000 0.9659 0.2588
vn -0.3228 0.5199 -0.7909
vn -0.3096 0.8725 -0.3780
vn 0.3096 0.8725 -0.3780
vn 0.3228 0.5199 -0.7909
vn 0.3287 -0.0056 -0.9444
vn -0.3287 -0.0056 -0.9444
vn -0.4325 0.9013 0.0245
vn -0.6778 0.7310 -0.0793
vn -0.7704 0.3968 -0.4990
vn -0.7646 -0.0407 -0.6432
vn -0.1903 -0.7105 -0.6775
vn 0.1903 -0.7105 -0.6775
vn 0.7595 -0.0398 -0.6493
vn -0.5368 -0.5379 -0.6500
vn 0.7487 0.4183 -0.5143
vn 0.7017 0.7119 -0.0279
vn 0.9314 0.3284 -0.1573
vn 0.9415 -0.1691 -0.2915
vn 0.5098 -0.7876 -0.3462
vn 0.4568 -0.7147 -0.5297
vn 0.9372 -0.3005 0.1768
vn 0.6544 -0.7549 -0.0427
vn 0.9290 0.2019 0.3102
vn 0.7012 0.6011 0.3833
vn 0.4325 0.7928 0.4294
vn 0.3870 0.9217 -0.0277
vn 0.4471 -0.8904 0.0848
vn 0.1832 -0.9614 0.2054
vn -0.1832 -0.9614 0.2054
vn -0.5442 -0.8345 -0.0862
vn -0.5505 -0.7584 -0.3490
vn -0.4471 -0.8904 0.0848
vn -0.3257 -0.4992 0.8029
vn -0.7542 -0.3787 0.5364
vn -0.9389 -0.2993 0.1702
vn -0.9415 -0.1691 -0.2915
vn -0.9314 0.3284 -0.1573
vn -0.9314 0.2058 0.3004
vn -0.7017 0.6026 0.3801
vn -0.7487 0.1051 0.6545
vn 0.7542 -0.3787 0.5364
vn 0.3257 -0.4992 0.8029
vn -0.3228 0.0548 0.9449
vn -0.3096 0.5666 0.7636
vn 0.7487 0.1051 0.6545
vn 0.3228 0.0548 0.9449
vn 0.3096 0.5666 0.7636
vn -0.3870 0.7843 0.4848
vn 0.0000 -0.2588 0.9659
vn 0.0000 0.2588 -0.9659
vn 1.0000 -0.0000 -0.0000
vn -1.0000 0.0000 0.0000
vn -1.0000 -0.0000 -0.0000
# 56 vertex normals

vt 0.2268 0.2749 0.2749
vt 0.2268 0.3135 0.3135
vt 0.2314 0.3135 0.3135
vt 0.2390 0.3135 0.3135
vt 0.2390 0.2749 0.2749
vt 0.2314 0.2749 0.2749
vt 1.2217 0.3242 0.3242
vt 1.2236 0.3237 0.3237
vt 1.2236 0.3159 0.3159
vt 1.2217 0.3164 0.3164
vt 1.1670 0.3164 0.3164
vt 1.1670 0.3242 0.3242
vt 1.2266 0.3228 0.3228
vt 1.2236 0.3271 0.3271
vt 1.2217 0.3267 0.3267
vt 1.1680 0.3267 0.3267
vt 1.1660 0.3247 0.3247
vt 1.1660 0.3164 0.3164
vt 1.1680 0.3145 0.3145
vt 1.1650 0.3271 0.3271
vt 1.2217 0.3145 0.3145
vt 1.2236 0.3120 0.3120
vt 1.2207 0.3115 0.3115
vt 1.1680 0.3115 0.3115
vt 1.1650 0.3120 0.3120
vt 1.1660 0.3145 0.3145
vt 1.1680 0.2739 0.2739
vt 1.1650 0.2734 0.2734
vt 1.2207 0.2739 0.2739
vt 1.2236 0.2734 0.2734
vt 1.2266 0.2749 0.2749
vt 1.2266 0.3135 0.3135
vt 0.1659 0.2720 0.2720
vt 0.1646 0.2715 0.2715
vt 0.1571 0.2715 0.2715
vt 0.1556 0.2734 0.2734
vt 0.1563 0.2720 0.2720
vt 0.1563 0.3135 0.3135
vt 0.1571 0.3140 0.3140
vt 0.1646 0.3140 0.3140
vt 0.1659 0.3120 0.3120
vt 0.1556 0.3120 0.3120
vt 0.1659 0.2734 0.2734
vt 0.1680 0.2710 0.2710
vt 0.1654 0.3135 0.3135
vt 0.1659 0.3164 0.3164
vt 0.1678 0.3164 0.3164
vt 0.1681 0.3145 0.3145
vt 0.1659 0.3145 0.3145
vt 0.1686 0.3115 0.3115
vt 0.1686 0.2739 0.2739
vt 0.2219 0.2710 0.2710
vt 0.2209 0.2739 0.2739
vt 0.2241 0.2734 0.2734
vt 0.2209 0.3115 0.3115
vt 0.2241 0.3120 0.3120
vt 0.2219 0.3145 0.3145
vt 0.1659 0.3242 0.3242
vt 0.1658 0.3286 0.3286
vt 0.1682 0.3286 0.3286
vt 0.1681 0.3267 0.3267
vt 0.1658 0.3271 0.3271
vt 0.1678 0.3242 0.3242
vt 0.2217 0.3164 0.3164
vt 0.2236 0.3159 0.3159
vt 0.2219 0.3267 0.3267
vt 0.2217 0.3242 0.3242
vt 0.2236 0.3242 0.3242
vt 0.2268 0.3228 0.3228
vt 0.2241 0.3271 0.3271
vt 0.2220 0.3286 0.3286
vt 1.2314 0.3223 0.3223
vt 1.2314 0.3135 0.3135
vt 0.2314 0.3223 0.3223
vt 1.2314 0.2749 0.2749
# 75 texture coords

o mag5
g mag5
usemtl mat_sniper_rifle_INST
s 1
f 1/1/1 2/2/1 3/3/1 
f 3/3/2 4/4/2 5/5/2 
f 5/5/2 6/6/3 3/3/2 
f 7/7/4 8/8/5 9/9/6 
f 9/9/6 10/10/7 7/7/4 
f 7/7/4 10/10/7 11/11/8 
f 11/11/8 12/12/9 7/7/4 
f 9/9/6 8/8/5 1/13/10 
f 13/14/11 1/13/10 8/8/5 
f 14/15/12 13/14/11 8/8/5 
f 7/7/4 14/15/12 8/8/5 
f 15/16/13 14/15/12 7/7/4 
f 7/7/4 12/12/9 15/16/13 
f 15/16/13 12/12/9 16/17/14 
f 17/18/15 16/17/14 12/12/9 
f 12/12/9 11/11/8 17/18/15 
f 17/18/15 11/11/8 18/19/16 
f 16/17/14 19/20/17 15/16/13 
f 18/19/16 11/11/8 10/10/7 
f 10/10/7 20/21/18 18/19/16 
f 10/10/7 9/9/6 20/21/18 
f 20/21/18 9/9/6 21/22/19 
f 20/21/18 21/22/19 22/23/20 
f 20/21/18 22/23/20 23/24/21 
f 23/24/21 18/19/16 20/21/18 
f 18/19/16 23/24/21 24/25/22 
f 24/25/22 25/26/23 18/19/16 
f 18/19/16 25/26/23 17/18/15 
f 26/27/24 27/28/25 24/25/22 
f 24/25/22 23/24/21 26/27/24 
f 28/29/26 26/27/24 23/24/21 
f 23/24/21 22/23/20 28/29/26 
f 29/30/27 28/29/26 22/23/20 
f 22/23/20 21/22/19 29/30/27 
f 30/31/28 29/30/27 21/22/19 
f 21/22/19 31/32/29 30/31/28 
f 21/22/19 9/9/6 31/32/29 
f 1/13/10 31/32/29 9/9/6 
f 19/33/17 16/34/14 17/35/15 
f 19/33/17 17/35/15 24/36/22 
f 17/35/15 25/37/23 24/36/22 
f 32/38/30 33/39/31 34/40/32 
f 32/38/30 34/40/32 35/41/33 
f 27/42/25 32/38/30 35/41/33 
f 24/36/22 27/42/25 35/41/33 
f 35/41/33 36/43/34 24/36/22 
f 36/43/34 19/33/17 24/36/22 
f 15/44/13 19/33/17 36/43/34 
f 34/40/32 37/45/35 35/41/33 
f 34/46/32 38/47/36 39/48/37 
f 39/48/37 37/49/35 34/46/32 
f 35/41/33 37/49/35 39/48/37 
f 39/48/37 40/50/38 35/41/33 
f 36/43/34 35/41/33 40/50/38 
f 40/50/38 41/51/39 36/43/34 
f 36/43/34 41/51/39 15/44/13 
f 14/52/12 15/44/13 41/51/39 
f 41/51/39 42/53/40 14/52/12 
f 14/52/12 42/53/40 13/54/11 
f 42/53/40 43/55/41 44/56/42 
f 43/55/41 42/53/40 41/51/39 
f 41/51/39 40/50/38 43/55/41 
f 43/55/41 40/50/38 39/48/37 
f 39/48/37 45/57/43 43/55/41 
f 45/57/43 39/48/37 38/47/36 
f 38/47/36 34/46/32 33/58/31 
f 27/59/25 26/60/24 46/61/44 
f 46/61/44 32/62/30 27/59/25 
f 33/58/31 32/62/30 46/61/44 
f 46/61/44 47/63/45 33/58/31 
f 33/58/31 47/63/45 38/47/36 
f 48/64/46 38/47/36 47/63/45 
f 38/47/36 48/64/46 45/57/43 
f 45/57/43 48/64/46 49/65/47 
f 49/65/47 44/56/42 45/57/43 
f 44/56/42 43/55/41 45/57/43 
f 47/63/45 46/61/44 50/66/48 
f 50/66/48 51/67/49 47/63/45 
f 52/68/50 51/67/49 50/66/48 
f 51/67/49 52/68/50 49/65/47 
f 49/65/47 48/64/46 51/67/49 
f 47/63/45 51/67/49 48/64/46 
f 44/56/42 13/54/11 42/53/40 
f 13/54/11 44/56/42 2/2/51 
f 2/2/51 44/56/42 49/65/47 
f 30/69/28 2/2/51 49/65/47 
f 49/65/47 52/68/50 30/69/28 
f 30/69/28 52/68/50 29/70/27 
f 50/66/48 29/70/27 52/68/50 
f 29/70/27 50/66/48 28/71/26 
f 28/71/26 50/66/48 46/61/44 
f 46/61/44 26/60/24 28/71/26 
f 2/2/51 1/1/10 13/54/11 
f 6/72/52 5/73/52 31/32/52 
f 31/32/52 1/13/52 6/72/52 
f 3/3/53 2/2/53 30/69/53 
f 30/69/53 4/74/53 3/3/53 
f 3/3/54 6/6/54 1/1/54 
f 4/75/55 30/31/55 31/32/55 
f 31/32/56 5/73/56 4/75/56 
# 0 polygons - 100 triangles

