# 3ds Max Wavefront OBJ Exporter v0.99 - (c)2007 guruware
# File Created: 20.06.2021 14:12:08

mtllib acc1.mtl

#
# object acc1
#

v  -0.6678 0.8038 -25.0765
v  -0.6678 0.8039 -20.8173
v  0.6678 0.8039 -20.8173
v  0.6678 0.8038 -25.0765
v  -0.6262 0.2670 -17.6190
v  -1.0854 -0.1910 -17.6190
v  -1.2524 -0.8177 -17.6190
v  -0.6262 -1.9023 -17.6190
v  0.0000 -2.0710 -17.6190
v  0.6262 -1.9023 -17.6190
v  0.6262 0.2670 -17.6190
v  0.0000 0.4356 -17.6190
v  -1.0854 -1.4443 -17.6190
v  1.0854 -1.4443 -17.6190
v  1.2524 -0.8177 -17.6190
v  1.0854 -0.1910 -17.6190
v  -0.6678 2.7292 -19.0856
v  -0.6678 2.4300 -19.0856
v  -0.6678 -0.0335 -17.5960
v  -0.6678 -1.4160 -17.5960
v  -0.6678 -1.4157 -17.4386
v  -0.6678 -1.0528 -17.3119
v  -0.6678 -0.6481 -16.9809
v  -0.6678 -0.4254 -16.5536
v  -0.6678 -0.3308 -15.9992
v  -0.6678 -0.3308 -13.6097
v  -0.6678 5.1084 -13.6097
v  -0.6678 3.1849 -19.0856
v  -0.6678 3.1849 -19.8454
v  -0.6678 2.7292 -19.8454
v  -0.6678 3.5068 -19.0856
v  -0.6678 5.1061 -19.8454
v  -0.6678 3.5068 -19.8454
v  -0.6678 1.9044 -19.8549
v  -0.6678 2.4295 -19.8549
v  0.6678 2.4295 -19.8549
v  0.6678 1.9044 -19.8549
v  -0.6678 -0.0336 -25.4444
v  0.0000 -1.3420 -26.0028
v  0.6262 -1.9023 -25.4479
v  0.0000 -2.0710 -25.4479
v  0.4541 -1.0798 -26.0028
v  1.0854 -1.4443 -25.4479
v  1.2524 -0.8177 -25.4479
v  0.4541 -0.5555 -26.0028
v  1.0854 -0.1910 -25.4479
v  0.6262 0.2670 -25.4479
v  0.0000 -0.2933 -26.0028
v  0.0000 0.4356 -25.4479
v  -0.4541 -1.0798 -26.0028
v  -0.4541 -0.5555 -26.0028
v  0.6678 -1.4160 -17.5960
v  0.6678 -1.4157 -17.4386
v  0.6678 -0.0336 -25.4444
v  0.6678 2.4300 -19.0856
v  0.6678 -0.0335 -17.5960
v  0.6678 2.7292 -19.0856
v  0.6678 3.5068 -19.0856
v  0.6678 3.5068 -19.8454
v  0.6678 5.1061 -19.8454
v  0.6678 5.1084 -13.6097
v  0.6678 3.1849 -19.0856
v  0.6678 -0.3308 -13.6097
v  0.6678 -0.3308 -15.9992
v  0.6678 -0.4254 -16.5536
v  0.6678 -0.6481 -16.9809
v  0.6678 -1.0528 -17.3119
v  0.6678 2.7292 -19.8454
v  0.6678 3.1849 -19.8454
v  -0.6262 -1.9023 -25.4479
v  -1.0854 -1.4443 -25.4479
v  -1.2524 -0.8177 -25.4479
v  -1.0854 -0.1910 -25.4479
v  -0.6262 0.2670 -25.4479
# 74 vertices

vn -0.0000 1.0000 -0.0000
vn 0.0000 0.0000 1.0000
vn -1.0000 -0.0000 -0.0000
vn -1.0000 0.0000 -0.0000
vn -0.0000 0.3516 -0.9361
vn 0.0000 0.0000 -1.0000
vn -0.0000 0.6583 -0.7528
vn 0.0000 -0.3756 -0.9268
vn 0.2996 -0.5189 -0.8006
vn 0.0000 -0.6057 -0.7957
vn 0.2476 -0.1429 -0.9583
vn 0.5246 -0.3029 -0.7957
vn 0.5992 0.0000 -0.8006
vn 0.2476 0.1429 -0.9583
vn 0.5246 0.3029 -0.7957
vn 0.2996 0.5189 -0.8006
vn -0.0000 0.3756 -0.9268
vn -0.0000 0.6057 -0.7957
vn -0.2476 -0.1429 -0.9583
vn -0.2476 0.1429 -0.9583
vn 0.0000 -1.0000 0.0020
vn -0.0000 0.4022 -0.9155
vn 1.0000 0.0000 -0.0000
vn 1.0000 0.0000 0.0000
vn 0.0000 -0.9964 0.0845
vn 0.0000 -1.0000 -0.0000
vn 0.0000 -0.9477 0.3191
vn 0.0000 -0.7758 0.6310
vn 0.0000 -0.4888 0.8724
vn 0.0000 -0.3296 0.9441
vn 0.5000 -0.8660 0.0000
vn 0.8660 -0.5000 0.0000
vn 1.0000 -0.0000 0.0000
vn 0.8660 0.5000 0.0000
vn 0.5000 0.8660 0.0000
vn -0.2996 -0.5189 -0.8006
vn -0.5246 -0.3029 -0.7957
vn -0.5992 -0.0000 -0.8006
vn -0.5246 0.3029 -0.7957
vn -0.2996 0.5189 -0.8006
vn 0.0000 1.0000 -0.0000
vn -0.0000 1.0000 -0.0006
vn 0.0000 1.0000 -0.0006
vn -0.5000 -0.8660 -0.0000
vn -0.8660 -0.5000 -0.0000
vn -0.8660 0.5000 -0.0000
vn -0.5000 0.8660 -0.0000
# 47 vertex normals

vt 0.0972 0.8032 0.8032
vt 0.1127 0.8032 0.8032
vt 0.1127 0.8082 0.8082
vt 0.0972 0.8082 0.8082
vt 0.1591 0.8945 0.8945
vt 0.1613 0.8958 0.8958
vt 0.1637 0.8958 0.8958
vt 0.1671 0.8923 0.8923
vt 0.1671 0.8899 0.8899
vt 0.1659 0.8877 0.8877
vt 0.1578 0.8899 0.8899
vt 0.1578 0.8924 0.8924
vt 0.1659 0.8945 0.8945
vt 0.1637 0.8865 0.8865
vt 0.1613 0.8865 0.8865
vt 0.1591 0.8877 0.8877
vt 0.1206 0.8267 0.8267
vt 0.1206 0.8254 0.8254
vt 0.1270 0.8149 0.8149
vt 0.1270 0.8091 0.8091
vt 0.1276 0.8091 0.8091
vt 0.1281 0.8107 0.8107
vt 0.1295 0.8124 0.8124
vt 0.1313 0.8134 0.8134
vt 0.1337 0.8137 0.8137
vt 0.1438 0.8137 0.8137
vt 0.1438 0.8368 0.8368
vt 0.1206 0.8286 0.8286
vt 0.1174 0.8286 0.8286
vt 0.1174 0.8267 0.8267
vt 0.1206 0.8301 0.8301
vt 0.1174 0.8368 0.8368
vt 0.1174 0.8301 0.8301
vt 0.1181 0.8032 0.8032
vt 0.1200 0.8032 0.8032
vt 0.1200 0.8082 0.8082
vt 0.1180 0.8082 0.8082
vt 0.1133 0.8185 0.8185
vt 0.0952 0.8185 0.8185
vt 0.0936 0.8149 0.8149
vt 0.1174 0.8232 0.8232
vt 0.1174 0.8254 0.8254
vt 0.1980 0.7814 0.7814
vt 0.2014 0.7821 0.7821
vt 0.2014 0.7845 0.7845
vt 0.1980 0.7789 0.7789
vt 0.2014 0.7797 0.7797
vt 0.2014 0.7773 0.7773
vt 0.1980 0.7759 0.7759
vt 0.2014 0.7749 0.7749
vt 0.2014 0.7726 0.7726
vt 0.1980 0.7734 0.7734
vt 0.2014 0.7701 0.7701
vt 0.1996 0.7657 0.7657
vt 0.1996 0.7683 0.7683
vt 0.2018 0.7695 0.7695
vt 0.2018 0.7645 0.7645
vt 0.2039 0.7686 0.7686
vt 0.2039 0.7655 0.7655
vt 0.1261 0.8091 0.8091
vt 0.1267 0.8091 0.8091
vt 0.1267 0.8136 0.8136
vt 0.1261 0.8136 0.8136
vt 0.0938 0.8032 0.8032
vt 0.0938 0.8082 0.8082
vt 0.1197 0.8136 0.8136
vt 0.1118 0.8136 0.8136
vt 0.1118 0.8091 0.8091
vt 0.1197 0.8091 0.8091
vt 0.1216 0.8136 0.8136
vt 0.1216 0.8091 0.8091
vt 0.1232 0.8136 0.8136
vt 0.1232 0.8091 0.8091
vt 0.1249 0.8136 0.8136
vt 0.1249 0.8091 0.8091
vt 0.2312 0.7848 0.7848
vt 0.2312 0.7822 0.7822
vt 0.2312 0.7798 0.7798
vt 0.2312 0.7772 0.7772
vt 0.2312 0.7748 0.7748
vt 0.2312 0.7723 0.7723
vt 0.2313 0.7698 0.7698
vt 0.1350 0.8082 0.8082
vt 0.1350 0.8032 0.8032
vt 0.1409 0.8032 0.8032
vt 0.1409 0.8082 0.8082
vt 0.1267 0.8082 0.8082
vt 0.1266 0.8032 0.8032
vt 0.1283 0.8032 0.8032
vt 0.1283 0.8082 0.8082
vt 0.1322 0.8032 0.8032
vt 0.1323 0.8082 0.8082
vt 0.1311 0.8032 0.8032
vt 0.1311 0.8082 0.8082
vt 0.1239 0.8032 0.8032
vt 0.1239 0.8082 0.8082
vt 0.0938 0.8091 0.8091
vt 0.0938 0.8136 0.8136
vt 0.1228 0.8032 0.8032
vt 0.1228 0.8082 0.8082
# 100 texture coords

o acc1
g acc1
usemtl mat_patrol_smg_INST
s 1
f 1/1/1 2/2/1 3/3/1 
f 3/3/1 4/4/1 1/1/1 
f 5/5/2 6/6/2 7/7/2 
f 8/8/2 9/9/2 10/10/2 
f 7/7/2 8/8/2 10/10/2 
f 10/10/2 11/11/2 7/7/2 
f 5/5/2 7/7/2 11/11/2 
f 11/11/2 12/12/2 5/5/2 
f 7/7/2 13/13/2 8/8/2 
f 10/10/2 14/14/2 15/15/2 
f 10/10/2 15/15/2 11/11/2 
f 15/15/2 16/16/2 11/11/2 
f 17/17/3 18/18/3 19/19/3 
f 19/19/3 20/20/3 21/21/3 
f 21/21/3 22/22/4 19/19/3 
f 22/22/4 23/23/3 19/19/3 
f 19/19/3 23/23/3 24/24/3 
f 19/19/3 24/24/3 25/25/4 
f 25/25/4 26/26/4 19/19/3 
f 19/19/3 26/26/4 17/17/3 
f 17/17/3 26/26/4 27/27/3 
f 27/27/3 28/28/3 17/17/3 
f 17/17/3 28/28/3 29/29/3 
f 29/29/3 30/30/3 17/17/3 
f 31/31/3 28/28/3 27/27/3 
f 27/27/3 32/32/3 31/31/3 
f 31/31/3 32/32/3 33/33/3 
f 34/34/5 35/35/6 36/36/6 
f 36/36/6 37/37/5 34/34/5 
f 2/2/7 34/34/5 37/37/5 
f 37/37/5 3/3/7 2/2/7 
f 2/38/4 1/39/4 38/40/4 
f 38/40/4 19/19/3 2/38/4 
f 2/38/4 19/19/3 18/18/3 
f 18/18/3 34/41/4 2/38/4 
f 34/41/4 18/18/3 35/42/3 
f 39/43/8 40/44/9 41/45/10 
f 40/44/9 39/43/8 42/46/11 
f 42/46/11 43/47/12 40/44/9 
f 44/48/13 43/47/12 42/46/11 
f 42/46/11 45/49/14 44/48/13 
f 46/50/15 44/48/13 45/49/14 
f 45/49/14 47/51/16 46/50/15 
f 47/51/16 45/49/14 48/52/17 
f 48/52/17 49/53/18 47/51/16 
f 45/54/14 42/55/11 39/56/8 
f 39/56/8 48/57/17 45/54/14 
f 48/57/17 39/56/8 50/58/19 
f 50/58/19 51/59/20 48/57/17 
f 21/60/21 20/61/21 52/62/21 
f 52/62/21 53/63/21 21/60/21 
f 38/64/22 1/1/22 4/4/22 
f 4/4/22 54/65/22 38/64/22 
f 37/41/23 36/42/23 55/18/23 
f 3/38/23 37/41/23 55/18/23 
f 56/19/23 55/18/23 57/17/23 
f 55/18/23 56/19/23 3/38/23 
f 3/38/23 56/19/23 54/40/23 
f 54/40/23 4/39/23 3/38/23 
f 58/31/23 59/33/24 60/32/23 
f 61/27/23 58/31/23 60/32/23 
f 58/31/23 61/27/23 62/28/23 
f 57/17/23 62/28/23 61/27/23 
f 61/27/23 63/26/23 57/17/23 
f 57/17/23 63/26/23 56/19/23 
f 64/25/23 56/19/23 63/26/23 
f 64/25/23 65/24/23 56/19/23 
f 56/19/23 65/24/23 66/23/23 
f 66/23/23 67/22/23 56/19/23 
f 56/19/23 67/22/23 53/21/23 
f 56/19/23 53/21/23 52/20/23 
f 57/17/23 68/30/24 69/29/23 
f 69/29/23 62/28/23 57/17/23 
f 64/66/25 63/67/26 26/68/26 
f 26/68/26 25/69/25 64/66/25 
f 65/70/27 64/66/25 25/69/25 
f 25/69/25 24/71/27 65/70/27 
f 66/72/28 65/70/27 24/71/27 
f 24/71/27 23/73/28 66/72/28 
f 67/74/29 66/72/28 23/73/28 
f 23/73/28 22/75/29 67/74/29 
f 53/63/30 67/74/29 22/75/29 
f 22/75/29 21/60/30 53/63/30 
f 9/76/26 41/45/26 40/44/31 
f 40/44/31 10/77/31 9/76/26 
f 10/77/31 40/44/31 43/47/32 
f 43/47/32 14/78/32 10/77/31 
f 14/78/32 43/47/32 44/48/33 
f 44/48/33 15/79/33 14/78/32 
f 15/79/33 44/48/33 46/50/34 
f 46/50/34 16/80/34 15/79/33 
f 16/80/34 46/50/34 47/51/35 
f 47/51/35 11/81/35 16/80/34 
f 11/81/35 47/51/35 49/53/1 
f 49/53/1 12/82/1 11/81/35 
f 39/43/8 41/45/10 70/44/36 
f 70/44/36 50/46/19 39/43/8 
f 50/46/19 70/44/36 71/47/37 
f 50/46/19 71/47/37 72/48/38 
f 72/48/38 51/49/20 50/46/19 
f 51/49/20 72/48/38 73/50/39 
f 51/49/20 73/50/39 74/51/40 
f 74/51/40 48/52/17 51/49/20 
f 48/52/17 74/51/40 49/53/18 
f 59/83/6 33/84/6 32/85/6 
f 32/85/6 60/86/6 59/83/6 
f 68/87/6 30/88/6 29/89/6 
f 29/89/6 69/90/6 68/87/6 
f 31/91/26 33/84/26 59/83/26 
f 59/83/26 58/92/26 31/91/26 
f 29/89/41 28/93/41 62/94/41 
f 62/94/41 69/90/41 29/89/41 
f 17/95/26 30/88/26 68/87/26 
f 68/87/26 57/96/26 17/95/26 
f 27/97/2 26/68/2 63/67/2 
f 63/67/2 61/98/2 27/97/2 
f 28/93/6 31/91/6 58/92/6 
f 58/92/6 62/94/6 28/93/6 
f 18/99/6 17/95/6 57/96/6 
f 57/96/6 55/100/6 18/99/6 
f 35/35/42 18/99/43 55/100/42 
f 55/100/42 36/36/42 35/35/42 
f 41/45/26 9/76/26 8/77/44 
f 8/77/44 70/44/44 41/45/26 
f 70/44/44 8/77/44 13/78/45 
f 13/78/45 71/47/45 70/44/44 
f 71/47/45 13/78/45 7/79/3 
f 7/79/3 72/48/3 71/47/45 
f 72/48/3 7/79/3 6/80/46 
f 6/80/46 73/50/46 72/48/3 
f 73/50/46 6/80/46 5/81/47 
f 5/81/47 74/51/47 73/50/46 
f 74/51/47 5/81/47 12/82/1 
f 12/82/1 49/53/1 74/51/47 
# 0 polygons - 134 triangles

