# 3ds Max Wavefront OBJ Exporter v0.99 - (c)2007 guruware
# File Created: 22.06.2021 21:20:48

mtllib acc4.mtl

#
# object acc4
#

v  -0.5300 12.2652 22.2851
v  -0.5300 12.2652 17.3553
v  0.5300 12.2652 17.3553
v  0.5300 12.2652 22.2851
v  -2.0937 10.7709 13.1373
v  -1.5466 11.6792 13.8778
v  -1.1827 11.8848 14.0455
v  2.0937 8.6691 13.1373
v  -2.0937 8.6691 13.1373
v  2.0937 10.7709 13.1373
v  1.1827 11.8848 14.0455
v  1.5466 11.6792 13.8778
v  -2.4634 10.2825 27.7056
v  -2.4634 10.0550 27.9331
v  -2.4634 9.9717 28.2439
v  -2.4634 10.2825 28.7823
v  -2.4634 10.0550 28.5548
v  -2.2347 10.5934 27.0693
v  -2.2347 10.4124 27.1526
v  -2.4634 10.5934 27.6223
v  -2.2347 10.7744 27.1526
v  -2.4634 10.9042 27.7056
v  -2.4634 11.2150 28.2439
v  -2.4634 10.9042 28.7823
v  -2.4634 10.5934 28.8656
v  -2.4634 11.1317 27.9331
v  -2.4634 11.1317 28.5548
v  -0.0000 9.8791 9.8902
v  -0.5099 10.1735 9.8902
v  -0.5099 10.7623 9.8902
v  -0.4425 9.7014 10.1462
v  -0.7665 10.0254 10.1462
v  -0.8851 10.4679 10.1462
v  -0.7665 10.9105 10.1462
v  -0.4425 11.2344 10.1462
v  -0.0000 11.3530 10.1462
v  -0.0000 11.0567 9.8902
v  0.5099 10.7623 9.8902
v  0.5099 10.1735 9.8902
v  0.4425 11.2344 10.1462
v  0.7665 10.9105 10.1462
v  0.8851 10.4679 10.1462
v  0.7665 10.0254 10.1462
v  0.4425 9.7014 10.1462
v  -0.0000 9.5828 10.1462
v  2.0937 8.6691 29.6494
v  -2.0937 8.6691 29.6494
v  -1.8142 10.5934 27.0693
v  -1.8142 10.4124 27.1526
v  -1.8142 10.7744 27.1526
v  0.5300 10.7864 12.4658
v  -0.5300 10.7864 12.4658
v  -0.5300 11.3845 12.4658
v  0.5300 11.3845 12.4658
v  -0.5300 12.0287 22.2851
v  0.5300 12.0287 22.2851
v  -0.5300 12.0287 17.3553
v  0.5300 12.0287 17.3553
v  2.0937 10.7709 29.6494
v  1.5466 11.6792 28.4934
v  -0.5300 11.8066 13.7609
v  -0.5300 11.8057 13.0183
v  -0.5300 12.2744 14.4475
v  -0.5300 12.2345 14.1559
v  -0.5300 12.0287 27.2696
v  -0.5300 10.7864 27.2696
v  -0.5300 12.6685 26.1251
v  -0.5300 12.6685 16.8539
v  -0.5300 12.4596 16.5102
v  -0.5300 12.4571 15.6715
v  -0.5300 12.5697 14.5765
v  -0.5300 12.5697 15.4954
v  -0.0000 11.3530 13.5038
v  0.7665 10.9105 13.5038
v  0.7665 10.0254 13.5038
v  -0.0000 9.5828 13.5038
v  1.1827 11.8848 28.2318
v  -1.1827 11.8848 28.2318
v  -1.5466 11.6792 28.4934
v  -0.7665 10.0254 13.5038
v  -0.7665 10.9105 13.5038
v  -1.8142 10.0550 28.5548
v  -1.8142 10.2825 28.7823
v  -1.8142 9.9717 28.2439
v  -1.8142 10.0550 27.9331
v  -1.8142 10.2825 27.7056
v  -2.0937 10.7709 29.6494
v  0.5300 10.7864 27.2696
v  0.5300 12.0287 27.2696
v  0.5300 12.6685 26.1251
v  0.5300 12.6685 16.8539
v  0.5300 12.4596 16.5102
v  0.5300 12.4571 15.6715
v  0.5300 12.2744 14.4475
v  0.5300 12.5697 14.5765
v  0.5300 12.5697 15.4954
v  0.5300 11.8057 13.0183
v  0.5300 11.8066 13.7609
v  0.5300 12.2345 14.1559
v  -1.8142 10.5934 28.8656
v  -1.8142 10.9042 28.7823
v  -1.8142 10.9042 27.7056
v  -1.8142 11.1317 27.9331
v  -1.8142 11.2150 28.2439
v  -1.8142 11.1317 28.5548
# 105 vertices

vn 0.0000 -1.0000 -0.0000
vn -0.6735 0.3326 -0.6601
vn -0.5292 0.7921 -0.3041
vn -0.1572 0.8879 -0.4324
vn 0.7071 0.0000 -0.7071
vn -0.7071 0.0000 -0.7071
vn 0.6735 0.3326 -0.6601
vn 0.1572 0.8879 -0.4324
vn 0.5292 0.7921 -0.3041
vn -0.9924 -0.0364 -0.1179
vn -1.0000 0.0000 -0.0000
vn -1.0000 -0.0000 -0.0000
vn -1.0000 -0.0000 0.0000
vn -0.9189 0.0078 -0.3944
vn -0.8907 -0.1901 -0.4130
vn -0.9729 0.0054 -0.2310
vn -0.9104 0.1567 -0.3830
vn -0.9919 0.0328 -0.1224
vn -1.0000 0.0000 0.0000
vn 0.0299 -0.4178 -0.9080
vn -0.3469 -0.2348 -0.9080
vn -0.3768 0.1830 -0.9080
vn -0.4603 -0.7483 -0.4776
vn -0.7674 -0.4685 -0.4377
vn -0.8782 0.0245 -0.4776
vn -0.7894 0.4304 -0.4377
vn -0.4179 0.7728 -0.4776
vn -0.0148 0.9554 -0.2951
vn -0.0299 0.4178 -0.9080
vn 0.3469 0.2348 -0.9080
vn 0.3768 -0.1830 -0.9080
vn 0.4603 0.7483 -0.4776
vn 0.7674 0.4685 -0.4377
vn 0.8782 -0.0245 -0.4776
vn 0.7894 -0.4304 -0.4377
vn 0.4179 -0.7728 -0.4776
vn 0.0148 -0.9554 -0.2951
vn 0.0000 -0.4180 -0.9084
vn 0.0000 0.4180 -0.9084
vn 0.0000 0.0000 -1.0000
vn 0.0000 0.4437 -0.8962
vn 0.0000 1.0000 -0.0000
vn 0.0000 0.0000 1.0000
vn 0.7071 0.0000 0.7071
vn 0.6751 0.3778 0.6336
vn 0.5126 0.8259 0.2348
vn -0.0000 0.9993 0.0369
vn 0.8654 0.4997 0.0369
vn 0.8654 -0.4997 0.0369
vn 0.0000 -0.9993 0.0369
vn 0.1563 0.9309 0.3302
vn -0.1563 0.9309 0.3302
vn -0.5126 0.8259 0.2348
vn -0.8654 -0.4997 0.0369
vn -0.8654 0.4997 0.0369
vn 0.0000 -0.8660 0.5000
vn 0.0000 -0.5000 0.8660
vn 0.0000 -0.8660 -0.5000
vn 0.0000 -0.8737 -0.4864
vn 0.0000 -0.8538 -0.5206
vn 0.0000 -0.9735 -0.2286
vn -0.6751 0.3778 0.6336
vn -0.7071 0.0000 0.7071
vn 1.0000 -0.0000 0.0000
vn 1.0000 0.0000 0.0000
vn 1.0000 0.0000 -0.0000
vn 0.0000 -0.0000 1.0000
vn 0.0000 0.5000 0.8660
vn 0.0000 0.9735 -0.2286
vn 0.0000 0.8538 -0.5206
vn 0.0000 0.8737 -0.4864
vn 0.0000 0.8660 -0.5000
vn 0.0000 0.8660 0.5000
vn -0.0000 0.9473 -0.3205
vn 0.0000 0.9473 -0.3205
vn 0.0000 0.9158 -0.4016
vn 0.0000 0.8867 -0.4624
vn 0.0000 0.7976 -0.6031
vn 0.0000 0.4004 -0.9164
vn 0.0000 0.9598 0.2806
vn 0.0000 0.9602 0.2792
vn 0.0000 0.9625 -0.2712
vn 0.0000 0.9629 -0.2697
vn 0.0000 0.9677 0.2521
vn 0.0000 0.5060 0.8625
# 85 vertex normals

vt 1.9844 0.5010 0.5010
vt 1.9844 0.5337 0.5337
vt 1.9775 0.5337 0.5337
vt 1.9775 0.5010 0.5010
vt 1.9727 0.3384 0.3384
vt 1.9551 0.3447 0.3447
vt 1.9531 0.3491 0.3491
vt 1.9980 0.3892 0.3892
vt 1.9980 0.3384 0.3384
vt 1.9727 0.3892 0.3892
vt 1.9531 0.3779 0.3779
vt 1.9551 0.3823 0.3823
vt 0.7393 0.5046 0.5046
vt 0.7417 0.5020 0.5020
vt 0.7456 0.5010 0.5010
vt 0.7520 0.5046 0.5046
vt 0.7495 0.5020 0.5020
vt 0.7319 0.5085 0.5085
vt 0.7329 0.5063 0.5063
vt 0.7383 0.5085 0.5085
vt 0.7329 0.5105 0.5105
vt 0.7393 0.5122 0.5122
vt 0.7456 0.5159 0.5159
vt 0.7520 0.5122 0.5122
vt 0.7529 0.5085 0.5085
vt 0.7417 0.5149 0.5149
vt 0.7495 0.5149 0.5149
vt 0.7637 0.4336 0.4336
vt 0.7676 0.4355 0.4355
vt 0.7676 0.4404 0.4404
vt 0.7671 0.4321 0.4321
vt 0.7695 0.4346 0.4346
vt 0.7705 0.4380 0.4380
vt 0.7695 0.4414 0.4414
vt 0.7671 0.4438 0.4438
vt 0.7637 0.4448 0.4448
vt 0.7637 0.4424 0.4424
vt 0.7593 0.4404 0.4404
vt 0.7593 0.4355 0.4355
vt 0.7603 0.4438 0.4438
vt 0.7573 0.4414 0.4414
vt 0.7563 0.4380 0.4380
vt 0.7573 0.4346 0.4346
vt 0.7603 0.4321 0.4321
vt 0.7637 0.4312 0.4312
vt 1.7070 0.5000 0.5000
vt 1.7070 0.6643 0.6643
vt 1.7285 0.6643 0.6643
vt 1.7285 0.5000 0.5000
vt 1.7344 0.5793 0.5793
vt 1.7344 0.5771 0.5771
vt 1.7402 0.5771 0.5771
vt 1.7402 0.5793 0.5793
vt 0.7349 0.5771 0.5771
vt 0.7349 0.5793 0.5793
vt 0.7402 0.5793 0.5793
vt 0.7402 0.5771 0.5771
vt 1.7734 0.3701 0.3701
vt 1.7734 0.3574 0.3574
vt 1.7646 0.3574 0.3574
vt 1.7646 0.3701 0.3701
vt 1.9844 0.5352 0.5352
vt 1.9775 0.5352 0.5352
vt 0.9849 0.5337 0.5337
vt 0.9849 0.5010 0.5010
vt 0.9780 0.5010 0.5010
vt 0.9780 0.5337 0.5337
vt 0.9849 0.5352 0.5352
vt 0.9780 0.5352 0.5352
vt 1.6963 0.6528 0.6528
vt 1.6963 0.5071 0.5071
vt 0.6948 0.5061 0.5061
vt 0.6948 0.4985 0.4985
vt 0.6992 0.4932 0.4932
vt 0.6899 0.5129 0.5129
vt 0.6904 0.5100 0.5100
vt 0.6924 0.5417 0.5417
vt 0.6924 0.5908 0.5908
vt 0.6924 0.6406 0.6406
vt 0.7051 0.4932 0.4932
vt 0.7051 0.6406 0.6406
vt 0.6904 0.5908 0.5908
vt 0.6860 0.6292 0.6292
vt 0.6904 0.5417 0.5417
vt 0.6860 0.5369 0.5369
vt 0.6885 0.5334 0.5334
vt 0.6885 0.5251 0.5251
vt 0.6870 0.5142 0.5142
vt 0.6870 0.5232 0.5232
vt 1.5068 0.3682 0.3682
vt 1.5029 0.3682 0.3682
vt 1.5029 0.3403 0.3403
vt 1.5107 0.3403 0.3403
vt 1.5107 0.3682 0.3682
vt 1.5146 0.3682 0.3682
vt 1.5186 0.3403 0.3403
vt 1.5186 0.3682 0.3682
vt 1.5225 0.3682 0.3682
vt 1.5273 0.3403 0.3403
vt 1.5273 0.3682 0.3682
vt 0.8525 0.4370 0.4370
vt 0.9980 0.4370 0.4370
vt 0.9961 0.4419 0.4419
vt 0.8550 0.4419 0.4419
vt 0.9961 0.4658 0.4658
vt 0.8550 0.4658 0.4658
vt 0.8525 0.4707 0.4707
vt 0.9980 0.4707 0.4707
vt 0.5229 0.3682 0.3682
vt 0.5273 0.3682 0.3682
vt 0.5273 0.3403 0.3403
vt 0.5190 0.3403 0.3403
vt 0.5190 0.3682 0.3682
vt 0.5151 0.3682 0.3682
vt 0.5107 0.3403 0.3403
vt 0.5107 0.3682 0.3682
vt 0.5068 0.3682 0.3682
vt 0.5029 0.3403 0.3403
vt 0.5029 0.3682 0.3682
vt 1.7344 0.5596 0.5596
vt 1.7344 0.5569 0.5569
vt 1.7432 0.5569 0.5569
vt 1.7432 0.5596 0.5596
vt 1.7344 0.5635 0.5635
vt 1.7432 0.5635 0.5635
vt 1.7344 0.5674 0.5674
vt 1.7432 0.5674 0.5674
vt 1.7344 0.5703 0.5703
vt 1.7432 0.5703 0.5703
vt 0.6963 0.6528 0.6528
vt 0.6963 0.5071 0.5071
vt 0.7075 0.5000 0.5000
vt 0.7075 0.6643 0.6643
vt 0.7285 0.6643 0.6643
vt 0.7285 0.5000 0.5000
vt 1.7051 0.6406 0.6406
vt 1.7051 0.4932 0.4932
vt 1.6992 0.4932 0.4932
vt 1.6924 0.5908 0.5908
vt 1.6924 0.6406 0.6406
vt 1.6904 0.5908 0.5908
vt 1.6855 0.6292 0.6292
vt 1.6904 0.5417 0.5417
vt 1.6855 0.5369 0.5369
vt 1.6885 0.5334 0.5334
vt 1.6924 0.5417 0.5417
vt 1.6885 0.5251 0.5251
vt 1.6895 0.5129 0.5129
vt 1.6865 0.5142 0.5142
vt 1.6865 0.5232 0.5232
vt 1.6943 0.4985 0.4985
vt 1.6943 0.5061 0.5061
vt 1.6904 0.5100 0.5100
vt 0.7349 0.5530 0.5530
vt 0.7349 0.5569 0.5569
vt 0.7432 0.5569 0.5569
vt 0.7432 0.5530 0.5530
vt 0.7349 0.5491 0.5491
vt 0.7432 0.5491 0.5491
vt 0.7432 0.5703 0.5703
vt 0.7349 0.5703 0.5703
vt 0.7349 0.5674 0.5674
vt 0.7432 0.5674 0.5674
vt 0.7349 0.5635 0.5635
vt 0.7432 0.5635 0.5635
vt 0.7349 0.5596 0.5596
vt 0.7432 0.5596 0.5596
vt 0.7651 0.3701 0.3701
vt 0.7651 0.3574 0.3574
vt 0.7739 0.3574 0.3574
vt 0.7739 0.3701 0.3701
vt 0.7832 0.3574 0.3574
vt 0.7832 0.3701 0.3701
vt 0.7900 0.3574 0.3574
vt 0.7900 0.3701 0.3701
vt 0.7935 0.3701 0.3701
vt 0.7935 0.3574 0.3574
vt 0.7974 0.3574 0.3574
vt 0.7974 0.3701 0.3701
vt 0.9531 0.3779 0.3779
vt 0.9531 0.3491 0.3491
vt 0.9556 0.3447 0.3447
vt 0.9556 0.3823 0.3823
vt 0.9727 0.3384 0.3384
vt 0.9727 0.3892 0.3892
vt 0.9980 0.3892 0.3892
vt 0.9980 0.3384 0.3384
vt 0.8086 0.3574 0.3574
vt 0.8086 0.3701 0.3701
vt 0.8105 0.3574 0.3574
vt 0.8105 0.3701 0.3701
vt 0.8208 0.3574 0.3574
vt 0.8208 0.3701 0.3701
vt 0.8252 0.3574 0.3574
vt 0.8252 0.3701 0.3701
vt 0.9375 0.3701 0.3701
vt 0.9375 0.3574 0.3574
vt 0.9517 0.3574 0.3574
vt 0.9517 0.3701 0.3701
vt 0.9668 0.3701 0.3701
vt 0.9668 0.3574 0.3574
# 201 texture coords

o acc4
g acc4
usemtl mat_patrol_smg_INST
s 1
f 1/1/1 2/2/1 3/3/1 
f 3/3/1 4/4/1 1/1/1 
f 5/5/2 6/6/3 7/7/4 
f 8/8/5 9/9/6 5/5/2 
f 5/5/2 10/10/7 8/8/5 
f 10/10/7 5/5/2 7/7/4 
f 11/11/8 10/10/7 7/7/4 
f 11/11/8 12/12/9 10/10/7 
f 13/13/10 14/14/11 15/15/12 
f 13/13/10 15/15/12 16/16/12 
f 15/15/12 17/17/13 16/16/12 
f 18/18/14 19/19/15 13/13/10 
f 13/13/10 20/20/16 18/18/14 
f 21/21/17 18/18/14 20/20/16 
f 20/20/16 22/22/18 21/21/17 
f 22/22/18 20/20/16 13/13/10 
f 23/23/11 22/22/18 13/13/10 
f 23/23/11 13/13/10 16/16/12 
f 24/24/11 23/23/11 16/16/12 
f 25/25/11 24/24/11 16/16/12 
f 23/23/11 26/26/11 22/22/18 
f 24/24/11 27/27/19 23/23/11 
f 28/28/20 29/29/21 30/30/22 
f 28/28/20 31/31/23 32/32/24 
f 32/32/24 29/29/21 28/28/20 
f 29/29/21 32/32/24 33/33/25 
f 29/29/21 33/33/25 34/34/26 
f 34/34/26 30/30/22 29/29/21 
f 30/30/22 34/34/26 35/35/27 
f 30/30/22 35/35/27 36/36/28 
f 36/36/28 37/37/29 30/30/22 
f 30/30/22 37/37/29 38/38/30 
f 28/28/20 30/30/22 38/38/30 
f 39/39/31 28/28/20 38/38/30 
f 37/37/29 36/36/28 40/40/32 
f 37/37/29 40/40/32 41/41/33 
f 41/41/33 38/38/30 37/37/29 
f 38/38/30 41/41/33 42/42/34 
f 38/38/30 42/42/34 43/43/35 
f 43/43/35 39/39/31 38/38/30 
f 39/39/31 43/43/35 44/44/36 
f 39/39/31 44/44/36 45/45/37 
f 45/45/37 28/28/20 39/39/31 
f 28/28/20 45/45/37 31/31/23 
f 8/46/1 46/47/1 47/48/1 
f 47/48/1 9/49/1 8/46/1 
f 48/50/38 49/51/38 19/52/38 
f 19/52/38 18/53/38 48/50/38 
f 50/54/39 48/55/39 18/56/39 
f 18/56/39 21/57/39 50/54/39 
f 51/58/40 52/59/40 53/60/41 
f 53/60/41 54/61/41 51/58/40 
f 55/62/40 1/2/40 4/3/40 
f 4/3/40 56/63/40 55/62/40 
f 57/64/42 55/65/42 56/66/42 
f 56/66/42 58/67/42 57/64/42 
f 2/64/43 57/68/43 58/69/43 
f 58/69/43 3/67/43 2/64/43 
f 46/48/44 8/49/5 10/46/7 
f 10/46/7 59/47/45 46/48/44 
f 60/70/46 59/47/45 10/46/7 
f 10/46/7 12/71/9 60/70/46 
f 61/72/11 62/73/11 53/74/11 
f 63/75/11 64/76/11 61/72/11 
f 57/77/11 63/75/11 61/72/11 
f 55/78/12 57/77/11 61/72/11 
f 65/79/12 55/78/12 61/72/11 
f 65/79/12 61/72/11 53/74/11 
f 65/79/12 53/74/11 52/80/11 
f 65/79/12 52/80/11 66/81/12 
f 1/82/11 55/78/12 65/79/12 
f 65/79/12 67/83/11 1/82/11 
f 2/84/12 1/82/11 67/83/11 
f 67/83/11 68/85/12 2/84/12 
f 68/85/12 69/86/12 2/84/12 
f 57/77/11 2/84/12 69/86/12 
f 57/77/11 69/86/12 70/87/12 
f 57/77/11 70/87/12 63/75/11 
f 70/87/12 71/88/11 63/75/11 
f 70/87/12 72/89/12 71/88/11 
f 40/90/32 36/91/28 73/92/47 
f 40/90/32 73/92/47 74/93/48 
f 40/90/32 74/93/48 41/94/33 
f 41/94/33 74/93/48 42/95/34 
f 74/93/48 75/96/49 42/95/34 
f 75/96/49 43/97/35 42/95/34 
f 44/98/36 43/97/35 75/96/49 
f 44/98/36 75/96/49 76/99/50 
f 44/98/36 76/99/50 45/100/37 
f 60/101/46 12/102/9 11/103/8 
f 11/103/8 77/104/51 60/101/46 
f 77/104/51 11/103/8 7/105/4 
f 7/105/4 78/106/52 77/104/51 
f 79/107/53 78/106/52 7/105/4 
f 7/105/4 6/108/3 79/107/53 
f 31/109/23 45/110/37 76/111/50 
f 31/109/23 76/111/50 80/112/54 
f 31/109/23 80/112/54 32/113/24 
f 33/114/25 32/113/24 80/112/54 
f 33/114/25 80/112/54 81/115/55 
f 33/114/25 81/115/55 34/116/26 
f 35/117/27 34/116/26 81/115/55 
f 35/117/27 81/115/55 73/118/47 
f 35/117/27 73/118/47 36/119/28 
f 82/120/56 83/121/57 16/122/57 
f 16/122/57 17/123/56 82/120/56 
f 84/124/1 82/120/56 17/123/56 
f 17/123/56 15/125/1 84/124/1 
f 85/126/58 84/124/1 15/125/1 
f 15/125/1 14/127/58 85/126/58 
f 86/128/59 85/126/58 14/127/58 
f 14/127/58 13/129/60 86/128/59 
f 86/128/59 13/129/60 19/52/61 
f 19/52/61 49/51/61 86/128/59 
f 79/130/53 6/131/3 5/132/2 
f 5/132/2 87/133/62 79/130/53 
f 47/134/63 87/133/62 5/132/2 
f 5/132/2 9/135/6 47/134/63 
f 88/136/64 51/137/65 54/138/65 
f 88/136/64 54/138/65 56/139/64 
f 89/140/65 88/136/64 56/139/64 
f 89/140/65 56/139/64 4/141/65 
f 4/141/65 90/142/65 89/140/65 
f 90/142/65 4/141/65 3/143/64 
f 3/143/64 91/144/64 90/142/65 
f 91/144/64 3/143/64 92/145/64 
f 58/146/65 92/145/64 3/143/64 
f 58/146/65 93/147/64 92/145/64 
f 58/146/65 94/148/65 93/147/64 
f 94/148/65 95/149/66 93/147/64 
f 95/149/66 96/150/66 93/147/64 
f 54/138/65 97/151/65 98/152/65 
f 54/138/65 98/152/65 56/139/64 
f 98/152/65 58/146/65 56/139/64 
f 58/146/65 98/152/65 94/148/65 
f 98/152/65 99/153/65 94/148/65 
f 100/154/67 101/155/68 24/156/68 
f 24/156/68 25/157/67 100/154/67 
f 83/158/57 100/154/67 25/157/67 
f 25/157/67 16/159/57 83/158/57 
f 50/54/69 21/57/69 22/160/70 
f 22/160/70 102/161/71 50/54/69 
f 103/162/72 102/161/71 22/160/70 
f 22/160/70 26/163/72 103/162/72 
f 104/164/42 103/162/72 26/163/72 
f 26/163/72 23/165/42 104/164/42 
f 105/166/73 104/164/42 23/165/42 
f 23/165/42 27/167/73 105/166/73 
f 101/155/68 105/166/73 27/167/73 
f 27/167/73 24/156/68 101/155/68 
f 54/168/41 53/169/41 62/170/74 
f 62/170/74 97/171/75 54/168/41 
f 97/171/75 62/170/74 61/172/76 
f 61/172/76 98/173/76 97/171/75 
f 98/173/76 61/172/76 64/174/77 
f 64/174/77 99/175/77 98/173/76 
f 94/176/78 99/175/77 64/174/77 
f 64/174/77 63/177/78 94/176/78 
f 94/176/78 63/177/78 71/178/79 
f 71/178/79 95/179/79 94/176/78 
f 77/180/51 78/181/52 79/182/53 
f 79/182/53 60/183/46 77/180/51 
f 60/183/46 79/182/53 87/184/62 
f 87/184/62 59/185/45 60/183/46 
f 46/186/44 59/185/45 87/184/62 
f 87/184/62 47/187/63 46/186/44 
f 95/179/42 71/178/42 72/188/80 
f 72/188/80 96/189/80 95/179/42 
f 96/189/80 72/188/80 70/190/81 
f 70/190/81 93/191/81 96/189/80 
f 93/191/81 70/190/81 69/192/82 
f 69/192/82 92/193/82 93/191/81 
f 92/193/82 69/192/82 68/194/83 
f 68/194/83 91/195/83 92/193/82 
f 90/196/84 91/195/83 68/194/83 
f 68/194/83 67/197/84 90/196/84 
f 90/196/84 67/197/84 65/198/85 
f 65/198/85 89/199/85 90/196/84 
f 88/200/43 89/199/85 65/198/85 
f 65/198/85 66/201/43 88/200/43 
# 0 polygons - 180 triangles

