# 3ds Max Wavefront OBJ Exporter v0.99 - (c)2007 guruware
# File Created: 22.06.2021 21:33:49

mtllib mag1.mtl

#
# object mag1
#

v  0.5724 3.1891 24.6152
v  -0.5724 3.1891 24.6152
v  -0.5724 2.6265 24.6152
v  0.5724 2.6265 24.6152
v  0.8842 2.0639 24.3942
v  0.8842 1.8539 24.6249
v  0.8843 -9.3738 24.6249
v  0.8843 -9.5367 24.3942
v  0.8842 2.0639 23.9950
v  0.8843 -9.5367 23.9950
v  1.2232 2.6265 23.2061
v  0.4698 2.6265 24.4932
v  0.4698 1.9491 24.4932
v  1.2232 1.9491 23.2061
v  1.2232 2.6265 19.8482
v  1.2232 1.9491 19.8482
v  0.4698 2.6265 18.5611
v  0.4698 1.9491 18.5611
v  1.3671 3.1891 23.2061
v  1.3671 2.6265 23.2061
v  1.3671 2.6265 19.8482
v  1.3671 3.1891 19.8482
v  0.5724 3.1891 18.4390
v  0.5724 2.6265 18.4390
v  -0.8842 2.0639 23.9950
v  -0.8842 2.0639 24.3942
v  -0.8842 1.8539 24.6249
v  0.8842 2.0639 18.6601
v  0.8842 1.8539 18.4293
v  -0.8842 1.8539 18.4293
v  -0.8842 2.0639 18.6601
v  0.8842 2.0639 19.0593
v  -0.8842 2.0639 19.0593
v  1.2808 2.0639 19.2422
v  -1.2808 2.0639 19.2422
v  1.2808 2.0639 23.8120
v  -1.2808 2.0639 23.8120
v  0.8843 -9.5367 18.6601
v  0.8843 -9.5367 19.0593
v  -0.8842 -9.5367 19.0593
v  -0.8842 -9.5367 18.6601
v  0.8843 -9.3738 18.4293
v  -0.8842 -9.3738 18.4293
v  -0.8842 -9.3738 24.6249
v  -0.8842 -9.5367 24.3942
v  -0.8842 -9.5367 23.9950
v  1.2808 -9.6960 23.8120
v  -1.2808 -9.6960 23.8120
v  1.2808 -9.6960 19.2422
v  -1.2808 -9.6960 19.2422
v  -1.3670 3.1891 23.2061
v  -1.3670 2.6265 23.2061
v  -1.3670 2.6265 19.8482
v  -1.3670 3.1891 19.8482
v  -0.5724 3.1891 18.4390
v  -0.5724 2.6265 18.4390
v  -0.4698 2.6265 24.4932
v  -0.4698 1.9491 24.4932
v  -0.4698 1.9491 18.5611
v  -0.4698 2.6265 18.5611
v  -1.2232 2.6265 23.2061
v  -1.2232 1.9491 23.2061
v  -1.2232 2.6265 19.8482
v  -1.2232 1.9491 19.8482
# 64 vertices

vn 0.0000 0.0000 1.0000
vn 1.0000 0.0000 -0.0000
vn 0.9651 0.0000 0.2617
vn 0.8630 -0.0000 0.5052
vn 0.9651 0.0000 -0.2617
vn 0.8630 0.0000 -0.5052
vn 0.9672 0.0000 0.2539
vn 0.8710 0.0000 0.4912
vn 0.9672 0.0000 -0.2539
vn 0.8710 0.0000 -0.4912
vn -0.0000 0.9326 0.3608
vn -0.0000 1.0000 0.0000
vn -0.0000 1.0000 -0.0000
vn -0.0000 0.7396 0.6730
vn -0.0000 0.9327 -0.3607
vn -0.0000 0.7398 -0.6729
vn 0.0000 -0.9531 -0.3025
vn 0.0000 -0.9005 -0.4349
vn 0.0000 -0.8170 -0.5767
vn 0.0000 -0.9531 0.3026
vn 0.0000 -0.8169 0.5768
vn 0.0000 -0.9006 0.4347
vn 0.0000 -0.9839 0.1787
vn 0.0000 -0.9839 -0.1787
vn -0.8710 -0.0000 0.4912
vn -0.9672 -0.0000 0.2539
vn -0.9672 -0.0000 -0.2539
vn -0.8710 -0.0000 -0.4912
vn 0.0000 -1.0000 -0.0000
vn 0.0000 -0.0000 1.0000
vn -0.0000 0.0000 -1.0000
vn 0.0000 0.0000 -1.0000
vn 0.4190 0.0000 0.9080
vn 0.4188 0.0000 -0.9081
vn -1.0000 -0.0000 -0.0000
vn -1.0000 -0.0000 0.0000
vn -0.4190 -0.0000 0.9080
vn -0.4188 -0.0000 -0.9081
vn 1.0000 0.0000 0.0000
vn -0.8630 -0.0000 0.5052
vn -0.9651 -0.0000 0.2617
vn -0.9651 -0.0000 -0.2617
vn -0.8630 -0.0000 -0.5052
# 43 vertex normals

vt 0.4871 0.7390 0.7390
vt 0.4871 0.7300 0.7300
vt 0.4915 0.7300 0.7300
vt 0.4915 0.7390 0.7390
vt 0.4712 0.7792 0.7792
vt 0.4729 0.7776 0.7776
vt 0.4729 0.6919 0.6919
vt 0.4712 0.6907 0.6907
vt 0.4680 0.7792 0.7792
vt 0.4680 0.6907 0.6907
vt 0.4978 0.7720 0.7720
vt 0.4978 0.7838 0.7838
vt 0.4924 0.7838 0.7838
vt 0.4924 0.7720 0.7720
vt 0.4978 0.7456 0.7456
vt 0.4924 0.7456 0.7456
vt 0.4978 0.7339 0.7339
vt 0.4924 0.7339 0.7339
vt 0.4871 0.7516 0.7516
vt 0.4915 0.7516 0.7516
vt 0.4915 0.7780 0.7780
vt 0.4871 0.7780 0.7780
vt 0.4871 0.7906 0.7906
vt 0.4915 0.7906 0.7906
vt 0.4692 0.7958 0.7958
vt 0.4661 0.7958 0.7958
vt 0.4661 0.7822 0.7822
vt 0.4692 0.7822 0.7822
vt 0.4717 0.7958 0.7958
vt 0.4717 0.7822 0.7822
vt 0.4253 0.7958 0.7958
vt 0.4229 0.7958 0.7958
vt 0.4229 0.7822 0.7822
vt 0.4253 0.7822 0.7822
vt 0.4282 0.7958 0.7958
vt 0.4282 0.7822 0.7822
vt 0.4297 0.7988 0.7988
vt 0.4297 0.7792 0.7792
vt 0.4648 0.7988 0.7988
vt 0.4648 0.7792 0.7792
vt 0.4248 0.6729 0.6729
vt 0.4280 0.6729 0.6729
vt 0.4280 0.6863 0.6863
vt 0.4248 0.6863 0.6863
vt 0.4226 0.6729 0.6729
vt 0.4226 0.6863 0.6863
vt 0.4697 0.6729 0.6729
vt 0.4719 0.6729 0.6729
vt 0.4719 0.6863 0.6863
vt 0.4697 0.6863 0.6863
vt 0.4666 0.6729 0.6729
vt 0.4666 0.6863 0.6863
vt 0.4648 0.6697 0.6697
vt 0.4648 0.6895 0.6895
vt 0.4297 0.6697 0.6697
vt 0.4297 0.6895 0.6895
vt 0.4871 0.7173 0.7173
vt 0.4915 0.7173 0.7173
vt 0.4915 0.6909 0.6909
vt 0.4871 0.6909 0.6909
vt 0.4871 0.6782 0.6782
vt 0.4915 0.6782 0.6782
vt 0.4211 0.8107 0.8107
vt 0.4211 0.8049 0.8049
vt 0.4280 0.8009 0.8009
vt 0.4282 0.8146 0.8146
vt 0.4448 0.8008 0.8008
vt 0.4448 0.8145 0.8145
vt 0.4517 0.8047 0.8047
vt 0.4519 0.8104 0.8104
vt 0.4592 0.8140 0.8140
vt 0.4814 0.8101 0.8101
vt 0.4751 0.8138 0.8138
vt 0.4814 0.8047 0.8047
vt 0.4749 0.8009 0.8009
vt 0.4592 0.8011 0.8011
vt 0.4526 0.8049 0.8049
vt 0.4526 0.8103 0.8103
vt 0.4866 0.6919 0.6919
vt 0.4866 0.7776 0.7776
vt 0.4080 0.7776 0.7776
vt 0.4080 0.6919 0.6919
vt 0.4216 0.6919 0.6919
vt 0.4216 0.7776 0.7776
vt 0.4265 0.6907 0.6907
vt 0.4263 0.7792 0.7792
vt 0.4233 0.6907 0.6907
vt 0.4233 0.7792 0.7792
vt 0.4924 0.6692 0.6692
vt 0.4978 0.6692 0.6692
vt 0.4978 0.6768 0.6768
vt 0.4924 0.6768 0.6768
vt 0.4924 0.7266 0.7266
vt 0.4978 0.7266 0.7266
vt 0.4871 0.6694 0.6694
vt 0.4915 0.6694 0.6694
vt 0.4978 0.6885 0.6885
vt 0.4924 0.6885 0.6885
vt 0.4978 0.7148 0.7148
vt 0.4924 0.7148 0.7148
# 100 texture coords

o mag1
g mag1
usemtl mat_patrol_smg_INST
s 1
f 1/1/1 2/2/1 3/3/1 
f 3/3/1 4/4/1 1/1/1 
f 5/5/2 6/6/2 7/7/2 
f 7/7/2 8/8/2 5/5/2 
f 9/9/2 5/5/2 8/8/2 
f 8/8/2 10/10/2 9/9/2 
f 11/11/3 12/12/4 13/13/4 
f 13/13/4 14/14/3 11/11/3 
f 15/15/5 11/11/3 14/14/3 
f 14/14/3 16/16/5 15/15/5 
f 17/17/6 15/15/5 16/16/5 
f 16/16/5 18/18/6 17/17/6 
f 19/19/7 1/1/8 4/4/8 
f 4/4/8 20/20/7 19/19/7 
f 19/19/7 20/20/7 21/21/9 
f 21/21/9 22/22/9 19/19/7 
f 23/23/10 22/22/9 21/21/9 
f 21/21/9 24/24/10 23/23/10 
f 5/25/11 9/26/12 25/27/13 
f 25/27/13 26/28/11 5/25/11 
f 6/29/14 5/25/11 26/28/11 
f 26/28/11 27/30/14 6/29/14 
f 28/31/15 29/32/16 30/33/16 
f 30/33/16 31/34/15 28/31/15 
f 32/35/12 28/31/15 31/34/15 
f 31/34/15 33/36/12 32/35/12 
f 34/37/12 32/35/12 33/36/12 
f 33/36/12 35/38/12 34/37/12 
f 36/39/12 34/37/12 35/38/12 
f 35/38/12 37/40/12 36/39/12 
f 9/26/12 36/39/12 37/40/12 
f 37/40/12 25/27/13 9/26/12 
f 38/41/17 39/42/18 40/43/18 
f 40/43/18 41/44/17 38/41/17 
f 42/45/19 38/41/17 41/44/17 
f 41/44/17 43/46/19 42/45/19 
f 8/47/20 7/48/21 44/49/21 
f 44/49/21 45/50/20 8/47/20 
f 10/51/22 8/47/20 45/50/20 
f 45/50/20 46/52/22 10/51/22 
f 47/53/23 10/51/22 46/52/22 
f 46/52/22 48/54/23 47/53/23 
f 49/55/24 47/53/23 48/54/23 
f 48/54/23 50/56/24 49/55/24 
f 39/42/18 49/55/24 50/56/24 
f 50/56/24 40/43/18 39/42/18 
f 3/3/25 2/2/25 51/57/26 
f 51/57/26 52/58/26 3/3/25 
f 53/59/27 52/58/26 51/57/26 
f 51/57/26 54/60/27 53/59/27 
f 53/59/27 54/60/27 55/61/28 
f 55/61/28 56/62/28 53/59/27 
f 23/63/12 55/64/12 54/65/12 
f 54/65/12 22/66/12 23/63/12 
f 22/66/12 54/65/12 51/67/12 
f 51/67/12 19/68/12 22/66/12 
f 19/68/12 51/67/12 2/69/12 
f 2/69/12 1/70/12 19/68/12 
f 53/71/29 3/72/29 52/73/29 
f 4/74/29 3/72/29 53/71/29 
f 53/71/29 20/75/29 4/74/29 
f 21/76/29 20/75/29 53/71/29 
f 53/71/29 24/77/29 21/76/29 
f 53/71/29 56/78/29 24/77/29 
f 7/79/30 6/80/30 27/6/30 
f 27/6/30 44/7/30 7/79/30 
f 29/81/31 42/82/32 43/83/31 
f 43/83/31 30/84/31 29/81/31 
f 36/40/33 9/9/33 10/10/33 
f 10/10/33 47/54/33 36/40/33 
f 49/56/34 39/85/34 32/86/34 
f 32/86/34 34/38/34 49/56/34 
f 49/56/2 34/38/2 36/40/2 
f 36/40/2 47/54/2 49/56/2 
f 30/84/35 43/83/35 41/87/36 
f 41/87/36 31/88/36 30/84/35 
f 31/88/36 41/87/36 40/85/36 
f 40/85/36 33/86/36 31/88/36 
f 46/10/37 25/9/37 37/40/37 
f 37/40/37 48/54/37 46/10/37 
f 33/86/38 40/85/38 50/56/38 
f 50/56/38 35/38/38 33/86/38 
f 37/40/36 35/38/36 50/56/36 
f 50/56/36 48/54/36 37/40/36 
f 13/89/1 12/90/1 57/91/1 
f 57/91/1 58/92/1 13/89/1 
f 17/17/32 18/18/32 59/93/32 
f 59/93/32 60/94/32 17/17/32 
f 23/95/32 24/96/32 56/62/32 
f 56/62/32 55/61/32 23/95/32 
f 38/87/2 42/83/2 29/84/39 
f 29/84/39 28/88/39 38/87/2 
f 39/85/39 38/87/2 28/88/39 
f 28/88/39 32/86/39 39/85/39 
f 58/92/40 57/91/40 61/97/41 
f 61/97/41 62/98/41 58/92/40 
f 62/98/41 61/97/41 63/99/42 
f 63/99/42 64/100/42 62/98/41 
f 64/100/42 63/99/42 60/94/43 
f 60/94/43 59/93/43 64/100/42 
f 44/7/36 27/6/35 26/5/35 
f 26/5/35 45/8/36 44/7/36 
f 45/8/36 26/5/35 25/9/35 
f 25/9/35 46/10/35 45/8/36 
# 0 polygons - 104 triangles

