# 3ds Max Wavefront OBJ Exporter v0.99 - (c)2007 guruware
# File Created: 22.06.2021 21:34:34

mtllib mag3.mtl

#
# object mag3
#

v  0.9865 3.2076 18.3610
v  0.9862 3.2120 24.6450
v  1.0534 2.0116 24.5252
v  1.0534 2.0116 18.4808
v  -1.0357 3.2069 18.3610
v  -1.1248 2.0116 18.4808
v  -0.8216 -24.3533 19.7171
v  0.8273 -24.3533 19.7171
v  0.7250 -19.6011 22.1608
v  0.0029 -25.1949 19.6899
v  -0.9282 -25.3405 19.1684
v  0.0029 -25.5593 19.5310
v  -1.4562 -25.0480 18.7141
v  -1.4562 -19.3934 21.8244
v  -0.7193 -19.6011 22.1608
v  0.7250 -15.5297 23.6175
v  -0.7193 -15.5297 23.6175
v  -1.4562 -14.6418 23.3452
v  1.4603 -14.6418 23.3452
v  1.4620 -19.3934 21.8244
v  1.4620 -25.0480 18.7141
v  0.9339 -25.3405 19.1684
v  -1.4562 -19.0210 17.9288
v  -1.4562 -22.4957 15.7886
v  -1.4562 -23.2475 16.8355
v  -1.4562 -21.1715 13.6183
v  -1.4562 -24.1109 18.1407
v  -1.4562 -18.9354 20.8962
v  -1.4562 -13.6695 22.6633
v  -1.4562 -17.8469 15.5809
v  -0.7188 -19.9740 13.9412
v  -0.7188 -17.7092 15.2372
v  -0.7188 -12.4691 17.1890
v  -1.4562 -12.6068 17.5327
v  0.7245 -19.9740 13.9412
v  0.7245 -12.4691 17.1890
v  0.7245 -17.7092 15.2372
v  1.4620 -17.8469 15.5809
v  1.4620 -21.1715 13.6183
v  0.9315 -20.8637 13.2272
v  0.0029 -20.5361 12.8716
v  -0.9257 -20.8637 13.2272
v  1.4620 -12.6068 17.5327
v  0.7245 -9.5483 17.6068
v  1.4603 -9.4549 17.9996
v  -0.7188 -9.5483 17.6068
v  -1.4562 -21.5165 14.5536
v  -1.4562 -18.3186 16.5378
v  -1.4562 -12.8788 18.5675
v  -1.4562 -10.2251 18.9471
v  -1.4562 -9.4549 17.9996
v  -1.0353 3.2113 24.6450
v  -1.1248 2.0116 24.5252
v  1.4603 -13.6695 22.6633
v  1.4603 -18.9354 20.8962
v  1.4603 -24.1015 18.1463
v  -1.4562 -12.0587 21.4051
v  1.4603 -12.0587 21.4051
v  1.4603 -11.1086 20.3173
v  -1.4562 -11.1086 20.3173
v  1.4603 -14.8195 19.3682
v  -1.4562 -14.8195 19.3682
v  1.4603 -19.0210 17.9288
v  1.4603 -22.5001 15.7857
v  1.4603 -23.2501 16.8338
v  1.4603 -19.5742 19.0866
v  -1.4562 -19.5742 19.0866
v  1.4603 -15.1727 20.6218
v  -1.4562 -15.1727 20.6218
v  1.2150 -24.9261 18.8225
v  1.2151 -21.1882 13.8423
v  1.2150 -17.3906 16.0372
v  1.2150 -18.9936 21.8849
v  1.2150 -13.9631 17.1824
v  1.2150 -12.4875 24.1002
v  1.2150 -9.8968 18.0753
v  1.2150 -9.1024 24.6220
v  1.2150 -5.6805 18.2677
v  1.2150 -5.6818 24.7972
v  1.2150 2.0921 24.7973
v  1.2150 2.0921 18.2676
v  -1.2578 -5.6805 18.2677
v  -1.2578 -5.6818 24.7972
v  -1.2578 2.0921 24.7973
v  -1.2578 2.0921 18.2676
v  -1.2578 -9.8968 18.0753
v  -1.2578 -9.1024 24.6220
v  -1.2578 -17.3906 16.0372
v  -1.2578 -21.1882 13.8423
v  -1.2624 -24.9261 18.8225
v  -1.2624 -19.0144 21.8882
v  -1.2578 -13.9631 17.1824
v  -1.2624 -12.4875 24.1002
v  1.4603 -21.5171 14.5532
v  1.4603 -18.3186 16.5378
v  1.4603 -12.8788 18.5675
v  1.4603 -10.2251 18.9471
# 97 vertices

vn 0.6719 -0.0365 -0.7397
vn 0.7080 -0.0308 0.7055
vn 0.7416 -0.0257 -0.6704
vn -0.7077 -0.0180 -0.7062
vn -0.3990 -0.3701 0.8389
vn 0.3990 -0.3701 0.8389
vn 0.2419 -0.3793 0.8931
vn -0.0000 -0.3229 0.9464
vn -0.4268 -0.8908 0.1558
vn 0.0000 -0.9529 0.3034
vn -0.6662 -0.7304 -0.1509
vn -0.8454 -0.2005 0.4951
vn -0.2419 -0.3793 0.8931
vn 0.2465 -0.0867 0.9653
vn -0.2460 -0.0867 0.9654
vn -0.5196 0.3477 0.7805
vn 0.5753 0.2598 0.7756
vn 0.8596 -0.1917 0.4736
vn 0.8314 -0.5547 0.0340
vn 0.4268 -0.8908 0.1558
vn -0.7071 0.3019 -0.6394
vn -0.6014 0.7869 -0.1381
vn -0.7068 0.1530 0.6906
vn -0.6466 -0.3687 -0.6678
vn -0.5961 0.7780 -0.1986
vn -0.7071 0.2796 -0.6495
vn -0.7071 0.6998 -0.1015
vn -0.8632 0.2142 -0.4572
vn -0.2901 0.5946 -0.7499
vn -0.2329 0.4132 -0.8804
vn -0.2323 0.2381 -0.9431
vn -0.8663 0.1253 -0.4835
vn 0.2901 0.5946 -0.7499
vn 0.2323 0.2381 -0.9431
vn 0.2329 0.4132 -0.8804
vn 0.8503 0.2233 -0.4765
vn 0.7843 -0.1316 -0.6063
vn 0.4380 -0.1434 -0.8875
vn 0.0000 0.0341 -0.9994
vn -0.4380 -0.1434 -0.8875
vn 0.8510 0.1318 -0.5083
vn 0.1484 0.6750 -0.7227
vn 0.7958 0.5590 -0.2327
vn -0.1482 0.6750 -0.7228
vn -0.7071 0.1213 0.6967
vn -0.7071 -0.3115 0.6348
vn -0.7071 -0.1747 0.6852
vn -0.7071 0.2578 0.6584
vn -0.6309 0.7687 -0.1057
vn -0.6671 -0.0246 0.7446
vn -0.7454 -0.0110 0.6666
vn 0.7070 0.6999 -0.1015
vn 0.7065 0.2798 -0.6500
vn 0.5928 0.7799 -0.2010
vn -0.5059 0.2576 0.8233
vn 0.5059 0.2576 0.8233
vn 0.7071 0.6753 -0.2098
vn -0.7071 0.6753 -0.2098
vn 0.7071 0.2024 -0.6775
vn -0.7071 0.2024 -0.6775
vn 0.7071 0.3019 -0.6394
vn 0.6016 0.7874 -0.1348
vn 0.7055 0.1575 0.6910
vn 0.7071 -0.3029 0.6390
vn -0.7071 -0.3029 0.6390
vn 0.7071 -0.2029 0.6773
vn -0.7071 -0.2029 0.6773
vn 0.7071 -0.3244 0.6283
vn 1.0000 0.0000 0.0000
vn 0.7085 -0.2766 0.6493
vn 0.7073 -0.1680 0.6867
vn 0.7071 0.0322 -0.7063
vn 0.7071 -0.0720 0.7034
vn 0.7071 0.0161 -0.7069
vn 0.7071 -0.0181 0.7069
vn 0.5774 0.5774 0.5774
vn 0.5774 0.5774 -0.5774
vn -0.7123 0.0160 -0.7017
vn -0.7014 -0.0182 0.7125
vn -0.5773 0.5773 0.5774
vn -0.5773 0.5773 -0.5774
vn -0.9034 0.0198 -0.4283
vn -0.6957 -0.0728 0.7146
vn -1.0000 0.0003 -0.0007
vn -1.0000 0.0004 -0.0006
vn -0.6665 -0.3422 0.6623
vn -0.6892 -0.2845 0.6664
vn -1.0000 0.0002 -0.0007
vn -0.6884 -0.1719 0.7046
vn 0.7064 0.1221 0.6972
vn 0.7065 -0.3118 0.6353
vn 0.7066 -0.1748 0.6857
vn 0.7069 0.2579 0.6586
# 93 vertex normals

vt 1.1680 0.6538 0.6538
vt 1.1377 0.6538 0.6538
vt 1.1387 0.6479 0.6479
vt 1.1670 0.6479 0.6479
vt 1.1777 0.6538 0.6538
vt 1.1777 0.6479 0.6479
vt 0.2507 0.6055 0.6055
vt 0.2590 0.6052 0.6052
vt 0.2581 0.6304 0.6304
vt 0.2551 0.6018 0.6018
vt 0.2507 0.6001 0.6001
vt 0.2551 0.5994 0.5994
vt 0.2472 0.6001 0.6001
vt 0.2465 0.6306 0.6306
vt 0.2512 0.6304 0.6304
vt 0.2542 0.6531 0.6531
vt 0.2473 0.6519 0.6519
vt 0.2416 0.6570 0.6570
vt 0.2585 0.6594 0.6594
vt 0.2637 0.6311 0.6311
vt 0.2644 0.6006 0.6006
vt 0.2595 0.6001 0.6001
vt 0.2295 0.6230 0.6230
vt 0.2290 0.6035 0.6035
vt 0.2351 0.6030 0.6030
vt 0.2168 0.6033 0.6033
vt 0.2426 0.6025 0.6025
vt 0.2416 0.6306 0.6306
vt 0.2372 0.6589 0.6589
vt 0.2168 0.6221 0.6221
vt 0.2126 0.6094 0.6094
vt 0.2125 0.6221 0.6221
vt 0.2081 0.6487 0.6487
vt 0.2123 0.6487 0.6487
vt 0.2057 0.6091 0.6091
vt 0.2012 0.6482 0.6482
vt 0.2057 0.6216 0.6216
vt 0.2010 0.6199 0.6199
vt 0.2010 0.6023 0.6023
vt 0.2050 0.6030 0.6030
vt 0.2094 0.6047 0.6047
vt 0.2137 0.6033 0.6033
vt 0.1967 0.6465 0.6465
vt 0.1963 0.6616 0.6616
vt 0.1917 0.6611 0.6611
vt 0.2031 0.6624 0.6624
vt 0.2214 0.6047 0.6047
vt 0.2213 0.6228 0.6228
vt 0.2174 0.6501 0.6501
vt 0.2129 0.6633 0.6633
vt 0.2073 0.6633 0.6633
vt 0.1683 0.6536 0.6536
vt 0.1383 0.6536 0.6536
vt 0.1388 0.6477 0.6477
vt 0.1678 0.6477 0.6477
vt 0.1783 0.6477 0.6477
vt 0.1780 0.6536 0.6536
vt 1.2646 0.5959 0.5959
vt 1.2793 0.5959 0.5959
vt 1.2793 0.6013 0.6013
vt 1.2646 0.6013 0.6013
vt 1.2793 0.6279 0.6279
vt 1.2646 0.6279 0.6279
vt 1.2793 0.6550 0.6550
vt 1.2646 0.6550 0.6550
vt 1.2793 0.6182 0.6182
vt 1.2646 0.6182 0.6182
vt 1.2793 0.6406 0.6406
vt 1.2646 0.6406 0.6406
vt 1.0400 0.3628 0.3628
vt 1.0654 0.3784 0.3784
vt 1.0576 0.3975 0.3975
vt 1.0293 0.3931 0.3931
vt 1.0518 0.4160 0.4160
vt 1.0186 0.4229 0.4229
vt 1.0469 0.4355 0.4355
vt 1.0156 0.4395 0.4395
vt 1.0459 0.4556 0.4556
vt 1.0146 0.4556 0.4556
vt 1.0146 0.4927 0.4927
vt 1.0459 0.4927 0.4927
vt 0.0466 0.4551 0.4551
vt 0.0155 0.4556 0.4556
vt 0.0155 0.4927 0.4927
vt 0.0022 0.4551 0.4551
vt 0.0022 0.4927 0.4927
vt 0.0155 0.5044 0.5044
vt 0.0467 0.5044 0.5044
vt 0.0467 0.4927 0.4927
vt 0.0585 0.4927 0.4927
vt 0.0585 0.4551 0.4551
vt 0.0602 0.4351 0.4351
vt 0.0476 0.4351 0.4351
vt 0.0163 0.4390 0.4390
vt 0.0596 0.3975 0.3975
vt 0.0668 0.3784 0.3784
vt 0.0401 0.3623 0.3623
vt 0.0292 0.3936 0.3936
vt 0.0533 0.4155 0.4155
vt 0.0188 0.4229 0.4229
vt 0.0031 0.4370 0.4370
vt 0.0068 0.4194 0.4194
vt 0.0181 0.3896 0.3896
vt 0.0300 0.3584 0.3584
vt 0.2654 0.5959 0.5959
vt 0.2793 0.5959 0.5959
vt 0.2793 0.6013 0.6013
vt 0.2654 0.6013 0.6013
vt 0.2793 0.6182 0.6182
vt 0.2654 0.6182 0.6182
vt 0.2793 0.6406 0.6406
vt 0.2654 0.6406 0.6406
vt 0.2793 0.6550 0.6550
vt 0.2654 0.6550 0.6550
vt 0.2793 0.6619 0.6619
vt 0.2654 0.6619 0.6619
vt 0.2693 0.6636 0.6636
vt 0.2761 0.6636 0.6636
vt 0.2356 0.6235 0.6235
vt 0.2271 0.6450 0.6450
vt 0.2330 0.6465 0.6465
vt 0.2220 0.6626 0.6626
vt 0.2289 0.6611 0.6611
vt 1.2344 0.6028 0.6028
vt 1.2471 0.5999 0.5999
vt 1.2158 0.6030 0.6030
vt 1.2422 0.6023 0.6023
vt 1.2461 0.6306 0.6306
vt 1.2412 0.6304 0.6304
vt 1.2363 0.6589 0.6589
vt 1.2412 0.6567 0.6567
vt 1.2217 0.6624 0.6624
vt 1.2285 0.6611 0.6611
vt 1.2324 0.6462 0.6462
vt 1.2266 0.6448 0.6448
vt 1.2354 0.6235 0.6235
vt 1.2295 0.6230 0.6230
vt 1.2285 0.6033 0.6033
vt 1.2207 0.6045 0.6045
vt 1.2207 0.6226 0.6226
vt 1.2158 0.6221 0.6221
vt 1.2119 0.6487 0.6487
vt 1.2168 0.6499 0.6499
vt 1.2119 0.6633 0.6633
vt 1.2070 0.6633 0.6633
vt 0.3364 0.4551 0.4551
vt 0.3350 0.4590 0.4590
vt 0.3350 0.4507 0.4507
vt 0.3328 0.4487 0.4487
vt 0.3328 0.4614 0.4614
vt 0.3101 0.4614 0.4614
vt 0.3101 0.4487 0.4487
vt 0.3083 0.4507 0.4507
vt 0.3083 0.4590 0.4590
vt 0.3069 0.4551 0.4551
# 155 texture coords

o mag3
g mag3
usemtl mat_patrol_smg_INST
s 1
f 1/1/1 2/2/2 3/3/2 
f 3/3/2 4/4/3 1/1/1 
f 5/5/4 1/1/1 4/4/3 
f 4/4/3 6/6/4 5/5/4 
f 7/7/5 8/8/6 9/9/7 
f 8/8/6 7/7/5 10/10/8 
f 11/11/9 12/12/10 10/10/8 
f 10/10/8 7/7/5 11/11/9 
f 7/7/5 13/13/11 11/11/9 
f 13/13/11 7/7/5 14/14/12 
f 7/7/5 15/15/13 14/14/12 
f 9/9/7 15/15/13 7/7/5 
f 15/15/13 9/9/7 16/16/14 
f 16/16/14 17/17/15 15/15/13 
f 18/18/16 17/17/15 16/16/14 
f 16/16/14 19/19/17 18/18/16 
f 19/19/17 16/16/14 9/9/7 
f 9/9/7 20/20/18 19/19/17 
f 20/20/18 9/9/7 8/8/6 
f 21/21/19 20/20/18 8/8/6 
f 21/21/19 8/8/6 22/22/20 
f 22/22/20 8/8/6 10/10/8 
f 10/10/8 12/12/10 22/22/20 
f 23/23/21 24/24/22 25/25/23 
f 25/25/23 24/24/22 26/26/24 
f 26/26/24 13/13/11 25/25/23 
f 13/13/11 27/27/25 25/25/23 
f 27/27/25 13/13/11 14/14/12 
f 14/14/12 28/28/26 27/27/25 
f 29/29/27 28/28/26 14/14/12 
f 14/14/12 18/18/16 29/29/27 
f 18/18/16 14/14/12 15/15/13 
f 15/15/13 17/17/15 18/18/16 
f 26/26/24 30/30/28 31/31/29 
f 30/30/28 32/32/30 31/31/29 
f 33/33/31 32/32/30 30/30/28 
f 30/30/28 34/34/32 33/33/31 
f 35/35/33 31/31/29 32/32/30 
f 32/32/30 33/33/31 36/36/34 
f 36/36/34 37/37/35 32/32/30 
f 32/32/30 37/37/35 35/35/33 
f 38/38/36 35/35/33 37/37/35 
f 39/39/37 35/35/33 38/38/36 
f 39/39/37 40/40/38 35/35/33 
f 40/40/38 41/41/39 35/35/33 
f 35/35/33 41/41/39 31/31/29 
f 42/42/40 31/31/29 41/41/39 
f 26/26/24 31/31/29 42/42/40 
f 38/38/36 37/37/35 36/36/34 
f 36/36/34 43/43/41 38/38/36 
f 43/43/41 36/36/34 44/44/42 
f 44/44/42 45/45/43 43/43/41 
f 46/46/44 44/44/42 36/36/34 
f 24/24/22 47/47/45 26/26/24 
f 30/30/28 26/26/24 47/47/45 
f 47/47/45 48/48/46 30/30/28 
f 34/34/32 30/30/28 48/48/46 
f 48/48/46 49/49/47 34/34/32 
f 34/34/32 49/49/47 50/50/48 
f 50/50/48 51/51/49 34/34/32 
f 34/34/32 51/51/49 46/46/44 
f 46/46/44 33/33/31 34/34/32 
f 36/36/34 33/33/31 46/46/44 
f 52/52/50 5/53/4 6/54/4 
f 6/54/4 53/55/51 52/52/50 
f 52/52/50 53/55/51 3/56/2 
f 3/56/2 2/57/2 52/52/50 
f 18/58/16 19/59/17 54/60/52 
f 54/60/52 29/61/27 18/58/16 
f 29/61/27 54/60/52 55/62/53 
f 55/62/53 28/63/26 29/61/27 
f 28/63/26 55/62/53 56/64/54 
f 56/64/54 27/65/25 28/63/26 
f 57/58/55 58/59/56 59/60/57 
f 59/60/57 60/61/58 57/58/55 
f 60/61/58 59/60/57 61/66/59 
f 61/66/59 62/67/60 60/61/58 
f 62/67/60 61/66/59 63/68/61 
f 63/68/61 23/69/21 62/67/60 
f 23/69/21 63/68/61 64/64/62 
f 64/64/62 24/65/22 23/69/21 
f 27/58/25 56/59/54 65/60/63 
f 65/60/63 25/61/23 27/58/25 
f 25/61/23 65/60/63 66/66/64 
f 66/66/64 67/67/65 25/61/23 
f 67/67/65 66/66/64 68/68/66 
f 68/68/66 69/69/67 67/67/65 
f 69/69/67 68/68/66 58/64/56 
f 58/64/56 57/65/55 69/69/67 
f 70/70/68 71/71/69 72/72/69 
f 73/73/70 70/70/68 72/72/69 
f 73/73/70 72/72/69 74/74/69 
f 75/75/71 73/73/70 74/74/69 
f 75/75/71 74/74/69 76/76/72 
f 76/76/72 77/77/73 75/75/71 
f 77/77/73 76/76/72 78/78/74 
f 78/78/74 79/79/75 77/77/73 
f 80/80/76 79/79/75 78/78/74 
f 78/78/74 81/81/77 80/80/76 
f 82/82/78 83/83/79 84/84/80 
f 84/84/80 83/83/79 79/85/75 
f 79/85/75 80/86/76 84/84/80 
f 84/84/80 80/87/76 81/88/77 
f 81/88/77 85/89/81 84/84/80 
f 84/84/80 85/89/81 82/82/78 
f 82/82/78 85/89/81 81/90/77 
f 81/90/77 78/91/74 82/82/78 
f 82/82/78 78/91/74 76/92/72 
f 76/92/72 86/93/82 82/82/78 
f 83/83/79 82/82/78 86/93/82 
f 86/93/82 87/94/83 83/83/79 
f 79/85/75 83/83/79 87/94/83 
f 88/95/84 89/96/85 90/97/86 
f 88/95/84 90/97/86 91/98/87 
f 92/99/88 88/95/84 91/98/87 
f 92/99/88 91/98/87 93/100/89 
f 86/93/82 92/99/88 93/100/89 
f 93/100/89 87/94/83 86/93/82 
f 87/94/83 77/101/73 79/85/75 
f 77/101/73 87/94/83 93/100/89 
f 93/100/89 75/102/71 77/101/73 
f 75/102/71 93/100/89 91/98/87 
f 91/98/87 73/103/70 75/102/71 
f 73/103/70 91/98/87 90/97/86 
f 90/97/86 70/104/68 73/103/70 
f 24/105/22 64/106/62 94/107/90 
f 94/107/90 47/108/45 24/105/22 
f 47/108/45 94/107/90 95/109/91 
f 95/109/91 48/110/46 47/108/45 
f 48/110/46 95/109/91 96/111/92 
f 96/111/92 49/112/47 48/110/46 
f 49/112/47 96/111/92 97/113/93 
f 97/113/93 50/114/48 49/112/47 
f 50/114/48 97/113/93 45/115/43 
f 45/115/43 51/116/49 50/114/48 
f 46/117/44 51/116/49 45/115/43 
f 45/115/43 44/118/42 46/117/44 
f 25/25/23 67/119/65 23/23/21 
f 62/120/60 23/23/21 67/119/65 
f 67/119/65 69/121/67 62/120/60 
f 60/122/58 62/120/60 69/121/67 
f 69/121/67 57/123/55 60/122/58 
f 65/124/63 21/125/19 39/126/37 
f 56/127/54 21/125/19 65/124/63 
f 20/128/18 21/125/19 56/127/54 
f 56/127/54 55/129/53 20/128/18 
f 20/128/18 55/129/53 54/130/52 
f 54/130/52 19/131/17 20/128/18 
f 59/132/57 58/133/56 68/134/66 
f 68/134/66 61/135/59 59/132/57 
f 61/135/59 68/134/66 66/136/64 
f 66/136/64 63/137/61 61/135/59 
f 64/138/62 63/137/61 66/136/64 
f 66/136/64 65/124/63 64/138/62 
f 39/126/37 64/138/62 65/124/63 
f 64/138/62 39/126/37 94/139/90 
f 95/140/91 94/139/90 39/126/37 
f 39/126/37 38/141/36 95/140/91 
f 95/140/91 38/141/36 43/142/41 
f 43/142/41 96/143/92 95/140/91 
f 97/144/93 96/143/92 43/142/41 
f 43/142/41 45/145/43 97/144/93 
f 12/146/10 11/147/9 22/148/20 
f 21/149/19 22/148/20 11/147/9 
f 11/147/9 13/150/11 21/149/19 
f 21/149/19 13/150/11 26/151/24 
f 26/151/24 39/152/37 21/149/19 
f 40/153/38 39/152/37 26/151/24 
f 26/151/24 42/154/40 40/153/38 
f 42/154/40 41/155/39 40/153/38 
# 0 polygons - 170 triangles

