# 3ds Max Wavefront OBJ Exporter v0.99 - (c)2007 guruware
# File Created: 22.06.2021 21:34:54

mtllib mag4.mtl

#
# object mag4
#

v  3.0978 -10.5800 23.9275
v  3.0978 -10.5800 18.9809
v  3.0978 1.3642 18.9809
v  3.0978 1.3642 23.9275
v  -5.9782 -3.3372 18.3108
v  -5.9782 -5.8786 18.3108
v  -6.1117 -4.6079 18.3108
v  -5.5833 -2.1221 18.3108
v  -4.9445 -1.0155 18.3108
v  -0.6388 1.4703 18.3109
v  2.3178 1.3642 18.3109
v  2.1310 1.4703 18.3109
v  -4.0895 -0.0660 18.3108
v  -3.0559 0.6850 18.3108
v  -1.8886 1.2047 18.3108
v  -3.0559 -9.9008 18.3108
v  -4.0895 -9.1498 18.3108
v  -4.9445 -8.2003 18.3108
v  1.8395 -10.4309 18.3109
v  2.3178 -10.1409 18.3109
v  -5.5833 -7.0938 18.3108
v  0.6388 -10.6861 18.3109
v  -0.6388 -10.6861 18.3109
v  -1.8886 -10.4205 18.3108
v  -6.1117 -4.6079 24.5975
v  -5.5833 -2.1221 24.5975
v  -5.9782 -3.3372 24.5975
v  -5.9782 -5.8786 24.5975
v  -5.5833 -7.0938 24.5975
v  -1.8886 -10.4205 24.5975
v  -1.8886 1.2047 24.5975
v  2.1310 1.4703 24.5975
v  -0.6388 1.4703 24.5975
v  -4.9445 -8.2003 24.5975
v  -4.0895 -9.1498 24.5975
v  -3.0559 -9.9008 24.5975
v  -0.6388 -10.6861 24.5975
v  0.6388 -10.6861 24.5975
v  1.8395 -10.4309 24.5975
v  2.3178 -10.1409 24.5975
v  2.3178 1.3642 24.5975
v  -4.6143 -9.7326 18.9808
v  -3.4480 -10.5800 18.9808
v  -3.4480 -10.5800 23.9275
v  -4.6143 -9.7326 23.9275
v  -5.5790 -8.6613 18.9808
v  -5.5790 -8.6613 23.9275
v  -6.2998 -7.4128 18.9808
v  -6.2998 -7.4128 23.9275
v  2.1310 -11.1664 18.9809
v  2.1310 -11.1664 23.9275
v  0.7208 -11.4661 18.9809
v  0.7208 -11.4661 23.9275
v  -0.7208 -11.4661 18.9809
v  -0.7208 -11.4661 23.9275
v  -2.1310 -11.1664 18.9809
v  -2.1310 -11.1664 23.9275
v  -4.6143 0.5168 18.9808
v  -5.5790 -0.5545 18.9808
v  -5.5790 -0.5545 23.9275
v  -4.6143 0.5168 23.9275
v  -3.4480 1.3642 18.9808
v  -3.4480 1.3642 23.9275
v  -2.1310 1.9506 18.9809
v  -2.1310 1.9506 23.9275
v  -0.7208 2.2503 18.9809
v  -0.7208 2.2503 23.9275
v  2.1310 2.2503 18.9809
v  2.1310 2.2503 23.9275
v  -6.7453 -6.0417 18.9808
v  -6.7453 -6.0417 23.9275
v  -6.8960 -4.6079 18.9808
v  -6.8960 -4.6079 23.9275
v  -6.7453 -3.1741 18.9808
v  -6.7453 -3.1741 23.9275
v  -6.2998 -1.8030 18.9808
v  -6.2998 -1.8030 23.9275
v  -3.0559 0.6850 24.5975
v  -4.9445 -1.0155 24.5975
v  -4.0895 -0.0660 24.5975
# 80 vertices

vn 1.0000 0.0000 0.0000
vn 0.0000 0.0000 -1.0000
vn 0.0000 -0.0000 -1.0000
vn -0.0000 -0.0000 -1.0000
vn 0.0000 0.0000 1.0000
vn -0.0000 0.0000 1.0000
vn -0.0000 -0.0000 1.0000
vn 0.0000 -0.0000 1.0000
vn -0.6691 -0.7431 -0.0000
vn -0.5000 -0.8660 -0.0000
vn -0.8090 -0.5878 -0.0000
vn -0.9135 -0.4067 -0.0000
vn 0.3684 -0.9297 0.0000
vn 0.5186 -0.8550 0.0000
vn 0.1045 -0.9945 0.0000
vn -0.1045 -0.9945 0.0000
vn -0.3090 -0.9511 -0.0000
vn -0.6691 0.7431 -0.0000
vn -0.8090 0.5878 -0.0000
vn -0.5000 0.8660 -0.0000
vn -0.3090 0.9511 -0.0000
vn -0.1045 0.9945 -0.0000
vn 0.3625 0.9320 0.0000
vn 0.6757 0.7372 0.0000
vn -0.9781 -0.2079 -0.0000
vn -1.0000 0.0000 -0.0000
vn -1.0000 -0.0000 -0.0000
vn -0.9781 0.2079 -0.0000
vn -0.9135 0.4067 -0.0000
vn -0.0679 -0.6460 -0.7603
vn -0.2007 -0.6177 -0.7603
vn 0.0679 -0.6460 -0.7603
vn 0.2381 -0.6008 -0.7631
vn 0.3379 -0.5571 -0.7586
vn -0.5934 -0.2642 -0.7603
vn -0.6353 -0.1350 -0.7603
vn -0.5255 -0.3818 -0.7603
vn -0.4346 -0.4827 -0.7603
vn -0.3248 -0.5625 -0.7603
vn -0.5255 0.3818 -0.7603
vn -0.4346 0.4827 -0.7603
vn -0.5934 0.2642 -0.7603
vn -0.6353 0.1350 -0.7603
vn -0.6495 0.0000 -0.7603
vn 0.2055 0.6471 -0.7342
vn 0.5311 0.5794 -0.6183
vn 0.4533 0.5964 -0.6624
vn 0.1955 0.6390 -0.7439
vn -0.0679 0.6460 -0.7603
vn -0.2007 0.6177 -0.7603
vn -0.3248 0.5625 -0.7603
vn -0.2007 0.6177 0.7603
vn -0.3248 0.5625 0.7603
vn -0.0679 0.6460 0.7603
vn 0.2106 0.6370 0.7416
vn 0.2791 0.6639 0.6938
vn 0.5030 0.5890 0.6325
vn 0.4282 0.7538 0.4985
vn -0.6353 0.1350 0.7603
vn -0.6495 -0.0000 0.7603
vn -0.6495 0.0000 0.7603
vn -0.5934 0.2642 0.7603
vn -0.5255 0.3818 0.7603
vn -0.4346 0.4827 0.7603
vn -0.4346 -0.4827 0.7603
vn -0.3248 -0.5625 0.7603
vn -0.5255 -0.3818 0.7603
vn -0.5934 -0.2642 0.7603
vn -0.6353 -0.1350 0.7603
vn 0.2381 -0.6008 0.7631
vn 0.3379 -0.5571 0.7586
vn 0.0679 -0.6460 0.7603
vn -0.0679 -0.6460 0.7603
vn -0.2007 -0.6177 0.7603
vn 0.6516 0.0000 -0.7586
vn 0.6516 0.0000 0.7586
# 76 vertex normals

vt 1.5371 0.5869 0.5869
vt 1.5029 0.5869 0.5869
vt 1.5029 0.6646 0.6646
vt 1.5371 0.6646 0.6646
vt 1.6533 0.6287 0.6287
vt 1.6533 0.6140 0.6140
vt 1.6543 0.6213 0.6213
vt 1.6514 0.6357 0.6357
vt 1.6475 0.6421 0.6421
vt 1.6221 0.6565 0.6565
vt 1.6055 0.6560 0.6560
vt 1.6064 0.6565 0.6565
vt 1.6426 0.6477 0.6477
vt 1.6367 0.6521 0.6521
vt 1.6299 0.6550 0.6550
vt 1.6367 0.5908 0.5908
vt 1.6426 0.5952 0.5952
vt 1.6475 0.6008 0.6008
vt 1.6084 0.5879 0.5879
vt 1.6055 0.5896 0.5896
vt 1.6514 0.6072 0.6072
vt 1.6152 0.5864 0.5864
vt 1.6221 0.5864 0.5864
vt 1.6299 0.5879 0.5879
vt 0.6543 0.6213 0.6213
vt 0.6514 0.6357 0.6357
vt 0.6538 0.6287 0.6287
vt 0.6538 0.6140 0.6140
vt 0.6514 0.6072 0.6072
vt 0.6299 0.5879 0.5879
vt 0.6299 0.6550 0.6550
vt 0.6069 0.6565 0.6565
vt 0.6226 0.6565 0.6565
vt 0.6475 0.6008 0.6008
vt 0.6426 0.5952 0.5952
vt 0.6367 0.5908 0.5908
vt 0.6226 0.5864 0.5864
vt 0.6152 0.5864 0.5864
vt 0.6084 0.5879 0.5879
vt 0.6060 0.5896 0.5896
vt 0.6060 0.6560 0.6560
vt 1.5029 0.5737 0.5737
vt 1.5029 0.5818 0.5818
vt 1.5371 0.5818 0.5818
vt 1.5371 0.5737 0.5737
vt 1.5029 0.5667 0.5667
vt 1.5371 0.5667 0.5667
vt 1.5029 0.5581 0.5581
vt 1.5371 0.5581 0.5581
vt 1.5029 0.6196 0.6196
vt 1.5029 0.6262 0.6262
vt 1.5371 0.6262 0.6262
vt 1.5371 0.6196 0.6196
vt 1.5029 0.6101 0.6101
vt 1.5371 0.6101 0.6101
vt 1.5029 0.6003 0.6003
vt 1.5371 0.6003 0.6003
vt 1.5029 0.5908 0.5908
vt 1.5371 0.5908 0.5908
vt 0.5034 0.6121 0.6121
vt 0.5034 0.6047 0.6047
vt 0.5371 0.6047 0.6047
vt 0.5371 0.6121 0.6121
vt 0.5034 0.6199 0.6199
vt 0.5371 0.6199 0.6199
vt 0.5034 0.6289 0.6289
vt 0.5371 0.6289 0.6289
vt 0.5034 0.6384 0.6384
vt 0.5371 0.6384 0.6384
vt 0.5034 0.6580 0.6580
vt 0.5371 0.6580 0.6580
vt 0.5034 0.6646 0.6646
vt 0.5371 0.6646 0.6646
vt 0.5034 0.5674 0.5674
vt 0.5034 0.5581 0.5581
vt 0.5371 0.5581 0.5581
vt 0.5371 0.5674 0.5674
vt 0.5034 0.5771 0.5771
vt 0.5371 0.5771 0.5771
vt 0.5034 0.5869 0.5869
vt 0.5371 0.5869 0.5869
vt 0.5034 0.5962 0.5962
vt 0.5371 0.5962 0.5962
vt 1.6221 0.5781 0.5781
vt 1.6309 0.5798 0.5798
vt 1.6133 0.5781 0.5781
vt 1.6035 0.5798 0.5798
vt 1.5977 0.5837 0.5837
vt 1.6572 0.6038 0.6038
vt 1.6602 0.6125 0.6125
vt 1.6533 0.5959 0.5959
vt 1.6465 0.5891 0.5891
vt 1.6396 0.5837 0.5837
vt 1.6533 0.6475 0.6475
vt 1.6465 0.6543 0.6543
vt 1.6572 0.6394 0.6394
vt 1.6602 0.6306 0.6306
vt 1.6611 0.6216 0.6216
vt 1.6035 0.6653 0.6653
vt 1.5977 0.6597 0.6597
vt 1.6221 0.6653 0.6653
vt 1.6309 0.6633 0.6633
vt 1.6396 0.6597 0.6597
vt 0.6313 0.6633 0.6633
vt 0.6396 0.6597 0.6597
vt 0.6367 0.6521 0.6521
vt 0.6221 0.6653 0.6653
vt 0.6040 0.6653 0.6653
vt 0.5981 0.6597 0.6597
vt 0.6606 0.6306 0.6306
vt 0.6616 0.6216 0.6216
vt 0.6577 0.6394 0.6394
vt 0.6533 0.6475 0.6475
vt 0.6475 0.6421 0.6421
vt 0.6470 0.6543 0.6543
vt 0.6426 0.6477 0.6477
vt 0.6470 0.5891 0.5891
vt 0.6396 0.5837 0.5837
vt 0.6533 0.5959 0.5959
vt 0.6577 0.6038 0.6038
vt 0.6606 0.6125 0.6125
vt 0.6040 0.5798 0.5798
vt 0.5981 0.5837 0.5837
vt 0.6133 0.5781 0.5781
vt 0.6221 0.5781 0.5781
vt 0.6313 0.5798 0.5798
# 126 texture coords

o mag4
g mag4
usemtl mat_patrol_smg_INST
s 1
f 1/1/1 2/2/1 3/3/1 
f 3/3/1 4/4/1 1/1/1 
f 5/5/2 6/6/2 7/7/2 
f 5/5/2 8/8/2 9/9/3 
f 5/5/2 9/9/3 6/6/2 
f 9/9/3 10/10/3 6/6/2 
f 10/10/3 11/11/3 6/6/2 
f 10/10/3 12/12/4 11/11/3 
f 9/9/3 13/13/2 14/14/3 
f 9/9/3 14/14/3 10/10/3 
f 14/14/3 15/15/3 10/10/3 
f 16/16/2 17/17/2 18/18/2 
f 16/16/2 18/18/2 6/6/2 
f 19/19/3 16/16/2 6/6/2 
f 11/11/3 19/19/3 6/6/2 
f 11/11/3 20/20/2 19/19/3 
f 18/18/2 21/21/2 6/6/2 
f 19/19/3 22/22/2 23/23/3 
f 19/19/3 23/23/3 16/16/2 
f 23/23/3 24/24/2 16/16/2 
f 25/25/5 26/26/6 27/27/5 
f 25/25/5 28/28/5 29/29/7 
f 25/25/5 29/29/7 26/26/6 
f 29/29/7 30/30/6 26/26/6 
f 30/30/6 31/31/7 26/26/6 
f 30/30/6 32/32/6 31/31/7 
f 32/32/6 33/33/5 31/31/7 
f 29/29/7 34/34/7 35/35/5 
f 29/29/7 35/35/5 30/30/6 
f 35/35/5 36/36/5 30/30/6 
f 30/30/6 37/37/5 38/38/7 
f 38/38/7 39/39/8 40/40/7 
f 30/30/6 38/38/7 40/40/7 
f 30/30/6 40/40/7 32/32/6 
f 40/40/7 41/41/7 32/32/6 
f 42/42/9 43/43/10 44/44/10 
f 44/44/10 45/45/9 42/42/9 
f 46/46/11 42/42/9 45/45/9 
f 45/45/9 47/47/11 46/46/11 
f 48/48/12 46/46/11 47/47/11 
f 47/47/11 49/49/12 48/48/12 
f 50/50/13 2/51/14 1/52/14 
f 1/52/14 51/53/13 50/50/13 
f 52/54/15 50/50/13 51/53/13 
f 51/53/13 53/55/15 52/54/15 
f 54/56/16 52/54/15 53/55/15 
f 53/55/15 55/57/16 54/56/16 
f 56/58/17 54/56/16 55/57/16 
f 55/57/16 57/59/17 56/58/17 
f 43/43/10 56/58/17 57/59/17 
f 57/59/17 44/44/10 43/43/10 
f 58/60/18 59/61/19 60/62/19 
f 60/62/19 61/63/18 58/60/18 
f 62/64/20 58/60/18 61/63/18 
f 61/63/18 63/65/20 62/64/20 
f 64/66/21 62/64/20 63/65/20 
f 63/65/20 65/67/21 64/66/21 
f 66/68/22 64/66/21 65/67/21 
f 65/67/21 67/69/22 66/68/22 
f 68/70/23 66/68/22 67/69/22 
f 67/69/22 69/71/23 68/70/23 
f 3/72/24 68/70/23 69/71/23 
f 69/71/23 4/73/24 3/72/24 
f 70/74/25 48/75/12 49/76/12 
f 49/76/12 71/77/25 70/74/25 
f 72/78/26 70/74/25 71/77/25 
f 71/77/25 73/79/27 72/78/26 
f 74/80/28 72/78/26 73/79/27 
f 73/79/27 75/81/28 74/80/28 
f 76/82/29 74/80/28 75/81/28 
f 75/81/28 77/83/29 76/82/29 
f 59/61/19 76/82/29 77/83/29 
f 77/83/29 60/62/19 59/61/19 
f 54/84/30 56/85/31 24/24/31 
f 24/24/31 23/23/30 54/84/30 
f 52/86/32 54/84/30 23/23/30 
f 23/23/30 22/22/32 52/86/32 
f 50/87/33 52/86/32 22/22/32 
f 22/22/32 19/19/33 50/87/33 
f 2/88/34 50/87/33 19/19/33 
f 19/19/33 20/20/34 2/88/34 
f 48/89/35 70/90/36 6/6/36 
f 6/6/36 21/21/35 48/89/35 
f 46/91/37 48/89/35 21/21/35 
f 21/21/35 18/18/37 46/91/37 
f 42/92/38 46/91/37 18/18/37 
f 18/18/37 17/17/38 42/92/38 
f 43/93/39 42/92/38 17/17/38 
f 17/17/38 16/16/39 43/93/39 
f 56/85/31 43/93/39 16/16/39 
f 16/16/39 24/24/31 56/85/31 
f 59/94/40 58/95/41 13/13/41 
f 13/13/41 9/9/40 59/94/40 
f 76/96/42 59/94/40 9/9/40 
f 9/9/40 8/8/42 76/96/42 
f 74/97/43 76/96/42 8/8/42 
f 8/8/42 5/5/43 74/97/43 
f 72/98/44 74/97/43 5/5/43 
f 5/5/43 7/7/44 72/98/44 
f 70/90/36 72/98/44 7/7/44 
f 7/7/44 6/6/36 70/90/36 
f 68/99/45 3/100/46 11/11/47 
f 11/11/47 12/12/48 68/99/45 
f 66/101/49 68/99/45 12/12/48 
f 12/12/48 10/10/49 66/101/49 
f 64/102/50 66/101/49 10/10/49 
f 10/10/49 15/15/50 64/102/50 
f 62/103/51 64/102/50 15/15/50 
f 15/15/50 14/14/51 62/103/51 
f 58/95/41 62/103/51 14/14/51 
f 14/14/51 13/13/41 58/95/41 
f 65/104/52 63/105/53 78/106/53 
f 78/106/53 31/31/52 65/104/52 
f 67/107/54 65/104/52 31/31/52 
f 31/31/52 33/33/54 67/107/54 
f 69/108/55 67/107/54 33/33/54 
f 33/33/54 32/32/56 69/108/55 
f 4/109/57 69/108/55 32/32/56 
f 32/32/56 41/41/58 4/109/57 
f 75/110/59 73/111/60 25/25/61 
f 25/25/61 27/27/59 75/110/59 
f 77/112/62 75/110/59 27/27/59 
f 27/27/59 26/26/62 77/112/62 
f 60/113/63 77/112/62 26/26/62 
f 26/26/62 79/114/63 60/113/63 
f 61/115/64 60/113/63 79/114/63 
f 79/114/63 80/116/64 61/115/64 
f 63/105/53 61/115/64 80/116/64 
f 80/116/64 78/106/53 63/105/53 
f 45/117/65 44/118/66 36/36/66 
f 36/36/66 35/35/65 45/117/65 
f 47/119/67 45/117/65 35/35/65 
f 35/35/65 34/34/67 47/119/67 
f 49/120/68 47/119/67 34/34/67 
f 34/34/67 29/29/68 49/120/68 
f 71/121/69 49/120/68 29/29/68 
f 29/29/68 28/28/69 71/121/69 
f 73/111/60 71/121/69 28/28/69 
f 28/28/69 25/25/61 73/111/60 
f 51/122/70 1/123/71 40/40/71 
f 40/40/71 39/39/70 51/122/70 
f 53/124/72 51/122/70 39/39/70 
f 39/39/70 38/38/72 53/124/72 
f 55/125/73 53/124/72 38/38/72 
f 38/38/72 37/37/73 55/125/73 
f 57/126/74 55/125/73 37/37/73 
f 37/37/73 30/30/74 57/126/74 
f 44/118/66 57/126/74 30/30/74 
f 30/30/74 36/36/66 44/118/66 
f 31/31/7 78/106/8 80/116/6 
f 31/31/7 80/116/6 26/26/6 
f 80/116/6 79/114/5 26/26/6 
f 2/88/75 20/20/75 11/11/75 
f 11/11/75 3/100/75 2/88/75 
f 1/123/76 4/109/76 41/41/76 
f 41/41/76 40/40/76 1/123/76 
# 0 polygons - 156 triangles

