# 3ds Max Wavefront OBJ Exporter v0.99 - (c)2007 guruware
# File Created: 22.06.2021 21:35:17

mtllib mag5.mtl

#
# object mag5
#

v  -0.0070 1.9801 18.5811
v  -1.4648 1.5895 18.5811
v  -1.4648 2.8199 18.5811
v  -0.0070 2.8265 18.5811
v  1.4509 1.5895 18.5811
v  1.4509 2.8199 18.5811
v  1.2861 1.3040 18.2727
v  -0.0070 1.6505 18.2727
v  2.2326 0.3574 18.2727
v  2.5181 0.5223 18.5811
v  2.5829 -0.9497 18.2727
v  2.9087 -0.9356 18.5811
v  2.0724 -4.7918 18.2727
v  2.3908 -4.8197 18.5811
v  2.0724 -8.1180 18.2727
v  -2.4047 -4.8197 18.5811
v  -2.9226 -0.9356 18.5811
v  -2.5968 -0.9496 18.2727
v  -2.2465 0.3574 18.2727
v  -2.5320 0.5223 18.5811
v  -1.3000 1.3040 18.2727
v  -0.0070 -14.8898 18.5811
v  -1.4648 -14.4992 18.5811
v  -1.3000 -14.2137 18.2727
v  -2.2465 -13.2672 18.2727
v  -2.5320 -13.4320 18.5811
v  -2.5968 -11.9601 18.2727
v  -2.9226 -11.9742 18.5811
v  -2.0863 -8.1180 18.2727
v  -2.4047 -8.0900 18.5811
v  -2.0863 -4.7918 18.2727
v  -0.0070 -14.5602 18.2727
v  2.5828 -11.9601 18.2727
v  2.2326 -13.2672 18.2727
v  1.2861 -14.2137 18.2727
v  2.3908 -8.0900 18.5811
v  2.9087 -11.9742 18.5811
v  2.5181 -13.4320 18.5811
v  1.4509 -14.4992 18.5811
v  2.2326 0.3574 24.6555
v  1.2861 1.3040 24.6555
v  -0.0070 1.6505 24.6555
v  2.5829 -0.9497 24.6555
v  -1.4648 1.5895 24.3470
v  -2.5320 0.5223 24.3470
v  -2.2465 0.3574 24.6555
v  -1.3000 1.3040 24.6555
v  -0.0070 1.9801 24.3470
v  1.4509 1.5895 24.3470
v  2.5181 0.5223 24.3470
v  2.9087 -0.9356 24.3470
v  -2.5968 -11.9601 24.6555
v  2.5828 -11.9601 24.6555
v  2.0724 -8.1180 24.6555
v  -2.0863 -8.1180 24.6555
v  -2.0863 -4.7918 24.6555
v  2.0724 -4.7918 24.6555
v  -2.5968 -0.9497 24.6555
v  2.3908 -4.8197 24.3470
v  2.3908 -8.0900 24.3470
v  2.9087 -11.9742 24.3470
v  2.5181 -13.4320 24.3470
v  2.2326 -13.2672 24.6555
v  1.4509 -14.4992 24.3470
v  1.2861 -14.2137 24.6555
v  -0.0070 -14.5602 24.6555
v  -0.0070 -14.8898 24.3470
v  -1.4648 -14.4992 24.3470
v  -1.3000 -14.2137 24.6555
v  -2.5320 -13.4320 24.3470
v  -2.2465 -13.2672 24.6555
v  -2.9226 -11.9742 24.3470
v  -2.4047 -8.0900 24.3470
v  -2.4047 -4.8197 24.3470
v  -2.9226 -0.9356 24.3470
v  1.4509 2.8199 24.3470
v  -0.0070 2.8265 24.3470
v  -1.4648 2.8199 24.3470
# 78 vertices

vn -0.0000 0.3673 -0.9301
vn -0.5375 0.4138 -0.7348
vn -0.5012 0.4989 -0.7071
vn 0.0000 0.8944 -0.4473
vn 0.5375 0.4138 -0.7348
vn 0.5012 0.4989 -0.7071
vn 0.2089 0.3618 -0.9085
vn -0.0000 0.4178 -0.9085
vn 0.3618 0.2089 -0.9085
vn 0.7945 0.4587 -0.3979
vn 0.4075 0.0274 -0.9128
vn 0.9166 0.0587 -0.3954
vn 0.3600 -0.0241 -0.9327
vn 0.9185 -0.0607 -0.3908
vn 0.3600 0.0240 -0.9326
vn -0.9185 -0.0606 -0.3908
vn -0.9166 0.0587 -0.3956
vn -0.4076 0.0273 -0.9128
vn -0.3618 0.2089 -0.9085
vn -0.7945 0.4587 -0.3979
vn -0.2089 0.3618 -0.9085
vn -0.0000 -0.9632 -0.2689
vn -0.4587 -0.7945 -0.3979
vn -0.2089 -0.3618 -0.9085
vn -0.3618 -0.2089 -0.9085
vn -0.7945 -0.4587 -0.3979
vn -0.4075 -0.0274 -0.9128
vn -0.9166 -0.0587 -0.3954
vn -0.3599 0.0241 -0.9327
vn -0.9185 0.0607 -0.3908
vn -0.3600 -0.0240 -0.9326
vn -0.0000 -0.4178 -0.9085
vn 0.4076 -0.0273 -0.9128
vn 0.3618 -0.2089 -0.9085
vn 0.2089 -0.3618 -0.9085
vn 0.9185 0.0607 -0.3908
vn 0.9166 -0.0586 -0.3956
vn 0.7945 -0.4587 -0.3979
vn 0.4587 -0.7945 -0.3979
vn 0.3618 0.2089 0.9085
vn 0.2089 0.3618 0.9085
vn -0.0000 0.4178 0.9085
vn 0.4076 0.0273 0.9128
vn -0.5375 0.4138 0.7348
vn -0.7945 0.4587 0.3979
vn -0.3618 0.2089 0.9085
vn -0.2089 0.3618 0.9085
vn -0.0000 0.3673 0.9301
vn 0.5375 0.4138 0.7348
vn 0.7945 0.4587 0.3979
vn 0.9166 0.0587 0.3956
vn -0.4076 -0.0273 0.9128
vn 0.4075 -0.0274 0.9128
vn 0.3600 0.0241 0.9327
vn -0.3600 0.0240 0.9326
vn -0.3600 -0.0241 0.9327
vn 0.3600 -0.0240 0.9326
vn -0.4075 0.0274 0.9128
vn 0.9185 -0.0606 0.3908
vn 0.9185 0.0607 0.3908
vn 0.9166 -0.0587 0.3954
vn 0.7945 -0.4587 0.3979
vn 0.3618 -0.2089 0.9085
vn 0.4587 -0.7945 0.3979
vn 0.2089 -0.3618 0.9085
vn 0.0000 -0.4178 0.9085
vn 0.0000 -0.9632 0.2689
vn -0.4587 -0.7945 0.3979
vn -0.2089 -0.3618 0.9085
vn -0.7945 -0.4587 0.3979
vn -0.3618 -0.2089 0.9085
vn -0.9166 -0.0586 0.3956
vn -0.9185 0.0607 0.3908
vn -0.9185 -0.0607 0.3908
vn -0.9166 0.0587 0.3954
vn 0.5012 0.4989 0.7071
vn -0.0000 0.8944 0.4473
vn -0.5012 0.4989 0.7071
# 78 vertex normals

vt 0.2307 0.0483 0.0483
vt 0.2207 0.0464 0.0464
vt 0.2207 0.0537 0.0537
vt 0.2307 0.0537 0.0537
vt 0.2407 0.0464 0.0464
vt 0.2407 0.0537 0.0537
vt 0.1720 0.2466 0.2466
vt 0.1832 0.2441 0.2441
vt 0.1820 0.2417 0.2417
vt 0.1608 0.2441 0.2441
vt 0.1720 0.2446 0.2446
vt 0.1892 0.2349 0.2349
vt 0.1914 0.2363 0.2363
vt 0.1919 0.2256 0.2256
vt 0.1945 0.2256 0.2256
vt 0.1880 0.1978 0.1978
vt 0.1904 0.1978 0.1978
vt 0.1880 0.1738 0.1738
vt 0.1536 0.1978 0.1978
vt 0.1497 0.2256 0.2256
vt 0.1521 0.2256 0.2256
vt 0.1548 0.2349 0.2349
vt 0.1526 0.2363 0.2363
vt 0.1621 0.2417 0.2417
vt 0.1720 0.1245 0.1245
vt 0.1608 0.1274 0.1274
vt 0.1621 0.1294 0.1294
vt 0.1548 0.1362 0.1362
vt 0.1526 0.1353 0.1353
vt 0.1521 0.1455 0.1455
vt 0.1497 0.1455 0.1455
vt 0.1560 0.1738 0.1738
vt 0.1536 0.1738 0.1738
vt 0.1560 0.1978 0.1978
vt 0.1720 0.1270 0.1270
vt 0.1919 0.1455 0.1455
vt 0.1892 0.1362 0.1362
vt 0.1820 0.1294 0.1294
vt 0.1904 0.1738 0.1738
vt 0.1945 0.1455 0.1455
vt 0.1914 0.1353 0.1353
vt 0.1832 0.1274 0.1274
vt 0.1720 0.2441 0.2441
vt 0.1609 0.2437 0.2437
vt 0.1527 0.2363 0.2363
vt 0.1832 0.2437 0.2437
vt 0.1880 0.1733 0.1733
vt 0.1561 0.1733 0.1733
vt 0.1561 0.1978 0.1978
vt 0.1904 0.1973 0.1973
vt 0.1609 0.1274 0.1274
vt 0.1527 0.1353 0.1353
vt 0.1537 0.1738 0.1738
vt 0.1537 0.1973 0.1973
vt 0.2330 0.2109 0.2109
vt 0.2330 0.1880 0.1880
vt 0.1959 0.1880 0.1880
vt 0.1959 0.2109 0.2109
vt 0.2330 0.2192 0.2192
vt 0.1959 0.2192 0.2192
vt 0.2330 0.2256 0.2256
vt 0.1959 0.2256 0.2256
vt 0.1959 0.2329 0.2329
vt 0.2330 0.2329 0.2329
vt 0.2330 0.2422 0.2422
vt 0.1959 0.2422 0.2422
vt 0.2330 0.1289 0.1289
vt 0.2330 0.1187 0.1187
vt 0.1959 0.1187 0.1187
vt 0.1959 0.1289 0.1289
vt 0.2330 0.1377 0.1377
vt 0.1959 0.1377 0.1377
vt 0.2330 0.1465 0.1465
vt 0.1959 0.1465 0.1465
vt 0.1959 0.1689 0.1689
vt 0.2330 0.1689 0.1689
# 76 texture coords

o mag5
g mag5
usemtl mat_patrol_smg_INST
s 1
f 1/1/1 2/2/2 3/3/3 
f 3/3/3 4/4/4 1/1/1 
f 5/5/5 1/1/1 4/4/4 
f 4/4/4 6/6/6 5/5/5 
f 1/7/1 5/8/5 7/9/7 
f 2/10/2 1/7/1 8/11/8 
f 7/9/7 8/11/8 1/7/1 
f 8/11/8 7/9/7 9/12/9 
f 9/12/9 7/9/7 5/8/5 
f 5/8/5 10/13/10 9/12/9 
f 11/14/11 9/12/9 10/13/10 
f 10/13/10 12/15/12 11/14/11 
f 13/16/13 11/14/11 12/15/12 
f 12/15/12 14/17/14 13/16/13 
f 15/18/15 13/16/13 14/17/14 
f 16/19/16 17/20/17 18/21/18 
f 19/22/19 18/21/18 17/20/17 
f 17/20/17 20/23/20 19/22/19 
f 21/24/21 19/22/19 20/23/20 
f 20/23/20 2/10/2 21/24/21 
f 8/11/8 21/24/21 2/10/2 
f 19/22/19 21/24/21 8/11/8 
f 19/22/19 8/11/8 9/12/9 
f 19/22/19 9/12/9 11/14/11 
f 18/21/18 19/22/19 11/14/11 
f 22/25/22 23/26/23 24/27/24 
f 25/28/25 24/27/24 23/26/23 
f 23/26/23 26/29/26 25/28/25 
f 27/30/27 25/28/25 26/29/26 
f 26/29/26 28/31/28 27/30/27 
f 29/32/29 27/30/27 28/31/28 
f 28/31/28 30/33/30 29/32/29 
f 31/34/31 29/32/29 30/33/30 
f 30/33/30 16/19/16 31/34/31 
f 18/21/18 31/34/31 16/19/16 
f 32/35/32 24/27/24 25/28/25 
f 31/34/31 18/21/18 11/14/11 
f 11/14/11 13/16/13 31/34/31 
f 29/32/29 31/34/31 13/16/13 
f 13/16/13 15/18/15 29/32/29 
f 29/32/29 15/18/15 33/36/33 
f 33/36/33 27/30/27 29/32/29 
f 33/36/33 25/28/25 27/30/27 
f 33/36/33 34/37/34 25/28/25 
f 34/37/34 32/35/32 25/28/25 
f 34/37/34 35/38/35 32/35/32 
f 14/17/14 36/39/36 15/18/15 
f 33/36/33 15/18/15 36/39/36 
f 36/39/36 37/40/37 33/36/33 
f 34/37/34 33/36/33 37/40/37 
f 37/40/37 38/41/38 34/37/34 
f 35/38/35 34/37/34 38/41/38 
f 38/41/38 39/42/39 35/38/35 
f 32/35/32 35/38/35 39/42/39 
f 39/42/39 22/25/22 32/35/32 
f 24/27/24 32/35/32 22/25/22 
f 40/12/40 41/9/41 42/43/42 
f 43/14/43 40/12/40 42/43/42 
f 44/44/44 45/45/45 46/22/46 
f 46/22/46 47/24/47 44/44/44 
f 48/7/48 44/44/44 47/24/47 
f 47/24/47 42/43/42 48/7/48 
f 49/46/49 48/7/48 42/43/42 
f 42/43/42 41/9/41 49/46/49 
f 50/13/50 49/46/49 41/9/41 
f 41/9/41 40/12/40 50/13/50 
f 51/15/51 50/13/50 40/12/40 
f 40/12/40 43/14/43 51/15/51 
f 52/30/52 53/36/53 54/47/54 
f 54/47/54 55/48/55 52/30/52 
f 56/49/56 55/48/55 54/47/54 
f 54/47/54 57/16/57 56/49/56 
f 56/49/56 57/16/57 43/14/43 
f 43/14/43 58/21/58 56/49/56 
f 43/14/43 46/22/46 58/21/58 
f 43/14/43 42/43/42 46/22/46 
f 42/43/42 47/24/47 46/22/46 
f 59/50/59 51/15/51 43/14/43 
f 43/14/43 57/16/57 59/50/59 
f 60/39/60 59/50/59 57/16/57 
f 57/16/57 54/47/54 60/39/60 
f 61/40/61 60/39/60 54/47/54 
f 54/47/54 53/36/53 61/40/61 
f 62/41/62 61/40/61 53/36/53 
f 53/36/53 63/37/63 62/41/62 
f 64/42/64 62/41/62 63/37/63 
f 63/37/63 65/38/65 64/42/64 
f 66/35/66 65/38/65 63/37/63 
f 67/25/67 64/42/64 65/38/65 
f 65/38/65 66/35/66 67/25/67 
f 68/51/68 67/25/67 66/35/66 
f 66/35/66 69/27/69 68/51/68 
f 70/52/70 68/51/68 69/27/69 
f 69/27/69 71/28/71 70/52/70 
f 71/28/71 69/27/69 66/35/66 
f 52/30/52 71/28/71 66/35/66 
f 52/30/52 66/35/66 63/37/63 
f 52/30/52 63/37/63 53/36/53 
f 72/31/72 70/52/70 71/28/71 
f 71/28/71 52/30/52 72/31/72 
f 73/53/73 72/31/72 52/30/52 
f 52/30/52 55/48/55 73/53/73 
f 74/54/74 73/53/73 55/48/55 
f 55/48/55 56/49/56 74/54/74 
f 75/20/75 74/54/74 56/49/56 
f 56/49/56 58/21/58 75/20/75 
f 45/45/45 75/20/75 58/21/58 
f 58/21/58 46/22/46 45/45/45 
f 48/1/48 49/5/49 76/6/76 
f 76/6/76 77/4/77 48/1/48 
f 44/2/44 48/1/48 77/4/77 
f 77/4/77 78/3/78 44/2/44 
f 51/55/51 59/56/59 14/57/14 
f 14/57/14 12/58/12 51/55/51 
f 50/59/50 51/55/51 12/58/12 
f 12/58/12 10/60/10 50/59/50 
f 49/61/49 50/59/50 10/60/10 
f 10/60/10 5/62/5 49/61/49 
f 49/61/49 5/62/5 6/63/6 
f 6/63/6 76/64/76 49/61/49 
f 77/65/77 76/64/76 6/63/6 
f 6/63/6 4/66/4 77/65/77 
f 64/67/64 67/68/67 22/69/22 
f 22/69/22 39/70/39 64/67/64 
f 62/71/62 64/67/64 39/70/39 
f 39/70/39 38/72/38 62/71/62 
f 61/73/61 62/71/62 38/72/38 
f 38/72/38 37/74/37 61/73/61 
f 61/73/61 37/74/37 36/75/36 
f 36/75/36 60/76/60 61/73/61 
f 59/56/59 60/76/60 36/75/36 
f 36/75/36 14/57/14 59/56/59 
f 73/76/73 74/56/74 16/57/16 
f 16/57/16 30/75/30 73/76/73 
f 73/76/73 30/75/30 28/74/28 
f 28/74/28 72/73/72 73/76/73 
f 70/71/70 72/73/72 28/74/28 
f 28/74/28 26/72/26 70/71/70 
f 68/67/68 70/71/70 26/72/26 
f 26/72/26 23/70/23 68/67/68 
f 67/68/67 68/67/68 23/70/23 
f 23/70/23 22/69/22 67/68/67 
f 78/64/78 77/65/77 4/66/4 
f 4/66/4 3/63/3 78/64/78 
f 78/64/78 3/63/3 2/62/2 
f 2/62/2 44/61/44 78/64/78 
f 45/59/45 44/61/44 2/62/2 
f 2/62/2 20/60/20 45/59/45 
f 75/55/75 45/59/45 20/60/20 
f 20/60/20 17/58/17 75/55/75 
f 74/56/74 75/55/75 17/58/17 
f 17/58/17 16/57/16 74/56/74 
# 0 polygons - 152 triangles

