# 3ds Max Wavefront OBJ Exporter v0.99 - (c)2007 guruware
# File Created: 19.06.2021 00:03:12

mtllib acc2.mtl

#
# object acc2
#

v  0.9811 -1.9548 -17.1144
v  0.0195 -2.5097 -17.1156
v  -0.9420 -1.9548 -17.1144
v  -1.2612 -1.1264 -13.3070
v  1.3002 -1.1264 -13.3070
v  1.1514 0.2540 -13.3059
v  -1.1123 0.2540 -13.3059
v  -0.9420 -1.9548 -13.3035
v  0.9811 -1.9548 -13.3035
v  1.3002 -1.1264 -17.1110
v  -1.2612 -1.1264 -17.1110
v  -1.1123 0.2540 -17.1120
v  1.1514 0.2540 -17.1120
v  0.2841 -1.5083 -12.4369
v  -0.2895 -1.5083 -12.4369
v  -0.2965 -1.5254 -13.4719
v  0.2911 -1.5254 -13.4719
v  -0.2975 -0.9904 -13.4788
v  0.2922 -0.9904 -13.4788
v  -0.2986 -0.8808 -13.5473
v  -0.2986 -0.8808 -17.5272
v  0.2932 -0.8808 -17.5272
v  0.2932 -0.8808 -13.5473
v  -0.2975 -0.9904 -17.5957
v  -0.2965 -1.5254 -17.6026
v  0.2911 -1.5254 -17.6026
v  0.2922 -0.9904 -17.5957
v  -0.2895 -1.5083 -18.6377
v  0.2841 -1.5083 -18.6377
v  -1.3282 1.5441 -23.1801
v  -1.2415 1.5468 -9.1402
v  1.2361 1.5468 -9.1402
v  1.3228 1.5441 -23.1801
v  -1.0219 -1.6829 -18.4362
v  -1.0391 -1.6782 -23.2115
v  1.0337 -1.6782 -23.2115
v  1.0166 -1.6829 -18.4362
v  -1.0546 -1.6260 -12.7218
v  1.0492 -1.6260 -12.7218
v  1.0329 -1.5818 -9.2113
v  -1.0383 -1.5818 -9.2113
v  -1.4001 0.3835 -18.0102
v  1.3948 0.3835 -18.0102
v  1.3940 0.3738 -13.2116
v  -1.3994 0.3738 -13.2116
v  -1.3298 -0.7410 -9.1789
v  1.3245 -0.7410 -9.1789
v  0.0195 -2.5097 -13.3024
v  1.3313 -0.7604 -23.2115
v  -1.3367 -0.7604 -23.2115
v  -1.0411 -0.2149 -24.2383
v  -0.8432 0.3710 -24.2383
v  -0.8432 -0.8008 -24.2383
v  -0.3250 -1.1629 -24.2383
v  -0.3250 0.7331 -24.2383
v  0.3156 -1.1629 -24.2383
v  0.3156 0.7331 -24.2383
v  0.8338 -0.8008 -24.2383
v  0.8338 0.3710 -24.2383
v  1.0317 -0.2149 -24.2383
v  1.3584 -0.7604 -18.4362
v  -1.3638 -0.7604 -18.4362
v  -1.4014 -0.0333 -18.4464
v  1.3960 -0.0333 -18.4464
v  -1.3899 -0.7701 -12.7076
v  1.3845 -0.7701 -12.7076
v  -1.4004 -0.1012 -12.6979
v  1.3950 -0.1012 -12.6979
v  0.2903 0.5268 -12.5151
v  0.2903 0.5268 -18.5594
v  -0.2957 0.5268 -18.5594
v  -0.2957 0.5268 -12.5151
v  -0.3900 -1.3554 -23.1596
v  -1.0134 -0.9198 -23.1596
v  -1.2515 -0.2149 -23.1596
v  -1.0134 0.4900 -23.1596
v  -0.3900 0.9256 -23.1596
v  0.3806 0.9256 -23.1596
v  1.0040 0.4900 -23.1596
v  1.2421 -0.2149 -23.1596
v  1.0040 -0.9198 -23.1596
v  0.3806 -1.3554 -23.1596
# 82 vertices

vn 0.0000 0.0020 -1.0000
vn -0.0000 -0.0008 1.0000
vn 0.0000 -0.0008 1.0000
vn -0.0000 0.0042 1.0000
vn 0.0000 0.0042 1.0000
vn 0.0000 -0.0008 -1.0000
vn 0.0000 0.0042 -1.0000
vn 0.0000 -0.9999 0.0166
vn 0.0000 -0.0128 -0.9999
vn -0.0000 -1.0000 -0.0000
vn 0.0000 -1.0000 -0.0000
vn -0.0000 -0.0128 0.9999
vn 0.0000 -0.0128 0.9999
vn -0.0000 -0.5300 0.8480
vn 0.0000 -0.5300 -0.8480
vn 0.0000 -0.9999 -0.0166
vn -0.0000 1.0000 -0.0002
vn -0.5734 -0.8193 -0.0032
vn -0.5880 -0.8088 0.0013
vn 0.5880 -0.8088 0.0013
vn 0.5734 -0.8193 -0.0032
vn -0.5635 -0.8260 0.0131
vn 0.5635 -0.8260 0.0131
vn 0.5769 -0.8166 0.0182
vn -0.5769 -0.8166 0.0182
vn 0.0000 -0.9286 0.3712
vn 0.0000 -0.9308 -0.3654
vn -0.0000 -0.0169 0.9999
vn -0.0000 -0.0266 0.9996
vn -0.0000 -0.0385 0.9993
vn 0.0000 -0.0385 0.9993
vn 0.0000 0.0020 1.0000
vn 0.0000 0.0136 -0.9999
vn 0.0000 0.0075 -1.0000
vn 0.0000 -0.0000 -1.0000
vn 0.0000 0.0000 -1.0000
vn 0.7596 -0.6504 -0.0000
vn 0.9915 -0.1300 -0.0000
vn 0.6681 0.7441 -0.0000
vn -0.0000 -0.0000 1.0000
vn -0.0000 0.0000 1.0000
vn -0.0000 0.0081 1.0000
vn -0.0000 -0.3931 0.9195
vn -0.0000 0.0166 -0.9999
vn -0.0000 0.0154 -0.9999
vn 0.0000 0.0154 -0.9999
vn 0.0000 -0.3959 -0.9183
vn -0.7596 -0.6504 0.0000
vn -0.9915 -0.1300 0.0000
vn -0.9915 -0.1300 -0.0000
vn -0.6680 0.7442 -0.0000
vn 1.0000 -0.0019 0.0068
vn 1.0000 -0.0056 0.0049
vn 1.0000 -0.0027 0.0066
vn 1.0000 -0.0007 0.0028
vn 1.0000 0.0001 0.0028
vn 1.0000 -0.0007 -0.0028
vn 1.0000 0.0001 -0.0028
vn 1.0000 -0.0027 -0.0066
vn 1.0000 -0.0056 -0.0049
vn 1.0000 -0.0019 -0.0068
vn 0.9871 -0.1603 -0.0057
vn 0.9793 -0.2025 -0.0056
vn 0.9999 -0.0109 -0.0093
vn 0.9998 0.0165 -0.0111
vn 0.9974 0.0717 0.0017
vn 0.9984 0.0511 0.0228
vn 0.9943 0.1061 0.0080
vn 0.9996 0.0168 0.0246
vn 0.9889 -0.1470 0.0227
vn 0.9812 -0.1927 0.0140
vn -0.9812 -0.1927 0.0140
vn -0.9889 -0.1470 0.0227
vn -0.9996 0.0168 0.0246
vn -0.9984 0.0511 0.0228
vn -0.9943 0.1061 0.0080
vn -0.9974 0.0717 0.0017
vn -0.9998 0.0165 -0.0111
vn -0.9999 -0.0109 -0.0093
vn -0.9871 -0.1603 -0.0057
vn -0.9793 -0.2025 -0.0056
vn -1.0000 -0.0019 -0.0068
vn -1.0000 -0.0056 -0.0049
vn -1.0000 -0.0027 -0.0066
vn -1.0000 -0.0007 -0.0028
vn -1.0000 0.0001 -0.0028
vn -1.0000 -0.0007 0.0028
vn -1.0000 0.0001 0.0028
vn -1.0000 -0.0027 0.0066
vn -1.0000 -0.0056 0.0049
vn -1.0000 -0.0019 0.0068
vn -0.7849 -0.5901 -0.1890
vn -0.2950 -0.9374 -0.1850
vn -0.7864 -0.5881 -0.1890
vn -0.9815 -0.0000 -0.1915
vn -0.9815 0.0000 -0.1915
vn -0.7864 0.5881 -0.1890
vn -0.7849 0.5901 -0.1890
vn -0.2957 0.9372 -0.1851
vn -0.2943 0.9376 -0.1851
vn 0.2957 0.9372 -0.1851
vn 0.2943 0.9376 -0.1851
vn 0.7849 0.5901 -0.1890
vn 0.7864 0.5881 -0.1890
vn 0.9815 -0.0000 -0.1915
vn 0.7864 -0.5881 -0.1890
vn 0.7849 -0.5901 -0.1890
vn 0.2957 -0.9372 -0.1851
vn 0.2943 -0.9376 -0.1851
# 109 vertex normals

vt 0.8252 0.8339 0.8339
vt 0.8281 0.8290 0.8290
vt 0.8252 0.8240 0.8240
vt 0.8208 0.8224 0.8224
vt 0.8208 0.8356 0.8356
vt 0.8140 0.8347 0.8347
vt 0.8140 0.8231 0.8231
vt 0.8091 0.9768 0.9768
vt 0.8091 0.9748 0.9748
vt 0.8052 0.9748 0.9748
vt 0.8052 0.9769 0.9769
vt 0.8032 0.9748 0.9748
vt 0.8032 0.9769 0.9769
vt 0.7886 0.9748 0.9748
vt 0.8027 0.9748 0.9748
vt 0.8027 0.9769 0.9769
vt 0.7886 0.9768 0.9768
vt 0.9961 0.9182 0.9182
vt 0.9927 0.9001 0.9001
vt 0.9961 0.8995 0.8995
vt 0.9995 0.9176 0.9176
vt 0.9102 0.7872 0.7872
vt 0.8999 0.7823 0.7823
vt 0.8975 0.7869 0.7869
vt 0.9082 0.7917 0.7917
vt 0.8149 0.7092 0.7092
vt 0.8149 0.7175 0.7175
vt 0.8013 0.7175 0.7175
vt 0.8013 0.7092 0.7092
vt 0.7979 0.7087 0.7087
vt 0.7979 0.7168 0.7168
vt 0.7842 0.7168 0.7168
vt 0.7842 0.7087 0.7087
vt 0.7568 0.8738 0.8738
vt 0.7568 0.8849 0.8849
vt 0.7671 0.8854 0.8854
vt 0.7671 0.8733 0.8733
vt 0.7710 0.8746 0.8746
vt 0.7710 0.8840 0.8840
vt 0.8862 0.8428 0.8428
vt 0.8955 0.8428 0.8428
vt 0.8955 0.8345 0.8345
vt 0.8862 0.8345 0.8345
vt 0.8945 0.8313 0.8313
vt 0.8872 0.8313 0.8313
vt 0.7388 0.7090 0.7090
vt 0.7388 0.7373 0.7373
vt 0.7456 0.7373 0.7373
vt 0.7456 0.7090 0.7090
vt 0.7520 0.7090 0.7090
vt 0.7520 0.7373 0.7373
vt 0.7622 0.7090 0.7090
vt 0.7622 0.7373 0.7373
vt 0.9019 0.9596 0.9596
vt 0.9004 0.9632 0.9632
vt 0.9004 0.9560 0.9560
vt 0.8975 0.9538 0.9538
vt 0.8975 0.9654 0.9654
vt 0.8936 0.9538 0.9538
vt 0.8936 0.9654 0.9654
vt 0.8901 0.9560 0.9560
vt 0.8901 0.9632 0.9632
vt 0.8892 0.9596 0.9596
vt 0.9097 0.7933 0.7933
vt 0.9126 0.7874 0.7874
vt 0.9141 0.7880 0.7880
vt 0.9111 0.7941 0.7941
vt 0.9121 0.7946 0.7946
vt 0.9150 0.7885 0.7885
vt 0.7788 0.7371 0.7371
vt 0.7788 0.7087 0.7087
vt 0.8496 0.9456 0.9456
vt 0.8496 0.9483 0.9483
vt 0.8442 0.9461 0.9461
vt 0.8501 0.9488 0.9488
vt 0.8457 0.9564 0.9564
vt 0.8706 0.9471 0.9471
vt 0.8765 0.9537 0.9537
vt 0.8755 0.9434 0.9434
vt 0.8706 0.9465 0.9465
vt 0.8706 0.9438 0.9438
vt 0.9385 0.7819 0.7819
vt 0.9663 0.7745 0.7745
vt 0.9673 0.7798 0.7798
vt 0.9399 0.7871 0.7871
vt 0.9414 0.7913 0.7913
vt 0.9707 0.7931 0.7931
vt 0.9395 0.7944 0.7944
vt 0.8901 0.8148 0.8148
vt 0.9116 0.8018 0.8018
vt 0.9082 0.7998 0.7998
vt 0.8867 0.8015 0.8015
vt 0.9072 0.7959 0.7959
vt 0.8857 0.7966 0.7966
vt 0.9058 0.7910 0.7910
vt 0.5137 0.8080 0.8080
vt 0.5107 0.8080 0.8080
vt 0.5107 0.8129 0.8129
vt 0.5137 0.8129 0.8129
vt 0.5166 0.8129 0.8129
vt 0.5166 0.8080 0.8080
vt 0.5195 0.8129 0.8129
vt 0.5195 0.8080 0.8080
vt 0.5225 0.8129 0.8129
vt 0.5225 0.8080 0.8080
vt 0.5254 0.8129 0.8129
vt 0.5254 0.8080 0.8080
vt 0.5283 0.8080 0.8080
vt 0.5283 0.8129 0.8129
vt 0.5317 0.8129 0.8129
vt 0.5317 0.8080 0.8080
vt 0.5347 0.8129 0.8129
vt 0.5347 0.8080 0.8080
vt 0.5376 0.8129 0.8129
vt 0.5376 0.8080 0.8080
vt 0.5405 0.8129 0.8129
vt 0.5405 0.8080 0.8080
# 117 texture coords

o acc2
g acc2
usemtl mat_revolver_pistol_INST
s 1
f 1/1/1 2/2/1 3/3/1 
f 4/4/2 5/5/2 6/6/2 
f 6/6/2 7/7/3 4/4/2 
f 8/3/4 9/1/5 5/5/4 
f 5/5/4 4/4/4 8/3/4 
f 10/5/6 11/4/6 12/7/6 
f 12/7/6 13/6/6 10/5/6 
f 11/4/7 10/5/7 1/1/7 
f 1/1/7 3/3/7 11/4/7 
f 14/8/8 15/9/8 16/10/8 
f 16/10/8 17/11/8 14/8/8 
f 17/11/9 16/10/9 18/12/9 
f 18/12/9 19/13/9 17/11/9 
f 20/14/10 21/15/10 22/16/10 
f 22/16/10 23/17/11 20/14/10 
f 24/12/12 25/10/13 26/11/12 
f 26/11/12 27/13/12 24/12/12 
f 21/15/14 24/12/14 27/13/14 
f 27/13/14 22/16/14 21/15/14 
f 23/16/15 19/13/15 18/12/15 
f 18/12/15 20/15/15 23/16/15 
f 28/9/16 29/8/16 26/11/16 
f 26/11/16 25/10/16 28/9/16 
f 30/18/17 31/19/17 32/20/17 
f 32/20/17 33/21/17 30/18/17 
f 34/22/18 35/23/19 36/24/20 
f 36/24/20 37/25/21 34/22/18 
f 38/26/22 39/27/23 40/28/24 
f 40/28/24 41/29/25 38/26/22 
f 42/30/26 43/31/26 44/32/27 
f 44/32/27 45/33/27 42/30/26 
f 32/34/28 31/35/28 46/36/29 
f 46/36/29 47/37/29 32/34/28 
f 40/38/30 47/37/29 46/36/29 
f 46/36/29 41/39/31 40/38/30 
f 9/1/32 8/3/32 48/2/32 
f 30/40/33 33/41/33 49/42/34 
f 49/42/34 50/43/34 30/40/33 
f 50/43/34 49/42/34 36/44/35 
f 36/44/35 35/45/36 50/43/34 
f 48/46/11 2/47/10 1/48/37 
f 1/48/37 9/49/37 48/46/11 
f 5/50/38 9/49/37 1/48/37 
f 1/48/37 10/51/38 5/50/38 
f 6/52/39 5/50/38 10/51/38 
f 10/51/38 13/53/39 6/52/39 
f 51/54/36 52/55/36 53/56/36 
f 52/55/36 54/57/36 53/56/36 
f 52/55/36 55/58/36 54/57/36 
f 55/58/36 56/59/36 54/57/36 
f 55/58/36 57/60/36 56/59/36 
f 57/60/36 58/61/36 56/59/36 
f 57/60/36 59/62/36 58/61/36 
f 59/62/36 60/63/36 58/61/36 
f 34/22/40 37/25/41 61/64/42 
f 61/64/42 62/65/42 34/22/40 
f 63/66/43 62/65/42 61/64/42 
f 61/64/42 64/67/43 63/66/43 
f 63/66/43 64/67/43 43/68/26 
f 43/68/26 42/69/26 63/66/43 
f 39/25/44 38/22/44 65/65/45 
f 65/65/45 66/64/46 39/25/44 
f 66/64/46 65/65/45 67/66/47 
f 67/66/47 68/67/47 66/64/46 
f 68/67/47 67/66/47 45/69/27 
f 45/69/27 44/68/27 68/67/47 
f 2/47/10 48/46/11 8/49/48 
f 8/49/48 3/48/48 2/47/10 
f 3/48/48 8/49/48 4/50/49 
f 4/50/49 11/51/50 3/48/48 
f 11/51/50 4/50/49 7/52/51 
f 7/52/51 12/53/51 11/51/50 
f 13/70/39 12/53/51 7/52/51 
f 7/52/51 6/71/39 13/70/39 
f 17/72/52 19/73/53 14/74/54 
f 14/74/54 19/73/53 23/75/55 
f 23/75/55 69/76/56 14/74/54 
f 69/76/56 23/75/55 22/77/57 
f 22/77/57 70/78/58 69/76/56 
f 29/79/59 70/78/58 22/77/57 
f 22/77/57 27/80/60 29/79/59 
f 29/79/59 27/80/60 26/81/61 
f 37/82/21 36/83/20 49/84/62 
f 49/84/62 61/85/63 37/82/21 
f 64/86/64 61/85/63 49/84/62 
f 49/84/62 33/87/65 64/86/64 
f 43/88/66 64/86/64 33/87/65 
f 43/88/66 33/87/65 32/89/67 
f 32/89/67 44/90/68 43/88/66 
f 68/91/69 44/90/68 32/89/67 
f 68/91/69 32/89/67 47/92/70 
f 47/92/70 66/93/71 68/91/69 
f 66/93/71 47/92/70 40/94/24 
f 40/94/24 39/95/23 66/93/71 
f 65/93/72 38/95/22 41/94/25 
f 41/94/25 46/92/73 65/93/72 
f 67/91/74 65/93/72 46/92/73 
f 46/92/73 31/89/75 67/91/74 
f 67/91/74 31/89/75 45/90/76 
f 42/88/77 45/90/76 31/89/75 
f 31/89/75 30/87/78 42/88/77 
f 42/88/77 30/87/78 63/86/79 
f 63/86/79 30/87/78 50/84/80 
f 50/84/80 62/85/81 63/86/79 
f 34/82/18 62/85/81 50/84/80 
f 50/84/80 35/83/19 34/82/18 
f 25/81/82 24/80/83 28/79/84 
f 28/79/84 24/80/83 21/77/85 
f 21/77/85 71/78/86 28/79/84 
f 71/78/86 21/77/85 20/75/87 
f 20/75/87 72/76/88 71/78/86 
f 15/74/89 72/76/88 20/75/87 
f 20/75/87 18/73/90 15/74/89 
f 15/74/89 18/73/90 16/72/91 
f 53/96/92 54/97/93 73/98/93 
f 73/98/93 74/99/94 53/96/92 
f 53/96/92 74/99/94 75/100/95 
f 75/100/95 51/101/96 53/96/92 
f 51/101/96 75/100/95 76/102/97 
f 76/102/97 52/103/98 51/101/96 
f 52/103/98 76/102/97 77/104/99 
f 77/104/99 55/105/100 52/103/98 
f 55/105/100 77/104/99 78/106/101 
f 78/106/101 57/107/102 55/105/100 
f 59/108/103 57/107/102 78/106/101 
f 78/106/101 79/109/104 59/108/103 
f 59/108/103 79/109/104 80/110/105 
f 80/110/105 60/111/105 59/108/103 
f 60/111/105 80/110/105 81/112/106 
f 81/112/106 58/113/107 60/111/105 
f 58/113/107 81/112/106 82/114/108 
f 82/114/108 56/115/109 58/113/107 
f 56/115/109 82/114/108 73/116/93 
f 73/116/93 54/117/93 56/115/109 
# 0 polygons - 134 triangles

