# 3ds Max Wavefront OBJ Exporter v0.99 - (c)2007 guruware
# File Created: 19.06.2021 00:10:57

mtllib grip5.mtl

#
# object grip5
#

v  -0.6563 -7.1526 18.4382
v  0.6564 -7.1526 18.4382
v  0.5454 -5.2844 17.5649
v  -1.9667 -7.3875 17.5891
v  -0.5280 -5.2844 17.5649
v  0.5173 -3.1388 16.3093
v  -2.5487 -7.7085 16.5222
v  -1.5410 -5.3983 16.9180
v  -0.5008 -3.1388 16.3093
v  0.5037 -0.8383 14.5079
v  -0.4875 -0.8383 14.5079
v  0.5037 0.6024 13.3265
v  -1.4051 -3.3382 15.7553
v  -2.2174 -5.6991 15.9347
v  -2.2352 -8.6406 13.1018
v  -1.5072 -8.9795 14.2073
v  -1.1392 -9.3127 12.9639
v  0.0123 -9.1626 15.1757
v  -1.6741 -8.5948 15.6430
v  -1.4291 -8.2562 16.7119
v  -0.5278 -8.0523 17.4488
v  0.5263 -8.0523 17.4488
v  1.4239 -8.2562 16.7119
v  1.6667 -8.5948 15.6430
v  1.4998 -8.9795 14.2073
v  1.1339 -9.3127 12.9639
v  0.5263 -9.5050 12.2461
v  -0.5278 -9.5050 12.2461
v  -0.6059 -9.3080 10.6977
v  0.6059 -9.3080 10.6977
v  1.6836 -9.0226 11.7628
v  2.2265 -8.6406 13.1018
v  2.5420 -7.7085 16.5222
v  -1.6892 -9.0226 11.7628
v  1.9625 -7.3875 17.5891
v  0.6993 -0.7647 5.4730
v  -0.6831 -0.7647 5.4730
v  -0.6831 -0.4484 5.2193
v  0.6993 -0.4484 5.2193
v  -0.4875 -2.1052 8.6296
v  0.5037 -2.1052 8.6296
v  0.5037 -3.7473 9.8468
v  -0.4875 -1.1846 6.7754
v  0.5037 -1.1846 6.7754
v  -1.0440 -0.8071 6.8423
v  -1.4711 -0.2421 5.8143
v  -1.4872 0.0499 5.6672
v  -1.0874 0.6952 5.4822
v  -0.4875 0.8059 5.2593
v  0.5037 0.8059 5.2593
v  -1.4532 2.6469 8.9029
v  -1.6987 3.0734 8.7920
v  -1.4676 -0.4053 6.9339
v  -1.0824 -1.7319 8.8585
v  -0.4875 -3.7473 9.8468
v  0.5173 -5.3011 10.4435
v  -0.5008 -5.3011 10.4435
v  -1.5310 -1.3348 9.1540
v  -1.1401 -3.4861 10.1837
v  -1.2107 -5.1482 10.9307
v  -0.5280 -7.2186 10.6186
v  -1.2677 -6.9918 11.3241
v  -0.5802 -8.5781 10.4260
v  -1.4840 -8.2948 11.4040
v  -1.8258 -6.6622 12.3818
v  -1.7247 -4.8411 11.7124
v  0.5454 -7.2186 10.6186
v  0.5898 -8.5781 10.4260
v  -2.0247 -3.6611 14.9925
v  -1.2589 -0.9756 14.1226
v  -0.4875 0.6024 13.3265
v  0.5037 1.5832 12.2919
v  -0.4875 1.5832 12.2919
v  0.5037 2.7460 10.6335
v  -1.8327 -1.2757 13.5213
v  -1.1718 0.4173 13.0334
v  -1.0967 1.5105 12.0104
v  -0.4875 2.7460 10.6335
v  -1.0114 2.6077 10.3347
v  -1.6636 0.6982 11.8166
v  -1.6177 -3.1455 10.7064
v  -1.5023 2.3367 9.6410
v  0.5037 3.2188 10.4253
v  -0.4875 3.2188 10.4253
v  -0.9923 2.9898 9.6865
v  -0.5301 3.8990 10.8414
v  -1.0860 3.9063 10.4773
v  -0.5301 4.8743 9.8823
v  -1.2427 3.6179 8.4403
v  -1.3304 4.0090 9.8244
v  -1.1338 4.6038 9.7503
v  -0.8485 4.6934 9.4687
v  0.5464 3.8989 10.8414
v  0.5464 4.8743 9.8823
v  0.8556 4.6935 9.4687
v  1.4856 -8.2948 11.4040
v  1.2754 -6.9918 11.3241
v  1.8305 -6.6622 12.3818
v  2.2221 -5.6991 15.9347
v  1.2181 -5.1482 10.9307
v  1.1473 -3.4861 10.1837
v  1.0896 -1.7319 8.8585
v  1.0510 -0.8071 6.8423
v  1.4130 -3.3382 15.7553
v  2.0292 -3.6611 14.9925
v  1.8372 -1.2757 13.5213
v  1.5494 -5.3983 16.9180
v  1.7293 -4.8411 11.7124
v  1.6222 -3.1455 10.7064
v  1.5355 -1.3348 9.1541
v  1.4721 -0.4053 6.9339
v  1.6681 0.6982 11.8166
v  1.4757 -0.2421 5.8144
v  1.5068 2.3367 9.6410
v  1.1039 1.5106 12.0104
v  1.1792 0.4175 13.0334
v  1.2665 -0.9756 14.1226
v  1.7032 3.0734 8.7920
v  1.4917 0.0499 5.6673
v  1.0945 0.6952 5.4822
v  1.4577 2.6469 8.9030
v  1.0185 2.6078 10.3347
v  1.3564 4.0091 9.8244
v  1.2503 3.6180 8.4403
v  1.1409 4.6039 9.7504
v  1.1025 3.9064 10.4773
v  0.9992 2.9898 9.6865
# 127 vertices

vn -0.2600 -0.2050 0.9436
vn 0.2767 0.0225 0.9607
vn 0.2750 0.4548 0.8471
vn -0.6697 -0.2639 0.6941
vn -0.2689 0.4521 0.8505
vn 0.2766 0.5359 0.7977
vn -0.8884 -0.3338 0.3151
vn -0.6856 0.3673 0.6285
vn -0.2720 0.5425 0.7948
vn 0.2325 0.6085 0.7587
vn -0.2355 0.6023 0.7627
vn 0.2275 0.6583 0.7176
vn -0.6709 0.4251 0.6076
vn -0.9559 0.2108 0.2046
vn -0.9010 -0.4194 -0.1108
vn -0.4274 -0.8886 0.1668
vn -0.3400 -0.9373 0.0772
vn 0.0024 -0.9623 0.2721
vn -0.4393 -0.8618 0.2537
vn -0.3583 -0.8256 0.4360
vn -0.1391 -0.8127 0.5658
vn 0.1216 -0.8186 0.5613
vn 0.3084 -0.8427 0.4413
vn 0.4292 -0.8671 0.2528
vn 0.4223 -0.8924 0.1590
vn 0.3580 -0.9309 0.0732
vn 0.1745 -0.9844 -0.0235
vn -0.1557 -0.9877 -0.0169
vn -0.3229 -0.7499 -0.5774
vn 0.3432 -0.6338 -0.6932
vn 0.7539 -0.5705 -0.3258
vn 0.8875 -0.4468 -0.1128
vn 0.8863 -0.3544 0.2981
vn -0.7567 -0.5572 -0.3419
vn 0.6642 -0.2592 0.7011
vn 0.3367 -0.7888 -0.5142
vn -0.3214 -0.7901 -0.5219
vn -0.2871 -0.3150 -0.9046
vn 0.2942 -0.3142 -0.9026
vn -0.3214 -0.7241 -0.6102
vn 0.3112 -0.7234 -0.6162
vn 0.2902 -0.4621 -0.8380
vn -0.2852 -0.8938 -0.3461
vn 0.3002 -0.8911 -0.3402
vn -0.6302 -0.7367 -0.2452
vn -0.8574 -0.4230 -0.2930
vn -0.8581 -0.0180 -0.5132
vn -0.5709 0.3641 -0.7358
vn -0.1711 0.4112 -0.8954
vn 0.1968 0.4111 -0.8901
vn -0.9546 -0.1373 0.2645
vn -0.9962 0.0770 0.0405
vn -0.9334 -0.3420 -0.1086
vn -0.6735 -0.5713 -0.4690
vn -0.2892 -0.4554 -0.8420
vn 0.3216 -0.2263 -0.9194
vn -0.3096 -0.2160 -0.9260
vn -0.9475 -0.2313 -0.2209
vn -0.6833 -0.3552 -0.6379
vn -0.7430 -0.1781 -0.6452
vn -0.3660 0.0281 -0.9302
vn -0.7997 -0.0019 -0.6004
vn -0.3798 -0.0995 -0.9197
vn -0.8178 0.0031 -0.5755
vn -0.9568 0.0358 -0.2885
vn -0.9561 -0.0668 -0.2852
vn 0.3796 0.0301 -0.9247
vn 0.3978 -0.0885 -0.9132
vn -0.9524 0.2072 0.2237
vn -0.6137 0.4888 0.6200
vn -0.2268 0.6626 0.7138
vn 0.1909 0.7612 0.6198
vn -0.1902 0.7520 0.6312
vn 0.3196 0.6611 0.6788
vn -0.9416 0.2401 0.2362
vn -0.6257 0.5391 0.5638
vn -0.6042 0.6304 0.4874
vn -0.2711 0.6297 0.7280
vn -0.6957 0.5869 0.4143
vn -0.9461 0.2694 0.1799
vn -0.9444 -0.1423 -0.2963
vn -0.9330 0.3336 0.1347
vn 0.2934 -0.1386 0.9459
vn -0.3189 -0.2232 0.9211
vn -0.8305 -0.0012 0.5569
vn -0.3153 0.0711 0.9463
vn -0.6941 0.0228 0.7195
vn -0.2327 0.9337 0.2722
vn -0.5773 0.6278 -0.5221
vn -0.9570 0.2254 0.1825
vn -0.7238 0.6791 0.1222
vn -0.3071 0.8394 -0.4485
vn 0.2869 0.0939 0.9534
vn 0.2370 0.9328 0.2716
vn 0.2641 0.8411 -0.4720
vn 0.8290 0.0370 -0.5580
vn 0.8048 -0.0051 -0.5935
vn 0.9522 0.0177 -0.3049
vn 0.9587 0.2091 0.1929
vn 0.7452 -0.1873 -0.6400
vn 0.6945 -0.3588 -0.6237
vn 0.6824 -0.5656 -0.4630
vn 0.6459 -0.7188 -0.2570
vn 0.6711 0.4195 0.6112
vn 0.9534 0.2072 0.2192
vn 0.9383 0.2543 0.2345
vn 0.6796 0.3765 0.6295
vn 0.9510 -0.0746 -0.3001
vn 0.9392 -0.1567 -0.3056
vn 0.9423 -0.2478 -0.2250
vn 0.9245 -0.3598 -0.1257
vn 0.9451 0.2676 0.1877
vn 0.8080 -0.4466 -0.3844
vn 0.9176 0.3757 0.1297
vn 0.5963 0.6420 0.4818
vn 0.6500 0.5134 0.5602
vn 0.6203 0.5005 0.6040
vn 0.9938 0.0801 0.0765
vn 0.8401 -0.0241 -0.5419
vn 0.5515 0.3142 -0.7728
vn 0.9486 -0.1153 0.2946
vn 0.6257 0.6739 0.3929
vn 0.9652 0.1790 0.1905
vn 0.5772 0.6262 -0.5241
vn 0.7183 0.6852 0.1208
vn 0.7164 0.0584 0.6952
vn 0.8232 -0.0528 0.5654
# 127 vertex normals

vt 0.4082 0.2148 0.2148
vt 0.4160 0.2178 0.2178
vt 0.4097 0.2280 0.2280
vt 0.3987 0.2109 0.2109
vt 0.4033 0.2256 0.2256
vt 0.4016 0.2412 0.2412
vt 0.3911 0.2085 0.2085
vt 0.3950 0.2231 0.2231
vt 0.3955 0.2388 0.2388
vt 0.3904 0.2549 0.2549
vt 0.3850 0.2520 0.2520
vt 0.3831 0.2632 0.2632
vt 0.3884 0.2358 0.2358
vt 0.3877 0.2207 0.2207
vt 0.3723 0.2031 0.2031
vt 0.3796 0.1992 0.1992
vt 0.3730 0.1958 0.1958
vt 0.3867 0.1919 0.1919
vt 0.3875 0.2017 0.2017
vt 0.3936 0.2017 0.2017
vt 0.3987 0.1973 0.1973
vt 0.3999 0.1914 0.1914
vt 0.3967 0.1855 0.1855
vt 0.3911 0.1831 0.1831
vt 0.3828 0.1821 0.1821
vt 0.3755 0.1831 0.1831
vt 0.3708 0.1855 0.1855
vt 0.3696 0.1914 0.1914
vt 0.3608 0.1914 0.1914
vt 0.3623 0.1826 0.1826
vt 0.3696 0.1777 0.1777
vt 0.3777 0.1758 0.1758
vt 0.3970 0.1777 0.1777
vt 0.3655 0.1982 0.1982
vt 0.4033 0.1826 0.1826
vt 0.4067 0.1914 0.1914
vt 0.4053 0.1997 0.1997
vt 0.3987 0.2065 0.2065
vt 0.3132 0.2466 0.2466
vt 0.3247 0.2476 0.2476
vt 0.3232 0.2495 0.2495
vt 0.3132 0.2485 0.2485
vt 0.3428 0.2402 0.2402
vt 0.3384 0.2358 0.2358
vt 0.3440 0.2280 0.2280
vt 0.3325 0.2451 0.2451
vt 0.3293 0.2397 0.2397
vt 0.3345 0.2485 0.2485
vt 0.3301 0.2529 0.2529
vt 0.3274 0.2544 0.2544
vt 0.3257 0.2578 0.2578
vt 0.3213 0.2583 0.2583
vt 0.3140 0.2578 0.2578
vt 0.3223 0.2412 0.2412
vt 0.3477 0.2690 0.2690
vt 0.3450 0.2715 0.2715
vt 0.3364 0.2520 0.2520
vt 0.3459 0.2437 0.2437
vt 0.3491 0.2314 0.2314
vt 0.3462 0.2202 0.2202
vt 0.3521 0.2222 0.2222
vt 0.3491 0.2466 0.2466
vt 0.3540 0.2339 0.2339
vt 0.3579 0.2241 0.2241
vt 0.3540 0.2114 0.2114
vt 0.3601 0.2134 0.2134
vt 0.3533 0.2026 0.2026
vt 0.3601 0.2046 0.2046
vt 0.3674 0.2153 0.2153
vt 0.3638 0.2266 0.2266
vt 0.3486 0.2100 0.2100
vt 0.3467 0.2007 0.2007
vt 0.3481 0.1963 0.1963
vt 0.3547 0.1982 0.1982
vt 0.3621 0.2007 0.2007
vt 0.3823 0.2334 0.2334
vt 0.3789 0.2495 0.2495
vt 0.3779 0.2598 0.2598
vt 0.3760 0.2695 0.2695
vt 0.3713 0.2661 0.2661
vt 0.3669 0.2764 0.2764
vt 0.3740 0.2471 0.2471
vt 0.3728 0.2573 0.2573
vt 0.3669 0.2637 0.2637
vt 0.3625 0.2725 0.2725
vt 0.3582 0.2705 0.2705
vt 0.3643 0.2583 0.2583
vt 0.3579 0.2363 0.2363
vt 0.3518 0.2676 0.2676
vt 0.3630 0.2793 0.2793
vt 0.3582 0.2759 0.2759
vt 0.3542 0.2739 0.2739
vt 0.3584 0.2822 0.2822
vt 0.3547 0.2783 0.2783
vt 0.3525 0.2891 0.2891
vt 0.3425 0.2754 0.2754
vt 0.3503 0.2798 0.2798
vt 0.3491 0.2847 0.2847
vt 0.3455 0.2852 0.2852
vt 0.3230 0.2617 0.2617
vt 0.3594 0.3003 0.3003
vt 0.3550 0.3062 0.3062
vt 0.3484 0.3003 0.3003
vt 0.3538 0.2949 0.2949
vt 0.3411 0.2944 0.2944
vt 0.3464 0.2886 0.2886
vt 0.3369 0.2939 0.2939
vt 0.3181 0.2666 0.2666
vt 1.3594 0.2046 0.2046
vt 1.3525 0.2026 0.2026
vt 1.3535 0.2114 0.2114
vt 1.3613 0.2007 0.2007
vt 1.3545 0.1982 0.1982
vt 1.3721 0.2031 0.2031
vt 1.3594 0.2134 0.2134
vt 1.3516 0.2222 0.2222
vt 1.3672 0.2153 0.2153
vt 1.3877 0.2207 0.2207
vt 1.3574 0.2241 0.2241
vt 1.3486 0.2314 0.2314
vt 1.3535 0.2339 0.2339
vt 1.3428 0.2402 0.2402
vt 1.3457 0.2437 0.2437
vt 1.3320 0.2451 0.2451
vt 1.3340 0.2485 0.2485
vt 1.3877 0.2358 0.2358
vt 1.3818 0.2334 0.2334
vt 1.3740 0.2471 0.2471
vt 1.3945 0.2231 0.2231
vt 1.3633 0.2266 0.2266
vt 1.3574 0.2363 0.2363
vt 1.3486 0.2466 0.2466
vt 1.3359 0.2520 0.2520
vt 1.3643 0.2583 0.2583
vt 1.3242 0.2476 0.2476
vt 1.3301 0.2529 0.2529
vt 1.3516 0.2676 0.2676
vt 1.3662 0.2637 0.2637
vt 1.3721 0.2573 0.2573
vt 1.3789 0.2495 0.2495
vt 1.3447 0.2715 0.2715
vt 1.3271 0.2544 0.2544
vt 1.3252 0.2578 0.2578
vt 1.3477 0.2690 0.2690
vt 1.3574 0.2705 0.2705
vt 1.3711 0.2661 0.2661
vt 1.3779 0.2598 0.2598
vt 1.3848 0.2520 0.2520
vt 1.3496 0.2798 0.2798
vt 1.3418 0.2754 0.2754
vt 1.3486 0.2847 0.2847
vt 1.3545 0.2783 0.2783
vt 1.3535 0.2739 0.2739
vt 1.3623 0.2725 0.2725
vt 1.3574 0.2759 0.2759
vt 1.3584 0.2822 0.2822
vt 1.3525 0.2891 0.2891
vt 1.3457 0.2852 0.2852
vt 1.3223 0.2617 0.2617
vt 1.3125 0.2485 0.2485
vt 1.3135 0.2578 0.2578
vt 1.3213 0.2583 0.2583
vt 1.3232 0.2495 0.2495
vt 1.3125 0.2466 0.2466
vt 1.3955 0.2388 0.2388
vt 1.4033 0.2256 0.2256
vt 1.4082 0.2148 0.2148
vt 1.3984 0.2109 0.2109
vt 1.3906 0.2085 0.2085
# 169 texture coords

o grip5
g grip5
usemtl mat_revolver_pistol_INST
s 1
f 1/1/1 2/2/2 3/3/3 
f 4/4/4 1/1/1 5/5/5 
f 3/3/3 5/5/5 1/1/1 
f 5/5/5 3/3/3 6/6/6 
f 7/7/7 4/4/4 8/8/8 
f 5/5/5 8/8/8 4/4/4 
f 8/8/8 5/5/5 9/9/9 
f 6/6/6 9/9/9 5/5/5 
f 9/9/9 6/6/6 10/10/10 
f 11/11/11 10/10/10 12/12/12 
f 10/10/10 11/11/11 9/9/9 
f 13/13/13 9/9/9 11/11/11 
f 9/9/9 13/13/13 8/8/8 
f 14/14/14 8/8/8 13/13/13 
f 8/8/8 14/14/14 7/7/7 
f 15/15/15 7/7/7 14/14/14 
f 7/7/7 15/15/15 16/16/16 
f 17/17/17 16/16/16 15/15/15 
f 16/16/16 17/17/17 18/18/18 
f 16/16/16 19/19/19 7/7/7 
f 19/19/19 16/16/16 18/18/18 
f 20/20/20 19/19/19 18/18/18 
f 21/21/21 20/20/20 18/18/18 
f 22/22/22 21/21/21 18/18/18 
f 23/23/23 22/22/22 18/18/18 
f 24/24/24 23/23/23 18/18/18 
f 25/25/25 24/24/24 18/18/18 
f 26/26/26 25/25/25 18/18/18 
f 27/27/27 26/26/26 18/18/18 
f 17/17/17 28/28/28 18/18/18 
f 28/28/28 27/27/27 18/18/18 
f 27/27/27 28/28/28 29/29/29 
f 29/29/29 30/30/30 27/27/27 
f 26/26/26 27/27/27 30/30/30 
f 30/30/30 31/31/31 26/26/26 
f 25/25/25 26/26/26 31/31/31 
f 31/31/31 32/32/32 25/25/25 
f 24/24/24 25/25/25 32/32/32 
f 32/32/32 33/33/33 24/24/24 
f 34/34/34 29/29/29 28/28/28 
f 28/28/28 17/17/17 34/34/34 
f 15/15/15 34/34/34 17/17/17 
f 23/23/23 24/24/24 33/33/33 
f 33/33/33 35/35/35 23/23/23 
f 22/22/22 23/23/23 35/35/35 
f 35/35/35 2/36/2 22/22/22 
f 21/21/21 22/22/22 2/36/2 
f 2/36/2 1/37/1 21/21/21 
f 20/20/20 21/21/21 1/37/1 
f 1/37/1 4/38/4 20/20/20 
f 19/19/19 20/20/20 4/38/4 
f 4/38/4 7/7/7 19/19/19 
f 36/39/36 37/40/37 38/41/38 
f 38/41/38 39/42/39 36/39/36 
f 40/43/40 41/44/41 42/45/42 
f 41/44/41 40/43/40 43/46/43 
f 43/46/43 44/47/44 41/44/41 
f 44/47/44 43/46/43 37/40/37 
f 43/46/43 45/48/45 37/40/37 
f 46/49/46 37/40/37 45/48/45 
f 38/41/38 37/40/37 46/49/46 
f 46/49/46 47/50/47 38/41/38 
f 38/41/38 47/50/47 48/51/48 
f 38/41/38 48/51/48 49/52/49 
f 39/42/39 38/41/38 49/52/49 
f 49/52/49 50/53/50 39/42/39 
f 45/48/45 43/46/43 40/43/40 
f 37/40/37 36/54/36 44/47/44 
f 51/55/51 52/56/52 47/50/47 
f 47/50/47 46/49/46 51/55/51 
f 51/55/51 46/49/46 53/57/53 
f 45/48/45 53/57/53 46/49/46 
f 53/57/53 45/48/45 54/58/54 
f 40/43/40 54/58/54 45/48/45 
f 54/58/54 40/43/40 55/59/55 
f 42/45/42 55/59/55 40/43/40 
f 55/59/55 42/45/42 56/60/56 
f 56/60/56 57/61/57 55/59/55 
f 58/62/58 54/58/54 59/63/59 
f 55/59/55 59/63/59 54/58/54 
f 59/63/59 55/59/55 57/61/57 
f 57/61/57 60/64/60 59/63/59 
f 60/64/60 57/61/57 61/65/61 
f 61/65/61 62/66/62 60/64/60 
f 62/66/62 61/65/61 63/67/63 
f 63/67/63 64/68/64 62/66/62 
f 65/69/65 62/66/62 64/68/64 
f 62/66/62 65/69/65 66/70/66 
f 57/61/57 56/60/56 67/71/67 
f 67/71/67 61/65/61 57/61/57 
f 61/65/61 67/71/67 68/72/68 
f 68/72/68 63/67/63 61/65/61 
f 63/67/63 68/72/68 30/73/30 
f 30/73/30 29/74/29 63/67/63 
f 64/68/64 63/67/63 29/74/29 
f 29/74/29 34/75/34 64/68/64 
f 34/75/34 15/15/15 64/68/64 
f 64/68/64 15/15/15 65/69/65 
f 14/14/14 65/69/65 15/15/15 
f 65/69/65 14/14/14 69/76/69 
f 13/13/13 69/76/69 14/14/14 
f 69/76/69 13/13/13 70/77/70 
f 11/11/11 70/77/70 13/13/13 
f 70/77/70 11/11/11 71/78/71 
f 12/12/12 71/78/71 11/11/11 
f 71/78/71 12/12/12 72/79/72 
f 72/79/72 73/80/73 71/78/71 
f 73/80/73 72/79/72 74/81/74 
f 69/76/69 66/70/66 65/69/65 
f 66/70/66 69/76/69 75/82/75 
f 70/77/70 75/82/75 69/76/69 
f 75/82/75 70/77/70 76/83/76 
f 71/78/71 76/83/76 70/77/70 
f 76/83/76 71/78/71 73/80/73 
f 73/80/73 77/84/77 76/83/76 
f 77/84/77 73/80/73 78/85/78 
f 78/85/78 79/86/79 77/84/77 
f 80/87/80 77/84/77 79/86/79 
f 80/87/80 76/83/76 77/84/77 
f 76/83/76 80/87/80 75/82/75 
f 81/88/81 75/82/75 80/87/80 
f 75/82/75 81/88/81 66/70/66 
f 79/86/79 82/89/82 80/87/80 
f 58/62/58 80/87/80 82/89/82 
f 80/87/80 58/62/58 81/88/81 
f 59/63/59 81/88/81 58/62/58 
f 81/88/81 59/63/59 60/64/60 
f 60/64/60 66/70/66 81/88/81 
f 66/70/66 60/64/60 62/66/62 
f 74/81/74 78/85/78 73/80/73 
f 78/85/78 74/81/74 83/90/83 
f 83/90/83 84/91/84 78/85/78 
f 79/86/79 78/85/78 84/91/84 
f 84/91/84 85/92/85 79/86/79 
f 82/89/82 79/86/79 85/92/85 
f 85/92/85 51/55/51 82/89/82 
f 53/57/53 82/89/82 51/55/51 
f 82/89/82 53/57/53 58/62/58 
f 54/58/54 58/62/58 53/57/53 
f 85/92/85 84/91/84 86/93/86 
f 52/56/52 51/55/51 87/94/87 
f 51/55/51 85/92/85 87/94/87 
f 86/93/86 87/94/87 85/92/85 
f 87/94/87 86/93/86 88/95/88 
f 89/96/89 52/56/52 90/97/90 
f 87/94/87 90/97/90 52/56/52 
f 90/97/90 87/94/87 91/98/91 
f 88/95/88 91/98/91 87/94/87 
f 92/99/92 91/98/91 88/95/88 
f 91/98/91 92/99/92 89/96/89 
f 89/96/89 92/99/92 49/100/49 
f 89/96/89 49/100/49 48/51/48 
f 52/56/52 89/96/89 48/51/48 
f 48/51/48 47/50/47 52/56/52 
f 90/97/90 91/98/91 89/96/89 
f 84/101/84 83/102/83 93/103/93 
f 93/103/93 86/104/86 84/101/84 
f 86/104/86 93/103/93 94/105/94 
f 94/105/94 88/106/88 86/104/86 
f 88/106/88 94/105/94 95/107/95 
f 95/107/95 92/99/92 88/106/88 
f 92/99/92 95/107/95 50/108/50 
f 50/108/50 49/100/49 92/99/92 
f 96/109/96 68/110/68 67/111/67 
f 31/112/31 30/113/30 68/110/68 
f 68/110/68 96/109/96 31/112/31 
f 32/114/32 31/112/31 96/109/96 
f 32/114/32 96/109/96 97/115/97 
f 67/111/67 97/115/97 96/109/96 
f 97/115/97 67/111/67 56/116/56 
f 32/114/32 98/117/98 99/118/99 
f 97/115/97 98/117/98 32/114/32 
f 98/117/98 97/115/97 100/119/100 
f 56/116/56 100/119/100 97/115/97 
f 100/119/100 56/116/56 42/120/42 
f 42/120/42 101/121/101 100/119/100 
f 101/121/101 42/120/42 41/122/41 
f 41/122/41 102/123/102 101/121/101 
f 102/123/102 41/122/41 44/124/44 
f 44/124/44 103/125/103 102/123/102 
f 104/126/104 105/127/105 106/128/106 
f 105/127/105 104/126/104 107/129/107 
f 107/129/107 99/118/99 105/127/105 
f 108/130/108 105/127/105 99/118/99 
f 99/118/99 98/117/98 108/130/108 
f 100/119/100 108/130/108 98/117/98 
f 108/130/108 100/119/100 101/121/101 
f 101/121/101 109/131/109 108/130/108 
f 109/131/109 101/121/101 102/123/102 
f 102/123/102 110/132/110 109/131/109 
f 110/132/110 102/123/102 103/125/103 
f 103/125/103 111/133/111 110/132/110 
f 112/134/112 110/132/110 111/133/111 
f 110/132/110 112/134/112 106/128/106 
f 106/128/106 109/131/109 110/132/110 
f 109/131/109 106/128/106 105/127/105 
f 105/127/105 108/130/108 109/131/109 
f 103/125/103 44/124/44 36/135/36 
f 111/133/111 103/125/103 36/135/36 
f 36/135/36 113/136/113 111/133/111 
f 114/137/114 111/133/111 113/136/113 
f 111/133/111 114/137/114 112/134/112 
f 115/138/115 112/134/112 114/137/114 
f 116/139/116 112/134/112 115/138/115 
f 112/134/112 116/139/116 117/140/117 
f 117/140/117 106/128/106 112/134/112 
f 106/128/106 117/140/117 104/126/104 
f 118/141/118 119/142/119 120/143/120 
f 113/136/113 119/142/119 118/141/118 
f 118/141/118 121/144/121 113/136/113 
f 113/136/113 121/144/121 114/137/114 
f 122/145/122 114/137/114 121/144/121 
f 114/137/114 122/145/122 115/138/115 
f 72/146/72 115/138/115 122/145/122 
f 115/138/115 72/146/72 12/147/12 
f 12/147/12 116/139/116 115/138/115 
f 116/139/116 12/147/12 10/148/10 
f 121/144/121 118/141/118 123/149/123 
f 123/149/123 118/141/118 124/150/124 
f 124/150/124 125/151/125 123/149/123 
f 126/152/126 123/149/123 125/151/125 
f 123/149/123 126/152/126 121/144/121 
f 127/153/127 121/144/121 126/152/126 
f 121/144/121 127/153/127 122/145/122 
f 74/154/74 122/145/122 127/153/127 
f 122/145/122 74/154/74 72/146/72 
f 127/153/127 83/155/83 74/154/74 
f 83/155/83 127/153/127 126/152/126 
f 126/152/126 93/156/93 83/155/83 
f 93/156/93 126/152/126 125/151/125 
f 125/151/125 94/157/94 93/156/93 
f 95/158/95 94/157/94 125/151/125 
f 124/150/124 95/158/95 125/151/125 
f 95/158/95 124/150/124 50/159/50 
f 124/150/124 120/143/120 50/159/50 
f 120/143/120 124/150/124 118/141/118 
f 39/160/39 50/161/50 120/162/120 
f 39/160/39 120/162/120 119/163/119 
f 39/160/39 119/163/119 113/135/113 
f 113/135/113 36/164/36 39/160/39 
f 10/148/10 117/140/117 116/139/116 
f 117/140/117 10/148/10 6/165/6 
f 6/165/6 104/126/104 117/140/117 
f 104/126/104 6/165/6 3/166/3 
f 3/166/3 107/129/107 104/126/104 
f 107/129/107 3/166/3 2/167/2 
f 2/167/2 35/168/35 107/129/107 
f 99/118/99 107/129/107 35/168/35 
f 35/168/35 33/169/33 99/118/99 
f 99/118/99 33/169/33 32/114/32 
# 0 polygons - 250 triangles

