# 3ds Max Wavefront OBJ Exporter v0.99 - (c)2007 guruware
# File Created: 19.06.2021 00:10:04

mtllib grip3.mtl

#
# object grip3
#

v  -0.9601 -7.8509 12.4332
v  -0.5732 -8.6472 9.7264
v  -0.5137 -9.0495 9.9150
v  -1.4148 -3.2033 13.6993
v  -1.5942 -2.8261 13.8754
v  -1.5950 -2.0466 12.2284
v  -1.5955 -4.6240 14.9314
v  -1.4360 -4.6114 14.5920
v  -1.5886 -6.1327 14.4537
v  -1.3733 -6.1201 14.1142
v  -0.3584 -6.6859 10.1791
v  -1.3137 -2.4238 12.0523
v  -0.8914 -7.9955 12.6480
v  -1.0661 -6.3515 15.3984
v  -1.3579 -3.9986 15.5750
v  -1.4097 -2.1416 14.1870
v  -0.0000 -1.4784 14.5615
v  -0.0000 -3.7489 16.0681
v  1.3579 -3.9986 15.5750
v  -0.0000 -5.7345 16.2020
v  1.0661 -6.3515 15.3984
v  1.2825 -1.9624 14.2673
v  1.3860 -0.4599 11.6400
v  -0.0000 2.1074 9.5599
v  1.3657 1.8488 9.1926
v  1.6184 3.4304 8.7387
v  1.1772 0.8619 10.1899
v  -0.0000 0.8770 10.5824
v  -0.0000 0.1303 12.1430
v  -1.5361 -0.6204 11.3014
v  -1.4254 0.8768 9.7301
v  -1.5422 1.9328 8.8619
v  -1.8093 0.3773 8.4725
v  -1.5183 -0.7517 8.8841
v  -1.3640 -2.1095 9.3996
v  -1.1055 -2.4992 9.6762
v  -0.9714 -2.6627 8.4063
v  -0.9219 -1.1540 7.2120
v  -1.4839 -0.6628 6.2322
v  -1.3423 -0.0298 6.0574
v  -1.2739 -0.0888 5.6148
v  -1.4125 0.6205 5.7816
v  -0.3171 -4.6240 9.6384
v  -0.2751 -3.1907 8.4566
v  -0.4999 -2.5188 6.8104
v  -0.4307 -1.3562 6.5256
v  -1.3616 -0.7428 5.0676
v  -1.6174 1.0974 5.1031
v  -1.6565 2.2737 7.4186
v  -1.8218 2.9024 6.9785
v  -1.7102 4.0590 8.2986
v  -1.6184 3.4304 8.7387
v  -0.9453 4.2341 9.4587
v  -0.0000 3.8660 9.2769
v  0.9453 4.2341 9.4587
v  0.9962 4.7872 9.1293
v  -0.9962 4.7872 9.1293
v  -1.5375 0.7160 8.0795
v  1.6565 2.2737 7.4186
v  1.5950 -2.0466 12.2284
v  1.3640 -2.1095 9.3996
v  1.5183 -0.7517 8.8841
v  1.8093 0.3773 8.4725
v  1.6174 1.0974 5.1031
v  1.8218 2.9024 6.9785
v  1.7102 4.0590 8.2986
v  1.1055 -2.4992 9.6762
v  0.9714 -2.6627 8.4063
v  0.9219 -1.1540 7.2120
v  1.4839 -0.6628 6.2322
v  1.3616 -0.7428 5.0676
v  0.4307 -1.3562 6.5256
v  0.4999 -2.5188 6.8104
v  0.2751 -3.1907 8.4566
v  0.3165 -4.6240 9.6384
v  1.3137 -2.4238 12.0523
v  1.4148 -3.2033 13.6993
v  1.5942 -2.8261 13.8754
v  0.8289 -7.9304 12.4564
v  0.5137 -9.0495 9.9150
v  0.5726 -8.6472 9.7264
v  1.4360 -4.6114 14.5920
v  0.3578 -6.6859 10.1791
v  1.5955 -4.6240 14.9314
v  1.5886 -6.1327 14.4537
v  0.9140 -7.9815 12.6853
v  1.3733 -6.1201 14.1142
# 87 vertices

vn -0.6586 -0.7469 -0.0916
vn -0.6465 -0.1122 -0.7546
vn -0.5188 -0.8015 -0.2974
vn -0.9354 -0.2345 -0.2647
vn -0.9997 -0.0254 -0.0014
vn -0.9816 -0.1842 -0.0505
vn -0.9949 -0.0506 0.0873
vn -0.9333 -0.0667 -0.3527
vn -0.9848 -0.1729 -0.0132
vn -0.8919 0.1596 -0.4232
vn -0.5970 0.0489 -0.8007
vn -0.8896 -0.4308 -0.1517
vn -0.5466 -0.8372 0.0167
vn -0.4442 -0.6299 0.6372
vn -0.7141 0.1839 0.6755
vn -0.7615 0.4811 0.4343
vn -0.0350 0.7348 0.6774
vn -0.0000 0.3284 0.9445
vn 0.7440 0.1713 0.6458
vn -0.0000 -0.4748 0.8801
vn 0.5395 -0.4945 0.6815
vn 0.7415 0.4903 0.4580
vn 0.8147 0.5035 0.2876
vn -0.0535 0.4150 0.9083
vn 0.7733 0.2220 0.5940
vn 0.7165 -0.0169 0.6974
vn 0.7254 0.4691 0.5037
vn -0.0838 0.7496 0.6565
vn -0.0519 0.8653 0.4985
vn -0.8922 0.3856 0.2353
vn -0.8073 0.3838 0.4483
vn -0.8769 0.1103 0.4678
vn -0.9899 0.1412 0.0126
vn -0.9822 -0.1643 -0.0909
vn -0.9394 -0.3288 -0.0969
vn -0.8566 -0.5067 -0.0974
vn -0.8075 -0.5587 -0.1891
vn -0.8358 -0.5118 -0.1988
vn -0.9320 -0.3563 -0.0667
vn -0.9888 0.0305 -0.1458
vn -0.9991 -0.0191 0.0389
vn -0.9803 -0.1920 0.0454
vn -0.5898 -0.4002 -0.7014
vn -0.4048 -0.7908 -0.4591
vn -0.5718 -0.5063 -0.6455
vn -0.4103 -0.7369 -0.5372
vn -0.4733 -0.5820 -0.6612
vn -0.7770 0.1681 -0.6066
vn -0.9903 -0.1171 0.0753
vn -0.7785 0.4612 -0.4257
vn -0.7240 0.6432 -0.2491
vn -0.8290 -0.0065 0.5593
vn -0.3749 -0.0000 0.9271
vn -0.0000 -0.2641 0.9645
vn 0.5041 0.0578 0.8617
vn 0.4479 0.8070 0.3848
vn -0.3666 0.9256 0.0944
vn -0.9770 0.2005 -0.0728
vn 0.9935 -0.0536 0.1008
vn 0.9897 -0.1368 -0.0422
vn 0.9454 -0.3148 -0.0846
vn 0.9872 -0.1500 -0.0550
vn 0.9890 -0.0696 0.1306
vn 0.6992 0.2390 -0.6738
vn 0.7785 0.4612 -0.4257
vn 0.7240 0.6432 -0.2491
vn 0.8565 -0.5068 -0.0974
vn 0.8075 -0.5587 -0.1891
vn 0.8358 -0.5118 -0.1988
vn 0.8765 -0.4811 -0.0191
vn 0.4193 -0.6035 -0.6781
vn 0.4103 -0.7369 -0.5372
vn 0.5718 -0.5063 -0.6455
vn 0.4047 -0.7908 -0.4591
vn 0.5897 -0.4003 -0.7014
vn 0.8896 -0.4308 -0.1518
vn 0.9353 -0.2346 -0.2648
vn 0.9998 0.0097 0.0180
vn 0.6609 -0.7458 -0.0837
vn 0.5203 -0.8047 -0.2858
vn 0.6583 -0.1157 -0.7438
vn 0.9325 -0.0693 -0.3543
vn 0.5970 0.0489 -0.8008
vn 0.9949 -0.0506 0.0873
vn 0.9846 -0.1737 -0.0198
vn 0.6705 -0.7408 -0.0404
vn 0.8707 0.1470 -0.4692
# 87 vertex normals

vt 0.4131 0.3408 0.3408
vt 0.3853 0.3486 0.3486
vt 0.3848 0.3442 0.3442
vt 0.4487 0.3755 0.3755
vt 0.4524 0.3779 0.3779
vt 0.4419 0.3936 0.3936
vt 0.4521 0.3564 0.3564
vt 0.4492 0.3584 0.3584
vt 0.4399 0.3457 0.3457
vt 0.4370 0.3477 0.3477
vt 0.3997 0.3638 0.3638
vt 0.4385 0.3911 0.3911
vt 0.4146 0.3389 0.3389
vt 0.4473 0.3389 0.3389
vt 0.4612 0.3589 0.3589
vt 0.4595 0.3828 0.3828
vt 0.4709 0.3862 0.3862
vt 0.4714 0.3599 0.3599
vt 0.4839 0.3599 0.3599
vt 0.4666 0.3418 0.3418
vt 0.4795 0.3359 0.3359
vt 0.4824 0.3867 0.3867
vt 0.4736 0.4165 0.4165
vt 0.4517 0.4419 0.4419
vt 0.4648 0.4395 0.4395
vt 0.4705 0.4497 0.4497
vt 0.4639 0.4307 0.4307
vt 0.4534 0.4268 0.4268
vt 0.4602 0.4116 0.4116
vt 0.4434 0.4106 0.4106
vt 0.4375 0.4312 0.4312
vt 0.4346 0.4448 0.4448
vt 0.4219 0.4346 0.4346
vt 0.4194 0.4224 0.4224
vt 0.4167 0.4077 0.4077
vt 0.4172 0.4028 0.4028
vt 0.4053 0.4082 0.4082
vt 0.4026 0.4277 0.4277
vt 0.3967 0.4370 0.4370
vt 0.3984 0.4438 0.4438
vt 0.3943 0.4453 0.4453
vt 0.3994 0.4507 0.4507
vt 0.4058 0.3843 0.3843
vt 0.4028 0.4033 0.4033
vt 0.3921 0.4180 0.4180
vt 0.3955 0.4297 0.4297
vt 0.3860 0.4424 0.4424
vt 0.3960 0.4585 0.4585
vt 0.4226 0.4565 0.4565
vt 0.4219 0.4644 0.4644
vt 0.4397 0.4678 0.4678
vt 0.4402 0.4600 0.4600
vt 0.4507 0.4634 0.4634
vt 0.4563 0.4570 0.4570
vt 0.4666 0.4585 0.4585
vt 0.4690 0.4639 0.4639
vt 0.4507 0.4697 0.4697
vt 0.4219 0.4390 0.4390
vt 0.1879 0.3838 0.3838
vt 0.1919 0.3604 0.3604
vt 0.2006 0.3604 0.3604
vt 0.2030 0.3838 0.3838
vt 0.1885 0.3857 0.3857
vt 0.2037 0.3857 0.3857
vt 0.1881 0.4131 0.4131
vt 0.2062 0.4126 0.4126
vt 0.1974 0.4214 0.4214
vt 0.4832 0.3364 0.3364
vt 0.4915 0.3364 0.3364
vt 0.4919 0.3398 0.3398
vt 0.4827 0.3398 0.3398
vt 0.4844 0.3560 0.3560
vt 0.4902 0.3560 0.3560
vt 0.4897 0.3730 0.3730
vt 0.4846 0.3730 0.3730
vt 0.4851 0.3882 0.3882
vt 0.4895 0.3882 0.3882
vt 0.4832 0.4028 0.4028
vt 0.4912 0.4028 0.4028
vt 0.4839 0.4121 0.4121
vt 0.4907 0.4121 0.4121
vt 0.4983 0.4253 0.4253
vt 0.4763 0.4253 0.4253
vt 0.4951 0.4634 0.4634
vt 0.4907 0.4697 0.4697
vt 0.4792 0.4697 0.4697
vt 0.4751 0.4629 0.4629
vt 0.4746 0.4526 0.4526
vt 0.4958 0.4531 0.4531
vt 0.4949 0.4380 0.4380
vt 0.4758 0.4375 0.4375
vt 0.4775 0.4268 0.4268
vt 0.4937 0.4272 0.4272
# 93 texture coords

o grip3
g grip3
usemtl mat_revolver_pistol_INST
s 1
f 1/1/1 2/2/2 3/3/3 
f 4/4/4 5/5/5 6/6/6 
f 7/7/7 5/5/5 4/4/4 
f 4/4/4 8/8/8 7/7/7 
f 9/9/9 7/7/7 8/8/8 
f 8/8/8 10/10/10 9/9/9 
f 9/9/9 10/10/10 1/1/1 
f 1/1/1 10/10/10 8/8/8 
f 8/8/8 2/2/2 1/1/1 
f 11/11/11 2/2/2 8/8/8 
f 8/8/8 4/4/4 11/11/11 
f 6/6/6 12/12/12 4/4/4 
f 1/1/1 13/13/13 9/9/9 
f 13/13/13 14/14/14 9/9/9 
f 7/7/7 9/9/9 14/14/14 
f 14/14/14 15/15/15 7/7/7 
f 5/5/5 7/7/7 15/15/15 
f 15/15/15 16/16/16 5/5/5 
f 17/17/17 16/16/16 15/15/15 
f 15/15/15 18/18/18 17/17/17 
f 17/17/17 18/18/18 19/19/19 
f 19/19/19 18/18/18 20/20/20 
f 20/20/20 21/21/21 19/19/19 
f 20/20/20 18/18/18 15/15/15 
f 15/15/15 14/14/14 20/20/20 
f 19/19/19 22/22/22 17/17/17 
f 17/17/17 22/22/22 23/23/23 
f 24/24/24 25/25/25 26/26/26 
f 27/27/27 25/25/25 24/24/24 
f 24/24/24 28/28/28 27/27/27 
f 23/23/23 27/27/27 28/28/28 
f 28/28/28 29/29/29 23/23/23 
f 23/23/23 29/29/29 17/17/17 
f 17/17/17 29/29/29 30/30/30 
f 30/30/30 16/16/16 17/17/17 
f 16/16/16 30/30/30 6/6/6 
f 6/6/6 5/5/5 16/16/16 
f 30/30/30 29/29/29 28/28/28 
f 28/28/28 31/31/31 30/30/30 
f 31/31/31 28/28/28 24/24/24 
f 24/24/24 32/32/32 31/31/31 
f 31/31/31 33/33/33 34/34/34 
f 34/34/34 30/30/30 31/31/31 
f 30/30/30 34/34/34 35/35/35 
f 35/35/35 6/6/6 30/30/30 
f 36/36/36 12/12/12 6/6/6 
f 6/6/6 35/35/35 36/36/36 
f 36/36/36 35/35/35 37/37/37 
f 37/37/37 35/35/35 34/34/34 
f 34/34/34 38/38/38 37/37/37 
f 38/38/38 34/34/34 33/33/33 
f 33/33/33 39/39/39 38/38/38 
f 40/40/40 39/39/39 33/33/33 
f 39/39/39 40/40/40 41/41/41 
f 40/40/40 42/42/42 41/41/41 
f 43/43/43 11/11/11 4/4/4 
f 4/4/4 12/12/12 43/43/43 
f 43/43/43 12/12/12 36/36/36 
f 36/36/36 44/44/44 43/43/43 
f 37/37/37 44/44/44 36/36/36 
f 37/37/37 45/45/45 44/44/44 
f 46/46/46 45/45/45 37/37/37 
f 37/37/37 38/38/38 46/46/46 
f 47/47/47 46/46/46 38/38/38 
f 38/38/38 39/39/39 47/47/47 
f 41/41/41 47/47/47 39/39/39 
f 48/48/48 47/47/47 41/41/41 
f 41/41/41 42/42/42 48/48/48 
f 48/48/48 42/42/42 49/49/49 
f 49/49/49 50/50/50 48/48/48 
f 51/51/51 50/50/50 49/49/49 
f 49/49/49 52/52/52 51/51/51 
f 51/51/51 52/52/52 53/53/53 
f 52/52/52 54/54/54 53/53/53 
f 54/54/54 55/55/55 53/53/53 
f 54/54/54 26/26/26 55/55/55 
f 26/26/26 54/54/54 24/24/24 
f 55/55/55 56/56/56 57/57/57 
f 57/57/57 53/53/53 55/55/55 
f 53/53/53 57/57/57 51/51/51 
f 24/24/24 54/54/54 52/52/52 
f 52/52/52 32/32/32 24/24/24 
f 32/32/32 52/52/52 49/49/49 
f 31/31/31 32/32/32 49/49/49 
f 49/49/49 58/58/58 31/31/31 
f 33/33/33 31/31/31 58/58/58 
f 33/33/33 58/58/58 40/40/40 
f 42/42/42 40/40/40 58/58/58 
f 58/58/58 49/49/49 42/42/42 
f 59/49/59 25/32/25 27/31/27 
f 25/32/25 59/49/59 26/52/26 
f 60/6/60 23/30/23 22/16/22 
f 23/30/23 60/6/60 61/35/61 
f 61/35/61 62/34/62 23/30/23 
f 27/31/27 23/30/23 62/34/62 
f 62/34/62 63/33/63 27/31/27 
f 27/31/27 63/33/63 59/49/59 
f 64/48/64 59/49/59 63/33/63 
f 65/50/65 59/49/59 64/48/64 
f 59/49/59 65/50/65 66/51/66 
f 66/51/66 26/52/26 59/49/59 
f 55/53/55 26/52/26 66/51/66 
f 66/51/66 56/57/56 55/53/55 
f 67/36/67 61/35/61 60/6/60 
f 68/37/68 61/35/61 67/36/67 
f 62/34/62 61/35/61 68/37/68 
f 68/37/68 69/38/69 62/34/62 
f 63/33/63 62/34/62 69/38/69 
f 69/38/69 70/39/70 63/33/63 
f 63/33/63 70/39/70 64/48/64 
f 70/39/70 71/47/71 64/48/64 
f 71/47/71 70/39/70 69/38/69 
f 69/38/69 72/46/72 71/47/71 
f 72/46/72 69/38/69 68/37/68 
f 68/37/68 73/45/73 72/46/72 
f 68/37/68 74/44/74 73/45/73 
f 67/36/67 74/44/74 68/37/68 
f 75/43/75 74/44/74 67/36/67 
f 67/36/67 76/12/76 75/43/75 
f 75/43/75 76/12/76 77/4/77 
f 77/4/77 76/12/76 60/6/60 
f 60/6/60 78/5/78 77/4/77 
f 22/16/22 78/5/78 60/6/60 
f 60/6/60 76/12/76 67/36/67 
f 79/1/79 80/3/80 81/2/81 
f 79/1/79 81/2/81 82/8/82 
f 82/8/82 81/2/81 83/11/83 
f 83/11/83 77/4/77 82/8/82 
f 77/4/77 83/11/83 75/43/75 
f 78/5/78 22/16/22 19/15/19 
f 19/15/19 84/7/84 78/5/78 
f 84/7/84 19/15/19 21/14/21 
f 21/14/21 85/9/85 84/7/84 
f 85/9/85 21/14/21 86/13/86 
f 85/9/85 86/13/86 79/1/79 
f 79/1/79 87/10/87 85/9/85 
f 82/8/82 87/10/87 79/1/79 
f 85/9/85 87/10/87 82/8/82 
f 82/8/82 84/7/84 85/9/85 
f 84/7/84 82/8/82 77/4/77 
f 77/4/77 78/5/78 84/7/84 
f 1/59/1 3/60/3 80/61/80 
f 80/61/80 79/62/79 1/59/1 
f 13/63/13 1/59/1 79/62/79 
f 79/62/79 86/64/86 13/63/13 
f 14/65/14 13/63/13 86/64/86 
f 86/64/86 21/66/21 14/65/14 
f 21/66/21 20/67/20 14/65/14 
f 80/68/80 3/69/3 2/70/2 
f 2/70/2 81/71/81 80/68/80 
f 83/72/83 81/71/81 2/70/2 
f 2/70/2 11/73/11 83/72/83 
f 83/72/83 11/73/11 43/74/43 
f 43/74/43 75/75/75 83/72/83 
f 74/76/74 75/75/75 43/74/43 
f 43/74/43 44/77/44 74/76/74 
f 73/78/73 74/76/74 44/77/44 
f 44/77/44 45/79/45 73/78/73 
f 72/80/72 73/78/73 45/79/45 
f 45/79/45 46/81/46 72/80/72 
f 72/80/72 46/81/46 47/82/47 
f 47/82/47 71/83/71 72/80/72 
f 51/84/51 57/85/57 56/86/56 
f 56/86/56 66/87/66 51/84/51 
f 51/84/51 66/87/66 65/88/65 
f 65/88/65 50/89/50 51/84/51 
f 48/90/48 50/89/50 65/88/65 
f 65/88/65 64/91/64 48/90/48 
f 48/90/48 64/91/64 71/92/71 
f 71/92/71 47/93/47 48/90/48 
# 0 polygons - 170 triangles

