# 3ds Max Wavefront OBJ Exporter v0.99 - (c)2007 guruware
# File Created: 19.06.2021 08:41:17

mtllib mag2.mtl

#
# object mag2
#

v  2.8078 7.3752 1.8987
v  2.3763 8.0525 1.8987
v  1.7843 8.5951 1.8987
v  3.0843 5.8070 1.8987
v  3.0493 6.6093 1.8987
v  -1.2803 8.8632 1.8987
v  0.2879 9.1397 1.8987
v  -0.5144 9.1047 1.8987
v  1.0719 8.9659 1.8987
v  -1.9576 8.4317 1.8987
v  -2.5002 7.8396 1.8987
v  -2.8710 7.1273 1.8987
v  -3.0448 6.3432 1.8987
v  -1.7447 3.5552 1.8987
v  1.3199 3.2871 1.8987
v  2.5397 4.3106 1.8987
v  1.9972 3.7186 1.8987
v  2.9105 5.0230 1.8987
v  -3.0098 5.5409 1.8987
v  -2.7683 4.7750 1.8987
v  -2.3368 4.0977 1.8987
v  -0.2483 3.0106 1.8987
v  0.5540 3.0456 1.8987
v  -1.0324 3.1844 1.8987
v  -1.0324 3.1844 -4.6280
v  -1.7447 3.5552 -4.6280
v  -0.2483 3.0105 -4.6280
v  1.3199 3.2871 -4.6280
v  0.5540 3.0456 -4.6280
v  2.5397 4.3106 -4.6280
v  1.9972 3.7186 -4.6280
v  2.8078 7.3752 -4.6280
v  3.0843 5.8070 -4.6280
v  3.0493 6.6093 -4.6280
v  2.9105 5.0230 -4.6280
v  -2.3368 4.0977 -4.6280
v  -2.7683 4.7750 -4.6280
v  -2.5002 7.8396 -4.6280
v  0.2879 9.1397 -4.6280
v  1.7843 8.5951 -4.6280
v  1.0719 8.9659 -4.6280
v  2.3763 8.0525 -4.6280
v  -3.0098 5.5409 -4.6280
v  -3.0448 6.3432 -4.6280
v  -2.8710 7.1273 -4.6280
v  -1.9576 8.4317 -4.6280
v  -1.2803 8.8632 -4.6280
v  -0.5144 9.1047 -4.6280
# 48 vertices

vn -0.0000 -0.0000 1.0000
vn 0.0000 0.0000 1.0000
vn -0.0000 0.0000 1.0000
vn 0.0000 -0.0000 1.0000
vn -0.0000 -0.0000 -1.0000
vn 0.0000 -0.0000 -1.0000
vn 0.0000 0.0000 -1.0000
vn -0.0000 0.0000 -1.0000
vn -0.5736 -0.8192 0.0000
vn -0.7660 -0.6428 -0.0000
vn -0.3420 -0.9397 0.0000
vn -0.0872 -0.9962 0.0000
vn 0.1736 -0.9848 0.0000
vn 0.4226 -0.9063 0.0000
vn 0.6428 -0.7660 0.0000
vn 0.8192 -0.5736 0.0000
vn 0.9397 -0.3420 0.0000
vn 0.9962 -0.0872 0.0000
vn 0.9848 0.1736 0.0000
vn 0.9063 0.4226 0.0000
vn 0.7660 0.6428 -0.0000
vn 0.5736 0.8192 -0.0000
vn 0.3420 0.9397 -0.0000
vn -0.6428 0.7660 -0.0000
vn -0.8192 0.5736 -0.0000
vn -0.4226 0.9063 -0.0000
vn -0.1736 0.9848 -0.0000
vn 0.0872 0.9962 -0.0000
vn -0.9063 -0.4226 0.0000
vn -0.9848 -0.1736 -0.0000
vn -0.9962 0.0872 -0.0000
vn -0.9397 0.3420 -0.0000
# 32 vertex normals

vt 0.6069 0.9340 0.9340
vt 0.6113 0.9238 0.9238
vt 0.6128 0.9127 0.9127
vt 0.5913 0.9495 0.9495
vt 0.6001 0.9428 0.9428
vt 0.5913 0.8759 0.8759
vt 0.6069 0.8915 0.8915
vt 0.6001 0.8827 0.8827
vt 0.6113 0.9017 0.9017
vt 0.5811 0.8717 0.8717
vt 0.5703 0.8702 0.8702
vt 0.5591 0.8717 0.8717
vt 0.5488 0.8759 0.8759
vt 0.5278 0.9127 0.9127
vt 0.5488 0.9495 0.9495
vt 0.5703 0.9552 0.9552
vt 0.5591 0.9538 0.9538
vt 0.5811 0.9538 0.9538
vt 0.5400 0.8827 0.8827
vt 0.5337 0.8915 0.8915
vt 0.5293 0.9017 0.9017
vt 0.5337 0.9340 0.9340
vt 0.5400 0.9428 0.9428
vt 0.5293 0.9238 0.9238
vt 0.6636 0.7937 0.7937
vt 0.6729 0.7937 0.7937
vt 0.6729 0.8687 0.8687
vt 0.6636 0.8687 0.8687
vt 0.6543 0.7937 0.7937
vt 0.6543 0.8687 0.8687
vt 0.6445 0.7937 0.7937
vt 0.6445 0.8687 0.8687
vt 0.6353 0.7937 0.7937
vt 0.6353 0.8687 0.8687
vt 0.6260 0.7937 0.7937
vt 0.6260 0.8687 0.8687
vt 0.6162 0.7937 0.7937
vt 0.6162 0.8687 0.8687
vt 0.6069 0.7937 0.7937
vt 0.6069 0.8687 0.8687
vt 0.5972 0.7937 0.7937
vt 0.5972 0.8687 0.8687
vt 0.5879 0.7937 0.7937
vt 0.5879 0.8687 0.8687
vt 0.5786 0.7937 0.7937
vt 0.5786 0.8687 0.8687
vt 0.5688 0.7937 0.7937
vt 0.5688 0.8687 0.8687
vt 0.5596 0.7937 0.7937
vt 0.5596 0.8687 0.8687
# 50 texture coords

o mag2
g mag2
usemtl mat_revolver_pistol_INST
s 1
f 1/1/1 2/2/2 3/3/3 
f 4/4/3 5/5/2 1/1/1 
f 4/4/3 1/1/1 3/3/3 
f 4/4/3 3/3/3 6/6/3 
f 3/3/3 7/7/3 6/6/3 
f 7/7/3 8/8/2 6/6/3 
f 3/3/3 9/9/2 7/7/3 
f 6/6/3 10/10/3 11/11/3 
f 11/11/3 12/12/4 13/13/2 
f 6/6/3 11/11/3 13/13/2 
f 6/6/3 13/13/2 14/14/3 
f 4/4/3 6/6/3 14/14/3 
f 15/15/3 4/4/3 14/14/3 
f 15/15/3 16/16/3 4/4/3 
f 15/15/3 17/17/3 16/16/3 
f 16/16/3 18/18/4 4/4/3 
f 13/13/2 19/19/2 20/20/2 
f 13/13/2 20/20/2 14/14/3 
f 20/20/2 21/21/2 14/14/3 
f 22/22/2 23/23/3 15/15/3 
f 22/22/2 15/15/3 14/14/3 
f 24/24/1 22/22/2 14/14/3 
f 25/24/5 26/14/6 27/22/6 
f 28/15/6 29/23/7 27/22/6 
f 30/16/6 31/17/6 28/15/6 
f 30/16/6 28/15/6 27/22/6 
f 32/1/6 30/16/6 27/22/6 
f 32/1/6 33/4/6 30/16/6 
f 32/1/6 34/5/6 33/4/6 
f 33/4/6 35/18/6 30/16/6 
f 26/14/6 36/21/5 37/20/6 
f 26/14/6 37/20/6 27/22/6 
f 37/20/6 38/11/6 27/22/6 
f 38/11/6 32/1/6 27/22/6 
f 38/11/6 39/7/6 32/1/6 
f 39/7/6 40/3/7 32/1/6 
f 39/7/6 41/9/6 40/3/7 
f 40/3/7 42/2/7 32/1/6 
f 37/20/6 43/19/5 44/13/5 
f 37/20/6 44/13/5 38/11/6 
f 44/13/5 45/12/6 38/11/6 
f 38/11/6 46/10/6 47/6/8 
f 38/11/6 47/6/8 39/7/6 
f 47/6/8 48/8/8 39/7/6 
f 14/25/9 21/26/10 36/27/10 
f 36/27/10 26/28/9 14/25/9 
f 24/29/11 14/25/9 26/28/9 
f 26/28/9 25/30/11 24/29/11 
f 22/31/12 24/29/11 25/30/11 
f 25/30/11 27/32/12 22/31/12 
f 23/33/13 22/31/12 27/32/12 
f 27/32/12 29/34/13 23/33/13 
f 15/35/14 23/33/13 29/34/13 
f 29/34/13 28/36/14 15/35/14 
f 17/37/15 15/35/14 28/36/14 
f 28/36/14 31/38/15 17/37/15 
f 16/39/16 17/37/15 31/38/15 
f 31/38/15 30/40/16 16/39/16 
f 18/41/17 16/39/16 30/40/16 
f 30/40/16 35/42/17 18/41/17 
f 4/43/18 18/41/17 35/42/17 
f 35/42/17 33/44/18 4/43/18 
f 5/45/19 4/43/18 33/44/18 
f 33/44/18 34/46/19 5/45/19 
f 1/47/20 5/45/19 34/46/19 
f 34/46/19 32/48/20 1/47/20 
f 2/49/21 1/47/20 32/48/20 
f 32/48/20 42/50/21 2/49/21 
f 40/28/22 41/30/23 9/29/23 
f 9/29/23 3/25/22 40/28/22 
f 42/27/21 40/28/22 3/25/22 
f 3/25/22 2/26/21 42/27/21 
f 46/38/24 38/40/25 11/39/25 
f 11/39/25 10/37/24 46/38/24 
f 47/36/26 46/38/24 10/37/24 
f 10/37/24 6/35/26 47/36/26 
f 48/34/27 47/36/26 6/35/26 
f 6/35/26 8/33/27 48/34/27 
f 39/32/28 48/34/27 8/33/27 
f 8/33/27 7/31/28 39/32/28 
f 41/30/23 39/32/28 7/31/28 
f 7/31/28 9/29/23 41/30/23 
f 37/48/29 36/50/10 21/49/10 
f 21/49/10 20/47/29 37/48/29 
f 43/46/30 37/48/29 20/47/29 
f 20/47/29 19/45/30 43/46/30 
f 44/44/31 43/46/30 19/45/30 
f 19/45/30 13/43/31 44/44/31 
f 45/42/32 44/44/31 13/43/31 
f 13/43/31 12/41/32 45/42/32 
f 38/40/25 45/42/32 12/41/32 
f 12/41/32 11/39/25 38/40/25 
# 0 polygons - 92 triangles

