# 3ds Max Wavefront OBJ Exporter v0.99 - (c)2007 guruware
# File Created: 19.06.2021 08:41:43

mtllib mag3.mtl

#
# object mag3
#

v  1.0277 8.7961 2.0070
v  0.5557 9.1135 2.0070
v  -0.0000 9.2252 2.0070
v  -0.5557 9.1135 2.0070
v  -1.0277 8.7961 2.0070
v  -0.0000 5.6479 2.0073
v  1.3364 8.3427 2.0070
v  1.4455 7.8138 2.0070
v  -1.3364 8.3427 2.0070
v  -1.4455 7.8138 2.0070
v  1.1530 3.3130 2.0070
v  1.6656 3.1431 2.0070
v  2.2126 3.1837 2.0070
v  3.0020 5.4578 2.0070
v  2.5985 5.8168 2.0070
v  3.2403 4.9638 2.0070
v  3.0980 3.8592 2.0070
v  2.7235 3.4338 2.0070
v  3.2792 4.3963 2.0070
v  -3.0980 3.8592 2.0070
v  -2.7235 3.4338 2.0070
v  -2.2126 3.1837 2.0070
v  -3.2403 4.9638 2.0070
v  -3.0020 5.4578 2.0070
v  -2.5985 5.8168 2.0070
v  -3.2792 4.3963 2.0070
v  -1.6656 3.1431 2.0070
v  -1.1530 3.3130 2.0070
v  -0.4367 3.9112 2.0081
v  -0.0000 4.0244 2.0075
v  -0.6986 3.6737 2.0075
v  1.7223 6.1380 2.0081
v  1.4060 6.4596 2.0075
v  2.0589 6.0299 2.0075
v  0.4367 3.9112 2.0081
v  0.6986 3.6737 2.0075
v  -1.7223 6.1380 2.0081
v  -1.4060 6.4596 2.0075
v  -2.0589 6.0299 2.0075
v  3.2403 4.9638 -4.7744
v  3.2792 4.3963 -4.7744
v  3.0980 3.8592 -4.7744
v  1.4060 6.4596 -4.7749
v  1.7223 6.1380 -4.7755
v  0.0000 5.6479 -4.7747
v  2.0589 6.0299 -4.7750
v  2.5985 5.8168 -4.7744
v  3.0020 5.4578 -4.7744
v  2.2126 3.1837 -4.7744
v  2.7235 3.4338 -4.7744
v  0.0000 4.0244 -4.7749
v  0.4367 3.9112 -4.7755
v  0.6986 3.6737 -4.7750
v  1.1530 3.3130 -4.7744
v  1.6656 3.1431 -4.7744
v  -0.4367 3.9112 -4.7755
v  -0.6986 3.6737 -4.7750
v  -1.1530 3.3130 -4.7744
v  -1.6656 3.1431 -4.7744
v  -2.2126 3.1837 -4.7744
v  -1.4060 6.4596 -4.7749
v  -1.7223 6.1380 -4.7755
v  -2.0589 6.0299 -4.7750
v  -2.5985 5.8168 -4.7744
v  -3.0020 5.4578 -4.7744
v  -3.2403 4.9638 -4.7744
v  -3.0980 3.8592 -4.7744
v  -2.7235 3.4338 -4.7744
v  -3.2792 4.3963 -4.7744
v  -1.2856 6.8943 2.0081
v  -1.3604 7.2399 2.0075
v  1.2856 6.8943 2.0081
v  1.3603 7.2399 2.0075
v  -1.0277 8.7961 -4.7744
v  -0.5557 9.1135 -4.7744
v  0.0000 9.2252 -4.7744
v  -1.3364 8.3427 -4.7744
v  -1.4455 7.8138 -4.7744
v  -1.3604 7.2399 -4.7750
v  -1.2856 6.8943 -4.7755
v  1.2856 6.8943 -4.7755
v  1.3604 7.2399 -4.7750
v  1.4455 7.8138 -4.7744
v  1.3364 8.3427 -4.7744
v  1.0277 8.7961 -4.7744
v  0.5557 9.1135 -4.7744
# 86 vertices

vn 0.0001 0.0001 1.0000
vn 0.0000 0.0000 1.0000
vn 0.0000 0.0001 1.0000
vn -0.0001 0.0001 1.0000
vn 0.0002 0.0000 1.0000
vn -0.0002 0.0000 1.0000
vn -0.0001 -0.0002 1.0000
vn -0.0000 -0.0001 1.0000
vn 0.0000 -0.0001 1.0000
vn 0.0001 0.0000 1.0000
vn 0.0001 -0.0000 1.0000
vn -0.0001 -0.0000 1.0000
vn -0.0001 0.0000 1.0000
vn 0.0001 -0.0002 1.0000
vn -0.0018 0.0009 1.0000
vn -0.0000 0.0001 1.0000
vn -0.0020 0.0008 1.0000
vn -0.0018 0.0007 1.0000
vn 0.0001 -0.0020 1.0000
vn 0.0003 -0.0021 1.0000
vn 0.0002 -0.0019 1.0000
vn 0.0018 0.0009 1.0000
vn 0.0020 0.0008 1.0000
vn 0.0018 0.0007 1.0000
vn -0.0001 -0.0020 1.0000
vn -0.0003 -0.0021 1.0000
vn -0.0002 -0.0019 1.0000
vn 0.0001 0.0000 -1.0000
vn 0.0000 0.0000 -1.0000
vn 0.0001 -0.0000 -1.0000
vn -0.0001 -0.0000 -1.0000
vn 0.0001 -0.0020 -1.0000
vn -0.0000 0.0000 -1.0000
vn 0.0003 -0.0021 -1.0000
vn 0.0001 -0.0002 -1.0000
vn 0.0001 0.0001 -1.0000
vn 0.0000 -0.0001 -1.0000
vn 0.0000 -0.0000 -1.0000
vn -0.0000 0.0001 -1.0000
vn 0.0018 0.0009 -1.0000
vn 0.0020 0.0008 -1.0000
vn 0.0002 -0.0000 -1.0000
vn -0.0000 -0.0001 -1.0000
vn -0.0018 0.0009 -1.0000
vn -0.0020 0.0008 -1.0000
vn -0.0002 -0.0000 -1.0000
vn -0.0001 -0.0020 -1.0000
vn -0.0003 -0.0021 -1.0000
vn -0.0001 -0.0002 -1.0000
vn -0.0001 0.0001 -1.0000
vn -0.0001 0.0000 -1.0000
vn -0.0000 -0.0000 -1.0000
vn 0.0017 0.0011 1.0000
vn 0.0017 0.0013 1.0000
vn 0.0015 0.0012 1.0000
vn -0.0017 0.0011 1.0000
vn -0.0017 0.0013 1.0000
vn -0.0015 0.0012 1.0000
vn 0.0000 0.0001 -1.0000
vn 0.0001 0.0002 -1.0000
vn 0.0017 0.0013 -1.0000
vn 0.0017 0.0011 -1.0000
vn -0.0017 0.0011 -1.0000
vn -0.0017 0.0013 -1.0000
vn -0.0001 0.0002 -1.0000
vn 0.9667 0.2561 0.0000
vn 0.9918 -0.1281 0.0000
vn 0.8660 -0.5000 0.0000
vn 0.8660 -0.5000 -0.0000
vn 0.6068 -0.7948 0.0000
vn 0.2616 -0.9652 0.0000
vn -0.1227 -0.9924 0.0000
vn -0.4755 -0.8797 0.0000
vn -0.6471 -0.7624 0.0000
vn -0.4751 -0.8800 0.0000
vn -0.4750 -0.8800 0.0000
vn -0.0000 -1.0000 -0.0000
vn -0.9918 -0.1281 -0.0000
vn -0.9667 0.2561 -0.0000
vn -0.8660 -0.5000 -0.0000
vn -0.6068 -0.7948 -0.0000
vn -0.2616 -0.9652 -0.0000
vn -0.2616 -0.9652 0.0000
vn 0.1227 -0.9924 0.0000
vn 0.4755 -0.8797 0.0000
vn 0.6471 -0.7624 0.0000
vn 0.4750 -0.8800 0.0000
vn 0.8660 0.5000 -0.0000
vn 0.5245 0.8514 0.0000
vn 0.3367 0.9416 0.0000
vn 0.5241 0.8517 0.0000
vn 0.7981 0.6025 0.0000
vn -0.7051 0.7091 0.0000
vn -0.3849 0.9229 0.0000
vn -0.3849 0.9229 -0.0000
vn 0.0000 1.0000 0.0000
vn 0.3849 0.9229 0.0000
vn 0.7051 0.7091 0.0000
vn 0.9208 0.3900 0.0000
vn 0.9996 0.0280 0.0000
vn 0.9838 -0.1792 0.0000
vn 0.9996 0.0286 0.0000
vn -0.5245 0.8514 0.0000
vn -0.8660 0.5000 -0.0000
vn -0.3367 0.9416 0.0000
vn -0.5241 0.8517 0.0000
vn -0.7981 0.6025 0.0000
vn -0.9996 0.0286 0.0000
vn -0.9838 -0.1792 0.0000
vn -0.9996 0.0280 0.0000
vn -0.9208 0.3900 0.0000
# 111 vertex normals

vt 1.2881 0.6152 0.6152
vt 1.2822 0.6187 0.6187
vt 1.2764 0.6199 0.6199
vt 1.2705 0.6187 0.6187
vt 1.2656 0.6152 0.6152
vt 1.2764 0.5813 0.5813
vt 1.2910 0.6104 0.6104
vt 1.2920 0.6047 0.6047
vt 1.2627 0.6104 0.6104
vt 1.2607 0.6047 0.6047
vt 2.2754 0.5813 0.5813
vt 2.2910 0.6047 0.6047
vt 2.2910 0.6104 0.6104
vt 2.2871 0.6152 0.6152
vt 2.2617 0.6104 0.6104
vt 2.2598 0.6047 0.6047
vt 2.2656 0.6152 0.6152
vt 2.2754 0.6199 0.6199
vt 2.2813 0.6187 0.6187
vt 2.2695 0.6187 0.6187
vt 2.2617 0.5947 0.5947
vt 2.2617 0.5901 0.5901
vt 2.2617 0.5986 0.5986
vt 2.2910 0.5947 0.5947
vt 2.2930 0.5903 0.5903
vt 2.2910 0.5986 0.5986
vt 2.2871 0.5747 0.5747
vt 2.2813 0.5781 0.5781
vt 2.2754 0.5793 0.5793
vt 2.2910 0.5496 0.5496
vt 2.2891 0.5542 0.5542
vt 2.2754 0.5408 0.5408
vt 2.2910 0.5579 0.5579
vt 2.2910 0.5642 0.5642
vt 2.2910 0.5698 0.5698
vt 2.2656 0.5747 0.5747
vt 2.2695 0.5781 0.5781
vt 2.2598 0.5491 0.5491
vt 2.2617 0.5542 0.5542
vt 2.2617 0.5579 0.5579
vt 2.2598 0.5642 0.5642
vt 2.2617 0.5698 0.5698
vt 1.2627 0.5947 0.5947
vt 1.2617 0.5901 0.5901
vt 1.2617 0.5986 0.5986
vt 1.2910 0.5947 0.5947
vt 1.2930 0.5903 0.5903
vt 1.2910 0.5986 0.5986
vt 1.2871 0.5747 0.5747
vt 1.2822 0.5781 0.5781
vt 1.2764 0.5793 0.5793
vt 1.2764 0.5408 0.5408
vt 1.2910 0.5698 0.5698
vt 1.2920 0.5642 0.5642
vt 1.2910 0.5579 0.5579
vt 1.2900 0.5542 0.5542
vt 1.2920 0.5496 0.5496
vt 1.2607 0.5491 0.5491
vt 1.2627 0.5542 0.5542
vt 1.2617 0.5579 0.5579
vt 1.2607 0.5642 0.5642
vt 1.2617 0.5698 0.5698
vt 1.2656 0.5747 0.5747
vt 1.2705 0.5781 0.5781
vt 2.2266 0.5410 0.5410
vt 2.2266 0.6216 0.6216
vt 2.2188 0.6216 0.6216
vt 2.2188 0.5410 0.5410
vt 2.2129 0.6216 0.6216
vt 2.2129 0.5410 0.5410
vt 2.2070 0.5410 0.5410
vt 2.2070 0.6216 0.6216
vt 2.2012 0.5410 0.5410
vt 2.2012 0.6216 0.6216
vt 2.1934 0.5410 0.5410
vt 2.1934 0.6216 0.6216
vt 2.1875 0.5410 0.5410
vt 2.1875 0.6216 0.6216
vt 2.1836 0.5410 0.5410
vt 2.1836 0.6216 0.6216
vt 2.1777 0.5410 0.5410
vt 2.1777 0.6216 0.6216
vt 2.1738 0.5410 0.5410
vt 2.1738 0.6216 0.6216
vt 2.2324 0.5410 0.5410
vt 2.2324 0.6216 0.6216
vt 2.2383 0.5410 0.5410
vt 2.2383 0.6216 0.6216
vt 2.2441 0.5410 0.5410
vt 2.2441 0.6216 0.6216
vt 2.2480 0.5410 0.5410
vt 2.2480 0.6216 0.6216
vt 2.2520 0.5410 0.5410
vt 2.2520 0.6216 0.6216
vt 1.2266 0.5410 0.5410
vt 1.2266 0.6216 0.6216
vt 1.2197 0.6216 0.6216
vt 1.2197 0.5410 0.5410
vt 1.2139 0.6216 0.6216
vt 1.2139 0.5410 0.5410
vt 1.2080 0.5410 0.5410
vt 1.2080 0.6216 0.6216
vt 1.2012 0.5410 0.5410
vt 1.2012 0.6216 0.6216
vt 1.1943 0.5410 0.5410
vt 1.1943 0.6216 0.6216
vt 1.1885 0.5410 0.5410
vt 1.1885 0.6216 0.6216
vt 1.1836 0.5410 0.5410
vt 1.1836 0.6216 0.6216
vt 1.1787 0.5410 0.5410
vt 1.1787 0.6216 0.6216
vt 1.1748 0.5410 0.5410
vt 1.1748 0.6216 0.6216
vt 1.2529 0.5410 0.5410
vt 1.2529 0.6216 0.6216
vt 1.2490 0.6216 0.6216
vt 1.2490 0.5410 0.5410
vt 1.2441 0.6216 0.6216
vt 1.2441 0.5410 0.5410
vt 1.2393 0.6216 0.6216
vt 1.2393 0.5410 0.5410
vt 1.2334 0.6216 0.6216
vt 1.2334 0.5410 0.5410
# 124 texture coords

o mag3
g mag3
usemtl mat_revolver_pistol_INST
s 1
f 1/1/1 2/2/2 3/3/3 
f 3/3/3 4/4/2 5/5/4 
f 5/5/4 6/6/2 3/3/3 
f 3/3/3 6/6/2 1/1/1 
f 7/7/1 1/1/1 6/6/2 
f 6/6/2 8/8/5 7/7/1 
f 9/9/4 10/10/6 6/6/2 
f 6/6/2 5/5/4 9/9/4 
f 6/11/2 11/12/7 12/13/8 
f 12/13/8 13/14/9 6/11/2 
f 14/15/1 15/16/1 6/11/2 
f 6/11/2 16/17/10 14/15/1 
f 16/17/10 6/11/2 17/18/11 
f 17/18/11 6/11/2 13/14/9 
f 13/14/9 18/19/2 17/18/11 
f 17/18/11 19/20/2 16/17/10 
f 20/18/12 21/20/2 22/17/8 
f 22/17/8 6/11/2 20/18/12 
f 20/18/12 6/11/2 23/14/13 
f 24/13/4 23/14/13 6/11/2 
f 6/11/2 25/12/4 24/13/4 
f 23/14/13 26/19/2 20/18/12 
f 27/15/9 28/16/14 6/11/2 
f 6/11/2 22/17/8 27/15/9 
f 29/21/15 30/22/16 6/11/2 
f 31/23/17 29/21/15 6/11/2 
f 6/11/2 28/16/18 31/23/17 
f 32/21/19 33/22/12 6/11/2 
f 34/23/20 32/21/19 6/11/2 
f 6/11/2 15/16/21 34/23/20 
f 35/24/22 6/11/2 30/25/16 
f 6/11/2 35/24/22 36/26/23 
f 36/26/23 11/12/24 6/11/2 
f 37/24/25 6/11/2 38/25/11 
f 6/11/2 37/24/25 39/26/26 
f 39/26/26 25/12/27 6/11/2 
f 40/27/28 41/28/29 42/29/30 
f 43/30/31 44/31/32 45/32/33 
f 45/32/33 44/31/32 46/33/34 
f 46/33/34 47/34/35 45/32/33 
f 45/32/33 47/34/35 48/35/36 
f 48/35/36 40/27/28 45/32/33 
f 42/29/30 45/32/33 40/27/28 
f 49/36/37 45/32/33 42/29/30 
f 42/29/30 50/37/38 49/36/37 
f 51/38/39 45/32/33 52/39/40 
f 53/40/41 52/39/40 45/32/33 
f 45/32/33 54/41/42 53/40/41 
f 55/42/43 54/41/42 45/32/33 
f 45/32/33 49/36/37 55/42/43 
f 51/30/39 56/31/44 45/32/33 
f 45/32/33 56/31/44 57/33/45 
f 57/33/45 58/34/46 45/32/33 
f 45/32/33 58/34/46 59/35/37 
f 59/35/37 60/27/43 45/32/33 
f 61/38/30 45/32/33 62/39/47 
f 63/40/48 62/39/47 45/32/33 
f 45/32/33 64/41/49 63/40/48 
f 65/42/50 64/41/49 45/32/33 
f 45/32/33 66/36/51 65/42/50 
f 66/36/51 45/32/33 67/29/31 
f 67/29/31 45/32/33 60/27/43 
f 60/27/43 68/28/52 67/29/31 
f 67/29/31 69/37/29 66/36/51 
f 70/43/53 38/44/11 6/6/2 
f 71/45/54 70/43/53 6/6/2 
f 6/6/2 10/10/55 71/45/54 
f 72/46/56 6/6/2 33/47/12 
f 6/6/2 72/46/56 73/48/57 
f 73/48/57 8/8/58 6/6/2 
f 74/49/50 75/50/33 76/51/59 
f 76/51/59 45/52/33 74/49/50 
f 77/53/50 74/49/50 45/52/33 
f 45/52/33 78/54/60 77/53/50 
f 79/55/61 78/54/60 45/52/33 
f 45/52/33 80/56/62 79/55/61 
f 61/57/30 80/56/62 45/52/33 
f 43/58/31 45/52/33 81/59/63 
f 82/60/64 81/59/63 45/52/33 
f 45/52/33 83/61/65 82/60/64 
f 84/62/36 83/61/65 45/52/33 
f 45/52/33 85/63/36 84/62/36 
f 85/63/36 45/52/33 76/51/59 
f 76/51/59 86/64/29 85/63/36 
f 40/65/66 16/66/66 19/67/67 
f 19/67/67 41/68/67 40/65/66 
f 41/68/67 19/67/67 17/69/68 
f 17/69/68 42/70/69 41/68/67 
f 50/71/70 42/70/69 17/69/68 
f 17/69/68 18/72/70 50/71/70 
f 49/73/71 50/71/70 18/72/70 
f 18/72/70 13/74/71 49/73/71 
f 55/75/72 49/73/71 13/74/71 
f 13/74/71 12/76/72 55/75/72 
f 54/77/73 55/75/72 12/76/72 
f 12/76/72 11/78/73 54/77/73 
f 53/79/74 54/77/73 11/78/73 
f 11/78/73 36/80/74 53/79/74 
f 52/81/75 53/79/74 36/80/74 
f 36/80/74 35/82/76 52/81/75 
f 51/83/77 52/81/75 35/82/76 
f 35/82/76 30/84/77 51/83/77 
f 26/72/78 23/74/79 66/73/79 
f 66/73/79 69/71/78 26/72/78 
f 20/69/80 26/72/78 69/71/78 
f 69/71/78 67/70/80 20/69/80 
f 20/69/80 67/70/80 68/68/81 
f 68/68/81 21/67/81 20/69/80 
f 21/67/81 68/68/81 60/65/82 
f 60/65/82 22/66/83 21/67/81 
f 22/66/83 60/65/82 59/85/84 
f 59/85/84 27/86/84 22/66/83 
f 27/86/84 59/85/84 58/87/85 
f 58/87/85 28/88/85 27/86/84 
f 28/88/85 58/87/85 57/89/86 
f 57/89/86 31/90/86 28/88/85 
f 31/90/86 57/89/86 56/91/87 
f 56/91/87 29/92/87 31/90/86 
f 29/92/87 56/91/87 51/93/77 
f 51/93/77 30/94/77 29/92/87 
f 43/93/88 33/94/88 32/92/89 
f 32/92/89 44/91/89 43/93/88 
f 44/91/89 32/92/89 34/90/90 
f 34/90/90 46/89/90 44/91/89 
f 46/89/90 34/90/90 15/88/91 
f 15/88/91 47/87/91 46/89/90 
f 47/87/91 15/88/91 14/86/92 
f 14/86/92 48/85/92 47/87/91 
f 48/85/92 14/86/92 16/66/66 
f 16/66/66 40/65/66 48/85/92 
f 74/95/93 5/96/93 4/97/94 
f 4/97/94 75/98/95 74/95/93 
f 75/98/95 4/97/94 3/99/96 
f 3/99/96 76/100/96 75/98/95 
f 86/101/97 76/100/96 3/99/96 
f 3/99/96 2/102/97 86/101/97 
f 85/103/98 86/101/97 2/102/97 
f 2/102/97 1/104/98 85/103/98 
f 84/105/99 85/103/98 1/104/98 
f 1/104/98 7/106/99 84/105/99 
f 83/107/100 84/105/99 7/106/99 
f 7/106/99 8/108/100 83/107/100 
f 82/109/101 83/107/100 8/108/100 
f 8/108/100 73/110/101 82/109/101 
f 81/111/102 82/109/101 73/110/101 
f 73/110/101 72/112/102 81/111/102 
f 43/113/88 81/111/102 72/112/102 
f 72/112/102 33/114/88 43/113/88 
f 37/82/103 38/84/104 61/83/104 
f 61/83/104 62/81/103 37/82/103 
f 39/80/105 37/82/103 62/81/103 
f 62/81/103 63/79/105 39/80/105 
f 25/78/106 39/80/105 63/79/105 
f 63/79/105 64/77/106 25/78/106 
f 24/76/107 25/78/106 64/77/106 
f 64/77/106 65/75/107 24/76/107 
f 23/74/79 24/76/107 65/75/107 
f 65/75/107 66/73/79 23/74/79 
f 61/115/104 38/116/104 70/117/108 
f 70/117/108 80/118/108 61/115/104 
f 80/118/108 70/117/108 71/119/109 
f 71/119/109 79/120/109 80/118/108 
f 79/120/109 71/119/109 10/121/110 
f 10/121/110 78/122/110 79/120/109 
f 78/122/110 10/121/110 9/123/111 
f 9/123/111 77/124/111 78/122/110 
f 77/124/111 9/123/111 5/96/93 
f 5/96/93 74/95/93 77/124/111 
# 0 polygons - 168 triangles

