# 3ds Max Wavefront OBJ Exporter v0.99 - (c)2007 guruware
# File Created: 19.06.2021 08:42:39

mtllib mag5.mtl

#
# object mag5
#

v  -1.1159 8.9920 -4.6231
v  -0.0032 9.3413 -4.6231
v  1.1108 8.9955 -4.6231
v  -1.8005 8.0868 -4.6229
v  1.8024 8.0811 -4.6229
v  -1.8005 4.2248 -4.6230
v  1.8024 4.2306 -4.6230
v  1.1159 3.3197 -4.6230
v  -1.1108 3.3161 -4.6230
v  0.0031 2.9704 -4.6230
v  -2.0115 8.1989 -4.2590
v  -2.0115 4.1127 -4.2591
v  -2.0115 4.1127 1.6119
v  -2.0115 8.1989 1.6120
v  -1.2410 9.1604 1.6120
v  -1.2467 9.1566 -4.2591
v  -1.8005 8.0868 1.9759
v  -1.8005 4.2248 1.9758
v  -1.1159 3.3197 1.9760
v  -1.1108 8.9955 1.9759
v  0.0031 9.3413 1.9759
v  0.0035 9.5262 1.6120
v  -0.0036 9.5262 -4.2591
v  -1.2410 3.1513 -4.2591
v  -1.2467 3.1551 1.6120
v  -0.0032 2.9704 1.9759
v  -0.0036 2.7855 1.6120
v  0.0035 2.7855 -4.2591
v  1.1159 8.9920 1.9759
v  1.8024 8.0811 1.9759
v  1.8024 4.2306 1.9758
v  1.1108 3.3161 1.9760
v  1.2409 9.1604 -4.2591
v  2.0136 8.1928 -4.2590
v  1.2466 9.1566 1.6120
v  2.0136 8.1928 1.6120
v  1.2409 3.1513 1.6120
v  1.2466 3.1551 -4.2591
v  2.0136 4.1188 -4.2591
v  2.0136 4.1188 1.6119
# 40 vertices

vn -0.2791 0.4117 -0.8675
vn 0.0036 0.6741 -0.7386
vn 0.2831 0.4149 -0.8647
vn -0.4568 0.1423 -0.8781
vn 0.4575 0.1483 -0.8768
vn -0.4574 -0.1486 -0.8768
vn 0.4569 -0.1420 -0.8781
vn 0.2795 -0.4116 -0.8675
vn -0.2826 -0.4152 -0.8647
vn -0.0036 -0.6741 -0.7386
vn -0.9090 0.3210 -0.2657
vn -0.9066 -0.3250 -0.2693
vn -0.9090 -0.3210 0.2658
vn -0.9066 0.3250 0.2693
vn -0.5447 0.8004 0.2502
vn -0.5460 0.8011 -0.2451
vn -0.4574 0.1486 0.8768
vn -0.4568 -0.1423 0.8781
vn -0.2791 -0.4117 0.8675
vn -0.2826 0.4152 0.8647
vn -0.0036 0.6741 0.7387
vn -0.0011 0.9741 0.2260
vn 0.0011 0.9741 -0.2260
vn -0.5447 -0.8004 -0.2502
vn -0.5460 -0.8011 0.2451
vn 0.0036 -0.6741 0.7386
vn 0.0011 -0.9741 0.2260
vn -0.0011 -0.9741 -0.2260
vn 0.2795 0.4115 0.8675
vn 0.4569 0.1420 0.8781
vn 0.4575 -0.1483 0.8768
vn 0.2831 -0.4149 0.8647
vn 0.5453 0.8000 -0.2502
vn 0.9069 0.3241 -0.2693
vn 0.5466 0.8007 0.2451
vn 0.9093 0.3201 0.2659
vn 0.5453 -0.8000 0.2502
vn 0.5466 -0.8007 -0.2451
vn 0.9093 -0.3201 -0.2659
vn 0.9069 -0.3241 0.2693
# 40 vertex normals

vt 0.4905 0.3291 0.3291
vt 0.4792 0.3330 0.3330
vt 0.4680 0.3296 0.3296
vt 0.4973 0.3198 0.3198
vt 0.4609 0.3203 0.3203
vt 0.4971 0.2808 0.2808
vt 0.4607 0.2813 0.2813
vt 0.4675 0.2720 0.2720
vt 0.4900 0.2720 0.2720
vt 0.4788 0.2686 0.2686
vt 0.3406 0.1074 0.1074
vt 0.3406 0.1489 0.1489
vt 0.3999 0.1489 0.1489
vt 0.3999 0.1074 0.1074
vt 0.3999 0.0952 0.0952
vt 0.3406 0.0952 0.0952
vt 0.4036 0.1074 0.1074
vt 0.4036 0.1489 0.1489
vt 0.4036 0.1606 0.1606
vt 0.4036 0.0952 0.0952
vt 0.4036 0.0825 0.0825
vt 0.3999 0.0825 0.0825
vt 0.3403 0.0825 0.0825
vt 0.3367 0.0825 0.0825
vt 0.3367 0.0952 0.0952
vt 0.3367 0.1074 0.1074
vt 0.3367 0.1489 0.1489
vt 0.3367 0.1606 0.1606
vt 0.3406 0.1606 0.1606
vt 0.3999 0.1606 0.1606
vt 0.4036 0.1733 0.1733
vt 0.3999 0.1733 0.1733
vt 0.3406 0.1733 0.1733
vt 0.3367 0.1733 0.1733
vt 1.4678 0.2720 0.2720
vt 1.4785 0.2686 0.2686
vt 1.4902 0.2720 0.2720
vt 1.4609 0.2813 0.2813
vt 1.4971 0.2808 0.2808
vt 1.4609 0.3203 0.3203
vt 1.4971 0.3203 0.3203
vt 1.4902 0.3291 0.3291
vt 1.4678 0.3296 0.3296
vt 1.4795 0.3330 0.3330
vt 1.3359 0.1484 0.1484
vt 1.3359 0.1606 0.1606
vt 1.3398 0.1606 0.1606
vt 1.3359 0.1074 0.1074
vt 1.3398 0.1484 0.1484
vt 1.3994 0.1606 0.1606
vt 1.3994 0.1484 0.1484
vt 1.4033 0.1606 0.1606
vt 1.4033 0.1733 0.1733
vt 1.3994 0.1733 0.1733
vt 1.3398 0.1733 0.1733
vt 1.3359 0.1733 0.1733
vt 1.4033 0.0947 0.0947
vt 1.4033 0.0825 0.0825
vt 1.3994 0.0825 0.0825
vt 1.3994 0.0952 0.0952
vt 1.3398 0.0825 0.0825
vt 1.3398 0.0952 0.0952
vt 1.3359 0.0825 0.0825
vt 1.3359 0.0947 0.0947
vt 1.3398 0.1074 0.1074
vt 1.4033 0.1484 0.1484
vt 1.3994 0.1074 0.1074
vt 1.4033 0.1074 0.1074
# 68 texture coords

o mag5
g mag5
usemtl mat_revolver_pistol_INST
s 1
f 1/1/1 2/2/2 3/3/3 
f 4/4/4 1/1/1 3/3/3 
f 5/5/5 4/4/4 3/3/3 
f 6/6/6 4/4/4 5/5/5 
f 5/5/5 7/7/7 6/6/6 
f 7/7/7 8/8/8 6/6/6 
f 8/8/8 9/9/9 6/6/6 
f 8/8/8 10/10/10 9/9/9 
f 11/11/11 12/12/12 13/13/13 
f 13/13/13 14/14/14 11/11/11 
f 15/15/15 16/16/16 11/11/11 
f 11/11/11 14/14/14 15/15/15 
f 15/15/15 14/14/14 17/17/17 
f 18/18/18 17/17/17 14/14/14 
f 14/14/14 13/13/13 18/18/18 
f 19/19/19 18/18/18 13/13/13 
f 17/17/17 20/20/20 15/15/15 
f 20/20/20 21/21/21 22/22/22 
f 22/22/22 15/15/15 20/20/20 
f 15/15/15 22/22/22 23/23/23 
f 23/23/23 16/16/16 15/15/15 
f 16/16/16 23/23/23 2/24/2 
f 2/24/2 1/25/1 16/16/16 
f 11/11/11 16/16/16 1/25/1 
f 1/25/1 4/26/4 11/11/11 
f 12/12/12 11/11/11 4/26/4 
f 4/26/4 6/27/6 12/12/12 
f 6/27/6 9/28/9 24/29/24 
f 24/29/24 12/12/12 6/27/6 
f 13/13/13 12/12/12 24/29/24 
f 24/29/24 25/30/25 13/13/13 
f 13/13/13 25/30/25 19/19/19 
f 26/31/26 19/19/19 25/30/25 
f 25/30/25 27/32/27 26/31/26 
f 27/32/27 25/30/25 24/29/24 
f 24/29/24 28/33/28 27/32/27 
f 28/33/28 24/29/24 9/28/9 
f 9/28/9 10/34/10 28/33/28 
f 29/35/29 21/36/21 20/37/20 
f 30/38/30 29/35/29 20/37/20 
f 17/39/17 30/38/30 20/37/20 
f 31/40/31 30/38/30 17/39/17 
f 17/39/17 18/41/18 31/40/31 
f 18/41/18 19/42/19 31/40/31 
f 19/42/19 32/43/32 31/40/31 
f 19/42/19 26/44/26 32/43/32 
f 5/45/5 3/46/3 33/47/33 
f 7/48/7 5/45/5 34/49/34 
f 33/47/33 34/49/34 5/45/5 
f 34/49/34 33/47/33 35/50/35 
f 35/50/35 36/51/36 34/49/34 
f 36/51/36 35/50/35 29/52/29 
f 21/53/21 29/52/29 35/50/35 
f 35/50/35 22/54/22 21/53/21 
f 22/54/22 35/50/35 33/47/33 
f 33/47/33 23/55/23 22/54/22 
f 23/55/23 33/47/33 3/46/3 
f 3/46/3 2/56/2 23/55/23 
f 32/57/32 26/58/26 27/59/27 
f 27/59/27 37/60/37 32/57/32 
f 37/60/37 27/59/27 28/61/28 
f 28/61/28 38/62/38 37/60/37 
f 38/62/38 28/61/28 10/63/10 
f 10/63/10 8/64/8 38/62/38 
f 39/65/39 38/62/38 8/64/8 
f 8/64/8 7/48/7 39/65/39 
f 34/49/34 39/65/39 7/48/7 
f 39/65/39 34/49/34 36/51/36 
f 29/52/29 30/66/30 36/51/36 
f 40/67/40 36/51/36 30/66/30 
f 36/51/36 40/67/40 39/65/39 
f 38/62/38 39/65/39 40/67/40 
f 40/67/40 37/60/37 38/62/38 
f 37/60/37 40/67/40 31/68/31 
f 31/68/31 32/57/32 37/60/37 
f 30/66/30 31/68/31 40/67/40 
# 0 polygons - 76 triangles

