# 3ds Max Wavefront OBJ Exporter v0.99 - (c)2007 guruware
# File Created: 13.06.2021 16:18:00

mtllib acc1.mtl

#
# object acc1
#

v  2.2006 3.4426 -14.4701
v  2.1308 2.8977 -16.7194
v  -2.0855 2.9064 -16.7151
v  -2.2905 0.6968 -11.9329
v  -2.4601 2.2073 -13.3054
v  -2.3536 0.5018 -13.3449
v  -2.2912 2.0362 -11.0781
v  -2.2958 3.4425 -11.7736
v  -2.2958 3.4426 -12.7918
v  2.2957 3.4426 -12.7918
v  2.2957 3.4426 -13.7703
v  -2.2958 3.4426 -13.7703
v  -2.1984 3.4426 -14.4701
v  2.2957 3.4425 -10.8854
v  2.2957 3.4425 -11.7736
v  -2.7868 2.2165 -14.3234
v  -2.3929 2.7910 -13.9929
v  -2.5364 3.1004 -14.5584
v  -2.7868 1.8971 -15.9156
v  -2.5215 2.5271 -16.3940
v  -2.3691 1.1931 -16.7671
v  -1.8736 0.2642 -16.3055
v  -1.6027 0.2460 -16.7958
v  -1.9839 -1.7966 -15.2955
v  -0.0001 -1.7966 -16.1472
v  -0.0001 -4.3954 -15.3315
v  -1.4914 -4.3954 -14.4808
v  -1.4955 -6.7345 -14.1967
v  -2.5250 -6.6987 -12.5856
v  -2.6010 -4.3954 -12.9636
v  -2.6010 -1.6310 -13.9519
v  -2.4364 0.2961 -15.1162
v  -2.3241 -17.5317 -11.0407
v  -2.4376 -17.7178 -12.5737
v  -2.1592 -18.8103 -12.2705
v  -2.1933 -6.5553 -10.8793
v  -2.2912 -3.4149 -11.1104
v  -2.2904 -2.1663 -11.9926
v  -2.2902 -0.4766 -12.1746
v  -2.1867 -4.3027 -9.8674
v  -2.0238 -3.4692 -9.7142
v  -2.0227 -2.7957 -10.7004
v  -2.0220 -1.7942 -11.3551
v  -2.0218 -0.6171 -11.5786
v  -2.0220 0.5563 -11.3369
v  -2.3676 2.6941 -10.0815
v  -2.2958 3.4425 -10.8854
v  -2.0227 1.5474 -10.6667
v  -2.7568 -0.1359 -10.9490
v  -2.7569 -1.4476 -10.8500
v  -2.7576 -2.4685 -10.1826
v  -2.1115 2.2054 -9.6701
v  -2.4558 2.9183 -8.3760
v  -2.2958 3.4425 -9.3992
v  -2.2958 3.4425 -8.2327
v  -2.7588 -3.0799 -9.0255
v  -3.4114 -2.0550 -8.7767
v  -2.3976 2.6753 -7.2083
v  -2.2958 2.9678 -7.0222
v  -2.2143 2.4300 -8.4989
v  -2.7585 1.6983 -9.3249
v  -2.7574 1.0280 -10.3401
v  -3.4105 0.2841 -9.6231
v  -3.4101 -0.3890 -9.9385
v  -3.4111 0.7094 -9.0133
v  -3.4119 0.7728 -8.2726
v  -3.4102 -1.1297 -9.8751
v  -2.7619 0.1654 -6.1973
v  -2.7611 1.1863 -6.8647
v  -3.4127 0.4574 -7.5994
v  -3.4107 -1.7395 -9.4498
v  -3.4131 -0.1524 -7.1741
v  -2.0263 -3.4875 -7.3752
v  -2.0257 -3.7224 -8.5355
v  -0.0001 -3.8088 -8.0878
v  -2.7602 -2.9805 -7.7224
v  -3.4122 -1.9916 -8.0360
v  -3.4132 -0.8931 -7.1107
v  -2.7620 -1.1462 -6.0983
v  -2.0283 -0.6650 -5.4667
v  -2.0281 -1.8384 -5.7085
v  -2.0274 -2.8296 -6.3787
v  -2.7613 -2.3102 -6.7072
v  -3.4128 -1.5663 -7.4262
v  2.0262 -3.4875 -7.3752
v  2.0272 -2.8296 -6.3787
v  2.0280 -1.8384 -5.7085
v  2.0282 -0.6650 -5.4667
v  -2.0281 0.5120 -5.6902
v  2.0280 0.5120 -5.6902
v  -2.7599 1.7978 -8.0218
v  -2.0274 1.5135 -6.3450
v  -2.2965 0.8129 -5.3724
v  2.2964 0.8129 -5.3724
v  2.2964 1.0039 -5.1854
v  -2.2965 1.0039 -5.1854
v  2.2957 2.0054 -5.8401
v  -2.1908 2.1870 -7.3312
v  -2.2958 1.8144 -6.0271
v  -2.2958 2.0054 -5.8401
v  2.2957 2.9678 -7.0222
v  2.2957 3.4425 -8.2327
v  2.2957 3.4425 -9.3992
v  2.0231 -3.1325 -10.2073
v  2.0255 -3.7224 -8.5355
v  1.2371 -4.6303 -8.5656
v  2.2388 -3.8588 -10.4889
v  2.1560 -0.9702 -11.7148
v  -0.0001 -4.6303 -7.9155
v  -0.0001 -6.7343 -8.9498
v  1.1181 -6.6987 -9.5163
v  2.3590 -6.6270 -11.7325
v  1.4953 -6.7345 -14.1967
v  1.4913 -4.3954 -14.4808
v  -0.0001 -17.3820 -9.2507
v  -0.0001 -6.7345 -14.9540
v  2.0172 -17.7966 -14.0174
v  2.3807 -17.6247 -11.8072
v  1.1420 -17.4528 -9.7512
v  -0.0001 -18.5109 -9.3624
v  1.2313 -18.5740 -9.9554
v  1.1781 -19.3173 -10.5647
v  1.7059 -19.4438 -11.7359
v  2.1155 -18.7274 -11.6188
v  0.1913 -19.2792 -9.7979
v  0.0153 -19.7309 -11.4686
v  0.9178 -19.5585 -13.1053
v  1.8042 -18.8807 -13.6168
v  -0.0001 -18.9440 -14.3145
v  -0.0001 -17.8676 -14.8030
v  -0.1607 -19.5774 -13.3406
v  -1.8312 2.2845 -17.4864
v  1.9194 2.2873 -17.4617
v  1.4038 1.5413 -17.7365
v  -1.3405 1.5931 -17.6280
v  2.1585 2.5619 -9.1566
v  2.7585 1.4066 -9.1686
v  2.7576 0.8163 -10.0627
v  2.1568 1.7918 -10.8724
v  2.1615 1.6640 -6.1860
v  2.1604 2.4312 -7.2698
v  2.7616 -1.0986 -6.3269
v  2.7615 0.0566 -6.4141
v  2.7609 0.9557 -7.0019
v  2.7598 1.4942 -8.0209
v  2.7610 -2.1237 -6.8632
v  2.7601 -2.7140 -7.7573
v  2.7588 -2.8016 -8.9050
v  2.7577 -2.2632 -9.9240
v  2.7571 -1.3640 -10.5118
v  2.7570 -0.2088 -10.5990
v  1.9838 -1.7966 -15.2955
v  1.8735 0.2642 -16.3055
v  1.6960 0.2460 -16.7958
v  2.4623 1.1394 -16.7999
v  0.0466 0.2460 -17.0504
v  -1.7370 0.9590 -17.1964
v  -2.3691 1.8092 -17.1881
v  -1.7370 1.3289 -17.4293
v  -1.1421 -17.4528 -9.7512
v  -0.9553 -18.5740 -9.7751
v  -0.8872 -19.2980 -10.0332
v  -1.6209 -19.3666 -10.8552
v  -1.7297 -19.4588 -11.9500
v  -2.0719 -18.6444 -10.9672
v  -1.1182 -6.6987 -9.5163
v  -1.2373 -4.6303 -8.5656
v  -2.0174 -17.7966 -14.0174
v  -1.8043 -18.8807 -13.6168
v  -1.1719 -19.5393 -12.8993
# 170 vertices

vn 0.6950 0.7144 -0.0816
vn 0.6150 0.7406 -0.2708
vn -0.5208 0.7613 -0.3863
vn -0.9753 -0.0880 0.2026
vn -0.9882 0.0658 0.1385
vn -0.9959 -0.0254 0.0872
vn -0.9820 -0.1430 0.1235
vn -0.6890 0.7246 0.0147
vn -0.6589 0.7523 0.0000
vn 0.7361 0.6768 -0.0000
vn 0.7916 0.6046 -0.0888
vn -0.6640 0.7470 -0.0334
vn -0.4443 0.8941 -0.0560
vn 0.7397 0.6729 0.0094
vn -0.9819 0.1079 0.1558
vn -0.9309 0.3098 0.1936
vn -0.8356 0.5376 0.1130
vn -0.9806 -0.0305 -0.1937
vn -0.8702 0.3804 -0.3132
vn -0.8422 -0.3969 -0.3649
vn -0.8547 -0.3411 -0.3914
vn -0.4731 -0.4864 -0.7346
vn -0.7179 -0.3123 -0.6222
vn -0.0001 -0.4112 -0.9115
vn 0.0000 -0.2650 -0.9643
vn -0.6626 -0.2015 -0.7213
vn -0.6675 -0.0428 -0.7434
vn -0.9860 -0.0271 -0.1643
vn -0.9778 -0.0558 -0.2020
vn -0.9874 -0.0720 -0.1412
vn -0.9653 -0.1746 -0.1943
vn -0.9190 -0.0864 0.3847
vn -0.9861 -0.1330 -0.0994
vn -0.8888 -0.4519 -0.0755
vn -0.9252 -0.0633 0.3742
vn -0.9776 0.1146 0.1767
vn -0.9701 0.0852 0.2273
vn -0.9697 0.0102 0.2439
vn -0.9282 -0.0455 0.3693
vn -0.9377 -0.3474 0.0024
vn -0.9827 -0.1344 -0.1270
vn -0.9819 -0.0898 -0.1665
vn -0.9875 0.0033 -0.1577
vn -0.9898 0.0719 -0.1228
vn -0.9866 -0.1623 0.0150
vn -0.6713 0.7412 -0.0065
vn -0.9863 0.0879 -0.1395
vn -0.7417 0.1453 -0.6548
vn -0.7428 -0.2195 -0.6325
vn -0.7329 -0.5121 -0.4480
vn -0.9873 0.0860 -0.1337
vn -0.9981 -0.0603 0.0127
vn -0.5951 0.8037 0.0000
vn -0.5668 0.8093 0.1542
vn -0.7456 -0.6498 -0.1480
vn -0.9479 -0.3131 -0.0582
vn -0.9978 -0.0442 0.0501
vn -0.5790 0.6974 0.4223
vn -0.9961 0.0850 -0.0233
vn -0.7745 0.5923 -0.2221
vn -0.7358 0.4370 -0.5174
vn -0.9463 0.2053 -0.2500
vn -0.9467 0.0570 -0.3169
vn -0.9475 0.2999 -0.1110
vn -0.9481 0.3130 0.0562
vn -0.9464 -0.1103 -0.3035
vn -0.7443 0.2194 0.6308
vn -0.7339 0.5120 0.4463
vn -0.9469 0.2479 0.2050
vn -0.9464 -0.2479 -0.2071
vn -0.9471 0.1102 0.3014
vn -0.3404 -0.8613 0.3771
vn -0.5684 -0.8103 0.1424
vn -0.0000 -0.5474 0.8369
vn -0.7464 -0.6279 0.2206
vn -0.9477 -0.2999 0.1089
vn -0.9475 -0.0569 0.3147
vn -0.7432 -0.1453 0.6531
vn -0.3219 -0.0015 0.9468
vn -0.3418 -0.3834 0.8580
vn -0.3328 -0.6674 0.6662
vn -0.7336 -0.4454 0.5132
vn -0.9468 -0.2052 0.2478
vn 0.3166 -0.8546 0.4115
vn 0.4219 -0.6429 0.6393
vn 0.4228 -0.3654 0.8293
vn 0.4084 -0.0029 0.9128
vn -0.5586 -0.1477 0.8162
vn 0.5849 -0.2052 0.7847
vn -0.7894 0.5958 0.1479
vn -0.9969 0.0307 0.0720
vn -0.7390 -0.6135 0.2782
vn 0.7190 -0.6139 0.3259
vn 0.7477 -0.0538 0.6618
vn -0.5898 -0.0788 0.8037
vn 0.7957 0.4049 0.4504
vn -0.9913 0.0318 0.1281
vn -0.9724 -0.1710 -0.1584
vn -0.6740 0.4945 0.5487
vn 0.7835 0.5340 0.3178
vn 0.7607 0.6364 0.1283
vn 0.7596 0.6504 -0.0000
vn 0.9719 -0.2332 0.0323
vn 0.6368 -0.7645 0.1004
vn 0.6365 -0.3131 0.7049
vn 0.9597 -0.0019 0.2812
vn 0.9704 -0.0376 -0.2386
vn 0.0000 -0.1143 0.9935
vn -0.0000 -0.2513 0.9679
vn 0.7121 -0.1629 0.6830
vn 0.9982 -0.0161 0.0581
vn 0.7628 -0.0107 -0.6465
vn 0.8173 -0.1699 -0.5506
vn 0.0000 -0.0580 0.9983
vn 0.0000 -0.0665 -0.9978
vn 0.7588 -0.1767 -0.6269
vn 0.9799 -0.0989 0.1733
vn 0.6552 -0.0523 0.7537
vn 0.0223 -0.2846 0.9584
vn 0.6740 -0.2763 0.6851
vn 0.5217 -0.7461 0.4139
vn 0.6571 -0.7538 -0.0027
vn 0.9092 -0.3742 0.1828
vn 0.0968 -0.7384 0.6674
vn 0.0144 -0.9951 0.0979
vn 0.3004 -0.9124 -0.2781
vn 0.6713 -0.5822 -0.4587
vn -0.0178 -0.6163 -0.7873
vn 0.0000 -0.2125 -0.9772
vn -0.0565 -0.9282 -0.3679
vn -0.0084 0.6145 -0.7889
vn 0.0010 0.7786 -0.6275
vn 0.0031 0.7731 -0.6343
vn 0.0046 0.6394 -0.7689
vn 0.0018 0.3261 -0.9453
vn -0.0356 0.1762 -0.9837
vn 0.9912 0.1259 -0.0409
vn 0.9565 0.2695 -0.1118
vn 0.9644 0.1829 -0.1908
vn 0.9899 0.0777 -0.1187
vn 0.9990 0.0109 0.0426
vn 0.9969 0.0764 0.0202
vn 0.9178 -0.0891 0.3869
vn 0.9210 0.1275 0.3681
vn 0.9504 0.2115 0.2279
vn 0.9583 0.2794 0.0602
vn 0.9153 -0.2601 0.3077
vn 0.9239 -0.3596 0.1310
vn 0.9190 -0.3837 -0.0905
vn 0.9189 -0.2871 -0.2705
vn 0.9453 -0.1384 -0.2955
vn 0.9507 0.0700 -0.3021
vn 0.8492 -0.2575 -0.4610
vn 0.9360 -0.3202 -0.1461
vn 0.5200 -0.4894 -0.7000
vn 0.8662 -0.2684 -0.4214
vn 0.8107 -0.0311 -0.5846
vn 0.2771 -0.4363 -0.8561
vn 0.0176 -0.4536 -0.8910
vn -0.3962 -0.5026 -0.7684
vn -0.7997 -0.0309 -0.5996
vn -0.5868 0.1668 -0.7924
vn -0.2149 -0.3361 -0.9170
vn -0.3747 -0.3586 -0.8550
vn -0.5834 -0.0638 0.8097
vn -0.5162 -0.2475 0.8199
vn -0.3546 -0.6905 0.6304
vn -0.5761 -0.7351 0.3574
vn -0.5774 -0.8157 -0.0354
vn -0.8664 -0.3059 0.3947
vn -0.6461 -0.1778 0.7422
vn -0.5865 -0.3062 0.7498
vn -0.7199 -0.1832 -0.6694
vn -0.6286 -0.5827 -0.5150
vn -0.3319 -0.9079 -0.2560
# 175 vertex normals

vt 0.1945 0.9583 0.9583
vt 0.2030 0.9398 0.9398
vt 0.1968 0.9276 0.9276
vt 0.1615 0.9326 0.9326
vt 0.1747 0.9360 0.9360
vt 0.1691 0.9264 0.9264
vt 0.1611 0.9430 0.9430
vt 0.1699 0.9483 0.9483
vt 0.1759 0.9446 0.9446
vt 0.1836 0.9650 0.9650
vt 0.1899 0.9611 0.9611
vt 0.1815 0.9411 0.9411
vt 0.1855 0.9385 0.9385
vt 0.1714 0.9726 0.9726
vt 0.1771 0.9690 0.9690
vt 0.1805 0.9324 0.9324
vt 0.1807 0.9367 0.9367
vt 0.1849 0.9364 0.9364
vt 0.1887 0.9249 0.9249
vt 0.1936 0.9266 0.9266
vt 0.1913 0.9179 0.9179
vt 0.1854 0.9144 0.9144
vt 0.1881 0.9126 0.9126
vt 0.1725 0.9067 0.9067
vt 0.1852 0.8989 0.8989
vt 0.1697 0.8888 0.8888
vt 0.1589 0.8953 0.8953
vt 0.1493 0.8834 0.8834
vt 0.1400 0.8894 0.8894
vt 0.1501 0.9008 0.9008
vt 0.1653 0.9125 0.9125
vt 0.1786 0.9189 0.9189
vt 0.0941 0.8352 0.8352
vt 0.1024 0.8286 0.8286
vt 0.0969 0.8237 0.8237
vt 0.1306 0.8963 0.8963
vt 0.1427 0.9128 0.9128
vt 0.1521 0.9165 0.9165
vt 0.1589 0.9252 0.9252
vt 0.1324 0.9124 0.9124
vt 0.1344 0.9175 0.9175
vt 0.1425 0.9177 0.9177
vt 0.1497 0.9208 0.9208
vt 0.1549 0.9266 0.9266
vt 0.1576 0.9339 0.9339
vt 0.1576 0.9502 0.9502
vt 0.1648 0.9514 0.9514
vt 0.1571 0.9418 0.9418
vt 0.1530 0.9315 0.9315
vt 0.1479 0.9246 0.9246
vt 0.1405 0.9213 0.9213
vt 0.1536 0.9490 0.9490
vt 0.1484 0.9576 0.9576
vt 0.1561 0.9568 0.9568
vt 0.1494 0.9609 0.9609
vt 0.1317 0.9221 0.9221
vt 0.1338 0.9286 0.9286
vt 0.1409 0.9604 0.9604
vt 0.1407 0.9627 0.9627
vt 0.1475 0.9544 0.9544
vt 0.1498 0.9474 0.9474
vt 0.1534 0.9401 0.9401
vt 0.1467 0.9385 0.9385
vt 0.1462 0.9337 0.9337
vt 0.1447 0.9431 0.9431
vt 0.1405 0.9461 0.9461
vt 0.1433 0.9299 0.9299
vt 0.1265 0.9502 0.9502
vt 0.1338 0.9534 0.9534
vt 0.1356 0.9467 0.9467
vt 0.1388 0.9280 0.9280
vt 0.1310 0.9449 0.9449
vt 0.1209 0.9257 0.9257
vt 0.1267 0.9203 0.9203
vt 0.1185 0.9246 0.9246
vt 0.1246 0.9274 0.9274
vt 0.1298 0.9317 0.9317
vt 0.1282 0.9411 0.9411
vt 0.1214 0.9433 0.9433
vt 0.1193 0.9482 0.9482
vt 0.1168 0.9409 0.9409
vt 0.1173 0.9330 0.9330
vt 0.1210 0.9347 0.9347
vt 0.1277 0.9362 0.9362
vt 0.1109 0.9222 0.9222
vt 0.0922 0.9333 0.9333
vt 0.0908 0.9420 0.9420
vt 0.0926 0.9521 0.9521
vt 0.0964 0.9641 0.9641
vt 0.1248 0.9539 0.9539
vt 0.1036 0.9733 0.9733
vt 0.1426 0.9526 0.9526
vt 0.1320 0.9571 0.9571
vt 0.1246 0.9567 0.9567
vt 0.1086 0.9785 0.9785
vt 0.1117 0.9816 0.9816
vt 0.1252 0.9600 0.9600
vt 0.1234 0.9902 0.9902
vt 0.1399 0.9573 0.9573
vt 0.1311 0.9599 0.9599
vt 0.1306 0.9616 0.9616
vt 0.1345 0.9914 0.9914
vt 0.1543 0.9831 0.9831
vt 0.1617 0.9785 0.9785
vt 0.1384 0.9176 0.9176
vt 0.1256 0.9158 0.9158
vt 0.1376 0.9126 0.9126
vt 0.1545 0.9241 0.9241
vt 0.1165 0.9210 0.9210
vt 0.1132 0.9057 0.9057
vt 0.1206 0.9014 0.9014
vt 0.1354 0.8928 0.8928
vt 0.0786 0.8459 0.8459
vt 0.1594 0.8773 0.8773
vt 0.1105 0.8230 0.8230
vt 0.0982 0.8319 0.8319
vt 0.0852 0.8413 0.8413
vt 0.0754 0.8392 0.8392
vt 0.0826 0.8344 0.8344
vt 0.0834 0.8247 0.8247
vt 0.0906 0.8192 0.8192
vt 0.0934 0.8265 0.8265
vt 0.0679 0.8264 0.8264
vt 0.0812 0.8082 0.8082
vt 0.0973 0.8110 0.8110
vt 0.1044 0.8185 0.8185
vt 0.1141 0.8123 0.8123
vt 0.1206 0.8164 0.8164
vt 0.0999 0.8031 0.8031
vt 0.2031 0.9277 0.9277
vt 0.2064 0.9341 0.9341
vt 0.2092 0.9302 0.9302
vt 0.2074 0.9269 0.9269
vt 0.1517 0.9528 0.9528
vt 0.1479 0.9464 0.9464
vt 0.1511 0.9399 0.9399
vt 0.1591 0.9424 0.9424
vt 0.1315 0.9585 0.9585
vt 0.1404 0.9588 0.9588
vt 0.1229 0.9427 0.9427
vt 0.1273 0.9488 0.9488
vt 0.1338 0.9517 0.9517
vt 0.1416 0.9510 0.9510
vt 0.1225 0.9352 0.9352
vt 0.1256 0.9287 0.9287
vt 0.1320 0.9241 0.9241
vt 0.1398 0.9234 0.9234
vt 0.1462 0.9263 0.9263
vt 0.1506 0.9323 0.9323
vt 0.1913 0.9175 0.9175
vt 0.1991 0.9214 0.9214
vt 0.1980 0.9164 0.9164
vt 0.1965 0.9080 0.9080
vt 0.1929 0.9151 0.9151
vt 0.1958 0.9198 0.9198
vt 0.1959 0.9156 0.9156
vt 0.0815 0.8350 0.8350
vt 0.0760 0.8262 0.8262
vt 0.0851 0.8232 0.8232
vt 0.0920 0.8184 0.8184
vt 0.0898 0.8293 0.8293
vt 0.0959 0.8119 0.8119
# 162 texture coords

o acc1
g acc1
usemtl mat_alien_rifle_INST
s 1
f 1/1/1 2/2/2 3/3/3 
f 4/4/4 5/5/5 6/6/6 
f 4/4/4 7/7/7 5/5/5 
f 7/7/7 8/8/8 5/5/5 
f 8/8/8 9/9/9 5/5/5 
f 10/10/10 9/9/9 8/8/8 
f 9/9/9 10/10/10 11/11/11 
f 11/11/11 12/12/12 9/9/9 
f 12/12/12 11/11/11 1/1/1 
f 1/1/1 13/13/13 12/12/12 
f 3/3/3 13/13/13 1/1/1 
f 5/5/5 9/9/9 12/12/12 
f 14/14/14 15/15/10 8/8/8 
f 8/8/8 15/15/10 10/10/10 
f 16/16/15 5/5/5 17/17/16 
f 12/12/12 17/17/16 5/5/5 
f 17/17/16 12/12/12 13/13/13 
f 13/13/13 18/18/17 17/17/16 
f 17/17/16 18/18/17 16/16/15 
f 19/19/18 16/16/15 18/18/17 
f 18/18/17 13/13/13 3/3/3 
f 3/3/3 20/20/19 18/18/17 
f 18/18/17 20/20/19 19/19/18 
f 21/21/20 19/19/18 20/20/19 
f 19/19/18 21/21/20 22/22/21 
f 23/23/22 22/22/21 21/21/20 
f 24/24/23 22/22/21 23/23/22 
f 25/25/24 24/24/23 23/23/22 
f 24/24/23 25/25/24 26/26/25 
f 26/26/25 27/27/26 24/24/23 
f 28/28/27 29/29/28 30/30/29 
f 30/30/29 27/27/26 28/28/27 
f 27/27/26 30/30/29 31/31/30 
f 31/31/30 24/24/23 27/27/26 
f 24/24/23 31/31/30 32/32/31 
f 32/32/31 22/22/21 24/24/23 
f 22/22/21 32/32/31 19/19/18 
f 16/16/15 19/19/18 32/32/31 
f 32/32/31 6/6/6 16/16/15 
f 5/5/5 16/16/15 6/6/6 
f 6/6/6 32/32/31 31/31/30 
f 33/33/32 34/34/33 35/35/34 
f 34/34/33 33/33/32 36/36/35 
f 36/36/35 29/29/28 34/34/33 
f 37/37/36 29/29/28 36/36/35 
f 30/30/29 29/29/28 37/37/36 
f 37/37/36 38/38/37 30/30/29 
f 31/31/30 30/30/29 38/38/37 
f 38/38/37 39/39/38 31/31/30 
f 31/31/30 39/39/38 6/6/6 
f 39/39/38 4/4/4 6/6/6 
f 36/36/35 40/40/39 37/37/36 
f 41/41/40 42/42/41 37/37/36 
f 38/38/37 37/37/36 42/42/41 
f 42/42/41 43/43/42 38/38/37 
f 39/39/38 38/38/37 43/43/42 
f 43/43/42 44/44/43 39/39/38 
f 4/4/4 39/39/38 44/44/43 
f 44/44/43 45/45/44 4/4/4 
f 7/7/7 4/4/4 45/45/44 
f 46/46/45 47/47/46 8/8/8 
f 8/8/8 7/7/7 46/46/45 
f 46/46/45 7/7/7 48/48/47 
f 45/45/44 48/48/47 7/7/7 
f 48/48/47 45/45/44 49/49/48 
f 45/45/44 44/44/43 49/49/48 
f 50/50/49 49/49/48 44/44/43 
f 44/44/43 43/43/42 50/50/49 
f 51/51/50 50/50/49 43/43/42 
f 43/43/42 42/42/41 51/51/50 
f 48/48/47 52/52/51 46/46/45 
f 53/53/52 46/46/45 52/52/51 
f 47/47/46 46/46/45 53/53/52 
f 53/53/52 54/54/53 47/47/46 
f 55/55/54 54/54/53 53/53/52 
f 51/51/50 56/56/55 57/57/56 
f 58/58/57 59/59/58 55/55/54 
f 55/55/54 53/53/52 58/58/57 
f 58/58/57 53/53/52 60/60/59 
f 52/52/51 60/60/59 53/53/52 
f 60/60/59 52/52/51 61/61/60 
f 62/62/61 61/61/60 52/52/51 
f 61/61/60 62/62/61 63/63/62 
f 64/64/63 63/63/62 62/62/61 
f 65/65/64 63/63/62 64/64/63 
f 66/66/65 65/65/64 64/64/63 
f 66/66/65 64/64/63 67/67/66 
f 68/68/67 69/69/68 70/70/69 
f 66/66/65 70/70/69 69/69/68 
f 70/70/69 66/66/65 71/71/70 
f 66/66/65 67/67/66 71/71/70 
f 71/71/70 67/67/66 50/50/49 
f 49/49/48 50/50/49 67/67/66 
f 67/67/66 64/64/63 49/49/48 
f 62/62/61 49/49/48 64/64/63 
f 49/49/48 62/62/61 48/48/47 
f 52/52/51 48/48/47 62/62/61 
f 50/50/49 51/51/50 71/71/70 
f 57/57/56 71/71/70 51/51/50 
f 70/70/69 71/71/70 57/57/56 
f 70/70/69 57/57/56 72/72/71 
f 70/70/69 72/72/71 68/68/67 
f 73/73/72 74/74/73 75/75/74 
f 74/74/73 73/73/72 76/76/75 
f 76/76/75 56/56/55 74/74/73 
f 56/56/55 76/76/75 77/77/76 
f 77/77/76 57/57/56 56/56/55 
f 57/57/56 77/77/76 78/78/77 
f 57/57/56 78/78/77 72/72/71 
f 72/72/71 78/78/77 79/79/78 
f 79/79/78 68/68/67 72/72/71 
f 68/68/67 79/79/78 80/80/79 
f 81/81/80 80/80/79 79/79/78 
f 82/82/81 81/81/80 79/79/78 
f 79/79/78 83/83/82 82/82/81 
f 73/73/72 82/82/81 83/83/82 
f 83/83/82 76/76/75 73/73/72 
f 76/76/75 83/83/82 84/84/83 
f 84/84/83 77/77/76 76/76/75 
f 77/77/76 84/84/83 78/78/77 
f 78/78/77 84/84/83 83/83/82 
f 83/83/82 79/79/78 78/78/77 
f 73/73/72 75/85/74 85/86/84 
f 82/82/81 73/73/72 85/86/84 
f 85/86/84 86/87/85 82/82/81 
f 82/82/81 86/87/85 87/88/86 
f 87/88/86 81/81/80 82/82/81 
f 81/81/80 87/88/86 88/89/87 
f 88/89/87 80/80/79 81/81/80 
f 89/90/88 80/80/79 88/89/87 
f 80/80/79 89/90/88 68/68/67 
f 69/69/68 68/68/67 89/90/88 
f 88/89/87 90/91/89 89/90/88 
f 65/65/64 66/66/65 91/92/90 
f 69/69/68 91/92/90 66/66/65 
f 91/92/90 69/69/68 92/93/91 
f 89/90/88 92/93/91 69/69/68 
f 92/93/91 89/90/88 93/94/92 
f 93/94/92 89/90/88 90/91/89 
f 90/91/89 94/95/93 93/94/92 
f 93/94/92 94/95/93 95/96/94 
f 95/96/94 96/97/95 93/94/92 
f 96/97/95 95/96/94 97/98/96 
f 92/93/91 98/99/97 91/92/90 
f 63/63/62 65/65/64 61/61/60 
f 91/92/90 61/61/60 65/65/64 
f 61/61/60 91/92/90 60/60/59 
f 98/99/97 60/60/59 91/92/90 
f 60/60/59 98/99/97 58/58/57 
f 58/58/57 98/99/97 92/93/91 
f 92/93/91 99/100/98 58/58/57 
f 93/94/92 99/100/98 92/93/91 
f 99/100/98 93/94/92 96/97/95 
f 96/97/95 100/101/99 99/100/98 
f 99/100/98 100/101/99 59/59/58 
f 59/59/58 58/58/57 99/100/98 
f 97/98/96 100/101/99 96/97/95 
f 100/101/99 97/98/96 101/102/100 
f 101/102/100 59/59/58 100/101/99 
f 59/59/58 101/102/100 102/103/101 
f 102/103/101 55/55/54 59/59/58 
f 55/55/54 102/103/101 103/104/102 
f 103/104/102 54/54/53 55/55/54 
f 54/54/53 103/104/102 14/14/14 
f 14/14/14 47/47/46 54/54/53 
f 8/8/8 47/47/46 14/14/14 
f 104/105/103 105/74/104 106/106/105 
f 106/106/105 107/107/106 104/105/103 
f 104/105/103 107/107/106 108/108/107 
f 75/75/74 105/74/104 85/73/84 
f 106/106/105 105/74/104 75/75/74 
f 75/75/74 109/109/108 106/106/105 
f 106/106/105 109/109/108 110/110/109 
f 110/110/109 111/111/110 106/106/105 
f 107/107/106 106/106/105 111/111/110 
f 111/111/110 112/112/111 107/107/106 
f 108/108/107 107/107/106 112/112/111 
f 108/108/107 112/112/111 113/28/112 
f 113/28/112 114/27/113 108/108/107 
f 111/111/110 110/110/109 115/113/114 
f 116/114/115 26/26/25 114/27/113 
f 114/27/113 113/28/112 116/114/115 
f 116/114/115 113/28/112 117/115/116 
f 117/115/116 113/28/112 112/112/111 
f 112/112/111 118/116/117 117/115/116 
f 118/116/117 112/112/111 111/111/110 
f 111/111/110 119/117/118 118/116/117 
f 115/113/114 119/117/118 111/111/110 
f 119/117/118 115/113/114 120/118/119 
f 120/118/119 121/119/120 119/117/118 
f 121/119/120 122/120/121 123/121/122 
f 123/121/122 124/122/123 121/119/120 
f 119/117/118 121/119/120 124/122/123 
f 124/122/123 118/116/117 119/117/118 
f 121/119/120 120/118/119 125/123/124 
f 125/123/124 122/120/121 121/119/120 
f 122/120/121 125/123/124 126/124/125 
f 123/121/122 122/120/121 126/124/125 
f 127/125/126 123/121/122 126/124/125 
f 124/122/123 123/121/122 127/125/126 
f 127/125/126 128/126/127 124/122/123 
f 118/116/117 124/122/123 128/126/127 
f 128/126/127 117/115/116 118/116/117 
f 117/115/116 128/126/127 129/127/128 
f 129/127/128 130/128/129 117/115/116 
f 117/115/116 130/128/129 116/114/115 
f 129/127/128 128/126/127 127/125/126 
f 127/125/126 131/129/130 129/127/128 
f 131/129/130 127/125/126 126/124/125 
f 132/130/131 3/3/132 2/2/133 
f 2/2/133 133/131/134 132/130/131 
f 132/130/131 133/131/134 134/132/135 
f 134/132/135 135/133/136 132/130/131 
f 136/134/137 137/135/138 138/136/139 
f 138/136/139 139/137/140 136/134/137 
f 140/138/141 141/139/142 101/59/100 
f 102/55/101 101/59/100 141/139/142 
f 141/139/142 136/134/137 102/55/101 
f 102/55/101 136/134/137 103/54/102 
f 14/47/14 103/54/102 136/134/137 
f 136/134/137 139/137/140 14/47/14 
f 139/137/140 15/8/10 14/47/14 
f 15/8/10 139/137/140 10/9/10 
f 139/137/140 11/12/11 10/9/10 
f 11/12/11 139/137/140 1/13/1 
f 142/140/143 87/81/86 86/82/85 
f 87/81/86 142/140/143 88/80/87 
f 88/80/87 142/140/143 143/141/144 
f 144/142/145 143/141/144 142/140/143 
f 90/90/89 143/141/144 144/142/145 
f 144/142/145 140/138/141 90/90/89 
f 140/138/141 94/94/93 90/90/89 
f 95/97/94 94/94/93 140/138/141 
f 140/138/141 97/101/96 95/97/94 
f 101/59/100 97/101/96 140/138/141 
f 143/141/144 90/90/89 88/80/87 
f 137/135/138 145/143/146 142/140/143 
f 145/143/146 137/135/138 136/134/137 
f 141/139/142 145/143/146 136/134/137 
f 145/143/146 141/139/142 140/138/141 
f 140/138/141 144/142/145 145/143/146 
f 145/143/146 144/142/145 142/140/143 
f 146/144/147 147/145/148 142/140/143 
f 147/145/148 148/146/149 142/140/143 
f 148/146/149 149/147/150 142/140/143 
f 149/147/150 150/148/151 142/140/143 
f 150/148/151 151/149/152 142/140/143 
f 151/149/152 150/148/151 108/108/107 
f 108/108/107 150/148/151 149/147/150 
f 149/147/150 104/105/103 108/108/107 
f 149/147/150 148/146/149 104/105/103 
f 104/105/103 148/146/149 105/74/104 
f 105/74/104 148/146/149 147/145/148 
f 147/145/148 85/73/84 105/74/104 
f 85/73/84 147/145/148 146/144/147 
f 146/144/147 86/82/85 85/73/84 
f 86/82/85 146/144/147 142/140/143 
f 114/27/113 152/24/153 108/108/107 
f 152/24/153 153/22/154 108/108/107 
f 152/24/153 154/23/155 153/22/154 
f 154/23/155 155/150/156 153/22/154 
f 153/22/154 155/150/156 139/137/140 
f 139/137/140 108/108/107 153/22/154 
f 151/149/152 108/108/107 139/137/140 
f 139/137/140 138/136/139 151/149/152 
f 151/149/152 138/136/139 142/140/143 
f 138/136/139 137/135/138 142/140/143 
f 1/13/1 139/137/140 155/150/156 
f 155/150/156 2/3/2 1/13/1 
f 155/150/156 133/151/157 2/3/2 
f 133/151/157 155/150/156 154/23/155 
f 154/23/155 134/152/158 133/151/157 
f 134/152/158 154/23/155 156/153/159 
f 25/25/24 156/153/159 154/23/155 
f 154/23/155 152/24/153 25/25/24 
f 26/26/25 25/25/24 152/24/153 
f 152/24/153 114/27/113 26/26/25 
f 23/23/22 156/153/159 25/25/24 
f 23/23/22 157/154/160 156/153/159 
f 21/21/20 157/154/160 23/23/22 
f 157/154/160 21/21/20 158/155/161 
f 20/20/19 158/155/161 21/21/20 
f 158/155/161 20/20/19 3/3/3 
f 3/3/3 132/151/162 158/155/161 
f 158/155/161 132/151/162 135/152/163 
f 135/152/163 159/156/164 158/155/161 
f 156/153/159 159/156/164 135/152/163 
f 157/154/160 159/156/164 156/153/159 
f 158/155/161 159/156/164 157/154/160 
f 135/152/163 134/152/158 156/153/159 
f 120/118/119 115/113/114 160/117/165 
f 160/117/165 161/157/166 120/118/119 
f 125/123/124 120/118/119 161/157/166 
f 161/157/166 162/158/167 125/123/124 
f 125/123/124 162/158/167 126/124/125 
f 162/158/167 163/159/168 126/124/125 
f 163/159/168 164/160/169 126/124/125 
f 164/160/169 163/159/168 165/161/170 
f 165/161/170 35/35/34 164/160/169 
f 35/35/34 165/161/170 33/33/32 
f 163/159/168 162/158/167 161/157/166 
f 161/157/166 165/161/170 163/159/168 
f 165/161/170 161/157/166 160/117/165 
f 160/117/165 33/33/32 165/161/170 
f 33/33/32 160/117/165 166/111/171 
f 166/111/171 36/36/35 33/33/32 
f 40/40/39 36/36/35 166/111/171 
f 166/111/171 167/106/172 40/40/39 
f 41/41/40 40/40/39 167/106/172 
f 37/37/36 40/40/39 41/41/40 
f 56/56/55 51/51/50 42/42/41 
f 42/42/41 41/41/40 56/56/55 
f 41/41/40 74/74/73 56/56/55 
f 167/106/172 74/74/73 41/41/40 
f 75/75/74 74/74/73 167/106/172 
f 167/106/172 109/109/108 75/75/74 
f 110/110/109 109/109/108 167/106/172 
f 167/106/172 166/111/171 110/110/109 
f 115/113/114 110/110/109 166/111/171 
f 166/111/171 160/117/165 115/113/114 
f 27/27/26 26/26/25 116/114/115 
f 116/114/115 28/28/27 27/27/26 
f 168/115/173 28/28/27 116/114/115 
f 29/29/28 28/28/27 168/115/173 
f 168/115/173 34/34/33 29/29/28 
f 34/34/33 168/115/173 169/126/174 
f 169/126/174 35/35/34 34/34/33 
f 35/35/34 169/126/174 170/162/175 
f 170/162/175 164/160/169 35/35/34 
f 164/160/169 170/162/175 126/124/125 
f 170/162/175 131/129/130 126/124/125 
f 129/127/128 131/129/130 170/162/175 
f 170/162/175 169/126/174 129/127/128 
f 129/127/128 169/126/174 168/115/173 
f 168/115/173 130/128/129 129/127/128 
f 116/114/115 130/128/129 168/115/173 
# 0 polygons - 336 triangles

