# 3ds Max Wavefront OBJ Exporter v0.99 - (c)2007 guruware
# File Created: 13.06.2021 16:36:19

mtllib body5.mtl

#
# object body5
#

v  -1.9473 7.2530 4.7519
v  -1.1525 7.2530 5.9543
v  -1.0121 7.6230 5.9543
v  -1.6650 7.7530 4.7519
v  1.0122 7.6230 5.9543
v  -1.6650 7.7530 -9.3874
v  -1.9473 7.2530 -11.9698
v  -1.6650 7.7530 -10.9585
v  -1.1607 8.3298 -10.7652
v  -1.2664 7.6830 -11.9027
v  1.2664 7.6830 -11.9027
v  1.2664 6.3231 -14.8352
v  1.9474 7.2530 -11.9698
v  2.0981 5.8846 -14.9394
v  1.1607 8.3298 -10.7652
v  -1.1607 8.1457 -9.8622
v  1.6651 7.7530 -9.3874
v  1.6651 7.7530 4.7519
v  1.6651 7.7530 -10.9585
v  1.1526 7.2530 5.9543
v  1.9474 7.2530 4.7519
v  1.1607 8.1457 -9.8622
v  1.3726 2.3145 -11.1727
v  0.7546 1.4145 -12.3311
v  0.5366 1.4508 -16.0940
v  2.5985 3.3849 -17.0049
v  2.3412 2.5247 -17.0026
v  2.3412 2.5247 -19.7632
v  1.6201 1.8348 -19.7632
v  1.6201 1.8348 -17.0026
v  0.5782 1.4519 -19.7632
v  0.5782 1.4519 -17.0026
v  1.1287 1.8462 -16.0943
v  1.6072 2.5304 -16.0933
v  1.5507 2.8056 -10.2740
v  1.8380 3.3731 -16.2887
v  1.6558 4.4202 -8.4089
v  1.9405 5.0034 -7.7116
v  1.5504 5.0034 -7.7116
v  1.5790 3.8626 -9.0529
v  1.6795 3.9449 -9.2838
v  1.9286 4.2441 -16.4937
v  2.3412 4.2452 -17.0072
v  2.5985 3.3849 -19.7632
v  1.8217 4.4282 -8.6572
v  2.1143 4.9418 -16.9854
v  2.3412 4.2452 -19.7632
v  1.6201 4.9351 -19.7632
v  2.1120 5.1162 -7.8063
v  2.0111 6.9910 4.7519
v  2.1132 5.8849 3.5823
v  2.1125 5.1334 0.5218
v  1.2032 6.9364 5.9543
v  1.2663 5.8849 4.8729
v  1.2664 5.1697 3.6122
v  2.1125 5.2979 2.5022
v  1.9430 5.0034 0.5253
v  1.5504 5.0034 0.5253
v  -0.7545 1.4145 -12.3311
v  -1.6794 3.9449 -9.2838
v  -1.9286 4.2441 -16.4937
v  -1.8380 3.3731 -16.2887
v  -1.5507 2.8056 -10.2740
v  -1.6072 2.5304 -16.0933
v  -1.3726 2.3145 -11.1727
v  -1.1287 1.8462 -16.0943
v  -0.5366 1.4508 -16.0940
v  -0.5782 1.4519 -17.0026
v  -2.1086 4.9418 -16.9854
v  -2.3412 4.2452 -17.0072
v  -2.5985 3.3849 -17.0049
v  -2.3412 2.5247 -17.0026
v  -1.6201 1.8348 -17.0026
v  -0.5782 1.4519 -19.7632
v  -1.6201 1.8348 -19.7632
v  -2.3412 2.5247 -19.7632
v  -2.5985 3.3849 -19.7632
v  -2.3412 4.2452 -19.7632
v  -1.6201 4.9351 -19.7632
v  -2.0110 6.9910 4.7519
v  -1.2031 6.9364 5.9543
v  -2.1131 5.8849 3.5823
v  -2.0980 5.8846 -14.9394
v  -2.1120 5.1097 -7.8252
v  -1.8217 4.4282 -8.6572
v  -2.1124 5.1334 0.5218
v  -1.9429 5.0034 0.5253
v  -1.9404 5.0034 -7.7116
v  -1.6558 4.4202 -8.4089
v  -1.5789 3.8626 -9.0529
v  -1.5504 5.0034 -7.7116
v  -1.5504 5.0034 0.5253
v  -1.2663 5.1697 3.6122
v  -2.1124 5.2979 2.5022
v  -1.2662 5.8849 4.8729
v  0.5782 5.3180 -19.7632
v  -0.5782 5.3180 -19.7632
v  -1.1607 5.3180 -17.0027
v  -1.2664 6.3231 -14.8352
v  1.1607 5.3180 -17.0027
v  1.7857 2.8056 0.7281
v  -1.7856 2.8056 0.7281
# 102 vertices

vn -0.9091 0.3361 0.2461
vn -0.6048 0.1651 0.7791
vn -0.2425 0.5253 0.8156
vn -0.5346 0.8253 0.1820
vn 0.2553 0.5256 0.8115
vn -0.5914 0.7983 0.1135
vn -0.8522 0.4972 -0.1628
vn -0.7666 0.6311 -0.1181
vn -0.3430 0.9285 -0.1422
vn -0.2780 0.8721 -0.4028
vn 0.2456 0.8655 -0.4366
vn 0.2064 0.8884 -0.4100
vn 0.8576 0.4849 -0.1717
vn 0.8244 0.5168 -0.2309
vn 0.3614 0.9266 -0.1042
vn -0.1998 0.9065 0.3719
vn 0.5866 0.8037 0.1000
vn 0.5366 0.8213 0.1937
vn 0.7914 0.6104 -0.0330
vn 0.6168 0.1776 0.7668
vn 0.8961 0.3529 0.2692
vn 0.2776 0.9022 0.3300
vn 0.5422 -0.7721 0.3315
vn 0.3390 -0.9152 0.2180
vn 0.2717 -0.9613 0.0448
vn 0.9281 0.0014 0.3723
vn 0.8367 -0.4539 0.3066
vn 0.8530 -0.5219 -0.0000
vn 0.5293 -0.8485 -0.0000
vn 0.5580 -0.8181 0.1390
vn 0.1752 -0.9845 -0.0000
vn 0.1752 -0.9845 0.0034
vn 0.6509 -0.7296 0.2099
vn 0.8674 -0.3872 0.3126
vn 0.6335 -0.6953 0.3395
vn 0.9186 -0.0913 0.3845
vn 0.3528 -0.7630 0.5417
vn 0.3704 -0.8999 0.2301
vn 0.0042 -0.9398 0.3416
vn 0.6181 -0.6156 0.4888
vn 0.9344 -0.3256 0.1444
vn 0.9496 -0.0575 0.3083
vn 0.9042 0.2557 0.3421
vn 1.0000 0.0000 0.0000
vn 0.7999 -0.5621 0.2102
vn 0.7797 0.6235 -0.0578
vn 0.8716 0.4872 -0.0543
vn 0.5284 0.8431 -0.0998
vn 0.9225 -0.3774 0.0812
vn 0.9370 -0.0497 0.3457
vn 0.9088 -0.3364 0.2470
vn 0.8920 -0.4516 0.0187
vn 0.4760 -0.2831 0.8326
vn 0.3897 -0.7159 0.5793
vn 0.2821 -0.8556 0.4339
vn 0.8010 -0.5863 0.1216
vn 0.3230 -0.9458 0.0344
vn -0.0000 -0.9996 0.0277
vn -0.2989 -0.8924 0.3380
vn -0.9344 -0.3253 0.1451
vn -0.9447 -0.0244 0.3272
vn -0.9060 -0.0713 0.4173
vn -0.6311 -0.6968 0.3409
vn -0.8564 -0.4273 0.2899
vn -0.5426 -0.7696 0.3367
vn -0.6552 -0.7460 0.1187
vn -0.2816 -0.9595 -0.0069
vn -0.2022 -0.9788 0.0327
vn -0.7776 0.6259 -0.0597
vn -0.9052 0.2818 0.3180
vn -0.9386 0.0034 0.3451
vn -0.8262 -0.4823 0.2911
vn -0.5569 -0.8093 0.1867
vn -0.1752 -0.9845 -0.0000
vn -0.5293 -0.8485 -0.0000
vn -0.8530 -0.5219 -0.0000
vn -1.0000 -0.0000 -0.0000
vn -0.8714 0.4876 -0.0536
vn -0.5264 0.8450 -0.0946
vn -0.9559 -0.0312 0.2922
vn -0.4718 -0.2851 0.8343
vn -0.9103 -0.3324 0.2468
vn -0.8255 0.5148 -0.2314
vn -0.9235 -0.3740 0.0857
vn -0.7994 -0.5637 0.2080
vn -0.8842 -0.4648 0.0469
vn -0.3380 -0.9390 0.0642
vn -0.3603 -0.9042 0.2296
vn -0.3475 -0.7662 0.5405
vn -0.6181 -0.6156 0.4889
vn -0.0042 -0.9398 0.3416
vn -0.2891 -0.8534 0.4338
vn -0.7867 -0.6077 0.1082
vn -0.3876 -0.7180 0.5782
vn 0.1524 0.9878 -0.0322
vn -0.1552 0.9875 -0.0294
vn -0.2017 0.9501 -0.2380
vn -0.2064 0.8884 -0.4100
vn 0.1993 0.9513 -0.2353
vn 0.0000 0.0000 -1.0000
vn 0.9931 0.1101 0.0409
vn 0.7122 -0.4746 0.5173
vn 0.7352 -0.6250 0.2624
vn 0.9993 0.0336 -0.0191
vn 0.7157 -0.6982 -0.0153
vn -0.9993 0.0336 -0.0191
vn -0.7157 -0.6982 -0.0153
vn -0.7352 -0.6250 0.2624
vn -0.9931 0.1101 0.0409
vn -0.7122 -0.4745 0.5173
# 110 vertex normals

vt 0.3015 0.1855 0.1855
vt 0.3127 0.1934 0.1934
vt 0.3127 0.1953 0.1953
vt 0.3015 0.1890 0.1890
vt 0.3127 0.2139 0.2139
vt 0.1704 0.1890 0.1890
vt 0.1465 0.1855 0.1855
vt 0.1559 0.1890 0.1890
vt 0.1576 0.1938 0.1938
vt 0.1471 0.1929 0.1929
vt 0.1471 0.2163 0.2163
vt 0.1199 0.2163 0.2163
vt 0.1465 0.2236 0.2236
vt 0.1189 0.2241 0.2241
vt 0.1576 0.2153 0.2153
vt 0.1660 0.1938 0.1938
vt 0.1704 0.2202 0.2202
vt 0.3015 0.2202 0.2202
vt 0.1559 0.2202 0.2202
vt 0.3127 0.2158 0.2158
vt 0.3015 0.2236 0.2236
vt 0.1660 0.2153 0.2153
vt 0.2507 0.2422 0.2422
vt 0.2407 0.2344 0.2344
vt 0.2079 0.2349 0.2349
vt 0.2000 0.2510 0.2510
vt 0.2000 0.2437 0.2437
vt 0.1759 0.2437 0.2437
vt 0.1759 0.2378 0.2378
vt 0.2000 0.2378 0.2378
vt 0.1759 0.2349 0.2349
vt 0.2000 0.2349 0.2349
vt 0.2079 0.2378 0.2378
vt 0.2079 0.2437 0.2437
vt 0.2585 0.2461 0.2461
vt 0.2062 0.2510 0.2510
vt 0.2749 0.2598 0.2598
vt 0.2810 0.2646 0.2646
vt 0.2810 0.2607 0.2607
vt 0.2693 0.2554 0.2554
vt 0.2673 0.2559 0.2559
vt 0.2045 0.2583 0.2583
vt 0.2000 0.2583 0.2583
vt 0.1759 0.2510 0.2510
vt 0.2727 0.2598 0.2598
vt 0.2002 0.2642 0.2642
vt 0.1759 0.2583 0.2583
vt 0.1759 0.2642 0.2642
vt 0.2800 0.2656 0.2656
vt 0.2180 0.2725 0.2725
vt 0.3896 0.2817 0.2817
vt 0.2439 0.2842 0.2842
vt 0.3896 0.2842 0.2842
vt 0.3794 0.2725 0.2725
vt 0.3528 0.2661 0.2661
vt 0.4036 0.2842 0.2842
vt 0.4036 0.2813 0.2813
vt 0.3940 0.2725 0.2725
vt 0.3831 0.2661 0.2661
vt 0.3699 0.2676 0.2676
vt 0.3528 0.2646 0.2646
vt 0.3528 0.2607 0.2607
vt 0.2079 0.2261 0.2261
vt 0.2407 0.2256 0.2256
vt 0.2000 0.2261 0.2261
vt 0.1759 0.2261 0.2261
vt 0.0742 0.2100 0.2100
vt 0.0742 0.1992 0.1992
vt 0.0997 0.1938 0.1938
vt 0.0742 0.1895 0.1895
vt 0.0999 0.1851 0.1851
vt 0.1189 0.1851 0.1851
vt 0.1199 0.1929 0.1929
vt 0.0997 0.2153 0.2153
vt 0.0742 0.2197 0.2197
vt 0.0999 0.2241 0.2241
vt 0.4341 0.2739 0.2739
vt 0.4355 0.2783 0.2783
vt 0.4397 0.2822 0.2822
vt 0.4521 0.2842 0.2842
vt 0.4456 0.2842 0.2842
vt 0.4583 0.2822 0.2822
vt 0.4622 0.2783 0.2783
vt 0.4521 0.2637 0.2637
vt 0.4397 0.2656 0.2656
vt 0.4355 0.2690 0.2690
vt 0.4456 0.2637 0.2637
vt 0.4636 0.2739 0.2739
vt 0.4622 0.2690 0.2690
vt 0.4583 0.2656 0.2656
vt 0.3503 0.2573 0.2573
vt 0.3770 0.2588 0.2588
vt 0.3521 0.2393 0.2393
vt 0.2795 0.2573 0.2573
vt 0.2576 0.2393 0.2393
vt 0.4082 0.2627 0.2627
vt 0.4063 0.2637 0.2637
vt 0.4063 0.2798 0.2798
vt 0.4082 0.2813 0.2813
vt 0.4097 0.2622 0.2622
vt 0.4097 0.2813 0.2813
vt 0.4202 0.2817 0.2817
vt 0.4202 0.2617 0.2617
vt 0.4312 0.2817 0.2817
vt 0.4312 0.2617 0.2617
vt 0.1732 0.1084 0.1084
vt 0.1732 0.1309 0.1309
vt 0.2030 0.1353 0.1353
vt 0.2030 0.1040 0.1040
vt 0.2959 0.1333 0.1333
vt 0.2959 0.1060 0.1060
vt 0.3047 0.1318 0.1318
vt 0.3047 0.1079 0.1079
vt 0.3167 0.1133 0.1133
vt 0.3167 0.1265 0.1265
# 115 texture coords

o body5
g body5
usemtl mat_alien_rifle_INST
s 1
f 1/1/1 2/2/2 3/3/3 
f 4/4/4 3/3/3 5/5/5 
f 3/3/3 4/4/4 1/1/1 
f 1/1/1 4/4/4 6/6/6 
f 6/6/6 7/7/7 1/1/1 
f 6/6/6 8/8/8 7/7/7 
f 9/9/9 8/8/8 6/6/6 
f 8/8/8 9/9/9 10/10/10 
f 11/11/11 10/10/10 9/9/9 
f 10/10/10 11/11/11 12/12/12 
f 13/13/13 14/14/14 12/12/12 
f 12/12/12 11/11/11 13/13/13 
f 13/13/13 11/11/11 15/15/15 
f 9/9/9 15/15/15 11/11/11 
f 15/15/15 9/9/9 16/16/16 
f 6/6/6 16/16/16 9/9/9 
f 16/16/16 6/6/6 17/17/17 
f 17/17/17 6/6/6 4/4/4 
f 4/4/4 18/18/18 17/17/17 
f 5/5/5 18/18/18 4/4/4 
f 15/15/15 19/19/19 13/13/13 
f 18/18/18 5/5/5 20/20/20 
f 20/20/20 21/21/21 18/18/18 
f 18/18/18 21/21/21 13/13/13 
f 13/13/13 17/17/17 18/18/18 
f 17/17/17 13/13/13 19/19/19 
f 22/22/22 17/17/17 19/19/19 
f 19/19/19 15/15/15 22/22/22 
f 16/16/16 22/22/22 15/15/15 
f 17/17/17 22/22/22 16/16/16 
f 23/23/23 24/24/24 25/25/25 
f 26/26/26 27/27/27 28/28/28 
f 29/29/29 28/28/28 27/27/27 
f 27/27/27 30/30/30 29/29/29 
f 31/31/31 29/29/29 30/30/30 
f 30/30/30 32/32/32 31/31/31 
f 25/25/25 32/32/32 30/30/30 
f 30/30/30 33/33/33 25/25/25 
f 25/25/25 33/33/33 23/23/23 
f 23/23/23 33/33/33 34/34/34 
f 34/34/34 35/35/35 23/23/23 
f 34/34/34 36/36/36 35/35/35 
f 36/36/36 34/34/34 27/27/27 
f 27/27/27 26/26/26 36/36/36 
f 33/33/33 30/30/30 27/27/27 
f 27/27/27 34/34/34 33/33/33 
f 37/37/37 38/38/38 39/39/39 
f 40/40/40 37/37/37 39/39/39 
f 37/37/37 40/40/40 41/41/41 
f 35/35/35 41/41/41 40/40/40 
f 42/42/42 41/41/41 35/35/35 
f 35/35/35 36/36/36 42/42/42 
f 43/43/43 42/42/42 36/36/36 
f 36/36/36 26/26/26 43/43/43 
f 43/43/43 26/26/26 44/44/44 
f 28/28/28 44/44/44 26/26/26 
f 35/35/35 40/40/40 39/39/39 
f 45/45/45 42/42/42 46/46/46 
f 42/42/42 43/43/43 46/46/46 
f 46/46/46 43/43/43 47/47/47 
f 44/44/44 47/47/47 43/43/43 
f 46/46/46 47/47/47 48/48/48 
f 46/46/46 49/49/49 45/45/45 
f 49/49/49 46/46/46 14/50/14 
f 50/51/50 13/52/13 21/53/21 
f 50/51/50 51/54/51 13/52/13 
f 51/54/51 14/50/14 13/52/13 
f 14/50/14 51/54/51 49/49/49 
f 52/55/52 49/49/49 51/54/51 
f 38/38/38 49/49/49 52/55/52 
f 49/49/49 38/38/38 37/37/37 
f 37/37/37 45/45/45 49/49/49 
f 41/41/41 45/45/45 37/37/37 
f 45/45/45 41/41/41 42/42/42 
f 21/53/21 20/56/20 53/57/53 
f 53/57/53 50/51/50 21/53/21 
f 50/51/50 53/57/53 54/58/54 
f 54/58/54 51/54/51 50/51/50 
f 51/54/51 54/58/54 55/59/55 
f 55/59/55 56/60/56 51/54/51 
f 51/54/51 56/60/56 52/55/52 
f 57/61/57 52/55/52 56/60/56 
f 52/55/52 57/61/57 38/38/38 
f 39/39/39 38/38/38 57/61/57 
f 56/60/56 55/59/55 57/61/57 
f 58/62/58 57/61/57 55/59/55 
f 57/61/57 58/62/58 39/39/39 
f 25/63/25 24/64/24 59/24/59 
f 60/41/60 61/42/61 62/36/62 
f 62/36/62 63/35/63 60/41/60 
f 63/35/63 62/36/62 64/34/64 
f 65/23/65 63/35/63 64/34/64 
f 64/34/64 66/33/66 65/23/65 
f 59/24/59 65/23/65 66/33/66 
f 66/33/66 67/25/67 59/24/59 
f 59/24/59 67/25/67 25/63/25 
f 32/65/32 25/63/25 67/25/67 
f 67/25/67 68/32/68 32/65/32 
f 69/46/69 70/43/70 61/42/61 
f 61/42/61 70/43/70 71/26/71 
f 71/26/71 62/36/62 61/42/61 
f 64/34/64 62/36/62 71/26/71 
f 71/26/71 72/27/72 64/34/64 
f 64/34/64 72/27/72 73/30/73 
f 73/30/73 66/33/66 64/34/64 
f 66/33/66 73/30/73 68/32/68 
f 68/32/68 67/25/67 66/33/66 
f 32/65/32 68/32/68 74/31/74 
f 75/29/75 74/31/74 68/32/68 
f 68/32/68 73/30/73 75/29/75 
f 76/28/76 75/29/75 73/30/73 
f 73/30/73 72/27/72 76/28/76 
f 77/44/77 76/28/76 72/27/72 
f 72/27/72 71/26/71 77/44/77 
f 78/47/78 77/44/77 71/26/71 
f 71/26/71 70/43/70 78/47/78 
f 70/43/70 69/46/69 78/47/78 
f 69/46/69 79/48/79 78/47/78 
f 74/31/74 31/66/31 32/65/32 
f 80/51/80 81/57/81 2/56/2 
f 2/56/2 1/53/1 80/51/80 
f 1/53/1 82/54/82 80/51/80 
f 1/53/1 7/52/7 82/54/82 
f 7/52/7 83/50/83 82/54/82 
f 84/49/84 82/54/82 83/50/83 
f 83/50/83 69/46/69 84/49/84 
f 85/45/85 84/49/84 69/46/69 
f 69/46/69 61/42/61 85/45/85 
f 61/42/61 60/41/60 85/45/85 
f 82/54/82 84/49/84 86/55/86 
f 87/61/87 86/55/86 84/49/84 
f 84/49/84 88/38/88 87/61/87 
f 88/38/88 84/49/84 85/45/85 
f 85/45/85 89/37/89 88/38/88 
f 89/37/89 85/45/85 60/41/60 
f 60/41/60 90/40/90 89/37/89 
f 60/41/60 63/35/63 90/40/90 
f 90/40/90 63/35/63 91/39/91 
f 89/37/89 90/40/90 91/39/91 
f 89/37/89 91/39/91 88/38/88 
f 87/61/87 88/38/88 91/39/91 
f 91/39/91 92/62/58 87/61/87 
f 92/62/58 93/59/92 87/61/87 
f 86/55/86 87/61/87 93/59/92 
f 93/59/92 94/60/93 86/55/86 
f 86/55/86 94/60/93 82/54/82 
f 95/58/94 82/54/82 94/60/93 
f 82/54/82 95/58/94 81/57/81 
f 81/57/81 80/51/80 82/54/82 
f 94/60/93 93/59/92 95/58/94 
f 96/67/95 97/68/96 98/69/97 
f 97/68/96 79/70/79 69/71/69 
f 69/71/69 98/69/97 97/68/96 
f 98/69/97 69/71/69 83/72/83 
f 83/72/83 99/73/98 98/69/97 
f 99/73/98 83/72/83 7/7/7 
f 10/10/10 7/7/7 8/8/8 
f 7/7/7 10/10/10 99/73/98 
f 12/12/12 99/73/98 10/10/10 
f 98/69/97 99/73/98 12/12/12 
f 12/12/12 100/74/99 98/69/97 
f 98/69/97 100/74/99 96/67/95 
f 48/75/48 96/67/95 100/74/99 
f 100/74/99 46/76/46 48/75/48 
f 14/14/14 46/76/46 100/74/99 
f 100/74/99 12/12/12 14/14/14 
f 77/77/100 78/78/100 79/79/100 
f 77/77/100 79/79/100 96/80/100 
f 97/81/100 96/80/100 79/79/100 
f 96/80/100 48/82/100 47/83/100 
f 47/83/100 31/84/100 96/80/100 
f 96/80/100 31/84/100 77/77/100 
f 75/85/100 77/77/100 31/84/100 
f 75/85/100 76/86/100 77/77/100 
f 31/84/100 74/87/100 75/85/100 
f 47/83/100 44/88/100 28/89/100 
f 28/89/100 31/84/100 47/83/100 
f 28/89/100 29/90/100 31/84/100 
f 58/91/101 55/92/102 101/93/103 
f 39/94/104 58/91/101 101/93/103 
f 101/93/103 35/95/105 39/94/104 
f 20/96/20 5/97/5 3/98/3 
f 3/98/3 2/99/2 20/96/20 
f 53/100/53 20/96/20 2/99/2 
f 2/99/2 81/101/81 53/100/53 
f 53/100/53 81/101/81 95/102/94 
f 95/102/94 54/103/54 53/100/53 
f 54/103/54 95/102/94 93/104/92 
f 93/104/92 55/105/55 54/103/54 
f 91/94/106 63/95/107 102/93/108 
f 102/93/108 92/91/109 91/94/106 
f 102/93/108 93/92/110 92/91/109 
f 55/106/102 93/107/110 102/108/108 
f 102/108/108 101/109/103 55/106/102 
f 101/109/103 102/108/108 63/110/107 
f 63/110/107 35/111/105 101/109/103 
f 35/111/35 63/110/63 65/112/65 
f 65/112/65 23/113/23 35/111/35 
f 24/114/24 23/113/23 65/112/65 
f 65/112/65 59/115/59 24/114/24 
# 0 polygons - 200 triangles

