# 3ds Max Wavefront OBJ Exporter v0.99 - (c)2007 guruware
# File Created: 13.06.2021 16:39:17

mtllib grip4.mtl

#
# object grip4
#

v  1.0289 -3.9722 17.2140
v  -1.0462 -3.9722 17.2140
v  -1.0376 -4.5951 16.2111
v  0.9003 2.6270 0.5416
v  -0.9003 2.6270 0.5416
v  -0.7319 3.1597 0.1975
v  0.7319 3.1597 0.1975
v  -0.9500 5.3506 3.7759
v  0.9500 5.3506 3.7759
v  0.8230 5.5279 3.3390
v  -0.8230 5.5279 3.3390
v  -1.4949 -3.1112 16.0533
v  1.5214 -3.1122 16.0513
v  0.6733 -1.8246 14.4118
v  1.0376 -4.0390 14.3176
v  1.0376 -4.5951 16.2111
v  0.5710 -7.1263 15.0470
v  1.4607 0.4950 8.4789
v  1.0300 1.6867 9.9787
v  0.7316 0.6126 11.7723
v  1.0376 -1.8504 11.4655
v  0.5188 -0.6474 12.7333
v  -0.5188 -0.6474 12.7333
v  -0.6810 -1.8245 14.4119
v  -1.0376 -4.0390 14.3176
v  -1.0376 -1.8504 11.4655
v  -0.7316 0.6126 11.7723
v  -1.0300 1.6867 9.9787
v  -1.4607 0.4950 8.4789
v  -1.0376 3.6268 6.2710
v  -1.0376 1.1805 7.8529
v  -0.5188 3.4320 7.0295
v  -0.5188 0.9637 7.5117
v  -0.7303 -0.3806 8.2755
v  -0.5188 -2.9593 11.5915
v  -0.5188 -5.1000 13.6189
v  -0.2855 -7.1213 14.3483
v  -0.5710 -7.1263 15.0470
v  0.2855 -7.1213 14.3483
v  0.5188 -5.1000 13.6189
v  0.5188 -2.9593 11.5915
v  0.7303 -0.3806 8.2755
v  0.5188 0.9637 7.5117
v  -0.5188 2.8425 6.0141
v  0.5188 2.8425 6.0141
v  -0.6948 3.0510 5.3368
v  0.6948 3.0510 5.3368
v  -1.0949 2.2413 2.9590
v  1.0949 2.2413 2.9590
v  -0.9910 2.2409 1.7113
v  -1.4603 3.5132 1.2709
v  0.9910 2.2409 1.7113
v  -1.6032 3.1314 1.8598
v  -1.4784 4.9904 3.2908
v  -1.5961 4.6548 3.5876
v  -1.0207 5.0559 4.1174
v  1.0207 5.0559 4.1174
v  1.4785 4.9904 3.2908
v  1.5961 4.6548 3.5876
v  -1.3895 3.7882 5.2983
v  -1.7797 3.0133 3.1148
v  -1.7720 4.1739 4.0707
v  -0.8981 4.6091 4.4267
v  0.8981 4.6091 4.4267
v  1.7720 4.1739 4.0707
v  0.6948 4.4361 4.8927
v  -0.6948 4.4361 4.8927
v  1.6032 3.1314 1.8598
v  1.7797 3.0133 3.1148
v  1.3895 3.7882 5.2983
v  0.5188 4.4049 6.7202
v  -0.5188 4.4049 6.7202
v  1.0376 3.6268 6.2710
v  0.5188 3.4320 7.0295
v  -0.5188 1.8381 8.9370
v  0.5188 1.8381 8.9370
v  1.0376 1.1805 7.8529
v  1.4603 3.5132 1.2709
v  1.2154 5.2549 2.9708
v  -1.2154 5.2549 2.9708
v  1.2146 3.8590 1.0619
v  -1.2146 3.8590 1.0619
v  0.2445 -1.1278 7.8256
v  0.2445 -1.2690 7.4752
v  0.4767 -0.3392 6.8856
v  0.4767 -0.1280 7.4904
v  0.5515 1.3886 6.3652
v  0.3180 0.5689 5.6847
v  0.2473 1.3996 4.9313
v  0.3895 1.4327 3.5124
v  0.3895 1.8351 4.3177
v  0.5626 2.8021 3.9152
v  0.5626 2.4806 2.8994
v  -0.5836 2.8021 3.9152
v  -0.4105 1.8351 4.3177
v  -0.4105 1.4327 3.5124
v  -0.5836 2.4806 2.8994
v  -0.3390 0.5689 5.6847
v  -0.4977 -0.3392 6.8856
v  -0.2655 -1.2690 7.4752
v  -0.4977 -0.1280 7.4904
v  -0.2655 -1.1278 7.8256
v  -0.2683 1.3996 4.9313
v  -0.5725 1.3886 6.3652
# 104 vertices

vn 0.3231 -0.8027 0.5013
vn -0.5835 -0.6922 0.4248
vn -0.4668 -0.7295 0.4999
vn 0.0000 -0.5427 -0.8400
vn -0.0000 0.9266 0.3759
vn -0.8246 0.4570 0.3335
vn -0.0000 0.8031 0.5958
vn 0.0005 0.8036 0.5951
vn 0.8301 0.4486 0.3311
vn 0.6246 0.6848 0.3755
vn 0.9748 -0.1171 -0.1900
vn 0.6311 -0.6030 0.4879
vn 0.6669 -0.6975 0.2624
vn 0.9476 -0.0344 -0.3175
vn 0.6292 0.7389 0.2413
vn 0.5830 0.5626 0.5862
vn 0.9856 -0.1627 -0.0472
vn 0.6120 0.5435 0.5745
vn -0.6120 0.5438 0.5743
vn -0.6281 0.6823 0.3741
vn -0.9784 -0.1168 -0.1706
vn -0.9889 -0.1470 -0.0231
vn -0.5815 0.5626 0.5877
vn -0.6277 0.7404 0.2403
vn -0.9452 -0.0262 -0.3253
vn -0.9658 0.0881 0.2439
vn -0.9314 0.0165 -0.3637
vn -0.4676 0.4712 0.7479
vn -0.3289 -0.4963 -0.8034
vn -0.3899 -0.6133 -0.6869
vn -0.4570 -0.6584 -0.5981
vn -0.5939 -0.4590 -0.6607
vn -0.4110 -0.7224 -0.5561
vn -0.6020 -0.7317 0.3198
vn 0.5377 -0.6478 -0.5397
vn 0.5474 -0.4600 -0.6992
vn 0.4936 -0.6613 -0.5649
vn 0.3995 -0.6203 -0.6750
vn 0.3226 -0.5106 -0.7970
vn -0.4747 -0.7587 -0.4461
vn 0.4677 -0.7384 -0.4858
vn -0.4331 -0.8937 0.1166
vn 0.4116 -0.8997 0.1452
vn -0.4273 -0.8951 0.1272
vn 0.4011 -0.9039 0.1486
vn -0.4676 -0.8624 -0.1940
vn -0.9446 -0.1949 -0.2640
vn -0.4437 -0.8402 -0.3118
vn 0.4557 -0.8703 -0.1868
vn 0.4949 -0.7949 -0.3510
vn -0.9390 -0.2427 -0.2438
vn -0.9055 0.4097 0.1107
vn -0.9097 0.4051 0.0914
vn -0.3881 0.7347 0.5564
vn -0.3888 0.6436 0.6593
vn 0.3857 0.7365 0.5557
vn 0.4412 0.5839 0.6815
vn 0.9028 0.4160 0.1092
vn 0.8977 0.4108 0.1591
vn -0.9045 0.1205 0.4091
vn -0.9336 -0.3555 0.0441
vn -0.9294 0.2760 0.2451
vn -0.3102 0.6780 0.6664
vn 0.3563 0.6937 0.6259
vn 0.9134 0.3181 0.2540
vn 0.2883 0.9205 0.2637
vn -0.2995 0.9078 0.2936
vn 0.9557 -0.2087 -0.2076
vn 0.9307 -0.3597 0.0658
vn 0.9377 0.0575 0.3425
vn 0.3915 0.7223 0.5701
vn -0.4201 0.7235 0.5478
vn 0.9589 -0.0167 0.2831
vn 0.4676 0.4712 0.7479
vn -0.4850 0.8467 0.2188
vn 0.4850 0.8467 0.2188
vn 0.9386 0.0136 -0.3447
vn 0.9536 -0.0841 -0.2891
vn -0.0000 0.8033 -0.5955
vn -0.0000 0.8033 -0.5956
vn -0.0000 0.8058 -0.5922
vn -0.0000 0.7948 -0.6069
vn -0.0000 0.7775 -0.6289
vn 0.0000 0.7775 -0.6289
vn 0.6466 -0.3706 0.6667
vn 0.4978 -0.8439 -0.1998
vn 0.6756 -0.5415 -0.5003
vn 0.7081 0.2464 0.6617
vn 0.7592 0.6064 0.2366
vn 0.6512 -0.6203 -0.4372
vn 0.6839 0.6917 0.2319
vn 0.6907 -0.5935 -0.4131
vn 0.7063 0.3089 0.6370
vn 0.6999 0.1721 0.6932
vn 0.6887 -0.4475 -0.5704
vn -0.7546 0.1412 0.6408
vn -0.7748 0.2505 0.5805
vn -0.6126 -0.6382 -0.4662
vn -0.6690 -0.4545 -0.5881
vn -0.6641 -0.6096 -0.4328
vn -0.7479 -0.4946 -0.4427
vn -0.4204 -0.9016 -0.1023
vn -0.6939 0.2558 0.6731
vn -0.5074 -0.3873 0.7698
vn -0.7115 0.6660 0.2241
vn -0.6927 0.6658 0.2772
vn -0.7245 0.1030 -0.6815
vn 0.7804 0.1956 -0.5939
vn -0.8816 -0.0259 -0.4713
vn 0.8372 -0.0845 -0.5403
vn -0.8378 0.4371 -0.3272
vn 0.8371 0.4414 -0.3232
vn -0.8535 0.4204 -0.3078
vn 0.8533 0.4173 -0.3128
vn -0.6346 0.7627 0.1249
vn 0.6409 0.7580 0.1212
vn -0.6351 0.7646 0.1100
vn 0.6302 0.7676 0.1165
# 118 vertex normals

vt 0.7480 0.5522 0.5522
vt 0.7222 0.5493 0.5493
vt 0.7124 0.5435 0.5435
vt 0.6528 0.4009 0.4009
vt 0.6680 0.3926 0.3926
vt 0.6660 0.3872 0.3872
vt 0.6494 0.3965 0.3965
vt 0.7144 0.3936 0.3936
vt 0.7373 0.3945 0.3945
vt 0.7373 0.3882 0.3882
vt 0.7148 0.3882 0.3882
vt 0.7222 0.5391 0.5391
vt 0.7480 0.5417 0.5417
vt 0.7412 0.5217 0.5217
vt 0.7583 0.5259 0.5259
vt 0.7578 0.5464 0.5464
vt 0.7778 0.5498 0.5498
vt 0.7412 0.4727 0.4727
vt 0.7349 0.4766 0.4766
vt 0.7324 0.4951 0.4951
vt 0.7485 0.4985 0.4985
vt 0.7295 0.5046 0.5046
vt 0.7188 0.5046 0.5046
vt 0.7231 0.5217 0.5217
vt 0.7070 0.5261 0.5261
vt 0.7041 0.4990 0.4990
vt 0.7207 0.4951 0.4951
vt 0.7197 0.4761 0.4761
vt 0.7051 0.4727 0.4727
vt 0.7075 0.4380 0.4380
vt 0.7065 0.4644 0.4644
vt 0.7134 0.4434 0.4434
vt 0.7021 0.4634 0.4634
vt 0.6973 0.4746 0.4746
vt 0.6958 0.5024 0.5024
vt 0.6948 0.5264 0.5264
vt 0.6870 0.5427 0.5427
vt 0.6929 0.5471 0.5471
vt 0.6812 0.5454 0.5454
vt 0.6875 0.5264 0.5264
vt 0.6885 0.5024 0.5024
vt 0.6855 0.5537 0.5537
vt 0.7217 0.5596 0.5596
vt 0.6865 0.4746 0.4746
vt 0.6934 0.4634 0.4634
vt 0.6987 0.4399 0.4399
vt 0.6914 0.4424 0.4424
vt 0.6968 0.4297 0.4297
vt 0.6875 0.4341 0.4341
vt 0.6812 0.4131 0.4131
vt 0.6675 0.4209 0.4209
vt 0.6743 0.4053 0.4053
vt 0.6831 0.3926 0.3926
vt 0.6587 0.4150 0.4150
vt 0.6851 0.4014 0.4014
vt 0.7051 0.3936 0.3936
vt 0.7041 0.4009 0.4009
vt 0.7134 0.4014 0.4014
vt 0.7368 0.4028 0.4028
vt 0.7471 0.3950 0.3950
vt 0.7461 0.4028 0.4028
vt 0.7041 0.4268 0.4268
vt 0.6895 0.4111 0.4111
vt 0.7046 0.4106 0.4106
vt 0.7129 0.4116 0.4116
vt 0.7329 0.4116 0.4116
vt 0.7441 0.4106 0.4106
vt 0.7295 0.4214 0.4214
vt 0.7139 0.4214 0.4214
vt 0.7627 0.4033 0.4033
vt 0.7568 0.4121 0.4121
vt 0.7393 0.4268 0.4268
vt 0.7280 0.4346 0.4346
vt 0.7178 0.4346 0.4346
vt 0.7363 0.4380 0.4380
vt 0.7251 0.4434 0.4434
vt 0.7197 0.4683 0.4683
vt 0.7295 0.4683 0.4683
vt 0.7397 0.4644 0.4644
vt 0.7456 0.4399 0.4399
vt 0.7441 0.4634 0.4634
vt 0.7568 0.4746 0.4746
vt 0.7578 0.5020 0.5020
vt 0.7700 0.5261 0.5261
vt 0.7837 0.5459 0.5459
vt 0.7656 0.3940 0.3940
vt 0.7861 0.3926 0.3926
vt 0.7793 0.4028 0.4028
vt 0.7700 0.4126 0.4126
vt 0.7520 0.4282 0.4282
vt 0.9653 0.5107 0.5107
vt 0.9888 0.5107 0.5107
vt 0.9946 0.5173 0.5173
vt 0.9595 0.5173 0.5173
vt 0.9946 0.5513 0.5513
vt 0.9595 0.5513 0.5513
vt 0.9873 0.5671 0.5671
vt 0.9663 0.5671 0.5671
vt 0.5640 0.6362 0.6362
vt 0.5669 0.6360 0.6360
vt 0.5679 0.6272 0.6272
vt 0.5630 0.6277 0.6277
vt 0.5640 0.6130 0.6130
vt 0.5718 0.6167 0.6167
vt 0.5713 0.6050 0.6050
vt 0.5801 0.6001 0.6001
vt 0.5737 0.5999 0.5999
vt 0.5767 0.5881 0.5881
vt 0.5840 0.5872 0.5872
vt 0.5684 0.5986 0.5986
vt 0.5708 0.5874 0.5874
vt 0.5840 0.5869 0.5869
vt 0.5898 0.5876 0.5876
vt 0.5850 0.6013 0.6013
vt 0.5762 0.6179 0.6179
vt 0.5742 0.6284 0.6284
vt 0.5703 0.6375 0.6375
vt 0.5640 0.6384 0.6384
vt 0.5605 0.6372 0.6372
vt 0.5605 0.6350 0.6350
vt 0.5566 0.6267 0.6267
vt 0.5581 0.6123 0.6123
vt 0.5679 0.6038 0.6038
vt 0.6831 0.3877 0.3877
vt 0.7866 0.3862 0.3862
vt 0.7656 0.3887 0.3887
vt 0.7046 0.3882 0.3882
vt 0.7466 0.3887 0.3887
# 128 texture coords

o grip4
g grip4
usemtl mat_alien_rifle_INST
s 1
f 1/1/1 2/2/2 3/3/3 
f 4/4/4 5/5/4 6/6/4 
f 6/6/4 7/7/4 4/4/4 
f 8/8/5 9/9/5 10/10/5 
f 10/10/5 11/11/5 8/8/5 
f 12/12/6 2/2/7 1/1/8 
f 1/1/8 13/13/9 12/12/6 
f 12/12/6 13/13/9 14/14/10 
f 15/15/11 14/14/10 13/13/9 
f 15/15/11 13/13/9 16/16/12 
f 17/17/13 15/15/11 16/16/12 
f 16/16/12 13/13/9 1/1/1 
f 18/18/14 19/19/15 20/20/16 
f 20/20/16 21/21/17 18/18/14 
f 21/21/17 20/20/16 22/22/18 
f 21/21/17 22/22/18 15/15/11 
f 15/15/11 22/22/18 14/14/10 
f 14/14/10 22/22/18 23/23/19 
f 23/23/19 24/24/20 14/14/10 
f 23/23/19 25/25/21 24/24/20 
f 25/25/21 12/12/6 24/24/20 
f 14/14/10 24/24/20 12/12/6 
f 23/23/19 22/22/18 20/20/16 
f 26/26/22 25/25/21 23/23/19 
f 27/27/23 26/26/22 23/23/19 
f 20/20/16 27/27/23 23/23/19 
f 27/27/23 20/20/16 19/19/15 
f 19/19/15 28/28/24 27/27/23 
f 26/26/22 27/27/23 28/28/24 
f 28/28/24 29/29/25 26/26/22 
f 30/30/26 31/31/27 32/32/28 
f 33/33/29 31/31/27 30/30/26 
f 31/31/27 33/33/29 34/34/30 
f 34/34/30 29/29/25 31/31/27 
f 29/29/25 34/34/30 35/35/31 
f 35/35/31 26/26/22 29/29/25 
f 26/26/22 35/35/31 36/36/32 
f 36/36/32 25/25/21 26/26/22 
f 25/25/21 36/36/32 37/37/33 
f 12/12/6 3/3/3 2/2/2 
f 12/12/6 25/25/21 3/3/3 
f 25/25/21 38/38/34 3/3/3 
f 37/37/33 38/38/34 25/25/21 
f 38/38/34 37/37/33 39/39/35 
f 39/39/35 37/37/33 36/36/32 
f 36/36/32 40/40/36 39/39/35 
f 40/40/36 36/36/32 35/35/31 
f 35/35/31 41/41/37 40/40/36 
f 41/41/37 35/35/31 34/34/30 
f 39/39/35 17/42/13 38/38/34 
f 3/3/3 38/38/34 17/42/13 
f 17/42/13 16/43/12 3/3/3 
f 3/3/3 16/43/12 1/1/1 
f 34/34/30 42/44/38 41/41/37 
f 42/44/38 34/34/30 33/33/29 
f 33/33/29 43/45/39 42/44/38 
f 43/45/39 33/33/29 44/46/40 
f 44/46/40 45/47/41 43/45/39 
f 45/47/41 44/46/40 46/48/42 
f 46/48/42 47/49/43 45/47/41 
f 47/49/43 46/48/42 48/50/44 
f 48/50/44 49/51/45 47/49/43 
f 49/51/45 48/50/44 50/52/46 
f 51/53/47 5/5/48 50/52/46 
f 52/54/49 50/52/46 5/5/48 
f 50/52/46 52/54/49 49/51/45 
f 5/5/48 4/4/50 52/54/49 
f 53/55/51 50/52/46 48/50/44 
f 50/52/46 53/55/51 51/53/47 
f 54/56/52 51/53/47 53/55/51 
f 53/55/51 55/57/53 54/56/52 
f 8/8/54 54/56/52 55/57/53 
f 55/57/53 56/58/55 8/8/54 
f 9/9/56 8/8/54 56/58/55 
f 56/58/55 57/59/57 9/9/56 
f 58/60/58 9/9/56 57/59/57 
f 57/59/57 59/61/59 58/60/58 
f 60/62/60 46/48/42 44/46/40 
f 46/48/42 60/62/60 61/63/61 
f 61/63/61 48/50/44 46/48/42 
f 48/50/44 61/63/61 53/55/51 
f 55/57/53 53/55/51 61/63/61 
f 61/63/61 62/64/62 55/57/53 
f 56/58/55 55/57/53 62/64/62 
f 62/64/62 63/65/63 56/58/55 
f 57/59/57 56/58/55 63/65/63 
f 63/65/63 64/66/64 57/59/57 
f 65/67/65 64/66/64 66/68/66 
f 67/69/67 66/68/66 64/66/64 
f 64/66/64 63/65/63 67/69/67 
f 67/69/67 63/65/63 62/64/62 
f 62/64/62 60/62/60 67/69/67 
f 60/62/60 62/64/62 61/63/61 
f 59/61/59 57/59/57 64/66/64 
f 64/66/64 65/67/65 59/61/59 
f 68/70/68 59/61/59 65/67/65 
f 65/67/65 69/71/69 68/70/68 
f 65/67/65 70/72/70 69/71/69 
f 66/68/66 70/72/70 65/67/65 
f 70/72/70 66/68/66 71/73/71 
f 72/74/72 71/73/71 66/68/66 
f 71/73/71 72/74/72 32/32/28 
f 72/74/72 30/30/26 32/32/28 
f 66/68/66 67/69/67 72/74/72 
f 30/30/26 72/74/72 67/69/67 
f 67/69/67 60/62/60 30/30/26 
f 44/46/40 30/30/26 60/62/60 
f 30/30/26 44/46/40 33/33/29 
f 71/73/71 73/75/73 70/72/70 
f 73/75/73 71/73/71 74/76/74 
f 32/32/28 74/76/74 71/73/71 
f 74/76/74 32/32/28 75/77/75 
f 32/32/28 31/31/27 75/77/75 
f 75/77/75 31/31/27 29/29/25 
f 75/77/75 29/29/25 28/28/24 
f 76/78/76 75/77/75 28/28/24 
f 28/28/24 19/19/15 76/78/76 
f 76/78/76 19/19/15 18/18/14 
f 75/77/75 76/78/76 74/76/74 
f 73/75/73 74/76/74 77/79/77 
f 77/79/77 74/76/74 76/78/76 
f 77/79/77 76/78/76 18/18/14 
f 45/80/41 73/75/73 77/79/77 
f 77/79/77 43/81/39 45/80/41 
f 43/81/39 77/79/77 18/18/14 
f 18/18/14 42/82/38 43/81/39 
f 42/82/38 18/18/14 21/21/17 
f 21/21/17 41/83/37 42/82/38 
f 41/83/37 21/21/17 15/15/11 
f 15/15/11 40/84/36 41/83/37 
f 40/84/36 15/15/11 17/17/13 
f 17/17/13 39/85/35 40/84/36 
f 78/86/78 58/60/58 59/61/59 
f 59/61/59 68/70/68 78/86/78 
f 4/87/50 78/86/78 68/70/68 
f 68/70/68 52/88/49 4/87/50 
f 52/88/49 68/70/68 69/71/69 
f 69/71/69 49/89/45 52/88/49 
f 49/89/45 69/71/69 70/72/70 
f 70/72/70 47/90/43 49/89/45 
f 47/90/43 70/72/70 73/75/73 
f 73/75/73 45/80/41 47/90/43 
f 11/91/79 10/92/80 79/93/81 
f 79/93/81 80/94/81 11/91/79 
f 80/94/81 79/93/81 81/95/82 
f 81/95/82 82/96/82 80/94/81 
f 82/96/82 81/95/82 7/97/83 
f 7/97/83 6/98/84 82/96/82 
f 83/99/85 84/100/86 85/101/87 
f 85/101/87 86/102/88 83/99/85 
f 87/103/89 86/102/88 85/101/87 
f 88/104/90 87/103/89 85/101/87 
f 88/104/90 89/105/91 87/103/89 
f 90/106/92 89/105/91 88/104/90 
f 90/106/92 91/107/93 89/105/91 
f 92/108/94 91/107/93 90/106/92 
f 90/106/92 93/109/95 92/108/94 
f 91/110/93 92/111/94 94/108/96 
f 94/108/96 95/107/97 91/110/93 
f 96/106/98 95/107/97 94/108/96 
f 94/108/96 97/112/99 96/106/98 
f 96/106/98 97/112/99 93/113/95 
f 93/113/95 90/114/92 96/106/98 
f 96/106/98 90/114/92 88/115/90 
f 88/115/90 98/104/100 96/106/98 
f 98/104/100 88/115/90 85/116/87 
f 85/116/87 99/101/101 98/104/100 
f 99/101/101 85/116/87 84/117/86 
f 84/117/86 100/100/102 99/101/101 
f 101/102/103 99/101/101 100/100/102 
f 100/100/102 102/99/104 101/102/103 
f 95/107/97 96/106/98 103/105/105 
f 96/106/98 98/104/100 103/105/105 
f 103/105/105 98/104/100 104/103/106 
f 104/103/106 98/104/100 99/101/101 
f 104/103/106 99/101/101 101/102/103 
f 100/118/102 84/119/86 83/120/85 
f 83/120/85 102/99/104 100/118/102 
f 102/99/104 83/120/85 86/121/88 
f 86/121/88 101/102/103 102/99/104 
f 101/102/103 86/121/88 87/122/89 
f 87/122/89 104/103/106 101/102/103 
f 104/103/106 87/122/89 89/123/91 
f 89/123/91 103/105/105 104/103/106 
f 103/105/105 89/123/91 91/110/93 
f 91/110/93 95/107/97 103/105/105 
f 5/5/107 51/53/107 82/124/107 
f 7/125/108 81/126/108 78/86/108 
f 82/124/109 6/6/109 5/5/109 
f 78/86/110 4/87/110 7/125/110 
f 51/53/111 54/56/111 80/127/111 
f 81/126/112 79/128/112 58/60/112 
f 80/127/113 82/124/113 51/53/113 
f 58/60/114 78/86/114 81/126/114 
f 54/56/115 8/8/115 11/11/115 
f 79/128/116 10/10/116 9/9/116 
f 11/11/117 80/127/117 54/56/117 
f 9/9/118 58/60/118 79/128/118 
# 0 polygons - 198 triangles

