# 3ds Max Wavefront OBJ Exporter v0.99 - (c)2007 guruware
# File Created: 28.08.2021 11:31:16

mtllib acc3.mtl

#
# object acc3
#

v  0.8831 4.1751 -12.2722
v  -0.8831 4.1751 -12.2722
v  -0.8831 3.9244 -12.2722
v  0.8831 3.9245 -12.2722
v  -0.8831 3.0091 -15.7705
v  -0.8831 1.8008 -13.5510
v  -0.8831 1.8008 -12.2722
v  -0.8831 3.7912 -12.9121
v  -0.8831 4.1751 -19.2689
v  -0.8831 3.0091 -19.2689
v  -0.8831 3.5797 -12.9121
v  -0.8831 3.4464 -12.2722
v  -0.4468 2.7758 -11.5717
v  -0.4468 3.4464 -11.4603
v  -0.4468 2.7758 -5.4639
v  -0.4468 3.4464 -5.4639
v  0.8831 1.8008 -12.2722
v  0.8831 1.8008 -13.5510
v  0.8831 4.1751 -19.2689
v  0.8831 3.0091 -19.2689
v  0.4468 2.7758 -11.5717
v  0.5429 1.9657 -16.0221
v  0.5429 1.9657 -14.9974
v  -0.5429 1.9657 -14.9974
v  -0.5429 1.9657 -16.0221
v  0.5429 1.7957 -16.1921
v  -0.5429 1.7957 -16.1921
v  0.2794 -1.2727 -22.3266
v  0.0000 -1.3884 -22.3266
v  0.3952 -0.9933 -22.3266
v  -0.2794 -1.2727 -22.3266
v  -0.3952 -0.9933 -22.3266
v  0.0000 -0.5981 -22.3266
v  0.2794 -0.7138 -22.3266
v  -0.2794 -0.7138 -22.3266
v  -1.0619 -0.8505 -22.1416
v  -0.7509 -0.0996 -22.1416
v  0.0000 0.2115 -22.1416
v  -1.0176 -1.8681 -21.4611
v  -1.3296 -1.4012 -21.4611
v  -1.4392 -0.8505 -21.4611
v  -1.3296 -0.2997 -21.4611
v  -1.0176 0.1672 -21.4611
v  -0.5507 0.4792 -21.4611
v  0.0000 0.5887 -21.4611
v  0.5508 0.4792 -21.4611
v  0.7509 -0.0996 -22.1416
v  0.0000 -2.2896 -21.4611
v  -0.5507 -2.1801 -21.4611
v  0.0000 -1.9124 -22.1416
v  -0.7509 -1.6013 -22.1416
v  1.0619 -0.8505 -22.1416
v  0.7509 -1.6013 -22.1416
v  1.0177 0.1672 -21.4611
v  1.3296 -0.2997 -21.4611
v  1.4392 -0.8505 -21.4611
v  1.3296 -1.4012 -21.4611
v  1.0177 -1.8681 -21.4611
v  0.5508 -2.1801 -21.4611
v  0.5429 1.3812 -16.1921
v  -0.5429 1.3812 -16.1921
v  0.5429 1.3812 -14.8274
v  -0.5429 1.3812 -14.8274
v  0.5429 3.0373 -20.0250
v  -0.5429 3.0373 -20.0250
v  -0.5429 3.0373 -13.3638
v  0.5429 3.0373 -13.3638
v  -0.5429 0.4267 -13.3638
v  0.5429 0.4267 -13.3638
v  0.5429 0.4267 -21.1735
v  -0.5429 0.4267 -21.1735
v  -0.5429 1.3812 -20.0250
v  0.5429 1.3812 -20.0250
v  0.4468 3.4464 -5.4639
v  0.4468 3.4464 -11.4603
v  0.8831 3.4464 -12.2722
v  0.8831 3.5797 -12.9121
v  0.4468 2.7758 -5.4639
v  0.8831 3.7912 -12.9121
v  0.5429 1.7957 -14.8274
v  -0.5429 1.7957 -14.8274
v  -1.0619 -0.8505 -12.5987
v  -0.7509 -1.6013 -12.5987
v  -0.0000 -1.9124 -12.5987
v  1.0177 -1.8681 -13.4187
v  1.3296 -1.4012 -13.4187
v  1.0619 -0.8505 -12.5987
v  0.7509 -1.6013 -12.5987
v  0.5507 -2.1801 -13.4187
v  0.0000 -2.2896 -13.4187
v  -0.5507 -2.1801 -13.4187
v  -1.0176 -1.8681 -13.4187
v  -1.3296 -1.4012 -13.4187
v  -1.4392 -0.8505 -13.4187
v  -1.3296 -0.2997 -13.4187
v  -1.0176 0.1672 -13.4187
v  -0.7509 -0.0996 -12.5987
v  -0.0000 0.2115 -12.5987
v  0.7509 -0.0996 -12.5987
v  -0.5507 0.4792 -13.4187
v  -0.0000 0.5887 -13.4187
v  0.5507 0.4792 -13.4187
v  1.0176 0.1672 -13.4187
v  1.3296 -0.2997 -13.4187
v  1.4392 -0.8505 -13.4187
v  0.8831 3.0091 -15.7705
v  0.1551 1.2709 -12.8597
v  0.2306 1.8276 -12.7600
v  0.1425 1.7880 -12.4886
v  -0.0175 0.8589 -12.7651
v  0.0763 1.2950 -12.5761
v  -0.1425 1.8282 -12.4809
v  -0.0757 1.3341 -13.0199
v  -0.0000 1.8922 -12.9199
v  -0.2972 1.3972 -12.8353
v  -0.2306 1.8926 -12.7474
v  -0.2032 1.3730 -12.5610
v  -0.0572 0.9837 -12.5046
v  -0.1657 0.4902 -12.5295
v  -0.4907 -0.0335 -12.2838
v  -0.4389 -0.2351 -12.2160
v  -0.6029 -0.2901 -11.9681
v  -0.6877 0.0580 -12.0835
v  -0.4260 0.4733 -12.6563
v  -0.6120 0.6296 -12.5010
v  -0.2584 0.8933 -12.9217
v  -0.4471 1.0393 -12.7581
v  -0.3227 1.0952 -12.5003
v  -0.4667 0.7431 -12.2783
v  -0.5440 0.1817 -11.8663
v  -0.4482 -0.2233 -11.7297
v  -0.2306 -0.6362 -11.8552
v  -0.4323 -0.6093 -12.0676
v  -0.3415 -0.4118 -12.2707
v  -0.0262 -0.9247 -12.2340
v  0.1665 -0.7109 -12.2601
v  -0.2779 -0.8250 -12.3535
v  -0.2408 -0.5496 -12.4536
v  -0.0836 -0.3166 -12.1838
v  0.0338 -0.4791 -12.3958
v  0.2414 -0.7847 -12.7840
v  0.0972 -0.5415 -12.8389
v  0.0520 -1.0016 -12.7806
v  -0.2093 -0.8925 -12.8333
v  -0.1814 -0.6082 -12.8694
v  -0.1828 -0.1343 -12.1308
v  -0.2253 0.0336 -12.1904
v  0.3092 -0.6841 -22.1005
v  0.0000 -0.5560 -22.1005
v  -0.3092 -0.6841 -22.1005
v  -0.4372 -0.9933 -22.1005
v  -0.3092 -1.3024 -22.1005
v  0.0000 -1.4305 -22.1005
v  0.3092 -1.3024 -22.1005
v  0.4372 -0.9933 -22.1005
v  -0.1909 0.6570 -12.2960
v  -0.2583 0.1666 -11.9323
v  -0.1885 -0.1270 -11.8302
v  -0.0150 -0.4552 -11.9270
# 159 vertices

vn -0.0000 -0.0000 1.0000
vn -1.0000 -0.0000 -0.0000
vn -0.9856 -0.0000 0.1689
vn -0.9693 -0.0166 0.2454
vn -0.9406 -0.0210 0.3387
vn -0.9749 -0.0365 0.2196
vn 0.0000 -1.0000 0.0000
vn 0.0000 -0.9691 -0.2467
vn 0.0000 0.0000 -1.0000
vn -0.0000 1.0000 0.0000
vn -0.0000 1.0000 -0.0000
vn -0.0000 -0.5834 0.8122
vn -0.0000 -0.9239 0.3827
vn 0.0000 -1.0000 -0.0000
vn 0.0000 -0.9239 0.3827
vn -0.0000 -0.7071 0.7071
vn 0.0000 -0.7071 0.7071
vn -0.5602 -0.0144 -0.8282
vn -0.3863 0.4241 -0.8191
vn -0.0144 0.5602 -0.8282
vn -0.6943 -0.6666 -0.2712
vn -0.8721 -0.3853 -0.3017
vn -0.9681 0.0000 -0.2504
vn -0.8912 0.3691 -0.2636
vn -0.6666 0.6943 -0.2712
vn -0.3853 0.8721 -0.3017
vn -0.0000 0.9857 -0.1684
vn 0.3691 0.8912 -0.2636
vn 0.4241 0.3863 -0.8191
vn 0.0000 -0.9857 -0.1684
vn -0.3691 -0.8912 -0.2636
vn 0.0144 -0.5602 -0.8282
vn -0.4241 -0.3863 -0.8191
vn 0.5602 0.0144 -0.8282
vn 0.3863 -0.4241 -0.8191
vn 0.6943 0.6666 -0.2712
vn 0.8721 0.3853 -0.3017
vn 0.9681 0.0000 -0.2504
vn 0.8912 -0.3691 -0.2636
vn 0.6666 -0.6943 -0.2712
vn 0.3853 -0.8721 -0.3017
vn 0.0000 0.0000 1.0000
vn 0.0000 0.7691 -0.6392
vn -0.0000 0.7691 -0.6392
vn -0.0000 0.9926 0.1215
vn -0.0000 0.9790 0.2038
vn 0.0000 -0.0000 1.0000
vn 0.0000 -0.9790 0.2038
vn 0.0000 -0.3827 -0.9239
vn -0.0000 0.0000 -1.0000
vn 0.0000 -0.7071 -0.7071
vn -0.5952 0.0149 0.8035
vn -0.4113 -0.4460 0.7949
vn -0.0149 -0.5952 0.8035
vn 0.7005 -0.6740 0.2346
vn 0.8839 -0.3887 0.2603
vn 0.5952 -0.0149 0.8035
vn 0.4460 -0.4113 0.7949
vn 0.3729 -0.9003 0.2246
vn 0.0000 -0.9896 0.1441
vn -0.3887 -0.8838 0.2603
vn -0.6740 -0.7005 0.2346
vn -0.9003 -0.3729 0.2246
vn -0.9769 0.0000 0.2139
vn -0.8839 0.3887 0.2603
vn -0.7005 0.6740 0.2346
vn -0.4460 0.4113 0.7949
vn 0.0149 0.5952 0.8035
vn 0.4113 0.4460 0.7949
vn -0.3729 0.9003 0.2246
vn -0.0000 0.9896 0.1441
vn 0.3887 0.8839 0.2603
vn 0.6740 0.7005 0.2347
vn 0.9003 0.3729 0.2246
vn 0.9769 0.0000 0.2139
vn 1.0000 0.0000 0.0000
vn 0.9693 -0.0166 0.2454
vn 0.9856 0.0000 0.1689
vn 0.9406 -0.0210 0.3387
vn 0.9749 -0.0365 0.2196
vn 0.9059 -0.2511 -0.3409
vn 0.9421 -0.0690 -0.3281
vn 0.5847 -0.2178 0.7815
vn 0.8299 -0.4690 -0.3021
vn 0.6638 -0.1677 0.7289
vn -0.5866 -0.0644 0.8073
vn 0.0007 -0.0124 -0.9999
vn -0.0063 0.1763 -0.9843
vn -0.9037 0.2425 -0.3530
vn -0.9423 0.1768 -0.2843
vn -0.5306 0.1598 0.8324
vn 0.6901 0.0151 0.7236
vn 0.8383 -0.4427 -0.3181
vn -0.2902 -0.4592 -0.8396
vn -0.3710 -0.1715 -0.9126
vn -0.9300 -0.3534 0.1013
vn -0.9971 -0.0748 -0.0133
vn -0.2497 -0.5005 -0.8290
vn -0.9715 0.1218 -0.2033
vn -0.1534 -0.3252 -0.9331
vn -0.9149 0.2436 -0.3220
vn -0.4541 0.4951 0.7407
vn -0.4227 0.5867 0.6907
vn -0.4278 0.3968 0.8121
vn -0.2980 -0.0842 0.9508
vn -0.0326 -0.5877 0.8084
vn -0.8377 -0.5438 0.0503
vn -0.5332 0.2436 -0.8101
vn 0.1831 -0.8899 0.4177
vn 0.9374 -0.0989 0.3340
vn -0.8028 -0.5961 -0.0118
vn -0.7082 0.5471 -0.4462
vn 0.5667 0.6743 -0.4735
vn 0.4345 0.8737 -0.2190
vn 0.9854 -0.0774 0.1519
vn 0.3966 0.9152 -0.0721
vn 0.2124 -0.9630 0.1659
vn -0.8541 -0.5178 -0.0493
vn -0.7402 0.6430 -0.1964
vn 0.7603 0.2728 -0.5895
vn 0.8635 -0.1855 -0.4689
vn 0.9831 0.0000 -0.1829
vn 0.6952 0.6952 -0.1829
vn -0.0000 0.9831 -0.1829
vn -0.6952 0.6952 -0.1829
vn -0.9831 -0.0000 -0.1829
vn -0.6952 -0.6952 -0.1829
vn 0.0000 -0.9831 -0.1829
vn 0.6952 -0.6952 -0.1829
vn 0.7216 0.2489 0.6461
vn 0.6863 0.3746 0.6235
vn 0.6934 0.2867 0.6611
vn 0.8087 0.0804 0.5827
# 133 vertex normals

vt 0.3765 0.4346 0.4346
vt 0.3850 0.4346 0.4346
vt 0.3850 0.4355 0.4355
vt 0.3765 0.4355 0.4355
vt 0.3633 0.4126 0.4126
vt 0.3750 0.4316 0.4316
vt 0.3750 0.4424 0.4424
vt 0.3567 0.4370 0.4370
vt 0.3555 0.4424 0.4424
vt 0.3533 0.4424 0.4424
vt 0.3533 0.3833 0.3833
vt 0.3633 0.3833 0.3833
vt 0.3584 0.4370 0.4370
vt 0.3594 0.4424 0.4424
vt 0.3652 0.4482 0.4482
vt 0.3594 0.4492 0.4492
vt 0.3652 0.4995 0.4995
vt 0.3594 0.4995 0.4995
vt 0.3765 0.5134 0.5134
vt 0.3850 0.5134 0.5134
vt 0.3850 0.5217 0.5217
vt 0.3765 0.5217 0.5217
vt 0.3828 0.4683 0.4683
vt 0.3828 0.4741 0.4741
vt 0.3787 0.4741 0.4741
vt 0.3787 0.4683 0.4683
vt 0.3787 0.4468 0.4468
vt 0.3828 0.4468 0.4468
vt 0.3787 0.5071 0.5071
vt 0.3828 0.5071 0.5071
vt 0.3750 0.4653 0.4653
vt 0.3750 0.4634 0.4634
vt 0.3708 0.4634 0.4634
vt 0.3708 0.4653 0.4653
vt 0.3750 0.4663 0.4663
vt 0.3708 0.4663 0.4663
vt 0.4341 0.5398 0.5398
vt 0.4346 0.5383 0.5383
vt 0.4324 0.5405 0.5405
vt 0.4341 0.5366 0.5366
vt 0.4324 0.5359 0.5359
vt 0.4299 0.5383 0.5383
vt 0.4307 0.5398 0.5398
vt 0.4307 0.5366 0.5366
vt 0.4312 0.5300 0.5300
vt 0.4253 0.5325 0.5325
vt 0.4231 0.5383 0.5383
vt 0.4397 0.5295 0.5295
vt 0.4358 0.5269 0.5269
vt 0.4312 0.5259 0.5259
vt 0.4265 0.5269 0.5269
vt 0.4226 0.5295 0.5295
vt 0.4199 0.5334 0.5334
vt 0.4189 0.5383 0.5383
vt 0.4199 0.5430 0.5430
vt 0.4253 0.5439 0.5439
vt 0.4434 0.5383 0.5383
vt 0.4424 0.5334 0.5334
vt 0.4395 0.5383 0.5383
vt 0.4370 0.5325 0.5325
vt 0.4312 0.5464 0.5464
vt 0.4370 0.5439 0.5439
vt 0.4226 0.5469 0.5469
vt 0.4265 0.5496 0.5496
vt 0.4312 0.5505 0.5505
vt 0.4358 0.5496 0.5496
vt 0.4397 0.5469 0.5469
vt 0.4424 0.5430 0.5430
vt 0.3750 0.4683 0.4683
vt 0.3708 0.4683 0.4683
vt 0.3750 0.4712 0.4712
vt 0.3708 0.4712 0.4712
vt 0.3708 0.4609 0.4609
vt 0.3750 0.4609 0.4609
vt 0.3708 0.4839 0.4839
vt 0.3750 0.4839 0.4839
vt 0.3750 0.4780 0.4780
vt 0.3708 0.4780 0.4780
vt 0.3828 0.4751 0.4751
vt 0.3787 0.4751 0.4751
vt 0.3765 0.4429 0.4429
vt 0.3850 0.4429 0.4429
vt 0.3765 0.4399 0.4399
vt 0.3850 0.4399 0.4399
vt 0.3787 0.4780 0.4780
vt 0.3828 0.4780 0.4780
vt 0.3765 0.4385 0.4385
vt 0.3850 0.4385 0.4385
vt 0.3750 0.4624 0.4624
vt 0.3708 0.4624 0.4624
vt 0.4688 0.6321 0.6321
vt 0.4780 0.6357 0.6357
vt 0.4817 0.6450 0.6450
vt 0.4824 0.6587 0.6587
vt 0.4761 0.6628 0.6628
vt 0.4688 0.6580 0.6580
vt 0.4780 0.6543 0.6543
vt 0.4866 0.6523 0.6523
vt 0.4880 0.6450 0.6450
vt 0.4866 0.6377 0.6377
vt 0.4824 0.6313 0.6313
vt 0.4761 0.6272 0.6272
vt 0.4688 0.6257 0.6257
vt 0.4612 0.6272 0.6272
vt 0.4548 0.6313 0.6313
vt 0.4595 0.6357 0.6357
vt 0.4558 0.6450 0.6450
vt 0.4595 0.6543 0.6543
vt 0.4507 0.6377 0.6377
vt 0.4492 0.6450 0.6450
vt 0.4507 0.6523 0.6523
vt 0.4548 0.6587 0.6587
vt 0.4612 0.6628 0.6628
vt 0.4688 0.6643 0.6643
vt 0.1014 0.4160 0.4160
vt 0.0984 0.4160 0.4160
vt 0.0984 0.4180 0.4180
vt 0.1044 0.4160 0.4160
vt 0.1014 0.4180 0.4180
vt 0.0984 0.4204 0.4204
vt 0.0984 0.4263 0.4263
vt 0.1014 0.4263 0.4263
vt 0.1014 0.4243 0.4243
vt 0.0984 0.4243 0.4243
vt 0.1014 0.4224 0.4224
vt 0.0984 0.4224 0.4224
vt 0.1014 0.4204 0.4204
vt 0.1044 0.4180 0.4180
vt 0.1075 0.4160 0.4160
vt 0.1105 0.4243 0.4243
vt 0.1135 0.4243 0.4243
vt 0.1135 0.4224 0.4224
vt 0.1105 0.4224 0.4224
vt 0.1075 0.4243 0.4243
vt 0.1075 0.4224 0.4224
vt 0.1044 0.4243 0.4243
vt 0.1044 0.4224 0.4224
vt 0.1044 0.4204 0.4204
vt 0.1075 0.4204 0.4204
vt 0.1105 0.4204 0.4204
vt 0.1135 0.4204 0.4204
vt 0.1165 0.4204 0.4204
vt 0.1165 0.4224 0.4224
vt 0.1165 0.4243 0.4243
vt 0.1196 0.4204 0.4204
vt 0.1196 0.4180 0.4180
vt 0.1196 0.4224 0.4224
vt 0.1196 0.4243 0.4243
vt 0.1165 0.4263 0.4263
vt 0.1196 0.4263 0.4263
vt 0.1226 0.4180 0.4180
vt 0.1226 0.4160 0.4160
vt 0.1226 0.4204 0.4204
vt 0.1226 0.4224 0.4224
vt 0.1226 0.4243 0.4243
vt 0.1226 0.4263 0.4263
vt 0.1135 0.4263 0.4263
vt 0.1105 0.4263 0.4263
vt 0.1075 0.4263 0.4263
vt 0.1044 0.4263 0.4263
vt 0.3787 0.4907 0.4907
vt 0.3828 0.4907 0.4907
vt 0.3828 0.5010 0.5010
vt 0.3787 0.5010 0.5010
vt 0.3850 0.4331 0.4331
vt 0.3770 0.4209 0.4209
vt 0.3770 0.4092 0.4092
vt 0.3850 0.3672 0.3672
vt 0.3770 0.3770 0.3770
vt 0.3733 0.4092 0.4092
vt 0.3630 0.3770 0.3770
vt 0.3721 0.4106 0.4106
vt 0.3721 0.4194 0.4194
vt 0.3630 0.4331 0.4331
vt 0.3733 0.4209 0.4209
vt 0.4299 0.5405 0.5405
vt 0.4290 0.5383 0.5383
vt 0.4299 0.5359 0.5359
vt 0.4324 0.5349 0.5349
vt 0.4348 0.5359 0.5359
vt 0.4358 0.5383 0.5383
vt 0.4348 0.5405 0.5405
vt 0.4324 0.5415 0.5415
vt 0.1075 0.4180 0.4180
vt 0.1105 0.4160 0.4160
vt 0.1105 0.4180 0.4180
vt 0.1135 0.4160 0.4160
vt 0.1135 0.4180 0.4180
vt 0.1165 0.4160 0.4160
vt 0.1165 0.4180 0.4180
vt 0.1196 0.4160 0.4160
vt 0.4216 0.5884 0.5884
vt 0.4216 0.5923 0.5923
vt 0.3574 0.5923 0.5923
vt 0.3574 0.5884 0.5884
vt 0.4216 0.5845 0.5845
vt 0.3574 0.5845 0.5845
vt 0.4216 0.5803 0.5803
vt 0.3574 0.5803 0.5803
vt 0.4216 0.6084 0.6084
vt 0.4216 0.6125 0.6125
vt 0.3574 0.6125 0.6125
vt 0.3574 0.6084 0.6084
vt 0.4216 0.6045 0.6045
vt 0.3574 0.6045 0.6045
vt 0.4216 0.6003 0.6003
vt 0.3574 0.6003 0.6003
vt 0.4216 0.5964 0.5964
vt 0.3574 0.5964 0.5964
# 209 texture coords

o acc3
g acc3
usemtl mat_repeater_pistol_INST
s 1
f 1/1/1 2/2/1 3/3/1 
f 3/3/1 4/4/1 1/1/1 
f 5/5/2 6/6/2 7/7/3 
f 8/8/2 3/9/2 2/10/2 
f 2/10/2 9/11/2 8/8/2 
f 8/8/2 9/11/2 10/12/2 
f 11/13/2 8/8/2 10/12/2 
f 5/5/2 11/13/2 10/12/2 
f 12/14/4 11/13/2 5/5/2 
f 7/7/3 12/14/4 5/5/2 
f 12/14/4 7/7/3 13/15/5 
f 13/15/5 14/16/6 12/14/4 
f 14/16/6 13/15/5 15/17/2 
f 15/17/2 16/18/2 14/16/6 
f 17/19/7 7/20/7 6/21/8 
f 6/21/8 18/22/8 17/19/7 
f 19/23/9 20/24/9 10/25/9 
f 10/25/9 9/26/9 19/23/9 
f 19/23/10 9/26/10 2/27/10 
f 2/27/10 1/28/11 19/23/10 
f 17/19/12 21/29/12 13/30/12 
f 13/30/12 7/20/12 17/19/12 
f 22/31/13 23/32/7 24/33/14 
f 24/33/14 25/34/15 22/31/13 
f 26/35/16 22/31/13 25/34/15 
f 25/34/15 27/36/17 26/35/16 
f 28/37/9 29/38/9 30/39/9 
f 29/38/9 31/40/9 32/41/9 
f 29/38/9 32/41/9 30/39/9 
f 32/41/9 33/42/9 30/39/9 
f 33/42/9 34/43/9 30/39/9 
f 32/41/9 35/44/9 33/42/9 
f 36/45/18 37/46/19 38/47/20 
f 39/48/21 40/49/22 36/45/18 
f 40/49/22 41/50/23 36/45/18 
f 41/50/23 42/51/24 36/45/18 
f 37/46/19 36/45/18 42/51/24 
f 42/51/24 43/52/25 37/46/19 
f 38/47/20 37/46/19 43/52/25 
f 43/52/25 44/53/26 38/47/20 
f 44/53/26 45/54/27 38/47/20 
f 45/54/27 46/55/28 38/47/20 
f 47/56/29 38/47/20 46/55/28 
f 48/57/30 49/58/31 50/59/32 
f 51/60/33 50/59/32 49/58/31 
f 49/58/31 39/48/21 51/60/33 
f 36/45/18 51/60/33 39/48/21 
f 50/59/32 51/60/33 36/45/18 
f 50/59/32 36/45/18 38/47/20 
f 50/59/32 38/47/20 47/56/29 
f 50/59/32 47/56/29 52/61/34 
f 53/62/35 50/59/32 52/61/34 
f 46/55/28 54/63/36 47/56/29 
f 52/61/34 47/56/29 54/63/36 
f 54/63/36 55/64/37 52/61/34 
f 55/64/37 56/65/38 52/61/34 
f 56/65/38 57/66/39 52/61/34 
f 53/62/35 52/61/34 57/66/39 
f 57/66/39 58/67/40 53/62/35 
f 50/59/32 53/62/35 58/67/40 
f 58/67/40 59/68/41 50/59/32 
f 59/68/41 48/57/30 50/59/32 
f 60/69/42 26/35/42 27/36/42 
f 27/36/42 61/70/42 60/69/42 
f 62/71/10 60/69/11 61/70/10 
f 61/70/10 63/72/10 62/71/10 
f 64/73/10 65/74/10 66/71/10 
f 66/71/10 67/72/10 64/73/10 
f 67/72/1 66/71/1 68/74/1 
f 68/74/1 69/73/1 67/72/1 
f 70/75/43 71/76/43 72/77/43 
f 72/77/43 73/78/44 70/75/43 
f 73/78/9 72/77/9 65/71/9 
f 65/71/9 64/72/9 73/78/9 
f 16/79/10 74/80/11 75/27/10 
f 75/27/10 14/28/11 16/79/10 
f 14/28/11 75/27/10 76/81/45 
f 76/81/45 12/82/45 14/28/11 
f 12/82/45 76/81/45 77/83/46 
f 77/83/46 11/84/46 12/82/45 
f 21/29/14 78/85/14 15/86/14 
f 15/86/14 13/30/7 21/29/14 
f 74/80/1 16/79/1 15/86/1 
f 15/86/1 78/85/47 74/80/1 
f 77/83/1 79/87/1 8/88/1 
f 8/88/1 11/84/1 77/83/1 
f 4/4/48 3/3/48 8/88/48 
f 8/88/48 79/87/48 4/4/48 
f 80/89/49 62/74/50 63/73/9 
f 63/73/9 81/90/49 80/89/49 
f 23/32/51 80/89/49 81/90/49 
f 81/90/49 24/33/51 23/32/51 
f 82/91/52 83/92/53 84/93/54 
f 85/94/55 86/95/56 87/96/57 
f 87/96/57 88/97/58 85/94/55 
f 89/98/59 85/94/55 88/97/58 
f 88/97/58 84/93/54 89/98/59 
f 90/99/60 89/98/59 84/93/54 
f 91/100/61 90/99/60 84/93/54 
f 92/101/62 91/100/61 84/93/54 
f 84/93/54 83/92/53 92/101/62 
f 93/102/63 92/101/62 83/92/53 
f 83/92/53 82/91/52 93/102/63 
f 94/103/64 93/102/63 82/91/52 
f 95/104/65 94/103/64 82/91/52 
f 96/105/66 95/104/65 82/91/52 
f 82/91/52 97/106/67 96/105/66 
f 97/106/67 82/91/52 84/93/54 
f 98/107/68 97/106/67 84/93/54 
f 98/107/68 84/93/54 88/97/58 
f 98/107/68 88/97/58 87/96/57 
f 99/108/69 98/107/68 87/96/57 
f 100/109/70 96/105/66 97/106/67 
f 97/106/67 98/107/68 100/109/70 
f 101/110/71 100/109/70 98/107/68 
f 102/111/72 101/110/71 98/107/68 
f 103/112/73 102/111/72 98/107/68 
f 98/107/68 99/108/69 103/112/73 
f 104/113/74 103/112/73 99/108/69 
f 99/108/69 87/96/57 104/113/74 
f 105/114/75 104/113/74 87/96/57 
f 86/95/56 105/114/75 87/96/57 
f 1/10/76 4/9/76 79/8/76 
f 79/8/76 19/11/76 1/10/76 
f 19/11/76 79/8/76 77/13/76 
f 20/12/76 19/11/76 77/13/76 
f 106/5/76 20/12/76 77/13/76 
f 76/14/77 106/5/76 77/13/76 
f 17/7/78 18/6/76 106/5/76 
f 106/5/76 76/14/77 17/7/78 
f 21/15/79 17/7/78 76/14/77 
f 76/14/77 75/16/80 21/15/79 
f 78/17/76 21/15/79 75/16/80 
f 75/16/80 74/18/76 78/17/76 
f 107/115/81 108/116/82 109/117/83 
f 110/118/84 107/115/81 111/119/85 
f 109/117/83 111/119/85 107/115/81 
f 111/119/85 109/117/83 112/120/86 
f 108/121/82 107/122/81 113/123/87 
f 113/123/87 114/124/88 108/121/82 
f 114/124/88 113/123/87 115/125/89 
f 115/125/89 116/126/90 114/124/88 
f 116/126/90 115/125/89 117/127/91 
f 117/127/91 112/120/86 116/126/90 
f 112/120/86 117/127/91 111/119/85 
f 118/128/92 111/119/85 117/127/91 
f 111/119/85 118/128/92 110/118/84 
f 119/129/93 110/118/84 118/128/92 
f 120/130/94 121/131/95 122/132/96 
f 122/132/96 123/133/97 120/130/94 
f 124/134/98 120/130/94 123/133/97 
f 123/133/97 125/135/99 124/134/98 
f 126/136/100 124/134/98 125/135/99 
f 125/135/99 127/137/101 126/136/100 
f 113/123/87 126/136/100 127/137/101 
f 127/137/101 115/125/89 113/123/87 
f 115/125/89 127/137/101 128/138/102 
f 128/138/102 117/127/91 115/125/89 
f 129/139/103 128/138/102 127/137/101 
f 127/137/101 125/135/99 129/139/103 
f 130/140/104 129/139/103 125/135/99 
f 125/135/99 123/133/97 130/140/104 
f 131/141/105 130/140/104 123/133/97 
f 123/133/97 122/132/96 131/141/105 
f 132/142/106 131/141/105 122/132/96 
f 122/132/96 133/143/107 132/142/106 
f 133/143/107 122/132/96 121/131/95 
f 121/131/95 134/144/108 133/143/107 
f 132/142/106 135/145/109 136/146/110 
f 135/145/109 132/142/106 133/143/107 
f 133/143/107 137/147/111 135/145/109 
f 137/147/111 133/143/107 134/144/108 
f 134/144/108 138/148/112 137/147/111 
f 138/148/112 134/144/108 139/149/113 
f 139/149/113 140/150/114 138/148/112 
f 136/146/110 141/151/115 142/152/116 
f 141/151/115 136/146/110 135/145/109 
f 135/145/109 143/153/117 141/151/115 
f 143/153/117 135/145/109 137/147/111 
f 137/147/111 144/154/118 143/153/117 
f 144/154/118 137/147/111 138/148/112 
f 138/148/112 145/155/119 144/154/118 
f 145/155/119 138/148/112 140/150/114 
f 140/150/114 142/156/116 145/155/119 
f 146/157/120 139/149/113 134/144/108 
f 134/144/108 121/131/95 146/157/120 
f 147/158/121 146/157/120 121/131/95 
f 121/131/95 120/130/94 147/158/121 
f 119/159/93 147/158/121 120/130/94 
f 120/130/94 124/134/98 119/159/93 
f 110/160/84 119/159/93 124/134/98 
f 124/134/98 126/136/100 110/160/84 
f 107/122/81 110/160/84 126/136/100 
f 126/136/100 113/123/87 107/122/81 
f 5/161/8 10/25/14 20/24/14 
f 20/24/14 106/162/8 5/161/8 
f 5/161/8 106/162/8 18/163/8 
f 18/163/8 6/164/8 5/161/8 
f 68/165/2 63/166/2 61/167/2 
f 71/168/2 68/165/2 61/167/2 
f 71/168/2 61/167/2 72/169/2 
f 72/169/2 61/167/2 27/170/2 
f 65/171/2 72/169/2 27/170/2 
f 27/170/2 25/172/2 65/171/2 
f 65/171/2 25/172/2 24/173/2 
f 24/173/2 66/174/2 65/171/2 
f 66/174/2 24/173/2 81/175/2 
f 81/175/2 68/165/2 66/174/2 
f 68/165/2 81/175/2 63/166/2 
f 64/171/76 67/174/76 23/173/76 
f 80/175/76 23/173/76 67/174/76 
f 67/174/76 69/165/76 80/175/76 
f 69/165/76 62/166/76 80/175/76 
f 60/167/76 62/166/76 69/165/76 
f 60/167/76 69/165/76 70/168/76 
f 73/169/76 60/167/76 70/168/76 
f 73/169/76 26/170/76 60/167/76 
f 26/170/76 73/169/76 64/171/76 
f 64/171/76 22/172/76 26/170/76 
f 23/173/76 22/172/76 64/171/76 
f 30/39/122 34/43/123 148/176/123 
f 149/177/124 148/176/123 34/43/123 
f 34/43/123 33/42/124 149/177/124 
f 150/178/125 149/177/124 33/42/124 
f 33/42/124 35/44/125 150/178/125 
f 151/179/126 150/178/125 35/44/125 
f 35/44/125 32/41/126 151/179/126 
f 152/180/127 151/179/126 32/41/126 
f 32/41/126 31/40/127 152/180/127 
f 153/181/128 152/180/127 31/40/127 
f 31/40/127 29/38/128 153/181/128 
f 154/182/129 153/181/128 29/38/128 
f 29/38/128 28/37/129 154/182/129 
f 155/183/122 154/182/129 28/37/129 
f 28/37/129 30/39/122 155/183/122 
f 148/176/123 155/183/122 30/39/122 
f 118/128/92 156/184/130 119/129/93 
f 147/185/121 119/129/93 156/184/130 
f 156/184/130 157/186/131 147/185/121 
f 146/187/120 147/185/121 157/186/131 
f 157/186/131 158/188/132 146/187/120 
f 139/189/113 146/187/120 158/188/132 
f 158/188/132 159/190/133 139/189/113 
f 140/191/114 139/189/113 159/190/133 
f 159/190/133 136/146/110 140/191/114 
f 142/152/116 140/191/114 136/146/110 
f 117/127/91 128/138/102 118/128/92 
f 156/184/130 118/128/92 128/138/102 
f 128/138/102 129/139/103 156/184/130 
f 157/186/131 156/184/130 129/139/103 
f 129/139/103 130/140/104 157/186/131 
f 158/188/132 157/186/131 130/140/104 
f 130/140/104 131/141/105 158/188/132 
f 159/190/133 158/188/132 131/141/105 
f 131/141/105 132/142/106 159/190/133 
f 136/146/110 159/190/133 132/142/106 
f 103/192/73 104/193/74 55/194/37 
f 55/194/37 54/195/36 103/192/73 
f 102/196/72 103/192/73 54/195/36 
f 54/195/36 46/197/28 102/196/72 
f 101/198/71 102/196/72 46/197/28 
f 46/197/28 45/199/27 101/198/71 
f 89/200/59 90/201/60 48/202/30 
f 48/202/30 59/203/41 89/200/59 
f 85/204/55 89/200/59 59/203/41 
f 59/203/41 58/205/40 85/204/55 
f 86/206/56 85/204/55 58/205/40 
f 58/205/40 57/207/39 86/206/56 
f 105/208/75 86/206/56 57/207/39 
f 57/207/39 56/209/38 105/208/75 
f 104/193/74 105/208/75 56/209/38 
f 56/209/38 55/194/37 104/193/74 
f 92/204/62 93/206/63 40/207/22 
f 40/207/22 39/205/21 92/204/62 
f 91/200/61 92/204/62 39/205/21 
f 39/205/21 49/203/31 91/200/61 
f 90/201/60 91/200/61 49/203/31 
f 49/203/31 48/202/30 90/201/60 
f 100/196/70 101/198/71 45/199/27 
f 45/199/27 44/197/26 100/196/70 
f 96/192/66 100/196/70 44/197/26 
f 44/197/26 43/195/25 96/192/66 
f 95/193/65 96/192/66 43/195/25 
f 43/195/25 42/194/24 95/193/65 
f 94/208/64 95/193/65 42/194/24 
f 42/194/24 41/209/23 94/208/64 
f 93/206/63 94/208/64 41/209/23 
f 41/209/23 40/207/22 93/206/63 
# 0 polygons - 288 triangles

