# 3ds Max Wavefront OBJ Exporter v0.99 - (c)2007 guruware
# File Created: 28.08.2021 11:31:50

mtllib acc5.mtl

#
# object acc5
#

v  0.5900 4.2117 -19.8688
v  0.5900 3.1861 -19.5320
v  -0.5900 3.1861 -19.5320
v  -0.5900 4.2117 -19.8688
v  -0.6493 -2.8341 -18.7979
v  -0.6493 -2.8341 -6.3201
v  -1.2349 -2.5357 -6.3201
v  -0.0000 -2.9369 -18.7979
v  -0.0000 -2.9369 -6.3201
v  0.0000 -2.7435 -19.9776
v  -1.1213 -2.3792 -19.9776
v  -1.2349 -2.5357 -18.7979
v  -1.6998 -2.0709 -6.3201
v  -1.6998 -2.0709 -18.7979
v  -1.9982 -1.4852 -6.3201
v  -1.9982 -1.4852 -18.7979
v  -2.1010 -0.8359 -18.7979
v  -1.8143 -1.4254 -19.9776
v  -2.1010 -0.8359 -6.3201
v  -1.9982 -0.1867 -6.3201
v  -1.9982 -0.1867 -18.7979
v  -1.6998 0.3990 -6.3201
v  -1.6998 0.3990 -18.7979
v  -1.2349 0.8639 -6.3201
v  -1.2349 0.8639 -18.7979
v  -0.6493 1.1623 -6.3201
v  -0.6493 1.1623 -18.7979
v  -0.0000 1.2651 -6.3201
v  -0.0000 1.2651 -18.7979
v  0.0000 1.0717 -19.9776
v  -1.1213 0.7074 -19.9776
v  -1.8143 -0.2464 -19.9776
v  1.9982 -0.1867 -6.3201
v  1.6998 0.3990 -6.3201
v  1.2349 0.8639 -6.3201
v  0.6492 1.1623 -6.3201
v  0.8237 0.2979 -4.9730
v  -0.0000 0.5655 -4.9730
v  -0.8237 0.2979 -4.9730
v  -1.3328 -0.4029 -4.9730
v  -1.3328 -1.2690 -4.9730
v  -0.8237 -1.9697 -4.9730
v  -0.0000 -2.2373 -4.9730
v  0.8237 -1.9697 -4.9730
v  1.3328 -0.4029 -4.9730
v  0.6492 -2.8341 -6.3201
v  1.2349 -2.5357 -6.3201
v  1.3328 -1.2690 -4.9730
v  1.6998 -2.0709 -6.3201
v  1.9982 -1.4852 -6.3201
v  2.1010 -0.8359 -6.3201
v  -0.5900 -0.9345 -20.4531
v  0.5900 -0.9345 -20.4531
v  0.5900 -0.9345 -4.6797
v  -0.5900 -0.9345 -4.6797
v  -0.5900 4.2117 -4.6797
v  0.5900 4.2117 -4.6797
v  -0.5900 0.7505 -20.4531
v  0.5900 0.7505 -20.4531
v  0.5900 2.4355 -19.8688
v  -0.5900 2.4355 -19.8688
v  -0.5900 2.4355 -18.0412
v  0.5900 2.4355 -18.0412
v  -0.5900 3.1861 -18.5296
v  0.5900 3.1861 -18.5296
v  1.1213 -2.3792 -19.9776
v  0.0000 -2.1867 -20.7945
v  1.2847 -1.2533 -20.7945
v  1.8143 -1.4254 -19.9776
v  0.7940 -1.9287 -20.7945
v  -0.7940 -1.9287 -20.7945
v  -0.7940 0.2569 -20.7945
v  -1.2847 -0.4185 -20.7945
v  -1.2847 -1.2533 -20.7945
v  1.2847 -0.4185 -20.7945
v  1.8143 -0.2464 -19.9776
v  0.0000 0.5149 -20.7945
v  0.7940 0.2569 -20.7945
v  1.1213 0.7074 -19.9776
v  0.6492 1.1623 -18.7979
v  1.2349 0.8639 -18.7979
v  1.6998 0.3990 -18.7979
v  1.9982 -0.1867 -18.7979
v  2.1010 -0.8359 -18.7979
v  0.6492 -2.8341 -18.7979
v  1.2349 -2.5357 -18.7979
v  1.6998 -2.0709 -18.7979
v  1.9982 -1.4852 -18.7979
# 88 vertices

vn 0.0000 -0.3120 -0.9501
vn -0.3077 -0.9471 -0.0916
vn -0.2185 -0.6725 0.7071
vn -0.5636 -0.7758 0.2837
vn 0.0000 -0.9968 -0.0805
vn -0.0221 -0.9845 0.1740
vn 0.0000 -0.9395 -0.3426
vn -0.5390 -0.7419 -0.3988
vn -0.5859 -0.8064 -0.0805
vn -0.5721 -0.4156 0.7071
vn -0.8056 -0.5853 -0.0916
vn -0.9120 -0.2963 0.2837
vn -0.9480 -0.3080 -0.0805
vn -0.9958 -0.0000 -0.0916
vn -0.8721 -0.2834 -0.3988
vn -0.7071 0.0000 0.7071
vn -0.9120 0.2963 0.2837
vn -0.9480 0.3080 -0.0805
vn -0.5721 0.4156 0.7071
vn -0.8056 0.5853 -0.0916
vn -0.5636 0.7758 0.2837
vn -0.5859 0.8064 -0.0805
vn -0.2185 0.6725 0.7071
vn -0.3077 0.9471 -0.0916
vn 0.0000 0.9818 0.1898
vn 0.0000 0.9968 -0.0805
vn -0.0000 0.9395 -0.3426
vn -0.5390 0.7419 -0.3988
vn -0.8721 0.2834 -0.3988
vn 0.9078 0.3185 0.2729
vn 0.5721 0.4156 0.7071
vn 0.5636 0.7758 0.2837
vn 0.2185 0.6725 0.7071
vn 0.3450 0.4749 0.8096
vn -0.0000 0.5870 0.8096
vn -0.3450 0.4749 0.8096
vn -0.5582 0.1814 0.8096
vn -0.5583 -0.1814 0.8096
vn -0.3450 -0.4749 0.8096
vn -0.0033 -0.5814 0.8136
vn 0.3450 -0.4749 0.8096
vn 0.5582 0.1814 0.8096
vn 0.3092 -0.9150 0.2592
vn 0.5834 -0.7649 0.2729
vn 0.5519 -0.1828 0.8136
vn 0.5721 -0.4156 0.7071
vn 0.9077 -0.3296 0.2598
vn 0.9658 0.0113 0.2592
vn 0.0000 -1.0000 -0.0000
vn 0.0000 1.0000 0.0000
vn 0.0000 0.0000 1.0000
vn 0.0000 -0.0000 -1.0000
vn 0.0000 -0.5454 -0.8382
vn 1.0000 0.0000 -0.0000
vn 1.0000 -0.0000 0.0000
vn 1.0000 0.0000 0.0000
vn 1.0000 -0.0000 -0.0000
vn 0.5390 -0.7419 -0.3988
vn 0.0000 -0.5339 -0.8455
vn 0.5078 -0.1650 -0.8455
vn 0.8721 -0.2834 -0.3988
vn 0.3138 -0.4319 -0.8455
vn -0.3138 -0.4319 -0.8455
vn -0.3138 0.4319 -0.8455
vn -0.5078 0.1650 -0.8455
vn -0.5078 -0.1650 -0.8455
vn 0.5078 0.1650 -0.8455
vn 0.8721 0.2834 -0.3988
vn 0.0000 0.5339 -0.8455
vn 0.3138 0.4319 -0.8455
vn 0.5390 0.7419 -0.3988
vn 0.3077 0.9471 -0.0916
vn 0.5859 0.8064 -0.0805
vn 0.8056 0.5853 -0.0916
vn 0.9480 0.3080 -0.0805
vn 0.9958 0.0000 -0.0916
vn 0.3077 -0.9471 -0.0916
vn 0.5859 -0.8064 -0.0805
vn 0.8056 -0.5853 -0.0916
vn 0.9480 -0.3080 -0.0805
vn 0.0000 0.3276 -0.9448
vn -1.0000 -0.0000 -0.0000
vn -1.0000 0.0000 -0.0000
# 83 vertex normals

vt 0.0901 0.1919 0.1919
vt 0.0859 0.1919 0.1919
vt 0.0859 0.1992 0.1992
vt 0.0901 0.1992 0.1992
vt 0.0075 0.2866 0.2866
vt 0.0075 0.2324 0.2324
vt 0.0109 0.2324 0.2324
vt 0.0040 0.2866 0.2866
vt 0.0040 0.2324 0.2324
vt 0.0040 0.2915 0.2915
vt 0.0109 0.2915 0.2915
vt 0.0109 0.2866 0.2866
vt 0.0143 0.2324 0.2324
vt 0.0143 0.2866 0.2866
vt 0.0177 0.2324 0.2324
vt 0.0177 0.2866 0.2866
vt 0.0212 0.2866 0.2866
vt 0.0177 0.2915 0.2915
vt 0.0212 0.2324 0.2324
vt 0.0246 0.2324 0.2324
vt 0.0246 0.2866 0.2866
vt 0.0280 0.2324 0.2324
vt 0.0280 0.2866 0.2866
vt 0.0315 0.2324 0.2324
vt 0.0315 0.2866 0.2866
vt 0.0349 0.2324 0.2324
vt 0.0349 0.2866 0.2866
vt 0.0383 0.2324 0.2324
vt 0.0383 0.2866 0.2866
vt 0.0383 0.2915 0.2915
vt 0.0315 0.2915 0.2915
vt 0.0246 0.2915 0.2915
vt 0.3069 0.1343 0.1343
vt 0.3091 0.1387 0.1387
vt 0.3125 0.1421 0.1421
vt 0.3171 0.1440 0.1440
vt 0.3220 0.1450 0.1450
vt 0.3269 0.1440 0.1440
vt 0.3313 0.1421 0.1421
vt 0.3350 0.1387 0.1387
vt 0.3372 0.1343 0.1343
vt 0.3379 0.1289 0.1289
vt 0.3372 0.1240 0.1240
vt 0.3171 0.1357 0.1357
vt 0.3220 0.1372 0.1372
vt 0.3267 0.1357 0.1357
vt 0.3296 0.1318 0.1318
vt 0.3296 0.1265 0.1265
vt 0.3267 0.1226 0.1226
vt 0.3220 0.1211 0.1211
vt 0.3171 0.1226 0.1226
vt 0.3142 0.1318 0.1318
vt 0.3313 0.1162 0.1162
vt 0.3220 0.1133 0.1133
vt 0.3171 0.1138 0.1138
vt 0.3125 0.1162 0.1162
vt 0.3142 0.1265 0.1265
vt 0.3269 0.1138 0.1138
vt 0.3091 0.1196 0.1196
vt 0.3069 0.1240 0.1240
vt 0.3062 0.1289 0.1289
vt 0.3350 0.1196 0.1196
vt 0.0700 0.1992 0.1992
vt 0.0700 0.1919 0.1919
vt 0.1017 0.1919 0.1919
vt 0.1017 0.1992 0.1992
vt 0.3184 0.2837 0.2837
vt 0.3184 0.3013 0.3013
vt 0.3142 0.3013 0.3013
vt 0.3142 0.2837 0.2837
vt 0.0737 0.1992 0.1992
vt 0.0737 0.1919 0.1919
vt 0.0778 0.1919 0.1919
vt 0.0778 0.1992 0.1992
vt 0.0827 0.1992 0.1992
vt 0.0827 0.1919 0.1919
vt 0.0844 0.1992 0.1992
vt 0.0844 0.1919 0.1919
vt 0.2603 0.2896 0.2896
vt 0.2622 0.2954 0.2954
vt 0.2686 0.2954 0.2954
vt 0.2603 0.2837 0.2837
vt 0.2668 0.2979 0.2979
vt 0.2622 0.3013 0.3013
vt 0.2634 0.2979 0.2979
vt 0.3135 0.1177 0.1177
vt 0.3220 0.1147 0.1147
vt 0.3220 0.1206 0.1206
vt 0.3137 0.1265 0.1265
vt 0.3081 0.1245 0.1245
vt 0.3169 0.1221 0.1221
vt 0.3271 0.1221 0.1221
vt 0.3306 0.1177 0.1177
vt 0.3357 0.1245 0.1245
vt 0.3271 0.1362 0.1362
vt 0.3301 0.1318 0.1318
vt 0.3357 0.1338 0.1338
vt 0.3301 0.1265 0.1265
vt 0.3137 0.1318 0.1318
vt 0.3081 0.1338 0.1338
vt 0.3220 0.1377 0.1377
vt 0.3169 0.1362 0.1362
vt 0.3135 0.1406 0.1406
vt 0.3220 0.1436 0.1436
vt 0.3306 0.1406 0.1406
# 105 texture coords

o acc5
g acc5
usemtl mat_repeater_pistol_INST
s 1
f 1/1/1 2/2/1 3/3/1 
f 3/3/1 4/4/1 1/1/1 
f 5/5/2 6/6/3 7/7/4 
f 8/8/5 9/9/6 6/6/3 
f 6/6/3 5/5/2 8/8/5 
f 5/5/2 10/10/7 8/8/5 
f 5/5/2 11/11/8 10/10/7 
f 5/5/2 12/12/9 11/11/8 
f 7/7/4 12/12/9 5/5/2 
f 12/12/9 7/7/4 13/13/10 
f 13/13/10 14/14/11 12/12/9 
f 14/14/11 13/13/10 15/15/12 
f 15/15/12 16/16/13 14/14/11 
f 17/17/14 18/18/15 16/16/13 
f 14/14/11 16/16/13 18/18/15 
f 14/14/11 18/18/15 11/11/8 
f 14/14/11 11/11/8 12/12/9 
f 16/16/13 15/15/12 19/19/16 
f 19/19/16 17/17/14 16/16/13 
f 17/17/14 19/19/16 20/20/17 
f 20/20/17 21/21/18 17/17/14 
f 21/21/18 20/20/17 22/22/19 
f 22/22/19 23/23/20 21/21/18 
f 23/23/20 22/22/19 24/24/21 
f 24/24/21 25/25/22 23/23/20 
f 25/25/22 24/24/21 26/26/23 
f 26/26/23 27/27/24 25/25/22 
f 27/27/24 26/26/23 28/28/25 
f 28/28/25 29/29/26 27/27/24 
f 27/27/24 29/29/26 30/30/27 
f 27/27/24 30/30/27 31/31/28 
f 27/27/24 31/31/28 25/25/22 
f 23/23/20 25/25/22 31/31/28 
f 23/23/20 31/31/28 32/32/29 
f 23/23/20 32/32/29 21/21/18 
f 17/17/14 21/21/18 32/32/29 
f 17/17/14 32/32/29 18/18/15 
f 33/33/30 34/34/31 35/35/32 
f 35/35/32 36/36/33 28/37/25 
f 28/37/25 26/38/23 24/39/21 
f 24/39/21 22/40/19 20/41/17 
f 20/41/17 19/42/16 15/43/12 
f 37/44/34 33/33/30 35/35/32 
f 38/45/35 37/44/34 35/35/32 
f 38/45/35 35/35/32 28/37/25 
f 39/46/36 38/45/35 28/37/25 
f 39/46/36 28/37/25 24/39/21 
f 40/47/37 39/46/36 24/39/21 
f 40/47/37 24/39/21 20/41/17 
f 41/48/38 40/47/37 20/41/17 
f 41/48/38 20/41/17 15/43/12 
f 42/49/39 41/48/38 15/43/12 
f 40/47/37 41/48/38 42/49/39 
f 38/45/35 40/47/37 42/49/39 
f 38/45/35 39/46/36 40/47/37 
f 42/49/39 43/50/40 44/51/41 
f 38/45/35 42/49/39 44/51/41 
f 38/45/35 44/51/41 45/52/42 
f 38/45/35 45/52/42 37/44/34 
f 42/49/39 15/43/12 7/53/4 
f 43/50/40 42/49/39 7/53/4 
f 43/50/40 7/53/4 9/54/6 
f 43/50/40 9/54/6 46/55/43 
f 43/50/40 46/55/43 47/56/44 
f 44/51/41 43/50/40 47/56/44 
f 48/57/45 44/51/41 47/56/44 
f 44/51/41 48/57/45 45/52/42 
f 45/52/42 48/57/45 33/33/30 
f 37/44/34 45/52/42 33/33/30 
f 7/53/4 6/58/3 9/54/6 
f 47/56/44 49/59/46 50/60/47 
f 48/57/45 47/56/44 50/60/47 
f 48/57/45 50/60/47 51/61/48 
f 48/57/45 51/61/48 33/33/30 
f 15/43/12 13/62/10 7/53/4 
f 52/63/49 53/64/49 54/65/49 
f 54/65/49 55/66/49 52/63/49 
f 1/1/50 4/4/50 56/66/50 
f 56/66/50 57/65/50 1/1/50 
f 54/67/51 57/68/51 56/69/51 
f 56/69/51 55/70/51 54/67/51 
f 53/64/52 52/63/52 58/71/52 
f 58/71/52 59/72/52 53/64/52 
f 60/73/50 61/74/50 62/75/50 
f 62/75/50 63/76/50 60/73/50 
f 63/76/53 62/75/53 64/77/53 
f 64/77/53 65/78/53 63/76/53 
f 65/78/49 64/77/49 3/3/49 
f 3/3/49 2/2/49 65/78/49 
f 59/79/54 60/80/54 63/81/55 
f 53/82/55 59/79/54 63/81/55 
f 54/70/56 53/82/55 63/81/55 
f 57/69/56 54/70/56 63/81/55 
f 57/69/56 63/81/55 65/83/56 
f 1/84/54 57/69/56 65/83/56 
f 2/85/57 1/84/54 65/83/56 
f 66/86/58 10/87/7 67/88/59 
f 68/89/60 69/90/61 66/86/58 
f 66/86/58 70/91/62 68/89/60 
f 67/88/59 70/91/62 66/86/58 
f 70/91/62 67/88/59 71/92/63 
f 71/92/63 67/88/59 10/87/7 
f 10/87/7 11/93/8 71/92/63 
f 71/92/63 11/93/8 18/94/15 
f 72/95/64 73/96/65 32/97/29 
f 18/94/15 32/97/29 73/96/65 
f 73/96/65 74/98/66 18/94/15 
f 18/94/15 74/98/66 71/92/63 
f 73/96/65 71/92/63 74/98/66 
f 73/96/65 70/91/62 71/92/63 
f 73/96/65 75/99/67 70/91/62 
f 75/99/67 68/89/60 70/91/62 
f 68/89/60 75/99/67 76/100/68 
f 76/100/68 69/90/61 68/89/60 
f 73/96/65 72/95/64 77/101/69 
f 73/96/65 77/101/69 75/99/67 
f 77/101/69 78/102/70 75/99/67 
f 76/100/68 75/99/67 78/102/70 
f 78/102/70 79/103/71 76/100/68 
f 30/104/27 79/103/71 78/102/70 
f 78/102/70 77/101/69 30/104/27 
f 31/105/28 30/104/27 77/101/69 
f 77/101/69 72/95/64 31/105/28 
f 32/97/29 31/105/28 72/95/64 
f 29/29/26 28/28/25 36/26/33 
f 36/26/33 80/27/72 29/29/26 
f 80/27/72 36/26/33 35/24/32 
f 35/24/32 81/25/73 80/27/72 
f 81/25/73 35/24/32 34/22/31 
f 34/22/31 82/23/74 81/25/73 
f 82/23/74 34/22/31 33/20/30 
f 33/20/30 83/21/75 82/23/74 
f 83/21/75 33/20/30 51/19/48 
f 51/19/48 84/17/76 83/21/75 
f 82/23/74 76/32/68 79/31/71 
f 82/23/74 79/31/71 81/25/73 
f 80/27/72 81/25/73 79/31/71 
f 80/27/72 79/31/71 30/30/27 
f 80/27/72 30/30/27 29/29/26 
f 85/5/77 8/8/5 10/10/7 
f 85/5/77 10/10/7 66/11/58 
f 85/5/77 66/11/58 86/12/78 
f 87/14/79 86/12/78 66/11/58 
f 87/14/79 66/11/58 69/18/61 
f 87/14/79 69/18/61 88/16/80 
f 84/17/76 88/16/80 69/18/61 
f 84/17/76 69/18/61 76/32/68 
f 84/17/76 76/32/68 83/21/75 
f 82/23/74 83/21/75 76/32/68 
f 84/17/76 51/19/48 50/15/47 
f 50/15/47 88/16/80 84/17/76 
f 88/16/80 50/15/47 49/13/46 
f 49/13/46 87/14/79 88/16/80 
f 87/14/79 49/13/46 47/7/44 
f 47/7/44 86/12/78 87/14/79 
f 86/12/78 47/7/44 46/6/43 
f 46/6/43 85/5/77 86/12/78 
f 85/5/77 46/6/43 9/9/6 
f 9/9/6 8/8/5 85/5/77 
f 60/73/81 59/72/81 58/71/81 
f 58/71/81 61/74/81 60/73/81 
f 62/81/82 61/80/83 58/79/83 
f 62/81/82 58/79/83 52/82/82 
f 62/81/82 52/82/82 55/70/82 
f 62/81/82 55/70/82 56/69/82 
f 64/83/83 62/81/82 56/69/82 
f 64/83/83 56/69/82 4/84/83 
f 3/85/82 64/83/83 4/84/83 
# 0 polygons - 168 triangles

