# 3ds Max Wavefront OBJ Exporter v0.99 - (c)2007 guruware
# File Created: 28.08.2021 11:33:40

mtllib action3.mtl

#
# object action3
#

v  -1.4275 6.5502 11.1355
v  -1.4261 6.5245 7.5870
v  -1.4243 6.5294 -6.2738
v  -1.4627 6.2803 7.3000
v  -1.4899 5.7340 3.9239
v  -1.4898 5.7343 -2.8228
v  -0.9736 7.0758 -6.2738
v  -0.9679 7.1489 11.3990
v  0.9322 6.9937 11.1773
v  0.6782 7.0863 11.1824
v  0.7327 7.0220 11.2598
v  0.9378 6.2027 11.1824
v  0.8597 6.1978 11.2598
v  0.9099 5.8645 11.2598
v  0.8563 6.9707 11.2598
v  0.7581 3.9115 11.2598
v  1.3242 3.9150 11.2598
v  1.3088 5.5192 11.2598
v  0.6782 3.8411 11.1824
v  1.4022 3.8456 11.1773
v  1.4022 5.6158 11.1773
v  1.2551 5.6316 11.1824
v  0.9840 5.8955 11.1824
v  -1.4899 4.8540 -3.9600
v  -1.4899 4.8540 -6.2738
v  -0.6782 3.8411 5.4602
v  -0.6782 3.8411 11.1824
v  -1.4022 3.8456 11.1773
v  -1.4022 3.8456 5.4602
v  1.6700 6.6170 -2.4699
v  1.4068 6.5631 -2.4699
v  1.4071 6.5622 0.3696
v  1.6696 6.6180 0.3696
v  1.4782 6.9748 -2.4699
v  1.1976 7.1908 -2.4699
v  0.9939 7.0823 -2.4699
v  0.6450 7.1021 -2.4699
v  0.7686 7.2007 -2.4699
v  0.9930 7.0932 0.3695
v  1.1977 7.1856 0.3695
v  0.7661 7.1963 0.3696
v  0.6489 7.1090 0.3695
v  1.4783 6.9718 0.3696
v  1.4261 6.5245 7.5870
v  1.4275 6.5502 11.1355
v  0.9679 7.1489 11.3990
v  0.9710 7.1094 0.4957
v  1.4252 6.5269 0.4957
v  1.4248 6.5280 -2.5960
v  1.4898 5.7343 -2.8228
v  1.4243 6.5294 -6.2738
v  1.4899 4.8540 -3.9600
v  1.4899 4.8540 -6.2738
v  0.9736 7.0758 -6.2738
v  0.9719 7.0974 -2.5960
v  1.4899 5.2509 5.1229
v  1.4899 5.2509 7.0392
v  1.4627 6.2803 7.3000
v  1.4898 5.7340 3.9239
v  0.6782 7.0863 5.4602
v  0.6782 3.8411 5.4602
v  1.4022 3.8456 5.4602
v  0.9322 6.9937 5.4602
v  1.3951 5.6321 5.4602
v  0.9490 6.2094 5.4602
v  1.0956 6.1673 5.4602
v  1.2099 5.8976 5.4602
v  1.4020 5.6307 8.9249
v  0.9602 6.2028 8.5482
v  1.0137 5.8996 8.6408
v  1.2661 5.6460 8.9437
v  1.1946 5.8986 8.6040
v  1.0965 6.1853 8.5311
v  -0.6782 7.0863 5.4602
v  -0.6782 7.0863 11.1824
v  -0.9490 6.2094 5.4602
v  -1.3951 5.6321 5.4602
v  -1.2099 5.8976 5.4602
v  -1.0956 6.1673 5.4602
v  -0.5814 7.1056 -6.2738
v  -0.6079 7.1515 11.3990
v  -1.7599 6.2932 -6.2738
v  -1.7887 4.8575 -6.2738
v  -1.7887 4.8575 -3.9610
v  -1.7885 5.7414 -2.8237
v  -1.7885 5.7417 3.9249
v  -1.7607 6.2973 7.3000
v  -1.7122 6.5906 7.5869
v  -1.7886 5.2570 5.1241
v  -1.7886 5.2570 7.0392
v  -0.7128 7.2064 11.5181
v  -0.7300 7.2361 -6.2738
v  -1.1951 7.2265 -6.2738
v  -1.1959 7.1922 11.5181
v  -1.5030 6.9855 -6.2738
v  -1.5034 6.9652 11.3732
v  -1.7081 6.5877 11.2019
v  -1.7140 6.5857 -6.2738
v  -1.4899 5.2509 7.0392
v  -1.4899 5.2509 5.1229
v  -0.9322 6.9937 5.4602
v  -1.1946 5.8986 8.6040
v  -1.4020 5.6307 8.9249
v  -1.2661 5.6460 8.9437
v  -1.2551 5.6316 11.1824
v  -1.0137 5.8996 8.6408
v  -1.0965 6.1853 8.5311
v  -0.9602 6.2028 8.5482
v  -0.9322 6.9937 11.1773
v  -0.9840 5.8955 11.1824
v  -0.9378 6.2027 11.1824
v  0.7300 7.2361 -6.2738
v  0.5814 7.1056 -6.2738
v  0.5892 7.1192 -2.5960
v  1.7134 6.5871 -2.5960
v  1.7140 6.5857 -6.2738
v  1.5030 6.9855 -6.2738
v  1.5031 6.9795 -2.5960
v  1.1951 7.2265 -6.2738
v  1.1954 7.2163 -2.5960
v  0.7249 7.2273 -2.5960
v  1.7131 6.5881 0.4957
v  1.5032 6.9762 0.4957
v  1.1955 7.2107 0.4957
v  0.6079 7.1515 11.3990
v  0.7128 7.2064 11.5181
v  0.7221 7.2224 0.4957
v  1.1959 7.1922 11.5181
v  1.5034 6.9652 11.3732
v  1.7122 6.5906 7.5870
v  1.7599 6.2932 -6.2738
v  1.7607 6.2973 7.3000
v  1.7081 6.5877 11.2019
v  1.7887 4.8575 -3.9610
v  1.7887 4.8575 -6.2738
v  1.7885 5.7414 -2.8237
v  1.7885 5.7417 3.9249
v  1.7886 5.2570 5.1241
v  1.7886 5.2570 7.0392
v  0.5936 7.1267 0.4957
v  -0.7327 7.0220 11.2598
v  -0.8563 6.9707 11.2598
v  -0.8597 6.1978 11.2598
v  -0.9099 5.8645 11.2598
v  -0.7581 3.9115 11.2598
v  -1.3242 3.9150 11.2598
v  -1.4022 5.6158 11.1773
v  -1.3088 5.5192 11.2598
v  -1.3179 6.9152 11.4634
v  -1.5266 6.5420 11.3032
v  1.5266 6.5420 11.3032
v  1.3179 6.9152 11.4634
v  -0.9924 7.1146 11.5892
v  -0.5908 7.1218 11.5892
v  0.5908 7.1218 11.5892
v  0.9924 7.1146 11.5892
# 156 vertices

vn 0.9522 -0.3055 0.0012
vn 0.9984 -0.0561 0.0026
vn 0.9797 -0.2003 0.0019
vn 0.9962 -0.0873 0.0021
vn 0.9995 -0.0320 -0.0029
vn 0.9987 -0.0504 0.0074
vn 0.7721 -0.6356 0.0009
vn 0.7927 -0.6095 0.0023
vn 0.7969 0.5368 0.2771
vn -0.0281 0.8968 0.4416
vn -0.2556 0.4538 0.8537
vn 0.9183 0.0734 0.3889
vn 0.3650 0.0294 0.9306
vn 0.2633 0.1403 0.9545
vn 0.3985 0.3367 0.8531
vn -0.2857 -0.3280 0.9004
vn 0.3097 -0.3342 0.8902
vn 0.3470 0.1836 0.9197
vn -0.4187 -0.4169 0.8067
vn 0.8504 -0.2515 0.4622
vn 0.6506 0.5816 0.4884
vn 0.4744 0.8175 0.3264
vn 0.8113 0.4370 0.3882
vn 0.9997 -0.0241 0.0109
vn 0.9992 -0.0391 0.0000
vn -0.0062 -1.0000 -0.0000
vn -0.2012 0.9795 0.0003
vn -0.2008 0.9796 0.0003
vn -0.2074 0.9782 -0.0003
vn -0.2079 0.9782 -0.0003
vn 0.0000 -0.0000 1.0000
vn 0.0000 0.0000 1.0000
vn -0.0000 0.0000 1.0000
vn 0.0000 -0.0000 -1.0000
vn 0.0000 0.0000 -1.0000
vn -0.0000 0.0000 -1.0000
vn -0.8503 -0.5263 0.0027
vn -0.7922 -0.6102 0.0047
vn -0.7936 -0.6085 0.0043
vn -0.7887 -0.6141 -0.0274
vn -0.7872 -0.6138 -0.0589
vn -0.8533 -0.5210 -0.0235
vn -0.8794 -0.4759 -0.0121
vn -0.9331 -0.3595 0.0138
vn -0.9977 -0.0671 0.0035
vn -0.9341 -0.3570 0.0019
vn -0.9997 -0.0241 0.0109
vn -0.9992 -0.0391 0.0000
vn -0.8513 -0.5241 0.0246
vn -0.7729 -0.6346 0.0003
vn -0.7823 -0.6221 0.0305
vn -0.7812 -0.6212 0.0616
vn -0.9999 -0.0163 -0.0048
vn -0.9997 -0.0264 -0.0000
vn -0.9938 -0.1115 0.0034
vn -0.9990 -0.0442 -0.0009
vn -1.0000 -0.0000 -0.0000
vn 0.0062 -1.0000 0.0000
vn 0.8132 0.5820 -0.0000
vn 0.3426 0.9395 0.0000
vn 1.0000 0.0028 -0.0014
vn 0.9529 0.3034 0.0008
vn 0.8159 0.5633 0.1300
vn 0.7924 0.6101 0.0005
vn 0.8840 0.4081 0.2279
vn 0.6593 0.5469 0.5161
vn 0.3817 0.8981 0.2186
vn 0.6324 0.6621 0.4020
vn 0.6636 0.7481 0.0027
vn 0.8751 0.4839 0.0041
vn 0.5503 0.7037 0.4495
vn 1.0000 0.0000 0.0000
vn 0.0082 -1.0000 0.0026
vn 0.0757 -0.9971 0.0041
vn 0.0748 -0.9972 0.0041
vn 0.0073 -1.0000 0.0026
vn -0.9961 0.0880 -0.0008
vn -0.9998 0.0200 0.0000
vn -0.9999 0.0115 -0.0053
vn -0.9991 0.0426 -0.0015
vn -0.9990 0.0449 0.0008
vn -0.9934 0.1143 0.0004
vn -0.8979 0.4402 0.0011
vn -0.9998 0.0167 0.0049
vn -0.9996 0.0269 -0.0000
vn 0.1394 0.9902 0.0008
vn 0.4620 0.8869 -0.0016
vn 0.6593 0.7519 0.0006
vn 0.3427 0.9394 0.0012
vn -0.3357 0.9420 0.0017
vn -0.2882 0.9576 0.0016
vn -0.7671 0.6416 0.0007
vn -0.7191 0.6949 0.0008
vn -0.8790 0.4768 0.0005
vn -0.9491 0.3151 0.0000
vn 0.9997 -0.0264 -0.0000
vn 0.9999 -0.0163 -0.0048
vn -0.6324 0.6621 0.4020
vn -0.8159 0.5633 0.1300
vn -0.3817 0.8981 0.2186
vn -1.0000 0.0028 -0.0014
vn -0.8399 -0.2594 0.4768
vn -0.9529 0.3034 0.0008
vn -0.8751 0.4839 0.0041
vn -0.6636 0.7481 0.0027
vn -0.4744 0.8175 0.3264
vn -0.6593 0.5469 0.5161
vn -0.5503 0.7037 0.4495
vn -0.8840 0.4081 0.2279
vn -0.7924 0.6101 0.0005
vn -0.7754 0.5140 0.3669
vn -0.8132 0.5820 -0.0000
vn 0.0281 0.8968 0.4416
vn -0.3426 0.9395 0.0000
vn -0.8113 0.4370 0.3882
vn -0.9183 0.0734 0.3889
vn -0.3418 0.9398 0.0008
vn -0.6600 0.7512 -0.0014
vn -0.6154 0.7705 0.1662
vn 0.9005 0.4332 0.0370
vn 0.9491 0.3151 0.0000
vn 0.7671 0.6415 0.0006
vn 0.7639 0.6395 0.0867
vn 0.3353 0.9421 0.0022
vn 0.3246 0.9414 0.0917
vn -0.3371 0.9292 0.1514
vn -0.5826 0.7307 0.3558
vn -0.2525 0.9255 0.2823
vn 0.3436 0.9215 0.1808
vn 0.7428 0.6474 0.1707
vn 0.7120 0.6976 0.0798
vn 0.9373 0.3466 -0.0371
vn 0.7110 0.6987 -0.0795
vn 0.7612 0.6430 -0.0849
vn 0.7400 0.6510 -0.1688
vn 0.3233 0.9422 -0.0882
vn -0.4651 0.8853 0.0009
vn -0.1391 0.9903 0.0015
vn -0.3207 0.9356 -0.1477
vn 0.2880 0.9576 0.0016
vn 0.7192 0.6948 0.0013
vn 0.9068 0.4217 0.0004
vn 0.9961 0.0880 -0.0008
vn 0.9934 0.1143 0.0004
vn 0.8794 0.4762 0.0014
vn 0.9999 0.0115 -0.0053
vn 0.9998 0.0200 0.0000
vn 0.9991 0.0426 -0.0015
vn 0.9990 0.0449 0.0008
vn 0.9998 0.0167 0.0049
vn 0.9996 0.0269 -0.0000
vn -0.5895 0.7910 -0.1637
vn 0.3419 0.9228 -0.1775
vn -0.2382 0.9312 -0.2759
vn -0.5596 0.7509 -0.3506
vn 0.4187 -0.4169 0.8067
vn 0.2556 0.4538 0.8537
vn -0.3985 0.3367 0.8531
vn -0.3650 0.0294 0.9306
vn -0.2633 0.1403 0.9545
vn 0.2857 -0.3280 0.9004
vn -0.3097 -0.3342 0.8902
vn -0.6777 0.6081 0.4134
vn -0.3470 0.1836 0.9197
vn 0.0000 -0.4280 0.9038
vn 0.0000 -0.3944 0.9189
vn -0.0010 -0.4277 0.9039
vn 0.0004 -0.5304 0.8478
vn 0.0080 -0.4652 0.8852
vn -0.0010 -0.5225 0.8526
vn -0.0098 -0.5449 0.8384
vn 0.3153 0.0398 0.9481
vn -0.1895 0.7778 0.5992
vn -0.1617 0.9419 0.2945
vn 0.1090 0.5193 0.8476
vn 0.4452 -0.0948 0.8904
vn 0.4368 0.0252 0.8992
vn 0.4914 -0.1051 0.8646
vn 0.5026 -0.0881 0.8600
vn -0.4914 -0.1051 0.8646
vn -0.5026 -0.0881 0.8600
vn -0.4368 0.0252 0.8992
vn -0.4452 -0.0948 0.8904
vn -0.1090 0.5193 0.8476
vn -0.3153 0.0398 0.9481
vn 0.1617 0.9419 0.2945
vn 0.1895 0.7778 0.5992
vn 0.2151 0.9677 0.1318
vn -0.2151 0.9677 0.1318
vn -0.0123 -0.9458 0.3244
vn -0.0118 -0.9999 0.0000
vn -0.0129 -0.9459 0.3241
vn -0.0229 -0.9463 0.3225
vn -0.0236 -0.9456 0.3243
vn -0.0261 -0.9813 -0.1906
vn -0.0258 -0.9813 -0.1910
vn -0.0212 -0.9815 -0.1904
vn -0.0208 -0.9815 -0.1903
vn -0.0205 -0.9998 0.0000
vn -0.0745 -0.9972 0.0057
vn -0.0757 -0.9971 0.0058
vn -0.0573 -0.9968 -0.0556
vn -0.0567 -0.9974 -0.0439
vn -0.0564 -0.9924 -0.1089
vn -0.0564 -0.9925 -0.1089
vn -0.0455 -0.9918 0.1190
vn -0.0453 -0.9969 0.0639
vn -0.0457 -0.9976 0.0519
vn -0.0081 -1.0000 0.0036
vn -0.0073 -1.0000 0.0036
vn -0.0267 -0.4830 0.8752
vn -0.0050 -0.2431 0.9700
vn -0.0065 -0.2435 0.9699
vn -0.0551 -0.5016 0.8633
vn -0.1839 -0.9143 0.3609
vn -0.2082 -0.9122 0.3528
vn -0.1509 -0.9861 -0.0693
vn -0.0887 -0.9955 -0.0346
vn -0.0999 -0.9892 -0.1074
vn 0.0999 -0.9892 -0.1074
vn 0.0886 -0.9955 -0.0346
vn 0.1509 -0.9861 -0.0693
vn 0.0007 0.4025 -0.9154
vn -0.0000 0.4029 -0.9152
vn -0.0004 0.4017 -0.9158
vn -0.0026 0.3941 -0.9191
vn 0.0006 0.4022 -0.9156
vn 0.0029 0.4048 -0.9144
vn 0.0205 -0.9998 -0.0000
vn 0.0208 -0.9815 -0.1903
vn 0.0212 -0.9815 -0.1904
vn 0.0258 -0.9813 -0.1910
vn 0.0261 -0.9813 -0.1906
vn 0.0236 -0.9456 0.3243
vn 0.0229 -0.9463 0.3225
vn 0.0129 -0.9459 0.3241
vn 0.0123 -0.9458 0.3244
vn 0.0118 -0.9999 -0.0000
vn 0.0065 -0.2435 0.9699
vn 0.0050 -0.2431 0.9700
vn 0.0267 -0.4830 0.8752
vn 0.0551 -0.5016 0.8633
vn 0.1839 -0.9143 0.3609
vn 0.2082 -0.9122 0.3528
# 244 vertex normals

vt 0.4719 0.6228 0.6228
vt 0.4719 0.5649 0.5649
vt 0.4719 0.3438 0.3438
vt 0.4670 0.5603 0.5603
vt 0.4583 0.5063 0.5063
vt 0.4583 0.3989 0.3989
vt 0.4827 0.3438 0.3438
vt 0.4824 0.6279 0.6279
vt 0.4470 0.5181 0.5181
vt 0.4487 0.5139 0.5139
vt 0.4475 0.5149 0.5149
vt 0.4329 0.5181 0.5181
vt 0.4329 0.5168 0.5168
vt 0.4268 0.5176 0.5176
vt 0.4465 0.5168 0.5168
vt 0.3918 0.5151 0.5151
vt 0.3921 0.5242 0.5242
vt 0.4207 0.5239 0.5239
vt 0.3906 0.5139 0.5139
vt 0.3909 0.5254 0.5254
vt 0.4224 0.5254 0.5254
vt 0.4226 0.5229 0.5229
vt 0.4275 0.5188 0.5188
vt 0.4441 0.3794 0.3794
vt 0.4441 0.3423 0.3423
vt 0.4719 0.3423 0.3423
vt 0.4583 0.3975 0.3975
vt 0.3860 0.3979 0.3979
vt 0.3860 0.5010 0.5010
vt 0.3909 0.5010 0.5010
vt 0.3909 0.3979 0.3979
vt 0.4724 0.4043 0.4043
vt 0.4761 0.4043 0.4043
vt 0.4761 0.4497 0.4497
vt 0.4724 0.4497 0.4497
vt 0.4358 0.6343 0.6343
vt 0.4346 0.6262 0.6262
vt 0.4363 0.6196 0.6196
vt 0.4407 0.6194 0.6194
vt 0.4458 0.6155 0.6155
vt 0.4429 0.6152 0.6152
vt 0.4402 0.6326 0.6326
vt 0.4824 0.4517 0.4517
vt 0.4822 0.4497 0.4497
vt 0.4739 0.4497 0.4497
vt 0.4731 0.4517 0.4517
vt 0.4731 0.4023 0.4023
vt 0.4441 0.3804 0.3804
vt 0.4441 0.3438 0.3438
vt 0.4736 0.4043 0.4043
vt 0.4824 0.4023 0.4023
vt 0.4819 0.4043 0.4043
vt 0.4504 0.5256 0.5256
vt 0.4504 0.5562 0.5562
vt 0.4490 0.5010 0.5010
vt 0.4492 0.3979 0.3979
vt 0.4229 0.3979 0.3979
vt 0.4229 0.4580 0.4580
vt 0.4226 0.5010 0.5010
vt 0.4250 0.5010 0.5010
vt 0.4351 0.3979 0.3979
vt 0.4348 0.4536 0.4536
vt 0.4348 0.5010 0.5010
vt 0.4292 0.5010 0.5010
vt 0.4290 0.4551 0.4551
vt 0.4248 0.4609 0.4609
vt 0.4277 0.4521 0.4521
vt 0.4326 0.3979 0.3979
vt 0.4277 0.3979 0.3979
vt 0.4326 0.4507 0.4507
vt 0.4329 0.5083 0.5083
vt 0.4226 0.5032 0.5032
vt 0.4275 0.5076 0.5076
vt 0.4961 0.6260 0.6260
vt 0.4968 0.3438 0.3438
vt 0.4912 0.3438 0.3438
vt 0.4910 0.6260 0.6260
vt 0.4670 0.3438 0.3438
vt 0.4895 0.6279 0.6279
vt 0.4893 0.3438 0.3438
vt 0.4783 0.3438 0.3438
vt 0.4780 0.6255 0.6255
vt 0.4670 0.5593 0.5593
vt 0.4504 0.5552 0.5552
vt 0.4504 0.5244 0.5244
vt 0.4583 0.5054 0.5054
vt 0.4470 0.5083 0.5083
vt 0.4487 0.5122 0.5122
vt 0.3906 0.5122 0.5122
vt 0.4912 0.4023 0.4023
vt 0.4719 0.4023 0.4023
vt 0.4780 0.4023 0.4023
vt 0.4893 0.4023 0.4023
vt 0.4919 0.4043 0.4043
vt 0.4885 0.4043 0.4043
vt 0.4824 0.4043 0.4043
vt 0.4783 0.4043 0.4043
vt 0.4719 0.4517 0.4517
vt 0.4780 0.4517 0.4517
vt 0.4780 0.4497 0.4497
vt 0.4890 0.4517 0.4517
vt 0.4907 0.4517 0.4517
vt 0.4883 0.4497 0.4497
vt 0.4915 0.4497 0.4497
vt 0.4475 0.5115 0.5115
vt 0.4465 0.5095 0.5095
vt 0.4329 0.5095 0.5095
vt 0.4268 0.5085 0.5085
vt 0.3918 0.5110 0.5110
vt 0.3921 0.5022 0.5022
vt 0.4207 0.5024 0.5024
vt 0.4575 0.5723 0.5723
vt 0.4507 0.5684 0.5684
vt 0.4507 0.6257 0.6257
vt 0.4575 0.6218 0.6218
vt 0.4612 0.5784 0.5784
vt 0.4614 0.5859 0.5859
vt 0.4614 0.6082 0.6082
vt 0.4612 0.6157 0.6157
vt 0.4626 0.6196 0.6196
vt 0.4629 0.6106 0.6106
vt 0.4585 0.6255 0.6255
vt 0.4514 0.6292 0.6292
vt 0.4514 0.5649 0.5649
vt 0.4585 0.5688 0.5688
vt 0.4626 0.5745 0.5745
vt 0.4629 0.5837 0.5837
vt 0.4641 0.5857 0.5857
vt 0.4641 0.6086 0.6086
vt 0.4399 0.3438 0.3438
vt 0.4399 0.3804 0.3804
vt 0.4541 0.3989 0.3989
vt 0.4541 0.5063 0.5063
vt 0.4463 0.5256 0.5256
vt 0.4463 0.5562 0.5562
vt 0.4893 0.3379 0.3379
vt 0.4827 0.3379 0.3379
vt 0.4719 0.3379 0.3379
vt 0.4441 0.3379 0.3379
vt 0.4966 0.4023 0.4023
vt 0.4968 0.4043 0.4043
vt 0.4963 0.4497 0.4497
vt 0.4961 0.4517 0.4517
vt 0.4492 0.5603 0.5603
vt 0.4644 0.5645 0.5645
vt 0.4670 0.5679 0.5679
vt 0.4678 0.6221 0.6221
vt 0.4475 0.5703 0.5703
vt 0.4475 0.6240 0.6240
# 149 texture coords

o action3
g action3
usemtl mat_repeater_pistol_INST
s 1
f 1/1/1 2/2/2 3/3/3 
f 4/4/4 5/5/5 6/6/6 
f 2/2/2 4/4/4 6/6/6 
f 3/3/3 2/2/2 6/6/6 
f 7/7/7 8/8/8 1/1/1 
f 7/7/7 1/1/1 3/3/3 
f 9/9/9 10/10/10 11/11/11 
f 12/12/12 13/13/13 14/14/14 
f 13/13/13 12/12/12 9/9/9 
f 9/9/9 15/15/15 13/13/13 
f 11/11/11 15/15/15 9/9/9 
f 13/13/13 15/15/15 11/11/11 
f 14/14/14 13/13/13 11/11/11 
f 11/11/11 16/16/16 14/14/14 
f 14/14/14 16/16/16 17/17/17 
f 17/17/17 18/18/18 14/14/14 
f 11/11/11 10/10/10 19/19/19 
f 19/19/19 16/16/16 11/11/11 
f 16/16/16 19/19/19 20/20/20 
f 20/20/20 17/17/17 16/16/16 
f 17/17/17 20/20/20 21/21/21 
f 21/21/21 18/18/18 17/17/17 
f 22/22/22 18/18/18 21/21/21 
f 18/18/18 22/22/22 23/23/23 
f 23/23/23 14/14/14 18/18/18 
f 14/14/14 23/23/23 12/12/12 
f 24/24/24 25/25/25 3/26/3 
f 3/26/3 6/27/6 24/24/24 
f 26/28/26 27/29/26 28/30/26 
f 28/30/26 29/31/26 26/28/26 
f 30/32/27 31/33/28 32/34/29 
f 32/34/29 33/35/30 30/32/27 
f 30/36/31 34/37/32 35/38/32 
f 30/36/31 35/38/32 36/39/33 
f 37/40/33 36/39/33 35/38/32 
f 35/38/32 38/41/33 37/40/33 
f 30/36/31 36/39/33 31/42/31 
f 33/36/34 32/42/34 39/39/35 
f 33/36/34 39/39/35 40/38/35 
f 41/41/36 40/38/35 39/39/35 
f 39/39/35 42/40/36 41/41/36 
f 33/36/34 40/38/35 43/37/35 
f 44/2/37 45/1/38 46/8/39 
f 44/2/37 46/8/39 47/43/40 
f 47/43/40 39/44/41 32/45/42 
f 32/45/42 48/46/43 47/43/40 
f 48/46/43 44/2/37 47/43/40 
f 44/2/37 48/46/43 49/47/44 
f 50/6/45 44/2/37 49/47/44 
f 51/3/46 50/6/45 49/47/44 
f 51/3/46 52/48/47 50/6/45 
f 52/48/47 51/3/46 53/49/48 
f 49/47/44 48/46/43 32/45/42 
f 32/45/42 31/50/49 49/47/44 
f 54/7/50 51/3/46 49/47/44 
f 49/47/44 55/51/51 54/7/50 
f 55/51/51 49/47/44 31/50/49 
f 31/50/49 36/52/52 55/51/51 
f 56/53/53 57/54/54 58/4/55 
f 58/4/55 59/5/56 56/53/53 
f 50/6/45 59/5/56 58/4/55 
f 50/6/45 58/4/55 44/2/37 
f 19/30/57 10/55/57 60/56/57 
f 60/56/57 61/31/57 19/30/57 
f 61/28/58 62/31/58 20/30/58 
f 20/30/58 19/29/58 61/28/58 
f 63/56/59 60/56/60 10/55/10 
f 10/55/10 9/55/9 63/56/59 
f 64/21/35 62/20/35 61/19/35 
f 65/12/35 64/21/35 61/19/35 
f 65/12/35 61/19/35 60/10/35 
f 65/12/35 60/10/35 63/9/35 
f 65/12/35 66/23/35 67/22/35 
f 65/12/35 67/22/35 64/21/35 
f 62/31/61 64/57/62 68/58/63 
f 68/58/63 20/30/20 62/31/61 
f 21/59/21 20/30/20 68/58/63 
f 22/60/22 21/59/21 68/58/63 
f 63/56/59 9/55/9 65/61/64 
f 9/55/9 69/62/65 65/61/64 
f 9/55/9 12/63/12 69/62/65 
f 69/62/65 12/63/12 23/64/23 
f 23/64/23 70/65/66 69/62/65 
f 70/65/66 23/64/23 22/60/22 
f 22/60/22 71/66/67 70/65/66 
f 68/58/63 71/66/67 22/60/22 
f 71/66/67 68/58/63 72/67/68 
f 72/67/68 68/58/63 64/57/62 
f 66/68/69 65/61/64 69/62/65 
f 64/57/62 67/69/70 72/67/68 
f 72/67/68 67/69/70 66/68/69 
f 66/68/69 73/70/71 72/67/68 
f 69/62/65 73/70/71 66/68/69 
f 73/70/71 69/62/65 70/65/66 
f 70/65/66 72/67/68 73/70/71 
f 72/67/68 70/65/66 71/66/67 
f 27/30/72 26/31/72 74/56/72 
f 74/56/72 75/55/72 27/30/72 
f 76/71/35 77/59/35 78/72/35 
f 76/71/35 78/72/35 79/73/35 
f 8/74/73 7/75/74 80/76/75 
f 80/76/75 81/77/76 8/74/73 
f 82/78/77 83/49/78 84/48/79 
f 84/48/79 85/6/80 82/78/77 
f 82/78/77 85/6/80 86/5/81 
f 82/78/77 87/4/82 88/2/83 
f 86/5/81 87/4/82 82/78/77 
f 87/4/82 86/5/81 89/53/84 
f 89/53/84 90/54/85 87/4/82 
f 91/79/86 81/77/87 80/76/88 
f 80/76/88 92/80/89 91/79/86 
f 91/79/86 92/80/89 93/7/90 
f 93/7/90 94/8/91 91/79/86 
f 94/8/91 93/7/90 95/81/92 
f 95/81/92 96/82/93 94/8/91 
f 97/1/94 96/82/93 95/81/92 
f 88/2/83 97/1/94 95/81/92 
f 88/2/83 95/81/92 98/3/95 
f 88/2/83 98/3/95 82/78/77 
f 4/83/4 99/84/96 100/85/97 
f 100/85/97 5/86/5 4/83/4 
f 76/71/35 101/87/35 74/88/35 
f 76/71/35 74/88/35 26/89/35 
f 76/71/35 26/89/35 77/59/35 
f 26/89/35 29/30/35 77/59/35 
f 102/67/98 103/58/99 104/66/100 
f 29/31/101 28/30/102 103/58/99 
f 103/58/99 77/57/103 29/31/101 
f 77/57/103 103/58/99 102/67/98 
f 102/67/98 78/69/104 77/57/103 
f 79/68/105 78/69/104 102/67/98 
f 105/60/106 104/66/100 103/58/99 
f 106/65/107 104/66/100 105/60/106 
f 104/66/100 106/65/107 102/67/98 
f 107/70/108 102/67/98 106/65/107 
f 102/67/98 107/70/108 79/68/105 
f 79/68/105 107/70/108 108/62/109 
f 108/62/109 76/61/110 79/68/105 
f 76/61/110 108/62/109 109/55/111 
f 101/56/112 76/61/110 109/55/111 
f 101/56/112 109/55/111 75/55/113 
f 75/55/113 74/56/114 101/56/112 
f 105/60/106 110/64/115 106/65/107 
f 108/62/109 106/65/107 110/64/115 
f 106/65/107 108/62/109 107/70/108 
f 108/62/109 111/63/116 109/55/111 
f 110/64/115 111/63/116 108/62/109 
f 112/80/117 113/76/118 114/90/119 
f 115/91/120 116/3/121 117/81/122 
f 117/81/122 118/92/123 115/91/120 
f 118/92/123 117/81/122 119/7/124 
f 119/7/124 120/51/125 118/92/123 
f 120/51/125 119/7/124 112/80/117 
f 112/80/117 121/93/126 120/51/125 
f 114/90/119 121/93/126 112/80/117 
f 121/93/126 114/90/119 37/94/127 
f 37/94/127 38/95/128 121/93/126 
f 120/51/125 121/93/126 38/95/128 
f 38/95/128 35/96/129 120/51/125 
f 118/92/123 120/51/125 35/96/129 
f 35/96/129 34/97/130 118/92/123 
f 115/91/120 118/92/123 34/97/130 
f 34/97/130 30/32/131 115/91/120 
f 122/98/132 115/91/120 30/32/131 
f 30/32/131 33/35/133 122/98/132 
f 123/99/134 122/98/132 33/35/133 
f 33/35/133 43/100/135 123/99/134 
f 124/43/136 123/99/134 43/100/135 
f 125/77/137 126/79/138 127/101/139 
f 124/43/136 127/101/139 126/79/138 
f 126/79/138 128/8/140 124/43/136 
f 124/43/136 128/8/140 129/82/141 
f 129/82/141 123/99/134 124/43/136 
f 130/2/142 123/99/134 129/82/141 
f 130/2/142 122/98/132 123/99/134 
f 131/78/143 122/98/132 130/2/142 
f 131/78/143 116/3/121 122/98/132 
f 116/3/121 115/91/120 122/98/132 
f 131/78/143 130/2/142 132/4/144 
f 130/2/142 129/82/141 133/1/145 
f 134/48/146 135/49/147 131/78/143 
f 131/78/143 136/6/148 134/48/146 
f 137/5/149 136/6/148 131/78/143 
f 131/78/143 132/4/144 137/5/149 
f 138/53/150 137/5/149 132/4/144 
f 132/4/144 139/54/151 138/53/150 
f 127/101/139 140/102/152 125/77/137 
f 43/100/135 40/44/153 124/43/136 
f 127/101/139 124/43/136 40/44/153 
f 40/44/153 41/103/154 127/101/139 
f 140/102/152 127/101/139 41/103/154 
f 41/103/154 42/104/155 140/102/152 
f 27/89/156 75/88/113 141/105/157 
f 141/105/157 75/88/113 109/87/111 
f 109/87/111 142/106/158 141/105/157 
f 141/105/157 142/106/158 143/107/159 
f 141/105/157 143/107/159 144/108/160 
f 144/108/160 145/109/161 141/105/157 
f 141/105/157 145/109/161 27/89/156 
f 28/30/102 27/89/156 145/109/161 
f 145/109/161 146/110/162 28/30/102 
f 147/59/163 28/30/102 146/110/162 
f 147/59/163 103/58/99 28/30/102 
f 103/58/99 147/59/163 105/60/106 
f 146/110/162 145/109/161 144/108/160 
f 144/108/160 148/111/164 146/110/162 
f 146/110/162 148/111/164 147/59/163 
f 105/72/106 147/59/163 148/111/164 
f 110/73/115 105/72/106 148/111/164 
f 148/111/164 144/108/160 110/73/115 
f 111/71/116 110/73/115 144/108/160 
f 144/108/160 143/107/159 111/71/116 
f 109/87/111 111/71/116 143/107/159 
f 143/107/159 142/106/158 109/87/111 
f 149/112/165 150/113/166 151/114/166 
f 151/114/166 152/115/167 149/112/165 
f 153/116/168 149/112/165 152/115/167 
f 154/117/169 153/116/168 152/115/167 
f 155/118/170 154/117/169 152/115/167 
f 156/119/171 155/118/170 152/115/167 
f 128/120/172 126/121/173 155/118/174 
f 155/118/174 156/119/175 128/120/172 
f 129/122/176 128/120/172 156/119/175 
f 156/119/175 152/115/177 129/122/176 
f 133/123/178 129/122/176 152/115/177 
f 152/115/177 151/114/179 133/123/178 
f 97/124/180 150/113/181 149/112/182 
f 149/112/182 96/125/183 97/124/180 
f 96/125/183 149/112/182 153/116/184 
f 153/116/184 94/126/185 96/125/183 
f 94/126/185 153/116/184 154/117/186 
f 154/117/186 91/127/187 94/126/185 
f 154/117/186 81/128/188 91/127/187 
f 125/129/189 81/128/188 154/117/186 
f 154/117/186 155/118/174 125/129/189 
f 155/118/174 126/121/173 125/129/189 
f 84/48/190 83/49/191 25/130/191 
f 25/130/191 24/131/192 84/48/190 
f 85/6/193 84/48/190 24/131/192 
f 24/131/192 6/132/194 85/6/193 
f 86/5/195 85/6/193 6/132/194 
f 6/132/194 5/133/196 86/5/195 
f 89/53/197 86/5/195 5/133/196 
f 5/133/196 100/134/198 89/53/197 
f 90/54/199 89/53/197 100/134/198 
f 100/134/198 99/135/199 90/54/199 
f 92/80/35 80/136/35 7/137/35 
f 7/137/35 93/7/35 92/80/35 
f 95/81/34 93/7/35 7/137/35 
f 95/81/34 7/137/35 3/138/34 
f 95/81/34 3/138/34 98/3/34 
f 82/78/35 98/3/34 3/138/34 
f 83/49/35 82/78/35 3/138/34 
f 3/138/34 25/139/35 83/49/35 
f 113/76/200 54/75/201 55/140/202 
f 55/140/202 114/90/203 113/76/200 
f 114/90/203 55/140/202 36/141/204 
f 36/141/204 37/94/205 114/90/203 
f 42/104/206 39/142/206 47/143/207 
f 47/143/207 140/102/208 42/104/206 
f 125/77/209 140/102/208 47/143/207 
f 47/143/207 46/74/210 125/77/209 
f 54/137/34 113/136/35 112/80/35 
f 112/80/35 119/7/34 54/137/34 
f 117/81/35 54/137/34 119/7/34 
f 117/81/35 51/138/35 54/137/34 
f 117/81/35 116/3/35 51/138/35 
f 131/78/35 51/138/35 116/3/35 
f 51/138/35 131/78/35 135/49/35 
f 135/49/35 53/139/36 51/138/35 
f 87/4/211 90/54/212 99/144/213 
f 99/144/213 4/145/214 87/4/211 
f 88/2/215 87/4/211 4/145/214 
f 4/145/214 2/146/216 88/2/215 
f 97/1/217 88/2/215 2/146/216 
f 2/146/216 1/147/218 97/1/217 
f 150/113/219 97/124/217 1/148/218 
f 151/114/220 150/113/219 1/148/218 
f 1/148/218 45/149/221 151/114/220 
f 151/114/220 45/149/221 133/123/222 
f 45/114/223 1/113/224 8/116/225 
f 45/114/223 8/116/225 81/117/226 
f 45/114/223 81/117/226 125/118/227 
f 45/114/223 125/118/227 46/119/228 
f 139/54/229 57/135/229 56/134/230 
f 56/134/230 138/53/231 139/54/229 
f 138/53/231 56/134/230 59/133/232 
f 59/133/232 137/5/233 138/53/231 
f 137/5/233 59/133/232 50/132/234 
f 50/132/234 136/6/235 137/5/233 
f 136/6/235 50/132/234 52/131/236 
f 52/131/236 134/48/237 136/6/235 
f 134/48/237 52/131/236 53/130/238 
f 53/130/238 135/49/238 134/48/237 
f 57/144/239 139/54/240 132/4/241 
f 132/4/241 58/145/242 57/144/239 
f 58/145/242 132/4/241 130/2/243 
f 130/2/243 44/146/244 58/145/242 
f 44/146/244 130/2/243 133/1/222 
f 133/1/222 45/147/221 44/146/244 
# 0 polygons - 300 triangles

