# 3ds Max Wavefront OBJ Exporter v0.99 - (c)2007 guruware
# File Created: 28.08.2021 11:51:25

mtllib grip4.mtl

#
# object grip4
#

v  -0.0079 3.0229 11.7837
v  -1.3230 3.0315 11.5232
v  -1.1896 2.2658 11.4293
v  1.1896 2.2658 11.4293
v  1.3644 3.0315 11.5232
v  -0.0079 2.3270 11.6665
v  -0.0079 1.7477 11.1542
v  -1.1763 1.6856 10.9121
v  -1.1472 0.6083 10.8741
v  -0.0079 0.5761 10.9179
v  -1.1422 -0.0106 11.1711
v  -0.0079 0.0089 11.3253
v  -1.1293 -0.4014 11.1262
v  1.1763 1.6856 10.9121
v  1.1472 0.6083 10.8741
v  1.1422 -0.0106 11.1711
v  1.1293 -0.4014 11.1262
v  -0.0079 -0.3951 11.2518
v  1.0906 -1.4784 12.6880
v  -0.0079 -1.4533 12.8534
v  -1.0906 -1.4784 12.6880
v  -1.0906 -2.6843 13.7706
v  -0.0079 -2.6653 13.9185
v  -1.0906 -3.9918 14.4357
v  -0.0079 -3.9568 14.6120
v  -0.0079 -5.4013 14.9552
v  1.0906 -3.9918 14.4357
v  1.0906 -5.4013 14.8530
v  1.0906 -2.6931 13.7579
v  -0.0079 -6.4755 16.4745
v  -1.0906 -6.5479 16.2059
v  -1.0906 -7.5340 16.8161
v  -0.0079 -6.1038 15.8322
v  -1.0906 -6.1708 15.5783
v  -1.0906 -5.4013 14.8530
v  1.0906 -6.1708 15.5783
v  1.0906 -6.5479 16.2059
v  1.0906 -7.5340 16.8161
v  -0.0079 -7.5210 17.1067
v  0.9147 -7.6563 16.7122
v  -0.9147 -7.6563 16.7122
v  -1.0550 3.5333 9.2544
v  -1.0232 0.2681 5.4729
v  -1.2048 -0.4952 5.6343
v  -1.3309 -1.1771 5.5020
v  -1.3120 -1.8713 6.0904
v  -1.4879 -0.4922 7.4631
v  -1.4721 3.0932 9.6652
v  -1.2560 3.5636 10.0786
v  -1.4783 3.3291 10.2610
v  -1.4237 3.0840 10.2601
v  -1.4879 1.5131 9.7260
v  -1.6188 -0.7011 10.3020
v  -1.6188 -4.9242 12.4668
v  -1.6188 -3.4986 8.4157
v  -1.6188 -6.2374 9.6864
v  -1.6399 -9.0170 10.9760
v  -1.6791 -7.1257 14.9811
v  -1.3857 -10.0374 11.4182
v  -1.4478 -8.3789 14.9179
v  -1.2692 -7.8529 16.0907
v  -0.9379 -8.2732 15.4126
v  -0.9347 -10.9993 9.5252
v  -1.3755 -9.9004 9.0251
v  -1.3024 -10.9425 9.4995
v  -0.9383 -11.5015 8.4403
v  -1.1718 -11.5038 8.3122
v  -1.1718 -10.2899 8.1698
v  -1.2745 -9.4336 8.7523
v  -1.0620 -8.4452 8.4135
v  -1.0603 -7.8367 8.0140
v  -1.0585 -7.4858 7.0581
v  -1.1499 -6.4647 7.5091
v  -1.2413 -5.6264 7.5654
v  -1.1551 -5.0114 6.9960
v  -1.0689 -4.7609 5.6394
v  -1.1779 -3.0390 6.2596
v  -1.3309 -2.2338 6.4433
v  1.0919 -7.9629 17.1556
v  0.9379 -8.2732 15.4126
v  1.0919 -8.6788 17.4940
v  1.1642 -9.3410 16.0922
v  1.1642 -8.9656 15.9195
v  1.1652 -11.6625 10.1114
v  0.9347 -10.9993 9.5252
v  1.0327 -12.0458 8.5127
v  0.9383 -11.5015 8.4403
v  1.1652 -12.1085 10.2371
v  1.0878 -12.7786 8.8158
v  1.6188 -4.9242 12.4668
v  1.6791 -7.1257 14.9811
v  1.6399 -9.0170 10.9760
v  1.5061 3.0932 9.6652
v  1.4879 1.5131 9.7260
v  1.4879 -0.4922 7.4631
v  1.6188 -3.4986 8.4157
v  1.6188 -0.7011 10.3020
v  1.6188 -6.2374 9.6864
v  1.3755 -9.9004 9.0251
v  1.3024 -10.9425 9.4995
v  1.3857 -10.0374 11.4182
v  1.0603 -7.8367 8.0140
v  1.0585 -7.4858 7.0581
v  1.1499 -6.4647 7.5091
v  1.2413 -5.6264 7.5654
v  1.1551 -5.0114 6.9960
v  1.0689 -4.7609 5.6394
v  1.1779 -3.0390 6.2596
v  1.3309 -2.2338 6.4433
v  1.3120 -1.8713 6.0904
v  1.3309 -1.1771 5.5020
v  1.0548 -0.4952 5.6228
v  1.0444 0.2687 5.4622
v  1.0907 3.5339 9.2552
v  1.1061 3.5636 10.0787
v  1.4728 3.3311 10.2614
v  1.4665 3.0839 10.2613
v  1.2692 -7.8529 16.0907
v  1.4478 -8.3789 14.9179
v  1.1718 -11.5038 8.3122
v  1.1718 -10.2899 8.1698
v  1.2745 -9.4336 8.7523
v  1.0620 -8.4452 8.4135
v  -1.0919 -7.9629 17.1556
v  -1.1642 -9.3410 16.0922
v  -1.0919 -8.6788 17.4940
v  -1.1642 -8.9656 15.9195
v  -1.1652 -11.6625 10.1114
v  -1.0327 -12.0458 8.5127
v  -1.0878 -12.7786 8.8158
v  -1.1652 -12.1085 10.2371
v  -0.0079 3.5636 10.0823
v  -0.0079 3.5336 9.2552
v  -0.0079 -0.1991 4.9640
v  -0.0079 3.3316 10.2610
v  -0.0079 3.0830 10.2601
v  -0.0079 -12.0928 8.4178
v  -0.0079 -11.5487 8.3541
v  -0.0079 -8.0174 7.6129
v  -0.0079 -7.6829 6.6225
v  -0.0079 -8.5474 8.1775
v  -0.0079 -9.6784 8.4465
v  -0.0079 -10.4326 7.8360
v  -0.0079 -11.5835 8.1467
v  -0.0079 -0.9740 5.1107
v  -0.0079 -1.6497 4.9543
v  -0.0079 -2.0869 5.2886
v  -0.0079 -2.2414 5.8508
v  -0.0079 -3.2679 5.7460
v  -0.0079 -4.8690 5.3291
v  -0.0079 -5.2427 6.4558
v  -0.0079 -5.8177 7.1477
v  -0.0079 -6.6798 7.0373
# 153 vertices

vn -0.0017 0.6314 0.7754
vn -0.6429 0.4116 0.6460
vn -0.6432 -0.3731 0.6687
vn 0.6273 -0.3925 0.6726
vn 0.6425 0.3895 0.6599
vn -0.0010 -0.4111 0.9116
vn -0.0010 -0.4352 0.9003
vn -0.6481 -0.3125 0.6945
vn -0.5812 0.1674 0.7963
vn -0.0004 0.1887 0.9820
vn -0.5675 0.1584 0.8080
vn -0.0008 0.2227 0.9749
vn -0.5549 0.3257 0.7655
vn 0.6473 -0.3129 0.6951
vn 0.5809 0.1677 0.7965
vn 0.5669 0.1583 0.8085
vn 0.5542 0.3260 0.7659
vn -0.0008 0.3986 0.9171
vn 0.6386 0.5551 0.5329
vn 0.0007 0.7498 0.6617
vn -0.6395 0.5568 0.5301
vn -0.6732 0.4225 0.6068
vn 0.0044 0.5624 0.8269
vn -0.6720 0.2703 0.6895
vn -0.0011 0.3530 0.9356
vn -0.0006 0.5572 0.8304
vn 0.6722 0.2722 0.6885
vn 0.6086 0.4487 0.6544
vn 0.6761 0.4225 0.6037
vn -0.0015 0.7024 0.7118
vn -0.6497 0.5281 0.5468
vn -0.6335 -0.1794 0.7527
vn -0.0013 0.8100 0.5865
vn -0.5973 0.6188 0.5101
vn -0.6091 0.4486 0.6540
vn 0.5962 0.6195 0.5106
vn 0.6486 0.5286 0.5476
vn 0.6321 -0.1788 0.7540
vn -0.0014 -0.2816 0.9595
vn 0.6852 -0.2382 0.6883
vn -0.6859 -0.2390 0.6874
vn -0.4743 0.7915 -0.3854
vn -0.5919 0.3530 -0.7246
vn -0.7697 0.1409 -0.6226
vn -0.8214 -0.0529 -0.5679
vn -0.8098 -0.4171 -0.4126
vn -0.9943 0.0427 -0.0982
vn -0.9471 0.2784 -0.1598
vn -0.4834 0.8554 0.1863
vn -0.6997 0.3454 0.6254
vn -0.6955 0.3930 0.6015
vn -0.9948 0.0043 0.1018
vn -0.9834 0.1081 0.1459
vn -0.9926 0.0715 0.0978
vn -0.9939 -0.0271 -0.1072
vn -0.9941 -0.0376 -0.1019
vn -0.9942 -0.1072 -0.0049
vn -0.9764 0.0630 0.2064
vn -0.6800 -0.6695 0.2989
vn -0.7192 -0.6194 0.3149
vn -0.7315 -0.5218 0.4390
vn -0.8612 -0.4581 0.2201
vn -0.8387 -0.4980 0.2204
vn -0.9818 -0.0569 -0.1813
vn -0.7458 -0.6337 0.2056
vn -0.5717 -0.7871 -0.2317
vn -0.6027 -0.6708 -0.4322
vn -0.7270 0.1199 -0.6761
vn -0.6650 0.0853 -0.7420
vn -0.6641 -0.2274 -0.7122
vn -0.7272 -0.5438 -0.4189
vn -0.7831 -0.2716 -0.5595
vn -0.7602 0.0700 -0.6459
vn -0.7567 -0.2220 -0.6149
vn -0.7544 -0.5368 -0.3779
vn -0.7620 -0.3159 -0.5653
vn -0.7717 0.0962 -0.6287
vn -0.8447 -0.2871 -0.4517
vn 0.6772 0.5357 0.5045
vn 0.8612 -0.4581 0.2201
vn 0.6952 -0.2304 0.6809
vn 0.7184 -0.6579 -0.2258
vn 0.7446 -0.5950 -0.3027
vn 0.7556 -0.2051 0.6221
vn 0.8387 -0.4980 0.2204
vn 0.7012 -0.1190 -0.7029
vn 0.5710 -0.7875 -0.2322
vn 0.7202 -0.3000 0.6255
vn 0.7041 -0.6492 -0.2877
vn 0.9926 0.0717 0.0979
vn 0.9764 0.0630 0.2064
vn 0.9942 -0.1072 -0.0049
vn 0.9355 0.3316 -0.1219
vn 0.9940 -0.0095 0.1087
vn 0.9897 0.0661 -0.1269
vn 0.9939 -0.0271 -0.1072
vn 0.9834 0.1081 0.1459
vn 0.9941 -0.0376 -0.1019
vn 0.9818 -0.0569 -0.1813
vn 0.7458 -0.6337 0.2056
vn 0.6800 -0.6696 0.2989
vn 0.7257 -0.5451 -0.4199
vn 0.7814 -0.2723 -0.5615
vn 0.7587 0.0707 -0.6476
vn 0.7553 -0.2226 -0.6164
vn 0.7529 -0.5384 -0.3786
vn 0.7606 -0.3166 -0.5667
vn 0.7702 0.0970 -0.6304
vn 0.8435 -0.2878 -0.4535
vn 0.8086 -0.4181 -0.4140
vn 0.8131 0.0001 -0.5822
vn 0.7754 0.1433 -0.6150
vn 0.6400 0.2655 -0.7211
vn 0.4551 0.8208 -0.3453
vn 0.3896 0.8973 0.2075
vn 0.6379 0.4652 0.6137
vn 0.6904 0.4516 0.5652
vn 0.7315 -0.5218 0.4390
vn 0.7192 -0.6194 0.3149
vn 0.6019 -0.6709 -0.4331
vn 0.7259 0.1201 -0.6772
vn 0.6640 0.0855 -0.7428
vn 0.6629 -0.2280 -0.7131
vn -0.6772 0.5357 0.5045
vn -0.7184 -0.6579 -0.2258
vn -0.6952 -0.2304 0.6809
vn -0.7446 -0.5950 -0.3027
vn -0.7556 -0.2051 0.6221
vn -0.7152 -0.0932 -0.6926
vn -0.7147 -0.6453 -0.2698
vn -0.7202 -0.3000 0.6255
vn -0.0003 0.9051 0.4253
vn -0.0003 0.9308 -0.3654
vn -0.0076 0.1777 -0.9841
vn -0.0004 0.3209 0.9471
vn -0.0001 0.6915 0.7224
vn 0.0302 -0.3546 -0.9345
vn -0.0006 -0.9531 -0.3025
vn -0.0022 -0.8701 -0.4928
vn -0.0027 -0.4137 -0.9104
vn -0.0019 -0.4646 -0.8855
vn -0.0010 0.2811 -0.9597
vn -0.0016 0.1456 -0.9893
vn -0.0011 -0.8026 -0.5965
vn 0.0022 0.0903 -0.9959
vn -0.0024 -0.2629 -0.9648
vn -0.0024 -0.7975 -0.6033
vn -0.0022 -0.6025 -0.7981
vn -0.0022 0.1959 -0.9806
vn -0.0020 -0.4445 -0.8958
vn -0.0021 -0.9092 -0.4164
vn -0.0022 -0.3252 -0.9457
vn -0.0020 0.2635 -0.9647
# 153 vertex normals

vt 0.9912 0.3638 0.3638
vt 0.9922 0.3765 0.3765
vt 0.9873 0.3755 0.3755
vt 0.9873 0.3516 0.3516
vt 0.9922 0.3501 0.3501
vt 0.9868 0.3638 0.3638
vt 0.9844 0.3638 0.3638
vt 0.9849 0.3750 0.3750
vt 0.9771 0.3750 0.3750
vt 0.9766 0.3638 0.3638
vt 0.9717 0.3750 0.3750
vt 0.9712 0.3638 0.3638
vt 0.9688 0.3745 0.3745
vt 0.9849 0.3516 0.3516
vt 0.9771 0.3521 0.3521
vt 0.9717 0.3521 0.3521
vt 0.9688 0.3521 0.3521
vt 0.9683 0.3638 0.3638
vt 0.9556 0.3525 0.3525
vt 0.9551 0.3638 0.3638
vt 0.9556 0.3745 0.3745
vt 0.9434 0.3745 0.3745
vt 0.9429 0.3638 0.3638
vt 0.9316 0.3745 0.3745
vt 0.9312 0.3638 0.3638
vt 0.9194 0.3638 0.3638
vt 0.9316 0.3525 0.3525
vt 0.9199 0.3525 0.3525
vt 0.9434 0.3525 0.3525
vt 0.9067 0.3638 0.3638
vt 0.9067 0.3745 0.3745
vt 0.8979 0.3745 0.3745
vt 0.9116 0.3638 0.3638
vt 0.9116 0.3745 0.3745
vt 0.9199 0.3745 0.3745
vt 0.9116 0.3525 0.3525
vt 0.9067 0.3525 0.3525
vt 0.8979 0.3525 0.3525
vt 0.8970 0.3638 0.3638
vt 0.8960 0.3540 0.3540
vt 0.8960 0.3730 0.3730
vt 0.8965 0.4297 0.4297
vt 0.9058 0.3950 0.3950
vt 0.9116 0.3936 0.3936
vt 0.9155 0.3906 0.3906
vt 0.9219 0.3926 0.3926
vt 0.9170 0.4058 0.4058
vt 0.9004 0.4312 0.4312
vt 0.8984 0.4351 0.4351
vt 0.9009 0.4355 0.4355
vt 0.9023 0.4351 0.4351
vt 0.9111 0.4263 0.4263
vt 0.9067 0.4429 0.4429
vt 0.9111 0.4399 0.4399
vt 0.9136 0.4346 0.4346
vt 0.9204 0.4312 0.4312
vt 0.9253 0.4312 0.4312
vt 0.9272 0.4233 0.4233
vt 0.9277 0.4297 0.4297
vt 0.9395 0.4365 0.4365
vt 0.9614 0.4243 0.4243
vt 0.9507 0.4399 0.4399
vt 0.9614 0.4404 0.4404
vt 0.9717 0.4385 0.4385
vt 0.9395 0.4023 0.4023
vt 0.9614 0.4023 0.4023
vt 0.9834 0.4023 0.4023
vt 0.9834 0.4341 0.4341
vt 0.9917 0.4019 0.4019
vt 0.9917 0.4297 0.4297
vt 0.9917 0.4390 0.4390
vt 0.9961 0.4331 0.4331
vt 0.9951 0.3872 0.3872
vt 0.9834 0.3867 0.3867
vt 0.9917 0.3867 0.3867
vt 0.9790 0.4409 0.4409
vt 0.9834 0.4438 0.4438
vt 0.9917 0.4448 0.4448
vt 0.9932 0.4434 0.4434
vt 0.9951 0.3789 0.3789
vt 0.9917 0.3770 0.3770
vt 0.9829 0.3799 0.3799
vt 0.9795 0.3862 0.3862
vt 0.9717 0.3872 0.3872
vt 0.9668 0.3867 0.3867
vt 0.9614 0.3813 0.3813
vt 0.9561 0.3877 0.3877
vt 0.9507 0.3906 0.3906
vt 0.9453 0.3887 0.3887
vt 0.9395 0.3804 0.3804
vt 0.9302 0.3896 0.3896
vt 0.9253 0.3936 0.3936
vt 0.9429 0.3770 0.3770
vt 0.9414 0.3789 0.3789
vt 0.9482 0.3770 0.3770
vt 0.9414 0.3818 0.3818
vt 0.9478 0.3818 0.3818
vt 0.9478 0.3804 0.3804
vt 0.9736 0.3804 0.3804
vt 0.9746 0.3770 0.3770
vt 0.9805 0.3789 0.3789
vt 0.9795 0.3765 0.3765
vt 0.9741 0.3818 0.3818
vt 0.9805 0.3818 0.3818
vt 0.9834 0.4019 0.4019
vt 0.9004 0.4307 0.4307
vt 0.9170 0.4053 0.4053
vt 0.9561 0.3872 0.3872
vt 0.9507 0.3901 0.3901
vt 0.9219 0.3921 0.3921
vt 0.9023 0.4346 0.4346
vt 0.9961 0.4326 0.4326
vt 0.8794 0.3955 0.3955
vt 0.8691 0.3955 0.3955
vt 0.8672 0.3931 0.3931
vt 0.8794 0.4009 0.4009
vt 0.8706 0.4009 0.4009
vt 0.8706 0.4351 0.4351
vt 0.8794 0.4399 0.4399
vt 0.8882 0.4351 0.4351
vt 0.8887 0.4009 0.4009
vt 0.8892 0.3955 0.3955
vt 0.8921 0.3931 0.3931
vt 0.8794 0.3931 0.3931
vt 0.8677 0.3916 0.3916
vt 0.8794 0.3916 0.3916
vt 0.8682 0.3828 0.3828
vt 0.8794 0.3813 0.3813
vt 0.8911 0.3828 0.3828
vt 0.8921 0.3916 0.3916
vt 0.9048 0.3774 0.3774
vt 0.9048 0.3862 0.3862
vt 0.9038 0.3862 0.3862
vt 0.9038 0.3774 0.3774
vt 0.8989 0.3779 0.3779
vt 0.8989 0.3862 0.3862
vt 0.8965 0.3779 0.3779
vt 0.8970 0.3818 0.3818
vt 0.8950 0.3784 0.3784
vt 0.8950 0.3818 0.3818
vt 0.8950 0.3857 0.3857
vt 0.8970 0.3857 0.3857
vt 0.9326 0.3779 0.3779
vt 0.9341 0.3784 0.3784
vt 0.9341 0.3853 0.3853
vt 0.9326 0.3862 0.3862
vt 0.9302 0.3862 0.3862
vt 0.9302 0.3779 0.3779
vt 0.9253 0.3774 0.3774
vt 0.9253 0.3862 0.3862
vt 0.9243 0.3862 0.3862
vt 0.9243 0.3774 0.3774
vt 0.9248 0.3364 0.3364
vt 0.9307 0.3364 0.3364
vt 0.9307 0.3472 0.3472
vt 0.9248 0.3472 0.3472
vt 0.9189 0.3364 0.3364
vt 0.9189 0.3472 0.3472
vt 0.9102 0.3364 0.3364
vt 0.9106 0.3496 0.3496
vt 0.9067 0.3364 0.3364
vt 0.9063 0.3486 0.3486
vt 0.8970 0.3364 0.3364
vt 0.8970 0.3486 0.3486
vt 0.8960 0.3472 0.3472
vt 0.8960 0.3369 0.3369
vt 0.9912 0.3364 0.3364
vt 0.9927 0.3467 0.3467
vt 0.9863 0.3486 0.3486
vt 0.9849 0.3364 0.3364
vt 0.9819 0.3501 0.3501
vt 0.9805 0.3364 0.3364
vt 0.9761 0.3364 0.3364
vt 0.9751 0.3501 0.3501
vt 0.9731 0.3364 0.3364
vt 0.9712 0.3501 0.3501
vt 0.9658 0.3364 0.3364
vt 0.9658 0.3486 0.3486
vt 0.9556 0.3364 0.3364
vt 0.9556 0.3477 0.3477
vt 0.9492 0.3364 0.3364
vt 0.9487 0.3481 0.3481
vt 0.9424 0.3364 0.3364
vt 0.9424 0.3491 0.3491
vt 0.9365 0.3364 0.3364
vt 0.9365 0.3481 0.3481
vt 0.8970 0.3369 0.3369
vt 0.8970 0.3481 0.3481
vt 0.9063 0.3481 0.3481
vt 0.9067 0.3369 0.3369
vt 0.9102 0.3369 0.3369
vt 0.9189 0.3369 0.3369
vt 0.9248 0.3369 0.3369
vt 0.9307 0.3369 0.3369
vt 0.9365 0.3369 0.3369
vt 0.9424 0.3369 0.3369
vt 0.9492 0.3369 0.3369
vt 0.9556 0.3472 0.3472
vt 0.9556 0.3369 0.3369
vt 0.9658 0.3369 0.3369
vt 0.9731 0.3369 0.3369
vt 0.9751 0.3496 0.3496
vt 0.9761 0.3369 0.3369
vt 0.9805 0.3369 0.3369
vt 0.9849 0.3369 0.3369
vt 0.9912 0.3369 0.3369
# 206 texture coords

o grip4
g grip4
usemtl mat_repeater_pistol_INST
s 1
f 1/1/1 2/2/2 3/3/3 
f 4/4/4 5/5/5 1/1/1 
f 1/1/1 6/6/6 4/4/4 
f 3/3/3 6/6/6 1/1/1 
f 7/7/7 6/6/6 3/3/3 
f 3/3/3 8/8/8 7/7/7 
f 7/7/7 8/8/8 9/9/9 
f 9/9/9 10/10/10 7/7/7 
f 10/10/10 9/9/9 11/11/11 
f 11/11/11 12/12/12 10/10/10 
f 12/12/12 11/11/11 13/13/13 
f 4/4/4 6/6/6 7/7/7 
f 7/7/7 14/14/14 4/4/4 
f 15/15/15 14/14/14 7/7/7 
f 7/7/7 10/10/10 15/15/15 
f 16/16/16 15/15/15 10/10/10 
f 10/10/10 12/12/12 16/16/16 
f 17/17/17 16/16/16 12/12/12 
f 12/12/12 18/18/18 17/17/17 
f 19/19/19 17/17/17 18/18/18 
f 18/18/18 20/20/20 19/19/19 
f 13/13/13 18/18/18 12/12/12 
f 18/18/18 13/13/13 21/21/21 
f 21/21/21 20/20/20 18/18/18 
f 20/20/20 21/21/21 22/22/22 
f 22/22/22 23/23/23 20/20/20 
f 23/23/23 22/22/22 24/24/24 
f 24/24/24 25/25/25 23/23/23 
f 26/26/26 25/25/25 24/24/24 
f 27/27/27 25/25/25 26/26/26 
f 26/26/26 28/28/28 27/27/27 
f 29/29/29 19/19/19 20/20/20 
f 20/20/20 23/23/23 29/29/29 
f 27/27/27 29/29/29 23/23/23 
f 23/23/23 25/25/25 27/27/27 
f 30/30/30 31/31/31 32/32/32 
f 31/31/31 30/30/30 33/33/33 
f 33/33/33 34/34/34 31/31/31 
f 35/35/35 34/34/34 33/33/33 
f 33/33/33 26/26/26 35/35/35 
f 24/24/24 35/35/35 26/26/26 
f 28/28/28 26/26/26 33/33/33 
f 33/33/33 36/36/36 28/28/28 
f 37/37/37 36/36/36 33/33/33 
f 33/33/33 30/30/30 37/37/37 
f 38/38/38 37/37/37 30/30/30 
f 30/30/30 39/39/39 38/38/38 
f 40/40/40 38/38/38 39/39/39 
f 39/39/39 41/41/41 40/40/40 
f 39/39/39 32/32/32 41/41/41 
f 32/32/32 39/39/39 30/30/30 
f 42/42/42 43/43/43 44/44/44 
f 45/45/45 46/46/46 47/47/47 
f 47/47/47 44/44/44 45/45/45 
f 48/48/48 44/44/44 47/47/47 
f 44/44/44 48/48/48 42/42/42 
f 48/48/48 49/49/49 42/42/42 
f 50/50/50 49/49/49 48/48/48 
f 48/48/48 51/51/51 50/50/50 
f 52/52/52 51/51/51 48/48/48 
f 2/53/2 51/51/51 52/52/52 
f 52/52/52 3/54/3 2/53/2 
f 8/55/8 3/54/3 52/52/52 
f 9/56/9 8/55/8 52/52/52 
f 11/57/11 9/56/9 52/52/52 
f 52/52/52 53/58/53 11/57/11 
f 13/59/13 11/57/11 53/58/53 
f 53/58/53 21/60/21 13/59/13 
f 21/60/21 53/58/53 54/61/54 
f 54/61/54 22/62/22 21/60/21 
f 54/61/54 24/63/24 22/62/22 
f 35/64/35 24/63/24 54/61/54 
f 47/47/47 52/52/52 48/48/48 
f 52/52/52 47/47/47 55/65/55 
f 53/58/53 52/52/52 55/65/55 
f 53/58/53 55/65/55 56/66/56 
f 56/66/56 54/61/54 53/58/53 
f 54/61/54 56/66/56 57/67/57 
f 57/67/57 58/68/58 54/61/54 
f 58/68/58 57/67/57 59/69/59 
f 59/69/59 60/70/60 58/68/58 
f 58/68/58 60/70/60 61/71/61 
f 61/71/61 60/70/60 62/72/62 
f 63/73/63 62/72/62 60/70/60 
f 64/74/64 57/67/57 56/66/56 
f 57/67/57 64/74/64 65/75/65 
f 65/75/65 59/69/59 57/67/57 
f 35/64/35 54/61/54 58/68/58 
f 58/68/58 34/76/34 35/64/35 
f 31/77/31 34/76/34 58/68/58 
f 31/77/31 58/68/58 61/71/61 
f 61/71/61 32/78/32 31/77/31 
f 61/71/61 62/72/62 32/78/32 
f 62/72/62 41/79/41 32/78/32 
f 60/70/60 59/69/59 63/73/63 
f 59/69/59 65/75/65 63/73/63 
f 66/80/66 63/73/63 65/75/65 
f 65/75/65 67/81/67 66/80/66 
f 68/82/68 67/81/67 65/75/65 
f 65/75/65 64/74/64 68/82/68 
f 69/83/69 68/82/68 64/74/64 
f 56/66/56 69/83/69 64/74/64 
f 56/66/56 70/84/70 69/83/69 
f 56/66/56 71/85/71 70/84/70 
f 56/66/56 72/86/72 71/85/71 
f 72/86/72 56/66/56 73/87/73 
f 56/66/56 74/88/74 73/87/73 
f 74/88/74 56/66/56 55/65/55 
f 55/65/55 75/89/75 74/88/74 
f 55/65/55 76/90/76 75/89/75 
f 76/90/76 55/65/55 77/91/77 
f 77/91/77 55/65/55 47/47/47 
f 47/47/47 78/92/78 77/91/77 
f 47/47/47 46/46/46 78/92/78 
f 40/93/40 79/94/79 80/95/80 
f 79/94/79 81/96/81 82/97/82 
f 82/97/82 83/98/83 79/94/79 
f 79/94/79 83/98/83 80/95/80 
f 80/95/80 83/98/83 84/99/84 
f 84/99/84 85/100/85 80/95/80 
f 86/101/86 85/100/85 84/99/84 
f 87/102/87 85/100/85 86/101/86 
f 84/99/84 88/103/88 89/104/89 
f 89/104/89 86/101/86 84/99/84 
f 90/61/90 91/68/91 92/105/92 
f 93/106/93 94/52/94 95/107/95 
f 96/65/96 95/107/95 94/52/94 
f 94/52/94 97/58/97 96/65/96 
f 98/66/98 96/65/96 97/58/97 
f 97/58/97 90/61/90 98/66/98 
f 92/105/92 98/66/98 90/61/90 
f 98/66/98 92/105/92 99/74/99 
f 100/75/100 99/74/99 92/105/92 
f 92/105/92 101/69/101 100/75/100 
f 101/69/101 92/105/92 91/68/91 
f 98/66/98 102/85/102 103/86/103 
f 103/86/103 104/108/104 98/66/98 
f 98/66/98 104/108/104 105/109/105 
f 96/65/96 98/66/98 105/109/105 
f 105/109/105 106/89/106 96/65/96 
f 96/65/96 106/89/106 107/90/107 
f 107/90/107 108/91/108 96/65/96 
f 95/107/95 96/65/96 108/91/108 
f 108/91/108 109/92/109 95/107/95 
f 95/107/95 109/92/109 110/110/110 
f 95/107/95 110/110/110 111/45/111 
f 111/45/111 112/44/112 95/107/95 
f 95/107/95 112/44/112 93/106/93 
f 93/106/93 112/44/112 113/43/113 
f 113/43/113 114/42/114 93/106/93 
f 114/42/114 115/49/115 93/106/93 
f 93/106/93 115/49/115 116/50/116 
f 116/50/116 117/111/117 93/106/93 
f 94/52/94 93/106/93 117/111/117 
f 94/52/94 117/111/117 5/53/5 
f 5/53/5 4/54/4 94/52/94 
f 14/55/14 94/52/94 4/54/4 
f 15/56/15 94/52/94 14/55/14 
f 94/52/94 15/56/15 16/57/16 
f 16/57/16 97/58/97 94/52/94 
f 17/59/17 97/58/97 16/57/16 
f 97/58/97 17/59/17 19/60/19 
f 90/61/90 97/58/97 19/60/19 
f 19/60/19 29/62/29 90/61/90 
f 27/63/27 90/61/90 29/62/29 
f 90/61/90 27/63/27 28/64/28 
f 91/68/91 90/61/90 28/64/28 
f 28/64/28 36/76/36 91/68/91 
f 37/77/37 91/68/91 36/76/36 
f 118/71/118 91/68/91 37/77/37 
f 37/77/37 38/78/38 118/71/118 
f 80/112/80 118/71/118 38/78/38 
f 80/112/80 38/78/38 40/79/40 
f 91/68/91 119/70/119 101/69/101 
f 91/68/91 118/71/118 119/70/119 
f 80/112/80 119/70/119 118/71/118 
f 119/70/119 80/112/80 85/73/85 
f 85/73/85 101/69/101 119/70/119 
f 101/69/101 85/73/85 100/75/100 
f 100/75/100 85/73/85 87/80/87 
f 87/80/87 120/81/120 100/75/100 
f 100/75/100 120/81/120 121/82/121 
f 121/82/121 99/74/99 100/75/100 
f 122/83/122 99/74/99 121/82/121 
f 99/74/99 122/83/122 98/66/98 
f 98/66/98 122/83/122 123/84/123 
f 98/66/98 123/84/123 102/85/102 
f 41/93/41 62/95/62 124/94/124 
f 125/97/125 126/96/126 124/94/124 
f 124/94/124 127/98/127 125/97/125 
f 124/94/124 62/95/62 127/98/127 
f 128/99/128 127/98/127 62/95/62 
f 62/95/62 63/100/63 128/99/128 
f 129/101/129 128/99/128 63/100/63 
f 66/102/66 129/101/129 63/100/63 
f 128/99/128 129/101/129 130/104/130 
f 130/104/130 131/103/131 128/99/128 
f 132/113/132 49/114/49 50/115/50 
f 49/114/49 132/113/132 133/116/133 
f 133/116/133 42/117/42 49/114/49 
f 43/118/43 42/117/42 133/116/133 
f 133/116/133 134/119/134 43/118/43 
f 113/120/113 134/119/134 133/116/133 
f 133/116/133 114/121/114 113/120/113 
f 115/122/115 114/121/114 133/116/133 
f 133/116/133 132/113/132 115/122/115 
f 116/123/116 115/122/115 132/113/132 
f 135/124/135 50/115/50 51/125/51 
f 51/125/51 136/126/136 135/124/135 
f 136/126/136 51/125/51 2/127/2 
f 2/127/2 1/128/1 136/126/136 
f 136/126/136 1/128/1 5/129/5 
f 5/129/5 117/130/117 136/126/136 
f 136/126/136 117/130/117 116/123/116 
f 116/123/116 135/124/135 136/126/136 
f 132/113/132 135/124/135 116/123/116 
f 50/115/50 135/124/135 132/113/132 
f 84/131/84 128/132/128 131/133/131 
f 131/133/131 88/134/88 84/131/84 
f 89/135/89 88/134/88 131/133/131 
f 131/133/131 130/136/130 89/135/89 
f 86/137/86 89/135/89 130/136/130 
f 130/136/130 137/138/137 86/137/86 
f 87/139/87 86/137/86 137/138/137 
f 137/138/137 138/140/138 87/139/87 
f 66/141/66 138/140/138 137/138/137 
f 137/138/137 129/142/129 66/141/66 
f 137/138/137 130/136/130 129/142/129 
f 79/143/79 40/144/40 41/145/41 
f 41/145/41 124/146/124 79/143/79 
f 79/143/79 124/146/124 126/147/126 
f 126/147/126 81/148/81 79/143/79 
f 82/149/82 81/148/81 126/147/126 
f 126/147/126 125/150/125 82/149/82 
f 82/149/82 125/150/125 127/151/127 
f 127/151/127 83/152/83 82/149/82 
f 84/131/84 83/152/83 127/151/127 
f 127/151/127 128/132/128 84/131/84 
f 139/153/139 140/154/140 103/155/103 
f 103/155/103 102/156/102 139/153/139 
f 141/157/141 139/153/139 102/156/102 
f 102/156/102 123/158/123 141/157/141 
f 142/159/142 141/157/141 123/158/123 
f 123/158/123 122/160/122 142/159/142 
f 143/161/143 142/159/142 122/160/122 
f 122/160/122 121/162/121 143/161/143 
f 144/163/144 143/161/143 121/162/121 
f 121/162/121 120/164/120 144/163/144 
f 144/163/144 120/164/120 87/165/87 
f 87/165/87 138/166/138 144/163/144 
f 134/167/134 113/168/113 112/169/112 
f 112/169/112 145/170/145 134/167/134 
f 145/170/145 112/169/112 111/171/111 
f 111/171/111 146/172/146 145/170/145 
f 147/173/147 146/172/146 111/171/111 
f 111/171/111 110/174/110 147/173/147 
f 148/175/148 147/173/147 110/174/110 
f 110/174/110 109/176/109 148/175/148 
f 149/177/149 148/175/148 109/176/109 
f 109/176/109 108/178/108 149/177/149 
f 150/179/150 149/177/149 108/178/108 
f 108/178/108 107/180/107 150/179/150 
f 151/181/151 150/179/150 107/180/107 
f 107/180/107 106/182/106 151/181/151 
f 152/183/152 151/181/151 106/182/106 
f 106/182/106 105/184/105 152/183/152 
f 153/185/153 152/183/152 105/184/105 
f 105/184/105 104/186/104 153/185/153 
f 140/154/140 153/185/153 104/186/104 
f 104/186/104 103/155/103 140/154/140 
f 144/187/144 138/166/138 66/165/66 
f 66/165/66 67/188/67 144/187/144 
f 144/187/144 67/188/67 68/189/68 
f 68/189/68 143/190/143 144/187/144 
f 143/190/143 68/189/68 69/160/69 
f 69/160/69 142/191/142 143/190/143 
f 142/191/142 69/160/69 70/158/70 
f 70/158/70 141/192/141 142/191/142 
f 141/192/141 70/158/70 71/156/71 
f 71/156/71 139/193/139 141/192/141 
f 139/193/139 71/156/71 72/155/72 
f 72/155/72 140/194/140 139/193/139 
f 140/194/140 72/155/72 73/186/73 
f 73/186/73 153/195/153 140/194/140 
f 153/195/153 73/186/73 74/184/74 
f 74/184/74 152/196/152 153/195/153 
f 152/196/152 74/184/74 75/182/75 
f 75/182/75 151/197/151 152/196/152 
f 151/197/151 75/182/75 76/198/76 
f 76/198/76 150/199/150 151/197/151 
f 150/199/150 76/198/76 77/178/77 
f 77/178/77 149/200/149 150/199/150 
f 149/200/149 77/178/77 78/176/78 
f 78/176/78 148/201/148 149/200/149 
f 148/201/148 78/176/78 46/202/46 
f 46/202/46 147/203/147 148/201/148 
f 147/203/147 46/202/46 45/171/45 
f 45/171/45 146/204/146 147/203/147 
f 145/205/145 146/204/146 45/171/45 
f 45/171/45 44/169/44 145/205/145 
f 145/205/145 44/169/44 43/168/43 
f 43/168/43 134/206/134 145/205/145 
# 0 polygons - 302 triangles

