# 3ds Max Wavefront OBJ Exporter v0.99 - (c)2007 guruware
# File Created: 28.08.2021 12:00:58

mtllib mag1.mtl

#
# object mag1
#

v  0.8155 -11.1389 10.6233
v  0.8155 -11.3199 10.0575
v  -0.8155 -11.3199 10.0575
v  -0.8155 -11.1389 10.6233
v  0.5072 -1.1923 6.2627
v  0.0000 -0.7801 6.2752
v  0.0000 0.6613 9.4452
v  0.5072 0.4153 9.7983
v  0.8155 -1.7768 6.3664
v  0.8155 -0.0021 10.2694
v  0.8155 -9.6499 14.6562
v  0.8155 -11.6687 10.2161
v  -0.8155 -11.6687 10.2161
v  -0.8155 -9.6499 14.6562
v  -0.8155 -0.0021 10.2694
v  -0.8155 -1.7768 6.3664
v  -0.5072 -1.1923 6.2627
v  -0.5072 0.4153 9.7983
# 18 vertices

vn 0.0000 0.9525 -0.3047
vn 0.5051 0.2905 -0.8127
vn 0.0000 0.6689 -0.7434
vn 0.0000 0.9991 -0.0423
vn 0.4940 0.8352 0.2417
vn 0.6086 0.0772 -0.7897
vn 0.5992 0.6765 0.4281
vn 1.0000 0.0000 0.0000
vn 0.0000 -0.4139 -0.9103
vn -0.0000 -0.9103 0.4139
vn 0.0000 -0.9103 0.4139
vn -1.0000 -0.0000 -0.0000
vn -0.5051 0.2905 -0.8127
vn -0.3930 -0.0863 -0.9155
vn -0.3544 0.6719 0.6503
vn -0.4940 0.8352 0.2417
vn 0.0000 0.4139 0.9103
# 17 vertex normals

vt 0.0022 0.5415 0.5415
vt 0.0049 0.5415 0.5415
vt 0.0049 0.5491 0.5491
vt 0.0022 0.5491 0.5491
vt 0.0101 0.6475 0.6475
vt 0.0109 0.6497 0.6497
vt 0.0268 0.6497 0.6497
vt 0.0278 0.6475 0.6475
vt 0.0094 0.6448 0.6448
vt 0.0289 0.6448 0.6448
vt 0.0094 0.5508 0.5508
vt 0.0289 0.5491 0.5491
vt 0.0067 0.5491 0.5491
vt 0.0067 0.5508 0.5508
vt 0.0067 0.5415 0.5415
vt 0.0289 0.5415 0.5415
vt 0.0080 0.6475 0.6475
vt 0.0057 0.6489 0.6489
vt 0.0034 0.6475 0.6475
vt 0.0020 0.6448 0.6448
vt 0.0020 0.5508 0.5508
vt 0.0364 0.5491 0.5491
vt 0.0364 0.6448 0.6448
vt 0.0303 0.6475 0.6475
vt 0.0350 0.6475 0.6475
vt 0.0327 0.6489 0.6489
# 26 texture coords

o mag1
g mag1
usemtl mat_repeater_pistol_INST
s 1
f 1/1/1 2/2/1 3/3/1 
f 3/3/1 4/4/1 1/1/1 
f 5/5/2 6/6/3 7/7/4 
f 7/7/4 8/8/5 5/5/2 
f 9/9/6 5/5/2 8/8/5 
f 8/8/5 10/10/7 9/9/6 
f 1/11/8 9/9/8 10/10/8 
f 1/11/8 10/10/8 11/12/8 
f 12/13/8 1/11/8 11/12/8 
f 12/13/8 2/14/8 1/11/8 
f 12/15/9 13/13/9 3/3/9 
f 3/3/9 2/2/9 12/15/9 
f 12/15/10 11/16/11 14/12/10 
f 14/12/10 13/13/10 12/15/10 
f 15/10/12 16/9/12 4/11/12 
f 14/12/12 15/10/12 4/11/12 
f 13/13/12 14/12/12 4/11/12 
f 13/13/12 4/11/12 3/14/12 
f 17/17/13 6/18/3 5/19/2 
f 17/17/13 5/19/2 9/20/6 
f 9/20/6 16/9/14 17/17/13 
f 16/9/14 9/20/6 1/21/9 
f 1/21/9 4/11/9 16/9/14 
f 16/9/14 15/10/15 18/8/16 
f 18/8/16 17/5/13 16/9/14 
f 17/5/13 18/8/16 7/7/4 
f 7/7/4 6/6/3 17/5/13 
f 14/12/17 11/22/17 10/23/7 
f 10/23/7 15/10/15 14/12/17 
f 18/24/16 15/10/15 10/23/7 
f 10/23/7 8/25/5 18/24/16 
f 8/25/5 7/26/4 18/24/16 
# 0 polygons - 32 triangles

