# 3ds Max Wavefront OBJ Exporter v0.99 - (c)2007 guruware
# File Created: 28.08.2021 12:05:29

mtllib acc1.mtl

#
# object acc1
#

v  -7.5934 6.4225 -5.0719
v  -7.5934 6.4225 -16.5488
v  -7.4372 5.4557 -16.3845
v  -7.2367 5.4557 -4.4449
v  -3.0132 11.4296 -4.4449
v  -3.0132 11.4296 -10.2787
v  -7.5934 11.4296 -10.6110
v  -7.5934 11.4296 -5.0719
v  -7.2367 11.4296 -4.4449
v  -3.0132 5.4557 -4.4449
v  -9.7449 6.7943 -6.5393
v  -11.8128 6.5998 -7.9278
v  -11.7580 6.1994 -7.8946
v  -9.7298 6.3902 -6.5291
v  -7.9273 6.8217 -5.2997
v  -7.9273 10.8610 -5.2997
v  -9.6122 10.1514 -6.4494
v  -9.7298 10.5299 -6.5291
v  -11.6381 9.1711 -7.7916
v  -11.7580 9.5436 -7.8946
v  -14.6030 7.4202 -10.3320
v  -14.6341 7.8186 -10.4396
v  -14.8878 7.2835 -11.1521
v  -14.9490 7.6297 -11.5226
v  -11.7580 9.5436 -13.4418
v  -9.7298 10.5299 -11.4454
v  -14.8259 7.0497 -20.7198
v  -14.8304 7.0333 -14.8468
v  -15.0544 7.3015 -14.7415
v  -15.0544 7.3015 -20.8659
v  -14.9490 7.6297 -20.9397
v  -11.7580 9.5436 -18.7031
v  -15.1170 6.6418 -11.1441
v  -15.2666 6.6408 -11.5226
v  -15.3132 6.6292 -14.3837
v  -15.0376 6.4735 -14.5254
v  -15.0433 6.4043 -20.7170
v  -15.0376 6.3402 -14.5254
v  -14.8304 5.7753 -14.8468
v  -14.8259 5.7588 -20.7198
v  -15.0544 5.5070 -20.8809
v  -15.0544 5.5070 -14.7415
v  -15.3132 6.1793 -14.3837
v  -14.9736 6.3302 -11.5823
v  -14.9712 6.4780 -11.5788
v  -14.9490 5.1788 -20.9397
v  -14.9490 5.1788 -11.5226
v  -15.2666 6.1679 -11.5226
v  -14.7889 6.3227 -11.1379
v  -14.7868 6.4575 -11.1130
v  -14.4989 5.8659 -10.6295
v  -14.5980 5.9081 -11.0876
v  -14.8917 5.6163 -11.1632
v  -15.1103 6.1755 -11.1477
v  -14.7211 5.6737 -10.4690
v  -14.6341 5.2795 -10.4396
v  -14.5384 6.4814 -10.5876
v  -11.6507 6.7664 -8.1784
v  -9.5832 6.9642 -6.7921
v  -7.8987 6.9896 -5.6433
v  -7.8987 10.6219 -5.6433
v  -9.3944 9.9922 -6.6651
v  -11.4116 9.0177 -7.9939
v  -14.3516 7.2192 -10.4646
v  -14.5897 7.0393 -11.0750
v  -11.2946 8.9795 -13.5183
v  -11.2946 8.9795 -18.4463
v  -9.3634 9.9173 -11.5943
v  -7.4378 10.7408 -10.7775
v  -3.0172 10.7196 -10.4720
v  -3.0132 5.4557 -16.3845
v  -11.7580 6.1994 -18.7031
v  -9.7298 6.3902 -17.3505
v  -9.4904 9.8586 -17.2449
v  -7.4657 10.7255 -16.5052
v  -3.0162 10.7196 -16.3814
v  -11.4058 7.0983 -7.5647
v  -11.9104 8.5840 -7.9223
v  -12.0610 8.4453 -8.0290
v  -11.9660 8.4100 -8.3064
v  -11.5200 8.6384 -7.9903
v  -11.7243 8.6185 -7.7905
v  -11.2552 7.2371 -7.4580
v  -11.0427 7.2577 -7.6589
v  -11.4887 7.0294 -7.9750
v  -11.5919 7.0639 -7.6966
v  -13.3932 7.6470 -9.2591
v  -13.0336 7.5242 -9.3502
v  -13.4031 7.6776 -9.6397
v  -13.5441 7.6599 -9.3779
v  -13.7151 6.3726 -9.5267
v  -13.8434 6.4750 -9.6267
v  -13.7012 6.4922 -9.8875
v  -13.3318 6.3388 -9.5980
v  -13.5642 6.3597 -9.4079
v  -13.2649 7.5446 -9.1591
v  -8.6339 8.8738 -5.6171
v  -8.3995 8.5135 -5.8173
v  -8.6192 9.1507 -5.9676
v  -8.7674 9.0890 -5.7084
v  -10.0966 8.4187 -6.6176
v  -10.0635 8.1529 -6.5950
v  -9.9477 8.4784 -6.8764
v  -9.7280 7.8411 -6.7260
v  -9.9300 7.9377 -6.5036
v  -8.6008 8.6080 -5.5944
# 106 vertices

vn -0.9195 -0.1771 0.3509
vn -0.9872 -0.1595 -0.0000
vn -0.9856 -0.1688 0.0008
vn -0.7648 -0.2105 0.6089
vn 0.0000 0.7071 0.7071
vn -0.0000 1.0000 0.0000
vn -0.2221 0.9750 0.0000
vn -0.5245 0.7598 0.3843
vn -0.3986 0.6095 0.6853
vn 0.0000 0.0000 1.0000
vn -0.5010 0.5110 0.6985
vn -0.5892 0.4989 0.6355
vn -0.6085 -0.0172 0.7934
vn -0.5610 -0.0001 0.8278
vn -0.6845 0.1630 0.7106
vn -0.6330 -0.1304 0.7631
vn -0.3384 -0.4660 0.8175
vn -0.6135 0.5914 0.5233
vn -0.3736 -0.4436 0.8147
vn -0.6663 0.5592 0.4933
vn -0.6780 -0.3920 0.6218
vn -0.8058 0.4844 0.3407
vn -0.8444 0.0124 0.5356
vn -0.8117 0.5744 0.1058
vn -0.4983 0.8670 -0.0000
vn -0.4203 0.9074 -0.0000
vn -0.9629 -0.2697 -0.0013
vn -0.9346 -0.1791 -0.3073
vn -0.9843 0.0500 -0.1691
vn -0.9957 -0.0926 -0.0000
vn -0.8146 0.5800 -0.0000
vn -0.5144 0.8576 -0.0000
vn -0.6585 -0.2964 0.6917
vn -0.9203 -0.3495 0.1756
vn -0.9027 -0.3272 -0.2793
vn -0.9600 -0.1807 -0.2138
vn -1.0000 -0.0009 -0.0014
vn -0.9626 0.1692 -0.2118
vn -0.9372 0.1834 -0.2967
vn -0.9609 0.2769 -0.0015
vn -0.9959 0.0901 -0.0010
vn -0.9842 -0.0459 -0.1713
vn -0.8988 0.3262 -0.2929
vn -0.8212 0.5424 0.1770
vn -0.8265 -0.5369 0.1689
vn -0.9521 -0.3057 -0.0000
vn -0.9460 -0.2608 0.1926
vn -0.9178 0.3422 0.2014
vn -0.8024 0.1213 0.5844
vn -0.8130 -0.1282 0.5680
vn -0.7922 0.4518 0.4102
vn -0.7789 0.1030 0.6187
vn -0.8717 -0.0203 0.4896
vn -0.6563 0.3212 0.6827
vn -0.8275 0.3440 0.4438
vn -0.8231 -0.1384 0.5507
vn -0.8118 0.0300 0.5832
vn -0.5892 0.4847 0.6464
vn -0.5053 0.4944 0.7073
vn -0.7987 0.4030 0.4468
vn -0.7336 -0.4434 0.5150
vn -0.3332 -0.4764 0.8137
vn -0.3306 -0.4791 0.8131
vn -0.6196 -0.3974 0.6769
vn -0.7144 -0.1785 0.6766
vn 0.6832 0.6146 -0.3942
vn 0.7728 0.6347 -0.0000
vn 0.6843 0.6129 -0.3952
vn 0.3664 0.4229 -0.8288
vn 0.3672 0.4130 -0.8334
vn 0.1570 0.2725 -0.9493
vn 0.1558 0.2659 -0.9513
vn 0.0697 0.2605 -0.9630
vn 0.0698 0.2617 -0.9626
vn -0.0000 -0.1676 -0.9859
vn 0.1400 -0.0404 -0.9893
vn 0.0283 -0.0184 -0.9994
vn 0.5116 -0.0836 -0.8551
vn 0.2656 -0.2920 -0.9188
vn 0.5502 -0.1914 -0.8128
vn 0.5304 -0.0119 -0.8476
vn 0.5471 0.0024 -0.8370
vn 0.5212 -0.0071 -0.8534
vn 0.4650 -0.0060 -0.8853
vn 0.4239 -0.0042 -0.9057
vn 0.1650 0.0023 -0.9863
vn 0.0278 0.0006 -0.9996
vn 0.4806 0.3018 -0.8234
vn 0.5009 0.2353 -0.8329
vn 0.5103 0.0248 -0.8596
vn -0.0126 0.0000 -0.9999
vn 0.0655 -0.9979 -0.0000
vn 0.0151 -0.9999 -0.0000
vn 0.0396 -0.9992 -0.0000
vn 0.2398 -0.9708 -0.0000
vn 0.1550 -0.9879 -0.0000
vn 0.3046 -0.9525 -0.0000
vn -0.1178 -0.7155 0.6886
vn -0.6042 0.7223 0.3365
vn -0.9558 0.2524 0.1508
vn -0.8434 0.3435 -0.4130
vn 0.3069 0.9041 0.2974
vn -0.0949 0.6849 0.7225
vn 0.2101 -0.2355 0.9489
vn 0.7158 -0.3359 0.6122
vn -0.4150 -0.9020 -0.1192
vn -0.6447 -0.6708 0.3667
vn -0.2098 0.7298 0.6507
vn 0.6495 0.4179 0.6353
vn -0.4243 0.8709 -0.2481
vn -0.7127 0.6507 0.2620
vn -0.5805 -0.7359 0.3485
vn -0.9527 -0.2973 0.0637
vn -0.7503 -0.4161 -0.5138
vn 0.3165 -0.8717 0.3742
vn -0.1027 -0.6538 0.7497
vn 0.1406 0.2956 0.9449
vn 0.2459 0.3058 0.9198
vn 0.6477 -0.4035 0.6463
vn 0.2272 0.9387 0.2592
vn -0.1718 0.7174 0.6752
vn -0.9305 0.3342 0.1502
vn -0.9487 -0.3004 0.0991
vn -0.7874 0.4234 -0.4480
vn -0.3801 -0.9232 -0.0565
vn -0.5986 -0.6832 0.4183
vn 0.1654 -0.2986 0.9399
vn 1.0000 -0.0011 -0.0001
vn 1.0000 0.0007 0.0001
vn 1.0000 0.0006 0.0002
vn 1.0000 0.0003 -0.0004
vn 1.0000 -0.0004 -0.0006
vn 1.0000 -0.0057 0.0000
vn 0.0034 1.0000 -0.0016
vn 0.0013 1.0000 0.0000
vn -0.2207 0.9753 -0.0008
vn -0.1658 0.9862 -0.0019
vn -0.4217 0.9067 -0.0001
vn -0.4060 0.9139 -0.0004
vn -0.4374 0.8993 0.0004
vn -0.4380 0.8990 -0.0000
vn -0.0000 -1.0000 -0.0000
# 142 vertex normals

vt 0.2002 0.7498 0.7498
vt 0.1666 0.7529 0.7529
vt 0.1663 0.7500 0.7500
vt 0.2012 0.7468 0.7468
vt 0.2343 0.7327 0.7327
vt 0.2115 0.7334 0.7334
vt 0.2107 0.7533 0.7533
vt 0.2323 0.7523 0.7523
vt 0.2347 0.7504 0.7504
vt 0.2549 0.7446 0.7446
vt 0.2546 0.7637 0.7637
vt 0.2534 0.7673 0.7673
vt 0.2426 0.7791 0.7791
vt 0.2346 0.7887 0.7887
vt 0.2357 0.7899 0.7899
vt 0.2437 0.7804 0.7804
vt 0.2505 0.7678 0.7678
vt 0.2339 0.7555 0.7555
vt 0.2288 0.7681 0.7681
vt 0.2256 0.7661 0.7661
vt 0.2238 0.7800 0.7800
vt 0.2206 0.7775 0.7775
vt 0.2137 0.7964 0.7964
vt 0.2109 0.7937 0.7937
vt 0.2083 0.7976 0.7976
vt 0.2068 0.7957 0.7957
vt 0.1990 0.7783 0.7783
vt 0.2065 0.7670 0.7670
vt 0.1708 0.8002 0.8002
vt 0.1935 0.7987 0.7987
vt 0.1941 0.7975 0.7975
vt 0.1707 0.7986 0.7986
vt 0.1703 0.7971 0.7971
vt 0.1785 0.7793 0.7793
vt 0.2083 0.7999 0.7999
vt 0.2068 0.7999 0.7999
vt 0.1957 0.7999 0.7999
vt 0.1948 0.8011 0.8011
vt 0.1709 0.8030 0.8030
vt 0.1947 0.8018 0.8018
vt 0.1936 0.8041 0.8041
vt 0.1710 0.8057 0.8057
vt 0.1704 0.8074 0.8074
vt 0.1942 0.8055 0.8055
vt 0.1956 0.8030 0.8030
vt 0.2073 0.8018 0.8018
vt 0.2073 0.8011 0.8011
vt 0.1702 0.8087 0.8087
vt 0.2067 0.8073 0.8073
vt 0.2067 0.8031 0.8031
vt 0.2090 0.8018 0.8018
vt 0.2091 0.8011 0.8011
vt 0.2158 0.8032 0.8032
vt 0.2092 0.8037 0.8037
vt 0.2081 0.8052 0.8052
vt 0.2079 0.8031 0.8031
vt 0.2163 0.8052 0.8052
vt 0.2168 0.8074 0.8074
vt 0.2152 0.8007 0.8007
vt 0.2333 0.7874 0.7874
vt 0.2415 0.7773 0.7773
vt 0.2480 0.7676 0.7676
vt 0.2340 0.7579 0.7579
vt 0.2300 0.7687 0.7687
vt 0.2249 0.7805 0.7805
vt 0.2146 0.7976 0.7976
vt 0.2092 0.7988 0.7988
vt 0.1973 0.7760 0.7760
vt 0.1760 0.7771 0.7771
vt 0.2036 0.7657 0.7657
vt 0.2080 0.7527 0.7527
vt 0.2087 0.7332 0.7332
vt 0.1621 0.7526 0.7526
vt 0.1661 0.7533 0.7533
vt 0.1617 0.7332 0.7332
vt 0.1680 0.7965 0.7965
vt 0.1689 0.7975 0.7975
vt 0.1644 0.7792 0.7792
vt 0.1653 0.7673 0.7673
vt 0.1798 0.7664 0.7664
vt 0.1841 0.7528 0.7528
vt 0.1840 0.7332 0.7332
vt 0.1600 0.7970 0.7970
vt 0.1615 0.7975 0.7975
vt 0.1625 0.7965 0.7965
vt 0.1653 0.7975 0.7975
vt 0.1663 0.7601 0.7601
vt 0.1979 0.7571 0.7571
vt 0.1658 0.7668 0.7668
vt 0.1974 0.7639 0.7639
vt 0.1648 0.7776 0.7776
vt 0.1918 0.7750 0.7750
vt 0.1948 0.7737 0.7737
vt 0.3879 0.7670 0.7670
vt 0.3743 0.7671 0.7671
vt 0.3748 0.7651 0.7651
vt 0.3726 0.7645 0.7645
vt 0.3726 0.7695 0.7695
vt 0.3748 0.7690 0.7690
vt 0.3875 0.7690 0.7690
vt 0.3899 0.7695 0.7695
vt 0.3899 0.7645 0.7645
vt 0.3875 0.7651 0.7651
vt 0.3879 0.7629 0.7629
vt 0.3748 0.7628 0.7628
vt 0.3879 0.7712 0.7712
vt 0.3745 0.7712 0.7712
vt 0.4338 0.7504 0.7504
vt 0.4321 0.7478 0.7478
vt 0.4321 0.7528 0.7528
vt 0.4343 0.7523 0.7523
vt 0.4475 0.7504 0.7504
vt 0.4473 0.7523 0.7523
vt 0.4495 0.7528 0.7528
vt 0.4495 0.7478 0.7478
vt 0.4473 0.7485 0.7485
vt 0.4343 0.7485 0.7485
vt 0.4475 0.7463 0.7463
vt 0.4343 0.7463 0.7463
vt 0.4341 0.7545 0.7545
vt 0.4475 0.7545 0.7545
vt 0.4478 0.7504 0.7504
vt 0.4470 0.7523 0.7523
vt 0.3281 0.8192 0.8192
vt 0.3162 0.8055 0.8055
vt 0.3281 0.8055 0.8055
vt 0.3162 0.8331 0.8331
vt 0.3298 0.8331 0.8331
vt 0.3298 0.8197 0.8197
vt 0.1650 0.7361 0.7361
vt 0.2000 0.7327 0.7327
# 131 texture coords

o acc1
g acc1
usemtl mat_rocket_launcher_new
s 1
f 1/1/1 2/2/2 3/3/3 
f 3/3/3 4/4/4 1/1/1 
f 5/5/5 6/6/6 7/7/7 
f 7/7/7 8/8/8 5/5/5 
f 8/8/8 9/9/9 5/5/5 
f 10/10/10 5/5/5 9/9/9 
f 9/9/9 4/11/4 10/10/10 
f 4/11/4 9/9/9 8/8/8 
f 8/8/8 1/12/1 4/11/4 
f 11/13/11 12/14/12 13/15/13 
f 13/15/13 14/16/14 11/13/11 
f 15/17/15 11/13/11 14/16/14 
f 14/16/14 1/12/1 15/17/15 
f 16/18/16 15/17/15 1/12/1 
f 1/12/1 8/8/8 16/18/16 
f 17/19/17 16/18/16 8/8/8 
f 8/8/8 18/20/18 17/19/17 
f 19/21/19 17/19/17 18/20/18 
f 18/20/18 20/22/20 19/21/19 
f 21/23/21 19/21/19 20/22/20 
f 20/22/20 22/24/22 21/23/21 
f 23/25/23 21/23/21 22/24/22 
f 22/24/22 24/26/24 23/25/23 
f 24/26/24 22/24/22 20/22/20 
f 20/22/20 25/27/25 24/26/24 
f 25/27/25 20/22/20 18/20/18 
f 18/20/18 26/28/26 25/27/25 
f 7/7/7 26/28/26 18/20/18 
f 18/20/18 8/8/8 7/7/7 
f 27/29/27 28/30/28 29/31/29 
f 29/31/29 30/32/30 27/29/27 
f 30/32/30 29/31/29 24/26/24 
f 24/26/24 31/33/31 30/32/30 
f 31/33/31 24/26/24 25/27/25 
f 25/27/25 32/34/32 31/33/31 
f 33/35/33 23/25/23 24/26/24 
f 24/26/24 34/36/34 33/35/33 
f 34/36/34 24/26/24 29/31/29 
f 29/31/29 35/37/35 34/36/34 
f 35/37/35 29/31/29 28/30/28 
f 28/30/28 36/38/36 35/37/35 
f 36/38/36 28/30/28 27/29/27 
f 27/29/27 37/39/37 36/38/36 
f 37/39/37 38/40/38 36/38/36 
f 39/41/39 38/40/38 37/39/37 
f 34/36/34 35/37/35 36/38/36 
f 37/39/37 40/42/40 39/41/39 
f 39/41/39 40/42/40 41/43/41 
f 42/44/42 43/45/43 38/40/38 
f 44/46/44 38/40/38 43/45/43 
f 36/38/36 38/40/38 44/46/44 
f 44/46/44 45/47/45 36/38/36 
f 36/38/36 45/47/45 34/36/34 
f 33/35/33 34/36/34 45/47/45 
f 38/40/38 39/41/39 42/44/42 
f 41/43/41 42/44/42 39/41/39 
f 42/44/42 41/43/41 46/48/46 
f 46/48/46 47/49/47 42/44/42 
f 43/45/43 42/44/42 47/49/47 
f 47/49/47 48/50/48 43/45/43 
f 43/45/43 48/50/48 44/46/44 
f 49/51/49 44/46/44 48/50/48 
f 45/47/45 44/46/44 49/51/49 
f 49/51/49 50/52/50 45/47/45 
f 51/53/51 52/54/52 53/55/53 
f 54/56/54 53/55/53 52/54/52 
f 52/54/52 49/51/49 54/56/54 
f 48/50/48 54/56/54 49/51/49 
f 53/55/53 54/56/54 48/50/48 
f 48/50/48 47/49/47 53/55/53 
f 55/57/55 53/55/53 47/49/47 
f 47/49/47 56/58/56 55/57/55 
f 12/14/12 55/57/55 56/58/56 
f 56/58/56 13/15/13 12/14/12 
f 57/59/57 51/53/51 58/60/58 
f 59/61/59 60/62/60 61/63/61 
f 61/63/61 62/64/62 59/61/59 
f 58/60/58 59/61/59 62/64/62 
f 62/64/62 63/65/63 58/60/58 
f 57/59/57 58/60/58 63/65/63 
f 63/65/63 64/66/64 57/59/57 
f 57/59/57 64/66/64 65/67/65 
f 65/67/65 50/52/50 57/59/57 
f 49/51/49 57/59/57 50/52/50 
f 51/53/51 57/59/57 49/51/49 
f 49/51/49 52/54/52 51/53/51 
f 45/47/45 50/52/50 33/35/33 
f 23/25/23 33/35/33 50/52/50 
f 50/52/50 65/67/65 23/25/23 
f 21/23/21 23/25/23 65/67/65 
f 65/67/65 64/66/64 21/23/21 
f 19/21/19 21/23/21 64/66/64 
f 64/66/64 63/65/63 19/21/19 
f 17/19/17 19/21/19 63/65/63 
f 63/65/63 62/64/62 17/19/17 
f 16/18/16 17/19/17 62/64/62 
f 62/64/62 61/63/61 16/18/16 
f 15/17/15 16/18/16 61/63/61 
f 61/63/61 60/62/60 15/17/15 
f 11/13/11 15/17/15 60/62/60 
f 60/62/60 59/61/59 11/13/11 
f 12/14/12 11/13/11 59/61/59 
f 59/61/59 58/60/58 12/14/12 
f 55/57/55 12/14/12 58/60/58 
f 58/60/58 51/53/51 55/57/55 
f 53/55/53 55/57/55 51/53/51 
f 66/68/66 67/69/67 32/34/67 
f 32/34/67 25/27/68 66/68/66 
f 68/70/69 66/68/66 25/27/68 
f 25/27/68 26/28/70 68/70/69 
f 69/71/71 68/70/69 26/28/70 
f 26/28/70 7/7/72 69/71/71 
f 70/72/73 69/71/71 7/7/72 
f 7/7/72 6/6/74 70/72/73 
f 3/73/75 2/74/76 71/75/77 
f 27/76/78 30/77/79 31/33/80 
f 31/33/80 32/34/81 27/76/78 
f 27/76/78 32/34/81 72/78/82 
f 32/34/81 67/69/83 72/78/82 
f 73/79/84 72/78/82 67/69/83 
f 67/69/83 74/80/85 73/79/84 
f 2/74/76 73/79/84 74/80/85 
f 74/80/85 75/81/86 2/74/76 
f 71/75/77 2/74/76 75/81/86 
f 75/81/86 76/82/87 71/75/77 
f 72/78/82 46/83/88 41/84/89 
f 41/84/89 40/85/90 72/78/82 
f 72/78/82 40/85/90 27/76/78 
f 37/86/91 27/76/78 40/85/90 
f 73/87/92 2/2/93 1/1/93 
f 1/1/93 14/88/94 73/87/92 
f 72/89/95 73/87/92 14/88/94 
f 14/88/94 13/90/96 72/89/95 
f 13/90/96 46/91/97 72/89/95 
f 13/90/96 47/92/97 46/91/97 
f 13/90/96 56/93/97 47/92/97 
f 77/94/98 78/95/99 79/96/100 
f 78/95/99 80/97/101 79/96/100 
f 78/95/99 81/98/102 80/97/101 
f 78/95/99 82/99/103 81/98/102 
f 82/99/103 78/95/99 77/94/98 
f 77/94/98 83/100/104 82/99/103 
f 77/94/98 84/101/105 83/100/104 
f 85/102/106 84/101/105 77/94/98 
f 85/102/106 77/94/98 86/103/107 
f 79/96/100 86/103/107 77/94/98 
f 85/104/106 86/103/107 79/96/100 
f 79/96/100 80/105/101 85/104/106 
f 83/100/104 84/106/105 81/107/102 
f 81/107/102 82/99/103 83/100/104 
f 87/108/108 88/109/109 89/110/110 
f 87/108/108 89/110/110 90/111/111 
f 91/112/112 87/108/108 90/111/111 
f 90/111/111 92/113/113 91/112/112 
f 93/114/114 91/112/112 92/113/113 
f 93/114/114 94/115/115 91/112/112 
f 91/112/112 94/115/115 95/116/116 
f 87/108/108 91/112/112 95/116/116 
f 95/116/116 96/117/117 87/108/108 
f 96/117/117 88/109/109 87/108/108 
f 94/118/115 88/119/109 96/117/117 
f 96/117/117 95/116/116 94/118/115 
f 92/113/113 90/111/111 89/120/110 
f 89/120/110 93/121/114 92/113/113 
f 97/122/118 98/115/119 99/114/120 
f 97/122/118 99/114/120 100/123/121 
f 97/122/118 100/123/121 101/111/122 
f 101/111/122 102/108/123 97/122/118 
f 102/108/123 101/111/122 103/110/124 
f 104/109/125 102/108/123 103/110/124 
f 104/109/125 105/117/126 102/108/123 
f 102/108/123 105/117/126 106/116/127 
f 106/116/127 105/117/126 104/119/125 
f 104/119/125 98/118/119 106/116/127 
f 106/116/127 98/115/119 97/122/118 
f 106/116/127 97/122/118 102/108/123 
f 101/111/122 100/123/121 99/121/120 
f 99/121/120 103/120/124 101/111/122 
f 70/124/128 71/125/129 76/126/130 
f 10/127/131 71/125/129 70/124/128 
f 10/127/131 70/124/128 5/128/132 
f 5/128/132 70/124/128 6/129/133 
f 70/72/134 76/82/135 75/81/136 
f 75/81/136 69/71/137 70/72/134 
f 69/71/137 75/81/136 74/80/138 
f 74/80/138 68/70/139 69/71/137 
f 66/68/140 68/70/139 74/80/138 
f 74/80/138 67/69/141 66/68/140 
f 71/130/142 10/131/142 4/4/142 
f 4/4/142 3/3/142 71/130/142 
# 0 polygons - 190 triangles

