# 3ds Max Wavefront OBJ Exporter v0.99 - (c)2007 guruware
# File Created: 28.08.2021 12:14:13

mtllib acc2.mtl

#
# object acc2
#

v  -5.4177 5.5211 -5.6766
v  -5.8688 5.5211 -5.6766
v  -5.8688 5.5211 -5.1771
v  -5.4177 5.5211 -5.1771
v  -6.2123 10.7157 -5.5903
v  -6.0902 10.9157 -5.3789
v  -5.7567 10.9157 -5.3789
v  -5.6346 10.7157 -5.5903
v  -5.5900 10.9157 -5.0901
v  -5.9235 10.9889 -5.0901
v  -6.2570 10.9157 -5.0901
v  -6.5011 10.7157 -5.0901
v  -6.5905 10.4426 -5.0901
v  -6.2570 10.4426 -5.6677
v  -6.5905 7.0242 -5.0901
v  -6.2570 7.0242 -5.6677
v  -5.5900 10.4426 -5.6677
v  -5.5900 7.0242 -5.6677
v  -6.2123 6.7511 -5.5903
v  -5.6346 6.7511 -5.5903
v  -6.0902 6.5511 -5.3789
v  -5.7567 6.5511 -5.3789
v  -5.9235 6.4779 -5.0901
v  -6.5011 6.7511 -5.0901
v  -6.2570 6.5511 -5.0901
v  -5.5900 6.5511 -5.0901
v  -5.3458 6.7511 -5.0901
v  -5.2565 7.0242 -5.0901
v  -5.2565 10.4426 -5.0901
v  -5.3458 10.7157 -5.0901
v  -8.2959 11.3508 -5.4760
v  -8.5807 11.3508 -5.9693
v  -8.3613 10.8681 -5.9693
v  -7.8360 10.8681 -5.6660
v  -8.1862 10.8681 -5.6660
v  -7.7263 11.3508 -5.4760
v  -7.8511 14.6031 -5.6921
v  -8.1711 14.6031 -5.6921
v  -8.3312 14.6031 -5.9693
v  -8.0111 14.8225 -5.9693
v  -7.6911 14.6031 -5.9693
v  -7.4415 11.3508 -5.9693
v  -7.6609 10.8681 -5.9693
v  -7.8360 10.8681 -6.2725
v  -8.1862 10.8681 -6.2725
v  -3.2736 7.2069 -5.9657
v  -3.2730 5.2711 -5.9657
v  -5.9802 5.2711 -5.9657
v  -7.3729 7.2240 -5.9657
v  -3.2736 7.2240 -12.1649
v  -7.3729 7.2240 -12.1649
v  -3.2732 5.9418 -13.4450
v  -6.4505 5.9418 -13.4450
v  -3.2730 5.2711 -13.4450
v  -5.9802 5.2711 -13.4450
v  -7.4683 7.8498 -5.6766
v  -7.4683 7.8498 -5.1771
v  -7.5589 8.0988 -5.5544
v  -7.5589 8.0988 -5.6821
v  -7.5589 9.6714 -5.6821
v  -5.4177 11.5013 -5.6766
v  -7.4074 9.8913 -5.6766
v  -5.8924 11.5013 -5.6766
v  -5.8924 11.5013 -5.1771
v  -7.4074 9.8913 -5.1771
v  -7.5589 9.6714 -5.5544
v  -5.4177 11.5013 -5.1771
v  -5.4177 6.3890 -5.1771
v  -5.4177 11.2284 -5.1771
v  -4.9804 6.1160 -5.7756
v  -5.6940 5.7040 -5.7756
v  -5.6940 5.7040 -13.5079
v  -4.9804 6.1160 -13.5079
v  -4.9804 6.9400 -5.7756
v  -4.9804 6.9400 -13.5079
v  -5.6940 7.3520 -5.7756
v  -5.6940 7.3520 -13.5079
v  -7.8089 9.8899 -13.7268
v  -5.9802 11.7513 -13.7268
v  -3.2737 11.7513 -13.7268
v  -3.2737 9.8899 -13.7268
v  -7.8089 7.8547 -15.2614
v  -3.2737 7.8547 -15.2614
v  -5.9802 5.2711 -17.2386
v  -3.2737 5.2711 -17.2386
v  -7.8089 9.8899 -5.1771
v  -7.8089 9.6715 -5.5544
v  -5.9802 11.7513 -5.1771
v  -3.2737 11.7513 -5.1771
v  -3.2737 11.2284 -5.1771
v  -3.2737 5.2711 -5.1771
v  -3.2737 6.3890 -5.1771
v  -5.9802 5.2711 -5.1771
v  -7.8089 7.8547 -5.1771
v  -7.8089 8.0988 -5.5544
v  -7.8089 9.8899 -5.3642
v  -7.2895 10.4264 -5.3642
v  -6.9532 10.7618 -5.4732
v  -6.7588 10.9692 -5.7586
v  -6.7588 10.9692 -6.1114
v  -6.9532 10.7618 -6.3967
v  -7.2895 10.4264 -6.5057
v  -7.8089 9.8899 -6.5057
v  -8.3353 10.6838 -5.5810
v  -8.3353 10.4065 -5.4909
v  -7.8083 10.4264 -5.3642
v  -7.8083 10.7618 -5.4732
v  -8.3353 10.8540 -5.7998
v  -7.8083 10.9692 -5.7586
v  -8.3353 10.8540 -6.0702
v  -7.8083 10.9692 -6.1114
v  -8.3353 10.6838 -6.2890
v  -7.8083 10.7618 -6.3967
v  -8.3353 10.4065 -6.3791
v  -7.8083 10.4264 -6.5057
v  -8.3357 10.0168 -6.3791
v  -8.3357 10.0168 -5.4909
v  -6.2570 10.4426 -4.5124
v  -6.2570 7.0242 -4.5124
v  -5.5900 7.0242 -4.5124
v  -5.5900 10.4426 -4.5124
v  -6.2123 10.7157 -4.5898
v  -5.6346 10.7157 -4.5898
v  -6.0902 10.9157 -4.8013
v  -5.7567 10.9157 -4.8013
v  -6.2123 6.7511 -4.5898
v  -5.6346 6.7511 -4.5898
v  -5.7567 6.5511 -4.8013
v  -6.0902 6.5511 -4.8013
v  -8.1711 14.6031 -6.2464
v  -7.8511 14.6031 -6.2464
v  -7.7263 11.3508 -6.4625
v  -8.2959 11.3508 -6.4625
v  -3.3107 7.1451 -16.2640
v  -3.3107 7.1451 -13.0927
v  -6.5758 7.1451 -13.0927
v  -6.5758 7.1451 -16.2640
v  -6.5758 10.1714 -13.0927
v  -6.5758 10.1714 -16.2640
v  -5.8200 11.0214 -16.2640
v  -5.8200 11.0214 -13.0927
v  -3.3107 11.0214 -13.0927
v  -3.3107 11.0214 -16.2640
v  -3.2737 6.3890 -4.6516
v  -5.4177 6.3890 -4.6516
v  -5.4177 6.6290 -4.4116
v  -3.2737 6.6290 -4.4116
v  -5.4177 10.9884 -4.4116
v  -3.2737 10.9884 -4.4116
v  -5.4177 11.2284 -4.6516
v  -3.2737 11.2284 -4.6516
v  -6.4077 6.9400 -5.7756
v  -6.4077 6.9400 -13.5079
v  -6.4077 6.1160 -5.7756
v  -6.4077 6.1160 -13.5079
# 155 vertices

vn -0.5000 0.7073 0.4998
vn 0.2959 0.8160 0.4966
vn 0.4657 0.8849 -0.0000
vn -0.7071 0.7071 -0.0000
vn -0.4251 0.5265 -0.7363
vn -0.2470 0.8695 -0.4278
vn 0.2470 0.8695 -0.4278
vn 0.4251 0.5265 -0.7363
vn 0.4940 0.8695 -0.0000
vn 0.0000 1.0000 -0.0000
vn -0.4940 0.8695 -0.0000
vn -0.8502 0.5265 -0.0000
vn -0.9887 0.1502 -0.0000
vn -0.4943 0.1502 -0.8562
vn -0.9887 -0.1502 -0.0000
vn -0.4943 -0.1502 -0.8562
vn 0.4943 0.1502 -0.8562
vn 0.4943 -0.1502 -0.8562
vn -0.4251 -0.5265 -0.7363
vn 0.4251 -0.5265 -0.7363
vn -0.2470 -0.8695 -0.4278
vn 0.2470 -0.8695 -0.4278
vn 0.0000 -1.0000 -0.0000
vn -0.8502 -0.5265 -0.0000
vn -0.4940 -0.8695 -0.0000
vn 0.4940 -0.8695 -0.0000
vn 0.8502 -0.5265 -0.0000
vn 0.9887 -0.1502 -0.0000
vn 0.9887 0.1502 -0.0000
vn 0.8502 0.5265 -0.0000
vn -0.4934 -0.1619 0.8546
vn -0.9868 -0.1619 -0.0000
vn -0.7107 -0.6936 -0.1175
vn 0.3225 -0.7642 0.5585
vn -0.3225 -0.7642 0.5585
vn 0.4934 -0.1619 0.8546
vn 0.4471 0.4478 0.7743
vn -0.4471 0.4478 0.7743
vn -0.8941 0.4479 -0.0000
vn 0.8941 0.4478 -0.0000
vn 0.9868 -0.1619 -0.0000
vn 0.7107 -0.6936 -0.1175
vn 0.2707 -0.8408 -0.4689
vn -0.2707 -0.8408 -0.4689
vn -0.0029 -0.7051 -0.7091
vn 0.0000 -0.7071 -0.7071
vn -0.3238 -0.6286 -0.7071
vn -0.4759 -0.8278 -0.2971
vn -0.0008 -0.9239 0.3826
vn -0.4669 -0.8661 0.1785
vn -0.0000 -0.3822 0.9241
vn -0.5068 -0.6784 0.5319
vn 0.0000 -0.7071 0.7071
vn -0.3262 -0.6273 0.7071
vn 0.6650 0.3516 0.6590
vn 0.8622 0.5065 -0.0000
vn 0.9768 0.2139 -0.0000
vn 0.7297 0.1305 0.6712
vn 0.7275 -0.2279 0.6472
vn -0.5774 -0.5776 0.5770
vn 0.5759 -0.4769 0.6640
vn 0.3088 -0.7145 0.6278
vn 0.3967 -0.9179 -0.0000
vn 0.7569 -0.6536 -0.0000
vn 0.9309 -0.3653 -0.0000
vn -0.7071 -0.7071 -0.0000
vn -1.0000 0.0000 -0.0000
vn -1.0000 0.0000 0.0000
vn 0.8660 -0.5000 -0.0000
vn 0.8660 0.5000 -0.0000
vn 0.0000 0.4192 -0.9079
vn 0.0000 -0.0000 -1.0000
vn 0.0000 0.3175 -0.9483
vn 0.0000 0.6044 -0.7967
vn 0.0000 0.6049 -0.7963
vn 0.0000 0.6077 -0.7941
vn 0.0014 -0.6523 0.7580
vn -0.0003 -0.4997 0.8662
vn 0.0007 -0.5461 0.8377
vn 0.0012 -0.3403 0.9403
vn -0.0000 0.0000 1.0000
vn 0.0000 0.0000 1.0000
vn 0.0000 0.7071 0.7071
vn -0.5774 0.5774 0.5774
vn -0.5774 -0.5774 0.5774
vn 0.0086 0.5933 0.8049
vn 0.0035 0.3634 0.9316
vn 0.0028 0.4755 0.8797
vn 0.0000 0.5017 0.8650
vn -0.8311 0.5561 -0.0000
vn -0.9683 0.2500 0.0017
vn -0.3849 0.9230 0.0020
vn -0.7147 0.6937 0.0892
vn -0.7114 0.7027 -0.0106
vn -0.7121 0.7020 0.0093
vn -0.3866 0.9223 -0.0004
vn -0.7131 0.7011 -0.0009
vn -0.7186 0.6955 -0.0015
vn -0.7125 0.7017 0.0007
vn -0.9497 0.3131 -0.0003
vn -0.9688 0.2479 -0.0000
vn -0.0000 -1.0000 0.0000
vn -0.4582 -0.8888 0.0012
vn -0.9002 -0.4355 0.0042
vn -0.9076 -0.4197 -0.0004
vn -0.0000 -1.0000 -0.0000
vn -0.3581 -0.9337 0.0004
vn -0.7889 0.3526 0.5033
vn -0.7862 0.0971 0.6103
vn -0.1176 0.1554 0.9808
vn -0.1177 0.5819 0.8047
vn -0.7852 0.5872 0.1969
vn -0.1113 0.9450 0.3077
vn -0.7830 0.5885 -0.2016
vn -0.1141 0.9440 -0.3097
vn -0.7868 0.3574 -0.5032
vn -0.1205 0.5835 -0.8031
vn -0.7862 0.0971 -0.6103
vn -0.1176 0.1554 -0.9808
vn -0.7301 -0.4829 -0.4836
vn -0.2667 -0.6757 -0.6873
vn 0.0000 0.2322 -0.9727
vn 0.0000 0.6961 -0.7180
vn 0.0000 0.9684 -0.2495
vn 0.0000 0.9684 0.2495
vn 0.0000 0.6961 0.7180
vn 0.0000 0.2322 0.9727
vn -0.2483 -0.5157 0.8200
vn -0.8133 -0.4111 0.4117
vn -0.4943 0.1502 0.8562
vn -0.4943 -0.1502 0.8562
vn 0.4943 -0.1502 0.8562
vn 0.4943 0.1502 0.8562
vn -0.4251 0.5265 0.7363
vn 0.4251 0.5265 0.7363
vn -0.2470 0.8695 0.4278
vn 0.2470 0.8695 0.4278
vn -0.4251 -0.5265 0.7363
vn 0.4251 -0.5265 0.7363
vn 0.2470 -0.8695 0.4278
vn -0.2470 -0.8695 0.4278
vn -0.4471 0.4478 -0.7743
vn 0.4471 0.4478 -0.7743
vn 0.4934 -0.1619 -0.8546
vn -0.4934 -0.1619 -0.8546
vn -0.0000 -0.7071 0.7071
vn -0.5000 -0.5000 -0.7071
vn -0.7219 0.2745 0.6352
vn -0.6610 0.2514 -0.7071
vn -0.2896 0.6451 -0.7071
vn -0.3196 0.7118 0.6255
vn 0.0000 0.7072 -0.7071
vn 0.0000 -0.9239 0.3827
vn -0.7071 -0.6533 0.2706
vn -0.6303 -0.2971 0.7173
vn 0.0000 -0.3827 0.9239
vn -0.6303 0.2971 0.7173
vn 0.0000 0.3827 0.9239
vn -0.7071 0.6533 0.2706
vn 0.0000 0.9239 0.3827
vn -0.8660 0.5000 0.0000
vn -0.8660 -0.5000 0.0000
# 162 vertex normals

vt 0.7734 0.7694 0.7694
vt 0.7715 0.7694 0.7694
vt 0.7715 0.7711 0.7711
vt 0.7734 0.7711 0.7711
vt 0.7573 0.7471 0.7471
vt 0.7568 0.7456 0.7456
vt 0.7549 0.7456 0.7456
vt 0.7544 0.7471 0.7471
vt 0.7534 0.7456 0.7456
vt 0.7559 0.7449 0.7449
vt 0.7583 0.7456 0.7456
vt 0.7603 0.7471 0.7471
vt 0.7607 0.7485 0.7485
vt 0.7578 0.7485 0.7485
vt 0.7607 0.7655 0.7655
vt 0.7578 0.7655 0.7655
vt 0.7539 0.7485 0.7485
vt 0.7539 0.7655 0.7655
vt 0.7573 0.7668 0.7668
vt 0.7544 0.7668 0.7668
vt 0.7568 0.7683 0.7683
vt 0.7549 0.7683 0.7683
vt 0.7559 0.7692 0.7692
vt 0.7603 0.7668 0.7668
vt 0.7583 0.7683 0.7683
vt 0.7534 0.7683 0.7683
vt 0.7515 0.7668 0.7668
vt 0.7510 0.7655 0.7655
vt 0.7510 0.7485 0.7485
vt 0.7515 0.7471 0.7471
vt 0.7266 0.8373 0.8373
vt 0.7241 0.8373 0.8373
vt 0.7256 0.8350 0.8350
vt 0.7290 0.8350 0.8350
vt 0.7275 0.8350 0.8350
vt 0.7295 0.8373 0.8373
vt 0.7290 0.8528 0.8528
vt 0.7275 0.8528 0.8528
vt 0.7261 0.8528 0.8528
vt 0.7280 0.8539 0.8539
vt 0.7305 0.8528 0.8528
vt 0.7319 0.8373 0.8373
vt 0.7305 0.8350 0.8350
vt 0.9897 0.9853 0.9853
vt 0.9951 0.9853 0.9853
vt 0.9951 0.9936 0.9936
vt 0.9897 0.9979 0.9979
vt 0.9688 0.9853 0.9853
vt 0.9688 0.9979 0.9979
vt 0.9639 0.9853 0.9853
vt 0.9639 0.9951 0.9951
vt 0.9619 0.9853 0.9853
vt 0.9619 0.9936 0.9936
vt 0.7744 0.7656 0.7656
vt 0.7661 0.7562 0.7562
vt 0.7725 0.7656 0.7656
vt 0.7642 0.7562 0.7562
vt 0.7705 0.7656 0.7656
vt 0.7651 0.7552 0.7552
vt 0.7656 0.7552 0.7552
vt 0.7656 0.7490 0.7490
vt 0.7744 0.7417 0.7417
vt 0.7661 0.7480 0.7480
vt 0.7725 0.7417 0.7417
vt 0.7705 0.7417 0.7417
vt 0.7646 0.7480 0.7480
vt 0.7651 0.7490 0.7490
vt 0.7744 0.7397 0.7397
vt 0.7725 0.7397 0.7397
vt 0.7759 0.7656 0.7656
vt 0.7759 0.7621 0.7621
vt 0.7759 0.7427 0.7427
vt 0.7759 0.7417 0.7417
vt 0.7231 0.8906 0.8906
vt 0.7231 0.8875 0.8875
vt 0.6963 0.8875 0.8875
vt 0.6963 0.8906 0.8906
vt 0.7231 0.8942 0.8942
vt 0.6963 0.8942 0.8942
vt 0.7231 0.8973 0.8973
vt 0.6963 0.8973 0.8973
vt 0.6514 0.8210 0.8210
vt 0.6426 0.8307 0.8307
vt 0.6294 0.8307 0.8307
vt 0.6294 0.8210 0.8210
vt 0.6514 0.8104 0.8104
vt 0.6294 0.8104 0.8104
vt 0.6426 0.7970 0.7970
vt 0.6294 0.7970 0.7970
vt 0.6514 0.8199 0.8199
vt 0.6499 0.8199 0.8199
vt 0.6494 0.8210 0.8210
vt 0.6421 0.8295 0.8295
vt 0.6396 0.8295 0.8295
vt 0.6294 0.8280 0.8280
vt 0.6396 0.8280 0.8280
vt 0.6294 0.8029 0.8029
vt 0.6396 0.8029 0.8029
vt 0.6396 0.7983 0.7983
vt 0.6421 0.7983 0.7983
vt 0.6494 0.8104 0.8104
vt 0.6514 0.8118 0.8118
vt 0.6499 0.8118 0.8118
vt 0.6255 0.8096 0.8096
vt 0.6274 0.8107 0.8107
vt 0.6265 0.8107 0.8107
vt 0.6274 0.8212 0.8212
vt 0.6265 0.8137 0.8137
vt 0.6260 0.8156 0.8156
vt 0.6245 0.8168 0.8168
vt 0.5889 0.8212 0.8212
vt 0.6230 0.8168 0.8168
vt 0.6221 0.8156 0.8156
vt 0.6216 0.8137 0.8137
vt 0.5889 0.8107 0.8107
vt 0.6216 0.8107 0.8107
vt 0.6274 0.8324 0.8324
vt 0.5889 0.8324 0.8324
vt 0.6240 0.7743 0.7743
vt 0.6274 0.7743 0.7743
vt 0.6274 0.7864 0.7864
vt 0.6240 0.7864 0.7864
vt 0.6240 0.7974 0.7974
vt 0.6274 0.8009 0.8009
vt 0.5820 0.8009 0.8009
vt 0.6255 0.8021 0.8021
vt 0.5728 0.7743 0.7743
vt 0.5903 0.7743 0.7743
vt 0.5903 0.7864 0.7864
vt 0.5728 0.7864 0.7864
vt 0.5903 0.7902 0.7902
vt 0.5957 0.7974 0.7974
vt 0.7578 0.7434 0.7434
vt 0.7568 0.7434 0.7434
vt 0.7563 0.7417 0.7417
vt 0.7573 0.7417 0.7417
vt 0.7588 0.7434 0.7434
vt 0.7588 0.7417 0.7417
vt 0.7598 0.7434 0.7434
vt 0.7598 0.7417 0.7417
vt 0.7607 0.7434 0.7434
vt 0.7612 0.7417 0.7417
vt 0.7617 0.7434 0.7434
vt 0.7622 0.7417 0.7417
vt 0.7627 0.7434 0.7434
vt 0.7637 0.7417 0.7417
vt 0.7622 0.7400 0.7400
vt 0.7612 0.7390 0.7390
vt 0.7598 0.7383 0.7383
vt 0.7588 0.7383 0.7383
vt 0.7573 0.7390 0.7390
vt 0.7563 0.7400 0.7400
vt 0.7549 0.7417 0.7417
vt 0.7559 0.7434 0.7434
vt 0.7524 0.7417 0.7417
vt 0.7529 0.7434 0.7434
vt 0.6089 0.7745 0.7745
vt 0.6191 0.7745 0.7745
vt 0.6191 0.7863 0.7863
vt 0.6089 0.7863 0.7863
vt 0.6089 0.7896 0.7896
vt 0.6191 0.7896 0.7896
vt 0.6191 0.7960 0.7960
vt 0.6089 0.7960 0.7960
vt 0.8413 0.9367 0.9367
vt 0.8525 0.9367 0.9367
vt 0.8525 0.9391 0.9391
vt 0.8413 0.9391 0.9391
vt 0.8413 0.9405 0.9405
vt 0.8525 0.9405 0.9405
vt 0.8413 0.9657 0.9657
vt 0.8525 0.9657 0.9657
vt 0.8413 0.9671 0.9671
vt 0.8525 0.9671 0.9671
vt 0.8525 0.9695 0.9695
vt 0.8413 0.9695 0.9695
vt 0.8379 0.9671 0.9671
vt 0.8379 0.9391 0.9391
vt 0.8403 0.9391 0.9391
vt 0.8403 0.9671 0.9671
vt 0.7559 0.7395 0.7395
vt 0.7554 0.7405 0.7405
vt 0.7544 0.7412 0.7412
vt 0.7534 0.7412 0.7412
vt 0.7524 0.7405 0.7405
vt 0.7520 0.7395 0.7395
vt 0.7520 0.7378 0.7378
vt 0.7559 0.7378 0.7378
vt 0.6050 0.7922 0.7922
vt 0.6050 0.7769 0.7769
vt 0.5933 0.7769 0.7769
vt 0.5933 0.7888 0.7888
vt 0.5957 0.7922 0.7922
# 193 texture coords

o acc2
g acc2
usemtl mat_rocket_launcher_new
s 1
f 1/1/1 2/2/2 3/3/3 
f 3/3/3 4/4/4 1/1/1 
f 5/5/5 6/6/6 7/7/7 
f 8/8/8 7/7/7 9/9/9 
f 10/10/10 9/9/9 7/7/7 
f 10/10/10 7/7/7 6/6/6 
f 10/10/10 6/6/6 11/11/11 
f 12/12/12 11/11/11 6/6/6 
f 6/6/6 5/5/5 12/12/12 
f 13/13/13 12/12/12 5/5/5 
f 5/5/5 14/14/14 13/13/13 
f 15/15/15 13/13/13 14/14/14 
f 14/14/14 16/16/16 15/15/15 
f 7/7/7 8/8/8 5/5/5 
f 14/14/14 5/5/5 8/8/8 
f 8/8/8 17/17/17 14/14/14 
f 16/16/16 14/14/14 17/17/17 
f 17/17/17 18/18/18 16/16/16 
f 19/19/19 16/16/16 18/18/18 
f 18/18/18 20/20/20 19/19/19 
f 21/21/21 19/19/19 20/20/20 
f 20/20/20 22/22/22 21/21/21 
f 22/22/22 23/23/23 21/21/21 
f 24/24/24 15/15/15 16/16/16 
f 16/16/16 19/19/19 24/24/24 
f 25/25/25 24/24/24 19/19/19 
f 19/19/19 21/21/21 25/25/25 
f 21/21/21 23/23/23 25/25/25 
f 26/26/26 23/23/23 22/22/22 
f 27/27/27 26/26/26 22/22/22 
f 22/22/22 20/20/20 27/27/27 
f 28/28/28 27/27/27 20/20/20 
f 20/20/20 18/18/18 28/28/28 
f 29/29/29 28/28/28 18/18/18 
f 18/18/18 17/17/17 29/29/29 
f 30/30/30 29/29/29 17/17/17 
f 17/17/17 8/8/8 30/30/30 
f 9/9/9 30/30/30 8/8/8 
f 31/31/31 32/32/32 33/33/33 
f 34/34/34 35/35/35 33/33/33 
f 33/33/33 35/35/35 31/31/31 
f 36/36/36 31/31/31 35/35/35 
f 31/31/31 36/36/36 37/37/37 
f 37/37/37 38/38/38 31/31/31 
f 32/32/32 31/31/31 38/38/38 
f 38/38/38 39/39/39 32/32/32 
f 35/35/35 34/34/34 36/36/36 
f 38/38/38 40/40/10 39/39/39 
f 37/37/37 40/40/10 38/38/38 
f 41/41/40 40/40/10 37/37/37 
f 41/41/40 37/37/37 36/36/36 
f 36/36/36 42/42/41 41/41/40 
f 42/42/41 36/36/36 34/34/34 
f 34/34/34 43/43/42 42/42/41 
f 34/34/34 44/34/43 43/43/42 
f 34/34/34 45/35/44 44/34/43 
f 34/34/34 33/33/33 45/35/44 
f 46/44/45 47/45/46 48/46/47 
f 48/46/47 49/47/48 46/44/45 
f 50/48/49 46/44/45 49/47/48 
f 49/47/48 51/49/50 50/48/49 
f 52/50/51 50/48/49 51/49/50 
f 51/49/50 53/51/52 52/50/51 
f 54/52/53 52/50/51 53/51/52 
f 53/51/52 55/53/54 54/52/53 
f 1/54/1 56/55/55 2/56/2 
f 57/57/56 3/58/3 2/56/2 
f 2/56/2 56/55/55 57/57/56 
f 58/59/57 57/57/56 56/55/55 
f 56/55/55 59/60/58 58/59/57 
f 1/54/1 59/60/58 56/55/55 
f 60/61/59 59/60/58 1/54/1 
f 1/54/1 61/62/60 60/61/59 
f 61/62/60 62/63/61 60/61/59 
f 61/62/60 63/64/62 62/63/61 
f 62/63/61 63/64/62 64/65/63 
f 64/65/63 65/66/64 62/63/61 
f 60/61/59 62/63/61 65/66/64 
f 65/66/64 66/67/65 60/61/59 
f 59/60/58 60/61/59 66/67/65 
f 66/67/65 58/59/57 59/60/58 
f 63/64/62 61/62/60 67/68/66 
f 67/68/66 64/69/63 63/64/62 
f 4/70/4 68/71/67 1/54/1 
f 61/62/60 1/54/1 68/71/67 
f 68/71/67 69/72/68 61/62/60 
f 69/72/68 67/73/66 61/62/60 
f 70/74/69 71/75/23 72/76/23 
f 72/76/23 73/77/69 70/74/69 
f 74/78/70 70/74/69 73/77/69 
f 73/77/69 75/79/70 74/78/70 
f 76/80/10 74/78/70 75/79/70 
f 75/79/70 77/81/10 76/80/10 
f 78/82/71 79/83/72 80/84/72 
f 80/84/72 81/85/73 78/82/71 
f 82/86/74 78/82/71 81/85/73 
f 81/85/73 83/87/75 82/86/74 
f 84/88/76 82/86/74 83/87/75 
f 83/87/75 85/89/76 84/88/76 
f 86/82/77 87/90/78 66/91/79 
f 66/91/79 65/92/80 86/82/77 
f 88/83/81 86/82/77 65/92/80 
f 65/92/80 64/93/81 88/83/81 
f 89/84/82 88/83/81 64/93/81 
f 64/93/81 67/94/82 89/84/82 
f 90/95/83 89/84/82 67/94/82 
f 67/94/82 69/96/84 90/95/83 
f 91/89/82 92/97/53 68/98/85 
f 68/98/85 4/99/82 91/89/82 
f 93/88/81 91/89/82 4/99/82 
f 4/99/82 3/100/81 93/88/81 
f 94/86/86 93/88/81 3/100/81 
f 3/100/81 57/101/87 94/86/86 
f 95/102/88 94/86/86 57/101/87 
f 57/101/87 58/103/89 95/102/88 
f 87/90/78 95/102/88 58/103/89 
f 58/103/89 66/91/79 87/90/78 
f 87/104/67 86/105/90 96/106/91 
f 96/106/91 86/105/90 88/107/92 
f 88/107/92 97/108/93 96/106/91 
f 97/108/93 88/107/92 98/109/94 
f 88/107/92 99/110/95 98/109/94 
f 99/110/95 88/107/92 79/111/96 
f 79/111/96 100/112/97 99/110/95 
f 101/113/98 100/112/97 79/111/96 
f 102/114/99 101/113/98 79/111/96 
f 102/114/99 79/111/96 78/115/100 
f 78/115/100 103/116/101 102/114/99 
f 79/111/96 88/107/92 89/117/10 
f 89/117/10 80/118/10 79/111/96 
f 47/119/46 91/120/102 93/121/103 
f 93/121/103 48/122/47 47/119/46 
f 49/123/48 48/122/47 93/121/103 
f 93/121/103 94/124/104 49/123/48 
f 49/123/48 94/124/104 82/125/105 
f 82/125/105 94/124/104 95/126/67 
f 95/126/67 78/115/100 82/125/105 
f 78/115/100 95/126/67 87/104/67 
f 87/104/67 103/116/101 78/115/100 
f 87/104/67 96/106/91 103/116/101 
f 85/127/106 54/128/53 55/129/54 
f 55/129/54 84/130/107 85/127/106 
f 55/129/54 53/131/52 84/130/107 
f 82/125/105 84/130/107 53/131/52 
f 53/131/52 51/132/50 82/125/105 
f 82/125/105 51/132/50 49/123/48 
f 104/133/108 105/134/109 106/135/110 
f 106/135/110 107/136/111 104/133/108 
f 108/137/112 104/133/108 107/136/111 
f 107/136/111 109/138/113 108/137/112 
f 110/139/114 108/137/112 109/138/113 
f 109/138/113 111/140/115 110/139/114 
f 112/141/116 110/139/114 111/140/115 
f 111/140/115 113/142/117 112/141/116 
f 114/143/118 112/141/116 113/142/117 
f 113/142/117 115/144/119 114/143/118 
f 116/145/120 114/143/118 115/144/119 
f 115/144/119 103/146/121 116/145/120 
f 115/144/119 102/147/122 103/146/121 
f 101/148/123 102/147/122 115/144/119 
f 115/144/119 113/142/117 101/148/123 
f 100/149/124 101/148/123 113/142/117 
f 113/142/117 111/140/115 100/149/124 
f 99/150/125 100/149/124 111/140/115 
f 111/140/115 109/138/113 99/150/125 
f 98/151/126 99/150/125 109/138/113 
f 109/138/113 107/136/111 98/151/126 
f 97/152/127 98/151/126 107/136/111 
f 107/136/111 106/135/110 97/152/127 
f 97/152/127 106/135/110 96/153/128 
f 96/153/128 106/135/110 105/134/109 
f 105/134/109 117/154/129 96/153/128 
f 103/155/121 96/153/128 117/154/129 
f 117/154/129 116/156/120 103/155/121 
f 118/14/130 119/16/131 120/18/132 
f 120/18/132 121/17/133 118/14/130 
f 122/5/134 118/14/130 121/17/133 
f 121/17/133 123/8/135 122/5/134 
f 124/6/136 122/5/134 123/8/135 
f 123/8/135 125/7/137 124/6/136 
f 15/15/15 24/24/24 126/19/138 
f 126/19/138 119/16/131 15/15/15 
f 13/13/13 15/15/15 119/16/131 
f 119/16/131 118/14/130 13/13/13 
f 12/12/12 13/13/13 118/14/130 
f 118/14/130 122/5/134 12/12/12 
f 11/11/11 12/12/12 122/5/134 
f 122/5/134 124/6/136 11/11/11 
f 10/10/10 11/11/11 124/6/136 
f 10/10/10 124/6/136 125/7/137 
f 127/20/139 128/22/140 26/26/26 
f 128/22/140 23/23/23 26/26/26 
f 129/21/141 23/23/23 128/22/140 
f 25/25/25 23/23/23 129/21/141 
f 24/24/24 25/25/25 129/21/141 
f 129/21/141 126/19/138 24/24/24 
f 126/19/138 129/21/141 128/22/140 
f 128/22/140 127/20/139 126/19/138 
f 119/16/131 126/19/138 127/20/139 
f 127/20/139 120/18/132 119/16/131 
f 10/10/10 125/7/137 9/9/9 
f 30/30/30 9/9/9 125/7/137 
f 125/7/137 123/8/135 30/30/30 
f 29/29/29 30/30/30 123/8/135 
f 123/8/135 121/17/133 29/29/29 
f 28/28/28 29/29/29 121/17/133 
f 121/17/133 120/18/132 28/28/28 
f 27/27/27 28/28/28 120/18/132 
f 120/18/132 127/20/139 27/27/27 
f 26/26/26 27/27/27 127/20/139 
f 39/39/39 40/40/10 130/38/142 
f 130/38/142 40/40/10 131/37/143 
f 131/37/143 40/40/10 41/41/40 
f 131/37/143 41/41/40 42/42/41 
f 42/42/41 132/36/144 131/37/143 
f 132/36/144 42/42/41 43/43/42 
f 43/43/42 44/34/43 132/36/144 
f 133/31/145 132/36/144 44/34/43 
f 44/34/43 45/35/44 133/31/145 
f 32/32/32 133/31/145 45/35/44 
f 45/35/44 33/33/33 32/32/32 
f 130/38/142 131/37/143 132/36/144 
f 132/36/144 133/31/145 130/38/142 
f 39/39/39 130/38/142 133/31/145 
f 133/31/145 32/32/32 39/39/39 
f 134/157/46 135/158/146 136/158/85 
f 136/158/85 137/157/147 134/157/46 
f 137/157/147 136/158/85 138/159/148 
f 138/159/148 139/160/149 137/157/147 
f 140/161/150 139/160/149 138/159/148 
f 138/159/148 141/162/151 140/161/150 
f 140/161/150 141/162/151 142/163/83 
f 142/163/83 143/164/152 140/161/150 
f 135/158/146 142/162/83 141/162/151 
f 135/158/146 141/162/151 138/159/148 
f 135/158/146 138/159/148 136/158/85 
f 68/165/85 92/166/53 144/167/153 
f 144/167/153 145/168/154 68/165/85 
f 146/169/155 145/168/154 144/167/153 
f 144/167/153 147/170/156 146/169/155 
f 148/171/157 146/169/155 147/170/156 
f 147/170/156 149/172/158 148/171/157 
f 150/173/159 148/171/157 149/172/158 
f 149/172/158 151/174/160 150/173/159 
f 150/173/159 151/174/160 90/175/83 
f 90/175/83 69/176/84 150/173/159 
f 69/177/84 68/178/85 145/179/154 
f 69/177/84 145/179/154 146/169/155 
f 69/177/84 146/169/155 148/171/157 
f 69/177/84 148/171/157 150/180/159 
f 105/181/109 104/182/108 108/183/112 
f 105/181/109 108/183/112 110/184/114 
f 105/181/109 110/184/114 112/185/116 
f 105/181/109 112/185/116 114/186/118 
f 105/181/109 114/186/118 116/187/120 
f 116/187/120 117/188/129 105/181/109 
f 143/189/152 134/190/46 137/191/147 
f 143/189/152 137/191/147 139/192/149 
f 143/189/152 139/192/149 140/193/150 
f 152/78/161 76/80/10 77/81/10 
f 77/81/10 153/79/161 152/78/161 
f 154/74/162 152/78/161 153/79/161 
f 153/79/161 155/77/162 154/74/162 
f 71/75/23 154/74/162 155/77/162 
f 155/77/162 72/76/23 71/75/23 
# 0 polygons - 265 triangles

