# 3ds Max Wavefront OBJ Exporter v0.99 - (c)2007 guruware
# File Created: 28.08.2021 12:16:16

mtllib acc5.mtl

#
# object acc5
#

v  -6.9631 10.1272 -6.7375
v  -6.9645 10.5771 -6.7400
v  -5.5385 10.1295 -6.7375
v  -11.4121 7.6438 -7.7317
v  -11.1458 6.9251 -8.1142
v  -11.1458 8.1195 -8.1077
v  -11.2610 7.9517 -7.9385
v  -11.3554 7.9504 -7.8040
v  -11.7924 7.9723 -8.6312
v  -11.9077 7.8034 -8.4639
v  -12.0020 7.8019 -8.3301
v  -12.0587 7.4948 -8.2597
v  -11.7924 6.7743 -8.6439
v  -12.3210 5.9437 -16.0805
v  -7.0286 7.1789 -16.0805
v  -7.0286 7.1789 -5.0998
v  -12.3210 5.9437 -9.4416
v  -10.3928 7.8886 -6.8861
v  -10.3361 8.1957 -6.9565
v  -10.2418 8.1972 -7.0903
v  -9.7462 8.0376 -6.3580
v  -9.5950 8.3455 -6.5648
v  -9.4799 8.5133 -6.7340
v  -10.1265 8.3661 -7.2575
v  -9.6895 8.3442 -6.4303
v  -9.4798 7.3189 -6.7405
v  -10.1265 7.1681 -7.2703
v  -9.3957 8.5726 -6.6686
v  -9.3454 7.5200 -6.6686
v  -9.1486 7.6236 -6.7317
v  -7.4661 7.9711 -5.1393
v  -7.4711 8.0414 -5.3496
v  -9.1989 8.4825 -6.7317
v  -7.5466 9.0137 -5.1393
v  -7.0232 9.6076 -4.6820
v  -6.8522 7.5259 -4.6820
v  -3.2583 5.7304 -4.6820
v  -6.8522 5.7304 -4.6820
v  -3.2637 5.4408 -5.0998
v  -12.3832 8.3724 -9.1219
v  -12.3832 6.2333 -9.1219
v  -7.5516 8.8559 -5.3496
v  -7.0286 5.4408 -5.0998
v  -12.6106 6.2333 -9.5908
v  -12.6106 8.3724 -9.5908
v  -12.3210 8.6620 -9.4416
v  -12.3210 8.6620 -16.0805
v  -12.6106 8.3724 -16.0805
v  -12.3210 8.3724 -16.3701
v  -7.0286 9.8972 -16.0805
v  -7.0286 9.6076 -16.3701
v  -7.0286 9.8972 -5.0998
v  -7.0232 10.0584 -4.6820
v  -7.0286 10.0578 -16.0805
v  -5.6599 11.4779 -4.6820
v  -5.6653 11.4773 -16.0805
v  -3.2595 11.4779 -4.6820
v  -3.2649 11.4773 -16.0805
v  -7.0101 9.9996 -15.3650
v  -7.0146 11.4603 -15.3693
v  -5.5878 11.4603 -15.3693
v  -11.1658 7.9961 -7.6486
v  -11.2225 7.6890 -7.5782
v  -10.5759 7.8381 -7.0501
v  -11.0715 7.9976 -7.7824
v  -10.9562 8.1665 -7.9496
v  -10.9562 6.9685 -7.9624
v  -10.3096 7.1193 -7.4326
v  -10.3096 8.3137 -7.4262
v  -10.4247 8.1459 -7.2570
v  -10.5192 8.1446 -7.1225
v  -7.0146 11.4592 -14.1312
v  -7.0101 10.0012 -14.1313
v  -5.5878 11.4592 -14.1312
v  -6.9632 10.1064 -9.1644
v  -6.9676 11.5912 -9.1765
v  -5.5408 11.5890 -9.1743
v  -5.5392 10.1287 -9.1723
v  -5.5408 11.5867 -4.6350
v  -5.5392 10.1287 -4.6351
v  -6.9631 10.1287 -4.6351
v  -5.5378 10.1284 -8.3539
v  -6.9646 10.5751 -8.3539
v  -6.8211 7.4685 -16.3701
v  -12.3210 6.2333 -16.3701
v  -3.2637 9.8972 -16.0805
v  -3.2637 9.6076 -16.3701
v  -3.2637 5.7304 -16.3701
v  -6.8211 5.7304 -16.3701
v  -7.0286 5.4408 -16.0805
v  -3.2637 5.4408 -16.0805
v  -10.9577 7.8133 -17.0887
v  -10.8364 7.5204 -17.0887
v  -11.6648 7.5204 -17.0887
v  -11.5435 7.8133 -17.0887
v  -11.2506 7.9346 -17.0887
v  -6.9676 11.5867 -4.6350
v  -6.9632 10.1076 -8.3539
v  -10.9577 7.2275 -17.0887
v  -11.2506 7.1062 -17.0887
v  -11.5435 7.2275 -17.0887
v  -11.2506 6.9830 -16.3730
v  -11.6306 7.1404 -16.3730
v  -11.7880 7.5204 -16.3730
v  -11.6306 7.9004 -16.3730
v  -11.2506 8.0578 -16.3730
v  -10.8706 7.9004 -16.3730
v  -10.7132 7.5204 -16.3730
v  -10.8706 7.1404 -16.3730
v  -12.6106 6.2333 -16.0805
# 110 vertices

vn 0.0000 -0.0055 -1.0000
vn 0.0352 -0.0779 0.9963
vn -0.1762 -0.5127 0.8403
vn 0.2518 0.5877 0.7689
vn 0.4213 0.7080 0.5668
vn 0.1482 0.6848 0.7135
vn -0.8640 0.4939 -0.0980
vn -0.7557 0.6015 -0.2590
vn -0.8039 0.5947 0.0017
vn -0.9584 -0.1439 0.2464
vn -0.7404 -0.5073 0.4410
vn 0.2273 -0.9738 0.0000
vn 0.2273 -0.9738 -0.0000
vn -0.7557 0.6016 -0.2591
vn -0.8640 0.4939 -0.0981
vn -0.4656 -0.1788 0.8667
vn -0.5104 0.1262 0.8506
vn -0.2838 0.4622 0.8401
vn -0.7559 0.0808 0.6496
vn -0.8461 0.3354 0.4144
vn -0.1882 -0.3624 0.9128
vn -0.6886 -0.1587 0.7075
vn -0.6252 0.2335 0.7447
vn -0.5413 -0.1610 0.8253
vn 0.0000 -0.4623 0.8867
vn -0.4582 -0.3640 0.8109
vn 0.0000 -0.8218 0.5697
vn -0.7299 0.2202 0.6471
vn -0.6763 -0.2603 0.6891
vn -0.7625 -0.3914 0.5152
vn -0.8579 -0.3496 0.3765
vn -0.8428 -0.2739 0.4633
vn -0.6364 -0.6972 0.3299
vn -0.9205 -0.3433 0.1868
vn -0.9205 0.3433 0.1868
vn -0.5407 0.8177 0.1973
vn -0.4398 0.8318 -0.3386
vn -0.8756 0.3416 -0.3416
vn -0.5276 0.4308 -0.7321
vn -0.6244 0.7275 -0.2844
vn -0.1628 0.6977 -0.6977
vn -0.8948 0.4120 0.1722
vn -0.6532 0.2658 0.7090
vn -0.9277 0.3733 0.0004
vn -0.2771 0.6505 0.7072
vn -0.3921 0.9199 0.0001
vn 0.0000 0.7071 0.7071
vn 0.0000 1.0000 -0.0001
vn 0.0000 -0.0030 -1.0000
vn -0.7403 -0.5073 0.4410
vn -0.5784 0.5762 0.5775
vn -0.8967 -0.0028 0.4427
vn 0.0000 0.7068 0.7074
vn -0.0000 1.0000 0.0010
vn -0.7073 0.7069 0.0007
vn -1.0000 -0.0031 0.0001
vn 0.0015 -0.0082 -1.0000
vn 1.0000 0.0011 -0.0000
vn 0.7072 0.7070 0.0004
vn 0.5771 0.5775 0.5774
vn 0.5777 -0.5768 0.5775
vn -0.7057 -0.7086 0.0000
vn 0.0016 -1.0000 -0.0004
vn -0.4990 -0.7077 0.5002
vn -0.2114 -0.6744 0.7074
vn -0.2994 -0.9541 0.0006
vn -0.8051 -0.5932 0.0006
vn -0.7868 -0.5956 0.1620
vn 0.0000 0.0000 -1.0000
vn 0.0000 0.2661 -0.9639
vn 0.0000 0.3828 -0.9238
vn 0.0000 0.3827 -0.9239
vn 0.0000 -0.3827 -0.9239
vn 0.0000 -0.4318 -0.9020
vn 0.0000 -0.9492 -0.3147
vn 0.0000 -0.9239 -0.3827
vn 0.0000 -1.0000 -0.0000
vn 0.0000 -1.0000 0.0000
vn 0.4557 0.4556 -0.7647
vn 0.4136 0.0000 -0.9105
vn -0.4136 0.0000 -0.9105
vn -0.4557 0.4556 -0.7647
vn 0.0000 0.6444 -0.7647
vn -0.7060 0.7082 0.0005
vn -0.7101 -0.0022 0.7041
vn -1.0000 -0.0030 0.0001
vn 0.4557 -0.4556 -0.7647
vn 0.0000 -0.8115 -0.5844
vn -0.4557 -0.4556 -0.7647
vn 0.0000 -0.9855 -0.1696
vn -0.6969 -0.6969 -0.1696
vn -0.9855 0.0000 -0.1696
vn -0.6969 0.6969 -0.1696
vn -0.0000 0.9855 -0.1696
vn 0.6969 0.6969 -0.1696
vn 0.9855 0.0000 -0.1696
vn 0.6969 -0.6969 -0.1696
vn 1.0000 -0.0049 -0.0003
vn 0.9998 -0.0187 0.0000
vn 1.0000 -0.0007 -0.0005
vn 1.0000 -0.0002 -0.0005
vn 1.0000 0.0002 -0.0004
vn 1.0000 0.0003 -0.0004
vn 1.0000 0.0006 -0.0004
vn 1.0000 0.0008 -0.0005
vn -0.3875 -0.4856 -0.7836
vn -0.8756 -0.3416 -0.3416
vn -0.4301 -0.7789 -0.4565
vn -0.3847 -0.4968 -0.7780
vn -0.6898 -0.3797 -0.6164
vn -0.8128 0.0000 -0.5825
vn -0.9755 0.0000 -0.2201
# 112 vertex normals

vt 0.2671 0.2808 0.2808
vt 0.2671 0.2842 0.2842
vt 0.2571 0.2808 0.2808
vt 0.4771 0.2778 0.2778
vt 0.4775 0.2676 0.2676
vt 0.4700 0.2803 0.2803
vt 0.4729 0.2798 0.2798
vt 0.4744 0.2808 0.2808
vt 0.4744 0.2842 0.2842
vt 0.4746 0.2881 0.2881
vt 0.4915 0.2876 0.2876
vt 0.4912 0.2842 0.2842
vt 0.4912 0.2808 0.2808
vt 0.4880 0.2783 0.2783
vt 0.4880 0.2676 0.2676
vt 0.4929 0.2798 0.2798
vt 0.4961 0.2798 0.2798
vt 0.4304 0.1128 0.1128
vt 0.4304 0.1323 0.1323
vt 0.4705 0.1323 0.1323
vt 0.4546 0.1128 0.1128
vt 0.4827 0.1255 0.1255
vt 0.4790 0.1260 0.1260
vt 0.4795 0.1265 0.1265
vt 0.4805 0.1357 0.1357
vt 0.4810 0.1348 0.1348
vt 0.4824 0.1265 0.1265
vt 0.4844 0.1353 0.1353
vt 0.4866 0.1382 0.1382
vt 0.4790 0.1392 0.1392
vt 0.4724 0.1523 0.1523
vt 0.4724 0.1392 0.1392
vt 0.4705 0.1523 0.1523
vt 0.4819 0.1099 0.1099
vt 0.4741 0.1099 0.1099
vt 0.4836 0.1348 0.1348
vt 0.4702 0.1387 0.1387
vt 0.4722 0.1318 0.1318
vt 0.4558 0.1113 0.1113
vt 0.4541 0.1113 0.1113
vt 0.4558 0.1035 0.1035
vt 0.4541 0.1035 0.1035
vt 0.4546 0.1021 0.1021
vt 0.4304 0.1021 0.1021
vt 0.4304 0.1035 0.1035
vt 0.4287 0.1030 0.1030
vt 0.4304 0.0830 0.0830
vt 0.4287 0.0840 0.0840
vt 0.4705 0.0830 0.0830
vt 0.4722 0.0840 0.0840
vt 0.4719 0.0815 0.0815
vt 0.4304 0.0815 0.0815
vt 0.4719 0.0747 0.0747
vt 0.4304 0.0747 0.0747
vt 0.4719 0.0659 0.0659
vt 0.4304 0.0659 0.0659
vt 0.1409 0.2769 0.2769
vt 0.1409 0.2920 0.2920
vt 0.1322 0.2920 0.2920
vt 0.1410 0.2920 0.2920
vt 0.1410 0.2769 0.2769
vt 0.1324 0.2920 0.2920
vt 0.1410 0.3052 0.3052
vt 0.1499 0.3052 0.3052
vt 0.1499 0.2920 0.2920
vt 0.1499 0.2769 0.2769
vt 0.2729 0.2808 0.2808
vt 0.2729 0.2910 0.2910
vt 0.2832 0.2910 0.2910
vt 0.2732 0.2910 0.2910
vt 0.2732 0.3013 0.3013
vt 0.2415 0.3013 0.3013
vt 0.2415 0.2910 0.2910
vt 0.0487 0.2749 0.2749
vt 0.0488 0.2827 0.2827
vt 0.0374 0.2827 0.2827
vt 0.0373 0.2749 0.2749
vt 0.0506 0.2754 0.2754
vt 0.0609 0.2754 0.2754
vt 0.0610 0.2842 0.2842
vt 0.0507 0.2847 0.2847
vt 0.4189 0.1191 0.1191
vt 0.4146 0.1387 0.1387
vt 0.4224 0.1392 0.1392
vt 0.4268 0.1191 0.1191
vt 0.4128 0.1387 0.1387
vt 0.4077 0.1436 0.1436
vt 0.4077 0.1523 0.1523
vt 0.4136 0.1523 0.1523
vt 0.4136 0.1387 0.1387
vt 0.4146 0.1523 0.1523
vt 0.4287 0.1523 0.1523
vt 0.4287 0.1392 0.1392
vt 0.4304 0.1387 0.1387
vt 0.4304 0.1523 0.1523
vt 0.4102 0.2065 0.2065
vt 0.4053 0.2085 0.2085
vt 0.4053 0.1948 0.1948
vt 0.4102 0.1968 0.1968
vt 0.4121 0.2017 0.2017
vt 0.2413 0.3013 0.3013
vt 0.2729 0.3013 0.3013
vt 0.2412 0.2910 0.2910
vt 0.2573 0.2808 0.2808
vt 0.2559 0.2842 0.2842
vt 0.2412 0.2808 0.2808
vt 0.2313 0.2808 0.2808
vt 0.2313 0.2910 0.2910
vt 0.2559 0.2808 0.2808
vt 0.4924 0.2026 0.2026
vt 0.4924 0.2075 0.2075
vt 0.4836 0.2075 0.2075
vt 0.4836 0.2026 0.2026
vt 0.4924 0.1973 0.1973
vt 0.4836 0.1973 0.1973
vt 0.4924 0.1924 0.1924
vt 0.4836 0.1924 0.1924
vt 0.4924 0.1875 0.1875
vt 0.4836 0.1875 0.1875
vt 0.4924 0.1826 0.1826
vt 0.4836 0.1826 0.1826
vt 0.4924 0.1777 0.1777
vt 0.4836 0.1777 0.1777
vt 0.4924 0.1729 0.1729
vt 0.4836 0.1729 0.1729
vt 0.4924 0.1680 0.1680
vt 0.4836 0.1680 0.1680
vt 0.4934 0.1523 0.1523
vt 0.4883 0.1387 0.1387
vt 0.4934 0.1436 0.1436
vt 0.3850 0.3096 0.3096
vt 0.3862 0.3105 0.3105
vt 0.4199 0.3105 0.3105
vt 0.4209 0.3101 0.3101
vt 0.4209 0.2979 0.2979
vt 0.3850 0.2920 0.2920
vt 0.4199 0.2974 0.2974
vt 0.4199 0.2925 0.2925
vt 0.4287 0.1118 0.1118
vt 0.4304 0.1113 0.1113
vt 0.4287 0.1318 0.1318
# 141 texture coords

o acc5
g acc5
usemtl mat_rocket_launcher_new
s 1
f 1/1/1 2/2/1 3/3/1 
f 4/4/2 5/5/3 6/6/4 
f 6/6/4 7/7/5 4/4/2 
f 7/7/5 8/8/6 4/4/2 
f 7/9/5 6/10/4 9/11/7 
f 9/11/7 10/12/8 7/9/5 
f 8/8/6 7/9/5 10/12/8 
f 10/12/8 11/13/9 8/8/6 
f 4/4/2 8/8/6 11/13/9 
f 11/13/9 12/14/10 4/4/2 
f 5/5/3 4/4/2 12/14/10 
f 12/14/10 13/15/11 5/5/3 
f 13/15/11 12/14/10 10/16/8 
f 10/16/8 9/17/7 13/15/11 
f 12/14/10 11/13/9 10/16/8 
f 14/18/12 15/19/13 16/20/12 
f 16/20/12 17/21/12 14/18/12 
f 18/14/10 19/13/9 20/16/14 
f 19/13/9 18/14/10 21/4/2 
f 22/9/5 23/10/4 24/11/15 
f 24/11/15 20/12/14 22/9/5 
f 25/8/6 22/9/5 20/12/14 
f 20/12/14 19/13/9 25/8/6 
f 21/4/2 25/8/6 19/13/9 
f 22/7/5 25/8/6 21/4/2 
f 23/6/4 22/7/5 21/4/2 
f 21/4/2 26/5/3 23/6/4 
f 26/5/3 21/4/2 18/14/10 
f 18/14/10 27/15/11 26/5/3 
f 27/15/11 18/14/10 20/16/14 
f 20/16/14 24/17/15 27/15/11 
f 28/22/16 29/23/17 30/24/18 
f 29/23/17 31/25/19 32/26/20 
f 32/26/20 30/24/18 29/23/17 
f 33/27/21 30/24/18 32/26/20 
f 30/24/18 33/27/21 28/22/16 
f 34/28/22 28/22/16 33/27/21 
f 28/22/16 34/28/22 35/29/23 
f 36/30/24 35/29/23 34/28/22 
f 35/29/23 36/30/24 37/31/25 
f 36/30/24 38/32/26 37/31/25 
f 39/33/27 37/31/25 38/32/26 
f 35/29/23 40/34/28 28/22/16 
f 28/22/16 40/34/28 41/35/29 
f 41/35/29 29/23/17 28/22/16 
f 29/23/17 41/35/29 36/30/24 
f 36/30/24 31/25/19 29/23/17 
f 34/28/22 31/25/19 36/30/24 
f 31/25/19 34/28/22 42/36/30 
f 33/27/21 42/36/30 34/28/22 
f 32/26/20 42/36/30 33/27/21 
f 42/36/30 32/26/20 31/25/19 
f 38/32/26 43/37/31 39/33/27 
f 43/37/31 38/32/26 36/38/24 
f 36/38/24 16/20/32 43/37/31 
f 17/21/33 16/20/32 36/38/24 
f 36/38/24 41/39/29 17/21/33 
f 17/21/33 41/39/29 44/40/34 
f 44/40/34 41/39/29 40/41/28 
f 40/41/28 45/42/35 44/40/34 
f 40/41/28 46/43/36 45/42/35 
f 45/42/35 46/43/36 47/44/37 
f 47/44/37 48/45/38 45/42/35 
f 48/45/38 47/44/37 49/46/39 
f 49/46/39 47/44/37 50/47/40 
f 50/47/40 51/48/41 49/46/39 
f 52/49/42 46/43/36 40/41/28 
f 40/41/28 35/50/23 52/49/42 
f 52/49/42 35/50/23 53/51/43 
f 47/44/37 46/43/36 52/49/42 
f 52/49/42 50/47/40 47/44/37 
f 50/47/40 52/49/42 53/51/43 
f 53/51/43 54/52/44 50/47/40 
f 54/52/44 53/51/43 55/53/45 
f 55/53/45 56/54/46 54/52/44 
f 56/54/46 55/53/45 57/55/47 
f 57/55/47 58/56/48 56/54/46 
f 59/57/49 60/58/49 61/59/49 
f 62/13/9 63/14/10 64/4/2 
f 63/14/10 62/13/9 65/16/14 
f 65/16/14 66/17/15 67/15/50 
f 67/15/50 63/14/10 65/16/14 
f 63/14/10 67/15/50 68/5/3 
f 68/5/3 64/4/2 63/14/10 
f 64/4/2 68/5/3 69/6/4 
f 69/6/4 70/7/5 64/4/2 
f 70/7/5 71/8/6 64/4/2 
f 64/4/2 71/8/6 62/13/9 
f 65/12/14 62/13/9 71/8/6 
f 71/8/6 70/9/5 65/12/14 
f 66/11/15 65/12/14 70/9/5 
f 70/9/5 69/10/4 66/11/15 
f 72/60/51 73/61/52 74/62/53 
f 72/60/51 74/63/53 61/64/54 
f 61/64/54 60/65/55 72/60/51 
f 73/61/52 72/60/51 60/65/55 
f 60/65/55 59/66/56 73/61/52 
f 75/67/57 76/68/57 77/69/57 
f 78/70/58 77/71/59 79/72/60 
f 79/72/60 80/73/61 78/70/58 
f 1/74/62 3/75/63 80/76/61 
f 80/76/61 81/77/64 1/74/62 
f 82/78/65 3/79/66 2/80/67 
f 2/80/67 83/81/68 82/78/65 
f 49/82/69 51/83/70 84/84/69 
f 84/84/69 85/85/69 49/82/69 
f 54/86/69 56/87/69 58/88/69 
f 58/88/69 86/89/71 54/86/69 
f 50/90/72 54/86/69 86/89/71 
f 51/83/70 50/90/72 86/89/71 
f 86/89/71 87/91/72 51/83/70 
f 84/84/69 51/83/70 87/91/72 
f 87/91/72 88/92/73 84/84/69 
f 89/93/74 84/84/69 88/92/73 
f 90/94/75 89/93/74 88/92/73 
f 88/92/73 91/95/76 90/94/75 
f 43/37/77 90/94/75 91/95/76 
f 91/95/76 39/33/78 43/37/77 
f 92/96/79 93/97/80 94/98/81 
f 94/98/81 95/99/82 92/96/79 
f 95/99/82 96/100/83 92/96/79 
f 79/101/60 77/102/59 76/68/84 
f 76/68/84 97/103/51 79/101/60 
f 83/2/68 98/1/85 82/104/65 
f 75/67/86 98/1/85 83/2/68 
f 83/2/68 76/68/84 75/67/86 
f 76/68/84 83/2/68 2/105/67 
f 2/105/67 97/103/51 76/68/84 
f 81/106/64 97/103/51 2/105/67 
f 97/103/51 81/106/64 80/107/61 
f 80/107/61 79/108/60 97/103/51 
f 2/105/67 1/109/62 81/106/64 
f 99/96/87 100/100/88 101/99/89 
f 99/96/87 101/99/89 94/98/81 
f 94/98/81 93/97/80 99/96/87 
f 101/110/89 100/111/88 102/112/90 
f 102/112/90 103/113/91 101/110/89 
f 94/114/81 101/110/89 103/113/91 
f 103/113/91 104/115/92 94/114/81 
f 95/116/82 94/114/81 104/115/92 
f 104/115/92 105/117/93 95/116/82 
f 96/118/83 95/116/82 105/117/93 
f 105/117/93 106/119/94 96/118/83 
f 92/120/79 96/118/83 106/119/94 
f 106/119/94 107/121/95 92/120/79 
f 93/122/80 92/120/79 107/121/95 
f 107/121/95 108/123/96 93/122/80 
f 99/124/87 93/122/80 108/123/96 
f 108/123/96 109/125/97 99/124/87 
f 100/126/88 99/124/87 109/125/97 
f 109/125/97 102/127/90 100/126/88 
f 37/31/25 57/128/47 35/29/23 
f 53/129/43 35/29/23 57/128/47 
f 55/130/45 53/129/43 57/128/47 
f 37/131/98 39/132/99 91/133/100 
f 91/133/100 88/134/101 37/131/98 
f 88/134/101 87/135/102 37/131/98 
f 57/136/103 37/131/98 87/135/102 
f 87/135/102 86/137/104 57/136/103 
f 86/137/104 58/138/105 57/136/103 
f 48/45/38 49/46/39 85/139/106 
f 85/139/106 110/140/107 48/45/38 
f 45/42/35 48/45/38 110/140/107 
f 110/140/107 44/40/34 45/42/35 
f 17/21/33 44/40/34 110/140/107 
f 110/140/107 14/18/108 17/21/33 
f 110/140/107 85/139/106 14/18/108 
f 14/18/108 85/139/106 84/141/109 
f 84/141/109 15/19/110 14/18/108 
f 15/19/110 84/141/109 89/93/111 
f 89/93/111 90/94/112 15/19/110 
f 16/20/32 15/19/110 90/94/112 
f 90/94/112 43/37/31 16/20/32 
# 0 polygons - 173 triangles

