# Blender v2.93.1 OBJ File: 'AssaultRifles_Vladof_gestaltDecomposition.blend'
# www.blender.org
mtllib AssaultRifles_Vladof_Barrel_OddyKnocky_Acc_1.mtl
o SK_AR_VLA.244
v 58.980701 6.170500 0.000001
v 58.980701 7.652300 -0.349199
v 58.980701 7.746800 0.000001
v 58.980701 7.652300 0.349301
v 58.980701 6.265000 0.349301
v 60.216599 6.170500 0.000001
v 58.980701 6.265000 -0.349199
v 58.980701 6.533400 -0.653999
v 58.980701 7.383900 -0.653999
v 60.216599 6.265000 -0.349199
v 60.216599 5.080000 0.000001
v 60.216599 5.305400 -0.842299
v 60.216599 6.533400 -0.653999
v 58.980701 6.958700 -0.767699
v 60.216599 5.945100 -1.568899
v 60.216599 6.958700 -0.767699
v 60.216599 7.383900 -0.653999
v 60.216599 6.958701 -1.839999
v 60.216599 7.972200 -1.568899
v 59.313400 6.958701 -2.547599
v 59.313400 6.171401 -2.422899
v 43.549198 5.461201 -2.060999
v 59.313400 5.461201 -2.060999
v 43.549198 6.171401 -2.422899
v 40.669899 6.187500 -1.277399
v 43.549198 6.958701 -2.547599
v 43.549198 7.745901 -2.422899
v 59.313400 7.745901 -2.422899
v 40.669899 6.958701 -1.483799
v 40.556400 6.265000 -1.147099
v 40.555099 6.958700 -1.332599
v 40.669899 7.729900 -1.277399
v 40.555099 7.652300 -1.147099
v 40.671101 8.269300 -0.667799
v 43.549198 9.019700 -1.497399
v 43.549198 8.456100 -2.060999
v 59.313400 9.019700 -1.497399
v 59.313400 8.456100 -2.060999
v 60.216599 8.611900 -0.842299
v 60.216599 8.837300 0.000001
v 59.313400 9.381600 -0.787198
v 60.216599 7.746800 0.000001
v 60.216599 7.652300 -0.349199
v 60.216599 8.611900 0.842401
v 60.216599 7.652300 0.349301
v 60.216599 7.972199 1.568901
v 60.216599 7.383900 0.654101
v 60.216599 6.958700 1.840101
v 60.216599 6.958700 0.767801
v 58.980701 7.383900 0.654101
v 58.980701 6.533400 0.654101
v 58.980701 6.958700 0.767801
v 60.216599 6.533400 0.654101
v 60.216599 5.945099 1.568901
v 60.216599 6.265000 0.349301
v 60.216599 5.305400 0.842401
v 59.313400 4.897600 1.497501
v 59.313400 4.535700 0.787301
v 59.313400 4.411000 0.000001
v 43.549198 4.411000 0.000001
v 59.313400 4.535700 -0.787199
v 43.549198 4.535700 -0.787199
v 59.313400 4.897601 -1.497399
v 43.549198 4.897601 -1.497399
v 40.671101 5.648000 -0.667799
v 40.556301 5.779800 -0.600599
v 40.556301 5.619100 0.000001
v 40.671101 5.469300 0.000001
v 40.671101 5.648000 0.667901
v 43.549198 4.535700 0.787301
v 43.549198 4.897600 1.497501
v 43.549198 5.461200 2.061101
v 59.313400 5.461200 2.061101
v 59.313400 6.171400 2.423001
v 59.313400 6.958700 2.547701
v 43.549198 6.171400 2.423001
v 43.549198 6.958700 2.547701
v 40.669899 6.187500 1.277501
v 40.669899 6.958700 1.483801
v 40.556301 5.779800 0.600701
v 40.556400 6.265000 1.147101
v 40.556301 8.137500 0.600701
v 40.555099 7.652300 1.147201
v 40.555099 6.958700 1.332701
v 40.669899 7.729900 1.277501
v 43.549198 9.019700 1.497501
v 43.549198 8.456100 2.061101
v 43.549198 7.745900 2.423001
v 40.671101 8.269300 0.667901
v 40.671101 8.448000 0.000001
v 43.549198 9.506300 0.000002
v 43.549198 9.381600 0.787302
v 59.313400 9.506300 0.000002
v 59.313400 9.381600 0.787302
v 59.313400 9.019700 1.497501
v 59.313400 8.456100 2.061101
v 59.313400 7.745900 2.423001
v 43.549198 9.381600 -0.787198
v 40.556301 8.298200 0.000001
v 40.556301 8.137500 -0.600599
vt 0.239600 0.980400
vt 0.241200 0.981300
vt 0.241200 0.993700
vt 0.239600 0.994500
vt 0.241200 0.993700
vt 0.241200 0.981300
vt 0.249500 0.976700
vt 0.242600 0.976700
vt 0.242600 0.980000
vt 0.242600 0.980000
vt 0.249500 0.980000
vt 0.242600 0.991300
vt 0.242600 0.983700
vt 0.436000 0.371600
vt 0.435500 0.374500
vt 0.430400 0.374500
vt 0.431600 0.366700
vt 0.437300 0.368700
vt 0.249500 0.983600
vt 0.242800 0.987500
vt 0.249500 0.987500
vt 0.434600 0.359900
vt 0.439200 0.367700
vt 0.439200 0.359900
vt 0.249500 0.991400
vt 0.441400 0.368700
vt 0.444100 0.359900
vt 0.439200 0.350100
vt 0.436800 0.350100
vt 0.434100 0.350100
vt 0.434100 0.203600
vt 0.436800 0.203600
vt 0.436300 0.176300
vt 0.439500 0.203600
vt 0.439200 0.176300
vt 0.441900 0.203600
vt 0.441900 0.350100
vt 0.436500 0.174300
vt 0.439200 0.175300
vt 0.442400 0.176300
vt 0.445300 0.176300
vt 0.442100 0.174300
vt 0.447300 0.203600
vt 0.444600 0.203600
vt 0.447300 0.350100
vt 0.444600 0.350100
vt 0.448200 0.359900
vt 0.447000 0.366700
vt 0.448200 0.374500
vt 0.443100 0.374500
vt 0.451700 0.359900
vt 0.450000 0.350100
vt 0.442600 0.371600
vt 0.249500 0.995000
vt 0.242600 0.995000
vt 0.242600 0.998200
vt 0.249500 0.998200
vt 0.447000 0.366700
vt 0.442600 0.371600
vt 0.249500 0.995000
vt 0.444100 0.359900
vt 0.441400 0.368700
vt 0.242600 0.995000
vt 0.249500 0.991400
vt 0.439200 0.359900
vt 0.439200 0.367700
vt 0.242600 0.991300
vt 0.249500 0.987500
vt 0.242600 0.983700
vt 0.242800 0.987500
vt 0.249500 0.983600
vt 0.249500 0.980000
vt 0.437300 0.368700
vt 0.434600 0.359900
vt 0.431600 0.366700
vt 0.436000 0.371600
vt 0.431400 0.350100
vt 0.430200 0.359900
vt 0.428700 0.350100
vt 0.425800 0.350100
vt 0.426800 0.359900
vt 0.428700 0.350100
vt 0.425800 0.203600
vt 0.430200 0.359900
vt 0.428700 0.203600
vt 0.431400 0.350100
vt 0.431400 0.203600
vt 0.433300 0.176300
vt 0.433300 0.174300
vt 0.431200 0.174300
vt 0.430700 0.176300
vt 0.433300 0.176300
vt 0.428700 0.203600
vt 0.431400 0.203600
vt 0.434100 0.203600
vt 0.434100 0.350100
vt 0.436800 0.350100
vt 0.436800 0.203600
vt 0.439200 0.350100
vt 0.436300 0.176300
vt 0.439500 0.203600
vt 0.439200 0.176300
vt 0.436500 0.174300
vt 0.433300 0.174300
vt 0.443800 0.170900
vt 0.434800 0.170900
vt 0.442100 0.174300
vt 0.439200 0.175300
vt 0.442400 0.176300
vt 0.441900 0.203600
vt 0.444600 0.203600
vt 0.447300 0.203600
vt 0.445300 0.176300
vt 0.452900 0.203600
vt 0.448000 0.176300
vt 0.445300 0.174300
vt 0.450000 0.203600
vt 0.452900 0.350100
vt 0.450000 0.350100
vt 0.447300 0.350100
vt 0.448200 0.359900
vt 0.444600 0.350100
vt 0.441900 0.350100
vt 0.450000 0.203600
vt 0.445300 0.174300
vt 0.447500 0.174300
vt 0.434800 0.170900
vt 0.443800 0.170900
vt 0.444300 0.166500
vt 0.434300 0.166500
vn 1.0000 -0.0000 0.0000
vn 0.0000 1.0000 0.0000
vn 0.0000 0.8809 -0.4734
vn 0.0000 0.8809 0.4734
vn 0.0000 0.5270 0.8499
vn 0.0000 -0.0000 1.0000
vn 0.0000 -0.5270 0.8499
vn 0.6262 0.4153 -0.6598
vn 0.6305 0.0182 -0.7760
vn 0.3252 0.0087 -0.9456
vn 0.3170 -0.2892 -0.9033
vn 0.6376 -0.4115 -0.6512
vn 0.3091 -0.5617 -0.7674
vn -0.1759 -0.5819 -0.7940
vn -0.1780 -0.2995 -0.9373
vn -0.5786 -0.4270 -0.6949
vn -0.1781 -0.0037 -0.9840
vn -0.5790 -0.0051 -0.8153
vn -0.1721 0.3034 -0.9372
vn 0.3319 0.2782 -0.9014
vn -0.9303 -0.1937 -0.3113
vn -0.9316 -0.0008 -0.3636
vn -0.5829 0.4272 -0.6911
vn -0.5776 0.7218 -0.3812
vn -0.9297 0.1952 -0.3122
vn -0.1745 0.7960 -0.5796
vn -0.1727 0.5805 -0.7958
vn 0.3208 0.7609 -0.5640
vn 0.3150 0.5649 -0.7626
vn 0.6263 0.6842 -0.3736
vn 0.6242 0.7813 -0.0000
vn 0.3091 0.9046 -0.2936
vn 0.0000 -0.8809 0.4734
vn 0.0000 -1.0000 0.0000
vn 0.0000 -0.8809 -0.4734
vn 0.0000 -0.5270 -0.8499
vn 0.0000 -0.0000 -1.0000
vn 0.0000 0.5270 -0.8499
vn 0.3134 -0.7662 0.5609
vn 0.6236 -0.6968 0.3545
vn 0.6377 -0.4115 0.6512
vn 0.3208 -0.9035 0.2841
vn 0.3210 -0.9471 -0.0000
vn 0.5952 -0.8036 -0.0000
vn 0.3208 -0.9035 -0.2841
vn -0.1723 -0.9850 -0.0000
vn 0.6236 -0.6968 -0.3544
vn -0.1729 -0.9367 -0.3044
vn 0.3134 -0.7663 -0.5609
vn -0.1778 -0.7942 -0.5811
vn -0.5790 -0.7176 -0.3870
vn -0.9461 -0.2849 -0.1539
vn -0.9477 -0.3191 0.0000
vn -0.5812 -0.8137 -0.0000
vn -0.5790 -0.7176 0.3870
vn -0.1729 -0.9367 0.3044
vn -0.1778 -0.7942 0.5811
vn -0.1759 -0.5819 0.7940
vn 0.3091 -0.5617 0.7674
vn 0.3170 -0.2892 0.9033
vn -0.1780 -0.2995 0.9373
vn 0.3252 0.0087 0.9456
vn 0.6305 0.0182 0.7760
vn -0.5787 -0.4269 0.6949
vn -0.1781 -0.0037 0.9840
vn -0.5789 -0.0051 0.8154
vn -0.9304 -0.1936 0.3112
vn -0.9461 -0.2849 0.1539
vn -0.9461 0.2850 0.1539
vn -0.9297 0.1953 0.3122
vn -0.9315 -0.0008 0.3637
vn -0.5829 0.4272 0.6912
vn -0.1721 0.3034 0.9372
vn -0.1727 0.5805 0.7958
vn -0.1745 0.7960 0.5796
vn -0.5777 0.7218 0.3812
vn -0.1814 0.9834 -0.0000
vn -0.5719 0.8204 -0.0000
vn -0.1779 0.9369 0.3010
vn 0.3045 0.9525 -0.0000
vn 0.3091 0.9046 0.2935
vn 0.3208 0.7609 0.5640
vn 0.6263 0.6842 0.3736
vn 0.3150 0.5649 0.7626
vn 0.6263 0.4153 0.6598
vn 0.3319 0.2782 0.9014
vn -0.1779 0.9369 -0.3010
vn -0.9461 0.2850 -0.1539
vn -0.9477 0.3191 -0.0000
usemtl MI_AR_Vla_Common
s 1
f 1/1/1 7/2/1 2/3/1
f 2/3/1 3/4/1 1/1/1
f 1/1/1 3/4/1 4/5/1
f 4/5/1 5/6/1 1/1/1
f 6/7/2 1/8/2 5/9/3
f 7/10/4 1/8/2 6/7/2
f 6/7/2 10/11/4 7/10/4
f 9/12/1 2/3/1 7/2/1
f 8/13/5 7/10/4 10/11/4
f 7/2/1 8/13/1 9/12/1
f 10/14/1 6/15/1 11/16/1
f 11/16/1 12/17/1 10/14/1
f 13/18/1 10/14/1 12/17/1
f 10/11/4 13/19/5 8/13/5
f 14/20/6 8/13/5 13/19/5
f 13/19/5 16/21/6 14/20/6
f 12/17/1 15/22/1 13/18/1
f 16/23/1 13/18/1 15/22/1
f 9/12/7 14/20/6 16/21/6
f 15/22/1 18/24/1 16/23/1
f 16/21/6 17/25/7 9/12/7
f 17/26/1 16/23/1 18/24/1
f 18/24/1 19/27/1 17/26/1
f 19/27/8 18/24/9 20/28/10
f 21/29/11 20/28/10 18/24/9
f 18/24/9 15/22/12 21/29/11
f 23/30/13 21/29/11 15/22/12
f 21/29/11 23/30/13 22/31/14
f 22/31/14 24/32/15 21/29/11
f 20/28/10 21/29/11 24/32/15
f 24/32/15 22/31/14 25/33/16
f 26/34/17 24/32/15 25/33/16
f 24/32/15 26/34/17 20/28/10
f 25/33/16 29/35/18 26/34/17
f 26/34/17 27/36/19 28/37/20
f 27/36/19 26/34/17 29/35/18
f 28/37/20 20/28/10 26/34/17
f 29/35/18 25/33/16 30/38/21
f 30/38/21 31/39/22 29/35/18
f 32/40/23 29/35/18 31/39/22
f 29/35/18 32/40/23 27/36/19
f 34/41/24 32/40/23 33/42/25
f 31/39/22 33/42/25 32/40/23
f 32/40/23 34/41/24 35/43/26
f 35/43/26 36/44/27 32/40/23
f 36/44/27 27/36/19 32/40/23
f 36/44/27 35/43/26 37/45/28
f 37/45/28 38/46/29 36/44/27
f 27/36/19 36/44/27 38/46/29
f 28/37/20 38/46/29 19/27/8
f 39/47/30 19/27/8 38/46/29
f 38/46/29 28/37/20 27/36/19
f 38/46/29 37/45/28 39/47/30
f 39/48/1 40/49/1 42/50/1
f 40/51/31 39/47/30 41/52/32
f 37/45/28 41/52/32 39/47/30
f 42/50/1 43/53/1 39/48/1
f 19/27/1 39/48/1 43/53/1
f 43/53/1 17/26/1 19/27/1
f 17/25/7 43/54/33 2/55/33
f 3/56/34 2/55/33 43/54/33
f 43/54/33 42/57/34 3/56/34
f 42/50/1 40/49/1 44/58/1
f 44/58/1 45/59/1 42/50/1
f 3/56/34 42/57/34 45/60/35
f 46/61/1 47/62/1 45/59/1
f 45/59/1 44/58/1 46/61/1
f 45/60/35 4/63/35 3/56/34
f 4/63/35 45/60/35 47/64/36
f 47/62/1 46/61/1 48/65/1
f 48/65/1 49/66/1 47/62/1
f 47/64/36 50/67/36 4/63/35
f 50/67/36 47/64/36 49/68/37
f 5/6/1 4/5/1 50/67/1
f 50/67/1 51/69/1 5/6/1
f 49/68/37 52/70/37 50/67/36
f 50/67/1 52/70/1 51/69/1
f 53/71/38 51/69/38 52/70/37
f 52/70/37 49/68/37 53/71/38
f 51/69/38 53/71/38 55/72/3
f 53/73/1 54/74/1 56/75/1
f 54/74/1 53/73/1 49/66/1
f 56/75/1 55/76/1 53/73/1
f 57/77/39 56/78/40 54/74/41
f 58/79/42 56/78/40 57/77/39
f 56/78/40 58/79/42 59/80/43
f 55/76/1 56/75/1 11/16/1
f 59/80/43 11/81/44 56/78/40
f 61/82/45 59/80/43 60/83/46
f 60/83/46 59/80/43 58/79/42
f 12/84/47 11/81/44 59/80/43
f 59/80/43 61/82/45 12/84/47
f 60/83/46 62/85/48 61/82/45
f 63/86/49 61/82/45 62/85/48
f 61/82/45 63/86/49 12/84/47
f 15/22/12 12/84/47 63/86/49
f 63/86/49 23/30/13 15/22/12
f 23/30/13 63/86/49 64/87/50
f 62/85/48 64/87/50 63/86/49
f 22/31/14 64/87/50 65/88/51
f 64/87/50 22/31/14 23/30/13
f 64/87/50 62/85/48 65/88/51
f 25/33/16 65/88/51 66/89/52
f 65/88/51 25/33/16 22/31/14
f 67/90/53 66/89/52 65/88/51
f 65/88/51 68/91/54 67/90/53
f 68/91/54 65/88/51 62/85/48
f 67/90/53 68/91/54 69/92/55
f 70/93/56 69/92/55 68/91/54
f 68/91/54 60/83/46 70/93/56
f 62/85/48 60/83/46 68/91/54
f 58/79/42 70/93/56 60/83/46
f 70/93/56 58/79/42 57/77/39
f 57/77/39 71/94/57 70/93/56
f 71/94/57 69/92/55 70/93/56
f 69/92/55 71/94/57 72/95/58
f 73/96/59 72/95/58 71/94/57
f 71/94/57 57/77/39 73/96/59
f 54/74/41 73/96/59 57/77/39
f 73/96/59 54/74/41 74/97/60
f 72/95/58 73/96/59 74/97/60
f 76/98/61 74/97/60 75/99/62
f 48/65/63 75/99/62 74/97/60
f 74/97/60 54/74/41 48/65/63
f 74/97/60 76/98/61 72/95/58
f 78/100/64 76/98/61 77/101/65
f 75/99/62 77/101/65 76/98/61
f 76/98/61 78/100/64 72/95/58
f 77/101/65 79/102/66 78/100/64
f 81/103/67 78/100/64 79/102/66
f 72/95/58 78/100/64 69/92/55
f 80/104/68 69/92/55 78/100/64
f 78/100/64 81/103/67 80/104/68
f 82/105/69 80/106/68 81/103/67
f 81/103/67 83/107/70 82/105/69
f 84/108/71 83/107/70 81/103/67
f 79/102/66 84/108/71 81/103/67
f 84/108/71 79/102/66 85/109/72
f 85/109/72 83/107/70 84/108/71
f 88/110/73 85/109/72 79/102/66
f 85/109/72 87/111/74 86/112/75
f 86/112/75 89/113/76 85/109/72
f 87/111/74 85/109/72 88/110/73
f 83/107/70 85/109/72 89/113/76
f 91/114/77 90/115/78 89/113/76
f 82/116/69 89/113/76 90/115/78
f 89/113/76 92/117/79 91/114/77
f 92/117/79 89/113/76 86/112/75
f 89/113/76 82/116/69 83/107/70
f 93/118/80 91/114/77 92/117/79
f 92/117/79 94/119/81 93/118/80
f 94/119/81 92/117/79 86/112/75
f 40/51/31 93/118/80 94/119/81
f 86/112/75 95/120/82 94/119/81
f 94/119/81 44/121/83 40/51/31
f 95/120/82 44/121/83 94/119/81
f 95/120/82 86/112/75 87/111/74
f 44/121/83 95/120/82 96/122/84
f 87/111/74 96/122/84 95/120/82
f 96/122/84 46/61/85 44/121/83
f 96/122/84 87/111/74 88/110/73
f 97/123/86 46/61/85 96/122/84
f 88/110/73 97/123/86 96/122/84
f 46/61/85 97/123/86 75/99/62
f 97/123/86 88/110/73 77/101/65
f 77/101/65 75/99/62 97/123/86
f 41/52/32 93/118/80 40/51/31
f 93/118/80 41/52/32 98/124/87
f 98/124/87 91/114/77 93/118/80
f 98/124/87 35/43/26 34/41/24
f 91/114/77 98/124/87 34/41/24
f 35/43/26 98/124/87 41/52/32
f 34/41/24 90/115/78 91/114/77
f 100/125/88 99/126/89 90/115/78
f 90/115/78 99/126/89 82/116/69
f 90/115/78 34/41/24 100/125/88
f 30/38/21 66/127/52 100/128/88
f 99/129/89 100/128/88 66/127/52
f 100/128/88 33/42/25 30/38/21
f 33/42/25 100/125/88 34/41/24
f 66/127/52 67/130/53 99/129/89
f 99/129/89 67/130/53 80/106/68
f 80/106/68 82/105/69 99/129/89
f 79/102/66 77/101/65 88/110/73
f 69/92/55 80/104/68 67/90/53
f 75/99/62 48/65/63 46/61/85
f 66/89/52 30/38/21 25/33/16
f 55/72/3 5/9/3 51/69/38
f 5/9/3 55/72/3 6/7/2
f 11/16/1 6/15/1 55/76/1
f 49/66/1 48/65/1 54/74/1
f 41/52/32 37/45/28 35/43/26
f 31/39/22 30/38/21 33/42/25
f 20/28/10 28/37/20 19/27/8
f 2/55/33 9/12/7 17/25/7
f 9/12/1 8/13/1 14/20/1
