# Blender v2.93.1 OBJ File: ''
# www.blender.org
mtllib mag1_speedloader.mtl
o mag1.003
v 1.057500 1.173201 -7.209400
v 1.057500 1.173201 -4.835400
v 1.250000 0.540501 -7.367200
v 2.500000 0.895701 -7.367200
v 0.000000 3.395701 -6.855800
v 0.000000 1.803101 -7.074100
v 1.264200 3.395701 -7.013000
v 3.535500 3.395701 -7.367199
v 1.250000 0.540501 -4.618900
v 1.057500 1.460101 -4.208200
v 0.000000 -0.139799 -4.251000
v 0.000000 1.062901 -3.957900
v -1.250000 0.561601 -4.618900
v -1.057500 1.460101 -4.208200
v 0.000000 5.728601 -3.957899
v 1.057500 5.331400 -4.208199
v 1.250000 6.229801 -4.618899
v 1.057500 5.515001 -4.835399
v 0.000000 5.112701 -7.074099
v 1.057500 5.515001 -7.209399
v 0.000000 5.112701 -5.115199
v -1.057500 5.515001 -4.835399
v 0.000000 1.803101 -5.115200
v -1.057500 1.276401 -4.835400
v -1.057500 1.276401 -7.209400
v -1.057500 5.331400 -4.208199
v -1.250000 6.229801 -4.618899
v -1.057500 5.515001 -7.209399
v -1.250000 6.229802 -7.367199
v 0.000000 6.931201 -4.250999
v 0.000000 6.931201 -7.367199
v -1.849200 7.860002 -8.459299
v 0.000000 8.227801 -8.459299
v 1.849200 7.860002 -8.459299
v 1.250000 6.229802 -7.367199
v 2.500000 5.895701 -7.367199
v 3.416800 6.812501 -8.459299
v 4.464300 5.244902 -8.459299
v 1.913400 8.015101 -10.486699
v 3.535500 6.931202 -10.486699
v 4.619400 5.309102 -10.486699
v 5.000000 3.395702 -10.486699
v 4.464300 1.546601 -8.459300
v 3.535500 -0.139798 -10.486700
v 0.000000 -1.604298 -10.486700
v 4.832100 3.395701 -8.459299
v 4.619400 1.482302 -10.486700
v 0.000000 8.395702 -10.486699
v -5.000000 3.395702 -10.486699
v -1.913400 8.015101 -10.486699
v -4.619400 5.309102 -10.486699
v -3.535500 6.931202 -10.486699
v -3.416800 6.812501 -8.459299
v -2.500000 5.895701 -7.367199
v -4.464300 5.244902 -8.459299
v -4.832100 3.395701 -8.459299
v -3.535500 3.395701 -7.367199
v -4.464300 1.546601 -8.459300
v -4.619400 1.482302 -10.486700
v -3.535500 -0.139798 -10.486700
v -3.416800 -0.021099 -8.459300
v -1.913400 -1.223698 -10.486700
v -1.849200 -1.068499 -8.459300
v 0.000000 -0.139799 -7.367200
v 0.000000 -1.436399 -8.459300
v -1.250000 0.561601 -7.367200
v -2.500000 0.895701 -7.367200
v 1.849200 -1.068499 -8.459300
v 1.913400 -1.223698 -10.486700
v 3.416800 -0.021099 -8.459300
v -1.264200 3.395701 -7.013000
vt 0.239100 0.234400
vt 0.239100 0.243200
vt 0.245000 0.244600
vt 0.217200 0.234400
vt 0.217200 0.244600
vt 0.223600 0.243200
vt 0.245000 0.234400
vt 0.243300 0.205100
vt 0.246500 0.204100
vt 0.245100 0.198700
vt 0.233800 0.193800
vt 0.233800 0.204100
vt 0.233800 0.209500
vt 0.241500 0.210000
vt 0.217200 0.244600
vt 0.224200 0.245600
vt 0.222800 0.249000
vt 0.238300 0.245600
vt 0.208900 0.244600
vt 0.217200 0.249000
vt 0.224200 0.245600
vt 0.217200 0.244600
vt 0.239700 0.249000
vt 0.238300 0.245600
vt 0.245000 0.244600
vt 0.217200 0.244600
vt 0.224200 0.245600
vt 0.223600 0.243200
vt 0.245000 0.244600
vt 0.239100 0.243200
vt 0.239100 0.234400
vt 0.245000 0.234400
vt 0.223600 0.234400
vt 0.224200 0.245600
vt 0.222800 0.249000
vt 0.239700 0.249000
vt 0.245000 0.244600
vt 0.222800 0.249000
vt 0.238300 0.245600
vt 0.239700 0.249000
vt 0.217200 0.234400
vt 0.223600 0.234400
vt 0.217200 0.244600
vt 0.223600 0.243200
vt 0.223600 0.234400
vt 0.238300 0.245600
vt 0.239100 0.243200
vt 0.245000 0.244600
vt 0.239100 0.234400
vt 0.245000 0.234400
vt 0.255400 0.244600
vt 0.245000 0.249000
vt 0.255400 0.249000
vt 0.253400 0.218300
vt 0.246300 0.215300
vt 0.249500 0.210000
vt 0.255400 0.210000
vt 0.253700 0.201700
vt 0.246500 0.204100
vt 0.255400 0.244600
vt 0.245100 0.198700
vt 0.243300 0.205100
vt 0.217200 0.234400
vt 0.249300 0.194800
vt 0.244900 0.210000
vt 0.235700 0.210000
vt 0.235700 0.217300
vt 0.242400 0.189900
vt 0.244900 0.202600
vt 0.235700 0.202600
vt 0.241700 0.229500
vt 0.248800 0.225100
vt 0.255400 0.210000
vt 0.244900 0.217300
vt 0.253400 0.218300
vt 0.235700 0.217300
vt 0.244900 0.217300
vt 0.244900 0.225600
vt 0.235700 0.225600
vt 0.249300 0.194800
vt 0.233800 0.188000
vt 0.253700 0.201700
vt 0.233800 0.231400
vt 0.255400 0.210000
vt 0.241700 0.229500
vt 0.235700 0.194300
vt 0.244900 0.194300
vt 0.244900 0.202600
vt 0.253400 0.218300
vt 0.248800 0.225100
vt 0.235700 0.202600
vt 0.244900 0.210000
vt 0.235700 0.210000
vt 0.244900 0.217300
vt 0.248800 0.225100
vt 0.244800 0.221200
vt 0.241700 0.229500
vt 0.235700 0.217300
vt 0.233800 0.231400
vt 0.244900 0.225600
vt 0.235700 0.225600
vt 0.233800 0.225600
vt 0.241700 0.229500
vt 0.244900 0.217300
vt 0.235700 0.217300
vt 0.244900 0.210000
vt 0.249300 0.194800
vt 0.253700 0.201700
vt 0.235700 0.210000
vt 0.244900 0.202600
vt 0.242400 0.189900
vt 0.235700 0.202600
vt 0.244900 0.194300
vt 0.249500 0.210000
vt 0.246300 0.215300
vt 0.253400 0.218300
vt 0.255400 0.210000
vt 0.235700 0.194300
vt 0.244800 0.221200
vt 0.248800 0.225100
vt 0.243200 0.214400
vt 0.217200 0.234400
vt 0.208900 0.244600
vt 0.208900 0.249000
vt 0.244900 0.202600
vt 0.235700 0.202600
vt 0.253700 0.201700
vt 0.244900 0.210000
vt 0.242400 0.189900
vt 0.235700 0.210000
vt 0.249300 0.194800
vt 0.242400 0.189900
vt 0.233800 0.215300
vt 0.243200 0.214400
vt 0.233800 0.188000
vt 0.245000 0.234400
vt 0.241500 0.210000
vn 0.7398 0.4843 0.4670
vn 0.7651 0.4682 -0.4421
vn 0.9176 -0.2627 0.2983
vn 0.0317 0.8525 0.5218
vn 0.7645 -0.4777 0.4328
vn 0.2987 -0.2969 0.9070
vn 0.4440 -0.0183 0.8958
vn 0.1395 0.0024 0.9902
vn -0.0007 -0.0005 1.0000
vn 0.8111 -0.0492 0.5829
vn -0.0010 -0.1691 0.9856
vn -0.0049 -0.8035 0.5953
vn -0.7553 -0.0616 0.6525
vn -0.8467 -0.3848 0.3675
vn -0.0000 0.1697 0.9855
vn 0.8089 0.0458 0.5862
vn 0.9131 0.2715 0.3042
vn 0.7298 -0.5118 -0.4533
vn -0.0000 -0.6951 -0.7189
vn 0.0000 -0.8691 0.4946
vn 0.6967 -0.5285 0.4852
vn -0.7298 -0.5118 -0.4533
vn 0.0253 0.6718 -0.7403
vn -0.7547 0.4832 -0.4437
vn -0.7249 0.4983 0.4756
vn -0.7553 0.0616 0.6525
vn -0.8467 0.3848 0.3675
vn -0.6966 -0.5285 0.4852
vn -0.7641 0.4802 0.4308
vn -0.0000 0.8042 0.5943
vn -0.0000 0.9415 0.3371
vn -0.3347 0.8076 0.4855
vn 0.0000 0.9419 0.3358
vn 0.3347 0.8076 0.4855
vn 0.7641 0.4802 0.4308
vn 0.3189 0.2958 0.9004
vn 0.6347 0.6098 0.4746
vn 0.5202 0.5202 -0.6773
vn 0.7868 0.3480 0.5098
vn 0.2816 0.6797 -0.6773
vn 0.9191 -0.0000 -0.3940
vn 0.6797 0.2815 -0.6773
vn 0.8024 -0.3102 0.5098
vn 0.6797 -0.2815 -0.6773
vn 0.8794 -0.0176 0.4758
vn 0.5202 -0.5202 -0.6773
vn 0.0000 -0.7286 -0.6849
vn -0.0000 0.7286 -0.6849
vn -0.9191 -0.0000 -0.3940
vn -0.2816 0.6797 -0.6773
vn -0.6797 0.2815 -0.6773
vn -0.5202 0.5202 -0.6773
vn -0.6283 0.6283 0.4589
vn -0.2955 0.2973 0.9079
vn -0.8024 0.3102 0.5098
vn -0.8794 0.0176 0.4758
vn -0.4435 0.0176 0.8961
vn -0.7867 -0.3481 0.5098
vn -0.6797 -0.2815 -0.6773
vn -0.5202 -0.5202 -0.6773
vn -0.6347 -0.6098 0.4746
vn -0.2815 -0.6797 -0.6773
vn -0.3347 -0.8076 0.4855
vn -0.0054 -0.9420 0.3357
vn -0.7641 -0.4802 0.4308
vn 0.0000 -0.9419 0.3358
vn -0.3189 -0.2958 0.9004
vn 0.2815 -0.6797 -0.6773
vn 0.3348 -0.8081 0.4846
vn 0.6283 -0.6283 0.4589
vn -0.1396 -0.0000 0.9902
usemtl mat_weapons_1_INST
s 1
f 1/1/1 2/2/2 9/3/3
f 2/4/2 1/5/1 6/6/4
f 9/3/3 3/7/5 1/1/1
f 1/8/1 3/9/5 4/10/6
f 4/10/6 8/11/7 1/8/1
f 1/8/1 7/12/8 5/13/9
f 5/13/9 6/14/4 1/8/1
f 1/8/1 8/11/7 7/12/8
f 9/15/3 10/16/10 12/17/11
f 2/2/2 10/18/10 9/3/3
f 3/19/5 9/15/3 11/20/12
f 12/17/11 11/20/12 9/15/3
f 12/17/11 14/21/13 13/22/14
f 13/22/14 11/20/12 12/17/11
f 14/21/13 12/17/11 15/23/15
f 16/24/16 15/23/15 12/17/11
f 12/17/11 10/16/10 16/24/16
f 15/23/15 16/24/16 17/25/17
f 17/26/17 16/27/16 18/28/18
f 18/28/18 16/27/16 10/18/10
f 18/29/18 21/30/19 19/31/20
f 19/31/20 20/32/21 18/29/18
f 17/26/17 18/28/18 20/33/21
f 21/34/19 18/35/18 2/36/2
f 10/18/10 2/2/2 18/28/18
f 19/31/20 21/30/19 22/37/22
f 22/38/22 21/34/19 23/39/23
f 2/36/2 23/39/23 21/34/19
f 23/39/23 24/40/24 22/38/22
f 24/41/24 23/42/23 6/6/4
f 6/6/4 23/42/23 2/4/2
f 6/6/4 25/43/25 24/41/24
f 13/22/14 24/44/24 25/45/25
f 13/22/14 14/21/13 24/44/24
f 24/44/24 14/21/13 26/46/26
f 26/46/26 22/47/22 24/44/24
f 22/47/22 26/46/26 27/48/27
f 27/48/27 26/46/26 15/23/15
f 15/23/15 26/46/26 14/21/13
f 28/49/28 22/47/22 27/48/27
f 27/48/27 29/50/29 28/49/28
f 29/51/29 27/48/27 30/52/30
f 15/23/15 30/52/30 27/48/27
f 30/52/30 31/53/31 29/51/29
f 31/53/31 30/52/30 17/25/17
f 17/25/17 30/52/30 15/23/15
f 32/54/32 29/55/29 31/56/31
f 31/56/31 33/57/33 32/54/32
f 34/58/34 33/57/33 31/56/31
f 31/56/31 35/59/35 34/58/34
f 17/25/17 35/60/35 31/53/31
f 34/58/34 35/59/35 36/61/36
f 36/61/36 35/59/35 20/62/21
f 20/33/21 35/63/35 17/26/17
f 8/11/7 36/61/36 20/62/21
f 36/61/36 37/64/37 34/58/34
f 37/64/37 36/61/36 8/11/7
f 40/65/38 37/66/37 38/67/39
f 8/11/7 38/68/39 37/64/37
f 37/66/37 40/65/38 39/69/40
f 39/69/40 34/70/34 37/66/37
f 39/71/40 40/72/38 42/73/41
f 38/67/39 41/74/42 40/65/38
f 40/72/38 41/75/42 42/73/41
f 43/76/43 47/77/44 42/78/41
f 42/78/41 46/79/45 43/76/43
f 42/73/41 44/80/46 45/81/47
f 42/73/41 47/82/44 44/80/46
f 48/83/48 42/73/41 45/81/47
f 46/79/45 42/78/41 41/74/42
f 48/83/48 39/71/40 42/73/41
f 48/83/48 49/84/49 50/85/50
f 45/81/47 49/84/49 48/83/48
f 33/86/33 48/87/48 50/88/50
f 34/70/34 39/69/40 48/87/48
f 48/87/48 33/86/33 34/70/34
f 49/84/49 51/89/51 50/85/50
f 51/89/51 52/90/52 50/85/50
f 32/91/32 50/88/50 52/92/52
f 50/88/50 32/91/32 33/86/33
f 53/93/53 52/92/52 51/94/51
f 52/92/52 53/93/53 32/91/32
f 32/54/32 53/95/53 54/96/54
f 54/96/54 53/95/53 55/97/55
f 51/94/51 55/98/55 53/93/53
f 54/96/54 55/97/55 56/99/56
f 49/100/49 56/101/56 55/98/55
f 55/98/55 51/94/51 49/100/49
f 56/99/56 57/102/57 54/96/54
f 57/102/57 56/99/56 58/103/58
f 59/104/59 58/105/58 56/101/56
f 56/101/56 49/100/49 59/104/59
f 58/105/58 59/104/59 60/106/60
f 60/107/60 59/108/59 49/84/49
f 60/106/60 61/109/61 58/105/58
f 61/109/61 60/106/60 62/110/62
f 62/111/62 60/107/60 49/84/49
f 62/110/62 63/112/63 61/109/61
f 63/112/63 62/110/62 45/113/47
f 45/81/47 62/111/62 49/84/49
f 64/114/64 66/115/65 63/116/63
f 63/116/63 65/117/66 64/114/64
f 45/113/47 65/118/66 63/112/63
f 63/116/63 66/115/65 67/119/67
f 67/119/67 61/120/61 63/116/63
f 61/120/61 67/119/67 57/102/57
f 25/121/25 57/102/57 67/119/67
f 25/121/25 67/119/67 66/115/65
f 25/45/25 66/122/65 13/22/14
f 13/22/14 66/123/65 64/124/64
f 69/125/68 68/126/69 65/118/66
f 64/114/64 65/117/66 68/127/69
f 65/118/66 45/113/47 69/125/68
f 68/126/69 69/125/68 44/128/46
f 44/80/46 69/129/68 45/81/47
f 44/128/46 70/130/70 68/126/69
f 68/127/69 70/131/70 4/10/6
f 68/127/69 3/9/5 64/114/64
f 4/10/6 3/9/5 68/127/69
f 47/77/44 43/76/43 70/130/70
f 4/10/6 70/131/70 43/132/43
f 70/130/70 44/128/46 47/77/44
f 64/124/64 11/20/12 13/22/14
f 11/20/12 64/124/64 3/19/5
f 57/102/57 58/103/58 61/120/61
f 57/102/57 25/121/25 71/133/71
f 28/134/28 57/102/57 71/133/71
f 54/96/54 57/102/57 28/134/28
f 5/13/9 71/133/71 25/121/25
f 28/134/28 71/133/71 5/13/9
f 54/96/54 29/55/29 32/54/32
f 28/134/28 29/55/29 54/96/54
f 8/11/7 46/135/45 38/68/39
f 46/135/45 8/11/7 4/10/6
f 41/74/42 38/67/39 46/79/45
f 4/10/6 43/132/43 46/135/45
f 22/37/22 28/136/28 19/31/20
f 5/13/9 19/137/20 28/134/28
f 25/121/25 6/14/4 5/13/9
f 20/62/21 19/137/20 5/13/9
f 5/13/9 7/12/8 20/62/21
f 8/11/7 20/62/21 7/12/8
