# Blender v2.93.1 OBJ File: ''
# www.blender.org
mtllib mag4_speedloader.mtl
o mag4.001
v 1.057500 1.173201 -7.209400
v 1.057500 1.173201 -4.835400
v 1.250000 0.540501 -4.618900
v 1.250000 0.540501 -7.367200
v 2.500000 0.895701 -7.367200
v 0.000000 3.395701 -6.855800
v 0.000000 1.803101 -7.074100
v 1.264200 3.395701 -7.013000
v 3.535500 3.395701 -7.367199
v 4.832100 3.395701 -8.459299
v 1.057500 5.515001 -7.209399
v 2.500000 5.895701 -7.367199
v 4.464300 5.244902 -8.459299
v 3.416800 6.812501 -8.459299
v 1.849200 7.860002 -8.459299
v 1.913400 8.015101 -10.486699
v 3.535500 6.931202 -10.486699
v 4.619400 5.309102 -10.486699
v 5.000000 3.395702 -10.486699
v 4.464300 1.546601 -8.459300
v 0.000000 8.395702 -10.486699
v 4.619400 1.482302 -10.486700
v 3.535500 -0.139798 -10.486700
v 0.000000 -1.604298 -10.486700
v -5.000000 3.395702 -10.486699
v 0.000000 -1.436399 -8.459300
v -1.849200 -1.068499 -8.459300
v -1.913400 -1.223698 -10.486700
v 1.913400 -1.223698 -10.486700
v 1.849200 -1.068499 -8.459300
v 3.416800 -0.021099 -8.459300
v 0.000000 -0.139799 -7.367200
v 0.000000 -0.139799 -4.251000
v -1.250000 0.561601 -7.367200
v -1.250000 0.561601 -4.618900
v -1.057500 1.460101 -4.208200
v 0.000000 1.062901 -3.957900
v -1.057500 1.276401 -7.209400
v -1.057500 1.276401 -4.835400
v 0.000000 1.803101 -5.115200
v -1.057500 5.515001 -4.835399
v -1.057500 5.331400 -4.208199
v -1.250000 6.229801 -4.618899
v 0.000000 5.728601 -3.957899
v 1.250000 6.229801 -4.618899
v 1.057500 5.331400 -4.208199
v 0.000000 6.931201 -4.250999
v 0.000000 6.931201 -7.367199
v -1.250000 6.229802 -7.367199
v -1.057500 5.515001 -7.209399
v -2.500000 5.895701 -7.367199
v -1.849200 7.860002 -8.459299
v 0.000000 8.227801 -8.459299
v -3.535500 6.931202 -10.486699
v -1.913400 8.015101 -10.486699
v -3.416800 6.812501 -8.459299
v -4.464300 5.244902 -8.459299
v -4.619400 5.309102 -10.486699
v -4.832100 3.395701 -8.459299
v -3.535500 3.395701 -7.367199
v -4.464300 1.546601 -8.459300
v -4.619400 1.482302 -10.486700
v -3.535500 -0.139798 -10.486700
v -3.416800 -0.021099 -8.459300
v -2.500000 0.895701 -7.367200
v -1.264200 3.395701 -7.013000
v 0.000000 5.112701 -7.074099
v 0.000000 5.112701 -5.115199
v 1.057500 5.515001 -4.835399
v 1.057500 1.460101 -4.208200
v 1.250000 6.229802 -7.367199
vt 0.025700 0.855200
vt 0.014300 0.855200
vt 0.013200 0.858800
vt 0.006100 0.828000
vt 0.006100 0.813000
vt 0.012200 0.813000
vt 0.026500 0.858800
vt 0.033800 0.839800
vt 0.029900 0.838500
vt 0.032300 0.830800
vt 0.047500 0.824700
vt 0.047500 0.838700
vt 0.047500 0.846700
vt 0.037600 0.846400
vt 0.047500 0.816500
vt 0.033800 0.839800
vt 0.036500 0.818700
vt 0.032300 0.830800
vt 0.026700 0.825000
vt 0.043600 0.834800
vt 0.031000 0.834500
vt 0.031000 0.845000
vt 0.020000 0.834600
vt 0.043600 0.845000
vt 0.031000 0.855500
vt 0.035500 0.874300
vt 0.025900 0.867600
vt 0.017500 0.846100
vt 0.019600 0.857700
vt 0.043600 0.855100
vt 0.031000 0.855500
vt 0.043600 0.855100
vt 0.043600 0.866900
vt 0.031000 0.866900
vt 0.047500 0.876700
vt 0.047500 0.816500
vt 0.020000 0.834600
vt 0.026700 0.825000
vt 0.036500 0.818700
vt 0.017500 0.846100
vt 0.043600 0.823000
vt 0.031000 0.823000
vt 0.031000 0.834500
vt 0.043600 0.834800
vt 0.043600 0.834800
vt 0.036500 0.818700
vt 0.031000 0.834500
vt 0.043600 0.845000
vt 0.020000 0.834600
vt 0.026700 0.825000
vt 0.031000 0.845000
vt 0.025500 0.846300
vt 0.017500 0.846100
vt 0.006100 0.877100
vt 0.006100 0.862100
vt 0.012200 0.862900
vt 0.012200 0.877100
vt 0.019600 0.857700
vt 0.029800 0.854100
vt 0.012200 0.877100
vt 0.006100 0.856300
vt 0.011200 0.854400
vt 0.013200 0.831400
vt 0.011200 0.835700
vt 0.014300 0.834800
vt 0.025700 0.834800
vt 0.026500 0.831400
vt 0.006100 0.813000
vt 0.006100 0.828000
vt 0.012200 0.827300
vt 0.011200 0.835700
vt 0.006100 0.833700
vt 0.006100 0.856300
vt 0.011200 0.854400
vt 0.014300 0.855200
vt 0.013200 0.858800
vt 0.012200 0.827300
vt 0.011200 0.835700
vt 0.006100 0.833700
vt 0.011200 0.835700
vt 0.012200 0.827300
vt 0.006100 0.828000
vt 0.006100 0.813000
vt 0.012200 0.813000
vt 0.026500 0.858800
vt 0.025700 0.855200
vt 0.034200 0.853000
vt 0.029800 0.854100
vt 0.031700 0.861900
vt 0.019600 0.857700
vt 0.025500 0.846300
vt 0.017500 0.846100
vt 0.043600 0.834800
vt 0.031000 0.834500
vt 0.031000 0.823000
vt 0.043600 0.845000
vt 0.031000 0.845000
vt 0.025900 0.867600
vt 0.035500 0.874300
vt 0.043600 0.855100
vt 0.031000 0.855500
vt 0.019600 0.857700
vt 0.025900 0.867600
vt 0.035500 0.874300
vt 0.043600 0.866900
vt 0.031000 0.866900
vt 0.047500 0.876700
vt 0.047500 0.868700
vt 0.035500 0.874300
vt 0.043600 0.855100
vt 0.031000 0.855500
vt 0.043600 0.845000
vt 0.026700 0.825000
vt 0.020000 0.834600
vt 0.031000 0.845000
vt 0.025900 0.867600
vt 0.031700 0.861900
vt 0.034200 0.853000
vt 0.047500 0.854500
vt 0.043600 0.823000
vt 0.037600 0.846400
vt 0.006100 0.862100
vt 0.006100 0.877100
vt 0.012200 0.877100
vt 0.006100 0.877100
vt 0.006100 0.862100
vt 0.012200 0.862900
vt 0.011200 0.854400
vt 0.014300 0.834800
vt 0.011200 0.854400
vt 0.006100 0.856300
vt 0.006100 0.833700
vt 0.013200 0.831400
vt 0.025700 0.834800
vt 0.012200 0.862900
vt 0.029900 0.838500
vt 0.012200 0.813000
vt 0.026500 0.831400
vt 0.036500 0.818700
vn 0.7398 0.4843 0.4670
vn 0.7651 0.4682 -0.4421
vn 0.9176 -0.2627 0.2983
vn 0.0317 0.8525 0.5218
vn 0.7645 -0.4777 0.4328
vn 0.2987 -0.2969 0.9070
vn 0.4440 -0.0183 0.8958
vn 0.1395 0.0024 0.9902
vn -0.0007 -0.0005 1.0000
vn 0.8794 -0.0176 0.4758
vn 0.6966 -0.5285 0.4852
vn 0.7868 0.3480 0.5098
vn 0.3189 0.2958 0.9004
vn 0.6347 0.6098 0.4746
vn 0.2816 0.6797 -0.6773
vn 0.3347 0.8076 0.4855
vn 0.5202 0.5202 -0.6773
vn 0.9191 -0.0000 -0.3940
vn 0.6797 0.2815 -0.6773
vn 0.8024 -0.3102 0.5098
vn 0.6797 -0.2815 -0.6773
vn -0.0000 0.7286 -0.6849
vn -0.0000 -0.7286 -0.6849
vn 0.5202 -0.5202 -0.6773
vn -0.2815 -0.6797 -0.6773
vn -0.9191 -0.0000 -0.3940
vn 0.0000 -0.9419 0.3358
vn -0.3347 -0.8076 0.4855
vn 0.2815 -0.6797 -0.6773
vn 0.3348 -0.8081 0.4846
vn 0.6283 -0.6283 0.4589
vn -0.0039 -0.9420 0.3357
vn -0.0049 -0.8035 0.5953
vn -0.9131 -0.2715 0.3042
vn -0.7641 -0.4802 0.4308
vn -0.0010 -0.1691 0.9856
vn -0.8089 -0.0458 0.5862
vn -0.7547 0.4832 -0.4437
vn -0.7249 0.4983 0.4756
vn 0.0253 0.6718 -0.7403
vn -0.7298 -0.5118 -0.4533
vn -0.8089 0.0458 0.5862
vn -0.9131 0.2715 0.3042
vn -0.0000 0.1697 0.9855
vn 0.7553 0.0616 0.6525
vn 0.9131 0.2715 0.3042
vn -0.0000 0.8042 0.5943
vn -0.0000 0.9415 0.3371
vn -0.7641 0.4802 0.4308
vn -0.6966 -0.5285 0.4852
vn -0.2955 0.2973 0.9079
vn -0.3347 0.8076 0.4855
vn 0.0000 0.9419 0.3358
vn -0.2816 0.6797 -0.6773
vn -0.5202 0.5202 -0.6773
vn -0.6282 0.6283 0.4589
vn -0.8024 0.3102 0.5098
vn -0.6797 0.2815 -0.6773
vn -0.8794 0.0176 0.4758
vn -0.4436 0.0179 0.8961
vn -0.7867 -0.3481 0.5098
vn -0.6797 -0.2815 -0.6773
vn -0.5202 -0.5202 -0.6773
vn -0.6347 -0.6098 0.4746
vn -0.3189 -0.2958 0.9004
vn -0.1396 -0.0000 0.9902
vn 0.0000 -0.8691 0.4946
vn 0.7298 -0.5118 -0.4533
vn 0.0000 -0.6951 -0.7189
vn 0.7584 -0.0639 0.6487
vn 0.7641 0.4802 0.4308
usemtl mat_weapons_1_INST
s 1
f 1/1/1 2/2/2 3/3/3
f 2/4/2 1/5/1 7/6/4
f 3/3/3 4/7/5 1/1/1
f 1/8/1 4/9/5 5/10/6
f 5/10/6 9/11/7 1/8/1
f 1/8/1 8/12/8 6/13/9
f 6/13/9 7/14/4 1/8/1
f 1/8/1 9/11/7 8/12/8
f 10/15/10 9/11/7 5/10/6
f 9/11/7 11/16/11 8/12/8
f 9/11/7 10/15/10 13/17/12
f 9/11/7 12/18/13 11/16/11
f 14/19/14 12/18/13 9/11/7
f 9/11/7 13/17/12 14/19/14
f 16/20/15 15/21/16 14/22/14
f 12/18/13 14/19/14 15/23/16
f 17/24/17 14/22/14 13/25/12
f 14/22/14 17/24/17 16/20/15
f 16/26/15 17/27/17 19/28/18
f 17/27/17 18/29/19 19/28/18
f 13/25/12 18/30/19 17/24/17
f 20/31/20 22/32/21 19/33/18
f 19/33/18 10/34/10 20/31/20
f 21/35/22 16/26/15 19/28/18
f 10/34/10 19/33/18 18/30/19
f 21/35/22 19/28/18 24/36/23
f 19/28/18 22/37/21 23/38/24
f 19/28/18 23/38/24 24/36/23
f 24/36/23 28/39/25 25/40/26
f 24/36/23 25/40/26 21/35/22
f 24/41/23 26/42/27 27/43/28
f 26/42/27 24/41/23 29/44/29
f 27/43/28 28/45/25 24/41/23
f 23/38/24 29/46/29 24/36/23
f 29/44/29 30/47/30 26/42/27
f 30/47/30 29/44/29 23/48/24
f 5/10/6 4/9/5 30/49/30
f 30/49/30 31/50/31 5/10/6
f 23/48/24 31/51/31 30/47/30
f 32/52/32 26/53/27 30/49/30
f 30/49/30 4/9/5 32/52/32
f 32/54/32 33/55/33 35/56/34
f 33/55/33 32/54/32 4/57/5
f 27/58/28 26/53/27 32/52/32
f 32/52/32 34/59/35 27/58/28
f 35/56/34 34/60/35 32/54/32
f 37/61/36 36/62/37 35/56/34
f 35/63/34 36/64/37 39/65/38
f 35/56/34 33/55/33 37/61/36
f 38/66/39 34/67/35 35/63/34
f 35/63/34 39/65/38 38/66/39
f 7/6/4 38/68/39 39/69/38
f 39/69/38 40/70/40 7/6/4
f 40/71/40 39/72/38 41/73/41
f 42/74/42 41/75/41 39/65/38
f 39/65/38 36/64/37 42/74/42
f 41/75/41 42/74/42 43/76/43
f 43/77/43 42/78/42 44/79/44
f 44/79/44 42/78/42 36/62/37
f 36/62/37 37/61/36 44/79/44
f 44/79/44 46/80/45 45/81/46
f 45/81/46 47/82/47 44/79/44
f 46/80/45 44/79/44 37/61/36
f 44/79/44 47/82/47 43/77/43
f 47/82/47 48/83/48 49/84/49
f 48/83/48 47/82/47 45/81/46
f 49/84/49 43/77/43 47/82/47
f 43/76/43 49/85/49 50/86/50
f 50/87/50 49/88/49 51/89/51
f 51/89/51 49/88/49 52/90/52
f 52/90/52 49/88/49 48/91/48
f 48/91/48 53/92/53 52/90/52
f 55/93/54 52/94/52 53/95/53
f 52/94/52 55/93/54 54/96/55
f 54/96/55 56/97/56 52/94/52
f 52/90/52 56/98/56 51/89/51
f 51/89/51 56/98/56 57/99/57
f 58/100/58 57/101/57 56/97/56
f 56/97/56 54/96/55 58/100/58
f 58/102/58 54/103/55 55/104/54
f 25/40/26 58/102/58 55/104/54
f 57/101/57 58/100/58 25/105/26
f 25/105/26 59/106/59 57/101/57
f 51/89/51 57/99/57 59/107/59
f 59/107/59 60/108/60 51/89/51
f 60/108/60 59/107/59 61/109/61
f 62/110/62 61/111/61 59/106/59
f 59/106/59 25/105/26 62/110/62
f 61/111/61 62/110/62 63/112/63
f 63/113/63 62/114/62 25/40/26
f 63/112/63 64/115/64 61/111/61
f 64/115/64 63/112/63 28/45/25
f 28/39/25 63/113/63 25/40/26
f 64/116/64 65/117/65 60/108/60
f 60/108/60 61/109/61 64/116/64
f 28/45/25 27/43/28 64/115/64
f 65/117/65 64/116/64 27/58/28
f 38/118/39 60/108/60 65/117/65
f 38/118/39 65/117/65 34/59/35
f 27/58/28 34/59/35 65/117/65
f 51/89/51 60/108/60 50/87/50
f 50/87/50 60/108/60 66/119/66
f 60/108/60 38/118/39 66/119/66
f 50/87/50 66/119/66 6/13/9
f 6/13/9 66/119/66 38/118/39
f 53/95/53 21/120/22 55/93/54
f 21/35/22 25/40/26 55/104/54
f 15/23/16 53/92/53 48/91/48
f 21/120/22 53/95/53 15/21/16
f 6/13/9 67/121/67 50/87/50
f 41/122/41 50/123/50 67/124/67
f 50/86/50 41/75/41 43/76/43
f 11/16/11 67/121/67 6/13/9
f 67/124/67 11/125/11 69/126/68
f 67/124/67 68/127/69 41/122/41
f 69/126/68 68/127/69 67/124/67
f 70/128/70 2/2/2 69/129/68
f 68/130/69 69/131/68 2/132/2
f 45/133/46 46/80/45 69/129/68
f 45/133/46 69/129/68 11/134/11
f 69/129/68 46/80/45 70/128/70
f 2/2/2 70/128/70 3/3/3
f 37/61/36 70/128/70 46/80/45
f 3/135/3 70/128/70 37/61/36
f 2/132/2 40/71/40 68/130/69
f 41/73/41 68/130/69 40/71/40
f 48/91/48 71/136/71 15/23/16
f 45/81/46 71/137/71 48/83/48
f 15/23/16 71/136/71 12/18/13
f 11/134/11 71/138/71 45/133/46
f 12/18/13 71/136/71 11/16/11
f 7/6/4 40/70/40 2/4/2
f 38/118/39 7/14/4 6/13/9
f 37/61/36 33/55/33 3/135/3
f 4/57/5 3/135/3 33/55/33
f 5/10/6 31/50/31 20/139/20
f 22/32/21 20/31/20 31/51/31
f 31/51/31 23/48/24 22/32/21
f 15/21/16 16/20/15 21/120/22
f 5/10/6 20/139/20 10/15/10
f 18/30/19 13/25/12 10/34/10
f 6/13/9 8/12/8 11/16/11
