# 3ds Max Wavefront OBJ Exporter v0.99 - (c)2007 guruware
# File Created: 28.08.2021 11:03:55

mtllib acc2.mtl

#
# object acc2
#

v  0.9365 3.2571 -45.7114
v  -0.9365 3.2571 -45.7114
v  1.1576 2.5767 -46.3514
v  -0.7951 4.4778 -45.9211
v  -0.7951 4.4778 -46.9853
v  -0.7951 3.6783 -46.5288
v  -0.7950 3.5811 -61.0624
v  -0.7950 3.5811 -59.1918
v  -0.7950 4.4778 -59.1918
v  -0.7950 4.4778 -61.6473
v  -0.7950 5.6174 -61.6473
v  -0.7950 5.6174 -59.1918
v  -0.7951 5.6174 -46.9853
v  -0.7951 5.6174 -45.9211
v  -0.7951 4.4778 -45.1496
v  -0.7951 5.6174 -45.1496
v  0.7820 5.6174 -46.9853
v  0.7820 5.6174 -59.1918
v  0.7820 4.4778 -59.1918
v  0.7820 3.5811 -59.1918
v  0.7820 4.4778 -46.9853
v  0.7820 3.6783 -46.5288
v  -0.5336 3.6429 -59.9610
v  0.5338 3.6429 -59.9610
v  0.3257 3.6429 -60.9321
v  -0.3257 3.6429 -60.9321
v  0.9783 3.6428 -59.2710
v  0.8637 3.6428 -59.9610
v  -0.9783 3.6428 -59.2710
v  -0.8637 3.6428 -59.9610
v  -0.8637 2.5767 -59.9610
v  -0.9783 2.5767 -59.2710
v  -0.7915 2.0016 -59.2710
v  -0.6988 2.0690 -59.9610
v  -0.3023 1.6462 -59.2710
v  -0.2669 1.7552 -59.9610
v  0.3023 1.6462 -59.2710
v  0.2669 1.7552 -59.9610
v  0.7915 2.0016 -59.2710
v  0.6988 2.0690 -59.9610
v  0.9783 2.5767 -59.2710
v  0.8637 2.5767 -59.9610
v  0.7820 4.4778 -45.9211
v  0.7820 3.5811 -61.0624
v  0.7820 4.4778 -61.6473
v  0.7820 5.6174 -45.9211
v  0.7820 5.6174 -45.1496
v  0.7820 4.4778 -45.1496
v  0.7820 5.6174 -61.6473
v  -1.1576 2.5767 -45.7114
v  0.3577 3.6776 -45.7114
v  -0.3577 3.6776 -45.7114
v  -1.1576 2.5767 -46.3514
v  -0.9365 1.8962 -46.3514
v  -0.9365 1.8962 -45.7114
v  -0.9365 3.2571 -46.3514
v  -0.3577 3.6776 -46.3514
v  0.3577 3.6776 -46.3514
v  0.9365 3.2571 -46.3514
v  -0.3577 1.4757 -45.7114
v  0.3577 1.4757 -45.7114
v  0.9365 1.8962 -45.7114
v  1.1576 2.5767 -45.7114
v  0.9365 1.8962 -46.3514
v  0.3577 1.4757 -46.3514
v  -0.3577 1.4757 -46.3514
v  0.3257 3.2278 -60.9321
v  -0.3257 3.2278 -60.9321
v  0.2551 3.0105 -60.9321
v  -0.2551 3.0105 -60.9321
v  0.0975 2.8959 -60.9321
v  -0.0975 2.8959 -60.9321
v  0.6893 0.2506 -51.9419
v  -0.6893 0.2506 -51.9419
v  -1.8046 1.0610 -51.9419
v  1.8046 1.0610 -51.9419
v  -2.2307 2.3721 -51.9419
v  2.2307 2.3721 -51.9419
v  -1.8046 3.6833 -51.9419
v  1.8046 3.6833 -51.9419
v  -0.6893 4.4936 -51.9419
v  0.6893 4.4936 -51.9419
v  0.6893 4.4936 -49.8633
v  -0.6893 4.4936 -49.8633
v  -1.8046 3.6833 -49.8633
v  1.8046 3.6833 -49.8633
v  -2.2307 2.3721 -49.8633
v  2.2307 2.3721 -49.8633
v  -1.8046 1.0610 -49.8633
v  1.8046 1.0610 -49.8633
v  -0.6893 0.2506 -49.8633
v  0.6893 0.2506 -49.8633
v  2.1244 2.5767 -59.1610
v  1.7187 3.8254 -59.1610
v  0.6565 4.5971 -59.1610
v  -0.6565 4.5971 -59.1610
v  -1.7187 3.8254 -59.1610
v  -2.1244 2.5767 -59.1610
v  -1.7187 1.3279 -59.1610
v  -0.6565 0.5562 -59.1610
v  0.6565 0.5562 -59.1610
v  1.7187 1.3279 -59.1610
v  -1.3453 3.5540 -46.3514
v  -1.6628 2.5767 -46.3514
v  -1.3453 1.5993 -46.3514
v  -0.5138 0.9952 -46.3514
v  0.5138 0.9952 -46.3514
v  1.3453 1.5993 -46.3514
v  1.6628 2.5767 -46.3514
v  1.3453 3.5540 -46.3514
v  0.5138 4.1581 -46.3514
v  -0.5138 4.1581 -46.3514
v  0.5337 2.9613 -59.9610
v  0.4181 2.6053 -59.9610
v  -0.5337 2.9613 -59.9610
v  -0.4181 2.6053 -59.9610
v  -0.1597 2.4176 -59.9610
v  0.1597 2.4176 -59.9610
v  0.6565 0.5562 -47.0414
v  -0.6565 0.5562 -47.0414
v  1.7187 1.3279 -47.0414
v  2.1244 2.5767 -47.0414
v  1.7187 3.8254 -47.0414
v  0.6565 4.5971 -47.0414
v  -1.7187 1.3279 -47.0414
v  -2.1244 2.5767 -47.0414
v  -1.7187 3.8254 -47.0414
v  -0.6565 4.5971 -47.0414
# 128 vertices

vn 0.9277 0.3453 0.1419
vn 0.4364 0.5154 0.7375
vn 0.8196 0.0681 0.5688
vn 0.8945 0.0000 0.4471
vn -0.7071 -0.6334 0.3143
vn -0.5005 -0.7488 -0.4345
vn -0.6715 -0.7394 -0.0484
vn -0.7071 -0.6218 -0.3368
vn -0.5774 -0.5774 0.5772
vn -0.7071 -0.2015 -0.6778
vn -0.7071 0.5000 -0.5001
vn -0.4472 0.8944 -0.0000
vn -0.7071 0.7071 -0.0000
vn -0.7071 -0.5000 0.5001
vn -0.7071 0.5000 0.5001
vn 0.4472 0.8944 -0.0000
vn 0.5774 -0.5774 0.5772
vn 0.5005 -0.7488 -0.4345
vn 0.6715 -0.7394 -0.0484
vn -0.5289 0.5410 -0.6539
vn 0.5288 0.5408 -0.6542
vn -0.5288 0.5408 -0.6541
vn 0.5639 0.5647 -0.6027
vn 0.5409 0.5482 -0.6379
vn -0.5189 0.4813 -0.7064
vn -0.4443 0.4975 -0.7450
vn -0.6391 -0.1029 -0.7622
vn -0.6753 -0.1065 -0.7298
vn -0.5521 -0.4011 -0.7310
vn -0.5231 -0.3800 -0.7629
vn -0.2109 -0.6490 -0.7310
vn -0.1998 -0.6149 -0.7629
vn 0.2109 -0.6490 -0.7310
vn 0.1998 -0.6149 -0.7629
vn 0.5521 -0.4011 -0.7310
vn 0.5231 -0.3800 -0.7629
vn 0.6787 -0.1004 -0.7275
vn 0.6391 -0.1029 -0.7622
vn 0.7071 -0.6334 0.3143
vn 0.7071 -0.6218 -0.3368
vn 0.7071 -0.2015 -0.6778
vn 0.7071 0.7071 -0.0000
vn 0.7071 0.5000 0.5001
vn 0.7071 -0.5000 0.5001
vn 0.7071 0.5000 -0.5001
vn -0.7653 0.0000 0.6437
vn 0.2365 0.7278 0.6437
vn -0.2365 0.7278 0.6437
vn -0.7070 0.0000 0.7072
vn -0.5720 -0.4156 0.7072
vn -0.6191 -0.4498 0.6437
vn -0.5720 0.4156 0.7072
vn -0.2185 0.6724 0.7072
vn 0.2185 0.6724 0.7072
vn 0.5720 0.4156 0.7072
vn -0.2365 -0.7278 0.6437
vn 0.2365 -0.7278 0.6437
vn 0.6191 -0.4498 0.6437
vn 0.7653 -0.0000 0.6437
vn 0.5720 -0.4156 0.7072
vn 0.2185 -0.6724 0.7072
vn -0.2185 -0.6724 0.7072
vn 0.6104 -0.0821 -0.7878
vn -0.6104 -0.0821 -0.7878
vn 0.4781 -0.3134 -0.8205
vn -0.4781 -0.3134 -0.8205
vn 0.1732 -0.5014 -0.8477
vn -0.1732 -0.5014 -0.8477
vn 0.2185 -0.6724 -0.7072
vn -0.2185 -0.6724 -0.7072
vn -0.5720 -0.4156 -0.7072
vn 0.5720 -0.4156 -0.7072
vn -0.7070 0.0000 -0.7072
vn 0.7070 0.0000 -0.7072
vn -0.5720 0.4156 -0.7072
vn 0.5720 0.4156 -0.7072
vn -0.2185 0.6724 -0.7072
vn 0.2735 0.8418 -0.4654
vn 0.2735 0.8418 0.4654
vn 0.7070 0.0000 0.7072
vn 0.7401 0.0000 -0.6725
vn 0.6154 0.4326 -0.6589
vn 0.2724 0.8560 -0.4394
vn -0.2240 0.7161 -0.6611
vn -0.6169 0.4410 -0.6519
vn -0.7429 -0.0044 -0.6694
vn -0.5987 -0.4350 -0.6725
vn -0.2287 -0.7039 -0.6725
vn 0.2287 -0.7039 -0.6725
vn 0.5987 -0.4350 -0.6725
vn -0.3812 0.2770 0.8820
vn -0.4712 0.0000 0.8820
vn -0.3812 -0.2770 0.8820
vn -0.1456 -0.4481 0.8820
vn 0.1456 -0.4481 0.8820
vn 0.3812 -0.2770 0.8820
vn 0.4712 0.0000 0.8820
vn 0.3812 0.2770 0.8820
vn 0.1891 0.5821 0.7908
vn -0.1456 0.4481 0.8820
vn 0.6022 -0.1089 -0.7909
vn 0.4432 -0.3493 -0.8256
vn -0.6022 -0.1088 -0.7909
vn -0.4432 -0.3493 -0.8256
vn -0.1564 -0.5057 -0.8484
vn 0.1564 -0.5057 -0.8484
vn 0.2970 -0.9142 0.2758
vn -0.2970 -0.9142 0.2758
vn 0.7776 -0.5650 0.2758
vn 0.9612 -0.0000 0.2758
vn 0.7776 0.5650 0.2758
vn 0.2970 0.9142 0.2758
vn -0.7776 -0.5650 0.2758
vn -0.9612 0.0000 0.2758
vn -0.7776 0.5650 0.2758
vn -0.2970 0.9142 0.2758
# 116 vertex normals

vt 0.5059 0.8053 0.8053
vt 0.5059 0.7991 0.7991
vt 0.5083 0.8080 0.8080
vt 0.5156 0.6746 0.6746
vt 0.5156 0.6785 0.6785
vt 0.5122 0.6768 0.6768
vt 0.5117 0.7307 0.7307
vt 0.5117 0.7239 0.7239
vt 0.5156 0.7239 0.7239
vt 0.5156 0.7329 0.7329
vt 0.5200 0.7329 0.7329
vt 0.5200 0.7239 0.7239
vt 0.5200 0.6785 0.6785
vt 0.5200 0.6746 0.6746
vt 0.5156 0.6719 0.6719
vt 0.5200 0.6719 0.6719
vt 0.5103 0.6772 0.6772
vt 0.5034 0.6772 0.6772
vt 0.5034 0.7219 0.7219
vt 0.5103 0.7219 0.7219
vt 0.5034 0.7183 0.7183
vt 0.5103 0.7183 0.7183
vt 0.5103 0.7102 0.7102
vt 0.5034 0.7102 0.7102
vt 0.5073 0.7648 0.7648
vt 0.5073 0.7704 0.7704
vt 0.5024 0.7694 0.7694
vt 0.5024 0.7656 0.7656
vt 0.5107 0.7717 0.7717
vt 0.5073 0.7714 0.7714
vt 0.5107 0.7634 0.7634
vt 0.5073 0.7637 0.7637
vt 0.5073 0.7590 0.7590
vt 0.5107 0.7592 0.7592
vt 0.5107 0.7567 0.7567
vt 0.5073 0.7567 0.7567
vt 0.5107 0.7546 0.7546
vt 0.5073 0.7546 0.7546
vt 0.5107 0.7526 0.7526
vt 0.5073 0.7526 0.7526
vt 0.5107 0.7504 0.7504
vt 0.5073 0.7504 0.7504
vt 0.5107 0.7480 0.7480
vt 0.5073 0.7480 0.7480
vt 0.5073 0.7437 0.7437
vt 0.5107 0.7437 0.7437
vt 0.5205 0.7239 0.7239
vt 0.5205 0.6785 0.6785
vt 0.5205 0.6746 0.6746
vt 0.5205 0.6719 0.6719
vt 0.5205 0.7329 0.7329
vt 0.5083 0.7985 0.7985
vt 0.5044 0.8033 0.8033
vt 0.5044 0.8010 0.8010
vt 0.5083 0.7965 0.7965
vt 0.5122 0.7976 0.7976
vt 0.5107 0.7991 0.7991
vt 0.5049 0.7976 0.7976
vt 0.5024 0.8004 0.8004
vt 0.5024 0.8040 0.8040
vt 0.5049 0.8069 0.8069
vt 0.5122 0.8010 0.8010
vt 0.5122 0.8033 0.8033
vt 0.5107 0.8053 0.8053
vt 0.5083 0.8060 0.8060
vt 0.5122 0.8069 0.8069
vt 0.5142 0.8040 0.8040
vt 0.5142 0.8004 0.8004
vt 0.5161 0.8252 0.8252
vt 0.5161 0.8276 0.8276
vt 0.5176 0.8276 0.8276
vt 0.5176 0.8252 0.8252
vt 0.5186 0.8274 0.8274
vt 0.5186 0.8256 0.8256
vt 0.5190 0.8268 0.8268
vt 0.5190 0.8260 0.8260
vt 0.5107 0.7207 0.7207
vt 0.5039 0.7207 0.7207
vt 0.5039 0.7117 0.7117
vt 0.5107 0.7117 0.7117
vt 0.5039 0.7073 0.7073
vt 0.5107 0.7073 0.7073
vt 0.5039 0.7036 0.7036
vt 0.5107 0.7036 0.7036
vt 0.5039 0.6953 0.6953
vt 0.5107 0.6953 0.6953
vt 0.7075 0.7841 0.7841
vt 0.7075 0.7887 0.7887
vt 0.7104 0.7924 0.7924
vt 0.7104 0.7803 0.7803
vt 0.7148 0.7938 0.7938
vt 0.7148 0.7789 0.7789
vt 0.7197 0.7924 0.7924
vt 0.7197 0.7803 0.7803
vt 0.7227 0.7887 0.7887
vt 0.7227 0.7841 0.7841
vt 0.7217 0.8264 0.8264
vt 0.7217 0.8311 0.8311
vt 0.7188 0.8348 0.8348
vt 0.7188 0.8228 0.8228
vt 0.7139 0.8362 0.8362
vt 0.7139 0.8213 0.8213
vt 0.7095 0.8348 0.8348
vt 0.7095 0.8228 0.8228
vt 0.7065 0.8311 0.8311
vt 0.7065 0.8264 0.8264
vt 0.5103 0.7163 0.7163
vt 0.5034 0.7163 0.7163
vt 0.5034 0.7122 0.7122
vt 0.5103 0.7122 0.7122
vt 0.5034 0.7090 0.7090
vt 0.5103 0.7090 0.7090
vt 0.5034 0.7043 0.7043
vt 0.5103 0.7043 0.7043
vt 0.5034 0.7012 0.7012
vt 0.5103 0.7012 0.7012
vt 0.5034 0.6973 0.6973
vt 0.5103 0.6973 0.6973
vt 0.5122 0.8199 0.8199
vt 0.5103 0.8206 0.8206
vt 0.5103 0.8247 0.8247
vt 0.5054 0.8232 0.8232
vt 0.5059 0.8206 0.8206
vt 0.5024 0.8195 0.8195
vt 0.5024 0.8147 0.8147
vt 0.5059 0.8135 0.8135
vt 0.5054 0.8108 0.8108
vt 0.5103 0.8093 0.8093
vt 0.5103 0.8135 0.8135
vt 0.5146 0.8108 0.8108
vt 0.5122 0.8142 0.8142
vt 0.5176 0.8147 0.8147
vt 0.5137 0.8159 0.8159
vt 0.5176 0.8195 0.8195
vt 0.5137 0.8181 0.8181
vt 0.5146 0.8232 0.8232
vt 0.5098 0.7858 0.7858
vt 0.5137 0.7847 0.7847
vt 0.5137 0.7864 0.7864
vt 0.5161 0.7872 0.7872
vt 0.5171 0.7858 0.7858
vt 0.5176 0.7893 0.7893
vt 0.5195 0.7887 0.7887
vt 0.5176 0.7917 0.7917
vt 0.5195 0.7924 0.7924
vt 0.5161 0.7938 0.7938
vt 0.5171 0.7953 0.7953
vt 0.5137 0.7947 0.7947
vt 0.5137 0.7964 0.7964
vt 0.5107 0.7938 0.7938
vt 0.5098 0.7953 0.7953
vt 0.5093 0.7917 0.7917
vt 0.5073 0.7924 0.7924
vt 0.5093 0.7893 0.7893
vt 0.5073 0.7887 0.7887
vt 0.5107 0.7872 0.7872
vt 0.5098 0.7297 0.7297
vt 0.5098 0.7314 0.7314
vt 0.5044 0.7319 0.7319
vt 0.5044 0.7302 0.7302
vt 0.5098 0.7271 0.7271
vt 0.5044 0.7280 0.7280
vt 0.5098 0.7378 0.7378
vt 0.5098 0.7405 0.7405
vt 0.5044 0.7395 0.7395
vt 0.5044 0.7373 0.7373
vt 0.5098 0.7361 0.7361
vt 0.5044 0.7358 0.7358
vt 0.5098 0.7344 0.7344
vt 0.5044 0.7344 0.7344
vt 0.5098 0.7332 0.7332
vt 0.5044 0.7334 0.7334
vt 0.5103 0.8341 0.8341
vt 0.5122 0.8335 0.8335
vt 0.5098 0.8324 0.8324
vt 0.5088 0.8329 0.8329
vt 0.5059 0.8341 0.8341
vt 0.5059 0.8329 0.8329
vt 0.5103 0.8278 0.8278
vt 0.5059 0.8278 0.8278
vt 0.5059 0.8290 0.8290
vt 0.5088 0.8290 0.8290
vt 0.5122 0.8284 0.8284
vt 0.5098 0.8295 0.8295
vt 0.5132 0.8300 0.8300
vt 0.5107 0.8303 0.8303
vt 0.5132 0.8319 0.8319
vt 0.5107 0.8315 0.8315
vt 0.5239 0.8156 0.8156
vt 0.5239 0.8113 0.8113
vt 0.5698 0.8113 0.8113
vt 0.5698 0.8156 0.8156
vt 0.5239 0.8196 0.8196
vt 0.5698 0.8196 0.8196
vt 0.5239 0.8236 0.8236
vt 0.5698 0.8236 0.8236
vt 0.5239 0.8275 0.8275
vt 0.5698 0.8275 0.8275
vt 0.5698 0.8317 0.8317
vt 0.5239 0.8317 0.8317
vt 0.5215 0.8317 0.8317
vt 0.5215 0.8275 0.8275
vt 0.5215 0.8236 0.8236
vt 0.5215 0.8196 0.8196
vt 0.5215 0.8156 0.8156
vt 0.5215 0.8113 0.8113
vt 0.5239 0.8071 0.8071
vt 0.5215 0.8071 0.8071
vt 0.5239 0.8031 0.8031
vt 0.5215 0.8031 0.8031
vt 0.5239 0.7992 0.7992
vt 0.5215 0.7992 0.7992
vt 0.5239 0.7950 0.7950
vt 0.5215 0.7950 0.7950
vt 0.5239 0.7908 0.7908
vt 0.5215 0.7908 0.7908
vt 0.5698 0.7908 0.7908
vt 0.5698 0.7950 0.7950
vt 0.5698 0.7992 0.7992
vt 0.5698 0.8031 0.8031
vt 0.5698 0.8071 0.8071
vt 0.5200 0.7781 0.7781
vt 0.5200 0.7830 0.7830
vt 0.5127 0.7830 0.7830
vt 0.5127 0.7781 0.7781
vt 0.5200 0.7734 0.7734
vt 0.5127 0.7734 0.7734
vt 0.5200 0.7688 0.7688
vt 0.5127 0.7688 0.7688
vt 0.5200 0.7639 0.7639
vt 0.5127 0.7639 0.7639
vt 0.5200 0.7589 0.7589
vt 0.5127 0.7589 0.7589
vt 0.5200 0.7540 0.7540
vt 0.5127 0.7540 0.7540
vt 0.5200 0.7495 0.7495
vt 0.5127 0.7495 0.7495
vt 0.5200 0.7449 0.7449
vt 0.5127 0.7449 0.7449
vt 0.5200 0.7400 0.7400
vt 0.5127 0.7400 0.7400
vt 0.5200 0.7349 0.7349
vt 0.5127 0.7349 0.7349
# 243 texture coords

o acc2
g acc2
usemtl mat_combat_rifle_INST
s 1
f 1/1/1 2/2/2 1/1/3 
f 3/3/4 1/1/1 1/1/3 
f 4/4/5 5/5/6 6/6/7 
f 7/7/8 8/8/9 9/9/9 
f 9/9/9 10/10/10 7/7/8 
f 11/11/11 10/10/10 9/9/9 
f 9/9/9 12/12/12 11/11/11 
f 13/13/12 12/12/12 9/9/9 
f 9/9/9 5/5/6 13/13/12 
f 13/13/12 5/5/6 4/4/5 
f 4/4/5 14/14/13 13/13/12 
f 14/14/13 4/4/5 15/15/14 
f 15/15/14 16/16/15 14/14/13 
f 13/17/12 17/18/16 18/19/16 
f 18/19/16 12/20/12 13/17/12 
f 19/21/17 9/22/9 8/22/9 
f 8/22/9 20/21/17 19/21/17 
f 5/23/6 21/24/18 22/24/19 
f 22/24/19 6/23/7 5/23/6 
f 19/21/17 21/24/18 5/23/6 
f 5/23/6 9/22/9 19/21/17 
f 23/25/20 24/26/21 25/27/21 
f 25/27/21 26/28/22 23/25/20 
f 27/29/23 28/30/24 24/26/21 
f 27/29/23 24/26/21 23/25/20 
f 23/25/20 29/31/25 27/29/23 
f 23/25/20 30/32/26 29/31/25 
f 29/31/25 30/32/26 31/33/27 
f 31/33/27 32/34/28 29/31/25 
f 33/35/29 32/34/28 31/33/27 
f 31/33/27 34/36/30 33/35/29 
f 35/37/31 33/35/29 34/36/30 
f 34/36/30 36/38/32 35/37/31 
f 37/39/33 35/37/31 36/38/32 
f 36/38/32 38/40/34 37/39/33 
f 39/41/35 37/39/33 38/40/34 
f 38/40/34 40/42/36 39/41/35 
f 41/43/37 39/41/35 40/42/36 
f 40/42/36 42/44/38 41/43/37 
f 41/43/37 42/44/38 28/45/24 
f 28/45/24 27/46/23 41/43/37 
f 21/5/18 43/4/39 22/6/19 
f 20/8/17 44/7/40 45/10/41 
f 45/10/41 19/9/17 20/8/17 
f 18/47/16 19/9/17 45/10/41 
f 21/5/18 19/9/17 18/47/16 
f 18/47/16 17/48/16 21/5/18 
f 21/5/18 17/48/16 46/49/42 
f 46/49/42 43/4/39 21/5/18 
f 43/4/39 46/49/42 47/50/43 
f 47/50/43 48/15/44 43/4/39 
f 45/10/41 49/51/45 18/47/16 
f 1/1/3 2/2/2 50/52/46 
f 51/53/47 52/54/48 2/2/2 
f 1/1/1 51/53/47 2/2/2 
f 53/55/49 54/56/50 55/57/51 
f 55/57/51 50/52/46 53/55/49 
f 56/58/52 53/55/49 50/52/46 
f 50/52/46 2/2/2 56/58/52 
f 57/59/53 56/58/52 2/2/2 
f 2/2/2 52/54/48 57/59/53 
f 58/60/54 57/59/53 52/54/48 
f 52/54/48 51/53/47 58/60/54 
f 59/61/55 58/60/54 51/53/47 
f 51/53/47 1/1/1 59/61/55 
f 3/3/4 59/61/55 1/1/1 
f 60/62/56 61/63/57 62/64/58 
f 62/64/58 55/57/51 60/62/56 
f 55/57/51 62/64/58 63/65/59 
f 63/65/59 50/52/46 55/57/51 
f 50/52/46 63/65/59 1/1/3 
f 3/3/4 1/1/3 63/65/59 
f 64/66/60 3/3/4 63/65/59 
f 63/65/59 62/64/58 64/66/60 
f 65/67/61 64/66/60 62/64/58 
f 62/64/58 61/63/57 65/67/61 
f 66/68/62 65/67/61 61/63/57 
f 61/63/57 60/62/56 66/68/62 
f 54/56/50 66/68/62 60/62/56 
f 60/62/56 55/57/51 54/56/50 
f 26/69/22 25/70/21 67/71/63 
f 67/71/63 68/72/64 26/69/22 
f 68/72/64 67/71/63 69/73/65 
f 69/73/65 70/74/66 68/72/64 
f 70/74/66 69/73/65 71/75/67 
f 71/75/67 72/76/68 70/74/66 
f 12/77/12 18/78/16 49/79/45 
f 49/79/45 11/80/11 12/77/12 
f 11/80/11 49/79/45 45/81/41 
f 45/81/41 10/82/10 11/80/11 
f 10/82/10 45/81/41 44/83/40 
f 44/83/40 7/84/8 10/82/10 
f 7/84/8 44/83/40 20/85/17 
f 20/85/17 8/86/9 7/84/8 
f 73/87/69 74/88/70 75/89/71 
f 75/89/71 76/90/72 73/87/69 
f 76/90/72 75/89/71 77/91/73 
f 77/91/73 78/92/74 76/90/72 
f 78/92/74 77/91/73 79/93/75 
f 79/93/75 80/94/76 78/92/74 
f 80/94/76 79/93/75 81/95/77 
f 81/95/77 82/96/78 80/94/76 
f 83/97/79 84/98/53 85/99/52 
f 85/99/52 86/100/55 83/97/79 
f 86/100/55 85/99/52 87/101/49 
f 87/101/49 88/102/80 86/100/55 
f 88/102/80 87/101/49 89/103/50 
f 89/103/50 90/104/60 88/102/80 
f 90/104/60 89/103/50 91/105/62 
f 91/105/62 92/106/61 90/104/60 
f 6/107/7 22/108/19 43/109/39 
f 43/109/39 4/110/5 6/107/7 
f 4/110/5 43/109/39 48/111/44 
f 48/111/44 15/112/14 4/110/5 
f 15/112/14 48/111/44 47/113/43 
f 47/113/43 16/114/15 15/112/14 
f 16/114/15 47/113/43 46/115/42 
f 46/115/42 14/116/13 16/114/15 
f 14/116/13 46/115/42 17/117/16 
f 17/117/16 13/118/12 14/116/13 
f 39/119/35 41/120/37 93/121/81 
f 94/122/82 93/121/81 41/120/37 
f 41/120/37 27/123/23 94/122/82 
f 95/124/83 94/122/82 27/123/23 
f 96/125/84 95/124/83 27/123/23 
f 27/123/23 29/126/25 96/125/84 
f 97/127/85 96/125/84 29/126/25 
f 98/128/86 97/127/85 29/126/25 
f 29/126/25 32/129/28 98/128/86 
f 99/130/87 98/128/86 32/129/28 
f 32/129/28 33/131/29 99/130/87 
f 100/132/88 99/130/87 33/131/29 
f 33/131/29 35/133/31 100/132/88 
f 101/134/89 100/132/88 35/133/31 
f 35/133/31 37/135/33 101/134/89 
f 102/136/90 101/134/89 37/135/33 
f 37/135/33 39/119/35 102/136/90 
f 93/121/81 102/136/90 39/119/35 
f 103/137/91 104/138/92 53/139/49 
f 54/140/50 53/139/49 104/138/92 
f 104/138/92 105/141/93 54/140/50 
f 66/142/62 54/140/50 105/141/93 
f 105/141/93 106/143/94 66/142/62 
f 65/144/61 66/142/62 106/143/94 
f 106/143/94 107/145/95 65/144/61 
f 64/146/60 65/144/61 107/145/95 
f 107/145/95 108/147/96 64/146/60 
f 3/148/4 64/146/60 108/147/96 
f 108/147/96 109/149/97 3/148/4 
f 59/150/55 3/148/4 109/149/97 
f 109/149/97 110/151/98 59/150/55 
f 58/152/54 59/150/55 110/151/98 
f 110/151/98 111/153/99 58/152/54 
f 57/154/53 58/152/54 111/153/99 
f 111/153/99 112/155/100 57/154/53 
f 56/156/52 57/154/53 112/155/100 
f 112/155/100 103/137/91 56/156/52 
f 53/139/49 56/156/52 103/137/91 
f 113/157/101 114/158/102 69/159/65 
f 69/159/65 67/160/63 113/157/101 
f 24/161/21 113/157/101 67/160/63 
f 67/160/63 25/162/21 24/161/21 
f 115/163/103 23/164/20 26/165/22 
f 26/165/22 68/166/64 115/163/103 
f 116/167/104 115/163/103 68/166/64 
f 68/166/64 70/168/66 116/167/104 
f 117/169/105 116/167/104 70/168/66 
f 70/168/66 72/170/68 117/169/105 
f 118/171/106 117/169/105 72/170/68 
f 72/170/68 71/172/67 118/171/106 
f 114/158/102 118/171/106 71/172/67 
f 71/172/67 69/159/65 114/158/102 
f 42/173/38 40/174/36 114/175/102 
f 114/175/102 113/176/101 42/173/38 
f 28/177/24 42/173/38 113/176/101 
f 113/176/101 24/178/21 28/177/24 
f 31/179/27 30/180/26 23/181/20 
f 23/181/20 115/182/103 31/179/27 
f 34/183/30 31/179/27 115/182/103 
f 115/182/103 116/184/104 34/183/30 
f 36/185/32 34/183/30 116/184/104 
f 116/184/104 117/186/105 36/185/32 
f 38/187/34 36/185/32 117/186/105 
f 117/186/105 118/188/106 38/187/34 
f 40/174/36 38/187/34 118/188/106 
f 118/188/106 114/175/102 40/174/36 
f 119/189/107 120/190/108 100/191/88 
f 100/191/88 101/192/89 119/189/107 
f 121/193/109 119/189/107 101/192/89 
f 101/192/89 102/194/90 121/193/109 
f 122/195/110 121/193/109 102/194/90 
f 102/194/90 93/196/81 122/195/110 
f 123/197/111 122/195/110 93/196/81 
f 93/196/81 94/198/82 123/197/111 
f 94/198/82 95/199/83 124/200/112 
f 124/200/112 123/197/111 94/198/82 
f 123/197/111 124/200/112 111/201/99 
f 111/201/99 110/202/98 123/197/111 
f 122/195/110 123/197/111 110/202/98 
f 110/202/98 109/203/97 122/195/110 
f 121/193/109 122/195/110 109/203/97 
f 109/203/97 108/204/96 121/193/109 
f 119/189/107 121/193/109 108/204/96 
f 108/204/96 107/205/95 119/189/107 
f 120/190/108 119/189/107 107/205/95 
f 107/205/95 106/206/94 120/190/108 
f 125/207/113 120/190/108 106/206/94 
f 106/206/94 105/208/93 125/207/113 
f 126/209/114 125/207/113 105/208/93 
f 105/208/93 104/210/92 126/209/114 
f 127/211/115 126/209/114 104/210/92 
f 104/210/92 103/212/91 127/211/115 
f 128/213/116 127/211/115 103/212/91 
f 103/212/91 112/214/100 128/213/116 
f 124/215/112 128/213/116 112/214/100 
f 112/214/100 111/216/99 124/215/112 
f 128/213/116 124/215/112 95/217/83 
f 95/217/83 96/218/84 128/213/116 
f 127/211/115 128/213/116 96/218/84 
f 96/218/84 97/219/85 127/211/115 
f 126/209/114 127/211/115 97/219/85 
f 97/219/85 98/220/86 126/209/114 
f 125/207/113 126/209/114 98/220/86 
f 98/220/86 99/221/87 125/207/113 
f 120/190/108 125/207/113 99/221/87 
f 99/221/87 100/191/88 120/190/108 
f 80/222/76 82/223/78 83/224/79 
f 83/224/79 86/225/55 80/222/76 
f 78/226/74 80/222/76 86/225/55 
f 86/225/55 88/227/80 78/226/74 
f 76/228/72 78/226/74 88/227/80 
f 88/227/80 90/229/60 76/228/72 
f 73/230/69 76/228/72 90/229/60 
f 90/229/60 92/231/61 73/230/69 
f 74/232/70 73/230/69 92/231/61 
f 92/231/61 91/233/62 74/232/70 
f 75/234/71 74/232/70 91/233/62 
f 91/233/62 89/235/50 75/234/71 
f 77/236/73 75/234/71 89/235/50 
f 89/235/50 87/237/49 77/236/73 
f 79/238/75 77/236/73 87/237/49 
f 87/237/49 85/239/52 79/238/75 
f 81/240/77 79/238/75 85/239/52 
f 85/239/52 84/241/53 81/240/77 
f 82/242/78 81/240/77 84/241/53 
f 84/241/53 83/243/79 82/242/78 
# 0 polygons - 246 triangles

