# 3ds Max Wavefront OBJ Exporter v0.99 - (c)2007 guruware
# File Created: 28.08.2021 11:04:35

mtllib acc4.mtl

#
# object acc4
#

v  -0.3872 -0.9197 -60.2769
v  -0.3872 -0.9197 -62.1914
v  -0.3872 -1.3125 -62.1914
v  -0.3872 -1.3125 -60.2769
v  0.0000 5.1219 -58.0345
v  0.2800 5.1266 -58.3090
v  0.5700 5.1267 -58.3065
v  0.0000 5.1046 -58.8769
v  0.0000 5.0218 -57.7800
v  -0.2800 5.1266 -58.3090
v  0.0000 5.1261 -57.7445
v  0.0000 5.5895 -58.8912
v  -0.5700 5.1267 -58.3065
v  -0.5700 5.6081 -58.3203
v  0.0000 5.6223 -57.7518
v  -0.2800 4.9657 -50.1872
v  -0.2800 4.7485 -46.2146
v  0.0000 5.0183 -46.0218
v  0.0000 5.2460 -50.1838
v  -0.2800 4.7395 -57.8576
v  -0.2800 4.9499 -58.1898
v  0.0000 5.1131 -58.5871
v  0.0000 4.7625 -58.4173
v  0.0000 4.4572 -57.9352
v  0.0000 4.6855 -50.1907
v  0.0000 4.4786 -46.4074
v  -0.2800 4.1479 -45.9714
v  0.0000 4.0825 -46.2470
v  -0.2800 3.2558 -45.8985
v  0.0000 3.2471 -46.1787
v  -0.2800 2.2274 -45.9185
v  0.0000 2.1744 -46.1996
v  0.0000 1.2202 -45.8047
v  -0.2800 1.2333 -45.5071
v  0.0000 1.2464 -45.2095
v  0.0000 2.2804 -45.6374
v  0.0000 3.2645 -45.6183
v  0.0000 4.2134 -45.6959
v  0.0000 0.1612 -45.5505
v  -0.2800 0.3630 -45.7806
v  0.0000 0.5647 -46.0107
v  -0.2800 0.1084 -46.3277
v  0.0000 0.3623 -46.4459
v  0.0000 -0.1455 -46.2096
v  0.2800 0.1084 -46.3277
v  0.2800 0.3630 -45.7806
v  0.2800 1.2333 -45.5071
v  0.2800 2.2274 -45.9185
v  0.2800 3.2558 -45.8985
v  0.2800 4.1479 -45.9714
v  0.2800 4.7485 -46.2146
v  0.2800 4.9657 -50.1872
v  0.2800 4.7395 -57.8576
v  0.2800 4.9499 -58.1898
v  0.5700 5.6081 -58.3203
v  -1.8167 -0.0639 -63.9408
v  -2.5691 1.7528 -63.9408
v  -1.8167 3.5694 -63.9408
v  -1.0793 -0.8529 -63.5508
v  -1.9943 -0.2415 -63.5508
v  -2.6057 0.6735 -63.5508
v  -2.8203 1.7528 -63.5508
v  -2.6057 2.8321 -63.5508
v  -1.9943 3.7471 -63.5508
v  -1.0793 4.3584 -63.5508
v  0.0000 4.5731 -63.5508
v  0.0000 4.3219 -63.9408
v  1.8167 -0.0639 -63.9408
v  1.0793 -0.8529 -63.5508
v  0.0000 -1.0676 -63.5508
v  0.0000 -0.8164 -63.9408
v  1.8167 3.5694 -63.9408
v  2.5691 1.7528 -63.9408
v  1.0793 4.3584 -63.5508
v  1.9943 3.7471 -63.5508
v  2.6057 2.8321 -63.5508
v  2.8203 1.7528 -63.5508
v  2.6057 0.6735 -63.5508
v  1.9943 -0.2415 -63.5508
v  0.7795 4.4391 -49.6242
v  0.3631 5.9726 -49.6242
v  0.3631 5.9726 -47.9619
v  0.7795 4.4391 -47.9619
v  -0.7795 4.4391 -49.6242
v  -0.3631 5.9726 -49.6242
v  0.7795 4.4391 -60.4291
v  0.3631 5.9726 -60.4291
v  -0.3631 5.9726 -60.4291
v  -0.7795 4.4391 -60.4291
v  0.7795 4.4391 -62.0913
v  0.3631 5.9726 -62.0913
v  -0.7795 4.4391 -62.0913
v  -0.3631 5.9726 -62.0913
v  -0.3631 5.9726 -47.9619
v  -0.7795 4.4391 -47.9619
v  2.8203 1.7528 -46.1685
v  2.6057 2.8321 -46.1685
v  1.9943 3.7471 -46.1685
v  0.0000 4.5731 -46.1685
v  1.0793 4.3584 -46.1685
v  -1.0793 4.3584 -46.1685
v  -1.9943 3.7471 -46.1685
v  -2.6057 2.8321 -46.1685
v  -2.8203 1.7528 -46.1685
v  0.0000 -1.0676 -46.1685
v  1.9943 -0.2415 -46.1685
v  2.6057 0.6735 -46.1685
v  1.0793 -0.8529 -46.1685
v  -2.6057 0.6735 -46.1685
v  -1.9943 -0.2415 -46.1685
v  -1.0793 -0.8529 -46.1685
v  0.3872 -1.3125 -60.2769
v  0.3872 -0.9197 -60.2769
v  -0.3872 -1.3125 -49.7139
v  -0.3872 -0.9197 -49.7139
v  0.3872 -0.9197 -49.7139
v  0.3872 -1.3125 -49.7139
v  0.3872 -0.9197 -47.7995
v  0.3872 -1.3125 -47.7995
v  -0.3872 -1.3125 -47.7995
v  -0.3872 -0.9197 -47.7995
v  0.3872 -1.3125 -62.1914
v  0.3872 -0.9197 -62.1914
# 123 vertices

vn -0.7070 0.0000 0.7072
vn -0.7070 0.0000 -0.7072
vn -0.5774 -0.5774 -0.5772
vn -0.5774 -0.5774 0.5772
vn 0.1563 -0.5456 0.8233
vn 0.6055 -0.7865 -0.1217
vn 0.6523 -0.7578 0.0175
vn -0.0926 -0.5754 -0.8126
vn 0.0058 0.9711 0.2388
vn -0.5865 -0.7920 -0.1694
vn -0.0701 -0.5540 0.8296
vn 0.0001 -0.0293 -0.9996
vn -0.7078 -0.7062 0.0198
vn -1.0000 -0.0024 0.0032
vn -0.0019 0.0170 0.9999
vn -0.9998 0.0189 0.0002
vn -0.9752 0.1800 0.1286
vn 0.0000 0.8137 0.5813
vn 0.0000 0.9999 0.0126
vn -0.9917 -0.1241 -0.0339
vn -0.9899 -0.1067 -0.0932
vn -0.3253 -0.8174 -0.4753
vn -0.0097 -0.6698 -0.7424
vn -0.0000 -0.9644 -0.2644
vn -0.0000 -0.9999 -0.0126
vn 0.0000 -0.8137 -0.5813
vn -0.9977 0.0156 0.0657
vn 0.0000 -0.2310 -0.9730
vn -0.9997 0.0007 0.0227
vn 0.0000 -0.0311 -0.9995
vn -0.9959 -0.0169 -0.0894
vn 0.0000 -0.1854 -0.9827
vn -0.0000 -0.0439 -0.9990
vn -0.9889 0.0065 0.1486
vn 0.0000 0.0440 0.9990
vn -0.0000 0.1854 0.9827
vn -0.0000 0.0310 0.9995
vn 0.0000 0.2310 0.9730
vn 0.0000 -0.6593 0.7519
vn -0.9848 -0.1144 0.1304
vn -0.0000 0.6593 -0.7519
vn -0.7070 -0.2983 -0.6412
vn -0.1465 0.5630 -0.8134
vn -0.1464 -0.9848 -0.0931
vn 0.8165 -0.2436 -0.5235
vn 0.9848 -0.1144 0.1304
vn 0.9889 0.0065 0.1486
vn 0.9959 -0.0169 -0.0894
vn 0.9997 0.0007 0.0227
vn 0.9977 0.0156 0.0657
vn 0.9752 0.1800 0.1286
vn 0.9998 0.0189 0.0002
vn 0.9917 -0.1241 -0.0339
vn 0.9985 -0.0310 -0.0455
vn 1.0000 -0.0001 0.0010
vn -0.3678 -0.3678 -0.8541
vn -0.5196 0.0066 -0.8544
vn -0.4092 0.3530 -0.8414
vn -0.3544 -0.8556 -0.3773
vn -0.6784 -0.6783 -0.2823
vn -0.8556 -0.3544 -0.3773
vn -0.9593 0.0000 -0.2823
vn -0.8048 0.3731 -0.4616
vn -0.6948 0.6500 -0.3079
vn -0.3053 0.8329 -0.4616
vn -0.0212 0.9782 -0.2068
vn -0.0464 0.5393 -0.8408
vn 0.4092 -0.3530 -0.8414
vn 0.3053 -0.8329 -0.4616
vn 0.0212 -0.9782 -0.2068
vn 0.0464 -0.5393 -0.8408
vn 0.3678 0.3678 -0.8541
vn 0.5196 -0.0066 -0.8544
vn 0.3544 0.8556 -0.3773
vn 0.6783 0.6784 -0.2823
vn 0.8556 0.3544 -0.3773
vn 0.9593 0.0000 -0.2823
vn 0.8048 -0.3731 -0.4616
vn 0.6948 -0.6500 -0.3079
vn 0.7422 0.2016 -0.6392
vn 0.6823 0.1853 -0.7072
vn 0.6823 0.1853 0.7072
vn -0.6823 0.1853 -0.7072
vn -0.6823 0.1853 0.7072
vn 0.7070 0.0000 0.7072
vn 0.6532 0.2706 0.7072
vn 0.4999 0.5000 0.7072
vn 0.0000 0.8909 0.4543
vn 0.2706 0.6532 0.7072
vn -0.2706 0.6532 0.7072
vn -0.4999 0.5000 0.7072
vn -0.6532 0.2706 0.7072
vn 0.0000 -0.8908 0.4543
vn 0.5000 -0.5000 0.7072
vn 0.6532 -0.2706 0.7072
vn 0.2706 -0.6532 0.7072
vn -0.6532 -0.2706 0.7072
vn -0.5000 -0.5000 0.7072
vn -0.2706 -0.6532 0.7072
vn 0.7071 0.0000 -0.7071
vn 0.5774 -0.5774 -0.5774
vn -0.5000 -0.7071 0.5001
vn -0.7071 -0.0000 0.7071
# 103 vertex normals

vt 0.6592 0.4771 0.4771
vt 0.6475 0.4771 0.4771
vt 0.6475 0.4746 0.4746
vt 0.6592 0.4746 0.4746
vt 0.5376 0.3418 0.3418
vt 0.5376 0.3398 0.3398
vt 0.5376 0.3369 0.3369
vt 0.5410 0.3418 0.3418
vt 0.5376 0.3428 0.3428
vt 0.5337 0.3369 0.3369
vt 0.5337 0.3398 0.3398
vt 0.5337 0.3428 0.3428
vt 0.5786 0.3398 0.3398
vt 0.5947 0.3398 0.3398
vt 0.5947 0.3418 0.3418
vt 0.5786 0.3418 0.3418
vt 0.5410 0.3398 0.3398
vt 0.5391 0.3398 0.3398
vt 0.5376 0.3384 0.3384
vt 0.5391 0.3384 0.3384
vt 0.5410 0.3384 0.3384
vt 0.5786 0.3384 0.3384
vt 0.5947 0.3384 0.3384
vt 0.5986 0.3398 0.3398
vt 0.5986 0.3384 0.3384
vt 0.6021 0.3398 0.3398
vt 0.6021 0.3384 0.3384
vt 0.6074 0.3398 0.3398
vt 0.6074 0.3384 0.3384
vt 0.6128 0.3384 0.3384
vt 0.6128 0.3398 0.3398
vt 0.6128 0.3418 0.3418
vt 0.6074 0.3418 0.3418
vt 0.6021 0.3418 0.3418
vt 0.5986 0.3418 0.3418
vt 0.6162 0.3418 0.3418
vt 0.6162 0.3398 0.3398
vt 0.6162 0.3384 0.3384
vt 0.6201 0.3398 0.3398
vt 0.6201 0.3384 0.3384
vt 0.6201 0.3418 0.3418
vt 0.6899 0.4814 0.4814
vt 0.6865 0.4897 0.4897
vt 0.6899 0.4980 0.4980
vt 0.6934 0.4775 0.4775
vt 0.6890 0.4805 0.4805
vt 0.6865 0.4849 0.4849
vt 0.6855 0.4897 0.4897
vt 0.6865 0.4946 0.4946
vt 0.6890 0.4990 0.4990
vt 0.6934 0.5015 0.5015
vt 0.6982 0.5024 0.5024
vt 0.6982 0.5012 0.5012
vt 0.7065 0.4814 0.4814
vt 0.7031 0.4775 0.4775
vt 0.6982 0.4766 0.4766
vt 0.6982 0.4780 0.4780
vt 0.7065 0.4980 0.4980
vt 0.7100 0.4897 0.4897
vt 0.7031 0.5015 0.5015
vt 0.7075 0.4990 0.4990
vt 0.7100 0.4946 0.4946
vt 0.7109 0.4897 0.4897
vt 0.7100 0.4849 0.4849
vt 0.7075 0.4805 0.4805
vt 0.6479 0.4634 0.4634
vt 0.6479 0.4727 0.4727
vt 0.6582 0.4727 0.4727
vt 0.6582 0.4634 0.4634
vt 0.6455 0.4727 0.4727
vt 0.6387 0.4634 0.4634
vt 0.6411 0.4727 0.4727
vt 0.6426 0.4771 0.4771
vt 0.6426 0.4746 0.4746
vt 0.5205 0.4043 0.4043
vt 0.5205 0.4546 0.4546
vt 0.5239 0.4546 0.4546
vt 0.5239 0.4043 0.4043
vt 0.5269 0.4546 0.4546
vt 0.5269 0.4043 0.4043
vt 0.5303 0.4546 0.4546
vt 0.5303 0.4043 0.4043
vt 0.5078 0.4043 0.4043
vt 0.5044 0.4043 0.4043
vt 0.5044 0.4546 0.4546
vt 0.5078 0.4546 0.4546
vt 0.5107 0.4043 0.4043
vt 0.5107 0.4546 0.4546
vt 0.5142 0.4043 0.4043
vt 0.5142 0.4546 0.4546
vt 0.5171 0.4043 0.4043
vt 0.5171 0.4546 0.4546
# 92 texture coords

o acc4
g acc4
usemtl mat_combat_rifle_INST
s 1
f 1/1/1 2/2/2 3/3/3 
f 3/3/3 4/4/4 1/1/1 
f 5/5/5 6/6/6 7/6/7 
f 8/7/8 7/6/7 6/6/6 
f 9/8/9 5/5/5 10/6/10 
f 10/6/10 5/5/5 11/9/11 
f 12/10/12 8/7/8 13/6/13 
f 13/6/13 14/11/14 12/10/12 
f 14/11/14 13/6/13 11/9/11 
f 11/9/11 15/12/15 14/11/14 
f 16/13/16 17/14/17 18/15/18 
f 18/15/18 19/16/19 16/13/16 
f 20/17/20 16/13/16 19/16/19 
f 19/16/19 9/8/9 20/17/20 
f 21/18/21 20/17/20 9/8/9 
f 10/6/10 21/18/21 9/8/9 
f 21/18/21 10/6/10 22/19/22 
f 22/19/22 23/20/23 21/18/21 
f 20/17/20 21/18/21 23/20/23 
f 23/20/23 24/21/24 20/17/20 
f 16/13/16 20/17/20 24/21/24 
f 24/21/24 25/22/25 16/13/16 
f 17/14/17 16/13/16 25/22/25 
f 25/22/25 26/23/26 17/14/17 
f 27/24/27 17/14/17 26/23/26 
f 26/23/26 28/25/28 27/24/27 
f 29/26/29 27/24/27 28/25/28 
f 28/25/28 30/27/30 29/26/29 
f 31/28/31 29/26/29 30/27/30 
f 30/27/30 32/29/32 31/28/31 
f 32/29/32 33/30/33 34/31/34 
f 34/31/34 31/28/31 32/29/32 
f 31/28/31 34/31/34 35/32/35 
f 35/32/35 36/33/36 31/28/31 
f 29/26/29 31/28/31 36/33/36 
f 36/33/36 37/34/37 29/26/29 
f 27/24/27 29/26/29 37/34/37 
f 37/34/37 38/35/38 27/24/27 
f 17/14/17 27/24/27 38/35/38 
f 38/35/38 18/15/18 17/14/17 
f 39/36/39 35/32/35 34/31/34 
f 34/31/34 40/37/40 39/36/39 
f 40/37/40 34/31/34 33/30/33 
f 33/30/33 41/38/41 40/37/40 
f 42/39/42 40/37/40 41/38/41 
f 41/38/41 43/40/43 42/39/42 
f 44/41/44 39/36/39 40/37/40 
f 40/37/40 42/39/42 44/41/44 
f 44/41/44 42/39/42 43/40/43 
f 45/39/45 44/41/44 43/40/43 
f 39/36/39 44/41/44 45/39/45 
f 45/39/45 46/37/46 39/36/39 
f 35/32/35 39/36/39 46/37/46 
f 46/37/46 47/31/47 35/32/35 
f 36/33/36 35/32/35 47/31/47 
f 47/31/47 48/28/48 36/33/36 
f 37/34/37 36/33/36 48/28/48 
f 48/28/48 49/26/49 37/34/37 
f 38/35/38 37/34/37 49/26/49 
f 30/27/30 28/25/28 50/24/50 
f 50/24/50 49/26/49 30/27/30 
f 32/29/32 30/27/30 49/26/49 
f 49/26/49 48/28/48 32/29/32 
f 33/30/33 32/29/32 48/28/48 
f 48/28/48 47/31/47 33/30/33 
f 41/38/41 33/30/33 47/31/47 
f 47/31/47 46/37/46 41/38/41 
f 43/40/43 41/38/41 46/37/46 
f 46/37/46 45/39/45 43/40/43 
f 51/14/51 50/24/50 28/25/28 
f 28/25/28 26/23/26 51/14/51 
f 52/13/52 51/14/51 26/23/26 
f 26/23/26 25/22/25 52/13/52 
f 53/17/53 52/13/52 25/22/25 
f 25/22/25 24/21/24 53/17/53 
f 49/26/49 50/24/50 38/35/38 
f 18/15/18 38/35/38 50/24/50 
f 50/24/50 51/14/51 18/15/18 
f 19/16/19 18/15/18 51/14/51 
f 51/14/51 52/13/52 19/16/19 
f 9/8/9 19/16/19 52/13/52 
f 52/13/52 53/17/53 9/8/9 
f 9/8/9 53/17/53 54/18/54 
f 54/18/54 53/17/53 24/21/24 
f 24/21/24 23/20/23 54/18/54 
f 54/18/54 6/6/6 5/5/5 
f 5/5/5 9/8/9 54/18/54 
f 6/6/6 54/18/54 23/20/23 
f 23/20/23 22/19/22 6/6/6 
f 6/6/6 22/19/22 8/7/8 
f 13/6/13 8/7/8 22/19/22 
f 22/19/22 10/6/10 13/6/13 
f 11/9/11 13/6/13 10/6/10 
f 8/7/8 12/10/12 55/11/55 
f 55/11/55 7/6/7 8/7/8 
f 7/6/7 55/11/55 15/12/15 
f 15/12/15 11/9/11 7/6/7 
f 7/6/7 11/9/11 5/5/5 
f 56/42/56 57/43/57 58/44/58 
f 59/45/59 60/46/60 56/42/56 
f 61/47/61 56/42/56 60/46/60 
f 57/43/57 56/42/56 61/47/61 
f 61/47/61 62/48/62 57/43/57 
f 62/48/62 63/49/63 57/43/57 
f 57/43/57 63/49/63 64/50/64 
f 64/50/64 58/44/58 57/43/57 
f 64/50/64 65/51/65 58/44/58 
f 58/44/58 65/51/65 66/52/66 
f 66/52/66 67/53/67 58/44/58 
f 68/54/68 69/55/69 70/56/70 
f 70/56/70 71/57/71 68/54/68 
f 59/45/59 71/57/71 70/56/70 
f 56/42/56 71/57/71 59/45/59 
f 68/54/68 71/57/71 56/42/56 
f 68/54/68 56/42/56 58/44/58 
f 72/58/72 68/54/68 58/44/58 
f 67/53/67 72/58/72 58/44/58 
f 72/58/72 73/59/73 68/54/68 
f 74/60/74 67/53/67 66/52/66 
f 72/58/72 67/53/67 74/60/74 
f 74/60/74 75/61/75 72/58/72 
f 76/62/76 72/58/72 75/61/75 
f 73/59/73 72/58/72 76/62/76 
f 76/62/76 77/63/77 73/59/73 
f 77/63/77 78/64/78 73/59/73 
f 73/59/73 78/64/78 79/65/79 
f 79/65/79 68/54/68 73/59/73 
f 79/65/79 69/55/69 68/54/68 
f 80/66/80 81/67/81 82/68/82 
f 82/68/82 83/69/82 80/66/80 
f 81/70/81 80/66/80 84/71/83 
f 84/71/83 85/72/83 81/70/81 
f 86/66/82 87/70/82 88/72/84 
f 88/72/84 89/71/84 86/66/82 
f 90/66/80 91/67/81 87/68/82 
f 87/68/82 86/69/82 90/66/80 
f 91/70/81 90/66/80 92/71/83 
f 92/71/83 93/72/83 91/70/81 
f 83/66/82 82/70/82 94/72/84 
f 94/72/84 95/71/84 83/66/82 
f 84/66/83 95/69/84 94/68/84 
f 94/68/84 85/67/83 84/66/83 
f 92/66/83 89/69/84 88/68/84 
f 88/68/84 93/67/83 92/66/83 
f 96/63/85 97/62/86 98/61/87 
f 96/63/85 98/61/87 99/52/88 
f 98/61/87 100/60/89 99/52/88 
f 101/51/90 102/50/91 99/52/88 
f 102/50/91 103/49/92 104/48/1 
f 102/50/91 104/48/1 99/52/88 
f 104/48/1 105/56/93 99/52/88 
f 105/56/93 96/63/85 99/52/88 
f 105/56/93 106/65/94 96/63/85 
f 106/65/94 107/64/95 96/63/85 
f 105/56/93 108/55/96 106/65/94 
f 104/48/1 109/47/97 110/46/98 
f 104/48/1 110/46/98 105/56/93 
f 110/46/98 111/45/99 105/56/93 
f 112/3/94 113/2/85 1/73/1 
f 1/73/1 4/74/4 112/3/94 
f 114/74/3 115/73/2 116/2/100 
f 116/2/100 117/3/101 114/74/3 
f 117/3/101 116/2/100 118/1/85 
f 118/1/85 119/4/94 117/3/101 
f 117/3/101 119/4/94 120/4/102 
f 120/4/102 114/3/3 117/3/101 
f 119/74/94 118/73/85 121/2/103 
f 121/2/103 120/3/102 119/74/94 
f 114/4/3 120/3/102 121/2/103 
f 121/2/103 115/1/2 114/4/3 
f 122/3/101 3/74/3 2/73/2 
f 2/73/2 123/2/100 122/3/101 
f 122/3/101 123/2/100 113/1/85 
f 113/1/85 112/4/94 122/3/101 
f 122/3/101 112/4/94 4/4/4 
f 4/4/4 3/3/3 122/3/101 
f 78/75/78 107/76/95 106/77/94 
f 106/77/94 79/78/79 78/75/78 
f 79/78/79 106/77/94 108/79/96 
f 108/79/96 69/80/69 79/78/79 
f 69/80/69 108/79/96 105/81/93 
f 105/81/93 70/82/70 69/80/69 
f 74/83/74 66/84/66 99/85/88 
f 99/85/88 100/86/89 74/83/74 
f 75/87/75 74/83/74 100/86/89 
f 100/86/89 98/88/87 75/87/75 
f 76/89/76 75/87/75 98/88/87 
f 98/88/87 97/90/86 76/89/76 
f 77/91/77 76/89/76 97/90/86 
f 97/90/86 96/92/85 77/91/77 
f 77/91/77 96/92/85 107/76/95 
f 107/76/95 78/75/78 77/91/77 
f 63/89/63 103/90/92 102/88/91 
f 102/88/91 64/87/64 63/89/63 
f 64/87/64 102/88/91 101/86/90 
f 101/86/90 65/83/65 64/87/64 
f 65/83/65 101/86/90 99/85/88 
f 99/85/88 66/84/66 65/83/65 
f 59/80/59 70/82/70 105/81/93 
f 105/81/93 111/79/99 59/80/59 
f 60/78/60 59/80/59 111/79/99 
f 111/79/99 110/77/98 60/78/60 
f 61/75/61 60/78/60 110/77/98 
f 110/77/98 109/76/97 61/75/61 
f 62/91/62 61/75/61 109/76/97 
f 109/76/97 104/92/1 62/91/62 
f 62/91/62 104/92/1 103/90/92 
f 103/90/92 63/89/63 62/91/62 
# 0 polygons - 208 triangles

