# 3ds Max Wavefront OBJ Exporter v0.99 - (c)2007 guruware
# File Created: 28.08.2021 11:10:39

mtllib mag1.mtl

#
# object mag1
#

v  -13.9042 7.5659 -10.4761
v  -14.4165 7.5659 -10.6894
v  -14.4165 5.0830 -10.6894
v  -2.2972 4.6490 -10.8120
v  -2.0706 4.6490 -11.0117
v  -1.6706 5.0830 -10.6894
v  -1.9126 5.0830 -10.4761
v  -13.5282 4.6490 -10.8120
v  -13.9042 5.0830 -10.4761
v  -14.0080 4.6490 -11.0117
v  -1.9126 7.5659 -10.4761
v  -2.2972 7.8743 -10.8120
v  -2.0706 7.8743 -11.0117
v  -1.6706 7.5659 -10.6894
v  -14.4165 7.5659 -20.8516
v  -14.0080 7.8743 -11.0117
v  -13.5282 7.8743 -10.8120
v  -13.5282 7.8743 -20.7290
v  -2.2972 7.8743 -20.7290
v  -2.0706 7.8743 -20.5293
v  -14.0080 7.8743 -20.5293
v  -1.6706 7.5659 -20.8516
v  -1.9126 7.5659 -21.0648
v  -13.9042 7.5659 -21.0648
v  -14.4165 5.0830 -20.8516
v  -14.0080 4.6490 -20.5293
v  -2.0706 4.6490 -20.5293
v  -1.6706 5.0830 -20.8516
v  -2.2972 4.6490 -20.7290
v  -13.5282 4.6490 -20.7290
v  -13.9042 5.0830 -21.0648
v  -1.9126 5.0830 -21.0648
# 32 vertices

vn -0.1950 0.4307 0.8812
vn -0.6848 0.3329 0.6482
vn -0.7738 -0.3745 0.5109
vn 0.0977 -0.9211 0.3770
vn 0.4247 -0.8877 0.1779
vn 0.8478 -0.3767 0.3733
vn 0.3499 -0.3694 0.8609
vn -0.0535 -0.9112 0.4085
vn -0.2020 -0.3590 0.9112
vn -0.3704 -0.8979 0.2377
vn 0.3381 0.4343 0.8349
vn 0.0871 0.9267 0.3656
vn 0.3263 0.9382 0.1153
vn 0.8529 0.3415 0.3950
vn -0.6848 0.3329 -0.6483
vn -0.3017 0.9358 0.1825
vn -0.0442 0.9283 0.3692
vn -0.0442 0.9283 -0.3692
vn 0.0871 0.9267 -0.3656
vn 0.3263 0.9382 -0.1153
vn -0.3017 0.9358 -0.1825
vn 0.8529 0.3415 -0.3950
vn 0.3327 0.4738 -0.8153
vn -0.1939 0.4520 -0.8707
vn -0.7738 -0.3744 -0.5110
vn -0.3704 -0.8979 -0.2377
vn 0.4247 -0.8877 -0.1780
vn 0.8478 -0.3767 -0.3733
vn 0.0977 -0.9211 -0.3769
vn -0.0535 -0.9112 -0.4085
vn -0.2020 -0.3590 -0.9112
vn 0.3499 -0.3694 -0.8609
# 32 vertex normals

vt 0.3672 0.7422 0.7422
vt 0.3638 0.7422 0.7422
vt 0.3638 0.7258 0.7258
vt 0.4436 0.7231 0.7231
vt 0.4460 0.7231 0.7231
vt 0.4475 0.7258 0.7258
vt 0.4456 0.7258 0.7258
vt 0.3694 0.7231 0.7231
vt 0.3672 0.7258 0.7258
vt 0.3657 0.7231 0.7231
vt 0.4458 0.7422 0.7422
vt 0.4431 0.7444 0.7444
vt 0.4446 0.7458 0.7458
vt 0.4473 0.7422 0.7422
vt 0.4473 0.7437 0.7437
vt 0.3638 0.8102 0.8102
vt 0.3638 0.7437 0.7437
vt 0.3665 0.7458 0.7458
vt 0.3696 0.7444 0.7444
vt 0.3696 0.8093 0.8093
vt 0.4431 0.8093 0.8093
vt 0.4446 0.8081 0.8081
vt 0.3665 0.8081 0.8081
vt 0.4473 0.8102 0.8102
vt 0.4458 0.8116 0.8116
vt 0.3672 0.8116 0.8116
vt 0.3477 0.8102 0.8102
vt 0.3477 0.7437 0.7437
vt 0.3447 0.8081 0.8081
vt 0.3447 0.7458 0.7458
vt 0.3447 0.8080 0.8080
vt 0.3640 0.7437 0.7437
vt 0.3640 0.8102 0.8102
vt 0.4434 0.7444 0.7444
vt 0.4446 0.7456 0.7456
vt 0.4446 0.8079 0.8079
vt 0.4434 0.8093 0.8093
vt 0.3665 0.8079 0.8079
vt 0.3665 0.7456 0.7456
vt 0.3689 0.7231 0.7231
vt 0.3652 0.7231 0.7231
vt 0.3633 0.7258 0.7258
vt 0.3667 0.7258 0.7258
vt 0.3633 0.7422 0.7422
vt 0.3667 0.7422 0.7422
vt 0.4451 0.7258 0.7258
vt 0.4431 0.7231 0.7231
vt 0.4456 0.7231 0.7231
vt 0.4470 0.7258 0.7258
vt 0.4453 0.7422 0.7422
vt 0.4468 0.7422 0.7422
# 51 texture coords

o mag1
g mag1
usemtl mat_combat_rifle_INST
s 1
f 1/1/1 2/2/2 3/3/3 
f 4/4/4 5/5/5 6/6/6 
f 6/6/6 7/7/7 4/4/4 
f 8/8/8 4/4/4 7/7/7 
f 7/7/7 9/9/9 8/8/8 
f 10/10/10 8/8/8 9/9/9 
f 9/9/9 3/3/3 10/10/10 
f 3/3/3 9/9/9 1/1/1 
f 11/11/11 1/1/1 9/9/9 
f 1/1/1 11/11/11 12/12/12 
f 13/13/13 12/12/12 11/11/11 
f 9/9/9 7/7/7 11/11/11 
f 14/14/14 11/11/11 7/7/7 
f 7/7/7 6/6/6 14/14/14 
f 11/11/11 14/15/14 13/13/13 
f 15/16/15 2/17/2 16/18/16 
f 17/19/17 16/18/16 2/17/2 
f 2/17/2 1/1/1 17/19/17 
f 12/12/12 17/19/17 1/1/1 
f 18/20/18 17/19/17 12/12/12 
f 12/12/12 19/21/19 18/20/18 
f 20/22/20 19/21/19 12/12/12 
f 21/23/21 16/18/16 17/19/17 
f 17/19/17 18/20/18 21/23/21 
f 12/12/12 13/13/13 20/22/20 
f 20/22/20 13/13/13 14/15/14 
f 14/15/14 22/24/22 20/22/20 
f 19/21/19 20/22/20 22/24/22 
f 22/24/22 23/25/23 19/21/19 
f 18/20/18 19/21/19 23/25/23 
f 23/25/23 24/26/24 18/20/18 
f 21/23/21 18/20/18 24/26/24 
f 24/26/24 15/16/15 21/23/21 
f 16/18/16 21/23/21 15/16/15 
f 2/17/2 15/16/15 25/27/25 
f 25/27/25 3/28/3 2/17/2 
f 3/28/3 25/27/25 26/29/26 
f 26/29/26 10/30/10 3/28/3 
f 5/31/5 27/30/27 28/28/28 
f 28/28/28 6/27/6 5/31/5 
f 6/27/6 28/28/28 22/32/22 
f 22/32/22 14/33/14 6/27/6 
f 29/34/29 27/35/27 5/36/5 
f 5/36/5 4/37/4 29/34/29 
f 29/34/29 4/37/4 8/20/8 
f 8/20/8 30/19/30 29/34/29 
f 30/19/30 8/20/8 10/38/10 
f 10/38/10 26/39/26 30/19/30 
f 30/40/30 26/41/26 25/42/25 
f 25/42/25 31/43/31 30/40/30 
f 31/43/31 25/42/25 15/44/15 
f 15/44/15 24/45/24 31/43/31 
f 32/46/32 31/43/31 24/45/24 
f 31/43/31 32/46/32 29/47/29 
f 27/48/27 29/47/29 32/46/32 
f 32/46/32 28/49/28 27/48/27 
f 28/49/28 32/46/32 23/50/23 
f 23/50/23 22/51/22 28/49/28 
f 24/45/24 23/50/23 32/46/32 
f 29/47/29 30/40/30 31/43/31 
# 0 polygons - 60 triangles

