# 3ds Max Wavefront OBJ Exporter v0.99 - (c)2007 guruware
# File Created: 28.08.2021 11:12:08

mtllib mag4.mtl

#
# object mag4
#

v  -3.9363 -2.7198 -20.3922
v  4.6383 -2.7198 -20.3966
v  4.6383 -2.7198 -11.3043
v  -3.9363 -2.7198 -11.3088
v  -6.0867 7.4342 -20.0019
v  -6.0867 7.2523 -20.3922
v  -6.0867 6.7666 -20.7825
v  -3.0061 7.9590 -11.6991
v  -3.0061 7.9590 -20.0019
v  -5.5408 7.9590 -20.0019
v  -5.5408 7.9590 -11.6991
v  -6.0867 7.4342 -11.6991
v  -6.0867 7.2523 -11.3088
v  -6.0867 6.7666 -10.9185
v  -6.0579 -0.6472 -20.7825
v  -5.5408 6.9357 -10.4112
v  -5.5408 7.5993 -11.0551
v  -6.0579 -0.6472 -10.9185
v  -5.5408 -0.6472 -10.4112
v  -3.0061 2.8341 -10.4112
v  -3.0061 6.9357 -10.4112
v  -3.0061 7.5993 -11.0551
v  -1.7973 1.7607 -10.4112
v  -3.9363 -2.2017 -10.4112
v  6.6666 1.7607 -10.9185
v  6.6666 2.1905 -11.6991
v  6.1595 2.8341 -11.6991
v  6.1595 1.7607 -10.4112
v  -3.0061 2.8341 -11.6991
v  4.6383 -2.2017 -10.4112
v  6.6666 -0.6472 -10.9185
v  6.1595 -0.6472 -10.4112
v  6.1595 2.8341 -20.0019
v  -3.0061 2.8341 -20.0019
v  6.6666 2.1905 -20.0019
v  6.6666 1.7607 -20.7825
v  6.6666 -0.6472 -20.7825
v  6.1595 1.7607 -21.2898
v  4.6383 -2.2017 -21.2898
v  6.1595 -0.6472 -21.2898
v  -1.7973 1.7607 -21.2898
v  -3.9363 -2.2017 -21.2898
v  -5.5408 -0.6472 -21.2898
v  -3.0061 2.8341 -21.2898
v  -5.5408 6.9357 -21.2898
v  -3.0061 6.9357 -21.2898
v  -5.5408 7.5993 -20.6459
v  -3.0061 7.5993 -20.6459
# 48 vertices

vn -0.3465 -0.9217 -0.1743
vn 0.3557 -0.9180 -0.1753
vn 0.3557 -0.9180 0.1753
vn -0.3465 -0.9217 0.1743
vn -0.8358 0.5162 -0.1867
vn -0.8995 0.3428 -0.2708
vn -0.9181 0.1442 -0.3693
vn 0.4590 0.8597 0.2239
vn 0.4590 0.8597 -0.2239
vn -0.3467 0.9068 -0.2398
vn -0.3467 0.9068 0.2397
vn -0.8358 0.5162 0.1867
vn -0.8995 0.3429 0.2708
vn -0.8866 0.1687 0.4308
vn -0.8654 -0.3482 -0.3603
vn -0.3496 0.3487 0.8696
vn -0.3310 0.7468 0.5768
vn -0.8703 -0.3502 0.3463
vn -0.4286 -0.2305 0.8736
vn 0.6450 0.2898 0.7071
vn 0.7071 0.2657 0.6553
vn 0.7071 0.5608 0.4307
vn 0.4237 0.6716 0.6078
vn -0.2347 -0.5426 0.8066
vn 0.9167 0.2173 0.3352
vn 0.8874 0.4296 0.1671
vn 0.4005 0.8894 0.2204
vn 0.3366 0.3780 0.8625
vn 0.4332 0.8561 0.2818
vn 0.2437 -0.5412 0.8048
vn 0.8712 -0.3386 0.3555
vn 0.4331 -0.2213 0.8738
vn 0.4005 0.8894 -0.2205
vn 0.4332 0.8561 -0.2817
vn 0.8874 0.4296 -0.1671
vn 0.9167 0.2173 -0.3353
vn 0.8712 -0.3386 -0.3555
vn 0.3366 0.3780 -0.8625
vn 0.2437 -0.5412 -0.8048
vn 0.4331 -0.2213 -0.8738
vn 0.4237 0.6716 -0.6079
vn -0.2347 -0.5426 -0.8066
vn -0.4286 -0.2305 -0.8736
vn 0.6450 0.2899 -0.7071
vn -0.3496 0.3487 -0.8696
vn 0.7071 0.2657 -0.6553
vn -0.3310 0.7468 -0.5768
vn 0.7071 0.5608 -0.4307
# 48 vertex normals

vt 0.8477 0.4941 0.4941
vt 0.8472 0.4590 0.4590
vt 0.8843 0.4590 0.4590
vt 0.8843 0.4941 0.4941
vt 0.8389 0.4424 0.4424
vt 0.8418 0.4414 0.4414
vt 0.8447 0.4375 0.4375
vt 0.7773 0.4663 0.4663
vt 0.8389 0.4663 0.4663
vt 0.8389 0.4473 0.4473
vt 0.7773 0.4473 0.4473
vt 0.7773 0.4424 0.4424
vt 0.7744 0.4414 0.4414
vt 0.7715 0.4375 0.4375
vt 0.8447 0.3828 0.3828
vt 0.7656 0.4390 0.4390
vt 0.7656 0.4448 0.4448
vt 0.7715 0.3828 0.3828
vt 0.8418 0.3604 0.3604
vt 0.7744 0.3604 0.3604
vt 0.7656 0.3828 0.3828
vt 0.7466 0.4082 0.4082
vt 0.7466 0.4390 0.4390
vt 0.7466 0.4448 0.4448
vt 0.7466 0.4497 0.4497
vt 0.7656 0.4497 0.4497
vt 0.7715 0.4448 0.4448
vt 0.7715 0.4414 0.4414
vt 0.7378 0.4004 0.4004
vt 0.7539 0.3711 0.3711
vt 0.6729 0.4004 0.4004
vt 0.6729 0.4048 0.4048
vt 0.6787 0.4111 0.4111
vt 0.6787 0.4004 0.4004
vt 0.7466 0.4111 0.4111
vt 0.6899 0.3711 0.3711
vt 0.6899 0.3652 0.3652
vt 0.7539 0.3652 0.3652
vt 0.6729 0.3828 0.3828
vt 0.6787 0.3828 0.3828
vt 0.6313 0.4263 0.4263
vt 0.6313 0.4580 0.4580
vt 0.6343 0.4580 0.4580
vt 0.6343 0.4263 0.4263
vt 0.6357 0.4614 0.4614
vt 0.6357 0.4229 0.4229
vt 0.6450 0.4614 0.4614
vt 0.6450 0.4229 0.4229
vt 0.6528 0.4243 0.4243
vt 0.6528 0.4595 0.4595
vt 0.8555 0.5303 0.5303
vt 0.8555 0.5271 0.5271
vt 0.8579 0.5303 0.5303
vt 0.8452 0.5303 0.5303
vt 0.8433 0.5288 0.5288
vt 0.8423 0.5271 0.5271
vt 0.8555 0.5061 0.5061
vt 0.8423 0.5061 0.5061
vt 0.8433 0.5046 0.5046
vt 0.8452 0.5029 0.5029
vt 0.8555 0.5029 0.5029
vt 0.8579 0.5029 0.5029
# 62 texture coords

o mag4
g mag4
usemtl mat_combat_rifle_INST
s 1
f 1/1/1 2/2/2 3/3/3 
f 3/3/3 4/4/4 1/1/1 
f 5/5/5 6/6/6 7/7/7 
f 8/8/8 9/9/9 10/10/10 
f 10/10/10 11/11/11 8/8/8 
f 12/12/12 11/11/11 10/10/10 
f 10/10/10 5/5/5 12/12/12 
f 13/13/13 12/12/12 5/5/5 
f 13/13/13 5/5/5 7/7/7 
f 14/14/14 13/13/13 7/7/7 
f 14/14/14 7/7/7 15/15/15 
f 14/14/14 16/16/16 17/17/17 
f 16/16/16 14/14/14 18/18/18 
f 15/15/15 18/18/18 14/14/14 
f 18/18/18 15/15/15 1/19/1 
f 1/19/1 4/20/4 18/18/18 
f 18/18/18 19/21/19 16/16/16 
f 16/16/16 19/21/19 20/22/20 
f 20/22/20 21/23/21 16/16/16 
f 17/17/17 16/16/16 21/23/21 
f 21/23/21 22/24/22 17/17/17 
f 17/17/17 22/24/22 8/25/8 
f 8/25/8 11/26/11 17/17/17 
f 17/17/17 11/26/11 12/27/12 
f 12/27/12 13/28/13 17/17/17 
f 17/17/17 13/28/13 14/14/14 
f 23/29/23 20/22/20 19/21/19 
f 19/21/19 24/30/24 23/29/23 
f 25/31/25 26/32/26 27/33/27 
f 27/33/27 28/34/28 25/31/25 
f 28/34/28 27/33/27 29/35/29 
f 29/35/29 23/29/23 28/34/28 
f 28/34/28 23/29/23 30/36/30 
f 23/29/23 24/30/24 30/36/30 
f 3/37/3 30/36/30 24/30/24 
f 24/30/24 4/38/4 3/37/3 
f 18/18/18 4/38/4 24/30/24 
f 24/30/24 19/21/19 18/18/18 
f 31/39/31 25/31/25 28/34/28 
f 28/34/28 32/40/32 31/39/31 
f 32/40/32 28/34/28 30/36/30 
f 31/39/31 32/40/32 30/36/30 
f 30/36/30 3/37/3 31/39/31 
f 33/3/33 34/2/34 29/1/29 
f 29/1/29 27/4/27 33/3/33 
f 33/41/33 27/42/27 26/43/26 
f 26/43/26 35/44/35 33/41/33 
f 35/44/35 26/43/26 25/45/25 
f 25/45/25 36/46/36 35/44/35 
f 36/46/36 25/45/25 31/47/31 
f 31/47/31 37/48/37 36/46/36 
f 2/49/2 37/48/37 31/47/31 
f 31/47/31 3/50/3 2/49/2 
f 38/34/38 36/31/36 37/39/37 
f 39/36/39 40/40/40 37/39/37 
f 37/39/37 40/40/40 38/34/38 
f 40/40/40 39/36/39 38/34/38 
f 39/36/39 41/29/41 38/34/38 
f 38/34/38 41/29/41 34/35/34 
f 34/35/34 33/33/33 38/34/38 
f 36/31/36 38/34/38 33/33/33 
f 33/33/33 35/32/35 36/31/36 
f 39/36/39 42/30/42 41/29/41 
f 41/29/41 42/30/42 43/21/43 
f 43/21/43 44/22/44 41/29/41 
f 44/22/44 43/21/43 45/16/45 
f 45/16/45 46/23/46 44/22/44 
f 46/23/46 45/16/45 47/17/47 
f 47/17/47 48/24/48 46/23/46 
f 9/25/9 48/24/48 47/17/47 
f 47/17/47 10/26/10 9/25/9 
f 5/27/5 10/26/10 47/17/47 
f 47/17/47 6/28/6 5/27/5 
f 7/14/7 6/28/6 47/17/47 
f 47/17/47 45/16/45 7/14/7 
f 15/18/15 7/14/7 45/16/45 
f 45/16/45 43/21/43 15/18/15 
f 15/18/15 43/21/43 42/30/42 
f 42/30/42 1/38/1 15/18/15 
f 2/37/2 1/38/1 42/30/42 
f 42/30/42 39/36/39 2/37/2 
f 37/39/37 2/37/2 39/36/39 
f 44/51/44 34/52/34 41/53/41 
f 46/54/46 34/52/34 44/51/44 
f 46/54/46 48/55/48 34/52/34 
f 48/55/48 9/56/9 34/52/34 
f 29/57/29 34/52/34 9/56/9 
f 9/56/9 8/58/8 29/57/29 
f 29/57/29 8/58/8 22/59/22 
f 21/60/21 29/57/29 22/59/22 
f 21/60/21 20/61/20 29/57/29 
f 20/61/20 23/62/23 29/57/29 
# 0 polygons - 92 triangles

