# 3ds Max Wavefront OBJ Exporter v0.99 - (c)2007 guruware
# File Created: 28.08.2021 11:16:04

mtllib mag5.mtl

#
# object mag5
#

v  -6.1658 7.7744 -20.9803
v  -4.7391 7.7744 -20.9803
v  -6.1613 6.3165 -20.9802
v  -6.1659 7.7790 -16.2528
v  -4.7391 7.7790 -16.2528
v  -6.1628 6.7648 -18.6893
v  -4.7360 6.7648 -18.6893
v  -4.7361 6.7628 -17.0755
v  -6.1628 6.7628 -17.0755
v  -3.0465 3.2930 -21.1404
v  -3.0432 7.6309 -21.1404
v  -2.4705 7.6303 -21.1404
v  -2.4738 3.2924 -21.1404
v  -3.0465 3.2930 -10.7178
v  -2.4738 3.2924 -10.7178
v  -3.0432 7.6309 -10.7178
v  -2.4705 7.6303 -10.7178
v  -6.9170 5.1780 -19.8035
v  -6.9170 5.1780 -11.4331
v  -6.3504 5.1692 -11.1275
v  -6.3504 5.1708 -20.1026
v  -6.9170 4.8093 -20.1025
v  -6.9170 2.2318 -11.4331
v  -7.2003 2.6005 -11.4331
v  -7.2003 2.6005 -19.8035
v  -6.9170 2.6005 -11.1341
v  -6.9170 4.8093 -11.1341
v  -6.3504 2.2364 -11.1275
v  -7.2003 4.8093 -11.4331
v  -7.2003 4.8093 -19.8035
v  -6.9170 2.6005 -20.1025
v  -6.3504 2.2364 -20.1026
v  -6.9170 2.2318 -19.8035
v  -3.0465 3.1192 -21.4166
v  -3.0432 7.8048 -21.4166
v  -3.0432 7.8048 -10.4415
v  -3.0465 3.1192 -10.4415
v  -2.5155 2.5760 -10.4415
v  -2.5156 2.5760 -21.4166
v  2.5205 2.6042 -10.4415
v  2.5205 2.6042 -21.4166
v  -6.1614 6.2953 -17.0754
v  -6.1615 6.2941 -16.2650
v  -6.1614 6.3135 -18.6893
v  -6.2886 -3.9728 -14.8299
v  -6.2886 -2.3426 -21.4166
v  -5.2849 -3.4434 -21.4166
v  -5.2849 -5.0736 -14.8299
v  -3.9251 -4.2852 -21.4166
v  -3.9251 -5.9154 -14.8299
v  -2.5329 -4.6737 -21.4166
v  -2.5329 -6.3039 -14.8299
v  0.1233 -4.6575 -21.4166
v  0.1233 -6.2877 -14.8299
v  -2.5329 -6.3039 -10.4415
v  -3.9251 -5.9154 -10.4415
v  0.1233 -6.2877 -10.4415
v  -6.7095 5.5136 -10.4415
v  -6.7419 -2.7425 -14.8299
v  -6.7419 -2.7425 -10.4415
v  -6.2886 -3.9728 -10.4415
v  -5.2849 -5.0736 -10.4415
v  -4.7993 7.7849 -21.4166
v  -4.7993 7.7849 -10.4415
v  -6.5541 5.8785 -21.4166
v  -6.5541 5.8785 -10.4415
v  -6.7095 5.5136 -21.4166
v  -6.7419 -1.1122 -21.4166
v  4.7425 3.4769 -10.4415
v  3.0978 3.4793 -10.4415
v  5.7582 2.9936 -10.4416
v  6.4057 2.2166 -10.4416
v  6.6647 1.1805 -10.4416
v  6.6647 -2.8720 -10.4416
v  6.1467 -4.1670 -10.4416
v  5.1754 -5.1707 -10.4415
v  3.9451 -5.8830 -10.4415
v  2.7795 -6.2715 -10.4415
v  6.1467 -4.1670 -14.8299
v  5.1754 -5.1707 -14.8299
v  3.9451 -5.8830 -14.8299
v  2.7795 -6.2715 -14.8299
v  2.7795 -4.6413 -21.4166
v  3.9451 -4.2528 -21.4166
v  5.1754 -3.5405 -21.4166
v  6.1467 -2.5368 -21.4166
v  6.6647 -1.2417 -21.4166
v  6.6647 -2.8720 -14.8299
v  6.6647 1.1805 -21.4166
v  6.4057 2.2166 -21.4166
v  5.7582 2.9936 -21.4166
v  4.7425 3.4769 -21.4166
v  3.0978 3.4793 -21.4166
# 93 vertices

vn 0.0000 -0.0001 -1.0000
vn -0.0000 1.0000 -0.0010
vn 0.0000 1.0000 -0.0010
vn -0.0000 -1.0000 -0.0012
vn 0.0000 -1.0000 -0.0012
vn 0.0000 0.0000 -1.0000
vn -0.0011 -1.0000 0.0000
vn -0.0000 0.0000 1.0000
vn 0.0000 0.0000 1.0000
vn 1.0000 -0.0008 -0.0000
vn -0.4546 0.8415 -0.2920
vn -0.4543 0.8421 0.2906
vn -0.1032 0.7962 0.5962
vn -0.0990 0.7965 -0.5964
vn -0.4225 0.2243 -0.8782
vn -0.4576 -0.8404 0.2903
vn -0.8956 -0.2894 0.3378
vn -0.8956 -0.2894 -0.3378
vn -0.4279 -0.2235 0.8758
vn -0.4275 0.2241 0.8758
vn -0.1091 -0.7959 0.5956
vn -0.8956 0.2894 0.3378
vn -0.8956 0.2894 -0.3378
vn -0.4227 -0.2238 -0.8782
vn -0.1027 -0.7962 -0.5962
vn -0.4566 -0.8404 -0.2919
vn 0.0011 1.0000 -0.0000
vn 1.0000 -0.0007 -0.0000
vn 0.5057 0.4943 -0.7071
vn 0.5057 0.4942 0.7071
vn 0.3386 0.8109 0.4773
vn 0.3387 0.8109 -0.4772
vn -0.4145 0.7648 0.4932
vn -0.4145 0.7648 -0.4932
vn -1.0000 -0.0030 -0.0001
vn -1.0000 -0.0030 -0.0000
vn -1.0000 -0.0031 -0.0000
vn -1.0000 -0.0029 -0.0001
vn -0.8463 -0.5286 -0.0659
vn -0.5749 -0.3294 -0.7490
vn -0.4145 -0.4854 -0.7698
vn -0.6309 -0.7701 -0.0942
vn -0.2558 -0.5696 -0.7811
vn -0.3954 -0.9119 -0.1105
vn -0.0836 -0.6115 -0.7868
vn -0.1304 -0.9843 -0.1188
vn 0.0048 -0.7952 -0.6064
vn 0.0060 -0.9926 -0.1210
vn -0.0938 -0.7008 0.7071
vn -0.2839 -0.6476 0.7071
vn 0.0055 -0.8944 0.4472
vn -0.6925 0.1428 0.7071
vn -0.9821 -0.1869 -0.0246
vn -0.6963 -0.1228 0.7071
vn -0.6042 -0.3672 0.7071
vn -0.4517 -0.5440 0.7071
vn -0.0080 0.7070 0.7071
vn -0.0080 0.7071 -0.7071
vn -0.2877 0.6459 -0.7071
vn -0.2877 0.6459 0.7071
vn -0.5941 0.3835 -0.7071
vn -0.5940 0.3835 0.7071
vn -0.6925 0.1431 -0.7071
vn -0.6865 -0.1018 -0.7200
vn 0.0000 -0.0082 1.0000
vn 0.0000 0.0001 1.0000
vn 0.1563 0.6896 0.7071
vn -0.3347 0.6228 0.7071
vn 0.4336 0.5586 0.7071
vn 0.6305 0.3201 0.7071
vn 0.7018 0.0864 0.7071
vn 0.6943 -0.1337 0.7071
vn 0.5935 -0.3844 0.7071
vn 0.4354 -0.5572 0.7071
vn 0.2904 -0.6447 0.7071
vn 0.1154 -0.6976 0.7071
vn 0.8308 -0.5524 -0.0687
vn 0.6079 -0.7881 -0.0963
vn 0.4055 -0.9074 -0.1103
vn 0.1602 -0.9800 -0.1181
vn 0.1033 -0.6090 -0.7865
vn 0.2603 -0.5679 -0.7809
vn 0.3987 -0.4964 -0.7712
vn 0.5631 -0.3446 -0.7511
vn 0.6839 -0.1113 -0.7210
vn 0.9788 -0.2029 -0.0267
vn 0.7018 0.0864 -0.7071
vn 0.6305 0.3202 -0.7071
vn 0.4336 0.5586 -0.7071
vn 0.1562 0.6897 -0.7071
vn -0.3347 0.6229 -0.7071
vn -0.0000 -0.0001 -1.0000
# 92 vertex normals

vt 0.0314 0.0400 0.0400
vt 0.0414 0.0400 0.0400
vt 0.0314 0.0303 0.0303
vt 0.0007 0.0400 0.0400
vt 0.0007 0.0493 0.0493
vt 0.0314 0.0493 0.0493
vt 0.0165 0.0332 0.0332
vt 0.0138 0.0298 0.0298
vt 0.0092 0.0298 0.0298
vt 0.0060 0.0332 0.0332
vt 0.2773 0.0244 0.0244
vt 0.2771 0.0010 0.0010
vt 0.2737 0.0010 0.0010
vt 0.2737 0.0244 0.0244
vt 0.2739 0.0283 0.0283
vt 0.2168 0.0283 0.0283
vt 0.2167 0.0244 0.0244
vt 0.2739 0.0244 0.0244
vt 0.2773 0.0010 0.0010
vt 0.2739 0.0010 0.0010
vt 0.2166 0.0010 0.0010
vt 0.2651 0.2378 0.2378
vt 0.3408 0.2378 0.2378
vt 0.3435 0.2432 0.2432
vt 0.2627 0.2432 0.2432
vt 0.2576 0.2378 0.2378
vt 0.2625 0.2344 0.2344
vt 0.3408 0.2114 0.2114
vt 0.3391 0.2153 0.2153
vt 0.2671 0.2153 0.2153
vt 0.3435 0.2148 0.2148
vt 0.3435 0.2344 0.2344
vt 0.3484 0.2114 0.2114
vt 0.3484 0.2378 0.2378
vt 0.3391 0.2339 0.2339
vt 0.2671 0.2339 0.2339
vt 0.2625 0.2148 0.2148
vt 0.2576 0.2114 0.2114
vt 0.2651 0.2114 0.2114
vt 0.2625 0.2061 0.2061
vt 0.3433 0.2061 0.2061
vt 0.2166 0.0244 0.0244
vt 0.2737 0.0283 0.0283
vt 0.2166 0.0283 0.0283
vt 1.3457 0.1519 0.1519
vt 1.3457 0.1221 0.1221
vt 1.2783 0.1221 0.1221
vt 1.2783 0.1519 0.1519
vt 1.2783 0.1563 0.1563
vt 1.3457 0.1563 0.1563
vt 1.2783 0.1523 0.1523
vt 1.3457 0.1523 0.1523
vt 0.0060 0.0303 0.0303
vt 0.0007 0.0303 0.0303
vt 0.0165 0.0303 0.0303
vt 0.3059 0.0469 0.0469
vt 0.3464 0.0591 0.0591
vt 0.3464 0.0513 0.0513
vt 0.3059 0.0391 0.0391
vt 0.3464 0.0405 0.0405
vt 0.3059 0.0283 0.0283
vt 0.3464 0.0308 0.0308
vt 0.3059 0.0186 0.0186
vt 0.3464 0.0015 0.0015
vt 0.3059 0.0015 0.0015
vt 0.2786 0.0186 0.0186
vt 0.2786 0.0283 0.0283
vt 0.2786 0.0015 0.0015
vt 0.2786 0.1177 0.1177
vt 0.3059 0.0566 0.0566
vt 0.2786 0.0566 0.0566
vt 0.2786 0.0474 0.0474
vt 0.2786 0.0391 0.0391
vt 0.2786 0.1577 0.1577
vt 0.3464 0.1577 0.1577
vt 0.3464 0.1460 0.1460
vt 0.2786 0.1460 0.1460
vt 0.3464 0.1221 0.1221
vt 0.2786 0.1221 0.1221
vt 0.3464 0.1177 0.1177
vt 0.3464 0.0688 0.0688
vt 1.0313 0.0308 0.0308
vt 1.0410 0.0405 0.0405
vt 1.0313 0.0405 0.0405
vt 0.1080 0.0596 0.0596
vt 0.1670 0.0771 0.0771
vt 0.1080 0.0938 0.0938
vt 0.1671 0.0596 0.0596
vt 0.1646 0.0503 0.0503
vt 0.1589 0.0410 0.0410
vt 0.1516 0.0347 0.0347
vt 0.1434 0.0317 0.0317
vt 0.1044 0.0562 0.0562
vt 0.0884 0.0322 0.0322
vt 0.0859 0.0332 0.0332
vt 0.0732 0.0454 0.0454
vt 0.0732 0.0562 0.0562
vt 0.1026 0.1079 0.1079
vt 0.1026 0.0977 0.0977
vt 0.1058 0.1147 0.1147
vt 0.1109 0.1187 0.1187
vt 0.1174 0.1211 0.1211
vt 0.1444 0.1211 0.1211
vt 0.1526 0.1172 0.1172
vt 0.1594 0.1108 0.1108
vt 0.1642 0.1030 0.1030
vt 0.1670 0.0952 0.0952
vt 1.3057 0.0469 0.0469
vt 1.2783 0.0469 0.0469
vt 1.2783 0.0391 0.0391
vt 1.3057 0.0391 0.0391
vt 1.2783 0.0283 0.0283
vt 1.3057 0.0283 0.0283
vt 1.2783 0.0186 0.0186
vt 1.3057 0.0186 0.0186
vt 1.3057 0.0015 0.0015
vt 1.3457 0.0015 0.0015
vt 1.3457 0.0308 0.0308
vt 1.3457 0.0405 0.0405
vt 1.2783 0.0015 0.0015
vt 1.3457 0.0513 0.0513
vt 1.3457 0.0591 0.0591
vt 1.3457 0.0684 0.0684
vt 1.3057 0.0566 0.0566
vt 1.3457 0.0864 0.0864
vt 1.2783 0.0864 0.0864
vt 1.3457 0.0942 0.0942
vt 1.2783 0.0566 0.0566
vt 1.2783 0.0942 0.0942
vt 1.3457 0.1021 0.1021
vt 1.2783 0.1021 0.1021
vt 1.3457 0.1108 0.1108
vt 1.2783 0.1108 0.1108
vt 1.3457 0.1270 0.1270
vt 1.2783 0.1270 0.1270
vt 1.3457 0.1328 0.1328
vt 1.2783 0.1328 0.1328
vt 1.1074 0.0933 0.0933
vt 1.1016 0.0972 0.0972
vt 1.1016 0.1079 0.1079
vt 1.1045 0.1147 0.1147
vt 1.1094 0.1191 0.1191
vt 1.1172 0.1211 0.1211
vt 1.1436 0.1211 0.1211
vt 1.1523 0.1177 0.1177
vt 1.1592 0.1108 0.1108
vt 1.1641 0.1030 0.1030
vt 1.1660 0.0952 0.0952
vt 1.1660 0.0776 0.0776
vt 1.1084 0.0596 0.0596
vt 1.1670 0.0596 0.0596
vt 1.1641 0.0503 0.0503
vt 1.1582 0.0415 0.0415
vt 1.1514 0.0347 0.0347
vt 1.1406 0.0317 0.0317
vt 1.1035 0.0562 0.0562
vt 1.0879 0.0317 0.0317
vt 1.0859 0.0327 0.0327
vt 1.0732 0.0444 0.0444
vt 1.0732 0.0562 0.0562
# 160 texture coords

o mag5
g mag5
usemtl mat_combat_rifle_INST
s 1
f 1/1/1 2/2/1 3/3/1 
f 4/4/2 5/5/2 2/6/2 
f 2/6/2 1/1/3 4/4/2 
f 6/7/4 7/8/5 8/9/4 
f 8/9/4 9/10/4 6/7/4 
f 10/11/6 11/12/6 12/13/6 
f 12/13/6 13/14/6 10/11/6 
f 14/15/7 10/16/7 13/17/7 
f 13/17/7 15/18/7 14/15/7 
f 16/11/8 14/19/8 15/20/8 
f 15/20/8 17/18/9 16/11/8 
f 12/13/10 17/21/10 15/17/10 
f 15/17/10 13/14/10 12/13/10 
f 18/22/11 19/23/12 20/24/13 
f 20/24/13 21/25/14 18/22/11 
f 21/26/14 22/27/15 18/22/11 
f 23/28/16 24/29/17 25/30/18 
f 26/31/19 24/29/17 23/28/16 
f 24/29/17 26/31/19 27/32/20 
f 27/32/20 26/31/19 28/33/21 
f 28/33/21 20/34/13 27/32/20 
f 20/34/13 19/23/12 27/32/20 
f 19/23/12 29/35/22 27/32/20 
f 29/35/22 19/23/12 18/22/11 
f 18/22/11 30/36/23 29/35/22 
f 22/27/15 30/36/23 18/22/11 
f 31/37/24 25/30/18 30/36/23 
f 29/35/22 30/36/23 25/30/18 
f 25/30/18 24/29/17 29/35/22 
f 27/32/20 29/35/22 24/29/17 
f 30/36/23 22/27/15 31/37/24 
f 31/37/24 22/27/15 21/26/14 
f 21/26/14 32/38/25 31/37/24 
f 32/38/25 33/39/26 31/37/24 
f 33/39/26 25/30/18 31/37/24 
f 25/30/18 33/39/26 23/28/16 
f 23/28/16 33/39/26 32/40/25 
f 32/40/25 28/41/21 23/28/16 
f 28/33/21 26/31/19 23/28/16 
f 17/42/27 12/14/27 11/43/27 
f 11/43/27 16/44/27 17/42/27 
f 34/45/28 35/46/28 36/47/28 
f 36/47/28 37/48/28 34/45/28 
f 34/45/29 37/48/30 38/49/31 
f 38/49/31 39/50/32 34/45/29 
f 39/46/32 38/47/31 40/51/33 
f 40/51/33 41/52/34 39/46/32 
f 9/10/35 42/53/35 43/54/35 
f 43/54/35 4/4/36 9/10/35 
f 6/7/36 9/10/35 4/4/36 
f 4/4/36 1/1/37 6/7/36 
f 6/7/36 1/1/37 3/3/37 
f 3/3/37 44/55/38 6/7/36 
f 45/56/39 46/57/40 47/58/41 
f 47/58/41 48/59/42 45/56/39 
f 48/59/42 47/58/41 49/60/43 
f 49/60/43 50/61/44 48/59/42 
f 50/61/44 49/60/43 51/62/45 
f 51/62/45 52/63/46 50/61/44 
f 52/63/46 51/62/45 53/64/47 
f 53/64/47 54/65/48 52/63/46 
f 55/66/49 52/63/46 54/65/48 
f 52/63/46 55/66/49 56/67/50 
f 54/65/48 57/68/51 55/66/49 
f 58/69/52 59/70/53 60/71/54 
f 60/71/54 59/70/53 45/56/39 
f 45/56/39 61/72/55 60/71/54 
f 61/72/55 45/56/39 48/59/42 
f 48/59/42 62/73/56 61/72/55 
f 62/73/56 48/59/42 50/61/44 
f 50/61/44 56/67/50 62/73/56 
f 56/67/50 50/61/44 52/63/46 
f 36/74/57 35/75/58 63/76/59 
f 63/76/59 64/77/60 36/74/57 
f 64/77/60 63/76/59 65/78/61 
f 65/78/61 66/79/62 64/77/60 
f 66/79/62 65/78/61 67/80/63 
f 67/80/63 58/69/52 66/79/62 
f 58/69/52 67/80/63 68/81/64 
f 68/81/64 59/70/53 58/69/52 
f 59/70/53 68/81/64 46/57/40 
f 46/57/40 45/56/39 59/70/53 
f 43/82/65 5/83/65 4/84/65 
f 38/85/31 57/86/51 40/87/33 
f 38/85/31 55/88/49 57/86/51 
f 56/89/50 55/88/49 38/85/31 
f 56/89/50 38/85/31 62/90/56 
f 38/85/31 61/91/55 62/90/56 
f 38/85/31 60/92/54 61/91/55 
f 38/85/31 37/93/30 60/92/54 
f 37/93/30 58/94/52 60/92/54 
f 37/93/30 66/95/62 58/94/52 
f 37/93/30 64/96/60 66/95/62 
f 37/93/30 36/97/57 64/96/60 
f 44/55/66 7/8/66 6/7/66 
f 40/87/33 69/98/67 70/99/68 
f 40/87/33 71/100/69 69/98/67 
f 40/87/33 72/101/70 71/100/69 
f 40/87/33 73/102/71 72/101/70 
f 40/87/33 74/103/72 73/102/71 
f 40/87/33 75/104/73 74/103/72 
f 40/87/33 76/105/74 75/104/73 
f 40/87/33 77/106/75 76/105/74 
f 40/87/33 78/107/76 77/106/75 
f 57/86/51 78/107/76 40/87/33 
f 79/108/77 75/109/73 76/110/74 
f 76/110/74 80/111/78 79/108/77 
f 80/111/78 76/110/74 77/112/75 
f 77/112/75 81/113/79 80/111/78 
f 81/113/79 77/112/75 78/114/76 
f 78/114/76 82/115/80 81/113/79 
f 54/116/48 82/115/80 78/114/76 
f 82/115/80 54/116/48 53/117/47 
f 53/117/47 83/118/81 82/115/80 
f 82/115/80 83/118/81 84/119/82 
f 78/114/76 57/120/51 54/116/48 
f 84/119/82 81/113/79 82/115/80 
f 81/113/79 84/119/82 85/121/83 
f 85/121/83 80/111/78 81/113/79 
f 80/111/78 85/121/83 86/122/84 
f 86/122/84 79/108/77 80/111/78 
f 79/108/77 86/122/84 87/123/85 
f 87/123/85 88/124/86 79/108/77 
f 88/124/86 87/123/85 89/125/87 
f 89/125/87 73/126/71 88/124/86 
f 73/126/71 89/125/87 90/127/88 
f 74/128/72 88/124/86 73/126/71 
f 88/124/86 74/128/72 75/109/73 
f 75/109/73 79/108/77 88/124/86 
f 90/127/88 72/129/70 73/126/71 
f 72/129/70 90/127/88 91/130/89 
f 91/130/89 71/131/69 72/129/70 
f 71/131/69 91/130/89 92/132/90 
f 92/132/90 69/133/67 71/131/69 
f 69/133/67 92/132/90 93/134/91 
f 93/134/91 70/135/68 69/133/67 
f 70/135/68 93/134/91 41/136/34 
f 41/136/34 40/137/33 70/135/68 
f 41/138/34 93/139/91 92/140/90 
f 41/138/34 92/140/90 91/141/89 
f 41/138/34 91/141/89 90/142/88 
f 41/138/34 90/142/88 89/143/87 
f 41/138/34 89/143/87 87/144/85 
f 41/138/34 87/144/85 86/145/84 
f 41/138/34 86/145/84 85/146/83 
f 41/138/34 85/146/83 84/147/82 
f 41/138/34 84/147/82 83/148/81 
f 41/138/34 83/148/81 53/149/47 
f 39/150/32 41/138/34 53/149/47 
f 53/149/47 51/151/45 39/150/32 
f 39/150/32 51/151/45 49/152/43 
f 39/150/32 49/152/43 47/153/41 
f 39/150/32 47/153/41 46/154/40 
f 39/150/32 46/154/40 68/155/64 
f 39/150/32 68/155/64 34/156/29 
f 34/156/29 68/155/64 67/157/63 
f 34/156/29 67/157/63 65/158/61 
f 34/156/29 65/158/61 63/159/59 
f 34/156/29 63/159/59 35/160/58 
f 9/10/92 8/9/92 42/53/92 
# 0 polygons - 160 triangles

