# 3ds Max Wavefront OBJ Exporter v0.99 - (c)2007 guruware
# File Created: 28.08.2021 11:27:52

mtllib stock4.mtl

#
# object stock4
#

v  -1.7635 9.3492 37.3151
v  -1.8223 10.8106 40.3747
v  -2.2867 9.3492 37.3151
v  -0.0000 12.4505 33.4243
v  1.0409 12.3894 33.4243
v  1.7405 12.2526 33.4243
v  -1.0409 12.3894 33.4243
v  -1.7405 12.2526 33.4243
v  -1.7635 7.8657 19.3509
v  -1.7635 7.8582 19.1964
v  -1.7635 6.7318 19.1883
v  -1.7635 6.2492 19.8371
v  -1.7635 9.3860 20.0602
v  -1.7635 8.7358 19.3555
v  -1.8223 11.6968 40.3706
v  -1.5680 11.4526 42.1803
v  -1.3635 11.8602 42.1803
v  -1.1078 11.1128 43.0934
v  -1.1078 0.8100 43.6071
v  -1.5680 -0.4249 42.5389
v  -1.8223 -1.3898 40.5739
v  -1.7635 2.8488 37.0181
v  -1.7635 6.2515 34.1053
v  -1.7635 -2.4814 37.0904
v  -2.2867 6.7318 19.1883
v  -2.2867 7.8582 19.1964
v  -2.2867 4.8892 16.9133
v  -2.2867 11.5790 16.6258
v  -2.2867 8.7358 19.3555
v  -2.2867 12.0345 19.9439
v  -2.2867 9.3860 20.0602
v  -2.2867 11.7395 33.5781
v  -2.2867 4.9311 16.4713
v  -1.7405 12.1447 33.7318
v  -1.4749 12.1063 40.3706
v  1.0409 12.3880 33.7318
v  1.7405 12.1447 33.7318
v  -0.0000 12.4490 33.7318
v  -1.0409 12.3880 33.7318
v  -1.8777 12.4345 19.9439
v  -1.8777 11.9790 16.6258
v  1.8777 11.9790 16.6258
v  1.8777 12.4345 19.9439
v  -0.0000 11.1128 43.0934
v  -0.0000 11.8602 42.1803
v  -0.0000 12.1063 40.3706
v  -0.0000 12.1447 33.7318
v  -0.0000 1.4872 30.5566
v  -0.0000 1.3152 33.6627
v  0.5690 0.9872 33.6445
v  -0.0000 2.0103 26.6809
v  0.5690 1.1603 30.5177
v  0.5690 0.3312 33.6082
v  0.5690 0.5065 30.4399
v  -0.0000 0.0032 33.5901
v  -0.0000 0.1797 30.4010
v  0.5690 1.0136 26.7797
v  -0.0000 0.6814 26.8126
v  0.5690 0.4655 24.8556
v  -0.0000 0.1462 24.9337
v  0.5690 0.1549 23.3425
v  0.5690 0.6438 22.1908
v  0.5690 1.1836 22.6007
v  0.5690 0.8397 23.4109
v  0.5690 1.1042 24.6993
v  0.5690 1.6780 26.7138
v  -0.0000 1.4235 24.6211
v  0.5690 1.5617 21.4588
v  0.5690 1.9079 22.0232
v  -0.0000 1.1821 23.4450
v  -0.0000 1.4535 22.8057
v  -0.0000 2.0810 22.3053
v  -0.0000 2.9339 21.9169
v  0.5690 2.7978 21.6179
v  0.5690 2.5255 21.0200
v  -0.0000 -0.1875 23.3084
v  -0.0000 0.3739 21.9858
v  -0.0000 1.3887 21.1767
v  -0.0000 2.3893 20.7210
v  -0.5690 0.3312 33.6082
v  -0.5690 0.9872 33.6445
v  -0.5690 1.1603 30.5177
v  -0.5690 0.5065 30.4399
v  -0.5690 1.0136 26.7797
v  -0.5690 0.4655 24.8556
v  -0.5690 0.1549 23.3425
v  -0.5690 1.9079 22.0232
v  -0.5690 1.1836 22.6007
v  -0.5690 1.5617 21.4588
v  -0.5690 0.6438 22.1908
v  -0.5690 0.8397 23.4109
v  -0.5690 1.1042 24.6993
v  -0.5690 1.6780 26.7138
v  -0.0000 2.6524 19.8696
v  0.5859 3.1136 19.9176
v  1.3114 2.9113 20.5811
v  -0.0000 3.0442 19.7270
v  0.5859 3.1510 19.3690
v  -0.0000 3.0817 19.1784
v  1.3114 3.4293 22.0041
v  1.3114 2.9277 22.1867
v  1.3114 2.4097 20.7637
v  -0.0000 2.1508 20.0522
v  -0.0000 3.1866 22.8982
v  -0.0000 3.7454 22.6948
v  0.9094 3.7226 21.8973
v  0.9231 3.3032 20.4385
v  0.9231 3.6940 20.2962
v  0.5859 3.6849 19.7097
v  0.5859 3.6719 18.8018
v  -0.0000 3.6632 18.5450
v  1.7635 9.3860 20.0602
v  2.2867 9.3860 20.0602
v  2.2867 9.3492 37.3151
v  1.7635 9.3492 37.3151
v  1.7635 6.2492 19.8371
v  2.2867 5.6947 19.8371
v  2.2867 6.7318 19.1883
v  1.7635 6.7318 19.1883
v  2.2867 7.8582 19.1964
v  1.7635 7.8582 19.1964
v  2.2867 7.8657 19.3509
v  1.7635 7.8657 19.3509
v  2.2867 8.7358 19.3555
v  1.7635 8.7358 19.3555
v  1.7635 6.2515 34.1053
v  2.2867 5.6969 34.1053
v  1.7635 -2.4814 37.0904
v  2.2867 -2.4942 36.6797
v  2.2867 2.6828 36.5369
v  1.7635 2.8488 37.0181
v  1.5680 -0.4249 42.5389
v  -0.0000 -0.4249 42.5389
v  -0.0000 -1.3898 40.5739
v  1.8223 -1.3898 40.5739
v  -0.0000 -2.4814 37.0904
v  -0.0000 0.8100 43.6071
v  -1.3114 2.4097 20.7637
v  -1.3114 2.9277 22.1867
v  -0.9231 3.3032 20.4385
v  -0.9094 3.7226 21.8973
v  -0.9231 3.6940 20.2962
v  -1.3114 3.4293 22.0041
v  -1.3114 2.9113 20.5811
v  -0.5859 3.1136 19.9176
v  -0.5859 3.6849 19.7097
v  -0.5859 3.1510 19.3690
v  -0.5859 3.6719 18.8018
v  1.8223 10.8106 40.3747
v  1.1078 11.1128 43.0934
v  1.1078 0.8100 43.6071
v  2.2867 3.7570 26.0133
v  2.2867 3.2899 26.2436
v  -2.2867 3.2899 26.2436
v  -2.2867 3.7570 26.0133
v  -2.2867 5.6947 19.8371
v  -2.2867 5.6969 34.1053
v  2.2867 -1.2110 34.5815
v  2.2867 -0.2831 33.5973
v  2.2867 1.6831 33.6378
v  2.2867 -2.5163 34.6590
v  2.2867 3.2470 32.5412
v  2.2867 3.6403 18.0639
v  2.2867 4.8892 16.9133
v  2.2867 4.9311 16.4713
v  2.2867 11.5790 16.6258
v  2.2867 12.0345 19.9439
v  2.2867 11.7395 33.5781
v  1.8223 11.6968 40.3706
v  1.5680 11.4526 42.1803
v  1.4749 12.1063 40.3706
v  1.3635 11.8602 42.1803
v  -2.2867 1.6831 33.6378
v  -2.2867 3.2470 32.5412
v  -2.2867 -2.4942 36.6797
v  -2.2867 -2.5163 34.6590
v  -2.2867 -1.2110 34.5815
v  -2.2867 -0.2831 33.5973
v  -2.2867 3.6403 18.0639
v  -0.5690 2.5255 21.0200
v  -0.5690 2.7978 21.6179
v  -2.2867 2.6828 36.5369
v  -2.2867 7.8657 19.3509
# 183 vertices

vn -0.4568 -0.8689 0.1907
vn -0.6951 -0.6204 0.3632
vn -0.4699 -0.8508 0.2354
vn 0.0000 0.7088 -0.7054
vn 0.0890 0.7032 -0.7054
vn 0.3963 0.8406 -0.3693
vn -0.0890 0.7032 -0.7054
vn -0.3114 0.6833 -0.6604
vn -0.7071 -0.4890 0.5108
vn -0.7071 -0.4896 0.5102
vn -0.7071 0.3152 0.6330
vn -0.8216 0.4937 0.2850
vn -0.4731 -0.8209 0.3198
vn -0.7071 -0.2853 0.6470
vn -0.9322 0.3476 0.1008
vn -0.9169 0.2260 0.3291
vn -0.4769 0.7844 0.3967
vn -0.3573 0.3695 0.8578
vn -0.5594 -0.2087 0.8022
vn -0.4254 -0.6713 0.6069
vn -0.7021 -0.6523 0.2857
vn -0.9223 0.1336 0.3628
vn -0.8582 0.4569 0.2338
vn -0.5899 -0.7027 0.3979
vn -0.7462 0.2541 0.6153
vn -0.7071 -0.6335 -0.3141
vn -0.6433 0.2559 -0.7215
vn -0.9145 0.4039 -0.0241
vn -0.9047 0.4238 0.0429
vn -0.5643 -0.5487 -0.6169
vn -0.2746 0.5882 0.7607
vn -0.4184 0.9044 0.0835
vn 0.0992 0.6830 0.7236
vn 0.3160 0.7420 0.5912
vn -0.0000 0.7054 0.7088
vn -0.0992 0.6830 0.7236
vn -0.3719 0.9267 -0.0547
vn -0.2575 0.6090 -0.7502
vn 0.3144 0.7721 -0.5523
vn 0.3770 0.9246 -0.0546
vn 0.0000 0.4506 0.8927
vn 0.0000 0.9169 0.3990
vn -0.0000 0.9975 0.0706
vn -0.0000 0.8924 0.4513
vn 0.0001 0.9955 0.0946
vn 0.0000 0.9985 0.0553
vn 0.8660 0.4992 0.0276
vn 0.0002 0.9973 -0.0731
vn 0.8716 0.4879 0.0465
vn 0.8660 -0.4992 -0.0276
vn 0.8605 -0.5070 -0.0489
vn -0.0000 -0.9985 -0.0553
vn -0.0002 -0.9953 -0.0969
vn 0.8959 -0.4432 0.0316
vn -0.0002 -0.9977 0.0673
vn 0.8609 -0.4941 0.1209
vn 0.0000 -0.9713 0.2377
vn 0.8311 -0.5534 -0.0552
vn 0.8361 -0.4369 -0.3318
vn 0.9025 0.3430 0.2605
vn 0.9106 0.4112 0.0410
vn 0.8713 0.4767 -0.1167
vn 0.8397 0.5418 -0.0375
vn 0.0000 0.9713 -0.2377
vn 0.8500 -0.2754 -0.4490
vn 0.8836 0.2448 0.3991
vn 0.0000 0.9951 0.0994
vn 0.0000 0.7964 0.6048
vn -0.0000 0.5229 0.8524
vn 0.0000 0.4145 0.9101
vn 0.8660 0.2072 0.4550
vn 0.8660 -0.2072 -0.4550
vn -0.0000 -0.9951 -0.0994
vn -0.0000 -0.7964 -0.6048
vn -0.0000 -0.5229 -0.8524
vn -0.0000 -0.4145 -0.9101
vn -0.8660 -0.4992 -0.0276
vn -0.8660 0.4992 0.0276
vn -0.8717 0.4878 0.0468
vn -0.8605 -0.5071 -0.0492
vn -0.8958 -0.4433 0.0318
vn -0.8609 -0.4941 0.1209
vn -0.8311 -0.5534 -0.0552
vn -0.8836 0.2448 0.3991
vn -0.9025 0.3430 0.2605
vn -0.8500 -0.2754 -0.4490
vn -0.8361 -0.4369 -0.3318
vn -0.9106 0.4112 0.0410
vn -0.8713 0.4767 -0.1167
vn -0.8398 0.5416 -0.0378
vn 0.0000 -0.3975 -0.9176
vn 0.7207 -0.4409 -0.5349
vn 0.8660 0.1361 -0.4813
vn 0.0000 -0.8405 -0.5419
vn 0.7193 -0.6523 -0.2388
vn 0.0000 -0.8992 -0.4375
vn 0.8196 0.4999 0.2801
vn 0.6124 -0.5435 0.5741
vn 0.6124 -0.7854 -0.0904
vn 0.0000 -0.7660 -0.6428
vn 0.0000 -0.1736 0.9848
vn -0.0000 0.4423 0.8969
vn 0.6150 0.7719 0.1608
vn 0.8940 0.2641 -0.3619
vn 0.9474 -0.1094 -0.3007
vn 0.9762 -0.0742 -0.2038
vn 0.5911 -0.5941 -0.5455
vn 0.0000 -0.7366 -0.6763
vn 0.4731 -0.8209 0.3198
vn 0.4699 -0.8508 0.2354
vn 0.4568 -0.8689 0.1907
vn 0.8216 0.4937 0.2850
vn 0.8514 0.4411 0.2838
vn 0.7462 0.2541 0.6153
vn 0.8944 0.1994 0.4003
vn 0.8944 -0.3097 0.3227
vn 0.7071 -0.4896 0.5102
vn 0.7071 -0.4890 0.5108
vn 0.8944 -0.3093 0.3229
vn 0.8945 -0.1804 0.4091
vn 0.7071 -0.2853 0.6470
vn 0.8582 0.4569 0.2338
vn 0.8601 0.4541 0.2323
vn 0.5899 -0.7027 0.3979
vn 0.7876 -0.4762 0.3910
vn 0.9206 0.1336 0.3670
vn 0.9223 0.1336 0.3628
vn 0.4254 -0.6713 0.6069
vn -0.0000 -0.7918 0.6108
vn -0.0000 -0.9286 0.3711
vn 0.7021 -0.6523 0.2857
vn 0.0000 -0.9774 0.2113
vn 0.0000 -0.3256 0.9455
vn -0.6124 -0.7854 -0.0904
vn -0.6124 -0.5435 0.5741
vn -0.8940 0.2641 -0.3619
vn -0.6150 0.7719 0.1608
vn -0.9474 -0.1094 -0.3007
vn -0.8196 0.4999 0.2801
vn -0.8660 0.1361 -0.4813
vn -0.7207 -0.4409 -0.5349
vn -0.9762 -0.0742 -0.2038
vn -0.7193 -0.6523 -0.2388
vn -0.5911 -0.5941 -0.5455
vn 0.6951 -0.6204 0.3632
vn 0.3573 0.3695 0.8578
vn 0.5594 -0.2087 0.8022
vn 0.5091 -0.7342 -0.4492
vn 0.5066 -0.7306 -0.4578
vn -0.5066 -0.7306 -0.4578
vn -0.5091 -0.7342 -0.4492
vn -0.8514 0.4411 0.2838
vn -0.8601 0.4541 0.2323
vn 0.7072 -0.2993 -0.6406
vn 0.7072 -0.2735 -0.6520
vn 0.7072 -0.2059 -0.6764
vn 0.7071 -0.5172 -0.4822
vn 0.7071 -0.6262 -0.3284
vn 0.7071 -0.6497 -0.2792
vn 0.7071 -0.6335 -0.3141
vn 0.5642 -0.5488 -0.6168
vn 0.6511 0.2579 -0.7139
vn 0.9145 0.4039 -0.0241
vn 0.9047 0.4238 0.0429
vn 0.9322 0.3476 0.1008
vn 0.9169 0.2260 0.3291
vn 0.4184 0.9044 0.0835
vn 0.4769 0.7844 0.3967
vn -0.7072 -0.2059 -0.6764
vn -0.7071 -0.6262 -0.3284
vn -0.7876 -0.4762 0.3910
vn -0.7071 -0.5172 -0.4822
vn -0.7072 -0.2993 -0.6406
vn -0.7072 -0.2735 -0.6520
vn -0.7071 -0.6497 -0.2792
vn -0.8660 -0.2072 -0.4550
vn -0.8660 0.2072 0.4550
vn -0.9206 0.1336 0.3670
# 178 vertex normals

vt 0.5049 0.6641 0.6641
vt 0.5288 0.6641 0.6641
vt 0.5039 0.6587 0.6587
vt 0.5366 0.4766 0.4766
vt 0.5361 0.4883 0.4883
vt 0.5337 0.4966 0.4966
vt 0.5361 0.4648 0.4648
vt 0.5337 0.4565 0.4565
vt 0.5703 0.6367 0.6367
vt 0.5786 0.6375 0.6375
vt 0.5820 0.6326 0.6326
vt 0.5591 0.5022 0.5022
vt 0.5591 0.6309 0.6309
vt 0.5635 0.6362 0.6362
vt 0.5415 0.4795 0.4795
vt 0.5435 0.4663 0.4663
vt 0.5391 0.4663 0.4663
vt 0.5459 0.4595 0.4595
vt 0.6226 0.4556 0.4556
vt 0.6318 0.4634 0.4634
vt 0.6392 0.4780 0.4780
vt 0.5483 0.4795 0.4795
vt 0.6074 0.5044 0.5044
vt 0.5820 0.5261 0.5261
vt 0.6475 0.5039 0.5039
vt 0.5923 0.6543 0.6543
vt 0.5425 0.6577 0.6577
vt 0.5391 0.6318 0.6318
vt 0.5415 0.5300 0.5300
vt 0.5923 0.6577 0.6577
vt 0.5337 0.5291 0.5291
vt 0.5376 0.4795 0.4795
vt 0.5107 0.5291 0.5291
vt 0.5049 0.5291 0.5291
vt 0.5049 0.5313 0.5313
vt 0.5107 0.5313 0.5313
vt 0.5190 0.5291 0.5291
vt 0.5190 0.5313 0.5313
vt 0.5278 0.5313 0.5313
vt 0.5278 0.5291 0.5291
vt 0.5337 0.5313 0.5313
vt 0.5352 0.6318 0.6318
vt 0.5352 0.6577 0.6577
vt 0.5034 0.6577 0.6577
vt 0.5034 0.6318 0.6318
vt 0.5283 0.4580 0.4580
vt 0.5190 0.4580 0.4580
vt 0.5190 0.4663 0.4663
vt 0.5308 0.4663 0.4663
vt 0.5190 0.4795 0.4795
vt 0.5317 0.4795 0.4795
vt 0.6992 0.6643 0.6643
vt 0.6846 0.6643 0.6643
vt 0.6846 0.6606 0.6606
vt 0.7158 0.6643 0.6643
vt 0.6992 0.6606 0.6606
vt 0.6846 0.6567 0.6567
vt 0.6992 0.6567 0.6567
vt 0.6846 0.6528 0.6528
vt 0.6992 0.6528 0.6528
vt 0.7158 0.6567 0.6567
vt 0.7158 0.6528 0.6528
vt 0.7256 0.6567 0.6567
vt 0.7256 0.6528 0.6528
vt 0.7310 0.6567 0.6567
vt 0.7349 0.6567 0.6567
vt 0.7349 0.6606 0.6606
vt 0.7310 0.6606 0.6606
vt 0.7256 0.6606 0.6606
vt 0.7158 0.6606 0.6606
vt 0.7256 0.6643 0.6643
vt 0.7402 0.6567 0.6567
vt 0.7402 0.6606 0.6606
vt 0.7310 0.6643 0.6643
vt 0.7349 0.6643 0.6643
vt 0.7402 0.6643 0.6643
vt 0.7456 0.6643 0.6643
vt 0.7456 0.6606 0.6606
vt 0.7456 0.6567 0.6567
vt 0.7310 0.6528 0.6528
vt 0.7349 0.6528 0.6528
vt 0.7402 0.6528 0.6528
vt 0.7456 0.6528 0.6528
vt 0.6265 0.6414 0.6414
vt 0.6260 0.6448 0.6448
vt 0.6211 0.6433 0.6433
vt 0.6274 0.6443 0.6443
vt 0.6304 0.6453 0.6453
vt 0.6318 0.6445 0.6445
vt 0.6099 0.6475 0.6475
vt 0.6084 0.6436 0.6436
vt 0.6196 0.6394 0.6394
vt 0.6250 0.6375 0.6375
vt 0.6030 0.6455 0.6455
vt 0.6045 0.6499 0.6499
vt 0.6108 0.6497 0.6497
vt 0.6221 0.6465 0.6465
vt 0.6230 0.6494 0.6494
vt 0.6274 0.6494 0.6494
vt 0.6348 0.6492 0.6492
vt 0.6367 0.6492 0.6492
vt 0.5996 0.6641 0.6641
vt 0.5996 0.6587 0.6587
vt 0.6479 0.5500 0.5500
vt 0.6538 0.5510 0.5510
vt 0.6538 0.5427 0.5427
vt 0.6489 0.5427 0.5427
vt 0.6538 0.5337 0.5337
vt 0.6489 0.5337 0.5337
vt 0.6538 0.5322 0.5322
vt 0.6489 0.5322 0.5322
vt 0.6538 0.5254 0.5254
vt 0.6489 0.5254 0.5254
vt 0.6538 0.5188 0.5188
vt 0.6489 0.5188 0.5188
vt 0.7720 0.6143 0.6143
vt 0.7769 0.6089 0.6089
vt 0.8154 0.6089 0.6089
vt 0.8120 0.6143 0.6143
vt 0.8384 0.6089 0.6089
vt 0.8384 0.6143 0.6143
vt 0.5166 0.4580 0.4580
vt 0.5059 0.4580 0.4580
vt 0.5059 0.4653 0.4653
vt 0.5137 0.4653 0.4653
vt 0.5137 0.4956 0.4956
vt 0.5059 0.4956 0.4956
vt 0.5137 0.5261 0.5261
vt 0.5059 0.5261 0.5261
vt 0.6006 0.4229 0.4229
vt 0.6084 0.4229 0.4229
vt 0.6123 0.4292 0.4292
vt 0.6006 0.4360 0.4360
vt 0.5967 0.4292 0.4292
vt 0.6084 0.4360 0.4360
vt 0.5356 0.5789 0.5789
vt 0.5371 0.6282 0.6282
vt 0.5015 0.6282 0.6282
vt 0.5029 0.5789 0.5789
vt 0.5337 0.4766 0.4766
vt 0.6377 0.5227 0.5227
vt 0.6309 0.5300 0.5300
vt 0.6162 0.5295 0.5295
vt 0.6475 0.5071 0.5071
vt 0.6475 0.5220 0.5220
vt 0.6089 0.5081 0.5081
vt 0.6045 0.5378 0.5378
vt 0.5864 0.5261 0.5261
vt 0.6006 0.5864 0.5864
vt 0.5864 0.6326 0.6326
vt 0.6016 0.6458 0.6458
vt 0.6045 0.5847 0.5847
vt 0.5029 0.5679 0.5679
vt 0.5356 0.5679 0.5679
vt 0.5356 0.5603 0.5603
vt 0.5356 0.5313 0.5313
vt 0.5029 0.5313 0.5313
vt 0.5029 0.5464 0.5464
vt 0.5356 0.5464 0.5464
vt 0.5356 0.5530 0.5530
vt 0.5029 0.5530 0.5530
vt 0.5029 0.5603 0.5603
vt 0.5015 0.6345 0.6345
vt 0.5371 0.6345 0.6345
vt 0.5371 0.6543 0.6543
vt 0.5015 0.6543 0.6543
vt 0.7939 0.5581 0.5581
vt 0.7915 0.5630 0.5630
vt 0.7441 0.5630 0.5630
vt 0.7441 0.5334 0.5334
vt 0.7915 0.5334 0.5334
vt 0.7939 0.5381 0.5381
# 172 texture coords

o stock4
g stock4
usemtl mat_combat_rifle_INST
s 1
f 1/1/1 2/2/2 3/3/3 
f 4/4/4 5/5/5 6/6/6 
f 7/7/7 4/4/4 6/6/6 
f 8/8/8 7/7/7 6/6/6 
f 9/9/9 10/9/10 11/10/11 
f 12/11/12 1/12/1 11/10/11 
f 1/12/1 13/13/13 11/10/11 
f 13/13/13 9/9/9 11/10/11 
f 13/13/13 14/14/14 9/9/9 
f 15/15/15 16/16/16 17/17/17 
f 18/18/18 17/17/17 16/16/16 
f 19/19/19 18/18/18 16/16/16 
f 16/16/16 20/20/20 19/19/19 
f 21/21/21 20/20/20 16/16/16 
f 16/16/16 2/22/2 21/21/21 
f 22/23/22 21/21/21 2/22/2 
f 2/22/2 1/12/1 22/23/22 
f 1/12/1 23/24/23 22/23/22 
f 12/11/12 23/24/23 1/12/1 
f 21/21/21 22/23/22 24/25/24 
f 25/10/25 26/9/10 27/26/26 
f 26/9/10 28/27/27 27/26/26 
f 29/14/14 28/27/27 26/9/10 
f 30/28/28 28/27/27 29/14/14 
f 29/14/14 31/13/13 30/28/28 
f 32/29/29 30/28/28 31/13/13 
f 31/13/13 3/12/3 32/29/29 
f 32/29/29 3/12/3 2/22/2 
f 2/22/2 15/15/15 32/29/29 
f 16/16/16 15/15/15 2/22/2 
f 27/26/26 28/27/27 33/30/30 
f 34/31/31 32/29/29 15/15/15 
f 15/15/15 35/32/32 34/31/31 
f 17/17/17 35/32/32 15/15/15 
f 36/33/33 37/34/34 6/35/6 
f 6/35/6 5/36/5 36/33/33 
f 38/37/35 36/33/33 5/36/5 
f 5/36/5 4/38/4 38/37/35 
f 38/37/35 4/38/4 7/39/7 
f 7/39/7 39/40/36 38/37/35 
f 39/40/36 7/39/7 8/41/8 
f 8/41/8 34/31/31 39/40/36 
f 34/31/31 8/41/8 32/29/29 
f 32/29/29 8/41/8 40/42/37 
f 40/42/37 30/28/28 32/29/29 
f 30/28/28 40/42/37 41/43/38 
f 41/43/38 28/27/27 30/28/28 
f 42/44/39 41/43/38 40/42/37 
f 40/42/37 43/45/40 42/44/39 
f 6/35/6 43/45/40 40/42/37 
f 40/42/37 8/41/8 6/35/6 
f 18/46/18 44/47/41 45/48/42 
f 45/48/42 17/49/17 18/46/18 
f 17/49/17 45/48/42 46/50/43 
f 46/50/43 35/51/32 17/49/17 
f 35/51/32 46/50/43 47/37/44 
f 47/37/44 34/31/31 35/51/32 
f 48/52/45 49/53/46 50/54/47 
f 51/55/48 48/52/45 52/56/49 
f 50/54/47 52/56/49 48/52/45 
f 52/56/49 50/54/47 53/57/50 
f 53/57/50 54/58/51 52/56/49 
f 54/58/51 53/57/50 55/59/52 
f 55/59/52 56/60/53 54/58/51 
f 57/61/54 54/58/51 56/60/53 
f 56/60/53 58/62/55 57/61/54 
f 59/63/56 57/61/54 58/62/55 
f 58/62/55 60/64/57 59/63/56 
f 61/65/58 62/66/59 63/67/60 
f 63/67/60 64/68/61 61/65/58 
f 59/63/56 61/65/58 64/68/61 
f 64/68/61 65/69/62 59/63/56 
f 57/61/54 59/63/56 65/69/62 
f 65/69/62 66/70/63 57/61/54 
f 54/58/51 57/61/54 66/70/63 
f 66/70/63 52/56/49 54/58/51 
f 52/56/49 66/70/63 51/55/48 
f 67/71/64 51/55/48 66/70/63 
f 62/66/59 68/72/65 69/73/66 
f 69/73/66 63/67/60 62/66/59 
f 66/70/63 65/69/62 67/71/64 
f 70/74/67 67/71/64 65/69/62 
f 65/69/62 64/68/61 70/74/67 
f 71/75/68 70/74/67 64/68/61 
f 64/68/61 63/67/60 71/75/68 
f 72/76/69 71/75/68 63/67/60 
f 63/67/60 69/73/66 72/76/69 
f 73/77/70 72/76/69 69/73/66 
f 69/73/66 74/78/71 73/77/70 
f 74/78/71 69/73/66 68/72/65 
f 68/72/65 75/79/72 74/78/71 
f 61/65/58 59/63/56 60/64/57 
f 60/64/57 76/80/73 61/65/58 
f 62/66/59 61/65/58 76/80/73 
f 76/80/73 77/81/74 62/66/59 
f 68/72/65 62/66/59 77/81/74 
f 77/81/74 78/82/75 68/72/65 
f 75/79/72 68/72/65 78/82/75 
f 78/82/75 79/83/76 75/79/72 
f 56/60/53 55/59/52 80/57/77 
f 81/54/78 82/56/79 83/58/80 
f 83/58/80 80/57/77 81/54/78 
f 80/57/77 83/58/80 56/60/53 
f 58/62/55 56/60/53 83/58/80 
f 83/58/80 84/61/81 58/62/55 
f 60/64/57 58/62/55 84/61/81 
f 84/61/81 85/63/82 60/64/57 
f 76/80/73 60/64/57 85/63/82 
f 85/63/82 86/65/83 76/80/73 
f 77/81/74 76/80/73 86/65/83 
f 71/75/68 72/76/69 87/73/84 
f 87/73/84 88/67/85 71/75/68 
f 88/67/85 87/73/84 89/72/86 
f 89/72/86 90/66/87 88/67/85 
f 91/68/88 88/67/85 90/66/87 
f 90/66/87 86/65/83 91/68/88 
f 92/69/89 91/68/88 86/65/83 
f 86/65/83 85/63/82 92/69/89 
f 93/70/90 92/69/89 85/63/82 
f 85/63/82 84/61/81 93/70/90 
f 82/56/79 93/70/90 84/61/81 
f 84/61/81 83/58/80 82/56/79 
f 70/74/67 71/75/68 88/67/85 
f 88/67/85 91/68/88 70/74/67 
f 67/71/64 70/74/67 91/68/88 
f 91/68/88 92/69/89 67/71/64 
f 51/55/48 67/71/64 92/69/89 
f 92/69/89 93/70/90 51/55/48 
f 48/52/45 51/55/48 93/70/90 
f 93/70/90 82/56/79 48/52/45 
f 49/53/46 48/52/45 82/56/79 
f 82/56/79 81/54/78 49/53/46 
f 94/84/91 95/85/92 96/86/93 
f 94/84/91 97/87/94 95/85/92 
f 98/88/95 95/85/92 97/87/94 
f 97/87/94 99/89/96 98/88/95 
f 96/86/93 100/90/97 101/91/98 
f 101/91/98 102/92/99 96/86/93 
f 94/84/91 96/86/93 102/92/99 
f 102/92/99 103/93/100 94/84/91 
f 104/94/101 101/91/98 100/90/97 
f 100/90/97 105/95/102 104/94/101 
f 100/90/97 106/96/103 105/95/102 
f 106/96/103 100/90/97 96/86/93 
f 96/86/93 107/97/104 106/96/103 
f 95/85/92 107/97/104 96/86/93 
f 108/98/105 107/97/104 95/85/92 
f 95/85/92 109/99/106 108/98/105 
f 109/99/106 95/85/92 98/88/95 
f 98/88/95 110/100/107 109/99/106 
f 110/100/107 98/88/95 99/89/96 
f 99/89/96 111/101/108 110/100/107 
f 107/97/104 108/98/105 106/96/103 
f 112/102/109 113/103/109 114/3/110 
f 114/3/110 115/1/111 112/102/109 
f 116/104/112 117/105/113 118/106/114 
f 118/106/114 119/107/115 116/104/112 
f 119/107/115 118/106/114 120/108/116 
f 120/108/116 121/109/117 119/107/115 
f 121/109/117 120/108/116 122/110/118 
f 122/110/118 123/111/119 121/109/117 
f 123/111/119 122/110/118 124/112/120 
f 124/112/120 125/113/121 123/111/119 
f 125/113/121 124/112/120 113/114/109 
f 113/114/109 112/115/109 125/113/121 
f 126/103/122 127/102/123 117/1/113 
f 117/1/113 116/3/112 126/103/122 
f 128/116/124 129/117/125 130/118/126 
f 130/118/126 131/119/127 128/116/124 
f 131/119/127 130/118/126 127/120/123 
f 127/120/123 126/121/122 131/119/127 
f 132/122/128 133/123/129 134/124/130 
f 134/124/130 135/125/131 132/122/128 
f 128/126/124 135/125/131 134/124/130 
f 134/124/130 136/127/132 128/126/124 
f 19/125/19 20/122/20 133/123/129 
f 133/123/129 137/124/133 19/125/19 
f 18/128/18 19/125/19 137/124/133 
f 137/124/133 44/129/41 18/128/18 
f 102/130/99 101/131/98 104/132/101 
f 138/133/134 103/134/100 102/130/99 
f 138/133/134 102/130/99 104/132/101 
f 139/135/135 138/133/134 104/132/101 
f 140/97/136 141/96/137 142/98/138 
f 143/90/139 139/91/135 104/94/101 
f 104/94/101 105/95/102 143/90/139 
f 143/90/139 105/95/102 141/96/137 
f 144/86/140 143/90/139 141/96/137 
f 141/96/137 140/97/136 144/86/140 
f 144/86/140 140/97/136 145/85/141 
f 145/85/141 140/97/136 142/98/138 
f 142/98/138 146/99/142 145/85/141 
f 147/88/143 145/85/141 146/99/142 
f 146/99/142 148/100/144 147/88/143 
f 99/89/96 147/88/143 148/100/144 
f 148/100/144 111/101/108 99/89/96 
f 139/91/135 143/90/139 144/86/140 
f 147/88/143 99/89/96 97/87/94 
f 97/87/94 145/85/141 147/88/143 
f 94/84/91 145/85/141 97/87/94 
f 94/84/91 144/86/140 145/85/141 
f 138/92/134 144/86/140 94/84/91 
f 144/86/140 138/92/134 139/91/135 
f 94/84/91 103/93/100 138/92/134 
f 115/1/111 114/3/110 149/2/145 
f 150/128/146 44/129/41 137/124/133 
f 137/124/133 151/125/147 150/128/146 
f 151/125/147 137/124/133 133/123/129 
f 133/123/129 132/122/128 151/125/147 
f 24/126/24 136/127/132 134/124/130 
f 134/124/130 21/125/21 24/126/24 
f 20/122/20 21/125/21 134/124/130 
f 134/124/130 133/123/129 20/122/20 
f 124/14/120 122/9/118 120/9/116 
f 152/136/148 153/137/149 154/138/150 
f 154/138/150 155/139/151 152/136/148 
f 13/102/13 1/1/1 3/3/3 
f 3/3/3 31/103/13 13/102/13 
f 23/103/23 12/3/12 156/1/152 
f 156/1/152 157/102/153 23/103/23 
f 39/7/36 34/8/31 47/140/44 
f 39/7/36 47/140/44 37/6/34 
f 38/4/35 39/7/36 37/6/34 
f 38/4/35 37/6/34 36/5/33 
f 158/141/154 159/142/155 160/143/156 
f 158/141/154 129/144/125 161/145/157 
f 129/144/125 158/141/154 160/143/156 
f 130/146/126 129/144/125 160/143/156 
f 130/146/126 160/143/156 162/147/158 
f 162/147/158 127/148/123 130/146/126 
f 152/149/148 127/148/123 162/147/158 
f 117/150/113 127/148/123 152/149/148 
f 152/149/148 163/151/159 117/150/113 
f 117/150/113 163/151/159 118/10/114 
f 118/10/114 163/151/159 164/26/160 
f 162/147/158 153/152/149 152/149/148 
f 164/26/160 165/30/161 166/27/162 
f 164/26/160 120/9/116 118/10/114 
f 120/9/116 164/26/160 166/27/162 
f 120/9/116 166/27/162 124/14/120 
f 124/14/120 166/27/162 167/28/163 
f 167/28/163 113/13/109 124/14/120 
f 113/13/109 167/28/163 168/29/164 
f 168/29/164 114/12/110 113/13/109 
f 149/22/145 114/12/110 168/29/164 
f 168/29/164 169/15/165 149/22/145 
f 170/16/166 149/22/145 169/15/165 
f 167/28/163 166/27/162 42/43/39 
f 42/43/39 43/42/40 167/28/163 
f 168/29/164 167/28/163 43/42/40 
f 43/42/40 6/41/6 168/29/164 
f 37/31/34 168/29/164 6/41/6 
f 169/15/165 168/29/164 37/31/34 
f 37/31/34 171/32/167 169/15/165 
f 169/15/165 171/32/167 172/17/168 
f 172/17/168 170/16/166 169/15/165 
f 150/18/146 170/16/166 172/17/168 
f 170/16/166 150/18/146 151/19/147 
f 151/19/147 132/20/128 170/16/166 
f 170/16/166 132/20/128 135/21/131 
f 135/21/131 149/22/145 170/16/166 
f 149/22/145 135/21/131 131/23/127 
f 131/23/127 115/12/111 149/22/145 
f 115/12/111 131/23/127 126/24/122 
f 116/11/112 115/12/111 126/24/122 
f 135/21/131 128/25/124 131/23/127 
f 116/11/112 119/10/115 115/12/111 
f 119/10/115 112/13/109 115/12/111 
f 119/10/115 123/9/119 112/13/109 
f 123/9/119 125/14/121 112/13/109 
f 119/10/115 121/9/117 123/9/119 
f 173/153/169 160/154/156 159/155/155 
f 162/136/158 160/154/156 173/153/169 
f 173/153/169 174/139/170 162/136/158 
f 153/137/149 162/136/158 174/139/170 
f 174/139/170 154/138/150 153/137/149 
f 129/156/125 128/31/124 136/37/132 
f 129/156/125 136/37/132 24/34/24 
f 129/156/125 24/34/24 175/157/171 
f 129/156/125 175/157/171 176/158/172 
f 176/158/172 161/159/157 129/156/125 
f 158/160/154 161/159/157 176/158/172 
f 176/158/172 177/161/173 158/160/154 
f 158/160/154 177/161/173 178/162/174 
f 178/162/174 159/155/155 158/160/154 
f 159/155/155 178/162/174 173/153/169 
f 152/136/148 155/139/151 179/163/175 
f 179/163/175 163/164/159 152/136/148 
f 164/165/160 163/164/159 179/163/175 
f 179/163/175 27/166/26 164/165/160 
f 164/165/160 27/166/26 33/44/30 
f 33/44/30 165/43/161 164/165/160 
f 86/65/83 90/66/87 77/81/74 
f 78/82/75 77/81/74 90/66/87 
f 90/66/87 89/72/86 78/82/75 
f 79/83/76 78/82/75 89/72/86 
f 89/72/86 180/79/176 79/83/76 
f 180/79/176 89/72/86 87/73/84 
f 87/73/84 181/78/177 180/79/176 
f 181/78/177 87/73/84 72/76/69 
f 72/76/69 73/77/70 181/78/177 
f 177/141/173 176/145/172 175/144/171 
f 173/143/169 177/141/173 175/144/171 
f 182/146/178 173/143/169 175/144/171 
f 174/147/170 173/143/169 182/146/178 
f 182/146/178 157/148/153 174/147/170 
f 174/147/170 157/148/153 155/149/151 
f 155/149/151 157/148/153 156/150/152 
f 156/150/152 179/151/175 155/149/151 
f 156/150/152 25/10/25 179/151/175 
f 27/26/26 179/151/175 25/10/25 
f 155/149/151 154/152/150 174/147/170 
f 173/143/169 178/142/174 177/141/173 
f 22/119/22 23/121/23 157/120/153 
f 157/120/153 182/118/178 22/119/22 
f 24/116/24 22/119/22 182/118/178 
f 182/118/178 175/117/171 24/116/24 
f 42/167/39 166/168/162 165/169/161 
f 42/167/39 165/169/161 33/170/30 
f 42/167/39 33/170/30 28/171/27 
f 42/167/39 28/171/27 41/172/38 
f 171/51/167 37/31/34 47/37/44 
f 47/37/44 46/50/43 171/51/167 
f 172/49/168 171/51/167 46/50/43 
f 46/50/43 45/48/42 172/49/168 
f 150/46/146 172/49/168 45/48/42 
f 45/48/42 44/47/41 150/46/146 
f 14/113/14 13/115/13 31/114/13 
f 31/114/13 29/112/14 14/113/14 
f 9/111/9 14/113/14 29/112/14 
f 29/112/14 183/110/9 9/111/9 
f 10/109/10 9/111/9 183/110/9 
f 183/110/9 26/108/10 10/109/10 
f 11/107/11 10/109/10 26/108/10 
f 26/108/10 25/106/25 11/107/11 
f 12/104/12 11/107/11 25/106/25 
f 25/106/25 156/105/152 12/104/12 
f 26/9/10 183/9/9 29/14/14 
# 0 polygons - 338 triangles

